<svg xmlns="http://www.w3.org/2000/svg" viewBox="0 0 680 352" font-family="Helvetica,Arial,sans-serif">
<defs><marker id="arr" viewBox="0 0 10 10" refX="9" refY="5" markerWidth="7" markerHeight="7" orient="auto-start-reverse">
<path d="M0,0 L10,5 L0,10 z" fill="#9aa7b4"/></marker></defs>
<rect width="680" height="352" fill="#1e2227"/>
<rect x="10" y="22" width="88" height="164" rx="6" fill="#232a33" stroke="#5c7fa8" stroke-width="1.2" stroke-dasharray="5 3"/>
<text x="20" y="40" font-size="13" font-weight="bold" fill="#e6edf3">Team</text>
<rect x="282" y="30" width="126" height="132" rx="6" fill="#1f2a33" stroke="#4a7ba6" stroke-width="1.2"/>
<text x="292" y="48" font-size="13" font-weight="bold" fill="#e6edf3">Core platform</text>
<circle cx="54" cy="133" r="7" fill="none" stroke="#8aa0b8" stroke-width="1.5"/>
<path d="M 43 155 q 11 -19 22 0" fill="none" stroke="#8aa0b8" stroke-width="1.5"/>
<text x="54" y="167" font-size="11" text-anchor="middle" fill="#c9d5e1">Developer</text>
<circle cx="57" cy="59" r="7" fill="none" stroke="#8aa0b8" stroke-width="1.5"/>
<path d="M 46 81 q 11 -19 22 0" fill="none" stroke="#8aa0b8" stroke-width="1.5"/>
<text x="57" y="93" font-size="11" text-anchor="middle" fill="#c9d5e1">Operator</text>
<rect x="291" y="115" width="108" height="38" rx="4" fill="#252a31" stroke="#5f7f9e" stroke-width="1.3"/>
<text x="345" y="138" font-size="12.5" text-anchor="middle" fill="#e6edf3">API service</text>
<rect x="291" y="57" width="108" height="38" rx="4" fill="#252a31" stroke="#5f7f9e" stroke-width="1.3"/>
<text x="345" y="80" font-size="12.5" text-anchor="middle" fill="#e6edf3">Job runner</text>
<path d="M 539 78 v 24 a 65.5 7 0 0 0 131 0 v -24" fill="#2a2433" stroke="#7a5f9e" stroke-width="1.3"/>
<ellipse cx="604.5" cy="78" rx="65.5" ry="7" fill="#2a2433" stroke="#7a5f9e" stroke-width="1.3"/>
<text x="604.5" y="97.5" font-size="12.5" text-anchor="middle" fill="#e6edf3">Primary database</text>
<rect x="539" y="121" width="131" height="38" rx="4" fill="#2a2833" stroke="#7d72a0" stroke-width="1.2" stroke-dasharray="5 3"/>
<text x="604.5" y="144" font-size="12.5" text-anchor="middle" fill="#e6edf3">Payment provider</text>
<path d="M 89 150 L 113 150 L 113 134 L 291 134" fill="none" stroke="#9aa7b4" stroke-width="1.3" marker-end="url(#arr)"/>
<text x="165" y="149.5" font-size="11.5" text-anchor="middle" fill="#d6dde4" font-style="italic" stroke="#1e2227" stroke-width="2.5" paint-order="stroke" stroke-linejoin="round">Create order</text>
<text x="165" y="164" font-size="9" text-anchor="middle" fill="#9aa7b4" stroke="#1e2227" stroke-width="2.5" paint-order="stroke" stroke-linejoin="round">(HTTPS, JSON)</text>
<rect x="143.5" y="169.5" width="43" height="15" rx="7.5" fill="#3a3320" stroke="#b08d2a" stroke-width="1"/>
<text x="165" y="180.5" font-size="9.5" text-anchor="middle" fill="#e0c068" font-weight="bold">Order</text>
<path d="M 399 127.66666666666667 L 413 128 L 423 128 L 423 96 L 539 96" fill="none" stroke="#9aa7b4" stroke-width="1.3" marker-end="url(#arr)"/>
<text x="478" y="111.5" font-size="11.5" text-anchor="middle" fill="#d6dde4" font-style="italic" stroke="#1e2227" stroke-width="2.5" paint-order="stroke" stroke-linejoin="round">Persist order</text>
<text x="478" y="126" font-size="9" text-anchor="middle" fill="#9aa7b4" stroke="#1e2227" stroke-width="2.5" paint-order="stroke" stroke-linejoin="round">(SQL)</text>
<path d="M 399 140.33333333333331 L 413 140 L 539 140" fill="none" stroke="#9aa7b4" stroke-width="1.3" marker-end="url(#arr)"/>
<text x="467.5" y="155.5" font-size="11.5" text-anchor="middle" fill="#d6dde4" font-style="italic" stroke="#1e2227" stroke-width="2.5" paint-order="stroke" stroke-linejoin="round">Charge card</text>
<text x="467.5" y="170" font-size="9" text-anchor="middle" fill="#9aa7b4" stroke="#1e2227" stroke-width="2.5" paint-order="stroke" stroke-linejoin="round">(HTTPS)</text>
<path d="M 89 76 L 291 76" fill="none" stroke="#9aa7b4" stroke-width="1.3" marker-end="url(#arr)"/>
<text x="190" y="66.5" font-size="11.5" text-anchor="middle" fill="#d6dde4" font-style="italic" stroke="#1e2227" stroke-width="2.5" paint-order="stroke" stroke-linejoin="round">Trigger nightly batch</text>
<path d="M 399 76 L 529 76 L 529 84 L 539 84" fill="none" stroke="#9aa7b4" stroke-width="1.3" marker-end="url(#arr)"/>
<text x="477" y="54.5" font-size="11.5" text-anchor="middle" fill="#d6dde4" font-style="italic" stroke="#1e2227" stroke-width="2.5" paint-order="stroke" stroke-linejoin="round">Read / write</text>
<text x="477" y="69" font-size="9" text-anchor="middle" fill="#9aa7b4" stroke="#1e2227" stroke-width="2.5" paint-order="stroke" stroke-linejoin="round">(SQL)</text>
<line x1="20" y1="208" x2="660" y2="208" stroke="#3a4149" stroke-width="1"/>
<text x="20" y="230" font-size="11" font-weight="bold" fill="#b7c2cd">BUSINESS OBJECTS</text>
<rect x="150" y="220" width="43" height="15" rx="7.5" fill="#3a3320" stroke="#b08d2a"/>
<text x="171.5" y="231" font-size="9.5" text-anchor="middle" fill="#e0c068" font-weight="bold">Order</text>
<text x="203" y="231" font-size="10" fill="#93a0ab">— a customer order tracked to fulfilment</text>
<line x1="20" y1="258" x2="660" y2="258" stroke="#3a4149" stroke-width="1"/>
<text x="20" y="280" font-size="11" font-weight="bold" fill="#b7c2cd">LEGEND</text>
<rect x="150" y="270" width="26" height="14" rx="3" fill="#232a33" stroke="#5c7fa8" stroke-dasharray="5 3"/>
<text x="182" y="281" font-size="10" fill="#c2ccd6">Actor group</text>
<rect x="272" y="270" width="26" height="14" rx="3" fill="#1f2a33" stroke="#4a7ba6"/>
<text x="304" y="281" font-size="10" fill="#c2ccd6">Application</text>
<rect x="394" y="270" width="26" height="14" rx="3" fill="#252a31" stroke="#5f7f9e"/>
<text x="426" y="281" font-size="10" fill="#c2ccd6">Application module</text>
<rect x="150" y="292" width="26" height="14" rx="3" fill="#2a2433" stroke="#7a5f9e"/>
<text x="182" y="303" font-size="10" fill="#c2ccd6">Datastore / registry</text>
<rect x="318" y="292" width="26" height="14" rx="3" fill="#2a2833" stroke="#7d72a0" stroke-dasharray="5 3"/>
<text x="350" y="303" font-size="10" fill="#c2ccd6">External system</text>
<line x1="150" y1="322" x2="176" y2="322" stroke="#9aa7b4" stroke-width="1.3" marker-end="url(#arr)"/>
<text x="182" y="326" font-size="10" fill="#c2ccd6">Application flow — (protocol, format) under the label</text>
<rect x="480" y="315" width="96" height="15" rx="7.5" fill="#3a3320" stroke="#b08d2a"/>
<text x="528" y="326" font-size="9.5" text-anchor="middle" fill="#e0c068" font-weight="bold">Business object</text>
<text x="584" y="326" font-size="10" fill="#c2ccd6">carried by the flow</text>
</svg>
