<svg xmlns="http://www.w3.org/2000/svg" viewBox="0 0 1178 618" font-family="Helvetica,Arial,sans-serif">
<defs><marker id="arr" viewBox="0 0 10 10" refX="9" refY="5" markerWidth="7" markerHeight="7" orient="auto-start-reverse">
<path d="M0,0 L10,5 L0,10 z" fill="#5a6675"/></marker></defs>
<rect width="1178" height="618" fill="#ffffff"/>
<rect x="10" y="157" width="119" height="175" rx="6" fill="#e9f2fb" stroke="#1f77b4" stroke-width="1.2" stroke-dasharray="5 3"/>
<text x="20" y="175" font-size="13" font-weight="bold" fill="#17202c">Managers</text>
<rect x="670" y="290" width="149" height="150" rx="6" fill="#e9f3fa" stroke="#2f83b6" stroke-width="1.2"/>
<text x="680" y="308" font-size="13" font-weight="bold" fill="#17202c">CRM</text>
<rect x="348" y="102" width="162" height="217" rx="6" fill="#e9f3fa" stroke="#2f83b6" stroke-width="1.2"/>
<text x="358" y="120" font-size="13" font-weight="bold" fill="#17202c">Billing</text>
<rect x="627" y="22" width="367" height="94" rx="6" fill="#e9f3fa" stroke="#2f83b6" stroke-width="1.2"/>
<text x="637" y="40" font-size="13" font-weight="bold" fill="#17202c">Accounting</text>
<circle cx="82" cy="194" r="7" fill="none" stroke="#1f5e91" stroke-width="1.5"/>
<path d="M 71 216 q 11 -19 22 0" fill="none" stroke="#1f5e91" stroke-width="1.5"/>
<text x="82" y="228" font-size="11" text-anchor="middle" fill="#20364c">Accountant</text>
<circle cx="69.5" cy="268" r="7" fill="none" stroke="#1f5e91" stroke-width="1.5"/>
<path d="M 58.5 290 q 11 -19 22 0" fill="none" stroke="#1f5e91" stroke-width="1.5"/>
<text x="69.5" y="302" font-size="11" text-anchor="middle" fill="#20364c">Sales</text>
<text x="69.5" y="313" font-size="11" text-anchor="middle" fill="#20364c">administration</text>
<rect x="679" y="317" width="131" height="47" rx="4" fill="#ffffff" stroke="#48546a" stroke-width="1.3"/>
<text x="744.5" y="337.25" font-size="12.5" text-anchor="middle" fill="#17202c">Customer-account</text>
<text x="744.5" y="351.75" font-size="12.5" text-anchor="middle" fill="#17202c">management</text>
<rect x="690.5" y="384" width="108" height="47" rx="4" fill="#ffffff" stroke="#48546a" stroke-width="1.3"/>
<text x="744.5" y="404.25" font-size="12.5" text-anchor="middle" fill="#17202c">Contract</text>
<text x="744.5" y="418.75" font-size="12.5" text-anchor="middle" fill="#17202c">management</text>
<rect x="362.3333333333333" y="263" width="108" height="47" rx="4" fill="#ffffff" stroke="#48546a" stroke-width="1.3"/>
<text x="416.3333333333333" y="283.25" font-size="12.5" text-anchor="middle" fill="#17202c">Billing</text>
<text x="416.3333333333333" y="297.75" font-size="12.5" text-anchor="middle" fill="#17202c">engine</text>
<rect x="357" y="129" width="124" height="47" rx="4" fill="#ffffff" stroke="#48546a" stroke-width="1.3"/>
<text x="419" y="149.25" font-size="12.5" text-anchor="middle" fill="#17202c">Invoice issuing</text>
<text x="419" y="163.75" font-size="12.5" text-anchor="middle" fill="#17202c">and sending</text>
<rect x="365" y="196" width="108" height="47" rx="4" fill="#ffffff" stroke="#48546a" stroke-width="1.3"/>
<text x="419" y="216.25" font-size="12.5" text-anchor="middle" fill="#17202c">Dunning and</text>
<text x="419" y="230.75" font-size="12.5" text-anchor="middle" fill="#17202c">collection</text>
<rect x="868" y="58.16666666666667" width="117" height="38" rx="4" fill="#ffffff" stroke="#48546a" stroke-width="1.3"/>
<text x="926.5" y="81.16666666666667" font-size="12.5" text-anchor="middle" fill="#17202c">General ledger</text>
<rect x="636" y="60" width="108" height="47" rx="4" fill="#ffffff" stroke="#48546a" stroke-width="1.3"/>
<text x="690" y="80.25" font-size="12.5" text-anchor="middle" fill="#17202c">Accounts</text>
<text x="690" y="94.75" font-size="12.5" text-anchor="middle" fill="#17202c">receivable</text>
<path d="M 764 196 h 92 a 8 23.5 0 0 1 0 47 h -92 a 8 23.5 0 0 1 0 -47" fill="#f4edf8" stroke="#8a53a8" stroke-width="1.3"/>
<ellipse cx="764" cy="219.5" rx="8" ry="23.5" fill="#f4edf8" stroke="#8a53a8" stroke-width="1.3"/>
<text x="814" y="216.25" font-size="12.5" text-anchor="middle" fill="#17202c">Billing</text>
<text x="814" y="230.75" font-size="12.5" text-anchor="middle" fill="#17202c">event bus</text>
<path d="M 966 324 v 33 a 54 7 0 0 0 108 0 v -33" fill="#f4edf8" stroke="#8a53a8" stroke-width="1.3"/>
<ellipse cx="1020" cy="324" rx="54" ry="7" fill="#f4edf8" stroke="#8a53a8" stroke-width="1.3"/>
<text x="1020" y="340.75" font-size="12.5" text-anchor="middle" fill="#17202c">Customer</text>
<text x="1020" y="355.25" font-size="12.5" text-anchor="middle" fill="#17202c">repository</text>
<path d="M 154 262 v 33 a 54 7 0 0 0 108 0 v -33" fill="#f4edf8" stroke="#8a53a8" stroke-width="1.3"/>
<ellipse cx="208" cy="262" rx="54" ry="7" fill="#f4edf8" stroke="#8a53a8" stroke-width="1.3"/>
<text x="208" y="278.75" font-size="12.5" text-anchor="middle" fill="#17202c">Offer</text>
<text x="208" y="293.25" font-size="12.5" text-anchor="middle" fill="#17202c">catalog</text>
<rect x="880" y="160" width="108" height="47" rx="4" fill="#f4eff8" stroke="#8659a6" stroke-width="1.2" stroke-dasharray="5 3"/>
<text x="934" y="180.25" font-size="12.5" text-anchor="middle" fill="#17202c">Partner EDI</text>
<text x="934" y="194.75" font-size="12.5" text-anchor="middle" fill="#17202c">platform</text>
<rect x="1010" y="102" width="158" height="47" rx="4" fill="#f4eff8" stroke="#8659a6" stroke-width="1.2" stroke-dasharray="5 3"/>
<text x="1089" y="122.25" font-size="12.5" text-anchor="middle" fill="#17202c">Electronic-invoicing</text>
<text x="1089" y="136.75" font-size="12.5" text-anchor="middle" fill="#17202c">portal (PPF)</text>
<path d="M 120 290.5 L 134 291 L 144 291 L 144 483 L 655 483 L 655 408 L 665 407.5 L 690.5 407.5" fill="none" stroke="#5a6675" stroke-width="1.3" marker-end="url(#arr)"/>
<path d="M 810 340.5 L 824 341 L 966 341" fill="none" stroke="#5a6675" stroke-width="1.3" marker-end="url(#arr)"/>
<text x="895" y="356.5" font-size="11.5" text-anchor="middle" fill="#3a4553" font-style="italic" stroke="#ffffff" stroke-width="2.5" paint-order="stroke" stroke-linejoin="round">(API_REST, JSON)</text>
<path d="M 798.5 407.5 L 824 408 L 834 408 L 834 450 L 660 450 A 5 5 0 0 0 650 450 L 333 450 L 333 294 L 343 294.33333333333337 L 362.3333333333333 294.33333333333337" fill="none" stroke="#5a6675" stroke-width="1.3" marker-end="url(#arr)"/>
<text x="609.5" y="465.5" font-size="11.5" text-anchor="middle" fill="#3a4553" font-style="italic" stroke="#ffffff" stroke-width="2.5" paint-order="stroke" stroke-linejoin="round">(MQ, JSON)</text>
<path d="M 262 279 L 343 278.66666666666663 L 362.3333333333333 278.66666666666663" fill="none" stroke="#5a6675" stroke-width="1.3" marker-end="url(#arr)"/>
<text x="300.5" y="294.5" font-size="11.5" text-anchor="middle" fill="#3a4553" font-style="italic" stroke="#ffffff" stroke-width="2.5" paint-order="stroke" stroke-linejoin="round">(JDBC)</text>
<path d="M 470.3333333333333 286.5 L 515 287 L 525 287 L 525 256 L 650 256 A 5 5 0 0 1 660 256 L 746 256 L 746 227 L 756 227" fill="none" stroke="#5a6675" stroke-width="1.3" marker-end="url(#arr)"/>
<text x="700.5" y="271.5" font-size="11.5" text-anchor="middle" fill="#3a4553" font-style="italic" stroke="#ffffff" stroke-width="2.5" paint-order="stroke" stroke-linejoin="round">(MQ, JSON)</text>
<path d="M 481 166.6 L 491 166.6 L 491 168.4 L 515 168 L 525 168 L 525 212 L 756 212" fill="none" stroke="#5a6675" stroke-width="1.3" marker-end="url(#arr)"/>
<text x="570.5" y="202.5" font-size="11.5" text-anchor="middle" fill="#3a4553" font-style="italic" stroke="#ffffff" stroke-width="2.5" paint-order="stroke" stroke-linejoin="round">(MQ, JSON)</text>
<path d="M 481 157.2 L 491 157.2 L 491 158.4 L 515 158 L 616 158 L 616 184 L 880 184" fill="none" stroke="#5a6675" stroke-width="1.3" marker-end="url(#arr)"/>
<text x="570.5" y="173.5" font-size="11.5" text-anchor="middle" fill="#3a4553" font-style="italic" stroke="#ffffff" stroke-width="2.5" paint-order="stroke" stroke-linejoin="round">(AS4, UBL)</text>
<path d="M 481 147.8 L 491 147.8 L 491 148.4 L 515 148 L 535 148 L 535 126 L 1010 126" fill="none" stroke="#5a6675" stroke-width="1.3" marker-end="url(#arr)"/>
<text x="609.5" y="141.5" font-size="11.5" text-anchor="middle" fill="#3a4553" font-style="italic" stroke="#ffffff" stroke-width="2.5" paint-order="stroke" stroke-linejoin="round">(API_REST, FacturX)</text>
<path d="M 481 138.4 L 515 138 L 525 138 L 525 84 L 622 83.5 L 636 83.5" fill="none" stroke="#5a6675" stroke-width="1.3" marker-end="url(#arr)"/>
<text x="570.5" y="99.5" font-size="11.5" text-anchor="middle" fill="#3a4553" font-style="italic" stroke="#ffffff" stroke-width="2.5" paint-order="stroke" stroke-linejoin="round">(MQ, JSON)</text>
<path d="M 473 219.5 L 515 220 L 525 220 L 525 223 L 655 223 L 655 341 L 665 340.5 L 679 340.5" fill="none" stroke="#5a6675" stroke-width="1.3" marker-end="url(#arr)"/>
<text x="590" y="238.5" font-size="11.5" text-anchor="middle" fill="#3a4553" font-style="italic" stroke="#ffffff" stroke-width="2.5" paint-order="stroke" stroke-linejoin="round">(API_REST, JSON)</text>
<path d="M 744 83.5 L 868 83.5" fill="none" stroke="#5a6675" stroke-width="1.3" marker-end="url(#arr)"/>
<text x="806" y="99" font-size="11.5" text-anchor="middle" fill="#3a4553" font-style="italic" stroke="#ffffff" stroke-width="2.5" paint-order="stroke" stroke-linejoin="round">(batch, CSV)</text>
<path d="M 120 202 L 333 202 L 333 73 L 333 73 L 333 49 L 858 49 L 858 70.83333333333334 L 868 70.83333333333334" fill="none" stroke="#5a6675" stroke-width="1.3" marker-end="url(#arr)"/>
<path d="M 120 220 L 343 219.5 L 365 219.5" fill="none" stroke="#5a6675" stroke-width="1.3" marker-end="url(#arr)"/>
<line x1="20" y1="504" x2="1158" y2="504" stroke="#e6e9ee" stroke-width="1"/>
<text x="20" y="526" font-size="11" font-weight="bold" fill="#3a4553">LEGEND</text>
<rect x="150" y="516" width="26" height="14" rx="3" fill="#e9f2fb" stroke="#1f77b4" stroke-dasharray="5 3"/>
<text x="182" y="527" font-size="10" fill="#17202c">Actor group</text>
<rect x="272" y="516" width="26" height="14" rx="3" fill="#e9f3fa" stroke="#2f83b6"/>
<text x="304" y="527" font-size="10" fill="#17202c">Application</text>
<rect x="394" y="516" width="26" height="14" rx="3" fill="#ffffff" stroke="#48546a"/>
<text x="426" y="527" font-size="10" fill="#17202c">Application module</text>
<rect x="552" y="516" width="26" height="14" rx="3" fill="#f4edf8" stroke="#8a53a8"/>
<text x="584" y="527" font-size="10" fill="#17202c">Message queue / broker</text>
<rect x="731" y="516" width="26" height="14" rx="3" fill="#f4edf8" stroke="#8a53a8"/>
<text x="763" y="527" font-size="10" fill="#17202c">Datastore / registry</text>
<rect x="899" y="516" width="26" height="14" rx="3" fill="#f4eff8" stroke="#8659a6" stroke-dasharray="5 3"/>
<text x="931" y="527" font-size="10" fill="#17202c">External system</text>
<line x1="150" y1="568" x2="176" y2="568" stroke="#5a6675" stroke-width="1.3" marker-end="url(#arr)"/>
<text x="182" y="572" font-size="10" fill="#17202c">Application flow — (protocol, format) under the label</text>
<text x="150" y="596" font-size="10" fill="#17202c" font-style="italic">Factur-X mandatory since the electronic-invoicing reform</text>
</svg>
