<svg xmlns="http://www.w3.org/2000/svg" viewBox="0 0 1561 778" font-family="Helvetica,Arial,sans-serif">
<defs><marker id="arr" viewBox="0 0 10 10" refX="9" refY="5" markerWidth="7" markerHeight="7" orient="auto-start-reverse">
<path d="M0,0 L10,5 L0,10 z" fill="#444444"/></marker></defs>
<rect width="1561" height="778" fill="white"/>
<rect x="12" y="242" width="117" height="185" rx="6" fill="#eef4fb" stroke="#7a9cc4" stroke-width="1.2" stroke-dasharray="5 3"/>
<text x="22" y="260" font-size="12" font-weight="bold" fill="#333">Managers</text>
<rect x="1065" y="347" width="164" height="164" rx="6" fill="#e8f1f8" stroke="#5b8db8" stroke-width="1.2"/>
<text x="1075" y="365" font-size="12" font-weight="bold" fill="#333">CRM</text>
<rect x="476" y="143" width="402" height="203.5" rx="6" fill="#e8f1f8" stroke="#5b8db8" stroke-width="1.2"/>
<text x="486" y="161" font-size="12" font-weight="bold" fill="#333">Billing</text>
<rect x="1035" y="30" width="411" height="125.5" rx="6" fill="#e8f1f8" stroke="#5b8db8" stroke-width="1.2"/>
<text x="1045" y="48" font-size="12" font-weight="bold" fill="#333">Accounting</text>
<circle cx="81.5" cy="282" r="7" fill="none" stroke="#445566" stroke-width="1.5"/>
<path d="M 70.5 304 q 11 -19 22 0" fill="none" stroke="#445566" stroke-width="1.5"/>
<text x="81.5" y="316" font-size="10" text-anchor="middle" fill="#223344">Accountant</text>
<circle cx="70.5" cy="358" r="7" fill="none" stroke="#445566" stroke-width="1.5"/>
<path d="M 59.5 380 q 11 -19 22 0" fill="none" stroke="#445566" stroke-width="1.5"/>
<text x="70.5" y="392" font-size="10" text-anchor="middle" fill="#223344">Sales</text>
<text x="70.5" y="403" font-size="10" text-anchor="middle" fill="#223344">administration</text>
<rect x="1077" y="377" width="140" height="51" rx="4" fill="#ffffff" stroke="#5b7a99" stroke-width="1.3"/>
<text x="1147" y="399.75" font-size="11.5" text-anchor="middle" fill="#222233">Customer-account</text>
<text x="1147" y="413.25" font-size="11.5" text-anchor="middle" fill="#222233">management</text>
<rect x="1077" y="448" width="140" height="51" rx="4" fill="#ffffff" stroke="#5b7a99" stroke-width="1.3"/>
<text x="1147" y="470.75" font-size="11.5" text-anchor="middle" fill="#222233">Contract</text>
<text x="1147" y="484.25" font-size="11.5" text-anchor="middle" fill="#222233">management</text>
<rect x="488" y="212.5" width="140" height="51" rx="4" fill="#ffffff" stroke="#5b7a99" stroke-width="1.3"/>
<text x="558" y="235.25" font-size="11.5" text-anchor="middle" fill="#222233">Billing</text>
<text x="558" y="248.75" font-size="11.5" text-anchor="middle" fill="#222233">engine</text>
<rect x="726" y="212.5" width="140" height="51" rx="4" fill="#ffffff" stroke="#5b7a99" stroke-width="1.3"/>
<text x="796" y="235.25" font-size="11.5" text-anchor="middle" fill="#222233">Invoice issuing</text>
<text x="796" y="248.75" font-size="11.5" text-anchor="middle" fill="#222233">and sending</text>
<rect x="488" y="283.5" width="140" height="51" rx="4" fill="#ffffff" stroke="#5b7a99" stroke-width="1.3"/>
<text x="558" y="306.25" font-size="11.5" text-anchor="middle" fill="#222233">Dunning and</text>
<text x="558" y="319.75" font-size="11.5" text-anchor="middle" fill="#222233">collection</text>
<rect x="1294" y="65.83333333333334" width="140" height="46" rx="4" fill="#ffffff" stroke="#5b7a99" stroke-width="1.3"/>
<text x="1364" y="92.83333333333334" font-size="11.5" text-anchor="middle" fill="#222233">General ledger</text>
<rect x="1047" y="71" width="140" height="51" rx="4" fill="#ffffff" stroke="#5b7a99" stroke-width="1.3"/>
<text x="1117" y="93.75" font-size="11.5" text-anchor="middle" fill="#222233">Accounts</text>
<text x="1117" y="107.25" font-size="11.5" text-anchor="middle" fill="#222233">receivable</text>
<path d="M 1409 384 v 37 a 70 7 0 0 0 140 0 v -37" fill="#f3eef8" stroke="#8a6fae" stroke-width="1.3"/>
<ellipse cx="1479" cy="384" rx="70" ry="7" fill="#f3eef8" stroke="#8a6fae" stroke-width="1.3"/>
<text x="1479" y="403.25" font-size="11.5" text-anchor="middle" fill="#222233">Customer</text>
<text x="1479" y="416.75" font-size="11.5" text-anchor="middle" fill="#222233">repository</text>
<path d="M 178 211 v 37 a 70 7 0 0 0 140 0 v -37" fill="#f3eef8" stroke="#8a6fae" stroke-width="1.3"/>
<ellipse cx="248" cy="211" rx="70" ry="7" fill="#f3eef8" stroke="#8a6fae" stroke-width="1.3"/>
<text x="248" y="230.25" font-size="11.5" text-anchor="middle" fill="#222233">Offer</text>
<text x="248" y="243.75" font-size="11.5" text-anchor="middle" fill="#222233">catalog</text>
<rect x="1139" y="279" width="140" height="51" rx="4" fill="#f0eef5" stroke="#9187b3" stroke-width="1.2" stroke-dasharray="5 3"/>
<text x="1209" y="301.75" font-size="11.5" text-anchor="middle" fill="#222233">Partner EDI</text>
<text x="1209" y="315.25" font-size="11.5" text-anchor="middle" fill="#222233">platform</text>
<rect x="1139" y="212" width="151" height="51" rx="4" fill="#f0eef5" stroke="#9187b3" stroke-width="1.2" stroke-dasharray="5 3"/>
<text x="1214.5" y="234.75" font-size="11.5" text-anchor="middle" fill="#222233">Electronic-invoicing</text>
<text x="1214.5" y="248.25" font-size="11.5" text-anchor="middle" fill="#222233">portal (PPF)</text>
<path d="M 117 381.5 L 134 382 L 378 382 L 378 474 L 1060 473.5 L 1077 473.5" fill="none" stroke="#444444" stroke-width="1.3" marker-end="url(#arr)"/>
<text x="419.5" y="489.5" font-size="10.5" text-anchor="middle" fill="#333" font-style="italic" stroke="white" stroke-width="2.5" paint-order="stroke" stroke-linejoin="round">Enter and</text>
<text x="419.5" y="503" font-size="10.5" text-anchor="middle" fill="#333" font-style="italic" stroke="white" stroke-width="2.5" paint-order="stroke" stroke-linejoin="round">update</text>
<text x="419.5" y="516.5" font-size="10.5" text-anchor="middle" fill="#333" font-style="italic" stroke="white" stroke-width="2.5" paint-order="stroke" stroke-linejoin="round">contracts</text>
<rect x="390" y="524.5" width="59" height="15" rx="7.5" fill="#fdf3d8" stroke="#c9a227" stroke-width="1"/>
<text x="419.5" y="535.5" font-size="9.5" text-anchor="middle" fill="#7a6216" font-weight="bold">Contract</text>
<path d="M 1217 402.5 L 1234 403 L 1409 403" fill="none" stroke="#444444" stroke-width="1.3" marker-end="url(#arr)"/>
<text x="1321.5" y="418.5" font-size="10.5" text-anchor="middle" fill="#333" font-style="italic" stroke="white" stroke-width="2.5" paint-order="stroke" stroke-linejoin="round">Sync customer</text>
<text x="1321.5" y="432" font-size="10.5" text-anchor="middle" fill="#333" font-style="italic" stroke="white" stroke-width="2.5" paint-order="stroke" stroke-linejoin="round">accounts</text>
<text x="1321.5" y="445.5" font-size="9" text-anchor="middle" fill="#777" stroke="white" stroke-width="2.5" paint-order="stroke" stroke-linejoin="round">(API_REST, JSON)</text>
<path d="M 1217 473.5 L 1234 474 L 1244 474 L 1244 523 L 461 523 L 461 247 L 471 246.5 L 488 246.5" fill="none" stroke="#444444" stroke-width="1.3" marker-end="url(#arr)"/>
<text x="1101.5" y="538.5" font-size="10.5" text-anchor="middle" fill="#333" font-style="italic" stroke="white" stroke-width="2.5" paint-order="stroke" stroke-linejoin="round">Contractual</text>
<text x="1101.5" y="552" font-size="10.5" text-anchor="middle" fill="#333" font-style="italic" stroke="white" stroke-width="2.5" paint-order="stroke" stroke-linejoin="round">items to bill</text>
<text x="1101.5" y="565.5" font-size="9" text-anchor="middle" fill="#777" stroke="white" stroke-width="2.5" paint-order="stroke" stroke-linejoin="round">(MQ, JSON)</text>
<rect x="1072" y="572" width="59" height="15" rx="7.5" fill="#fdf3d8" stroke="#c9a227" stroke-width="1"/>
<text x="1101.5" y="583" font-size="9.5" text-anchor="middle" fill="#7a6216" font-weight="bold">Contract</text>
<path d="M 318 230 L 471 229.5 L 488 229.5" fill="none" stroke="#444444" stroke-width="1.3" marker-end="url(#arr)"/>
<text x="394.5" y="245.5" font-size="10.5" text-anchor="middle" fill="#333" font-style="italic" stroke="white" stroke-width="2.5" paint-order="stroke" stroke-linejoin="round">Prices and</text>
<text x="394.5" y="259" font-size="10.5" text-anchor="middle" fill="#333" font-style="italic" stroke="white" stroke-width="2.5" paint-order="stroke" stroke-linejoin="round">terms</text>
<text x="394.5" y="272.5" font-size="9" text-anchor="middle" fill="#777" stroke="white" stroke-width="2.5" paint-order="stroke" stroke-linejoin="round">(JDBC)</text>
<path d="M 628 238 L 726 238" fill="none" stroke="#444444" stroke-width="1.3" marker-end="url(#arr)"/>
<text x="677" y="184.5" font-size="10.5" text-anchor="middle" fill="#333" font-style="italic" stroke="white" stroke-width="2.5" paint-order="stroke" stroke-linejoin="round">Computed</text>
<text x="677" y="198" font-size="10.5" text-anchor="middle" fill="#333" font-style="italic" stroke="white" stroke-width="2.5" paint-order="stroke" stroke-linejoin="round">invoices</text>
<text x="677" y="211.5" font-size="9" text-anchor="middle" fill="#777" stroke="white" stroke-width="2.5" paint-order="stroke" stroke-linejoin="round">(MQ, JSON)</text>
<rect x="650" y="218" width="54" height="15" rx="7.5" fill="#fdf3d8" stroke="#c9a227" stroke-width="1"/>
<text x="677" y="229" font-size="9.5" text-anchor="middle" fill="#7a6216" font-weight="bold">Invoice</text>
<path d="M 866 250.75 L 883 251 L 893 251 L 893 250 L 1129 250 L 1129 305 L 1139 305" fill="none" stroke="#444444" stroke-width="1.3" marker-end="url(#arr)"/>
<text x="1065.5" y="265.5" font-size="10.5" text-anchor="middle" fill="#333" font-style="italic" stroke="white" stroke-width="2.5" paint-order="stroke" stroke-linejoin="round">Submit</text>
<text x="1065.5" y="279" font-size="10.5" text-anchor="middle" fill="#333" font-style="italic" stroke="white" stroke-width="2.5" paint-order="stroke" stroke-linejoin="round">paperless</text>
<text x="1065.5" y="292.5" font-size="10.5" text-anchor="middle" fill="#333" font-style="italic" stroke="white" stroke-width="2.5" paint-order="stroke" stroke-linejoin="round">invoices</text>
<text x="1065.5" y="306" font-size="9" text-anchor="middle" fill="#777" stroke="white" stroke-width="2.5" paint-order="stroke" stroke-linejoin="round">(AS4, UBL)</text>
<rect x="1038.5" y="312.5" width="54" height="15" rx="7.5" fill="#fdf3d8" stroke="#c9a227" stroke-width="1"/>
<text x="1065.5" y="323.5" font-size="9.5" text-anchor="middle" fill="#7a6216" font-weight="bold">Invoice</text>
<path d="M 866 238 L 1139 238" fill="none" stroke="#444444" stroke-width="1.3" marker-end="url(#arr)"/>
<text x="978" y="183.5" font-size="10.5" text-anchor="middle" fill="#333" font-style="italic" stroke="white" stroke-width="2.5" paint-order="stroke" stroke-linejoin="round">Regulatory</text>
<text x="978" y="197" font-size="10.5" text-anchor="middle" fill="#333" font-style="italic" stroke="white" stroke-width="2.5" paint-order="stroke" stroke-linejoin="round">transmission</text>
<text x="978" y="210.5" font-size="9" text-anchor="middle" fill="#777" stroke="white" stroke-width="2.5" paint-order="stroke" stroke-linejoin="round">(API_REST, FacturX)</text>
<rect x="951" y="217" width="54" height="15" rx="7.5" fill="#fdf3d8" stroke="#c9a227" stroke-width="1"/>
<text x="978" y="228" font-size="9.5" text-anchor="middle" fill="#7a6216" font-weight="bold">Invoice</text>
<path d="M 866 225.25 L 883 225 L 893 225 L 893 97 L 1030 96.5 L 1047 96.5" fill="none" stroke="#444444" stroke-width="1.3" marker-end="url(#arr)"/>
<text x="944.5" y="112.5" font-size="10.5" text-anchor="middle" fill="#333" font-style="italic" stroke="white" stroke-width="2.5" paint-order="stroke" stroke-linejoin="round">Sales entries</text>
<text x="944.5" y="126" font-size="9" text-anchor="middle" fill="#777" stroke="white" stroke-width="2.5" paint-order="stroke" stroke-linejoin="round">(MQ, JSON)</text>
<path d="M 628 309 L 1026 309 L 1026 403 L 1060 402.5 L 1077 402.5" fill="none" stroke="#444444" stroke-width="1.3" marker-end="url(#arr)"/>
<text x="971.5" y="324.5" font-size="10.5" text-anchor="middle" fill="#333" font-style="italic" stroke="white" stroke-width="2.5" paint-order="stroke" stroke-linejoin="round">Customer</text>
<text x="971.5" y="338" font-size="10.5" text-anchor="middle" fill="#333" font-style="italic" stroke="white" stroke-width="2.5" paint-order="stroke" stroke-linejoin="round">dunning status</text>
<text x="971.5" y="351.5" font-size="9" text-anchor="middle" fill="#777" stroke="white" stroke-width="2.5" paint-order="stroke" stroke-linejoin="round">(API_REST, JSON)</text>
<path d="M 1187 96.5 L 1294 96.5" fill="none" stroke="#444444" stroke-width="1.3" marker-end="url(#arr)"/>
<text x="1240.5" y="111" font-size="10.5" text-anchor="middle" fill="#333" font-style="italic" stroke="white" stroke-width="2.5" paint-order="stroke" stroke-linejoin="round">Accounting</text>
<text x="1240.5" y="124.5" font-size="10.5" text-anchor="middle" fill="#333" font-style="italic" stroke="white" stroke-width="2.5" paint-order="stroke" stroke-linejoin="round">posting</text>
<text x="1240.5" y="138" font-size="9" text-anchor="middle" fill="#777" stroke="white" stroke-width="2.5" paint-order="stroke" stroke-linejoin="round">(batch, CSV)</text>
<path d="M 117 290.6666666666667 L 134 291 L 168 291 L 168 60 L 1284 60 L 1284 81.16666666666669 L 1294 81.16666666666669" fill="none" stroke="#444444" stroke-width="1.3" marker-end="url(#arr)"/>
<text x="844.5" y="75.5" font-size="10.5" text-anchor="middle" fill="#333" font-style="italic" stroke="white" stroke-width="2.5" paint-order="stroke" stroke-linejoin="round">Controls and</text>
<text x="844.5" y="89" font-size="10.5" text-anchor="middle" fill="#333" font-style="italic" stroke="white" stroke-width="2.5" paint-order="stroke" stroke-linejoin="round">closings</text>
<path d="M 117 309.3333333333333 L 134 309 L 456 309 A 5 5 0 0 1 466 309 L 488 309" fill="none" stroke="#444444" stroke-width="1.3" marker-end="url(#arr)"/>
<text x="210.5" y="285.5" font-size="10.5" text-anchor="middle" fill="#333" font-style="italic" stroke="white" stroke-width="2.5" paint-order="stroke" stroke-linejoin="round">Steer</text>
<text x="210.5" y="299" font-size="10.5" text-anchor="middle" fill="#333" font-style="italic" stroke="white" stroke-width="2.5" paint-order="stroke" stroke-linejoin="round">collection</text>
<line x1="20" y1="612" x2="1541" y2="612" stroke="#ddd" stroke-width="1"/>
<text x="20" y="634" font-size="11" font-weight="bold" fill="#555">BUSINESS OBJECTS</text>
<rect x="150" y="624" width="54" height="15" rx="7.5" fill="#fdf3d8" stroke="#c9a227"/>
<text x="177" y="635" font-size="9.5" text-anchor="middle" fill="#7a6216" font-weight="bold">Invoice</text>
<text x="214" y="635" font-size="10" fill="#666">— billing document issued to a customer</text>
<rect x="150" y="648" width="59" height="15" rx="7.5" fill="#fdf3d8" stroke="#c9a227"/>
<text x="179.5" y="659" font-size="9.5" text-anchor="middle" fill="#7a6216" font-weight="bold">Contract</text>
<text x="219" y="659" font-size="10" fill="#666">— active commercial commitment of a customer</text>
<line x1="20" y1="686" x2="1541" y2="686" stroke="#ddd" stroke-width="1"/>
<text x="20" y="708" font-size="11" font-weight="bold" fill="#555">LEGEND</text>
<rect x="150" y="698" width="26" height="14" rx="3" fill="#eef4fb" stroke="#7a9cc4" stroke-dasharray="5 3"/>
<text x="182" y="709" font-size="10" fill="#444">Actor group</text>
<rect x="272" y="698" width="26" height="14" rx="3" fill="#e8f1f8" stroke="#5b8db8"/>
<text x="304" y="709" font-size="10" fill="#444">Application</text>
<rect x="394" y="698" width="26" height="14" rx="3" fill="#ffffff" stroke="#5b7a99"/>
<text x="426" y="709" font-size="10" fill="#444">Application module</text>
<rect x="552" y="698" width="26" height="14" rx="3" fill="#f3eef8" stroke="#8a6fae"/>
<text x="584" y="709" font-size="10" fill="#444">Datastore / registry</text>
<rect x="720" y="698" width="26" height="14" rx="3" fill="#f0eef5" stroke="#9187b3" stroke-dasharray="5 3"/>
<text x="752" y="709" font-size="10" fill="#444">External system</text>
<line x1="150" y1="728" x2="176" y2="728" stroke="#444444" stroke-width="1.3" marker-end="url(#arr)"/>
<text x="182" y="732" font-size="10" fill="#444">Application flow — (protocol, format) under the label</text>
<rect x="480" y="721" width="96" height="15" rx="7.5" fill="#fdf3d8" stroke="#c9a227"/>
<text x="528" y="732" font-size="9.5" text-anchor="middle" fill="#7a6216" font-weight="bold">Business object</text>
<text x="584" y="732" font-size="10" fill="#444">carried by the flow</text>
<text x="150" y="756" font-size="10" fill="#444" font-style="italic">Factur-X mandatory since the electronic-invoicing reform</text>
</svg>
