<svg xmlns="http://www.w3.org/2000/svg" viewBox="0 0 409 735" font-family="Helvetica,Arial,sans-serif">
<defs><marker id="arr" viewBox="0 0 10 10" refX="9" refY="5" markerWidth="7" markerHeight="7" orient="auto-start-reverse">
<path d="M0,0 L10,5 L0,10 z" fill="#5a6675"/></marker></defs>
<rect width="409" height="735" fill="#ffffff"/>
<rect x="85" y="22" width="166" height="90" rx="6" fill="#e9f2fb" stroke="#1f77b4" stroke-width="1.2" stroke-dasharray="5 3"/>
<text x="95" y="40" font-size="13" font-weight="bold" fill="#17202c">HR actors</text>
<rect x="127" y="142" width="163" height="188.5" rx="6" fill="#e9f3fa" stroke="#2f83b6" stroke-width="1.2"/>
<text x="137" y="160" font-size="13" font-weight="bold" fill="#17202c">HR portal</text>
<circle cx="126" cy="59" r="7" fill="none" stroke="#1f5e91" stroke-width="1.5"/>
<path d="M 115 81 q 11 -19 22 0" fill="none" stroke="#1f5e91" stroke-width="1.5"/>
<text x="126" y="93" font-size="11" text-anchor="middle" fill="#20364c">Employee</text>
<circle cx="210" cy="59" r="7" fill="none" stroke="#1f5e91" stroke-width="1.5"/>
<path d="M 199 81 q 11 -19 22 0" fill="none" stroke="#1f5e91" stroke-width="1.5"/>
<text x="210" y="93" font-size="11" text-anchor="middle" fill="#20364c">Manager</text>
<rect x="155" y="169" width="108" height="47" rx="4" fill="#ffffff" stroke="#48546a" stroke-width="1.3"/>
<text x="209" y="189.25" font-size="12.5" text-anchor="middle" fill="#17202c">Leave</text>
<text x="209" y="203.75" font-size="12.5" text-anchor="middle" fill="#17202c">requests</text>
<rect x="173" y="274.5" width="108" height="47" rx="4" fill="#ffffff" stroke="#48546a" stroke-width="1.3"/>
<text x="227" y="294.75" font-size="12.5" text-anchor="middle" fill="#17202c">Approval</text>
<text x="227" y="309.25" font-size="12.5" text-anchor="middle" fill="#17202c">workflow</text>
<path d="M 91 395 h 92 a 8 23.5 0 0 1 0 47 h -92 a 8 23.5 0 0 1 0 -47" fill="#f4edf8" stroke="#8a53a8" stroke-width="1.3"/>
<ellipse cx="91" cy="418.5" rx="8" ry="23.5" fill="#f4edf8" stroke="#8a53a8" stroke-width="1.3"/>
<text x="141" y="415.25" font-size="12.5" text-anchor="middle" fill="#17202c">Notification</text>
<text x="141" y="429.75" font-size="12.5" text-anchor="middle" fill="#17202c">bus</text>
<path d="M 202 408 v 33 a 54 7 0 0 0 108 0 v -33" fill="#f4edf8" stroke="#8a53a8" stroke-width="1.3"/>
<ellipse cx="256" cy="408" rx="54" ry="7" fill="#f4edf8" stroke="#8a53a8" stroke-width="1.3"/>
<text x="256" y="424.75" font-size="12.5" text-anchor="middle" fill="#17202c">HR</text>
<text x="256" y="439.25" font-size="12.5" text-anchor="middle" fill="#17202c">repository</text>
<rect x="291" y="464" width="108" height="47" rx="4" fill="#f4eff8" stroke="#8659a6" stroke-width="1.2" stroke-dasharray="5 3"/>
<text x="345" y="484.25" font-size="12.5" text-anchor="middle" fill="#17202c">Payroll HRIS</text>
<text x="345" y="498.75" font-size="12.5" text-anchor="middle" fill="#17202c">(outsourced)</text>
<path d="M 136.66666666666669 103 L 137 117 L 137 127 L 209 127 L 209 169" fill="none" stroke="#5a6675" stroke-width="1.3" marker-end="url(#arr)"/>
<path d="M 209 216 L 209 274.5" fill="none" stroke="#5a6675" stroke-width="1.3" marker-end="url(#arr)"/>
<text x="171.5" y="248.5" font-size="11.5" text-anchor="middle" fill="#3a4553" font-style="italic" stroke="#ffffff" stroke-width="2.5" paint-order="stroke" stroke-linejoin="round">(internal)</text>
<path d="M 210 103 L 210 127 L 273 127 L 273 264.5 L 245 264.5 L 245 274.5" fill="none" stroke="#5a6675" stroke-width="1.3" marker-end="url(#arr)"/>
<path d="M 227 321.5 L 227 356 L 256 356 L 256 401" fill="none" stroke="#5a6675" stroke-width="1.3" marker-end="url(#arr)"/>
<text x="231.5" y="378.5" font-size="11.5" text-anchor="middle" fill="#3a4553" font-style="italic" stroke="#ffffff" stroke-width="2.5" paint-order="stroke" stroke-linejoin="round">(JDBC)</text>
<path d="M 200 321.5 L 200 346 L 199 346 L 199 385 L 155 385 L 155 395" fill="none" stroke="#5a6675" stroke-width="1.3" marker-end="url(#arr)"/>
<text x="161.5" y="368.5" font-size="11.5" text-anchor="middle" fill="#3a4553" font-style="italic" stroke="#ffffff" stroke-width="2.5" paint-order="stroke" stroke-linejoin="round">(MQ, JSON)</text>
<path d="M 115.33333333333334 103 L 115 117 L 115 385 L 119 385 L 119 395" fill="none" stroke="#5a6675" stroke-width="1.3" marker-end="url(#arr)"/>
<text x="61.5" y="368.5" font-size="11.5" text-anchor="middle" fill="#3a4553" font-style="italic" stroke="#ffffff" stroke-width="2.5" paint-order="stroke" stroke-linejoin="round">(webhook, JSON)</text>
<path d="M 254 321.5 L 254 346 L 345 346 L 345 464" fill="none" stroke="#5a6675" stroke-width="1.3" marker-end="url(#arr)"/>
<text x="304.5" y="368.5" font-size="11.5" text-anchor="middle" fill="#3a4553" font-style="italic" stroke="#ffffff" stroke-width="2.5" paint-order="stroke" stroke-linejoin="round">(SFTP, CSV)</text>
<line x1="20" y1="531" x2="389" y2="531" stroke="#e6e9ee" stroke-width="1"/>
<text x="20" y="553" font-size="11" font-weight="bold" fill="#3a4553">LEGEND</text>
<rect x="150" y="543" width="26" height="14" rx="3" fill="#e9f2fb" stroke="#1f77b4" stroke-dasharray="5 3"/>
<text x="182" y="554" font-size="10" fill="#17202c">Actor group</text>
<rect x="150" y="565" width="26" height="14" rx="3" fill="#e9f3fa" stroke="#2f83b6"/>
<text x="182" y="576" font-size="10" fill="#17202c">Application</text>
<rect x="150" y="587" width="26" height="14" rx="3" fill="#ffffff" stroke="#48546a"/>
<text x="182" y="598" font-size="10" fill="#17202c">Application module</text>
<rect x="150" y="609" width="26" height="14" rx="3" fill="#f4edf8" stroke="#8a53a8"/>
<text x="182" y="620" font-size="10" fill="#17202c">Message queue / broker</text>
<rect x="150" y="631" width="26" height="14" rx="3" fill="#f4edf8" stroke="#8a53a8"/>
<text x="182" y="642" font-size="10" fill="#17202c">Datastore / registry</text>
<rect x="150" y="653" width="26" height="14" rx="3" fill="#f4eff8" stroke="#8659a6" stroke-dasharray="5 3"/>
<text x="182" y="664" font-size="10" fill="#17202c">External system</text>
<line x1="150" y1="705" x2="176" y2="705" stroke="#5a6675" stroke-width="1.3" marker-end="url(#arr)"/>
<text x="182" y="709" font-size="10" fill="#17202c">Application flow — (protocol, format) under the label</text>
</svg>
