<svg xmlns="http://www.w3.org/2000/svg" viewBox="0 0 1290 1892" font-family="Helvetica,Arial,sans-serif">
<defs><marker id="arr" viewBox="0 0 10 10" refX="9" refY="5" markerWidth="7" markerHeight="7" orient="auto-start-reverse">
<path d="M0,0 L10,5 L0,10 z" fill="#444444"/></marker></defs>
<rect width="1290" height="1892" fill="white"/>
<rect x="647" y="30" width="337" height="109" rx="6" fill="#eef4fb" stroke="#7a9cc4" stroke-width="1.2" stroke-dasharray="5 3"/>
<text x="657" y="48" font-size="12" font-weight="bold" fill="#333">Internal teams</text>
<rect x="569" y="521" width="388.33333333333337" height="213.5" rx="6" fill="#e8f1f8" stroke="#5b8db8" stroke-width="1.2"/>
<text x="579" y="539" font-size="12" font-weight="bold" fill="#333">Sales front</text>
<rect x="575" y="882" width="389.33333333333337" height="232.5" rx="6" fill="#e8f1f8" stroke="#5b8db8" stroke-width="1.2"/>
<text x="585" y="900" font-size="12" font-weight="bold" fill="#333">Order management</text>
<rect x="756" y="268" width="324" height="93" rx="6" fill="#e8f1f8" stroke="#5b8db8" stroke-width="1.2"/>
<text x="766" y="286" font-size="12" font-weight="bold" fill="#333">Product repository</text>
<rect x="576" y="273" width="164" height="93" rx="6" fill="#e8f1f8" stroke="#5b8db8" stroke-width="1.2"/>
<text x="586" y="291" font-size="12" font-weight="bold" fill="#333">Pricing</text>
<rect x="930" y="1262" width="202" height="237" rx="6" fill="#e8f1f8" stroke="#5b8db8" stroke-width="1.2"/>
<text x="940" y="1280" font-size="12" font-weight="bold" fill="#333">Payment hub</text>
<rect x="117" y="1232" width="324" height="93" rx="6" fill="#e8f1f8" stroke="#5b8db8" stroke-width="1.2"/>
<text x="127" y="1250" font-size="12" font-weight="bold" fill="#333">Customer care</text>
<circle cx="837.5" cy="70" r="7" fill="none" stroke="#445566" stroke-width="1.5"/>
<path d="M 826.5 92 q 11 -19 22 0" fill="none" stroke="#445566" stroke-width="1.5"/>
<text x="837.5" y="104" font-size="10" text-anchor="middle" fill="#223344">Merchandising</text>
<text x="837.5" y="115" font-size="10" text-anchor="middle" fill="#223344">manager</text>
<circle cx="716.5" cy="70" r="7" fill="none" stroke="#445566" stroke-width="1.5"/>
<path d="M 705.5 92 q 11 -19 22 0" fill="none" stroke="#445566" stroke-width="1.5"/>
<text x="716.5" y="104" font-size="10" text-anchor="middle" fill="#223344">Customer-relations</text>
<text x="716.5" y="115" font-size="10" text-anchor="middle" fill="#223344">advisor</text>
<circle cx="936.5" cy="81" r="7" fill="none" stroke="#445566" stroke-width="1.5"/>
<path d="M 925.5 103 q 11 -19 22 0" fill="none" stroke="#445566" stroke-width="1.5"/>
<text x="936.5" y="115" font-size="10" text-anchor="middle" fill="#223344">Accountant</text>
<rect x="805.3333333333334" y="551" width="140" height="51" rx="4" fill="#ffffff" stroke="#5b7a99" stroke-width="1.3"/>
<text x="875.3333333333334" y="573.75" font-size="11.5" text-anchor="middle" fill="#222233">E-commerce</text>
<text x="875.3333333333334" y="587.25" font-size="11.5" text-anchor="middle" fill="#222233">site</text>
<rect x="600" y="551" width="140" height="51" rx="4" fill="#ffffff" stroke="#5b7a99" stroke-width="1.3"/>
<text x="670" y="573.75" font-size="11.5" text-anchor="middle" fill="#222233">Mobile</text>
<text x="670" y="587.25" font-size="11.5" text-anchor="middle" fill="#222233">app</text>
<rect x="680" y="671.5" width="140" height="51" rx="4" fill="#ffffff" stroke="#5b7a99" stroke-width="1.3"/>
<text x="750" y="694.25" font-size="11.5" text-anchor="middle" fill="#222233">Checkout</text>
<text x="750" y="707.75" font-size="11.5" text-anchor="middle" fill="#222233">funnel</text>
<rect x="652.3333333333334" y="912" width="140" height="51" rx="4" fill="#ffffff" stroke="#5b7a99" stroke-width="1.3"/>
<text x="722.3333333333334" y="934.75" font-size="11.5" text-anchor="middle" fill="#222233">Order</text>
<text x="722.3333333333334" y="948.25" font-size="11.5" text-anchor="middle" fill="#222233">lifecycle</text>
<rect x="595.6666666666667" y="1051.5" width="140" height="51" rx="4" fill="#ffffff" stroke="#5b7a99" stroke-width="1.3"/>
<text x="665.6666666666667" y="1074.25" font-size="11.5" text-anchor="middle" fill="#222233">Shipment</text>
<text x="665.6666666666667" y="1087.75" font-size="11.5" text-anchor="middle" fill="#222233">orchestration</text>
<rect x="812.3333333333334" y="912" width="140" height="51" rx="4" fill="#ffffff" stroke="#5b7a99" stroke-width="1.3"/>
<text x="882.3333333333334" y="934.75" font-size="11.5" text-anchor="middle" fill="#222233">Returns and</text>
<text x="882.3333333333334" y="948.25" font-size="11.5" text-anchor="middle" fill="#222233">refunds</text>
<rect x="768" y="298" width="140" height="51" rx="4" fill="#ffffff" stroke="#5b7a99" stroke-width="1.3"/>
<text x="838" y="320.75" font-size="11.5" text-anchor="middle" fill="#222233">Catalog</text>
<text x="838" y="334.25" font-size="11.5" text-anchor="middle" fill="#222233">management</text>
<rect x="928" y="298" width="140" height="51" rx="4" fill="#ffffff" stroke="#5b7a99" stroke-width="1.3"/>
<text x="998" y="320.75" font-size="11.5" text-anchor="middle" fill="#222233">Media</text>
<text x="998" y="334.25" font-size="11.5" text-anchor="middle" fill="#222233">management</text>
<rect x="588" y="303" width="140" height="51" rx="4" fill="#ffffff" stroke="#5b7a99" stroke-width="1.3"/>
<text x="658" y="325.75" font-size="11.5" text-anchor="middle" fill="#222233">Pricing-rule</text>
<text x="658" y="339.25" font-size="11.5" text-anchor="middle" fill="#222233">engine</text>
<rect x="980" y="1292" width="140" height="51" rx="4" fill="#ffffff" stroke="#5b7a99" stroke-width="1.3"/>
<text x="1050" y="1314.75" font-size="11.5" text-anchor="middle" fill="#222233">Payment</text>
<text x="1050" y="1328.25" font-size="11.5" text-anchor="middle" fill="#222233">orchestration</text>
<rect x="945" y="1436" width="140" height="51" rx="4" fill="#ffffff" stroke="#5b7a99" stroke-width="1.3"/>
<text x="1015" y="1458.75" font-size="11.5" text-anchor="middle" fill="#222233">Anti-fraud</text>
<text x="1015" y="1472.25" font-size="11.5" text-anchor="middle" fill="#222233">scoring</text>
<rect x="289" y="1262" width="140" height="51" rx="4" fill="#ffffff" stroke="#5b7a99" stroke-width="1.3"/>
<text x="359" y="1284.75" font-size="11.5" text-anchor="middle" fill="#222233">Ticket</text>
<text x="359" y="1298.25" font-size="11.5" text-anchor="middle" fill="#222233">management</text>
<rect x="129" y="1262" width="140" height="51" rx="4" fill="#ffffff" stroke="#5b7a99" stroke-width="1.3"/>
<text x="199" y="1284.75" font-size="11.5" text-anchor="middle" fill="#222233">Customer</text>
<text x="199" y="1298.25" font-size="11.5" text-anchor="middle" fill="#222233">self-care</text>
<path d="M 923 1555 v 37 a 70 7 0 0 0 140 0 v -37" fill="#f3eef8" stroke="#8a6fae" stroke-width="1.3"/>
<ellipse cx="993" cy="1555" rx="70" ry="7" fill="#f3eef8" stroke="#8a6fae" stroke-width="1.3"/>
<text x="993" y="1574.25" font-size="11.5" text-anchor="middle" fill="#222233">Data</text>
<text x="993" y="1587.75" font-size="11.5" text-anchor="middle" fill="#222233">warehouse</text>
<path d="M 145 1468 v 37 a 70 7 0 0 0 140 0 v -37" fill="#f3eef8" stroke="#8a6fae" stroke-width="1.3"/>
<ellipse cx="215" cy="1468" rx="70" ry="7" fill="#f3eef8" stroke="#8a6fae" stroke-width="1.3"/>
<text x="215" y="1487.25" font-size="11.5" text-anchor="middle" fill="#222233">Customer</text>
<text x="215" y="1500.75" font-size="11.5" text-anchor="middle" fill="#222233">repository</text>
<rect x="986" y="1654" width="140" height="46" rx="4" fill="#f0eef5" stroke="#9187b3" stroke-width="1.2" stroke-dasharray="5 3"/>
<text x="1056" y="1681" font-size="11.5" text-anchor="middle" fill="#222233">PSP</text>
<rect x="596" y="1251" width="140" height="51" rx="4" fill="#f0eef5" stroke="#9187b3" stroke-width="1.2" stroke-dasharray="5 3"/>
<text x="666" y="1273.75" font-size="11.5" text-anchor="middle" fill="#222233">Carrier</text>
<text x="666" y="1287.25" font-size="11.5" text-anchor="middle" fill="#222233">platforms</text>
<rect x="440" y="1532" width="140" height="51" rx="4" fill="#f0eef5" stroke="#9187b3" stroke-width="1.2" stroke-dasharray="5 3"/>
<text x="510" y="1554.75" font-size="11.5" text-anchor="middle" fill="#222233">Group</text>
<text x="510" y="1568.25" font-size="11.5" text-anchor="middle" fill="#222233">ERP</text>
<path d="M 837.5 127 L 838 144 L 838 298" fill="none" stroke="#444444" stroke-width="1.3" marker-end="url(#arr)"/>
<text x="790.5" y="199.5" font-size="10.5" text-anchor="middle" fill="#333" font-style="italic" stroke="white" stroke-width="2.5" paint-order="stroke" stroke-linejoin="round">Enrich product</text>
<text x="790.5" y="213" font-size="10.5" text-anchor="middle" fill="#333" font-style="italic" stroke="white" stroke-width="2.5" paint-order="stroke" stroke-linejoin="round">pages</text>
<path d="M 838 349 L 838 400 L 875 400 L 875.3333333333334 516 L 875.3333333333334 551" fill="none" stroke="#444444" stroke-width="1.3" marker-end="url(#arr)"/>
<text x="828.5" y="421.5" font-size="10.5" text-anchor="middle" fill="#333" font-style="italic" stroke="white" stroke-width="2.5" paint-order="stroke" stroke-linejoin="round">Publish the</text>
<text x="828.5" y="435" font-size="10.5" text-anchor="middle" fill="#333" font-style="italic" stroke="white" stroke-width="2.5" paint-order="stroke" stroke-linejoin="round">catalog</text>
<text x="828.5" y="448.5" font-size="9" text-anchor="middle" fill="#777" stroke="white" stroke-width="2.5" paint-order="stroke" stroke-linejoin="round">(API_REST, JSON)</text>
<rect x="801.5" y="455" width="54" height="15" rx="7.5" fill="#fdf3d8" stroke="#c9a227" stroke-width="1"/>
<text x="828.5" y="466" font-size="9.5" text-anchor="middle" fill="#7a6216" font-weight="bold">Product</text>
<path d="M 998 349 L 998 376 L 910 376 L 910.3333333333334 516 L 910.3333333333334 551" fill="none" stroke="#444444" stroke-width="1.3" marker-end="url(#arr)"/>
<text x="961.5" y="421.5" font-size="10.5" text-anchor="middle" fill="#333" font-style="italic" stroke="white" stroke-width="2.5" paint-order="stroke" stroke-linejoin="round">Product visuals</text>
<text x="961.5" y="435" font-size="9" text-anchor="middle" fill="#777" stroke="white" stroke-width="2.5" paint-order="stroke" stroke-linejoin="round">(CDN, HTTPS)</text>
<path d="M 681.3333333333334 354 L 681 371 L 681 482 L 840 482 L 840.3333333333334 516 L 840.3333333333334 551" fill="none" stroke="#444444" stroke-width="1.3" marker-end="url(#arr)"/>
<text x="729.5" y="426.5" font-size="10.5" text-anchor="middle" fill="#333" font-style="italic" stroke="white" stroke-width="2.5" paint-order="stroke" stroke-linejoin="round">Current prices</text>
<text x="729.5" y="440" font-size="9" text-anchor="middle" fill="#777" stroke="white" stroke-width="2.5" paint-order="stroke" stroke-linejoin="round">(API_REST, JSON)</text>
<path d="M 634.6666666666666 354 L 635 371 L 635 492 L 750 492 L 750 671.5" fill="none" stroke="#444444" stroke-width="1.3" marker-end="url(#arr)"/>
<text x="588.5" y="426.5" font-size="10.5" text-anchor="middle" fill="#333" font-style="italic" stroke="white" stroke-width="2.5" paint-order="stroke" stroke-linejoin="round">Prices</text>
<text x="588.5" y="440" font-size="10.5" text-anchor="middle" fill="#333" font-style="italic" stroke="white" stroke-width="2.5" paint-order="stroke" stroke-linejoin="round">guaranteed at</text>
<text x="588.5" y="453.5" font-size="10.5" text-anchor="middle" fill="#333" font-style="italic" stroke="white" stroke-width="2.5" paint-order="stroke" stroke-linejoin="round">cart</text>
<text x="588.5" y="467" font-size="9" text-anchor="middle" fill="#777" stroke="white" stroke-width="2.5" paint-order="stroke" stroke-linejoin="round">(API_REST, JSON)</text>
<path d="M 487 1532 L 487 1522 L 104 1522 L 104 258 L 337 258 A 5 5 0 0 1 347 258 L 658 258 L 658 303" fill="none" stroke="#444444" stroke-width="1.3" marker-end="url(#arr)"/>
<text x="56.5" y="279.5" font-size="10.5" text-anchor="middle" fill="#333" font-style="italic" stroke="white" stroke-width="2.5" paint-order="stroke" stroke-linejoin="round">Reference</text>
<text x="56.5" y="293" font-size="10.5" text-anchor="middle" fill="#333" font-style="italic" stroke="white" stroke-width="2.5" paint-order="stroke" stroke-linejoin="round">purchase costs</text>
<text x="56.5" y="306.5" font-size="9" text-anchor="middle" fill="#777" stroke="white" stroke-width="2.5" paint-order="stroke" stroke-linejoin="round">(SFTP, CSV)</text>
<path d="M 852 602 L 852 661.5 L 785 661.5 L 785 671.5" fill="none" stroke="#444444" stroke-width="1.3" marker-end="url(#arr)"/>
<text x="805.5" y="633.5" font-size="10.5" text-anchor="middle" fill="#333" font-style="italic" stroke="white" stroke-width="2.5" paint-order="stroke" stroke-linejoin="round">Go to checkout</text>
<text x="805.5" y="647" font-size="9" text-anchor="middle" fill="#777" stroke="white" stroke-width="2.5" paint-order="stroke" stroke-linejoin="round">(internal)</text>
<path d="M 670 602 L 670 661.5 L 715 661.5 L 715 671.5" fill="none" stroke="#444444" stroke-width="1.3" marker-end="url(#arr)"/>
<text x="624.5" y="633.5" font-size="10.5" text-anchor="middle" fill="#333" font-style="italic" stroke="white" stroke-width="2.5" paint-order="stroke" stroke-linejoin="round">Mobile cart</text>
<text x="624.5" y="647" font-size="9" text-anchor="middle" fill="#777" stroke="white" stroke-width="2.5" paint-order="stroke" stroke-linejoin="round">(API_REST, JSON)</text>
<path d="M 726.6666666666666 722.5 L 727 739.5 L 727 750 L 722 750 L 722.3333333333334 877 L 722.3333333333334 912" fill="none" stroke="#444444" stroke-width="1.3" marker-end="url(#arr)"/>
<text x="668.5" y="795.5" font-size="10.5" text-anchor="middle" fill="#333" font-style="italic" stroke="white" stroke-width="2.5" paint-order="stroke" stroke-linejoin="round">Create the order</text>
<text x="668.5" y="809" font-size="9" text-anchor="middle" fill="#777" stroke="white" stroke-width="2.5" paint-order="stroke" stroke-linejoin="round">(MQ, JSON)</text>
<rect x="647" y="815.5" width="43" height="15" rx="7.5" fill="#fdf3d8" stroke="#c9a227" stroke-width="1"/>
<text x="668.5" y="826.5" font-size="9.5" text-anchor="middle" fill="#7a6216" font-weight="bold">Order</text>
<path d="M 773.3333333333333 722.5 L 773 739.5 L 773 760 L 1079 760 L 1079 1144 L 1064 1144 L 1064 1292" fill="none" stroke="#444444" stroke-width="1.3" marker-end="url(#arr)"/>
<text x="1028.5" y="1096.5" font-size="10.5" text-anchor="middle" fill="#333" font-style="italic" stroke="white" stroke-width="2.5" paint-order="stroke" stroke-linejoin="round">Payment request</text>
<text x="1028.5" y="1110" font-size="9" text-anchor="middle" fill="#777" stroke="white" stroke-width="2.5" paint-order="stroke" stroke-linejoin="round">(API_REST, JSON)</text>
<rect x="1001.5" y="1116.5" width="54" height="15" rx="7.5" fill="#fdf3d8" stroke="#c9a227" stroke-width="1"/>
<text x="1028.5" y="1127.5" font-size="9.5" text-anchor="middle" fill="#7a6216" font-weight="bold">Payment</text>
<path d="M 1015 1343 L 1015 1436" fill="none" stroke="#444444" stroke-width="1.3" marker-end="url(#arr)"/>
<text x="977.5" y="1384.5" font-size="10.5" text-anchor="middle" fill="#333" font-style="italic" stroke="white" stroke-width="2.5" paint-order="stroke" stroke-linejoin="round">Score the</text>
<text x="977.5" y="1398" font-size="10.5" text-anchor="middle" fill="#333" font-style="italic" stroke="white" stroke-width="2.5" paint-order="stroke" stroke-linejoin="round">transaction</text>
<text x="977.5" y="1411.5" font-size="9" text-anchor="middle" fill="#777" stroke="white" stroke-width="2.5" paint-order="stroke" stroke-linejoin="round">(internal)</text>
<path d="M 1050 1343 L 1050 1363 L 1095 1363 L 1095 1534 L 1079 1534 L 1079 1654" fill="none" stroke="#444444" stroke-width="1.3" marker-end="url(#arr)"/>
<text x="1126.5" y="1559.5" font-size="10.5" text-anchor="middle" fill="#333" font-style="italic" stroke="white" stroke-width="2.5" paint-order="stroke" stroke-linejoin="round">Authorization</text>
<text x="1126.5" y="1573" font-size="10.5" text-anchor="middle" fill="#333" font-style="italic" stroke="white" stroke-width="2.5" paint-order="stroke" stroke-linejoin="round">and capture</text>
<text x="1126.5" y="1586.5" font-size="9" text-anchor="middle" fill="#777" stroke="white" stroke-width="2.5" paint-order="stroke" stroke-linejoin="round">(API_REST, JSON)</text>
<rect x="1099.5" y="1593" width="54" height="15" rx="7.5" fill="#fdf3d8" stroke="#c9a227" stroke-width="1"/>
<text x="1126.5" y="1604" font-size="9.5" text-anchor="middle" fill="#7a6216" font-weight="bold">Payment</text>
<path d="M 1033 1654 L 1033 1609 L 906 1609 L 906 1247 L 912 1247 A 5 5 0 0 1 922 1247 L 1008 1247 L 1008 1292" fill="none" stroke="#444444" stroke-width="1.3" marker-end="url(#arr)"/>
<text x="862" y="1268.5" font-size="10.5" text-anchor="middle" fill="#333" font-style="italic" stroke="white" stroke-width="2.5" paint-order="stroke" stroke-linejoin="round">Transaction</text>
<text x="862" y="1282" font-size="10.5" text-anchor="middle" fill="#333" font-style="italic" stroke="white" stroke-width="2.5" paint-order="stroke" stroke-linejoin="round">status</text>
<text x="862" y="1295.5" font-size="9" text-anchor="middle" fill="#777" stroke="white" stroke-width="2.5" paint-order="stroke" stroke-linejoin="round">(webhook, JSON)</text>
<path d="M 1085 1343 L 1085 1353 L 1106 1353 L 1106 1514 L 1167 1514 L 1167 867 L 1097 867 A 5 5 0 0 0 1087 867 L 1084 867 A 5 5 0 0 0 1074 867 L 887 867 A 5 5 0 0 0 877 867 L 757 867 L 757.3333333333334 877 L 757.3333333333334 912" fill="none" stroke="#444444" stroke-width="1.3" marker-end="url(#arr)"/>
<text x="1134.5" y="1181.5" font-size="10.5" text-anchor="middle" fill="#333" font-style="italic" stroke="white" stroke-width="2.5" paint-order="stroke" stroke-linejoin="round">Payment</text>
<text x="1134.5" y="1195" font-size="10.5" text-anchor="middle" fill="#333" font-style="italic" stroke="white" stroke-width="2.5" paint-order="stroke" stroke-linejoin="round">confirmed</text>
<text x="1134.5" y="1208.5" font-size="9" text-anchor="middle" fill="#777" stroke="white" stroke-width="2.5" paint-order="stroke" stroke-linejoin="round">(MQ, JSON)</text>
<path d="M 699 963 L 699 973 L 689 973 L 689 1051.5" fill="none" stroke="#444444" stroke-width="1.3" marker-end="url(#arr)"/>
<text x="642.5" y="994.5" font-size="10.5" text-anchor="middle" fill="#333" font-style="italic" stroke="white" stroke-width="2.5" paint-order="stroke" stroke-linejoin="round">Orders to ship</text>
<text x="642.5" y="1008" font-size="9" text-anchor="middle" fill="#777" stroke="white" stroke-width="2.5" paint-order="stroke" stroke-linejoin="round">(internal)</text>
<rect x="621" y="1014.5" width="43" height="15" rx="7.5" fill="#fdf3d8" stroke="#c9a227" stroke-width="1"/>
<text x="642.5" y="1025.5" font-size="9.5" text-anchor="middle" fill="#7a6216" font-weight="bold">Order</text>
<path d="M 689 1102.5 L 689 1251" fill="none" stroke="#444444" stroke-width="1.3" marker-end="url(#arr)"/>
<text x="736.5" y="1175.5" font-size="10.5" text-anchor="middle" fill="#333" font-style="italic" stroke="white" stroke-width="2.5" paint-order="stroke" stroke-linejoin="round">Labels and</text>
<text x="736.5" y="1189" font-size="10.5" text-anchor="middle" fill="#333" font-style="italic" stroke="white" stroke-width="2.5" paint-order="stroke" stroke-linejoin="round">pickups</text>
<text x="736.5" y="1202.5" font-size="9" text-anchor="middle" fill="#777" stroke="white" stroke-width="2.5" paint-order="stroke" stroke-linejoin="round">(API_REST, JSON)</text>
<path d="M 643 1251 L 643 1140 L 563 1140 L 563 867 L 587 867 L 587 1041.5 L 642.3333333333334 1041.5 L 642.3333333333334 1051.5" fill="none" stroke="#444444" stroke-width="1.3" marker-end="url(#arr)"/>
<text x="592.5" y="1188.5" font-size="10.5" text-anchor="middle" fill="#333" font-style="italic" stroke="white" stroke-width="2.5" paint-order="stroke" stroke-linejoin="round">Parcel tracking</text>
<text x="592.5" y="1202" font-size="9" text-anchor="middle" fill="#777" stroke="white" stroke-width="2.5" paint-order="stroke" stroke-linejoin="round">(webhook, JSON)</text>
<path d="M 642.3333333333334 1102.5 L 642 1119.5 L 642 1130 L 568 1130 A 5 5 0 0 0 558 1130 L 538 1130 A 5 5 0 0 0 528 1130 L 458 1130 A 5 5 0 0 0 448 1130 L 347 1130 A 5 5 0 0 0 337 1130 L 329 1130 L 329 1193 L 199 1193 L 199 1262" fill="none" stroke="#444444" stroke-width="1.3" marker-end="url(#arr)"/>
<text x="281.5" y="1151.5" font-size="10.5" text-anchor="middle" fill="#333" font-style="italic" stroke="white" stroke-width="2.5" paint-order="stroke" stroke-linejoin="round">Customer order</text>
<text x="281.5" y="1165" font-size="10.5" text-anchor="middle" fill="#333" font-style="italic" stroke="white" stroke-width="2.5" paint-order="stroke" stroke-linejoin="round">tracking</text>
<text x="281.5" y="1178.5" font-size="9" text-anchor="middle" fill="#777" stroke="white" stroke-width="2.5" paint-order="stroke" stroke-linejoin="round">(MQ, JSON)</text>
<path d="M 716.5 127 L 717 144 L 717 248 L 342 248 L 342 1193 L 359 1193 L 359 1262" fill="none" stroke="#444444" stroke-width="1.3" marker-end="url(#arr)"/>
<text x="378.5" y="1100.5" font-size="10.5" text-anchor="middle" fill="#333" font-style="italic" stroke="white" stroke-width="2.5" paint-order="stroke" stroke-linejoin="round">Handle</text>
<text x="378.5" y="1114" font-size="10.5" text-anchor="middle" fill="#333" font-style="italic" stroke="white" stroke-width="2.5" paint-order="stroke" stroke-linejoin="round">complaints</text>
<path d="M 359 1313 L 359 1340 L 453 1340 L 453 847 L 717 847 A 5 5 0 0 1 727 847 L 882 847 L 882.3333333333334 877 L 882.3333333333334 912" fill="none" stroke="#444444" stroke-width="1.3" marker-end="url(#arr)"/>
<text x="402.5" y="1151.5" font-size="10.5" text-anchor="middle" fill="#333" font-style="italic" stroke="white" stroke-width="2.5" paint-order="stroke" stroke-linejoin="round">Approved return</text>
<text x="402.5" y="1165" font-size="10.5" text-anchor="middle" fill="#333" font-style="italic" stroke="white" stroke-width="2.5" paint-order="stroke" stroke-linejoin="round">requests</text>
<text x="402.5" y="1178.5" font-size="9" text-anchor="middle" fill="#777" stroke="white" stroke-width="2.5" paint-order="stroke" stroke-linejoin="round">(API_REST, JSON)</text>
<path d="M 882.3333333333334 963 L 882 1119.5 L 882 1144 L 1036 1144 L 1036 1292" fill="none" stroke="#444444" stroke-width="1.3" marker-end="url(#arr)"/>
<text x="991.5" y="1175.5" font-size="10.5" text-anchor="middle" fill="#333" font-style="italic" stroke="white" stroke-width="2.5" paint-order="stroke" stroke-linejoin="round">Refund orders</text>
<text x="991.5" y="1189" font-size="9" text-anchor="middle" fill="#777" stroke="white" stroke-width="2.5" paint-order="stroke" stroke-linejoin="round">(MQ, JSON)</text>
<rect x="964.5" y="1195.5" width="54" height="15" rx="7.5" fill="#fdf3d8" stroke="#c9a227" stroke-width="1"/>
<text x="991.5" y="1206.5" font-size="9.5" text-anchor="middle" fill="#7a6216" font-weight="bold">Payment</text>
<path d="M 199 1313 L 199 1340 L 215 1340 L 215 1461" fill="none" stroke="#444444" stroke-width="1.3" marker-end="url(#arr)"/>
<text x="164.5" y="1385.5" font-size="10.5" text-anchor="middle" fill="#333" font-style="italic" stroke="white" stroke-width="2.5" paint-order="stroke" stroke-linejoin="round">Update customer</text>
<text x="164.5" y="1399" font-size="10.5" text-anchor="middle" fill="#333" font-style="italic" stroke="white" stroke-width="2.5" paint-order="stroke" stroke-linejoin="round">profile</text>
<text x="164.5" y="1412.5" font-size="9" text-anchor="middle" fill="#777" stroke="white" stroke-width="2.5" paint-order="stroke" stroke-linejoin="round">(JDBC)</text>
<path d="M 745.6666666666667 963 L 746 1119.5 L 746 1154 L 917 1154 L 917 1514 L 970 1514 L 970 1548" fill="none" stroke="#444444" stroke-width="1.3" marker-end="url(#arr)"/>
<text x="869.5" y="1199.5" font-size="10.5" text-anchor="middle" fill="#333" font-style="italic" stroke="white" stroke-width="2.5" paint-order="stroke" stroke-linejoin="round">Archive orders</text>
<text x="869.5" y="1213" font-size="9" text-anchor="middle" fill="#777" stroke="white" stroke-width="2.5" paint-order="stroke" stroke-linejoin="round">(batch, parquet)</text>
<rect x="848" y="1219.5" width="43" height="15" rx="7.5" fill="#fdf3d8" stroke="#c9a227" stroke-width="1"/>
<text x="869.5" y="1230.5" font-size="9.5" text-anchor="middle" fill="#7a6216" font-weight="bold">Order</text>
<path d="M 898.6666666666667 602 L 899 739.5 L 899 750 L 1087 750 A 5 5 0 0 1 1097 750 L 1277 750 L 1277 1524 L 1100 1524 A 5 5 0 0 0 1090 1524 L 1016 1524 L 1016 1548" fill="none" stroke="#444444" stroke-width="1.3" marker-end="url(#arr)"/>
<text x="1226.5" y="1495.5" font-size="10.5" text-anchor="middle" fill="#333" font-style="italic" stroke="white" stroke-width="2.5" paint-order="stroke" stroke-linejoin="round">Browsing events</text>
<text x="1226.5" y="1509" font-size="9" text-anchor="middle" fill="#777" stroke="white" stroke-width="2.5" paint-order="stroke" stroke-linejoin="round">(streaming, avro)</text>
<path d="M 936.5 127 L 937 144 L 937 253 L 1092 253 L 1092 1292" fill="none" stroke="#444444" stroke-width="1.3" marker-end="url(#arr)"/>
<text x="1131.5" y="720.5" font-size="10.5" text-anchor="middle" fill="#333" font-style="italic" stroke="white" stroke-width="2.5" paint-order="stroke" stroke-linejoin="round">Reconcile</text>
<text x="1131.5" y="734" font-size="10.5" text-anchor="middle" fill="#333" font-style="italic" stroke="white" stroke-width="2.5" paint-order="stroke" stroke-linejoin="round">collections</text>
<path d="M 533 1532 L 533 857 L 687 857 L 687.3333333333334 877 L 687.3333333333334 912" fill="none" stroke="#444444" stroke-width="1.3" marker-end="url(#arr)"/>
<text x="497.5" y="1442.5" font-size="10.5" text-anchor="middle" fill="#333" font-style="italic" stroke="white" stroke-width="2.5" paint-order="stroke" stroke-linejoin="round">Accounting</text>
<text x="497.5" y="1456" font-size="10.5" text-anchor="middle" fill="#333" font-style="italic" stroke="white" stroke-width="2.5" paint-order="stroke" stroke-linejoin="round">logistics</text>
<text x="497.5" y="1469.5" font-size="10.5" text-anchor="middle" fill="#333" font-style="italic" stroke="white" stroke-width="2.5" paint-order="stroke" stroke-linejoin="round">statuses</text>
<text x="497.5" y="1483" font-size="9" text-anchor="middle" fill="#777" stroke="white" stroke-width="2.5" paint-order="stroke" stroke-linejoin="round">(MQ, JSON)</text>
<line x1="20" y1="1722" x2="1270" y2="1722" stroke="#ddd" stroke-width="1"/>
<text x="20" y="1744" font-size="11" font-weight="bold" fill="#555">BUSINESS OBJECTS</text>
<rect x="150" y="1734" width="43" height="15" rx="7.5" fill="#fdf3d8" stroke="#c9a227"/>
<text x="171.5" y="1745" font-size="9.5" text-anchor="middle" fill="#7a6216" font-weight="bold">Order</text>
<text x="203" y="1745" font-size="10" fill="#666">— validated cart, tracked until delivery</text>
<rect x="150" y="1758" width="54" height="15" rx="7.5" fill="#fdf3d8" stroke="#c9a227"/>
<text x="177" y="1769" font-size="9.5" text-anchor="middle" fill="#7a6216" font-weight="bold">Payment</text>
<text x="214" y="1769" font-size="10" fill="#666">— financial transaction tied to an order</text>
<rect x="150" y="1782" width="54" height="15" rx="7.5" fill="#fdf3d8" stroke="#c9a227"/>
<text x="177" y="1793" font-size="9.5" text-anchor="middle" fill="#7a6216" font-weight="bold">Product</text>
<text x="214" y="1793" font-size="10" fill="#666">— item published to the catalog</text>
<line x1="20" y1="1820" x2="1270" y2="1820" stroke="#ddd" stroke-width="1"/>
<text x="20" y="1842" font-size="11" font-weight="bold" fill="#555">LEGEND</text>
<rect x="150" y="1832" width="26" height="14" rx="3" fill="#eef4fb" stroke="#7a9cc4" stroke-dasharray="5 3"/>
<text x="182" y="1843" font-size="10" fill="#444">Actor group</text>
<rect x="272" y="1832" width="26" height="14" rx="3" fill="#e8f1f8" stroke="#5b8db8"/>
<text x="304" y="1843" font-size="10" fill="#444">Application</text>
<rect x="394" y="1832" width="26" height="14" rx="3" fill="#ffffff" stroke="#5b7a99"/>
<text x="426" y="1843" font-size="10" fill="#444">Application module</text>
<rect x="552" y="1832" width="26" height="14" rx="3" fill="#f3eef8" stroke="#8a6fae"/>
<text x="584" y="1843" font-size="10" fill="#444">Datastore / registry</text>
<rect x="720" y="1832" width="26" height="14" rx="3" fill="#f0eef5" stroke="#9187b3" stroke-dasharray="5 3"/>
<text x="752" y="1843" font-size="10" fill="#444">External system</text>
<line x1="150" y1="1862" x2="176" y2="1862" stroke="#444444" stroke-width="1.3" marker-end="url(#arr)"/>
<text x="182" y="1866" font-size="10" fill="#444">Application flow — (protocol, format) under the label</text>
<rect x="480" y="1855" width="96" height="15" rx="7.5" fill="#fdf3d8" stroke="#c9a227"/>
<text x="528" y="1866" font-size="9.5" text-anchor="middle" fill="#7a6216" font-weight="bold">Business object</text>
<text x="584" y="1866" font-size="10" fill="#444">carried by the flow</text>
</svg>
