<svg xmlns="http://www.w3.org/2000/svg" viewBox="0 0 274 879" font-family="Helvetica,Arial,sans-serif">
<defs><marker id="arr" viewBox="0 0 10 10" refX="9" refY="5" markerWidth="7" markerHeight="7" orient="auto-start-reverse">
<path d="M0,0 L10,5 L0,10 z" fill="#444444"/></marker></defs>
<rect width="274" height="879" fill="white"/>
<rect x="76" y="22" width="168" height="94" rx="6" fill="#eef4fb" stroke="#7a9cc4" stroke-width="1.2" stroke-dasharray="5 3"/>
<text x="86" y="40" font-size="12" font-weight="bold" fill="#333">HR actors</text>
<rect x="16" y="195" width="186.66666666666669" height="236" rx="6" fill="#e8f1f8" stroke="#5b8db8" stroke-width="1.2"/>
<text x="26" y="213" font-size="12" font-weight="bold" fill="#333">HR portal</text>
<circle cx="118" cy="60" r="7" fill="none" stroke="#445566" stroke-width="1.5"/>
<path d="M 107 82 q 11 -19 22 0" fill="none" stroke="#445566" stroke-width="1.5"/>
<text x="118" y="94" font-size="10" text-anchor="middle" fill="#223344">Employee</text>
<circle cx="202" cy="60" r="7" fill="none" stroke="#445566" stroke-width="1.5"/>
<path d="M 191 82 q 11 -19 22 0" fill="none" stroke="#445566" stroke-width="1.5"/>
<text x="202" y="94" font-size="10" text-anchor="middle" fill="#223344">Manager</text>
<rect x="62" y="223" width="112" height="48" rx="4" fill="#ffffff" stroke="#5b7a99" stroke-width="1.3"/>
<text x="118" y="244.25" font-size="11.5" text-anchor="middle" fill="#222233">Leave</text>
<text x="118" y="257.75" font-size="11.5" text-anchor="middle" fill="#222233">requests</text>
<rect x="80.66666666666667" y="373" width="112" height="48" rx="4" fill="#ffffff" stroke="#5b7a99" stroke-width="1.3"/>
<text x="136.66666666666669" y="394.25" font-size="11.5" text-anchor="middle" fill="#222233">Approval</text>
<text x="136.66666666666669" y="407.75" font-size="11.5" text-anchor="middle" fill="#222233">workflow</text>
<path d="M 33 522 v 34 a 56 7 0 0 0 112 0 v -34" fill="#f3eef8" stroke="#8a6fae" stroke-width="1.3"/>
<ellipse cx="89" cy="522" rx="56" ry="7" fill="#f3eef8" stroke="#8a6fae" stroke-width="1.3"/>
<text x="89" y="539.75" font-size="11.5" text-anchor="middle" fill="#222233">HR</text>
<text x="89" y="553.25" font-size="11.5" text-anchor="middle" fill="#222233">repository</text>
<rect x="99" y="579" width="112" height="48" rx="4" fill="#f0eef5" stroke="#9187b3" stroke-width="1.2" stroke-dasharray="5 3"/>
<text x="155" y="600.25" font-size="11.5" text-anchor="middle" fill="#222233">Payroll HRIS</text>
<text x="155" y="613.75" font-size="11.5" text-anchor="middle" fill="#222233">(outsourced)</text>
<path d="M 118 106 L 118 223" fill="none" stroke="#444444" stroke-width="1.3" marker-end="url(#arr)"/>
<text x="65.5" y="148.5" font-size="10.5" text-anchor="middle" fill="#333" font-style="italic" stroke="white" stroke-width="2.5" paint-order="stroke" stroke-linejoin="round">Submit a request</text>
<rect x="22.5" y="156.5" width="86" height="15" rx="7.5" fill="#fdf3d8" stroke="#c9a227" stroke-width="1"/>
<text x="65.5" y="167.5" font-size="9.5" text-anchor="middle" fill="#7a6216" font-weight="bold">Leave request</text>
<path d="M 118 271 L 118 373" fill="none" stroke="#444444" stroke-width="1.3" marker-end="url(#arr)"/>
<text x="71" y="302.5" font-size="10.5" text-anchor="middle" fill="#333" font-style="italic" stroke="white" stroke-width="2.5" paint-order="stroke" stroke-linejoin="round">Submit to the</text>
<text x="71" y="316" font-size="10.5" text-anchor="middle" fill="#333" font-style="italic" stroke="white" stroke-width="2.5" paint-order="stroke" stroke-linejoin="round">workflow</text>
<text x="71" y="329.5" font-size="9" text-anchor="middle" fill="#777" stroke="white" stroke-width="2.5" paint-order="stroke" stroke-linejoin="round">(internal)</text>
<rect x="28" y="336" width="86" height="15" rx="7.5" fill="#fdf3d8" stroke="#c9a227" stroke-width="1"/>
<text x="71" y="347" font-size="9.5" text-anchor="middle" fill="#7a6216" font-weight="bold">Leave request</text>
<path d="M 202 106 L 202 131 L 184 131 L 184 363 L 155.33333333333331 363 L 155.33333333333331 373" fill="none" stroke="#444444" stroke-width="1.3" marker-end="url(#arr)"/>
<text x="219.5" y="152.5" font-size="10.5" text-anchor="middle" fill="#333" font-style="italic" stroke="white" stroke-width="2.5" paint-order="stroke" stroke-linejoin="round">Approve or</text>
<text x="219.5" y="166" font-size="10.5" text-anchor="middle" fill="#333" font-style="italic" stroke="white" stroke-width="2.5" paint-order="stroke" stroke-linejoin="round">reject</text>
<path d="M 118 421 L 118 446 L 89 446 L 89 515" fill="none" stroke="#444444" stroke-width="1.3" marker-end="url(#arr)"/>
<text x="48.5" y="467.5" font-size="10.5" text-anchor="middle" fill="#333" font-style="italic" stroke="white" stroke-width="2.5" paint-order="stroke" stroke-linejoin="round">Update leave</text>
<text x="48.5" y="481" font-size="10.5" text-anchor="middle" fill="#333" font-style="italic" stroke="white" stroke-width="2.5" paint-order="stroke" stroke-linejoin="round">balances</text>
<text x="48.5" y="494.5" font-size="9" text-anchor="middle" fill="#777" stroke="white" stroke-width="2.5" paint-order="stroke" stroke-linejoin="round">(JDBC)</text>
<path d="M 155.33333333333331 421 L 155 436 L 155 579" fill="none" stroke="#444444" stroke-width="1.3" marker-end="url(#arr)"/>
<text x="211" y="463.5" font-size="10.5" text-anchor="middle" fill="#333" font-style="italic" stroke="white" stroke-width="2.5" paint-order="stroke" stroke-linejoin="round">Approved variable</text>
<text x="211" y="477" font-size="10.5" text-anchor="middle" fill="#333" font-style="italic" stroke="white" stroke-width="2.5" paint-order="stroke" stroke-linejoin="round">items</text>
<text x="211" y="490.5" font-size="9" text-anchor="middle" fill="#777" stroke="white" stroke-width="2.5" paint-order="stroke" stroke-linejoin="round">(SFTP, CSV)</text>
<line x1="20" y1="647" x2="254" y2="647" stroke="#ddd" stroke-width="1"/>
<text x="20" y="669" font-size="11" font-weight="bold" fill="#555">BUSINESS OBJECTS</text>
<rect x="150" y="659" width="86" height="15" rx="7.5" fill="#fdf3d8" stroke="#c9a227"/>
<text x="193" y="670" font-size="9.5" text-anchor="middle" fill="#7a6216" font-weight="bold">Leave request</text>
<text x="246" y="670" font-size="10" fill="#666">— request submitted by an employee, subject to approval</text>
<line x1="20" y1="697" x2="254" y2="697" stroke="#ddd" stroke-width="1"/>
<text x="20" y="719" font-size="11" font-weight="bold" fill="#555">LEGEND</text>
<rect x="150" y="709" width="26" height="14" rx="3" fill="#eef4fb" stroke="#7a9cc4" stroke-dasharray="5 3"/>
<text x="182" y="720" font-size="10" fill="#444">Actor group</text>
<rect x="150" y="731" width="26" height="14" rx="3" fill="#e8f1f8" stroke="#5b8db8"/>
<text x="182" y="742" font-size="10" fill="#444">Application</text>
<rect x="150" y="753" width="26" height="14" rx="3" fill="#ffffff" stroke="#5b7a99"/>
<text x="182" y="764" font-size="10" fill="#444">Application module</text>
<rect x="150" y="775" width="26" height="14" rx="3" fill="#f3eef8" stroke="#8a6fae"/>
<text x="182" y="786" font-size="10" fill="#444">Datastore / registry</text>
<rect x="150" y="797" width="26" height="14" rx="3" fill="#f0eef5" stroke="#9187b3" stroke-dasharray="5 3"/>
<text x="182" y="808" font-size="10" fill="#444">External system</text>
<line x1="150" y1="849" x2="176" y2="849" stroke="#444444" stroke-width="1.3" marker-end="url(#arr)"/>
<text x="182" y="853" font-size="10" fill="#444">Application flow — (protocol, format) under the label</text>
<rect x="480" y="842" width="96" height="15" rx="7.5" fill="#fdf3d8" stroke="#c9a227"/>
<text x="528" y="853" font-size="9.5" text-anchor="middle" fill="#7a6216" font-weight="bold">Business object</text>
<text x="584" y="853" font-size="10" fill="#444">carried by the flow</text>
</svg>
