<svg xmlns="http://www.w3.org/2000/svg" viewBox="0 0 979 351" font-family="Helvetica,Arial,sans-serif">
<defs><marker id="arr" viewBox="0 0 10 10" refX="9" refY="5" markerWidth="7" markerHeight="7" orient="auto-start-reverse">
<path d="M0,0 L10,5 L0,10 z" fill="#5a6675"/></marker></defs>
<rect width="979" height="351" fill="#ffffff"/>
<rect x="10" y="22" width="82" height="164" rx="6" fill="#e9f2fb" stroke="#1f77b4" stroke-width="1.2" stroke-dasharray="5 3"/>
<text x="20" y="40" font-size="13" font-weight="bold" fill="#17202c">HR actors</text>
<rect x="248" y="22" width="364" height="137.5" rx="6" fill="#e9f3fa" stroke="#2f83b6" stroke-width="1.2"/>
<text x="258" y="40" font-size="13" font-weight="bold" fill="#17202c">HR portal</text>
<circle cx="51" cy="59" r="7" fill="none" stroke="#1f5e91" stroke-width="1.5"/>
<path d="M 40 81 q 11 -19 22 0" fill="none" stroke="#1f5e91" stroke-width="1.5"/>
<text x="51" y="93" font-size="11" text-anchor="middle" fill="#20364c">Employee</text>
<circle cx="51" cy="133" r="7" fill="none" stroke="#1f5e91" stroke-width="1.5"/>
<path d="M 40 155 q 11 -19 22 0" fill="none" stroke="#1f5e91" stroke-width="1.5"/>
<text x="51" y="167" font-size="11" text-anchor="middle" fill="#20364c">Manager</text>
<rect x="257" y="92.5" width="108" height="47" rx="4" fill="#ffffff" stroke="#48546a" stroke-width="1.3"/>
<text x="311" y="112.75" font-size="12.5" text-anchor="middle" fill="#17202c">Leave</text>
<text x="311" y="127.25" font-size="12.5" text-anchor="middle" fill="#17202c">requests</text>
<rect x="495" y="100.33333333333333" width="108" height="47" rx="4" fill="#ffffff" stroke="#48546a" stroke-width="1.3"/>
<text x="549" y="120.58333333333333" font-size="12.5" text-anchor="middle" fill="#17202c">Approval</text>
<text x="549" y="135.08333333333331" font-size="12.5" text-anchor="middle" fill="#17202c">workflow</text>
<path d="M 737 82 v 33 a 54 7 0 0 0 108 0 v -33" fill="#f4edf8" stroke="#8a53a8" stroke-width="1.3"/>
<ellipse cx="791" cy="82" rx="54" ry="7" fill="#f4edf8" stroke="#8a53a8" stroke-width="1.3"/>
<text x="791" y="98.75" font-size="12.5" text-anchor="middle" fill="#17202c">HR</text>
<text x="791" y="113.25" font-size="12.5" text-anchor="middle" fill="#17202c">repository</text>
<rect x="861" y="108" width="108" height="47" rx="4" fill="#f4eff8" stroke="#8659a6" stroke-width="1.2" stroke-dasharray="5 3"/>
<text x="915" y="128.25" font-size="12.5" text-anchor="middle" fill="#17202c">Payroll HRIS</text>
<text x="915" y="142.75" font-size="12.5" text-anchor="middle" fill="#17202c">(outsourced)</text>
<path d="M 83 76 L 233 76 L 233 116 L 257 116" fill="none" stroke="#5a6675" stroke-width="1.3" marker-end="url(#arr)"/>
<text x="168" y="47.5" font-size="11.5" text-anchor="middle" fill="#3a4553" font-style="italic" stroke="#ffffff" stroke-width="2.5" paint-order="stroke" stroke-linejoin="round">Submit a request</text>
<rect x="125" y="55.5" width="86" height="15" rx="7.5" fill="#fff2d4" stroke="#d3a01f" stroke-width="1"/>
<text x="168" y="66.5" font-size="9.5" text-anchor="middle" fill="#6a5111" font-weight="bold">Leave request</text>
<path d="M 365 116 L 495 116" fill="none" stroke="#5a6675" stroke-width="1.3" marker-end="url(#arr)"/>
<text x="430" y="61.5" font-size="11.5" text-anchor="middle" fill="#3a4553" font-style="italic" stroke="#ffffff" stroke-width="2.5" paint-order="stroke" stroke-linejoin="round">Submit to the</text>
<text x="430" y="76" font-size="11.5" text-anchor="middle" fill="#3a4553" font-style="italic" stroke="#ffffff" stroke-width="2.5" paint-order="stroke" stroke-linejoin="round">workflow</text>
<text x="430" y="90.5" font-size="9" text-anchor="middle" fill="#79828f" stroke="#ffffff" stroke-width="2.5" paint-order="stroke" stroke-linejoin="round">(internal)</text>
<rect x="387" y="96" width="86" height="15" rx="7.5" fill="#fff2d4" stroke="#d3a01f" stroke-width="1"/>
<text x="430" y="107" font-size="9.5" text-anchor="middle" fill="#6a5111" font-weight="bold">Leave request</text>
<path d="M 83 150 L 243 149.5 L 485 149.5 L 485 131.66666666666666 L 495 131.66666666666666" fill="none" stroke="#5a6675" stroke-width="1.3" marker-end="url(#arr)"/>
<text x="148.5" y="165.5" font-size="11.5" text-anchor="middle" fill="#3a4553" font-style="italic" stroke="#ffffff" stroke-width="2.5" paint-order="stroke" stroke-linejoin="round">Approve or</text>
<text x="148.5" y="180" font-size="11.5" text-anchor="middle" fill="#3a4553" font-style="italic" stroke="#ffffff" stroke-width="2.5" paint-order="stroke" stroke-linejoin="round">reject</text>
<path d="M 603 116 L 627 116 L 627 99 L 737 99" fill="none" stroke="#5a6675" stroke-width="1.3" marker-end="url(#arr)"/>
<text x="679" y="63.5" font-size="11.5" text-anchor="middle" fill="#3a4553" font-style="italic" stroke="#ffffff" stroke-width="2.5" paint-order="stroke" stroke-linejoin="round">Update leave</text>
<text x="679" y="78" font-size="11.5" text-anchor="middle" fill="#3a4553" font-style="italic" stroke="#ffffff" stroke-width="2.5" paint-order="stroke" stroke-linejoin="round">balances</text>
<text x="679" y="92.5" font-size="9" text-anchor="middle" fill="#79828f" stroke="#ffffff" stroke-width="2.5" paint-order="stroke" stroke-linejoin="round">(JDBC)</text>
<path d="M 603 131.66666666666666 L 617 132 L 861 132" fill="none" stroke="#5a6675" stroke-width="1.3" marker-end="url(#arr)"/>
<text x="691" y="147.5" font-size="11.5" text-anchor="middle" fill="#3a4553" font-style="italic" stroke="#ffffff" stroke-width="2.5" paint-order="stroke" stroke-linejoin="round">Approved variable</text>
<text x="691" y="162" font-size="11.5" text-anchor="middle" fill="#3a4553" font-style="italic" stroke="#ffffff" stroke-width="2.5" paint-order="stroke" stroke-linejoin="round">items</text>
<text x="691" y="176.5" font-size="9" text-anchor="middle" fill="#79828f" stroke="#ffffff" stroke-width="2.5" paint-order="stroke" stroke-linejoin="round">(SFTP, CSV)</text>
<line x1="20" y1="207" x2="959" y2="207" stroke="#e6e9ee" stroke-width="1"/>
<text x="20" y="229" font-size="11" font-weight="bold" fill="#3a4553">BUSINESS OBJECTS</text>
<rect x="150" y="219" width="86" height="15" rx="7.5" fill="#fff2d4" stroke="#d3a01f"/>
<text x="193" y="230" font-size="9.5" text-anchor="middle" fill="#6a5111" font-weight="bold">Leave request</text>
<text x="246" y="230" font-size="10" fill="#79828f">— request submitted by an employee, subject to approval</text>
<line x1="20" y1="257" x2="959" y2="257" stroke="#e6e9ee" stroke-width="1"/>
<text x="20" y="279" font-size="11" font-weight="bold" fill="#3a4553">LEGEND</text>
<rect x="150" y="269" width="26" height="14" rx="3" fill="#e9f2fb" stroke="#1f77b4" stroke-dasharray="5 3"/>
<text x="182" y="280" font-size="10" fill="#17202c">Actor group</text>
<rect x="272" y="269" width="26" height="14" rx="3" fill="#e9f3fa" stroke="#2f83b6"/>
<text x="304" y="280" font-size="10" fill="#17202c">Application</text>
<rect x="394" y="269" width="26" height="14" rx="3" fill="#ffffff" stroke="#48546a"/>
<text x="426" y="280" font-size="10" fill="#17202c">Application module</text>
<rect x="552" y="269" width="26" height="14" rx="3" fill="#f4edf8" stroke="#8a53a8"/>
<text x="584" y="280" font-size="10" fill="#17202c">Datastore / registry</text>
<rect x="720" y="269" width="26" height="14" rx="3" fill="#f4eff8" stroke="#8659a6" stroke-dasharray="5 3"/>
<text x="752" y="280" font-size="10" fill="#17202c">External system</text>
<line x1="150" y1="321" x2="176" y2="321" stroke="#5a6675" stroke-width="1.3" marker-end="url(#arr)"/>
<text x="182" y="325" font-size="10" fill="#17202c">Application flow — (protocol, format) under the label</text>
<rect x="480" y="314" width="96" height="15" rx="7.5" fill="#fff2d4" stroke="#d3a01f"/>
<text x="528" y="325" font-size="9.5" text-anchor="middle" fill="#6a5111" font-weight="bold">Business object</text>
<text x="584" y="325" font-size="10" fill="#17202c">carried by the flow</text>
</svg>
