<svg xmlns="http://www.w3.org/2000/svg" viewBox="0 0 1209 1694" font-family="Helvetica,Arial,sans-serif">
<defs><marker id="arr" viewBox="0 0 10 10" refX="9" refY="5" markerWidth="7" markerHeight="7" orient="auto-start-reverse">
<path d="M0,0 L10,5 L0,10 z" fill="#5a6675"/></marker></defs>
<rect width="1209" height="1694" fill="#ffffff"/>
<rect x="614" y="22" width="354" height="101" rx="6" fill="#e9f2fb" stroke="#1f77b4" stroke-width="1.2" stroke-dasharray="5 3"/>
<text x="624" y="40" font-size="13" font-weight="bold" fill="#17202c">Internal teams</text>
<rect x="634" y="405" width="314" height="215" rx="6" fill="#e9f3fa" stroke="#2f83b6" stroke-width="1.2"/>
<text x="644" y="423" font-size="13" font-weight="bold" fill="#17202c">Sales front</text>
<rect x="600" y="754" width="305.66666666666663" height="234" rx="6" fill="#e9f3fa" stroke="#2f83b6" stroke-width="1.2"/>
<text x="610" y="772" font-size="13" font-weight="bold" fill="#17202c">Order management</text>
<rect x="753" y="198" width="254" height="83" rx="6" fill="#e9f3fa" stroke="#2f83b6" stroke-width="1.2"/>
<text x="763" y="216" font-size="13" font-weight="bold" fill="#17202c">Product repository</text>
<rect x="616" y="221" width="126" height="83" rx="6" fill="#e9f3fa" stroke="#2f83b6" stroke-width="1.2"/>
<text x="626" y="239" font-size="13" font-weight="bold" fill="#17202c">Pricing</text>
<rect x="868" y="1112" width="179.5" height="225" rx="6" fill="#e9f3fa" stroke="#2f83b6" stroke-width="1.2"/>
<text x="878" y="1130" font-size="13" font-weight="bold" fill="#17202c">Payment hub</text>
<rect x="145" y="1083" width="254" height="83" rx="6" fill="#e9f3fa" stroke="#2f83b6" stroke-width="1.2"/>
<text x="155" y="1101" font-size="13" font-weight="bold" fill="#17202c">Customer care</text>
<circle cx="815.5" cy="59" r="7" fill="none" stroke="#1f5e91" stroke-width="1.5"/>
<path d="M 804.5 81 q 11 -19 22 0" fill="none" stroke="#1f5e91" stroke-width="1.5"/>
<text x="815.5" y="93" font-size="11" text-anchor="middle" fill="#20364c">Merchandising</text>
<text x="815.5" y="104" font-size="11" text-anchor="middle" fill="#20364c">manager</text>
<circle cx="685.5" cy="59" r="7" fill="none" stroke="#1f5e91" stroke-width="1.5"/>
<path d="M 674.5 81 q 11 -19 22 0" fill="none" stroke="#1f5e91" stroke-width="1.5"/>
<text x="685.5" y="93" font-size="11" text-anchor="middle" fill="#20364c">Customer-relations</text>
<text x="685.5" y="104" font-size="11" text-anchor="middle" fill="#20364c">advisor</text>
<circle cx="921" cy="70" r="7" fill="none" stroke="#1f5e91" stroke-width="1.5"/>
<path d="M 910 92 q 11 -19 22 0" fill="none" stroke="#1f5e91" stroke-width="1.5"/>
<text x="921" y="104" font-size="11" text-anchor="middle" fill="#20364c">Accountant</text>
<rect x="831" y="432" width="108" height="47" rx="4" fill="#ffffff" stroke="#48546a" stroke-width="1.3"/>
<text x="885" y="452.25" font-size="12.5" text-anchor="middle" fill="#17202c">E-commerce</text>
<text x="885" y="466.75" font-size="12.5" text-anchor="middle" fill="#17202c">site</text>
<rect x="678" y="432" width="108" height="47" rx="4" fill="#ffffff" stroke="#48546a" stroke-width="1.3"/>
<text x="732" y="452.25" font-size="12.5" text-anchor="middle" fill="#17202c">Mobile</text>
<text x="732" y="466.75" font-size="12.5" text-anchor="middle" fill="#17202c">app</text>
<rect x="742" y="564" width="108" height="47" rx="4" fill="#ffffff" stroke="#48546a" stroke-width="1.3"/>
<text x="796" y="584.25" font-size="12.5" text-anchor="middle" fill="#17202c">Checkout</text>
<text x="796" y="598.75" font-size="12.5" text-anchor="middle" fill="#17202c">funnel</text>
<rect x="660.6666666666666" y="781" width="108" height="47" rx="4" fill="#ffffff" stroke="#48546a" stroke-width="1.3"/>
<text x="714.6666666666666" y="801.25" font-size="12.5" text-anchor="middle" fill="#17202c">Order</text>
<text x="714.6666666666666" y="815.75" font-size="12.5" text-anchor="middle" fill="#17202c">lifecycle</text>
<rect x="612.6666666666666" y="932" width="110" height="47" rx="4" fill="#ffffff" stroke="#48546a" stroke-width="1.3"/>
<text x="667.6666666666666" y="952.25" font-size="12.5" text-anchor="middle" fill="#17202c">Shipment</text>
<text x="667.6666666666666" y="966.75" font-size="12.5" text-anchor="middle" fill="#17202c">orchestration</text>
<rect x="788.6666666666666" y="781" width="108" height="47" rx="4" fill="#ffffff" stroke="#48546a" stroke-width="1.3"/>
<text x="842.6666666666666" y="801.25" font-size="12.5" text-anchor="middle" fill="#17202c">Returns and</text>
<text x="842.6666666666666" y="815.75" font-size="12.5" text-anchor="middle" fill="#17202c">refunds</text>
<rect x="762" y="225" width="108" height="47" rx="4" fill="#ffffff" stroke="#48546a" stroke-width="1.3"/>
<text x="816" y="245.25" font-size="12.5" text-anchor="middle" fill="#17202c">Catalog</text>
<text x="816" y="259.75" font-size="12.5" text-anchor="middle" fill="#17202c">management</text>
<rect x="890" y="225" width="108" height="47" rx="4" fill="#ffffff" stroke="#48546a" stroke-width="1.3"/>
<text x="944" y="245.25" font-size="12.5" text-anchor="middle" fill="#17202c">Media</text>
<text x="944" y="259.75" font-size="12.5" text-anchor="middle" fill="#17202c">management</text>
<rect x="625" y="248" width="108" height="47" rx="4" fill="#ffffff" stroke="#48546a" stroke-width="1.3"/>
<text x="679" y="268.25" font-size="12.5" text-anchor="middle" fill="#17202c">Pricing-rule</text>
<text x="679" y="282.75" font-size="12.5" text-anchor="middle" fill="#17202c">engine</text>
<rect x="928.5" y="1139" width="110" height="47" rx="4" fill="#ffffff" stroke="#48546a" stroke-width="1.3"/>
<text x="983.5" y="1159.25" font-size="12.5" text-anchor="middle" fill="#17202c">Payment</text>
<text x="983.5" y="1173.75" font-size="12.5" text-anchor="middle" fill="#17202c">orchestration</text>
<rect x="902" y="1281" width="108" height="47" rx="4" fill="#ffffff" stroke="#48546a" stroke-width="1.3"/>
<text x="956" y="1301.25" font-size="12.5" text-anchor="middle" fill="#17202c">Anti-fraud</text>
<text x="956" y="1315.75" font-size="12.5" text-anchor="middle" fill="#17202c">scoring</text>
<rect x="282" y="1110" width="108" height="47" rx="4" fill="#ffffff" stroke="#48546a" stroke-width="1.3"/>
<text x="336" y="1130.25" font-size="12.5" text-anchor="middle" fill="#17202c">Ticket</text>
<text x="336" y="1144.75" font-size="12.5" text-anchor="middle" fill="#17202c">management</text>
<rect x="154" y="1110" width="108" height="47" rx="4" fill="#ffffff" stroke="#48546a" stroke-width="1.3"/>
<text x="208" y="1130.25" font-size="12.5" text-anchor="middle" fill="#17202c">Customer</text>
<text x="208" y="1144.75" font-size="12.5" text-anchor="middle" fill="#17202c">self-care</text>
<path d="M 860 1379 v 33 a 54 7 0 0 0 108 0 v -33" fill="#f4edf8" stroke="#8a53a8" stroke-width="1.3"/>
<ellipse cx="914" cy="1379" rx="54" ry="7" fill="#f4edf8" stroke="#8a53a8" stroke-width="1.3"/>
<text x="914" y="1395.75" font-size="12.5" text-anchor="middle" fill="#17202c">Data</text>
<text x="914" y="1410.25" font-size="12.5" text-anchor="middle" fill="#17202c">warehouse</text>
<path d="M 196 1259 v 33 a 54 7 0 0 0 108 0 v -33" fill="#f4edf8" stroke="#8a53a8" stroke-width="1.3"/>
<ellipse cx="250" cy="1259" rx="54" ry="7" fill="#f4edf8" stroke="#8a53a8" stroke-width="1.3"/>
<text x="250" y="1275.75" font-size="12.5" text-anchor="middle" fill="#17202c">Customer</text>
<text x="250" y="1290.25" font-size="12.5" text-anchor="middle" fill="#17202c">repository</text>
<rect x="812" y="1466" width="108" height="38" rx="4" fill="#f4eff8" stroke="#8659a6" stroke-width="1.2" stroke-dasharray="5 3"/>
<text x="866" y="1489" font-size="12.5" text-anchor="middle" fill="#17202c">PSP</text>
<rect x="614" y="1157" width="108" height="47" rx="4" fill="#f4eff8" stroke="#8659a6" stroke-width="1.2" stroke-dasharray="5 3"/>
<text x="668" y="1177.25" font-size="12.5" text-anchor="middle" fill="#17202c">Carrier</text>
<text x="668" y="1191.75" font-size="12.5" text-anchor="middle" fill="#17202c">platforms</text>
<rect x="484" y="1319" width="108" height="47" rx="4" fill="#f4eff8" stroke="#8659a6" stroke-width="1.2" stroke-dasharray="5 3"/>
<text x="538" y="1339.25" font-size="12.5" text-anchor="middle" fill="#17202c">Group</text>
<text x="538" y="1353.75" font-size="12.5" text-anchor="middle" fill="#17202c">ERP</text>
<path d="M 815.5 114 L 816 128 L 816 225" fill="none" stroke="#5a6675" stroke-width="1.3" marker-end="url(#arr)"/>
<text x="765.5" y="156.5" font-size="11.5" text-anchor="middle" fill="#3a4553" font-style="italic" stroke="#ffffff" stroke-width="2.5" paint-order="stroke" stroke-linejoin="round">Enrich product</text>
<text x="765.5" y="171" font-size="11.5" text-anchor="middle" fill="#3a4553" font-style="italic" stroke="#ffffff" stroke-width="2.5" paint-order="stroke" stroke-linejoin="round">pages</text>
<path d="M 816 272 L 816 296 L 885 296 L 885 432" fill="none" stroke="#5a6675" stroke-width="1.3" marker-end="url(#arr)"/>
<text x="839.5" y="318.5" font-size="11.5" text-anchor="middle" fill="#3a4553" font-style="italic" stroke="#ffffff" stroke-width="2.5" paint-order="stroke" stroke-linejoin="round">Publish the</text>
<text x="839.5" y="333" font-size="11.5" text-anchor="middle" fill="#3a4553" font-style="italic" stroke="#ffffff" stroke-width="2.5" paint-order="stroke" stroke-linejoin="round">catalog</text>
<text x="839.5" y="347.5" font-size="9" text-anchor="middle" fill="#79828f" stroke="#ffffff" stroke-width="2.5" paint-order="stroke" stroke-linejoin="round">(API_REST, JSON)</text>
<rect x="812.5" y="353" width="54" height="15" rx="7.5" fill="#fff2d4" stroke="#d3a01f" stroke-width="1"/>
<text x="839.5" y="364" font-size="9.5" text-anchor="middle" fill="#6a5111" font-weight="bold">Product</text>
<path d="M 944 272 L 944 296 L 912 296 L 912 432" fill="none" stroke="#5a6675" stroke-width="1.3" marker-end="url(#arr)"/>
<text x="948.5" y="318.5" font-size="11.5" text-anchor="middle" fill="#3a4553" font-style="italic" stroke="#ffffff" stroke-width="2.5" paint-order="stroke" stroke-linejoin="round">Product</text>
<text x="948.5" y="333" font-size="11.5" text-anchor="middle" fill="#3a4553" font-style="italic" stroke="#ffffff" stroke-width="2.5" paint-order="stroke" stroke-linejoin="round">visuals</text>
<text x="948.5" y="347.5" font-size="9" text-anchor="middle" fill="#79828f" stroke="#ffffff" stroke-width="2.5" paint-order="stroke" stroke-linejoin="round">(CDN, HTTPS)</text>
<path d="M 697 295 L 697 380 L 858 380 L 858 432" fill="none" stroke="#5a6675" stroke-width="1.3" marker-end="url(#arr)"/>
<text x="743.5" y="337.5" font-size="11.5" text-anchor="middle" fill="#3a4553" font-style="italic" stroke="#ffffff" stroke-width="2.5" paint-order="stroke" stroke-linejoin="round">Current</text>
<text x="743.5" y="352" font-size="11.5" text-anchor="middle" fill="#3a4553" font-style="italic" stroke="#ffffff" stroke-width="2.5" paint-order="stroke" stroke-linejoin="round">prices</text>
<text x="743.5" y="366.5" font-size="9" text-anchor="middle" fill="#79828f" stroke="#ffffff" stroke-width="2.5" paint-order="stroke" stroke-linejoin="round">(API_REST, JSON)</text>
<path d="M 661 295 L 661 390 L 796 390 L 796 564" fill="none" stroke="#5a6675" stroke-width="1.3" marker-end="url(#arr)"/>
<text x="601" y="347.5" font-size="11.5" text-anchor="middle" fill="#3a4553" font-style="italic" stroke="#ffffff" stroke-width="2.5" paint-order="stroke" stroke-linejoin="round">Prices guaranteed</text>
<text x="601" y="362" font-size="11.5" text-anchor="middle" fill="#3a4553" font-style="italic" stroke="#ffffff" stroke-width="2.5" paint-order="stroke" stroke-linejoin="round">at cart</text>
<text x="601" y="376.5" font-size="9" text-anchor="middle" fill="#79828f" stroke="#ffffff" stroke-width="2.5" paint-order="stroke" stroke-linejoin="round">(API_REST, JSON)</text>
<path d="M 520 1319 L 520 1309 L 134 1309 L 134 206 L 288 206 A 5 5 0 0 1 298 206 L 679 206 L 679 248" fill="none" stroke="#5a6675" stroke-width="1.3" marker-end="url(#arr)"/>
<text x="71" y="228.5" font-size="11.5" text-anchor="middle" fill="#3a4553" font-style="italic" stroke="#ffffff" stroke-width="2.5" paint-order="stroke" stroke-linejoin="round">Reference purchase</text>
<text x="71" y="243" font-size="11.5" text-anchor="middle" fill="#3a4553" font-style="italic" stroke="#ffffff" stroke-width="2.5" paint-order="stroke" stroke-linejoin="round">costs</text>
<text x="71" y="257.5" font-size="9" text-anchor="middle" fill="#79828f" stroke="#ffffff" stroke-width="2.5" paint-order="stroke" stroke-linejoin="round">(SFTP, CSV)</text>
<path d="M 867 479 L 867 554 L 823 554 L 823 564" fill="none" stroke="#5a6675" stroke-width="1.3" marker-end="url(#arr)"/>
<text x="836" y="511.5" font-size="11.5" text-anchor="middle" fill="#3a4553" font-style="italic" stroke="#ffffff" stroke-width="2.5" paint-order="stroke" stroke-linejoin="round">Go to</text>
<text x="836" y="526" font-size="11.5" text-anchor="middle" fill="#3a4553" font-style="italic" stroke="#ffffff" stroke-width="2.5" paint-order="stroke" stroke-linejoin="round">checkout</text>
<text x="836" y="540.5" font-size="9" text-anchor="middle" fill="#79828f" stroke="#ffffff" stroke-width="2.5" paint-order="stroke" stroke-linejoin="round">(internal)</text>
<path d="M 732 479 L 732 554 L 769 554 L 769 564" fill="none" stroke="#5a6675" stroke-width="1.3" marker-end="url(#arr)"/>
<text x="686.5" y="511.5" font-size="11.5" text-anchor="middle" fill="#3a4553" font-style="italic" stroke="#ffffff" stroke-width="2.5" paint-order="stroke" stroke-linejoin="round">Mobile</text>
<text x="686.5" y="526" font-size="11.5" text-anchor="middle" fill="#3a4553" font-style="italic" stroke="#ffffff" stroke-width="2.5" paint-order="stroke" stroke-linejoin="round">cart</text>
<text x="686.5" y="540.5" font-size="9" text-anchor="middle" fill="#79828f" stroke="#ffffff" stroke-width="2.5" paint-order="stroke" stroke-linejoin="round">(API_REST, JSON)</text>
<path d="M 778 611 L 778 635 L 715 635 L 714.6666666666666 749 L 714.6666666666666 781" fill="none" stroke="#5a6675" stroke-width="1.3" marker-end="url(#arr)"/>
<text x="677.5" y="657.5" font-size="11.5" text-anchor="middle" fill="#3a4553" font-style="italic" stroke="#ffffff" stroke-width="2.5" paint-order="stroke" stroke-linejoin="round">Create the</text>
<text x="677.5" y="672" font-size="11.5" text-anchor="middle" fill="#3a4553" font-style="italic" stroke="#ffffff" stroke-width="2.5" paint-order="stroke" stroke-linejoin="round">order</text>
<text x="677.5" y="686.5" font-size="9" text-anchor="middle" fill="#79828f" stroke="#ffffff" stroke-width="2.5" paint-order="stroke" stroke-linejoin="round">(MQ, JSON)</text>
<rect x="656" y="692" width="43" height="15" rx="7.5" fill="#fff2d4" stroke="#d3a01f" stroke-width="1"/>
<text x="677.5" y="703" font-size="9.5" text-anchor="middle" fill="#6a5111" font-weight="bold">Order</text>
<path d="M 814 611 L 814 645 L 1006 645 L 1006 1003 L 995 1003 L 994.5 1107 L 994.5 1139" fill="none" stroke="#5a6675" stroke-width="1.3" marker-end="url(#arr)"/>
<text x="960.5" y="941.5" font-size="11.5" text-anchor="middle" fill="#3a4553" font-style="italic" stroke="#ffffff" stroke-width="2.5" paint-order="stroke" stroke-linejoin="round">Payment</text>
<text x="960.5" y="956" font-size="11.5" text-anchor="middle" fill="#3a4553" font-style="italic" stroke="#ffffff" stroke-width="2.5" paint-order="stroke" stroke-linejoin="round">request</text>
<text x="960.5" y="970.5" font-size="9" text-anchor="middle" fill="#79828f" stroke="#ffffff" stroke-width="2.5" paint-order="stroke" stroke-linejoin="round">(API_REST, JSON)</text>
<rect x="933.5" y="976" width="54" height="15" rx="7.5" fill="#fff2d4" stroke="#d3a01f" stroke-width="1"/>
<text x="960.5" y="987" font-size="9.5" text-anchor="middle" fill="#6a5111" font-weight="bold">Payment</text>
<path d="M 956 1186 L 956 1281" fill="none" stroke="#5a6675" stroke-width="1.3" marker-end="url(#arr)"/>
<text x="915.5" y="1228.5" font-size="11.5" text-anchor="middle" fill="#3a4553" font-style="italic" stroke="#ffffff" stroke-width="2.5" paint-order="stroke" stroke-linejoin="round">Score the</text>
<text x="915.5" y="1243" font-size="11.5" text-anchor="middle" fill="#3a4553" font-style="italic" stroke="#ffffff" stroke-width="2.5" paint-order="stroke" stroke-linejoin="round">transaction</text>
<text x="915.5" y="1257.5" font-size="9" text-anchor="middle" fill="#79828f" stroke="#ffffff" stroke-width="2.5" paint-order="stroke" stroke-linejoin="round">(internal)</text>
<path d="M 983.5 1186 L 983.5 1206 L 1020 1206 L 1020 1372 L 979 1372 L 979 1456 L 884 1456 L 884 1466" fill="none" stroke="#5a6675" stroke-width="1.3" marker-end="url(#arr)"/>
<text x="1040" y="1394.5" font-size="11.5" text-anchor="middle" fill="#3a4553" font-style="italic" stroke="#ffffff" stroke-width="2.5" paint-order="stroke" stroke-linejoin="round">Authorization and</text>
<text x="1040" y="1409" font-size="11.5" text-anchor="middle" fill="#3a4553" font-style="italic" stroke="#ffffff" stroke-width="2.5" paint-order="stroke" stroke-linejoin="round">capture</text>
<text x="1040" y="1423.5" font-size="9" text-anchor="middle" fill="#79828f" stroke="#ffffff" stroke-width="2.5" paint-order="stroke" stroke-linejoin="round">(API_REST, JSON)</text>
<rect x="1013" y="1429" width="54" height="15" rx="7.5" fill="#fff2d4" stroke="#d3a01f" stroke-width="1"/>
<text x="1040" y="1440" font-size="9.5" text-anchor="middle" fill="#6a5111" font-weight="bold">Payment</text>
<path d="M 848 1466 L 848 1097 L 852 1097 A 5 5 0 0 1 862 1097 L 951 1097 L 950.5 1107 L 950.5 1139" fill="none" stroke="#5a6675" stroke-width="1.3" marker-end="url(#arr)"/>
<text x="805" y="1162.5" font-size="11.5" text-anchor="middle" fill="#3a4553" font-style="italic" stroke="#ffffff" stroke-width="2.5" paint-order="stroke" stroke-linejoin="round">Transaction</text>
<text x="805" y="1177" font-size="11.5" text-anchor="middle" fill="#3a4553" font-style="italic" stroke="#ffffff" stroke-width="2.5" paint-order="stroke" stroke-linejoin="round">status</text>
<text x="805" y="1191.5" font-size="9" text-anchor="middle" fill="#79828f" stroke="#ffffff" stroke-width="2.5" paint-order="stroke" stroke-linejoin="round">(webhook, JSON)</text>
<path d="M 1011 1186 L 1011 1196 L 1031 1196 L 1031 1352 L 1094 1352 L 1094 739 L 1011 739 A 5 5 0 0 0 1001 739 L 848 739 A 5 5 0 0 0 838 739 L 742 739 L 741.6666666666666 749 L 741.6666666666666 781" fill="none" stroke="#5a6675" stroke-width="1.3" marker-end="url(#arr)"/>
<text x="1060" y="1058.5" font-size="11.5" text-anchor="middle" fill="#3a4553" font-style="italic" stroke="#ffffff" stroke-width="2.5" paint-order="stroke" stroke-linejoin="round">Payment</text>
<text x="1060" y="1073" font-size="11.5" text-anchor="middle" fill="#3a4553" font-style="italic" stroke="#ffffff" stroke-width="2.5" paint-order="stroke" stroke-linejoin="round">confirmed</text>
<text x="1060" y="1087.5" font-size="9" text-anchor="middle" fill="#79828f" stroke="#ffffff" stroke-width="2.5" paint-order="stroke" stroke-linejoin="round">(MQ, JSON)</text>
<path d="M 696.6666666666666 828 L 696.6666666666666 838 L 686 838 L 686 932" fill="none" stroke="#5a6675" stroke-width="1.3" marker-end="url(#arr)"/>
<text x="652" y="860.5" font-size="11.5" text-anchor="middle" fill="#3a4553" font-style="italic" stroke="#ffffff" stroke-width="2.5" paint-order="stroke" stroke-linejoin="round">Orders to</text>
<text x="652" y="875" font-size="11.5" text-anchor="middle" fill="#3a4553" font-style="italic" stroke="#ffffff" stroke-width="2.5" paint-order="stroke" stroke-linejoin="round">ship</text>
<text x="652" y="889.5" font-size="9" text-anchor="middle" fill="#79828f" stroke="#ffffff" stroke-width="2.5" paint-order="stroke" stroke-linejoin="round">(internal)</text>
<rect x="630.5" y="895" width="43" height="15" rx="7.5" fill="#fff2d4" stroke="#d3a01f" stroke-width="1"/>
<text x="652" y="906" font-size="9.5" text-anchor="middle" fill="#6a5111" font-weight="bold">Order</text>
<path d="M 686 979 L 686 1157" fill="none" stroke="#5a6675" stroke-width="1.3" marker-end="url(#arr)"/>
<text x="732.5" y="1108.5" font-size="11.5" text-anchor="middle" fill="#3a4553" font-style="italic" stroke="#ffffff" stroke-width="2.5" paint-order="stroke" stroke-linejoin="round">Labels and</text>
<text x="732.5" y="1123" font-size="11.5" text-anchor="middle" fill="#3a4553" font-style="italic" stroke="#ffffff" stroke-width="2.5" paint-order="stroke" stroke-linejoin="round">pickups</text>
<text x="732.5" y="1137.5" font-size="9" text-anchor="middle" fill="#79828f" stroke="#ffffff" stroke-width="2.5" paint-order="stroke" stroke-linejoin="round">(API_REST, JSON)</text>
<path d="M 650 1157 L 650 1086 L 590 1086 L 590 739 L 609 739 L 609 922 L 649.3333333333333 922 L 649.3333333333333 932" fill="none" stroke="#5a6675" stroke-width="1.3" marker-end="url(#arr)"/>
<text x="607" y="1108.5" font-size="11.5" text-anchor="middle" fill="#3a4553" font-style="italic" stroke="#ffffff" stroke-width="2.5" paint-order="stroke" stroke-linejoin="round">Parcel</text>
<text x="607" y="1123" font-size="11.5" text-anchor="middle" fill="#3a4553" font-style="italic" stroke="#ffffff" stroke-width="2.5" paint-order="stroke" stroke-linejoin="round">tracking</text>
<text x="607" y="1137.5" font-size="9" text-anchor="middle" fill="#79828f" stroke="#ffffff" stroke-width="2.5" paint-order="stroke" stroke-linejoin="round">(webhook, JSON)</text>
<path d="M 649.3333333333333 979 L 649 993 L 649 1003 L 595 1003 A 5 5 0 0 0 585 1003 L 561 1003 A 5 5 0 0 0 551 1003 L 414 1003 A 5 5 0 0 0 404 1003 L 298 1003 A 5 5 0 0 0 288 1003 L 282 1003 L 282 1068 L 208 1068 L 208 1110" fill="none" stroke="#5a6675" stroke-width="1.3" marker-end="url(#arr)"/>
<text x="231.5" y="1025.5" font-size="11.5" text-anchor="middle" fill="#3a4553" font-style="italic" stroke="#ffffff" stroke-width="2.5" paint-order="stroke" stroke-linejoin="round">Customer order</text>
<text x="231.5" y="1040" font-size="11.5" text-anchor="middle" fill="#3a4553" font-style="italic" stroke="#ffffff" stroke-width="2.5" paint-order="stroke" stroke-linejoin="round">tracking</text>
<text x="231.5" y="1054.5" font-size="9" text-anchor="middle" fill="#79828f" stroke="#ffffff" stroke-width="2.5" paint-order="stroke" stroke-linejoin="round">(MQ, JSON)</text>
<path d="M 685.5 114 L 686 128 L 686 196 L 293 196 L 293 1068 L 336 1068 L 336 1110" fill="none" stroke="#5a6675" stroke-width="1.3" marker-end="url(#arr)"/>
<text x="331.5" y="972.5" font-size="11.5" text-anchor="middle" fill="#3a4553" font-style="italic" stroke="#ffffff" stroke-width="2.5" paint-order="stroke" stroke-linejoin="round">Handle</text>
<text x="331.5" y="987" font-size="11.5" text-anchor="middle" fill="#3a4553" font-style="italic" stroke="#ffffff" stroke-width="2.5" paint-order="stroke" stroke-linejoin="round">complaints</text>
<path d="M 336 1157 L 336 1181 L 409 1181 L 409 719 L 710 719 A 5 5 0 0 1 720 719 L 843 719 L 842.6666666666666 749 L 842.6666666666666 781" fill="none" stroke="#5a6675" stroke-width="1.3" marker-end="url(#arr)"/>
<text x="355.5" y="1025.5" font-size="11.5" text-anchor="middle" fill="#3a4553" font-style="italic" stroke="#ffffff" stroke-width="2.5" paint-order="stroke" stroke-linejoin="round">Approved return</text>
<text x="355.5" y="1040" font-size="11.5" text-anchor="middle" fill="#3a4553" font-style="italic" stroke="#ffffff" stroke-width="2.5" paint-order="stroke" stroke-linejoin="round">requests</text>
<text x="355.5" y="1054.5" font-size="9" text-anchor="middle" fill="#79828f" stroke="#ffffff" stroke-width="2.5" paint-order="stroke" stroke-linejoin="round">(API_REST, JSON)</text>
<path d="M 842.6666666666666 828 L 843 993 L 843 1003 L 973 1003 L 972.5 1107 L 972.5 1139" fill="none" stroke="#5a6675" stroke-width="1.3" marker-end="url(#arr)"/>
<text x="942" y="1025.5" font-size="11.5" text-anchor="middle" fill="#3a4553" font-style="italic" stroke="#ffffff" stroke-width="2.5" paint-order="stroke" stroke-linejoin="round">Refund</text>
<text x="942" y="1040" font-size="11.5" text-anchor="middle" fill="#3a4553" font-style="italic" stroke="#ffffff" stroke-width="2.5" paint-order="stroke" stroke-linejoin="round">orders</text>
<text x="942" y="1054.5" font-size="9" text-anchor="middle" fill="#79828f" stroke="#ffffff" stroke-width="2.5" paint-order="stroke" stroke-linejoin="round">(MQ, JSON)</text>
<rect x="915" y="1060" width="54" height="15" rx="7.5" fill="#fff2d4" stroke="#d3a01f" stroke-width="1"/>
<text x="942" y="1071" font-size="9.5" text-anchor="middle" fill="#6a5111" font-weight="bold">Payment</text>
<path d="M 208 1157 L 208 1181 L 250 1181 L 250 1252" fill="none" stroke="#5a6675" stroke-width="1.3" marker-end="url(#arr)"/>
<text x="196.5" y="1203.5" font-size="11.5" text-anchor="middle" fill="#3a4553" font-style="italic" stroke="#ffffff" stroke-width="2.5" paint-order="stroke" stroke-linejoin="round">Update customer</text>
<text x="196.5" y="1218" font-size="11.5" text-anchor="middle" fill="#3a4553" font-style="italic" stroke="#ffffff" stroke-width="2.5" paint-order="stroke" stroke-linejoin="round">profile</text>
<text x="196.5" y="1232.5" font-size="9" text-anchor="middle" fill="#79828f" stroke="#ffffff" stroke-width="2.5" paint-order="stroke" stroke-linejoin="round">(JDBC)</text>
<path d="M 732.6666666666666 828 L 733 993 L 733 1013 L 857 1013 L 857 1352 L 896 1352 L 896 1372" fill="none" stroke="#5a6675" stroke-width="1.3" marker-end="url(#arr)"/>
<text x="811.5" y="1035.5" font-size="11.5" text-anchor="middle" fill="#3a4553" font-style="italic" stroke="#ffffff" stroke-width="2.5" paint-order="stroke" stroke-linejoin="round">Archive</text>
<text x="811.5" y="1050" font-size="11.5" text-anchor="middle" fill="#3a4553" font-style="italic" stroke="#ffffff" stroke-width="2.5" paint-order="stroke" stroke-linejoin="round">orders</text>
<text x="811.5" y="1064.5" font-size="9" text-anchor="middle" fill="#79828f" stroke="#ffffff" stroke-width="2.5" paint-order="stroke" stroke-linejoin="round">(batch, parquet)</text>
<rect x="790" y="1070" width="43" height="15" rx="7.5" fill="#fff2d4" stroke="#d3a01f" stroke-width="1"/>
<text x="811.5" y="1081" font-size="9.5" text-anchor="middle" fill="#6a5111" font-weight="bold">Order</text>
<path d="M 903 479 L 903 635 L 1198 635 L 1198 1362 L 1025 1362 A 5 5 0 0 0 1015 1362 L 932 1362 L 932 1372" fill="none" stroke="#5a6675" stroke-width="1.3" marker-end="url(#arr)"/>
<text x="1150" y="657.5" font-size="11.5" text-anchor="middle" fill="#3a4553" font-style="italic" stroke="#ffffff" stroke-width="2.5" paint-order="stroke" stroke-linejoin="round">Browsing</text>
<text x="1150" y="672" font-size="11.5" text-anchor="middle" fill="#3a4553" font-style="italic" stroke="#ffffff" stroke-width="2.5" paint-order="stroke" stroke-linejoin="round">events</text>
<text x="1150" y="686.5" font-size="9" text-anchor="middle" fill="#79828f" stroke="#ffffff" stroke-width="2.5" paint-order="stroke" stroke-linejoin="round">(streaming, avro)</text>
<path d="M 921 114 L 921 183 L 1017 183 L 1016.5 1107 L 1016.5 1139" fill="none" stroke="#5a6675" stroke-width="1.3" marker-end="url(#arr)"/>
<text x="1058.5" y="604.5" font-size="11.5" text-anchor="middle" fill="#3a4553" font-style="italic" stroke="#ffffff" stroke-width="2.5" paint-order="stroke" stroke-linejoin="round">Reconcile</text>
<text x="1058.5" y="619" font-size="11.5" text-anchor="middle" fill="#3a4553" font-style="italic" stroke="#ffffff" stroke-width="2.5" paint-order="stroke" stroke-linejoin="round">collections</text>
<path d="M 556 1319 L 556 729 L 688 729 L 687.6666666666666 749 L 687.6666666666666 781" fill="none" stroke="#5a6675" stroke-width="1.3" marker-end="url(#arr)"/>
<text x="486.5" y="1025.5" font-size="11.5" text-anchor="middle" fill="#3a4553" font-style="italic" stroke="#ffffff" stroke-width="2.5" paint-order="stroke" stroke-linejoin="round">Accounting logistics</text>
<text x="486.5" y="1040" font-size="11.5" text-anchor="middle" fill="#3a4553" font-style="italic" stroke="#ffffff" stroke-width="2.5" paint-order="stroke" stroke-linejoin="round">statuses</text>
<text x="486.5" y="1054.5" font-size="9" text-anchor="middle" fill="#79828f" stroke="#ffffff" stroke-width="2.5" paint-order="stroke" stroke-linejoin="round">(MQ, JSON)</text>
<line x1="20" y1="1524" x2="1189" y2="1524" stroke="#e6e9ee" stroke-width="1"/>
<text x="20" y="1546" font-size="11" font-weight="bold" fill="#3a4553">BUSINESS OBJECTS</text>
<rect x="150" y="1536" width="43" height="15" rx="7.5" fill="#fff2d4" stroke="#d3a01f"/>
<text x="171.5" y="1547" font-size="9.5" text-anchor="middle" fill="#6a5111" font-weight="bold">Order</text>
<text x="203" y="1547" font-size="10" fill="#79828f">— validated cart, tracked until delivery</text>
<rect x="150" y="1560" width="54" height="15" rx="7.5" fill="#fff2d4" stroke="#d3a01f"/>
<text x="177" y="1571" font-size="9.5" text-anchor="middle" fill="#6a5111" font-weight="bold">Payment</text>
<text x="214" y="1571" font-size="10" fill="#79828f">— financial transaction tied to an order</text>
<rect x="150" y="1584" width="54" height="15" rx="7.5" fill="#fff2d4" stroke="#d3a01f"/>
<text x="177" y="1595" font-size="9.5" text-anchor="middle" fill="#6a5111" font-weight="bold">Product</text>
<text x="214" y="1595" font-size="10" fill="#79828f">— item published to the catalog</text>
<line x1="20" y1="1622" x2="1189" y2="1622" stroke="#e6e9ee" stroke-width="1"/>
<text x="20" y="1644" font-size="11" font-weight="bold" fill="#3a4553">LEGEND</text>
<rect x="150" y="1634" width="26" height="14" rx="3" fill="#e9f2fb" stroke="#1f77b4" stroke-dasharray="5 3"/>
<text x="182" y="1645" font-size="10" fill="#17202c">Actor group</text>
<rect x="272" y="1634" width="26" height="14" rx="3" fill="#e9f3fa" stroke="#2f83b6"/>
<text x="304" y="1645" font-size="10" fill="#17202c">Application</text>
<rect x="394" y="1634" width="26" height="14" rx="3" fill="#ffffff" stroke="#48546a"/>
<text x="426" y="1645" font-size="10" fill="#17202c">Application module</text>
<rect x="552" y="1634" width="26" height="14" rx="3" fill="#f4edf8" stroke="#8a53a8"/>
<text x="584" y="1645" font-size="10" fill="#17202c">Datastore / registry</text>
<rect x="720" y="1634" width="26" height="14" rx="3" fill="#f4eff8" stroke="#8659a6" stroke-dasharray="5 3"/>
<text x="752" y="1645" font-size="10" fill="#17202c">External system</text>
<line x1="150" y1="1664" x2="176" y2="1664" stroke="#5a6675" stroke-width="1.3" marker-end="url(#arr)"/>
<text x="182" y="1668" font-size="10" fill="#17202c">Application flow — (protocol, format) under the label</text>
<rect x="480" y="1657" width="96" height="15" rx="7.5" fill="#fff2d4" stroke="#d3a01f"/>
<text x="528" y="1668" font-size="9.5" text-anchor="middle" fill="#6a5111" font-weight="bold">Business object</text>
<text x="584" y="1668" font-size="10" fill="#17202c">carried by the flow</text>
</svg>
