<svg xmlns="http://www.w3.org/2000/svg" viewBox="0 0 1144 1647" font-family="Helvetica,Arial,sans-serif">
<defs><marker id="arr" viewBox="0 0 10 10" refX="9" refY="5" markerWidth="7" markerHeight="7" orient="auto-start-reverse">
<path d="M0,0 L10,5 L0,10 z" fill="#444444"/></marker></defs>
<rect width="1144" height="1647" fill="white"/>
<rect x="557" y="22" width="333" height="105" rx="6" fill="#eef4fb" stroke="#7a9cc4" stroke-width="1.2" stroke-dasharray="5 3"/>
<text x="567" y="40" font-size="12" font-weight="bold" fill="#333">Internal teams</text>
<rect x="526" y="408" width="351.6666666666667" height="203.5" rx="6" fill="#e8f1f8" stroke="#5b8db8" stroke-width="1.2"/>
<text x="536" y="426" font-size="12" font-weight="bold" fill="#333">Sales front</text>
<rect x="496" y="731" width="338.6666666666667" height="222.5" rx="6" fill="#e8f1f8" stroke="#5b8db8" stroke-width="1.2"/>
<text x="506" y="749" font-size="12" font-weight="bold" fill="#333">Order management</text>
<rect x="680" y="200" width="264" height="86" rx="6" fill="#e8f1f8" stroke="#5b8db8" stroke-width="1.2"/>
<text x="690" y="218" font-size="12" font-weight="bold" fill="#333">Product repository</text>
<rect x="537" y="219" width="132" height="86" rx="6" fill="#e8f1f8" stroke="#5b8db8" stroke-width="1.2"/>
<text x="547" y="237" font-size="12" font-weight="bold" fill="#333">Pricing</text>
<rect x="809" y="1063" width="177" height="227" rx="6" fill="#e8f1f8" stroke="#5b8db8" stroke-width="1.2"/>
<text x="819" y="1081" font-size="12" font-weight="bold" fill="#333">Payment hub</text>
<rect x="112" y="1047" width="264" height="86" rx="6" fill="#e8f1f8" stroke="#5b8db8" stroke-width="1.2"/>
<text x="122" y="1065" font-size="12" font-weight="bold" fill="#333">Customer care</text>
<circle cx="745.5" cy="60" r="7" fill="none" stroke="#445566" stroke-width="1.5"/>
<path d="M 734.5 82 q 11 -19 22 0" fill="none" stroke="#445566" stroke-width="1.5"/>
<text x="745.5" y="94" font-size="10" text-anchor="middle" fill="#223344">Merchandising</text>
<text x="745.5" y="105" font-size="10" text-anchor="middle" fill="#223344">manager</text>
<circle cx="624.5" cy="60" r="7" fill="none" stroke="#445566" stroke-width="1.5"/>
<path d="M 613.5 82 q 11 -19 22 0" fill="none" stroke="#445566" stroke-width="1.5"/>
<text x="624.5" y="94" font-size="10" text-anchor="middle" fill="#223344">Customer-relations</text>
<text x="624.5" y="105" font-size="10" text-anchor="middle" fill="#223344">advisor</text>
<circle cx="844.5" cy="71" r="7" fill="none" stroke="#445566" stroke-width="1.5"/>
<path d="M 833.5 93 q 11 -19 22 0" fill="none" stroke="#445566" stroke-width="1.5"/>
<text x="844.5" y="105" font-size="10" text-anchor="middle" fill="#223344">Accountant</text>
<rect x="755.6666666666667" y="436" width="112" height="48" rx="4" fill="#ffffff" stroke="#5b7a99" stroke-width="1.3"/>
<text x="811.6666666666667" y="457.25" font-size="11.5" text-anchor="middle" fill="#222233">E-commerce</text>
<text x="811.6666666666667" y="470.75" font-size="11.5" text-anchor="middle" fill="#222233">site</text>
<rect x="569" y="436" width="112" height="48" rx="4" fill="#ffffff" stroke="#5b7a99" stroke-width="1.3"/>
<text x="625" y="457.25" font-size="11.5" text-anchor="middle" fill="#222233">Mobile</text>
<text x="625" y="470.75" font-size="11.5" text-anchor="middle" fill="#222233">app</text>
<rect x="635" y="553.5" width="112" height="48" rx="4" fill="#ffffff" stroke="#5b7a99" stroke-width="1.3"/>
<text x="691" y="574.75" font-size="11.5" text-anchor="middle" fill="#222233">Checkout</text>
<text x="691" y="588.25" font-size="11.5" text-anchor="middle" fill="#222233">funnel</text>
<rect x="580.6666666666667" y="759" width="112" height="48" rx="4" fill="#ffffff" stroke="#5b7a99" stroke-width="1.3"/>
<text x="636.6666666666667" y="780.25" font-size="11.5" text-anchor="middle" fill="#222233">Order</text>
<text x="636.6666666666667" y="793.75" font-size="11.5" text-anchor="middle" fill="#222233">lifecycle</text>
<rect x="533.3333333333334" y="895.5" width="112" height="48" rx="4" fill="#ffffff" stroke="#5b7a99" stroke-width="1.3"/>
<text x="589.3333333333334" y="916.75" font-size="11.5" text-anchor="middle" fill="#222233">Shipment</text>
<text x="589.3333333333334" y="930.25" font-size="11.5" text-anchor="middle" fill="#222233">orchestration</text>
<rect x="712.6666666666667" y="759" width="112" height="48" rx="4" fill="#ffffff" stroke="#5b7a99" stroke-width="1.3"/>
<text x="768.6666666666667" y="780.25" font-size="11.5" text-anchor="middle" fill="#222233">Returns and</text>
<text x="768.6666666666667" y="793.75" font-size="11.5" text-anchor="middle" fill="#222233">refunds</text>
<rect x="690" y="228" width="112" height="48" rx="4" fill="#ffffff" stroke="#5b7a99" stroke-width="1.3"/>
<text x="746" y="249.25" font-size="11.5" text-anchor="middle" fill="#222233">Catalog</text>
<text x="746" y="262.75" font-size="11.5" text-anchor="middle" fill="#222233">management</text>
<rect x="822" y="228" width="112" height="48" rx="4" fill="#ffffff" stroke="#5b7a99" stroke-width="1.3"/>
<text x="878" y="249.25" font-size="11.5" text-anchor="middle" fill="#222233">Media</text>
<text x="878" y="262.75" font-size="11.5" text-anchor="middle" fill="#222233">management</text>
<rect x="547" y="247" width="112" height="48" rx="4" fill="#ffffff" stroke="#5b7a99" stroke-width="1.3"/>
<text x="603" y="268.25" font-size="11.5" text-anchor="middle" fill="#222233">Pricing-rule</text>
<text x="603" y="281.75" font-size="11.5" text-anchor="middle" fill="#222233">engine</text>
<rect x="864" y="1091" width="112" height="48" rx="4" fill="#ffffff" stroke="#5b7a99" stroke-width="1.3"/>
<text x="920" y="1112.25" font-size="11.5" text-anchor="middle" fill="#222233">Payment</text>
<text x="920" y="1125.75" font-size="11.5" text-anchor="middle" fill="#222233">orchestration</text>
<rect x="836" y="1232" width="112" height="48" rx="4" fill="#ffffff" stroke="#5b7a99" stroke-width="1.3"/>
<text x="892" y="1253.25" font-size="11.5" text-anchor="middle" fill="#222233">Anti-fraud</text>
<text x="892" y="1266.75" font-size="11.5" text-anchor="middle" fill="#222233">scoring</text>
<rect x="254" y="1075" width="112" height="48" rx="4" fill="#ffffff" stroke="#5b7a99" stroke-width="1.3"/>
<text x="310" y="1096.25" font-size="11.5" text-anchor="middle" fill="#222233">Ticket</text>
<text x="310" y="1109.75" font-size="11.5" text-anchor="middle" fill="#222233">management</text>
<rect x="122" y="1075" width="112" height="48" rx="4" fill="#ffffff" stroke="#5b7a99" stroke-width="1.3"/>
<text x="178" y="1096.25" font-size="11.5" text-anchor="middle" fill="#222233">Customer</text>
<text x="178" y="1109.75" font-size="11.5" text-anchor="middle" fill="#222233">self-care</text>
<path d="M 801 1332 v 34 a 56 7 0 0 0 112 0 v -34" fill="#f3eef8" stroke="#8a6fae" stroke-width="1.3"/>
<ellipse cx="857" cy="1332" rx="56" ry="7" fill="#f3eef8" stroke="#8a6fae" stroke-width="1.3"/>
<text x="857" y="1349.75" font-size="11.5" text-anchor="middle" fill="#222233">Data</text>
<text x="857" y="1363.25" font-size="11.5" text-anchor="middle" fill="#222233">warehouse</text>
<path d="M 153 1224 v 34 a 56 7 0 0 0 112 0 v -34" fill="#f3eef8" stroke="#8a6fae" stroke-width="1.3"/>
<ellipse cx="209" cy="1224" rx="56" ry="7" fill="#f3eef8" stroke="#8a6fae" stroke-width="1.3"/>
<text x="209" y="1241.75" font-size="11.5" text-anchor="middle" fill="#222233">Customer</text>
<text x="209" y="1255.25" font-size="11.5" text-anchor="middle" fill="#222233">repository</text>
<rect x="752" y="1417" width="112" height="40" rx="4" fill="#f0eef5" stroke="#9187b3" stroke-width="1.2" stroke-dasharray="5 3"/>
<text x="808" y="1441" font-size="11.5" text-anchor="middle" fill="#222233">PSP</text>
<rect x="533" y="1048" width="112" height="48" rx="4" fill="#f0eef5" stroke="#9187b3" stroke-width="1.2" stroke-dasharray="5 3"/>
<text x="589" y="1069.25" font-size="11.5" text-anchor="middle" fill="#222233">Carrier</text>
<text x="589" y="1082.75" font-size="11.5" text-anchor="middle" fill="#222233">platforms</text>
<rect x="388" y="1285" width="112" height="48" rx="4" fill="#f0eef5" stroke="#9187b3" stroke-width="1.2" stroke-dasharray="5 3"/>
<text x="444" y="1306.25" font-size="11.5" text-anchor="middle" fill="#222233">Group</text>
<text x="444" y="1319.75" font-size="11.5" text-anchor="middle" fill="#222233">ERP</text>
<path d="M 745.5 117 L 746 132 L 746 228" fill="none" stroke="#444444" stroke-width="1.3" marker-end="url(#arr)"/>
<text x="699.5" y="159.5" font-size="10.5" text-anchor="middle" fill="#333" font-style="italic" stroke="white" stroke-width="2.5" paint-order="stroke" stroke-linejoin="round">Enrich product</text>
<text x="699.5" y="173" font-size="10.5" text-anchor="middle" fill="#333" font-style="italic" stroke="white" stroke-width="2.5" paint-order="stroke" stroke-linejoin="round">pages</text>
<path d="M 746 276 L 746 301 L 812 301 L 811.6666666666667 403 L 811.6666666666667 436" fill="none" stroke="#444444" stroke-width="1.3" marker-end="url(#arr)"/>
<text x="766.5" y="322.5" font-size="10.5" text-anchor="middle" fill="#333" font-style="italic" stroke="white" stroke-width="2.5" paint-order="stroke" stroke-linejoin="round">Publish the</text>
<text x="766.5" y="336" font-size="10.5" text-anchor="middle" fill="#333" font-style="italic" stroke="white" stroke-width="2.5" paint-order="stroke" stroke-linejoin="round">catalog</text>
<text x="766.5" y="349.5" font-size="9" text-anchor="middle" fill="#777" stroke="white" stroke-width="2.5" paint-order="stroke" stroke-linejoin="round">(API_REST, JSON)</text>
<rect x="739.5" y="356" width="54" height="15" rx="7.5" fill="#fdf3d8" stroke="#c9a227" stroke-width="1"/>
<text x="766.5" y="367" font-size="9.5" text-anchor="middle" fill="#7a6216" font-weight="bold">Product</text>
<path d="M 878 276 L 878 301 L 840 301 L 839.6666666666667 403 L 839.6666666666667 436" fill="none" stroke="#444444" stroke-width="1.3" marker-end="url(#arr)"/>
<text x="890.5" y="322.5" font-size="10.5" text-anchor="middle" fill="#333" font-style="italic" stroke="white" stroke-width="2.5" paint-order="stroke" stroke-linejoin="round">Product visuals</text>
<text x="890.5" y="336" font-size="9" text-anchor="middle" fill="#777" stroke="white" stroke-width="2.5" paint-order="stroke" stroke-linejoin="round">(CDN, HTTPS)</text>
<path d="M 621.6666666666666 295 L 622 310 L 622 383 L 784 383 L 783.6666666666667 403 L 783.6666666666667 436" fill="none" stroke="#444444" stroke-width="1.3" marker-end="url(#arr)"/>
<text x="669.5" y="337.5" font-size="10.5" text-anchor="middle" fill="#333" font-style="italic" stroke="white" stroke-width="2.5" paint-order="stroke" stroke-linejoin="round">Current prices</text>
<text x="669.5" y="351" font-size="9" text-anchor="middle" fill="#777" stroke="white" stroke-width="2.5" paint-order="stroke" stroke-linejoin="round">(API_REST, JSON)</text>
<path d="M 584.3333333333334 295 L 584 310 L 584 393 L 691 393 L 691 553.5" fill="none" stroke="#444444" stroke-width="1.3" marker-end="url(#arr)"/>
<text x="538.5" y="337.5" font-size="10.5" text-anchor="middle" fill="#333" font-style="italic" stroke="white" stroke-width="2.5" paint-order="stroke" stroke-linejoin="round">Prices</text>
<text x="538.5" y="351" font-size="10.5" text-anchor="middle" fill="#333" font-style="italic" stroke="white" stroke-width="2.5" paint-order="stroke" stroke-linejoin="round">guaranteed at</text>
<text x="538.5" y="364.5" font-size="10.5" text-anchor="middle" fill="#333" font-style="italic" stroke="white" stroke-width="2.5" paint-order="stroke" stroke-linejoin="round">cart</text>
<text x="538.5" y="378" font-size="9" text-anchor="middle" fill="#777" stroke="white" stroke-width="2.5" paint-order="stroke" stroke-linejoin="round">(API_REST, JSON)</text>
<path d="M 425 1285 L 425 1275 L 101 1275 L 101 204 L 273 204 A 5 5 0 0 1 283 204 L 603 204 L 603 247" fill="none" stroke="#444444" stroke-width="1.3" marker-end="url(#arr)"/>
<text x="54.5" y="225.5" font-size="10.5" text-anchor="middle" fill="#333" font-style="italic" stroke="white" stroke-width="2.5" paint-order="stroke" stroke-linejoin="round">Reference</text>
<text x="54.5" y="239" font-size="10.5" text-anchor="middle" fill="#333" font-style="italic" stroke="white" stroke-width="2.5" paint-order="stroke" stroke-linejoin="round">purchase costs</text>
<text x="54.5" y="252.5" font-size="9" text-anchor="middle" fill="#777" stroke="white" stroke-width="2.5" paint-order="stroke" stroke-linejoin="round">(SFTP, CSV)</text>
<path d="M 793 484 L 793 543.5 L 719 543.5 L 719 553.5" fill="none" stroke="#444444" stroke-width="1.3" marker-end="url(#arr)"/>
<text x="746.5" y="515.5" font-size="10.5" text-anchor="middle" fill="#333" font-style="italic" stroke="white" stroke-width="2.5" paint-order="stroke" stroke-linejoin="round">Go to checkout</text>
<text x="746.5" y="529" font-size="9" text-anchor="middle" fill="#777" stroke="white" stroke-width="2.5" paint-order="stroke" stroke-linejoin="round">(internal)</text>
<path d="M 625 484 L 625 543.5 L 663 543.5 L 663 553.5" fill="none" stroke="#444444" stroke-width="1.3" marker-end="url(#arr)"/>
<text x="579.5" y="515.5" font-size="10.5" text-anchor="middle" fill="#333" font-style="italic" stroke="white" stroke-width="2.5" paint-order="stroke" stroke-linejoin="round">Mobile cart</text>
<text x="579.5" y="529" font-size="9" text-anchor="middle" fill="#777" stroke="white" stroke-width="2.5" paint-order="stroke" stroke-linejoin="round">(API_REST, JSON)</text>
<path d="M 672.3333333333333 601.5 L 672 616.5 L 672 627 L 637 627 L 636.6666666666667 726 L 636.6666666666667 759" fill="none" stroke="#444444" stroke-width="1.3" marker-end="url(#arr)"/>
<text x="584.5" y="648.5" font-size="10.5" text-anchor="middle" fill="#333" font-style="italic" stroke="white" stroke-width="2.5" paint-order="stroke" stroke-linejoin="round">Create the order</text>
<text x="584.5" y="662" font-size="9" text-anchor="middle" fill="#777" stroke="white" stroke-width="2.5" paint-order="stroke" stroke-linejoin="round">(MQ, JSON)</text>
<rect x="563" y="668.5" width="43" height="15" rx="7.5" fill="#fdf3d8" stroke="#c9a227" stroke-width="1"/>
<text x="584.5" y="679.5" font-size="9.5" text-anchor="middle" fill="#7a6216" font-weight="bold">Order</text>
<path d="M 709.6666666666666 601.5 L 710 616.5 L 710 637 L 943 637 L 943 969 L 931 969 L 931.1999999999999 1058 L 931.1999999999999 1091" fill="none" stroke="#444444" stroke-width="1.3" marker-end="url(#arr)"/>
<text x="893.5" y="921.5" font-size="10.5" text-anchor="middle" fill="#333" font-style="italic" stroke="white" stroke-width="2.5" paint-order="stroke" stroke-linejoin="round">Payment request</text>
<text x="893.5" y="935" font-size="9" text-anchor="middle" fill="#777" stroke="white" stroke-width="2.5" paint-order="stroke" stroke-linejoin="round">(API_REST, JSON)</text>
<rect x="866.5" y="941.5" width="54" height="15" rx="7.5" fill="#fdf3d8" stroke="#c9a227" stroke-width="1"/>
<text x="893.5" y="952.5" font-size="9.5" text-anchor="middle" fill="#7a6216" font-weight="bold">Payment</text>
<path d="M 892 1139 L 892 1232" fill="none" stroke="#444444" stroke-width="1.3" marker-end="url(#arr)"/>
<text x="854.5" y="1180.5" font-size="10.5" text-anchor="middle" fill="#333" font-style="italic" stroke="white" stroke-width="2.5" paint-order="stroke" stroke-linejoin="round">Score the</text>
<text x="854.5" y="1194" font-size="10.5" text-anchor="middle" fill="#333" font-style="italic" stroke="white" stroke-width="2.5" paint-order="stroke" stroke-linejoin="round">transaction</text>
<text x="854.5" y="1207.5" font-size="9" text-anchor="middle" fill="#777" stroke="white" stroke-width="2.5" paint-order="stroke" stroke-linejoin="round">(internal)</text>
<path d="M 920 1139 L 920 1159 L 958 1159 L 958 1325 L 924 1325 L 924 1407 L 827 1407 L 827 1417" fill="none" stroke="#444444" stroke-width="1.3" marker-end="url(#arr)"/>
<text x="970.5" y="1346.5" font-size="10.5" text-anchor="middle" fill="#333" font-style="italic" stroke="white" stroke-width="2.5" paint-order="stroke" stroke-linejoin="round">Authorization</text>
<text x="970.5" y="1360" font-size="10.5" text-anchor="middle" fill="#333" font-style="italic" stroke="white" stroke-width="2.5" paint-order="stroke" stroke-linejoin="round">and capture</text>
<text x="970.5" y="1373.5" font-size="9" text-anchor="middle" fill="#777" stroke="white" stroke-width="2.5" paint-order="stroke" stroke-linejoin="round">(API_REST, JSON)</text>
<rect x="943.5" y="1380" width="54" height="15" rx="7.5" fill="#fdf3d8" stroke="#c9a227" stroke-width="1"/>
<text x="970.5" y="1391" font-size="9.5" text-anchor="middle" fill="#7a6216" font-weight="bold">Payment</text>
<path d="M 789 1417 L 789 1048 L 793 1048 A 5 5 0 0 1 803 1048 L 886 1048 L 886.4 1058 L 886.4 1091" fill="none" stroke="#444444" stroke-width="1.3" marker-end="url(#arr)"/>
<text x="746" y="1069.5" font-size="10.5" text-anchor="middle" fill="#333" font-style="italic" stroke="white" stroke-width="2.5" paint-order="stroke" stroke-linejoin="round">Transaction</text>
<text x="746" y="1083" font-size="10.5" text-anchor="middle" fill="#333" font-style="italic" stroke="white" stroke-width="2.5" paint-order="stroke" stroke-linejoin="round">status</text>
<text x="746" y="1096.5" font-size="9" text-anchor="middle" fill="#777" stroke="white" stroke-width="2.5" paint-order="stroke" stroke-linejoin="round">(webhook, JSON)</text>
<path d="M 948 1139 L 948 1149 L 969 1149 L 969 1305 L 1026 1305 L 1026 716 L 959 716 A 5 5 0 0 0 949 716 L 948 716 A 5 5 0 0 0 938 716 L 774 716 A 5 5 0 0 0 764 716 L 665 716 L 664.6666666666667 726 L 664.6666666666667 759" fill="none" stroke="#444444" stroke-width="1.3" marker-end="url(#arr)"/>
<text x="994.5" y="1010.5" font-size="10.5" text-anchor="middle" fill="#333" font-style="italic" stroke="white" stroke-width="2.5" paint-order="stroke" stroke-linejoin="round">Payment</text>
<text x="994.5" y="1024" font-size="10.5" text-anchor="middle" fill="#333" font-style="italic" stroke="white" stroke-width="2.5" paint-order="stroke" stroke-linejoin="round">confirmed</text>
<text x="994.5" y="1037.5" font-size="9" text-anchor="middle" fill="#777" stroke="white" stroke-width="2.5" paint-order="stroke" stroke-linejoin="round">(MQ, JSON)</text>
<path d="M 618 807 L 618 817 L 608 817 L 608 895.5" fill="none" stroke="#444444" stroke-width="1.3" marker-end="url(#arr)"/>
<text x="561.5" y="838.5" font-size="10.5" text-anchor="middle" fill="#333" font-style="italic" stroke="white" stroke-width="2.5" paint-order="stroke" stroke-linejoin="round">Orders to ship</text>
<text x="561.5" y="852" font-size="9" text-anchor="middle" fill="#777" stroke="white" stroke-width="2.5" paint-order="stroke" stroke-linejoin="round">(internal)</text>
<rect x="540" y="858.5" width="43" height="15" rx="7.5" fill="#fdf3d8" stroke="#c9a227" stroke-width="1"/>
<text x="561.5" y="869.5" font-size="9.5" text-anchor="middle" fill="#7a6216" font-weight="bold">Order</text>
<path d="M 608 943.5 L 608 1048" fill="none" stroke="#444444" stroke-width="1.3" marker-end="url(#arr)"/>
<text x="654.5" y="1000.5" font-size="10.5" text-anchor="middle" fill="#333" font-style="italic" stroke="white" stroke-width="2.5" paint-order="stroke" stroke-linejoin="round">Labels and</text>
<text x="654.5" y="1014" font-size="10.5" text-anchor="middle" fill="#333" font-style="italic" stroke="white" stroke-width="2.5" paint-order="stroke" stroke-linejoin="round">pickups</text>
<text x="654.5" y="1027.5" font-size="9" text-anchor="middle" fill="#777" stroke="white" stroke-width="2.5" paint-order="stroke" stroke-linejoin="round">(API_REST, JSON)</text>
<path d="M 570 1048 L 570 992 L 486 992 L 486 716 L 506 716 L 506.00000000000006 885.5 L 570.6666666666667 885.5 L 570.6666666666667 895.5" fill="none" stroke="#444444" stroke-width="1.3" marker-end="url(#arr)"/>
<text x="520.5" y="1013.5" font-size="10.5" text-anchor="middle" fill="#333" font-style="italic" stroke="white" stroke-width="2.5" paint-order="stroke" stroke-linejoin="round">Parcel tracking</text>
<text x="520.5" y="1027" font-size="9" text-anchor="middle" fill="#777" stroke="white" stroke-width="2.5" paint-order="stroke" stroke-linejoin="round">(webhook, JSON)</text>
<path d="M 570.6666666666667 943.5 L 571 958.5 L 571 969 L 491 969 A 5 5 0 0 0 481 969 L 468 969 A 5 5 0 0 0 458 969 L 391 969 A 5 5 0 0 0 381 969 L 283 969 A 5 5 0 0 0 273 969 L 267 969 L 267 1032 L 178 1032 L 178 1075" fill="none" stroke="#444444" stroke-width="1.3" marker-end="url(#arr)"/>
<text x="220.5" y="990.5" font-size="10.5" text-anchor="middle" fill="#333" font-style="italic" stroke="white" stroke-width="2.5" paint-order="stroke" stroke-linejoin="round">Customer order</text>
<text x="220.5" y="1004" font-size="10.5" text-anchor="middle" fill="#333" font-style="italic" stroke="white" stroke-width="2.5" paint-order="stroke" stroke-linejoin="round">tracking</text>
<text x="220.5" y="1017.5" font-size="9" text-anchor="middle" fill="#777" stroke="white" stroke-width="2.5" paint-order="stroke" stroke-linejoin="round">(MQ, JSON)</text>
<path d="M 624.5 117 L 625 132 L 625 194 L 278 194 L 278 1032 L 310 1032 L 310 1075" fill="none" stroke="#444444" stroke-width="1.3" marker-end="url(#arr)"/>
<text x="313.5" y="939.5" font-size="10.5" text-anchor="middle" fill="#333" font-style="italic" stroke="white" stroke-width="2.5" paint-order="stroke" stroke-linejoin="round">Handle</text>
<text x="313.5" y="953" font-size="10.5" text-anchor="middle" fill="#333" font-style="italic" stroke="white" stroke-width="2.5" paint-order="stroke" stroke-linejoin="round">complaints</text>
<path d="M 310 1123 L 310 1148 L 386 1148 L 386 696 L 632 696 A 5 5 0 0 1 642 696 L 769 696 L 768.6666666666667 726 L 768.6666666666667 759" fill="none" stroke="#444444" stroke-width="1.3" marker-end="url(#arr)"/>
<text x="336.5" y="990.5" font-size="10.5" text-anchor="middle" fill="#333" font-style="italic" stroke="white" stroke-width="2.5" paint-order="stroke" stroke-linejoin="round">Approved return</text>
<text x="336.5" y="1004" font-size="10.5" text-anchor="middle" fill="#333" font-style="italic" stroke="white" stroke-width="2.5" paint-order="stroke" stroke-linejoin="round">requests</text>
<text x="336.5" y="1017.5" font-size="9" text-anchor="middle" fill="#777" stroke="white" stroke-width="2.5" paint-order="stroke" stroke-linejoin="round">(API_REST, JSON)</text>
<path d="M 768.6666666666667 807 L 769 958.5 L 769 969 L 909 969 L 908.8 1058 L 908.8 1091" fill="none" stroke="#444444" stroke-width="1.3" marker-end="url(#arr)"/>
<text x="865.5" y="990.5" font-size="10.5" text-anchor="middle" fill="#333" font-style="italic" stroke="white" stroke-width="2.5" paint-order="stroke" stroke-linejoin="round">Refund orders</text>
<text x="865.5" y="1004" font-size="9" text-anchor="middle" fill="#777" stroke="white" stroke-width="2.5" paint-order="stroke" stroke-linejoin="round">(MQ, JSON)</text>
<rect x="838.5" y="1010.5" width="54" height="15" rx="7.5" fill="#fdf3d8" stroke="#c9a227" stroke-width="1"/>
<text x="865.5" y="1021.5" font-size="9.5" text-anchor="middle" fill="#7a6216" font-weight="bold">Payment</text>
<path d="M 178 1123 L 178 1148 L 209 1148 L 209 1217" fill="none" stroke="#444444" stroke-width="1.3" marker-end="url(#arr)"/>
<text x="159.5" y="1169.5" font-size="10.5" text-anchor="middle" fill="#333" font-style="italic" stroke="white" stroke-width="2.5" paint-order="stroke" stroke-linejoin="round">Update customer</text>
<text x="159.5" y="1183" font-size="10.5" text-anchor="middle" fill="#333" font-style="italic" stroke="white" stroke-width="2.5" paint-order="stroke" stroke-linejoin="round">profile</text>
<text x="159.5" y="1196.5" font-size="9" text-anchor="middle" fill="#777" stroke="white" stroke-width="2.5" paint-order="stroke" stroke-linejoin="round">(JDBC)</text>
<path d="M 655.3333333333334 807 L 655 958.5 L 655 979 L 798 979 L 798 1305 L 838 1305 L 838 1325" fill="none" stroke="#444444" stroke-width="1.3" marker-end="url(#arr)"/>
<text x="751.5" y="1000.5" font-size="10.5" text-anchor="middle" fill="#333" font-style="italic" stroke="white" stroke-width="2.5" paint-order="stroke" stroke-linejoin="round">Archive orders</text>
<text x="751.5" y="1014" font-size="9" text-anchor="middle" fill="#777" stroke="white" stroke-width="2.5" paint-order="stroke" stroke-linejoin="round">(batch, parquet)</text>
<rect x="730" y="1020.5" width="43" height="15" rx="7.5" fill="#fdf3d8" stroke="#c9a227" stroke-width="1"/>
<text x="751.5" y="1031.5" font-size="9.5" text-anchor="middle" fill="#7a6216" font-weight="bold">Order</text>
<path d="M 830.3333333333334 484 L 830 616.5 L 830 627 L 949 627 A 5 5 0 0 1 959 627 L 1133 627 L 1133 1315 L 963 1315 A 5 5 0 0 0 953 1315 L 876 1315 L 876 1325" fill="none" stroke="#444444" stroke-width="1.3" marker-end="url(#arr)"/>
<text x="1083.5" y="648.5" font-size="10.5" text-anchor="middle" fill="#333" font-style="italic" stroke="white" stroke-width="2.5" paint-order="stroke" stroke-linejoin="round">Browsing events</text>
<text x="1083.5" y="662" font-size="9" text-anchor="middle" fill="#777" stroke="white" stroke-width="2.5" paint-order="stroke" stroke-linejoin="round">(streaming, avro)</text>
<path d="M 844.5 117 L 845 132 L 845 185 L 954 185 L 953.5999999999999 1058 L 953.5999999999999 1091" fill="none" stroke="#444444" stroke-width="1.3" marker-end="url(#arr)"/>
<text x="992.5" y="597.5" font-size="10.5" text-anchor="middle" fill="#333" font-style="italic" stroke="white" stroke-width="2.5" paint-order="stroke" stroke-linejoin="round">Reconcile</text>
<text x="992.5" y="611" font-size="10.5" text-anchor="middle" fill="#333" font-style="italic" stroke="white" stroke-width="2.5" paint-order="stroke" stroke-linejoin="round">collections</text>
<path d="M 463 1285 L 463 706 L 609 706 L 608.6666666666667 726 L 608.6666666666667 759" fill="none" stroke="#444444" stroke-width="1.3" marker-end="url(#arr)"/>
<text x="428.5" y="1219.5" font-size="10.5" text-anchor="middle" fill="#333" font-style="italic" stroke="white" stroke-width="2.5" paint-order="stroke" stroke-linejoin="round">Accounting</text>
<text x="428.5" y="1233" font-size="10.5" text-anchor="middle" fill="#333" font-style="italic" stroke="white" stroke-width="2.5" paint-order="stroke" stroke-linejoin="round">logistics</text>
<text x="428.5" y="1246.5" font-size="10.5" text-anchor="middle" fill="#333" font-style="italic" stroke="white" stroke-width="2.5" paint-order="stroke" stroke-linejoin="round">statuses</text>
<text x="428.5" y="1260" font-size="9" text-anchor="middle" fill="#777" stroke="white" stroke-width="2.5" paint-order="stroke" stroke-linejoin="round">(MQ, JSON)</text>
<line x1="20" y1="1477" x2="1124" y2="1477" stroke="#ddd" stroke-width="1"/>
<text x="20" y="1499" font-size="11" font-weight="bold" fill="#555">BUSINESS OBJECTS</text>
<rect x="150" y="1489" width="43" height="15" rx="7.5" fill="#fdf3d8" stroke="#c9a227"/>
<text x="171.5" y="1500" font-size="9.5" text-anchor="middle" fill="#7a6216" font-weight="bold">Order</text>
<text x="203" y="1500" font-size="10" fill="#666">— validated cart, tracked until delivery</text>
<rect x="150" y="1513" width="54" height="15" rx="7.5" fill="#fdf3d8" stroke="#c9a227"/>
<text x="177" y="1524" font-size="9.5" text-anchor="middle" fill="#7a6216" font-weight="bold">Payment</text>
<text x="214" y="1524" font-size="10" fill="#666">— financial transaction tied to an order</text>
<rect x="150" y="1537" width="54" height="15" rx="7.5" fill="#fdf3d8" stroke="#c9a227"/>
<text x="177" y="1548" font-size="9.5" text-anchor="middle" fill="#7a6216" font-weight="bold">Product</text>
<text x="214" y="1548" font-size="10" fill="#666">— item published to the catalog</text>
<line x1="20" y1="1575" x2="1124" y2="1575" stroke="#ddd" stroke-width="1"/>
<text x="20" y="1597" font-size="11" font-weight="bold" fill="#555">LEGEND</text>
<rect x="150" y="1587" width="26" height="14" rx="3" fill="#eef4fb" stroke="#7a9cc4" stroke-dasharray="5 3"/>
<text x="182" y="1598" font-size="10" fill="#444">Actor group</text>
<rect x="272" y="1587" width="26" height="14" rx="3" fill="#e8f1f8" stroke="#5b8db8"/>
<text x="304" y="1598" font-size="10" fill="#444">Application</text>
<rect x="394" y="1587" width="26" height="14" rx="3" fill="#ffffff" stroke="#5b7a99"/>
<text x="426" y="1598" font-size="10" fill="#444">Application module</text>
<rect x="552" y="1587" width="26" height="14" rx="3" fill="#f3eef8" stroke="#8a6fae"/>
<text x="584" y="1598" font-size="10" fill="#444">Datastore / registry</text>
<rect x="720" y="1587" width="26" height="14" rx="3" fill="#f0eef5" stroke="#9187b3" stroke-dasharray="5 3"/>
<text x="752" y="1598" font-size="10" fill="#444">External system</text>
<line x1="150" y1="1617" x2="176" y2="1617" stroke="#444444" stroke-width="1.3" marker-end="url(#arr)"/>
<text x="182" y="1621" font-size="10" fill="#444">Application flow — (protocol, format) under the label</text>
<rect x="480" y="1610" width="96" height="15" rx="7.5" fill="#fdf3d8" stroke="#c9a227"/>
<text x="528" y="1621" font-size="9.5" text-anchor="middle" fill="#7a6216" font-weight="bold">Business object</text>
<text x="584" y="1621" font-size="10" fill="#444">carried by the flow</text>
</svg>
