<svg xmlns="http://www.w3.org/2000/svg" viewBox="0 0 2219 937" font-family="Helvetica,Arial,sans-serif">
<defs><marker id="arr" viewBox="0 0 10 10" refX="9" refY="5" markerWidth="7" markerHeight="7" orient="auto-start-reverse">
<path d="M0,0 L10,5 L0,10 z" fill="#444444"/></marker></defs>
<rect width="2219" height="937" fill="white"/>
<rect x="10" y="372" width="135" height="268" rx="6" fill="#eef4fb" stroke="#7a9cc4" stroke-width="1.2" stroke-dasharray="5 3"/>
<text x="20" y="390" font-size="12" font-weight="bold" fill="#333">Internal teams</text>
<rect x="555" y="384" width="371" height="203" rx="6" fill="#e8f1f8" stroke="#5b8db8" stroke-width="1.2"/>
<text x="565" y="402" font-size="12" font-weight="bold" fill="#333">Sales front</text>
<rect x="1061" y="354" width="343" height="192" rx="6" fill="#e8f1f8" stroke="#5b8db8" stroke-width="1.2"/>
<text x="1071" y="372" font-size="12" font-weight="bold" fill="#333">Order management</text>
<rect x="276" y="469" width="132" height="154" rx="6" fill="#e8f1f8" stroke="#5b8db8" stroke-width="1.2"/>
<text x="286" y="487" font-size="12" font-weight="bold" fill="#333">Product repository</text>
<rect x="271" y="372" width="132" height="86" rx="6" fill="#e8f1f8" stroke="#5b8db8" stroke-width="1.2"/>
<text x="281" y="390" font-size="12" font-weight="bold" fill="#333">Pricing</text>
<rect x="1541" y="497" width="385" height="130" rx="6" fill="#e8f1f8" stroke="#5b8db8" stroke-width="1.2"/>
<text x="1551" y="515" font-size="12" font-weight="bold" fill="#333">Payment hub</text>
<rect x="1539" y="79" width="132" height="154" rx="6" fill="#e8f1f8" stroke="#5b8db8" stroke-width="1.2"/>
<text x="1549" y="97" font-size="12" font-weight="bold" fill="#333">Customer care</text>
<circle cx="91.5" cy="497" r="7" fill="none" stroke="#445566" stroke-width="1.5"/>
<path d="M 80.5 519 q 11 -19 22 0" fill="none" stroke="#445566" stroke-width="1.5"/>
<text x="91.5" y="531" font-size="10" text-anchor="middle" fill="#223344">Merchandising</text>
<text x="91.5" y="542" font-size="10" text-anchor="middle" fill="#223344">manager</text>
<circle cx="77.5" cy="410" r="7" fill="none" stroke="#445566" stroke-width="1.5"/>
<path d="M 66.5 432 q 11 -19 22 0" fill="none" stroke="#445566" stroke-width="1.5"/>
<text x="77.5" y="444" font-size="10" text-anchor="middle" fill="#223344">Customer-relations</text>
<text x="77.5" y="455" font-size="10" text-anchor="middle" fill="#223344">advisor</text>
<circle cx="99.5" cy="584" r="7" fill="none" stroke="#445566" stroke-width="1.5"/>
<path d="M 88.5 606 q 11 -19 22 0" fill="none" stroke="#445566" stroke-width="1.5"/>
<text x="99.5" y="618" font-size="10" text-anchor="middle" fill="#223344">Accountant</text>
<rect x="565" y="529" width="112" height="48" rx="4" fill="#ffffff" stroke="#5b7a99" stroke-width="1.3"/>
<text x="621" y="550.25" font-size="11.5" text-anchor="middle" fill="#222233">E-commerce</text>
<text x="621" y="563.75" font-size="11.5" text-anchor="middle" fill="#222233">site</text>
<rect x="565" y="412" width="112" height="48" rx="4" fill="#ffffff" stroke="#5b7a99" stroke-width="1.3"/>
<text x="621" y="433.25" font-size="11.5" text-anchor="middle" fill="#222233">Mobile</text>
<text x="621" y="446.75" font-size="11.5" text-anchor="middle" fill="#222233">app</text>
<rect x="804" y="469" width="112" height="48" rx="4" fill="#ffffff" stroke="#5b7a99" stroke-width="1.3"/>
<text x="860" y="490.25" font-size="11.5" text-anchor="middle" fill="#222233">Checkout</text>
<text x="860" y="503.75" font-size="11.5" text-anchor="middle" fill="#222233">funnel</text>
<rect x="1071" y="409" width="112" height="48" rx="4" fill="#ffffff" stroke="#5b7a99" stroke-width="1.3"/>
<text x="1127" y="430.25" font-size="11.5" text-anchor="middle" fill="#222233">Order</text>
<text x="1127" y="443.75" font-size="11.5" text-anchor="middle" fill="#222233">lifecycle</text>
<rect x="1282" y="382" width="112" height="48" rx="4" fill="#ffffff" stroke="#5b7a99" stroke-width="1.3"/>
<text x="1338" y="403.25" font-size="11.5" text-anchor="middle" fill="#222233">Shipment</text>
<text x="1338" y="416.75" font-size="11.5" text-anchor="middle" fill="#222233">orchestration</text>
<rect x="1071" y="488" width="112" height="48" rx="4" fill="#ffffff" stroke="#5b7a99" stroke-width="1.3"/>
<text x="1127" y="509.25" font-size="11.5" text-anchor="middle" fill="#222233">Returns and</text>
<text x="1127" y="522.75" font-size="11.5" text-anchor="middle" fill="#222233">refunds</text>
<rect x="286" y="497" width="112" height="48" rx="4" fill="#ffffff" stroke="#5b7a99" stroke-width="1.3"/>
<text x="342" y="518.25" font-size="11.5" text-anchor="middle" fill="#222233">Catalog</text>
<text x="342" y="531.75" font-size="11.5" text-anchor="middle" fill="#222233">management</text>
<rect x="286" y="565" width="112" height="48" rx="4" fill="#ffffff" stroke="#5b7a99" stroke-width="1.3"/>
<text x="342" y="586.25" font-size="11.5" text-anchor="middle" fill="#222233">Media</text>
<text x="342" y="599.75" font-size="11.5" text-anchor="middle" fill="#222233">management</text>
<rect x="281" y="400" width="112" height="48" rx="4" fill="#ffffff" stroke="#5b7a99" stroke-width="1.3"/>
<text x="337" y="421.25" font-size="11.5" text-anchor="middle" fill="#222233">Pricing-rule</text>
<text x="337" y="434.75" font-size="11.5" text-anchor="middle" fill="#222233">engine</text>
<rect x="1571" y="559" width="112" height="48" rx="4" fill="#ffffff" stroke="#5b7a99" stroke-width="1.3"/>
<text x="1627" y="580.25" font-size="11.5" text-anchor="middle" fill="#222233">Payment</text>
<text x="1627" y="593.75" font-size="11.5" text-anchor="middle" fill="#222233">orchestration</text>
<rect x="1804" y="547" width="112" height="48" rx="4" fill="#ffffff" stroke="#5b7a99" stroke-width="1.3"/>
<text x="1860" y="568.25" font-size="11.5" text-anchor="middle" fill="#222233">Anti-fraud</text>
<text x="1860" y="581.75" font-size="11.5" text-anchor="middle" fill="#222233">scoring</text>
<rect x="1549" y="175" width="112" height="48" rx="4" fill="#ffffff" stroke="#5b7a99" stroke-width="1.3"/>
<text x="1605" y="196.25" font-size="11.5" text-anchor="middle" fill="#222233">Ticket</text>
<text x="1605" y="209.75" font-size="11.5" text-anchor="middle" fill="#222233">management</text>
<rect x="1549" y="107" width="112" height="48" rx="4" fill="#ffffff" stroke="#5b7a99" stroke-width="1.3"/>
<text x="1605" y="128.25" font-size="11.5" text-anchor="middle" fill="#222233">Customer</text>
<text x="1605" y="141.75" font-size="11.5" text-anchor="middle" fill="#222233">self-care</text>
<path d="M 1961 493 v 34 a 56 7 0 0 0 112 0 v -34" fill="#f3eef8" stroke="#8a6fae" stroke-width="1.3"/>
<ellipse cx="2017" cy="493" rx="56" ry="7" fill="#f3eef8" stroke="#8a6fae" stroke-width="1.3"/>
<text x="2017" y="510.75" font-size="11.5" text-anchor="middle" fill="#222233">Data</text>
<text x="2017" y="524.25" font-size="11.5" text-anchor="middle" fill="#222233">warehouse</text>
<path d="M 1803 114 v 34 a 56 7 0 0 0 112 0 v -34" fill="#f3eef8" stroke="#8a6fae" stroke-width="1.3"/>
<ellipse cx="1859" cy="114" rx="56" ry="7" fill="#f3eef8" stroke="#8a6fae" stroke-width="1.3"/>
<text x="1859" y="131.75" font-size="11.5" text-anchor="middle" fill="#222233">Customer</text>
<text x="1859" y="145.25" font-size="11.5" text-anchor="middle" fill="#222233">repository</text>
<rect x="2097" y="415" width="112" height="40" rx="4" fill="#f0eef5" stroke="#9187b3" stroke-width="1.2" stroke-dasharray="5 3"/>
<text x="2153" y="439" font-size="11.5" text-anchor="middle" fill="#222233">PSP</text>
<rect x="1542" y="339" width="112" height="48" rx="4" fill="#f0eef5" stroke="#9187b3" stroke-width="1.2" stroke-dasharray="5 3"/>
<text x="1598" y="360.25" font-size="11.5" text-anchor="middle" fill="#222233">Carrier</text>
<text x="1598" y="373.75" font-size="11.5" text-anchor="middle" fill="#222233">platforms</text>
<rect x="1935" y="221" width="112" height="48" rx="4" fill="#f0eef5" stroke="#9187b3" stroke-width="1.2" stroke-dasharray="5 3"/>
<text x="1991" y="242.25" font-size="11.5" text-anchor="middle" fill="#222233">Group</text>
<text x="1991" y="255.75" font-size="11.5" text-anchor="middle" fill="#222233">ERP</text>
<path d="M 135 520.5 L 150 521 L 286 521" fill="none" stroke="#444444" stroke-width="1.3" marker-end="url(#arr)"/>
<text x="210.5" y="535.5" font-size="10.5" text-anchor="middle" fill="#333" font-style="italic" stroke="white" stroke-width="2.5" paint-order="stroke" stroke-linejoin="round">Enrich product</text>
<text x="210.5" y="549" font-size="10.5" text-anchor="middle" fill="#333" font-style="italic" stroke="white" stroke-width="2.5" paint-order="stroke" stroke-linejoin="round">pages</text>
<path d="M 398 521 L 423 521 L 423 553 L 565 553" fill="none" stroke="#444444" stroke-width="1.3" marker-end="url(#arr)"/>
<text x="476.5" y="499.5" font-size="10.5" text-anchor="middle" fill="#333" font-style="italic" stroke="white" stroke-width="2.5" paint-order="stroke" stroke-linejoin="round">Publish the</text>
<text x="476.5" y="513" font-size="10.5" text-anchor="middle" fill="#333" font-style="italic" stroke="white" stroke-width="2.5" paint-order="stroke" stroke-linejoin="round">catalog</text>
<text x="476.5" y="526.5" font-size="9" text-anchor="middle" fill="#777" stroke="white" stroke-width="2.5" paint-order="stroke" stroke-linejoin="round">(API_REST, JSON)</text>
<rect x="449.5" y="533" width="54" height="15" rx="7.5" fill="#fdf3d8" stroke="#c9a227" stroke-width="1"/>
<text x="476.5" y="544" font-size="9.5" text-anchor="middle" fill="#7a6216" font-weight="bold">Product</text>
<path d="M 398 589 L 423 589 L 423 565 L 565 565" fill="none" stroke="#444444" stroke-width="1.3" marker-end="url(#arr)"/>
<text x="466.5" y="579.5" font-size="10.5" text-anchor="middle" fill="#333" font-style="italic" stroke="white" stroke-width="2.5" paint-order="stroke" stroke-linejoin="round">Product</text>
<text x="466.5" y="593" font-size="10.5" text-anchor="middle" fill="#333" font-style="italic" stroke="white" stroke-width="2.5" paint-order="stroke" stroke-linejoin="round">visuals</text>
<text x="466.5" y="606.5" font-size="9" text-anchor="middle" fill="#777" stroke="white" stroke-width="2.5" paint-order="stroke" stroke-linejoin="round">(CDN, HTTPS)</text>
<path d="M 393 432 L 530 432 L 530 541 L 565 541" fill="none" stroke="#444444" stroke-width="1.3" marker-end="url(#arr)"/>
<text x="472.5" y="446.5" font-size="10.5" text-anchor="middle" fill="#333" font-style="italic" stroke="white" stroke-width="2.5" paint-order="stroke" stroke-linejoin="round">Current</text>
<text x="472.5" y="460" font-size="10.5" text-anchor="middle" fill="#333" font-style="italic" stroke="white" stroke-width="2.5" paint-order="stroke" stroke-linejoin="round">prices</text>
<text x="472.5" y="473.5" font-size="9" text-anchor="middle" fill="#777" stroke="white" stroke-width="2.5" paint-order="stroke" stroke-linejoin="round">(API_REST, JSON)</text>
<path d="M 393 416 L 540 416 L 540 493 L 804 493" fill="none" stroke="#444444" stroke-width="1.3" marker-end="url(#arr)"/>
<text x="477" y="381.5" font-size="10.5" text-anchor="middle" fill="#333" font-style="italic" stroke="white" stroke-width="2.5" paint-order="stroke" stroke-linejoin="round">Prices guaranteed</text>
<text x="477" y="395" font-size="10.5" text-anchor="middle" fill="#333" font-style="italic" stroke="white" stroke-width="2.5" paint-order="stroke" stroke-linejoin="round">at cart</text>
<text x="477" y="408.5" font-size="9" text-anchor="middle" fill="#777" stroke="white" stroke-width="2.5" paint-order="stroke" stroke-linejoin="round">(API_REST, JSON)</text>
<path d="M 1935 237 L 1925 237 L 1925 68 L 256 68 L 256 424 L 281 424" fill="none" stroke="#444444" stroke-width="1.3" marker-end="url(#arr)"/>
<text x="322" y="33.5" font-size="10.5" text-anchor="middle" fill="#333" font-style="italic" stroke="white" stroke-width="2.5" paint-order="stroke" stroke-linejoin="round">Reference purchase</text>
<text x="322" y="47" font-size="10.5" text-anchor="middle" fill="#333" font-style="italic" stroke="white" stroke-width="2.5" paint-order="stroke" stroke-linejoin="round">costs</text>
<text x="322" y="60.5" font-size="9" text-anchor="middle" fill="#777" stroke="white" stroke-width="2.5" paint-order="stroke" stroke-linejoin="round">(SFTP, CSV)</text>
<path d="M 677 545 L 687 545 L 687 504 L 794 504 L 794 505 L 804 505" fill="none" stroke="#444444" stroke-width="1.3" marker-end="url(#arr)"/>
<text x="740.5" y="518.5" font-size="10.5" text-anchor="middle" fill="#333" font-style="italic" stroke="white" stroke-width="2.5" paint-order="stroke" stroke-linejoin="round">Go to</text>
<text x="740.5" y="532" font-size="10.5" text-anchor="middle" fill="#333" font-style="italic" stroke="white" stroke-width="2.5" paint-order="stroke" stroke-linejoin="round">checkout</text>
<text x="740.5" y="545.5" font-size="9" text-anchor="middle" fill="#777" stroke="white" stroke-width="2.5" paint-order="stroke" stroke-linejoin="round">(internal)</text>
<path d="M 677 436 L 794 436 L 794 481 L 804 481" fill="none" stroke="#444444" stroke-width="1.3" marker-end="url(#arr)"/>
<text x="740.5" y="450.5" font-size="10.5" text-anchor="middle" fill="#333" font-style="italic" stroke="white" stroke-width="2.5" paint-order="stroke" stroke-linejoin="round">Mobile</text>
<text x="740.5" y="464" font-size="10.5" text-anchor="middle" fill="#333" font-style="italic" stroke="white" stroke-width="2.5" paint-order="stroke" stroke-linejoin="round">cart</text>
<text x="740.5" y="477.5" font-size="9" text-anchor="middle" fill="#777" stroke="white" stroke-width="2.5" paint-order="stroke" stroke-linejoin="round">(API_REST, JSON)</text>
<path d="M 916 485 L 941 485 L 941 433 L 1021 433 A 5 5 0 0 1 1031 433 L 1071 433" fill="none" stroke="#444444" stroke-width="1.3" marker-end="url(#arr)"/>
<text x="983.5" y="447.5" font-size="10.5" text-anchor="middle" fill="#333" font-style="italic" stroke="white" stroke-width="2.5" paint-order="stroke" stroke-linejoin="round">Create the</text>
<text x="983.5" y="461" font-size="10.5" text-anchor="middle" fill="#333" font-style="italic" stroke="white" stroke-width="2.5" paint-order="stroke" stroke-linejoin="round">order</text>
<text x="983.5" y="474.5" font-size="9" text-anchor="middle" fill="#777" stroke="white" stroke-width="2.5" paint-order="stroke" stroke-linejoin="round">(MQ, JSON)</text>
<rect x="962" y="481" width="43" height="15" rx="7.5" fill="#fdf3d8" stroke="#c9a227" stroke-width="1"/>
<text x="983.5" y="492" font-size="9.5" text-anchor="middle" fill="#7a6216" font-weight="bold">Order</text>
<path d="M 916 501 L 941 501 L 941 557 L 1041 557 A 5 5 0 0 1 1051 557 L 1415 557 L 1415 588 L 1536 588.2 L 1561 588.2 L 1561 587.8000000000001 L 1571 587.8000000000001" fill="none" stroke="#444444" stroke-width="1.3" marker-end="url(#arr)"/>
<text x="1361.5" y="571.5" font-size="10.5" text-anchor="middle" fill="#333" font-style="italic" stroke="white" stroke-width="2.5" paint-order="stroke" stroke-linejoin="round">Payment</text>
<text x="1361.5" y="585" font-size="10.5" text-anchor="middle" fill="#333" font-style="italic" stroke="white" stroke-width="2.5" paint-order="stroke" stroke-linejoin="round">request</text>
<text x="1361.5" y="598.5" font-size="9" text-anchor="middle" fill="#777" stroke="white" stroke-width="2.5" paint-order="stroke" stroke-linejoin="round">(API_REST, JSON)</text>
<rect x="1334.5" y="605" width="54" height="15" rx="7.5" fill="#fdf3d8" stroke="#c9a227" stroke-width="1"/>
<text x="1361.5" y="616" font-size="9.5" text-anchor="middle" fill="#7a6216" font-weight="bold">Payment</text>
<path d="M 1683 571 L 1804 571" fill="none" stroke="#444444" stroke-width="1.3" marker-end="url(#arr)"/>
<text x="1748.5" y="536.5" font-size="10.5" text-anchor="middle" fill="#333" font-style="italic" stroke="white" stroke-width="2.5" paint-order="stroke" stroke-linejoin="round">Score the</text>
<text x="1748.5" y="550" font-size="10.5" text-anchor="middle" fill="#333" font-style="italic" stroke="white" stroke-width="2.5" paint-order="stroke" stroke-linejoin="round">transaction</text>
<text x="1748.5" y="563.5" font-size="9" text-anchor="middle" fill="#777" stroke="white" stroke-width="2.5" paint-order="stroke" stroke-linejoin="round">(internal)</text>
<path d="M 1683 583 L 1703 583 L 1703 605 L 1946 605 A 5 5 0 0 1 1956 605 L 1961 605 L 1961 545 L 2087 545 L 2087 442 L 2097 442" fill="none" stroke="#444444" stroke-width="1.3" marker-end="url(#arr)"/>
<text x="2024" y="559.5" font-size="10.5" text-anchor="middle" fill="#333" font-style="italic" stroke="white" stroke-width="2.5" paint-order="stroke" stroke-linejoin="round">Authorization and</text>
<text x="2024" y="573" font-size="10.5" text-anchor="middle" fill="#333" font-style="italic" stroke="white" stroke-width="2.5" paint-order="stroke" stroke-linejoin="round">capture</text>
<text x="2024" y="586.5" font-size="9" text-anchor="middle" fill="#777" stroke="white" stroke-width="2.5" paint-order="stroke" stroke-linejoin="round">(API_REST, JSON)</text>
<rect x="1997" y="593" width="54" height="15" rx="7.5" fill="#fdf3d8" stroke="#c9a227" stroke-width="1"/>
<text x="2024" y="604" font-size="9.5" text-anchor="middle" fill="#7a6216" font-weight="bold">Payment</text>
<path d="M 2097 428 L 1526 428 L 1526 568 L 1536 568.2 L 1561 568.2 L 1561 568.6 L 1571 568.6" fill="none" stroke="#444444" stroke-width="1.3" marker-end="url(#arr)"/>
<text x="2002" y="442.5" font-size="10.5" text-anchor="middle" fill="#333" font-style="italic" stroke="white" stroke-width="2.5" paint-order="stroke" stroke-linejoin="round">Transaction</text>
<text x="2002" y="456" font-size="10.5" text-anchor="middle" fill="#333" font-style="italic" stroke="white" stroke-width="2.5" paint-order="stroke" stroke-linejoin="round">status</text>
<text x="2002" y="469.5" font-size="9" text-anchor="middle" fill="#777" stroke="white" stroke-width="2.5" paint-order="stroke" stroke-linejoin="round">(webhook, JSON)</text>
<path d="M 1683 595 L 1693 595 L 1693 616 L 1941 616 L 1941 643 L 1046 643 L 1046 445 L 1071 445.00000000000006" fill="none" stroke="#444444" stroke-width="1.3" marker-end="url(#arr)"/>
<text x="1565.5" y="657.5" font-size="10.5" text-anchor="middle" fill="#333" font-style="italic" stroke="white" stroke-width="2.5" paint-order="stroke" stroke-linejoin="round">Payment</text>
<text x="1565.5" y="671" font-size="10.5" text-anchor="middle" fill="#333" font-style="italic" stroke="white" stroke-width="2.5" paint-order="stroke" stroke-linejoin="round">confirmed</text>
<text x="1565.5" y="684.5" font-size="9" text-anchor="middle" fill="#777" stroke="white" stroke-width="2.5" paint-order="stroke" stroke-linejoin="round">(MQ, JSON)</text>
<path d="M 1183 425 L 1272 425 L 1272 414 L 1282 414" fill="none" stroke="#444444" stroke-width="1.3" marker-end="url(#arr)"/>
<text x="1232.5" y="439.5" font-size="10.5" text-anchor="middle" fill="#333" font-style="italic" stroke="white" stroke-width="2.5" paint-order="stroke" stroke-linejoin="round">Orders to</text>
<text x="1232.5" y="453" font-size="10.5" text-anchor="middle" fill="#333" font-style="italic" stroke="white" stroke-width="2.5" paint-order="stroke" stroke-linejoin="round">ship</text>
<text x="1232.5" y="466.5" font-size="9" text-anchor="middle" fill="#777" stroke="white" stroke-width="2.5" paint-order="stroke" stroke-linejoin="round">(internal)</text>
<rect x="1211" y="473" width="43" height="15" rx="7.5" fill="#fdf3d8" stroke="#c9a227" stroke-width="1"/>
<text x="1232.5" y="484" font-size="9.5" text-anchor="middle" fill="#7a6216" font-weight="bold">Order</text>
<path d="M 1394 414 L 1429 414 L 1429 371 L 1542 371" fill="none" stroke="#444444" stroke-width="1.3" marker-end="url(#arr)"/>
<text x="1482.5" y="385.5" font-size="10.5" text-anchor="middle" fill="#333" font-style="italic" stroke="white" stroke-width="2.5" paint-order="stroke" stroke-linejoin="round">Labels and</text>
<text x="1482.5" y="399" font-size="10.5" text-anchor="middle" fill="#333" font-style="italic" stroke="white" stroke-width="2.5" paint-order="stroke" stroke-linejoin="round">pickups</text>
<text x="1482.5" y="412.5" font-size="9" text-anchor="middle" fill="#777" stroke="white" stroke-width="2.5" paint-order="stroke" stroke-linejoin="round">(API_REST, JSON)</text>
<path d="M 1542 355 L 1429 355 L 1429 344 L 1424 344 A 5 5 0 0 0 1414 344 L 1046 344 L 1046 398 L 1282 398" fill="none" stroke="#444444" stroke-width="1.3" marker-end="url(#arr)"/>
<text x="1480" y="320.5" font-size="10.5" text-anchor="middle" fill="#333" font-style="italic" stroke="white" stroke-width="2.5" paint-order="stroke" stroke-linejoin="round">Parcel</text>
<text x="1480" y="334" font-size="10.5" text-anchor="middle" fill="#333" font-style="italic" stroke="white" stroke-width="2.5" paint-order="stroke" stroke-linejoin="round">tracking</text>
<text x="1480" y="347.5" font-size="9" text-anchor="middle" fill="#777" stroke="white" stroke-width="2.5" paint-order="stroke" stroke-linejoin="round">(webhook, JSON)</text>
<path d="M 1394 398 L 1419 398 L 1419 131 L 1549 131" fill="none" stroke="#444444" stroke-width="1.3" marker-end="url(#arr)"/>
<text x="1473.5" y="145.5" font-size="10.5" text-anchor="middle" fill="#333" font-style="italic" stroke="white" stroke-width="2.5" paint-order="stroke" stroke-linejoin="round">Customer order</text>
<text x="1473.5" y="159" font-size="10.5" text-anchor="middle" fill="#333" font-style="italic" stroke="white" stroke-width="2.5" paint-order="stroke" stroke-linejoin="round">tracking</text>
<text x="1473.5" y="172.5" font-size="9" text-anchor="middle" fill="#777" stroke="white" stroke-width="2.5" paint-order="stroke" stroke-linejoin="round">(MQ, JSON)</text>
<path d="M 135 433.5 L 150 434 L 246 434 L 246 199 L 251 199 A 5 5 0 0 1 261 199 L 1414 199 A 5 5 0 0 1 1424 199 L 1549 199" fill="none" stroke="#444444" stroke-width="1.3" marker-end="url(#arr)"/>
<text x="1376.5" y="213.5" font-size="10.5" text-anchor="middle" fill="#333" font-style="italic" stroke="white" stroke-width="2.5" paint-order="stroke" stroke-linejoin="round">Handle</text>
<text x="1376.5" y="227" font-size="10.5" text-anchor="middle" fill="#333" font-style="italic" stroke="white" stroke-width="2.5" paint-order="stroke" stroke-linejoin="round">complaints</text>
<path d="M 1661 199 L 1686 199 L 1686 243 L 1424 243 A 5 5 0 0 0 1414 243 L 1026 243 L 1026 512 L 1041 512 A 5 5 0 0 1 1051 512 L 1071 512" fill="none" stroke="#444444" stroke-width="1.3" marker-end="url(#arr)"/>
<text x="1581.5" y="257.5" font-size="10.5" text-anchor="middle" fill="#333" font-style="italic" stroke="white" stroke-width="2.5" paint-order="stroke" stroke-linejoin="round">Approved return</text>
<text x="1581.5" y="271" font-size="10.5" text-anchor="middle" fill="#333" font-style="italic" stroke="white" stroke-width="2.5" paint-order="stroke" stroke-linejoin="round">requests</text>
<text x="1581.5" y="284.5" font-size="9" text-anchor="middle" fill="#777" stroke="white" stroke-width="2.5" paint-order="stroke" stroke-linejoin="round">(API_REST, JSON)</text>
<path d="M 1183 512 L 1493 512 L 1493 578 L 1536 578.2 L 1571 578.2" fill="none" stroke="#444444" stroke-width="1.3" marker-end="url(#arr)"/>
<text x="1454" y="526.5" font-size="10.5" text-anchor="middle" fill="#333" font-style="italic" stroke="white" stroke-width="2.5" paint-order="stroke" stroke-linejoin="round">Refund</text>
<text x="1454" y="540" font-size="10.5" text-anchor="middle" fill="#333" font-style="italic" stroke="white" stroke-width="2.5" paint-order="stroke" stroke-linejoin="round">orders</text>
<text x="1454" y="553.5" font-size="9" text-anchor="middle" fill="#777" stroke="white" stroke-width="2.5" paint-order="stroke" stroke-linejoin="round">(MQ, JSON)</text>
<rect x="1427" y="560" width="54" height="15" rx="7.5" fill="#fdf3d8" stroke="#c9a227" stroke-width="1"/>
<text x="1454" y="571" font-size="9.5" text-anchor="middle" fill="#7a6216" font-weight="bold">Payment</text>
<path d="M 1661 131 L 1803 131" fill="none" stroke="#444444" stroke-width="1.3" marker-end="url(#arr)"/>
<text x="1739.5" y="145.5" font-size="10.5" text-anchor="middle" fill="#333" font-style="italic" stroke="white" stroke-width="2.5" paint-order="stroke" stroke-linejoin="round">Update customer</text>
<text x="1739.5" y="159" font-size="10.5" text-anchor="middle" fill="#333" font-style="italic" stroke="white" stroke-width="2.5" paint-order="stroke" stroke-linejoin="round">profile</text>
<text x="1739.5" y="172.5" font-size="9" text-anchor="middle" fill="#777" stroke="white" stroke-width="2.5" paint-order="stroke" stroke-linejoin="round">(JDBC)</text>
<path d="M 1183 441 L 1193 441 L 1193 501 L 1419 501 L 1419 437 L 1521 437 A 5 5 0 0 1 1531 437 L 1951 437 L 1951 502 L 1961 502" fill="none" stroke="#444444" stroke-width="1.3" marker-end="url(#arr)"/>
<text x="1472.5" y="451.5" font-size="10.5" text-anchor="middle" fill="#333" font-style="italic" stroke="white" stroke-width="2.5" paint-order="stroke" stroke-linejoin="round">Archive</text>
<text x="1472.5" y="465" font-size="10.5" text-anchor="middle" fill="#333" font-style="italic" stroke="white" stroke-width="2.5" paint-order="stroke" stroke-linejoin="round">orders</text>
<text x="1472.5" y="478.5" font-size="9" text-anchor="middle" fill="#777" stroke="white" stroke-width="2.5" paint-order="stroke" stroke-linejoin="round">(batch, parquet)</text>
<rect x="1451" y="485" width="43" height="15" rx="7.5" fill="#fdf3d8" stroke="#c9a227" stroke-width="1"/>
<text x="1472.5" y="496" font-size="9.5" text-anchor="middle" fill="#7a6216" font-weight="bold">Order</text>
<path d="M 677 561 L 941 561 L 941 700 L 1951 700 L 1951 518 L 1961 518" fill="none" stroke="#444444" stroke-width="1.3" marker-end="url(#arr)"/>
<text x="997" y="714.5" font-size="10.5" text-anchor="middle" fill="#333" font-style="italic" stroke="white" stroke-width="2.5" paint-order="stroke" stroke-linejoin="round">Browsing</text>
<text x="997" y="728" font-size="10.5" text-anchor="middle" fill="#333" font-style="italic" stroke="white" stroke-width="2.5" paint-order="stroke" stroke-linejoin="round">events</text>
<text x="997" y="741.5" font-size="9" text-anchor="middle" fill="#777" stroke="white" stroke-width="2.5" paint-order="stroke" stroke-linejoin="round">(streaming, avro)</text>
<path d="M 135 602 L 261 602 L 261 633 L 936 633 A 5 5 0 0 1 946 633 L 1041 633 A 5 5 0 0 1 1051 633 L 1056 633 L 1056 632 L 1415 632 L 1415 598 L 1536 598.2 L 1561 598.2 L 1561 597.4000000000001 L 1571 597.4000000000001" fill="none" stroke="#444444" stroke-width="1.3" marker-end="url(#arr)"/>
<text x="895.5" y="647.5" font-size="10.5" text-anchor="middle" fill="#333" font-style="italic" stroke="white" stroke-width="2.5" paint-order="stroke" stroke-linejoin="round">Reconcile</text>
<text x="895.5" y="661" font-size="10.5" text-anchor="middle" fill="#333" font-style="italic" stroke="white" stroke-width="2.5" paint-order="stroke" stroke-linejoin="round">collections</text>
<path d="M 1935 253 L 1639 253 L 1639 300 L 1424 300 A 5 5 0 0 0 1414 300 L 1036 300 L 1036 421 L 1071 421" fill="none" stroke="#444444" stroke-width="1.3" marker-end="url(#arr)"/>
<text x="1711" y="267.5" font-size="10.5" text-anchor="middle" fill="#333" font-style="italic" stroke="white" stroke-width="2.5" paint-order="stroke" stroke-linejoin="round">Accounting logistics</text>
<text x="1711" y="281" font-size="10.5" text-anchor="middle" fill="#333" font-style="italic" stroke="white" stroke-width="2.5" paint-order="stroke" stroke-linejoin="round">statuses</text>
<text x="1711" y="294.5" font-size="9" text-anchor="middle" fill="#777" stroke="white" stroke-width="2.5" paint-order="stroke" stroke-linejoin="round">(MQ, JSON)</text>
<line x1="20" y1="767" x2="2199" y2="767" stroke="#ddd" stroke-width="1"/>
<text x="20" y="789" font-size="11" font-weight="bold" fill="#555">BUSINESS OBJECTS</text>
<rect x="150" y="779" width="43" height="15" rx="7.5" fill="#fdf3d8" stroke="#c9a227"/>
<text x="171.5" y="790" font-size="9.5" text-anchor="middle" fill="#7a6216" font-weight="bold">Order</text>
<text x="203" y="790" font-size="10" fill="#666">— validated cart, tracked until delivery</text>
<rect x="150" y="803" width="54" height="15" rx="7.5" fill="#fdf3d8" stroke="#c9a227"/>
<text x="177" y="814" font-size="9.5" text-anchor="middle" fill="#7a6216" font-weight="bold">Payment</text>
<text x="214" y="814" font-size="10" fill="#666">— financial transaction tied to an order</text>
<rect x="150" y="827" width="54" height="15" rx="7.5" fill="#fdf3d8" stroke="#c9a227"/>
<text x="177" y="838" font-size="9.5" text-anchor="middle" fill="#7a6216" font-weight="bold">Product</text>
<text x="214" y="838" font-size="10" fill="#666">— item published to the catalog</text>
<line x1="20" y1="865" x2="2199" y2="865" stroke="#ddd" stroke-width="1"/>
<text x="20" y="887" font-size="11" font-weight="bold" fill="#555">LEGEND</text>
<rect x="150" y="877" width="26" height="14" rx="3" fill="#eef4fb" stroke="#7a9cc4" stroke-dasharray="5 3"/>
<text x="182" y="888" font-size="10" fill="#444">Actor group</text>
<rect x="272" y="877" width="26" height="14" rx="3" fill="#e8f1f8" stroke="#5b8db8"/>
<text x="304" y="888" font-size="10" fill="#444">Application</text>
<rect x="394" y="877" width="26" height="14" rx="3" fill="#ffffff" stroke="#5b7a99"/>
<text x="426" y="888" font-size="10" fill="#444">Application module</text>
<rect x="552" y="877" width="26" height="14" rx="3" fill="#f3eef8" stroke="#8a6fae"/>
<text x="584" y="888" font-size="10" fill="#444">Datastore / registry</text>
<rect x="720" y="877" width="26" height="14" rx="3" fill="#f0eef5" stroke="#9187b3" stroke-dasharray="5 3"/>
<text x="752" y="888" font-size="10" fill="#444">External system</text>
<line x1="150" y1="907" x2="176" y2="907" stroke="#444444" stroke-width="1.3" marker-end="url(#arr)"/>
<text x="182" y="911" font-size="10" fill="#444">Application flow — (protocol, format) under the label</text>
<rect x="480" y="900" width="96" height="15" rx="7.5" fill="#fdf3d8" stroke="#c9a227"/>
<text x="528" y="911" font-size="9.5" text-anchor="middle" fill="#7a6216" font-weight="bold">Business object</text>
<text x="584" y="911" font-size="10" fill="#444">carried by the flow</text>
</svg>
