<svg xmlns="http://www.w3.org/2000/svg" viewBox="0 0 289 874" font-family="Helvetica,Arial,sans-serif">
<defs><marker id="arr" viewBox="0 0 10 10" refX="9" refY="5" markerWidth="7" markerHeight="7" orient="auto-start-reverse">
<path d="M0,0 L10,5 L0,10 z" fill="#444444"/></marker></defs>
<rect width="289" height="874" fill="white"/>
<rect x="83" y="22" width="166" height="90" rx="6" fill="#eef4fb" stroke="#7a9cc4" stroke-width="1.2" stroke-dasharray="5 3"/>
<text x="93" y="40" font-size="13" font-weight="bold" fill="#333">HR actors</text>
<rect x="23" y="192" width="182" height="234" rx="6" fill="#e8f1f8" stroke="#5b8db8" stroke-width="1.2"/>
<text x="33" y="210" font-size="13" font-weight="bold" fill="#333">HR portal</text>
<circle cx="124" cy="59" r="7" fill="none" stroke="#445566" stroke-width="1.5"/>
<path d="M 113 81 q 11 -19 22 0" fill="none" stroke="#445566" stroke-width="1.5"/>
<text x="124" y="93" font-size="11" text-anchor="middle" fill="#223344">Employee</text>
<circle cx="208" cy="59" r="7" fill="none" stroke="#445566" stroke-width="1.5"/>
<path d="M 197 81 q 11 -19 22 0" fill="none" stroke="#445566" stroke-width="1.5"/>
<text x="208" y="93" font-size="11" text-anchor="middle" fill="#223344">Manager</text>
<rect x="70" y="219" width="108" height="47" rx="4" fill="#ffffff" stroke="#5b7a99" stroke-width="1.3"/>
<text x="124" y="239.25" font-size="12.5" text-anchor="middle" fill="#222233">Leave</text>
<text x="124" y="253.75" font-size="12.5" text-anchor="middle" fill="#222233">requests</text>
<rect x="88" y="370" width="108" height="47" rx="4" fill="#ffffff" stroke="#5b7a99" stroke-width="1.3"/>
<text x="142" y="390.25" font-size="12.5" text-anchor="middle" fill="#222233">Approval</text>
<text x="142" y="404.75" font-size="12.5" text-anchor="middle" fill="#222233">workflow</text>
<path d="M 42 519 v 33 a 54 7 0 0 0 108 0 v -33" fill="#f3eef8" stroke="#8a6fae" stroke-width="1.3"/>
<ellipse cx="96" cy="519" rx="54" ry="7" fill="#f3eef8" stroke="#8a6fae" stroke-width="1.3"/>
<text x="96" y="535.75" font-size="12.5" text-anchor="middle" fill="#222233">HR</text>
<text x="96" y="550.25" font-size="12.5" text-anchor="middle" fill="#222233">repository</text>
<rect x="106" y="575" width="108" height="47" rx="4" fill="#f0eef5" stroke="#9187b3" stroke-width="1.2" stroke-dasharray="5 3"/>
<text x="160" y="595.25" font-size="12.5" text-anchor="middle" fill="#222233">Payroll HRIS</text>
<text x="160" y="609.75" font-size="12.5" text-anchor="middle" fill="#222233">(outsourced)</text>
<path d="M 124 103 L 124 219" fill="none" stroke="#444444" stroke-width="1.3" marker-end="url(#arr)"/>
<text x="67" y="145.5" font-size="11.5" text-anchor="middle" fill="#333" font-style="italic" stroke="white" stroke-width="2.5" paint-order="stroke" stroke-linejoin="round">Submit a request</text>
<rect x="24" y="153.5" width="86" height="15" rx="7.5" fill="#fdf3d8" stroke="#c9a227" stroke-width="1"/>
<text x="67" y="164.5" font-size="9.5" text-anchor="middle" fill="#7a6216" font-weight="bold">Leave request</text>
<path d="M 124 266 L 124 370" fill="none" stroke="#444444" stroke-width="1.3" marker-end="url(#arr)"/>
<text x="77" y="298.5" font-size="11.5" text-anchor="middle" fill="#333" font-style="italic" stroke="white" stroke-width="2.5" paint-order="stroke" stroke-linejoin="round">Submit to the</text>
<text x="77" y="313" font-size="11.5" text-anchor="middle" fill="#333" font-style="italic" stroke="white" stroke-width="2.5" paint-order="stroke" stroke-linejoin="round">workflow</text>
<text x="77" y="327.5" font-size="9" text-anchor="middle" fill="#777" stroke="white" stroke-width="2.5" paint-order="stroke" stroke-linejoin="round">(internal)</text>
<rect x="34" y="333" width="86" height="15" rx="7.5" fill="#fdf3d8" stroke="#c9a227" stroke-width="1"/>
<text x="77" y="344" font-size="9.5" text-anchor="middle" fill="#7a6216" font-weight="bold">Leave request</text>
<path d="M 208 103 L 208 127 L 188 127 L 188 360 L 160 360 L 160 370" fill="none" stroke="#444444" stroke-width="1.3" marker-end="url(#arr)"/>
<text x="226.5" y="149.5" font-size="11.5" text-anchor="middle" fill="#333" font-style="italic" stroke="white" stroke-width="2.5" paint-order="stroke" stroke-linejoin="round">Approve or</text>
<text x="226.5" y="164" font-size="11.5" text-anchor="middle" fill="#333" font-style="italic" stroke="white" stroke-width="2.5" paint-order="stroke" stroke-linejoin="round">reject</text>
<path d="M 124 417 L 124 441 L 96 441 L 96 512" fill="none" stroke="#444444" stroke-width="1.3" marker-end="url(#arr)"/>
<text x="52" y="463.5" font-size="11.5" text-anchor="middle" fill="#333" font-style="italic" stroke="white" stroke-width="2.5" paint-order="stroke" stroke-linejoin="round">Update leave</text>
<text x="52" y="478" font-size="11.5" text-anchor="middle" fill="#333" font-style="italic" stroke="white" stroke-width="2.5" paint-order="stroke" stroke-linejoin="round">balances</text>
<text x="52" y="492.5" font-size="9" text-anchor="middle" fill="#777" stroke="white" stroke-width="2.5" paint-order="stroke" stroke-linejoin="round">(JDBC)</text>
<path d="M 160 417 L 160 575" fill="none" stroke="#444444" stroke-width="1.3" marker-end="url(#arr)"/>
<text x="221" y="459.5" font-size="11.5" text-anchor="middle" fill="#333" font-style="italic" stroke="white" stroke-width="2.5" paint-order="stroke" stroke-linejoin="round">Approved variable</text>
<text x="221" y="474" font-size="11.5" text-anchor="middle" fill="#333" font-style="italic" stroke="white" stroke-width="2.5" paint-order="stroke" stroke-linejoin="round">items</text>
<text x="221" y="488.5" font-size="9" text-anchor="middle" fill="#777" stroke="white" stroke-width="2.5" paint-order="stroke" stroke-linejoin="round">(SFTP, CSV)</text>
<line x1="20" y1="642" x2="269" y2="642" stroke="#ddd" stroke-width="1"/>
<text x="20" y="664" font-size="11" font-weight="bold" fill="#555">BUSINESS OBJECTS</text>
<rect x="150" y="654" width="86" height="15" rx="7.5" fill="#fdf3d8" stroke="#c9a227"/>
<text x="193" y="665" font-size="9.5" text-anchor="middle" fill="#7a6216" font-weight="bold">Leave request</text>
<text x="246" y="665" font-size="10" fill="#666">— request submitted by an employee, subject to approval</text>
<line x1="20" y1="692" x2="269" y2="692" stroke="#ddd" stroke-width="1"/>
<text x="20" y="714" font-size="11" font-weight="bold" fill="#555">LEGEND</text>
<rect x="150" y="704" width="26" height="14" rx="3" fill="#eef4fb" stroke="#7a9cc4" stroke-dasharray="5 3"/>
<text x="182" y="715" font-size="10" fill="#444">Actor group</text>
<rect x="150" y="726" width="26" height="14" rx="3" fill="#e8f1f8" stroke="#5b8db8"/>
<text x="182" y="737" font-size="10" fill="#444">Application</text>
<rect x="150" y="748" width="26" height="14" rx="3" fill="#ffffff" stroke="#5b7a99"/>
<text x="182" y="759" font-size="10" fill="#444">Application module</text>
<rect x="150" y="770" width="26" height="14" rx="3" fill="#f3eef8" stroke="#8a6fae"/>
<text x="182" y="781" font-size="10" fill="#444">Datastore / registry</text>
<rect x="150" y="792" width="26" height="14" rx="3" fill="#f0eef5" stroke="#9187b3" stroke-dasharray="5 3"/>
<text x="182" y="803" font-size="10" fill="#444">External system</text>
<line x1="150" y1="844" x2="176" y2="844" stroke="#444444" stroke-width="1.3" marker-end="url(#arr)"/>
<text x="182" y="848" font-size="10" fill="#444">Application flow — (protocol, format) under the label</text>
<rect x="480" y="837" width="96" height="15" rx="7.5" fill="#fdf3d8" stroke="#c9a227"/>
<text x="528" y="848" font-size="9.5" text-anchor="middle" fill="#7a6216" font-weight="bold">Business object</text>
<text x="584" y="848" font-size="10" fill="#444">carried by the flow</text>
</svg>
