<svg xmlns="http://www.w3.org/2000/svg" viewBox="0 0 1239 348" font-family="Helvetica,Arial,sans-serif">
<defs><marker id="arr" viewBox="0 0 10 10" refX="9" refY="5" markerWidth="7" markerHeight="7" orient="auto-start-reverse">
<path d="M0,0 L10,5 L0,10 z" fill="#444444"/></marker></defs>
<rect width="1239" height="348" fill="white"/>
<rect x="12" y="30" width="88" height="174" rx="6" fill="#eef4fb" stroke="#7a9cc4" stroke-width="1.2" stroke-dasharray="5 3"/>
<text x="22" y="48" font-size="12" font-weight="bold" fill="#333">HR actors</text>
<rect x="299" y="33" width="434" height="143.5" rx="6" fill="#e8f1f8" stroke="#5b8db8" stroke-width="1.2"/>
<text x="309" y="51" font-size="12" font-weight="bold" fill="#333">HR portal</text>
<circle cx="56" cy="70" r="7" fill="none" stroke="#445566" stroke-width="1.5"/>
<path d="M 45 92 q 11 -19 22 0" fill="none" stroke="#445566" stroke-width="1.5"/>
<text x="56" y="104" font-size="10" text-anchor="middle" fill="#223344">Employee</text>
<circle cx="56" cy="146" r="7" fill="none" stroke="#445566" stroke-width="1.5"/>
<path d="M 45 168 q 11 -19 22 0" fill="none" stroke="#445566" stroke-width="1.5"/>
<text x="56" y="180" font-size="10" text-anchor="middle" fill="#223344">Manager</text>
<rect x="311" y="102.5" width="140" height="51" rx="4" fill="#ffffff" stroke="#5b7a99" stroke-width="1.3"/>
<text x="381" y="125.25" font-size="11.5" text-anchor="middle" fill="#222233">Leave</text>
<text x="381" y="138.75" font-size="11.5" text-anchor="middle" fill="#222233">requests</text>
<rect x="581" y="111" width="140" height="51" rx="4" fill="#ffffff" stroke="#5b7a99" stroke-width="1.3"/>
<text x="651" y="133.75" font-size="11.5" text-anchor="middle" fill="#222233">Approval</text>
<text x="651" y="147.25" font-size="11.5" text-anchor="middle" fill="#222233">workflow</text>
<path d="M 903 89 v 37 a 70 7 0 0 0 140 0 v -37" fill="#f3eef8" stroke="#8a6fae" stroke-width="1.3"/>
<ellipse cx="973" cy="89" rx="70" ry="7" fill="#f3eef8" stroke="#8a6fae" stroke-width="1.3"/>
<text x="973" y="108.25" font-size="11.5" text-anchor="middle" fill="#222233">HR</text>
<text x="973" y="121.75" font-size="11.5" text-anchor="middle" fill="#222233">repository</text>
<rect x="1087" y="119" width="140" height="51" rx="4" fill="#f0eef5" stroke="#9187b3" stroke-width="1.2" stroke-dasharray="5 3"/>
<text x="1157" y="141.75" font-size="11.5" text-anchor="middle" fill="#222233">Payroll HRIS</text>
<text x="1157" y="155.25" font-size="11.5" text-anchor="middle" fill="#222233">(outsourced)</text>
<path d="M 88 88 L 284 88 L 284 128 L 311 128" fill="none" stroke="#444444" stroke-width="1.3" marker-end="url(#arr)"/>
<text x="199.5" y="58.5" font-size="10.5" text-anchor="middle" fill="#333" font-style="italic" stroke="white" stroke-width="2.5" paint-order="stroke" stroke-linejoin="round">Submit a request</text>
<rect x="156.5" y="66.5" width="86" height="15" rx="7.5" fill="#fdf3d8" stroke="#c9a227" stroke-width="1"/>
<text x="199.5" y="77.5" font-size="9.5" text-anchor="middle" fill="#7a6216" font-weight="bold">Leave request</text>
<path d="M 451 128 L 581 128" fill="none" stroke="#444444" stroke-width="1.3" marker-end="url(#arr)"/>
<text x="516" y="74.5" font-size="10.5" text-anchor="middle" fill="#333" font-style="italic" stroke="white" stroke-width="2.5" paint-order="stroke" stroke-linejoin="round">Submit to the</text>
<text x="516" y="88" font-size="10.5" text-anchor="middle" fill="#333" font-style="italic" stroke="white" stroke-width="2.5" paint-order="stroke" stroke-linejoin="round">workflow</text>
<text x="516" y="101.5" font-size="9" text-anchor="middle" fill="#777" stroke="white" stroke-width="2.5" paint-order="stroke" stroke-linejoin="round">(internal)</text>
<rect x="473" y="108" width="86" height="15" rx="7.5" fill="#fdf3d8" stroke="#c9a227" stroke-width="1"/>
<text x="516" y="119" font-size="9.5" text-anchor="middle" fill="#7a6216" font-weight="bold">Leave request</text>
<path d="M 88 164 L 294 163.5 L 571 163.5 L 571 145 L 581 145" fill="none" stroke="#444444" stroke-width="1.3" marker-end="url(#arr)"/>
<text x="181.5" y="179.5" font-size="10.5" text-anchor="middle" fill="#333" font-style="italic" stroke="white" stroke-width="2.5" paint-order="stroke" stroke-linejoin="round">Approve or</text>
<text x="181.5" y="193" font-size="10.5" text-anchor="middle" fill="#333" font-style="italic" stroke="white" stroke-width="2.5" paint-order="stroke" stroke-linejoin="round">reject</text>
<path d="M 721 128 L 748 128 L 748 108 L 903 108" fill="none" stroke="#444444" stroke-width="1.3" marker-end="url(#arr)"/>
<text x="820.5" y="72.5" font-size="10.5" text-anchor="middle" fill="#333" font-style="italic" stroke="white" stroke-width="2.5" paint-order="stroke" stroke-linejoin="round">Update leave</text>
<text x="820.5" y="86" font-size="10.5" text-anchor="middle" fill="#333" font-style="italic" stroke="white" stroke-width="2.5" paint-order="stroke" stroke-linejoin="round">balances</text>
<text x="820.5" y="99.5" font-size="9" text-anchor="middle" fill="#777" stroke="white" stroke-width="2.5" paint-order="stroke" stroke-linejoin="round">(JDBC)</text>
<path d="M 721 145 L 1087 145" fill="none" stroke="#444444" stroke-width="1.3" marker-end="url(#arr)"/>
<text x="835" y="160.5" font-size="10.5" text-anchor="middle" fill="#333" font-style="italic" stroke="white" stroke-width="2.5" paint-order="stroke" stroke-linejoin="round">Approved variable</text>
<text x="835" y="174" font-size="10.5" text-anchor="middle" fill="#333" font-style="italic" stroke="white" stroke-width="2.5" paint-order="stroke" stroke-linejoin="round">items</text>
<text x="835" y="187.5" font-size="9" text-anchor="middle" fill="#777" stroke="white" stroke-width="2.5" paint-order="stroke" stroke-linejoin="round">(SFTP, CSV)</text>
<line x1="20" y1="226" x2="1219" y2="226" stroke="#ddd" stroke-width="1"/>
<text x="20" y="248" font-size="11" font-weight="bold" fill="#555">BUSINESS OBJECTS</text>
<rect x="150" y="238" width="86" height="15" rx="7.5" fill="#fdf3d8" stroke="#c9a227"/>
<text x="193" y="249" font-size="9.5" text-anchor="middle" fill="#7a6216" font-weight="bold">Leave request</text>
<text x="246" y="249" font-size="10" fill="#666">— request submitted by an employee, subject to approval</text>
<line x1="20" y1="276" x2="1219" y2="276" stroke="#ddd" stroke-width="1"/>
<text x="20" y="298" font-size="11" font-weight="bold" fill="#555">LEGEND</text>
<rect x="150" y="288" width="26" height="14" rx="3" fill="#eef4fb" stroke="#7a9cc4" stroke-dasharray="5 3"/>
<text x="182" y="299" font-size="10" fill="#444">Actor group</text>
<rect x="272" y="288" width="26" height="14" rx="3" fill="#e8f1f8" stroke="#5b8db8"/>
<text x="304" y="299" font-size="10" fill="#444">Application</text>
<rect x="394" y="288" width="26" height="14" rx="3" fill="#ffffff" stroke="#5b7a99"/>
<text x="426" y="299" font-size="10" fill="#444">Application module</text>
<rect x="552" y="288" width="26" height="14" rx="3" fill="#f3eef8" stroke="#8a6fae"/>
<text x="584" y="299" font-size="10" fill="#444">Datastore / registry</text>
<rect x="720" y="288" width="26" height="14" rx="3" fill="#f0eef5" stroke="#9187b3" stroke-dasharray="5 3"/>
<text x="752" y="299" font-size="10" fill="#444">External system</text>
<line x1="150" y1="318" x2="176" y2="318" stroke="#444444" stroke-width="1.3" marker-end="url(#arr)"/>
<text x="182" y="322" font-size="10" fill="#444">Application flow — (protocol, format) under the label</text>
<rect x="480" y="311" width="96" height="15" rx="7.5" fill="#fdf3d8" stroke="#c9a227"/>
<text x="528" y="322" font-size="9.5" text-anchor="middle" fill="#7a6216" font-weight="bold">Business object</text>
<text x="584" y="322" font-size="10" fill="#444">carried by the flow</text>
</svg>
