<svg xmlns="http://www.w3.org/2000/svg" viewBox="0 0 409 744" font-family="Helvetica,Arial,sans-serif">
<defs><marker id="arr" viewBox="0 0 10 10" refX="9" refY="5" markerWidth="7" markerHeight="7" orient="auto-start-reverse">
<path d="M0,0 L10,5 L0,10 z" fill="#5a6675"/></marker></defs>
<rect width="409" height="744" fill="#ffffff"/>
<rect x="177" y="37" width="166" height="90" rx="6" fill="#e9f2fb" stroke="#1f77b4" stroke-width="1.2" stroke-dasharray="5 3"/>
<text x="187" y="55" font-size="13" font-weight="bold" fill="#17202c">HR actors</text>
<rect x="156" y="157" width="163" height="188.5" rx="6" fill="#e9f3fa" stroke="#2f83b6" stroke-width="1.2"/>
<text x="166" y="175" font-size="13" font-weight="bold" fill="#17202c">HR portal</text>
<circle cx="218" cy="74" r="7" fill="none" stroke="#1f5e91" stroke-width="1.5"/>
<path d="M 207 96 q 11 -19 22 0" fill="none" stroke="#1f5e91" stroke-width="1.5"/>
<text x="218" y="108" font-size="11" text-anchor="middle" fill="#20364c">Employee</text>
<circle cx="302" cy="74" r="7" fill="none" stroke="#1f5e91" stroke-width="1.5"/>
<path d="M 291 96 q 11 -19 22 0" fill="none" stroke="#1f5e91" stroke-width="1.5"/>
<text x="302" y="108" font-size="11" text-anchor="middle" fill="#20364c">Manager</text>
<rect x="184" y="184" width="108" height="47" rx="4" fill="#ffffff" stroke="#48546a" stroke-width="1.3"/>
<text x="238" y="204.25" font-size="12.5" text-anchor="middle" fill="#17202c">Leave</text>
<text x="238" y="218.75" font-size="12.5" text-anchor="middle" fill="#17202c">requests</text>
<rect x="202" y="289.5" width="108" height="47" rx="4" fill="#ffffff" stroke="#48546a" stroke-width="1.3"/>
<text x="256" y="309.75" font-size="12.5" text-anchor="middle" fill="#17202c">Approval</text>
<text x="256" y="324.25" font-size="12.5" text-anchor="middle" fill="#17202c">workflow</text>
<path d="M 91 410 h 92 a 8 23.5 0 0 1 0 47 h -92 a 8 23.5 0 0 1 0 -47" fill="#f4edf8" stroke="#8a53a8" stroke-width="1.3"/>
<ellipse cx="91" cy="433.5" rx="8" ry="23.5" fill="#f4edf8" stroke="#8a53a8" stroke-width="1.3"/>
<text x="141" y="430.25" font-size="12.5" text-anchor="middle" fill="#17202c">Notification</text>
<text x="141" y="444.75" font-size="12.5" text-anchor="middle" fill="#17202c">bus</text>
<path d="M 202 417 v 33 a 54 7 0 0 0 108 0 v -33" fill="#f4edf8" stroke="#8a53a8" stroke-width="1.3"/>
<ellipse cx="256" cy="417" rx="54" ry="7" fill="#f4edf8" stroke="#8a53a8" stroke-width="1.3"/>
<text x="256" y="433.75" font-size="12.5" text-anchor="middle" fill="#17202c">HR</text>
<text x="256" y="448.25" font-size="12.5" text-anchor="middle" fill="#17202c">repository</text>
<rect x="291" y="473" width="108" height="47" rx="4" fill="#f4eff8" stroke="#8659a6" stroke-width="1.2" stroke-dasharray="5 3"/>
<text x="345" y="493.25" font-size="12.5" text-anchor="middle" fill="#17202c">Payroll HRIS</text>
<text x="345" y="507.75" font-size="12.5" text-anchor="middle" fill="#17202c">(outsourced)</text>
<path d="M 218 118 L 218 142 L 238 142 L 238 184" fill="none" stroke="#5a6675" stroke-width="1.3" marker-end="url(#arr)"/>
<path d="M 238 231 L 238 289.5" fill="none" stroke="#5a6675" stroke-width="1.3" marker-end="url(#arr)"/>
<text x="200.5" y="263.5" font-size="11.5" text-anchor="middle" fill="#3a4553" font-style="italic" stroke="#ffffff" stroke-width="2.5" paint-order="stroke" stroke-linejoin="round">(internal)</text>
<path d="M 302 118 L 302 279.5 L 274 279.5 L 274 289.5" fill="none" stroke="#5a6675" stroke-width="1.3" marker-end="url(#arr)"/>
<path d="M 256 336.5 L 256 410" fill="none" stroke="#5a6675" stroke-width="1.3" marker-end="url(#arr)"/>
<text x="231.5" y="383.5" font-size="11.5" text-anchor="middle" fill="#3a4553" font-style="italic" stroke="#ffffff" stroke-width="2.5" paint-order="stroke" stroke-linejoin="round">(JDBC)</text>
<path d="M 229 336.5 L 229 361 L 199 361 L 199 400 L 155 400 L 155 410" fill="none" stroke="#5a6675" stroke-width="1.3" marker-end="url(#arr)"/>
<text x="161.5" y="383.5" font-size="11.5" text-anchor="middle" fill="#3a4553" font-style="italic" stroke="#ffffff" stroke-width="2.5" paint-order="stroke" stroke-linejoin="round">(MQ, JSON)</text>
<path d="M 119 410 L 119 61 L 115 61 L 115 22 L 218 22 L 218 64" fill="none" stroke="#5a6675" stroke-width="1.3" marker-end="url(#arr)"/>
<text x="61.5" y="44.5" font-size="11.5" text-anchor="middle" fill="#3a4553" font-style="italic" stroke="#ffffff" stroke-width="2.5" paint-order="stroke" stroke-linejoin="round">(webhook, JSON)</text>
<path d="M 283 336.5 L 283 361 L 345 361 L 345 473" fill="none" stroke="#5a6675" stroke-width="1.3" marker-end="url(#arr)"/>
<text x="304.5" y="383.5" font-size="11.5" text-anchor="middle" fill="#3a4553" font-style="italic" stroke="#ffffff" stroke-width="2.5" paint-order="stroke" stroke-linejoin="round">(SFTP, CSV)</text>
<line x1="20" y1="540" x2="389" y2="540" stroke="#e6e9ee" stroke-width="1"/>
<text x="20" y="562" font-size="11" font-weight="bold" fill="#3a4553">LEGEND</text>
<rect x="150" y="552" width="26" height="14" rx="3" fill="#e9f2fb" stroke="#1f77b4" stroke-dasharray="5 3"/>
<text x="182" y="563" font-size="10" fill="#17202c">Actor group</text>
<rect x="150" y="574" width="26" height="14" rx="3" fill="#e9f3fa" stroke="#2f83b6"/>
<text x="182" y="585" font-size="10" fill="#17202c">Application</text>
<rect x="150" y="596" width="26" height="14" rx="3" fill="#ffffff" stroke="#48546a"/>
<text x="182" y="607" font-size="10" fill="#17202c">Application module</text>
<rect x="150" y="618" width="26" height="14" rx="3" fill="#f4edf8" stroke="#8a53a8"/>
<text x="182" y="629" font-size="10" fill="#17202c">Message queue / broker</text>
<rect x="150" y="640" width="26" height="14" rx="3" fill="#f4edf8" stroke="#8a53a8"/>
<text x="182" y="651" font-size="10" fill="#17202c">Datastore / registry</text>
<rect x="150" y="662" width="26" height="14" rx="3" fill="#f4eff8" stroke="#8659a6" stroke-dasharray="5 3"/>
<text x="182" y="673" font-size="10" fill="#17202c">External system</text>
<line x1="150" y1="714" x2="176" y2="714" stroke="#5a6675" stroke-width="1.3" marker-end="url(#arr)"/>
<text x="182" y="718" font-size="10" fill="#17202c">Application flow — (protocol, format) under the label</text>
</svg>
