<svg xmlns="http://www.w3.org/2000/svg" viewBox="0 0 1265 1280" font-family="Helvetica,Arial,sans-serif">
<defs><marker id="arr" viewBox="0 0 10 10" refX="9" refY="5" markerWidth="7" markerHeight="7" orient="auto-start-reverse">
<path d="M0,0 L10,5 L0,10 z" fill="#5a6675"/></marker></defs>
<rect width="1265" height="1280" fill="#ffffff"/>
<rect x="760" y="22" width="354" height="101" rx="6" fill="#e9f2fb" stroke="#1f77b4" stroke-width="1.2" stroke-dasharray="5 3"/>
<text x="770" y="40" font-size="13" font-weight="bold" fill="#17202c">Internal teams</text>
<rect x="494" y="325" width="334" height="198.5" rx="6" fill="#e9f3fa" stroke="#2f83b6" stroke-width="1.2"/>
<text x="504" y="343" font-size="13" font-weight="bold" fill="#17202c">Sales front</text>
<rect x="549" y="603" width="277" height="188.5" rx="6" fill="#e9f3fa" stroke="#2f83b6" stroke-width="1.2"/>
<text x="559" y="621" font-size="13" font-weight="bold" fill="#17202c">Order management</text>
<rect x="472" y="163" width="254" height="83" rx="6" fill="#e9f3fa" stroke="#2f83b6" stroke-width="1.2"/>
<text x="482" y="181" font-size="13" font-weight="bold" fill="#17202c">Product repository</text>
<rect x="737" y="167" width="126" height="83" rx="6" fill="#e9f3fa" stroke="#2f83b6" stroke-width="1.2"/>
<text x="747" y="185" font-size="13" font-weight="bold" fill="#17202c">Pricing</text>
<rect x="846" y="871" width="173.5" height="198.5" rx="6" fill="#e9f3fa" stroke="#2f83b6" stroke-width="1.2"/>
<text x="856" y="889" font-size="13" font-weight="bold" fill="#17202c">Payment hub</text>
<rect x="980" y="441" width="254" height="83" rx="6" fill="#e9f3fa" stroke="#2f83b6" stroke-width="1.2"/>
<text x="990" y="459" font-size="13" font-weight="bold" fill="#17202c">Customer care</text>
<circle cx="816.5" cy="59" r="7" fill="none" stroke="#1f5e91" stroke-width="1.5"/>
<path d="M 805.5 81 q 11 -19 22 0" fill="none" stroke="#1f5e91" stroke-width="1.5"/>
<text x="816.5" y="93" font-size="11" text-anchor="middle" fill="#20364c">Merchandising</text>
<text x="816.5" y="104" font-size="11" text-anchor="middle" fill="#20364c">manager</text>
<circle cx="1042.5" cy="59" r="7" fill="none" stroke="#1f5e91" stroke-width="1.5"/>
<path d="M 1031.5 81 q 11 -19 22 0" fill="none" stroke="#1f5e91" stroke-width="1.5"/>
<text x="1042.5" y="93" font-size="11" text-anchor="middle" fill="#20364c">Customer-relations</text>
<text x="1042.5" y="104" font-size="11" text-anchor="middle" fill="#20364c">advisor</text>
<circle cx="922" cy="70" r="7" fill="none" stroke="#1f5e91" stroke-width="1.5"/>
<path d="M 911 92 q 11 -19 22 0" fill="none" stroke="#1f5e91" stroke-width="1.5"/>
<text x="922" y="104" font-size="11" text-anchor="middle" fill="#20364c">Accountant</text>
<rect x="700" y="352" width="108" height="47" rx="4" fill="#ffffff" stroke="#48546a" stroke-width="1.3"/>
<text x="754" y="372.25" font-size="12.5" text-anchor="middle" fill="#17202c">E-commerce</text>
<text x="754" y="386.75" font-size="12.5" text-anchor="middle" fill="#17202c">site</text>
<rect x="572" y="352" width="108" height="47" rx="4" fill="#ffffff" stroke="#48546a" stroke-width="1.3"/>
<text x="626" y="372.25" font-size="12.5" text-anchor="middle" fill="#17202c">Mobile</text>
<text x="626" y="386.75" font-size="12.5" text-anchor="middle" fill="#17202c">app</text>
<rect x="599" y="467.5" width="108" height="47" rx="4" fill="#ffffff" stroke="#48546a" stroke-width="1.3"/>
<text x="653" y="487.75" font-size="12.5" text-anchor="middle" fill="#17202c">Checkout</text>
<text x="653" y="502.25" font-size="12.5" text-anchor="middle" fill="#17202c">funnel</text>
<rect x="581" y="630" width="108" height="47" rx="4" fill="#ffffff" stroke="#48546a" stroke-width="1.3"/>
<text x="635" y="650.25" font-size="12.5" text-anchor="middle" fill="#17202c">Order</text>
<text x="635" y="664.75" font-size="12.5" text-anchor="middle" fill="#17202c">lifecycle</text>
<rect x="579.6666666666666" y="735.5" width="110" height="47" rx="4" fill="#ffffff" stroke="#48546a" stroke-width="1.3"/>
<text x="634.6666666666666" y="755.75" font-size="12.5" text-anchor="middle" fill="#17202c">Shipment</text>
<text x="634.6666666666666" y="770.25" font-size="12.5" text-anchor="middle" fill="#17202c">orchestration</text>
<rect x="709" y="630" width="108" height="47" rx="4" fill="#ffffff" stroke="#48546a" stroke-width="1.3"/>
<text x="763" y="650.25" font-size="12.5" text-anchor="middle" fill="#17202c">Returns and</text>
<text x="763" y="664.75" font-size="12.5" text-anchor="middle" fill="#17202c">refunds</text>
<rect x="609" y="190" width="108" height="47" rx="4" fill="#ffffff" stroke="#48546a" stroke-width="1.3"/>
<text x="663" y="210.25" font-size="12.5" text-anchor="middle" fill="#17202c">Catalog</text>
<text x="663" y="224.75" font-size="12.5" text-anchor="middle" fill="#17202c">management</text>
<rect x="481" y="190" width="108" height="47" rx="4" fill="#ffffff" stroke="#48546a" stroke-width="1.3"/>
<text x="535" y="210.25" font-size="12.5" text-anchor="middle" fill="#17202c">Media</text>
<text x="535" y="224.75" font-size="12.5" text-anchor="middle" fill="#17202c">management</text>
<rect x="746" y="194" width="108" height="47" rx="4" fill="#ffffff" stroke="#48546a" stroke-width="1.3"/>
<text x="800" y="214.25" font-size="12.5" text-anchor="middle" fill="#17202c">Pricing-rule</text>
<text x="800" y="228.75" font-size="12.5" text-anchor="middle" fill="#17202c">engine</text>
<rect x="900.5" y="898" width="110" height="47" rx="4" fill="#ffffff" stroke="#48546a" stroke-width="1.3"/>
<text x="955.5" y="918.25" font-size="12.5" text-anchor="middle" fill="#17202c">Payment</text>
<text x="955.5" y="932.75" font-size="12.5" text-anchor="middle" fill="#17202c">orchestration</text>
<rect x="874" y="1013.5" width="108" height="47" rx="4" fill="#ffffff" stroke="#48546a" stroke-width="1.3"/>
<text x="928" y="1033.75" font-size="12.5" text-anchor="middle" fill="#17202c">Anti-fraud</text>
<text x="928" y="1048.25" font-size="12.5" text-anchor="middle" fill="#17202c">scoring</text>
<rect x="989" y="468" width="108" height="47" rx="4" fill="#ffffff" stroke="#48546a" stroke-width="1.3"/>
<text x="1043" y="488.25" font-size="12.5" text-anchor="middle" fill="#17202c">Ticket</text>
<text x="1043" y="502.75" font-size="12.5" text-anchor="middle" fill="#17202c">management</text>
<rect x="1117" y="468" width="108" height="47" rx="4" fill="#ffffff" stroke="#48546a" stroke-width="1.3"/>
<text x="1171" y="488.25" font-size="12.5" text-anchor="middle" fill="#17202c">Customer</text>
<text x="1171" y="502.75" font-size="12.5" text-anchor="middle" fill="#17202c">self-care</text>
<path d="M 609 856 h 92 a 8 23.5 0 0 1 0 47 h -92 a 8 23.5 0 0 1 0 -47" fill="#f4edf8" stroke="#8a53a8" stroke-width="1.3"/>
<ellipse cx="609" cy="879.5" rx="8" ry="23.5" fill="#f4edf8" stroke="#8a53a8" stroke-width="1.3"/>
<text x="659" y="876.25" font-size="12.5" text-anchor="middle" fill="#17202c">Order</text>
<text x="659" y="890.75" font-size="12.5" text-anchor="middle" fill="#17202c">event bus</text>
<path d="M 352 863 v 33 a 54 7 0 0 0 108 0 v -33" fill="#f4edf8" stroke="#8a53a8" stroke-width="1.3"/>
<ellipse cx="406" cy="863" rx="54" ry="7" fill="#f4edf8" stroke="#8a53a8" stroke-width="1.3"/>
<text x="406" y="879.75" font-size="12.5" text-anchor="middle" fill="#17202c">Data</text>
<text x="406" y="894.25" font-size="12.5" text-anchor="middle" fill="#17202c">warehouse</text>
<path d="M 1117 587 v 33 a 54 7 0 0 0 108 0 v -33" fill="#f4edf8" stroke="#8a53a8" stroke-width="1.3"/>
<ellipse cx="1171" cy="587" rx="54" ry="7" fill="#f4edf8" stroke="#8a53a8" stroke-width="1.3"/>
<text x="1171" y="603.75" font-size="12.5" text-anchor="middle" fill="#17202c">Customer</text>
<text x="1171" y="618.25" font-size="12.5" text-anchor="middle" fill="#17202c">repository</text>
<rect x="789" y="1150" width="108" height="38" rx="4" fill="#f4eff8" stroke="#8659a6" stroke-width="1.2" stroke-dasharray="5 3"/>
<text x="843" y="1173" font-size="12.5" text-anchor="middle" fill="#17202c">PSP</text>
<rect x="486" y="919" width="108" height="47" rx="4" fill="#f4eff8" stroke="#8659a6" stroke-width="1.2" stroke-dasharray="5 3"/>
<text x="540" y="939.25" font-size="12.5" text-anchor="middle" fill="#17202c">Carrier</text>
<text x="540" y="953.75" font-size="12.5" text-anchor="middle" fill="#17202c">platforms</text>
<rect x="53" y="637" width="108" height="47" rx="4" fill="#f4eff8" stroke="#8659a6" stroke-width="1.2" stroke-dasharray="5 3"/>
<text x="107" y="657.25" font-size="12.5" text-anchor="middle" fill="#17202c">Group</text>
<text x="107" y="671.75" font-size="12.5" text-anchor="middle" fill="#17202c">ERP</text>
<path d="M 816.5 114 L 817 128 L 817 148 L 805 148 A 5 5 0 0 0 795 148 L 663 148 L 663 190" fill="none" stroke="#5a6675" stroke-width="1.3" marker-end="url(#arr)"/>
<path d="M 663 237 L 663 261 L 548 261 L 548 300 L 754 300 L 754 352" fill="none" stroke="#5a6675" stroke-width="1.3" marker-end="url(#arr)"/>
<text x="606" y="283.5" font-size="11.5" text-anchor="middle" fill="#3a4553" font-style="italic" stroke="#ffffff" stroke-width="2.5" paint-order="stroke" stroke-linejoin="round">(API_REST, JSON)</text>
<path d="M 535 237 L 535 310 L 727 310 L 727 352" fill="none" stroke="#5a6675" stroke-width="1.3" marker-end="url(#arr)"/>
<text x="491" y="293.5" font-size="11.5" text-anchor="middle" fill="#3a4553" font-style="italic" stroke="#ffffff" stroke-width="2.5" paint-order="stroke" stroke-linejoin="round">(CDN, HTTPS)</text>
<path d="M 782 241 L 782 300 L 781 300 L 781 352" fill="none" stroke="#5a6675" stroke-width="1.3" marker-end="url(#arr)"/>
<text x="725" y="283.5" font-size="11.5" text-anchor="middle" fill="#3a4553" font-style="italic" stroke="#ffffff" stroke-width="2.5" paint-order="stroke" stroke-linejoin="round">(API_REST, JSON)</text>
<path d="M 818 241 L 818 457.5 L 680 457.5 L 680 467.5" fill="none" stroke="#5a6675" stroke-width="1.3" marker-end="url(#arr)"/>
<text x="876" y="283.5" font-size="11.5" text-anchor="middle" fill="#3a4553" font-style="italic" stroke="#ffffff" stroke-width="2.5" paint-order="stroke" stroke-linejoin="round">(API_REST, JSON)</text>
<path d="M 89 637 L 89 138 L 800 138 L 800 194" fill="none" stroke="#5a6675" stroke-width="1.3" marker-end="url(#arr)"/>
<text x="48.5" y="174.5" font-size="11.5" text-anchor="middle" fill="#3a4553" font-style="italic" stroke="#ffffff" stroke-width="2.5" paint-order="stroke" stroke-linejoin="round">(SFTP, CSV)</text>
<path d="M 772 399 L 772 447.5 L 653 447.5 L 653 467.5" fill="none" stroke="#5a6675" stroke-width="1.3" marker-end="url(#arr)"/>
<text x="734.5" y="431.5" font-size="11.5" text-anchor="middle" fill="#3a4553" font-style="italic" stroke="#ffffff" stroke-width="2.5" paint-order="stroke" stroke-linejoin="round">(internal)</text>
<path d="M 626 399 L 626 467.5" fill="none" stroke="#5a6675" stroke-width="1.3" marker-end="url(#arr)"/>
<text x="569" y="431.5" font-size="11.5" text-anchor="middle" fill="#3a4553" font-style="italic" stroke="#ffffff" stroke-width="2.5" paint-order="stroke" stroke-linejoin="round">(API_REST, JSON)</text>
<path d="M 635 514.5 L 635 630" fill="none" stroke="#5a6675" stroke-width="1.3" marker-end="url(#arr)"/>
<text x="597.5" y="561.5" font-size="11.5" text-anchor="middle" fill="#3a4553" font-style="italic" stroke="#ffffff" stroke-width="2.5" paint-order="stroke" stroke-linejoin="round">(MQ, JSON)</text>
<path d="M 671 514.5 L 671 549 L 758 549 A 5 5 0 0 1 768 549 L 958 549 L 958 807 L 967 807 L 966.5 866 L 966.5 898" fill="none" stroke="#5a6675" stroke-width="1.3" marker-end="url(#arr)"/>
<text x="901" y="790.5" font-size="11.5" text-anchor="middle" fill="#3a4553" font-style="italic" stroke="#ffffff" stroke-width="2.5" paint-order="stroke" stroke-linejoin="round">(API_REST, JSON)</text>
<path d="M 928 945 L 928 1013.5" fill="none" stroke="#5a6675" stroke-width="1.3" marker-end="url(#arr)"/>
<text x="890.5" y="987.5" font-size="11.5" text-anchor="middle" fill="#3a4553" font-style="italic" stroke="#ffffff" stroke-width="2.5" paint-order="stroke" stroke-linejoin="round">(internal)</text>
<path d="M 983 945 L 983 955 L 1003 955 L 1003 1105 L 861 1105 L 861 1150" fill="none" stroke="#5a6675" stroke-width="1.3" marker-end="url(#arr)"/>
<text x="919" y="1127.5" font-size="11.5" text-anchor="middle" fill="#3a4553" font-style="italic" stroke="#ffffff" stroke-width="2.5" paint-order="stroke" stroke-linejoin="round">(API_REST, JSON)</text>
<path d="M 825 1150 L 825 856 L 831 856 A 5 5 0 0 1 841 856 L 923 856 L 922.5 866 L 922.5 898" fill="none" stroke="#5a6675" stroke-width="1.3" marker-end="url(#arr)"/>
<text x="771.5" y="878.5" font-size="11.5" text-anchor="middle" fill="#3a4553" font-style="italic" stroke="#ffffff" stroke-width="2.5" paint-order="stroke" stroke-linejoin="round">(webhook, JSON)</text>
<path d="M 955.5 945 L 955.5 965 L 992 965 L 992 1085 L 836 1085 L 836 588 L 768 588 A 5 5 0 0 0 758 588 L 662 588 L 662 630" fill="none" stroke="#5a6675" stroke-width="1.3" marker-end="url(#arr)"/>
<text x="798.5" y="839.5" font-size="11.5" text-anchor="middle" fill="#3a4553" font-style="italic" stroke="#ffffff" stroke-width="2.5" paint-order="stroke" stroke-linejoin="round">(MQ, JSON)</text>
<path d="M 653 677 L 653 735.5" fill="none" stroke="#5a6675" stroke-width="1.3" marker-end="url(#arr)"/>
<text x="615.5" y="709.5" font-size="11.5" text-anchor="middle" fill="#3a4553" font-style="italic" stroke="#ffffff" stroke-width="2.5" paint-order="stroke" stroke-linejoin="round">(internal)</text>
<path d="M 616.3333333333334 782.5 L 616 796.5 L 616 807 L 558 807 L 558 919" fill="none" stroke="#5a6675" stroke-width="1.3" marker-end="url(#arr)"/>
<text x="616" y="829.5" font-size="11.5" text-anchor="middle" fill="#3a4553" font-style="italic" stroke="#ffffff" stroke-width="2.5" paint-order="stroke" stroke-linejoin="round">(API_REST, JSON)</text>
<path d="M 522 919 L 522 850 L 539 850 L 539 588 L 569 588 L 569 725.5 L 616.3333333333334 725.5 L 616.3333333333334 735.5" fill="none" stroke="#5a6675" stroke-width="1.3" marker-end="url(#arr)"/>
<text x="485.5" y="833.5" font-size="11.5" text-anchor="middle" fill="#3a4553" font-style="italic" stroke="#ffffff" stroke-width="2.5" paint-order="stroke" stroke-linejoin="round">(webhook, JSON)</text>
<path d="M 653 782.5 L 653 807 L 753 807 L 753 846 L 655 846 L 655 856" fill="none" stroke="#5a6675" stroke-width="1.3" marker-end="url(#arr)"/>
<text x="715.5" y="829.5" font-size="11.5" text-anchor="middle" fill="#3a4553" font-style="italic" stroke="#ffffff" stroke-width="2.5" paint-order="stroke" stroke-linejoin="round">(MQ, JSON)</text>
<path d="M 655 903 L 655 1095 L 820 1095 A 5 5 0 0 1 830 1095 L 998 1095 A 5 5 0 0 1 1008 1095 L 1254 1095 L 1254 426 L 1171 426 L 1171 468" fill="none" stroke="#5a6675" stroke-width="1.3" marker-end="url(#arr)"/>
<text x="1216.5" y="557.5" font-size="11.5" text-anchor="middle" fill="#3a4553" font-style="italic" stroke="#ffffff" stroke-width="2.5" paint-order="stroke" stroke-linejoin="round">(MQ, JSON)</text>
<path d="M 1042.5 114 L 1043 128 L 1043 468" fill="none" stroke="#5a6675" stroke-width="1.3" marker-end="url(#arr)"/>
<path d="M 1043 515 L 1043 539 L 974 539 A 5 5 0 0 0 964 539 L 763 539 L 763 630" fill="none" stroke="#5a6675" stroke-width="1.3" marker-end="url(#arr)"/>
<text x="706" y="571.5" font-size="11.5" text-anchor="middle" fill="#3a4553" font-style="italic" stroke="#ffffff" stroke-width="2.5" paint-order="stroke" stroke-linejoin="round">(API_REST, JSON)</text>
<path d="M 763 677 L 763 807 L 831 807 A 5 5 0 0 1 841 807 L 874 807 L 874 846 L 945 846 L 944.5 866 L 944.5 898" fill="none" stroke="#5a6675" stroke-width="1.3" marker-end="url(#arr)"/>
<text x="912.5" y="829.5" font-size="11.5" text-anchor="middle" fill="#3a4553" font-style="italic" stroke="#ffffff" stroke-width="2.5" paint-order="stroke" stroke-linejoin="round">(MQ, JSON)</text>
<path d="M 1171 515 L 1171 580" fill="none" stroke="#5a6675" stroke-width="1.3" marker-end="url(#arr)"/>
<text x="1146.5" y="557.5" font-size="11.5" text-anchor="middle" fill="#3a4553" font-style="italic" stroke="#ffffff" stroke-width="2.5" paint-order="stroke" stroke-linejoin="round">(JDBC)</text>
<path d="M 617 677 L 617 687 L 574 687 A 5 5 0 0 0 564 687 L 558 687 L 558 807 L 544 807 A 5 5 0 0 0 534 807 L 424 807 L 424 856" fill="none" stroke="#5a6675" stroke-width="1.3" marker-end="url(#arr)"/>
<text x="367" y="829.5" font-size="11.5" text-anchor="middle" fill="#3a4553" font-style="italic" stroke="#ffffff" stroke-width="2.5" paint-order="stroke" stroke-linejoin="round">(batch, parquet)</text>
<path d="M 736 399 L 736 409 L 631 409 A 5 5 0 0 0 621 409 L 503 409 L 503 539 L 301 539 L 301 846 L 388 846 L 388 856" fill="none" stroke="#5a6675" stroke-width="1.3" marker-end="url(#arr)"/>
<text x="241" y="600.5" font-size="11.5" text-anchor="middle" fill="#3a4553" font-style="italic" stroke="#ffffff" stroke-width="2.5" paint-order="stroke" stroke-linejoin="round">(streaming, avro)</text>
<path d="M 922 114 L 922 261 L 969 261 L 969 856 L 989 856 L 988.5 866 L 988.5 898" fill="none" stroke="#5a6675" stroke-width="1.3" marker-end="url(#arr)"/>
<path d="M 125 637 L 125 627 L 173 627 L 173 578 L 296 578 A 5 5 0 0 1 306 578 L 608 578 L 608 630" fill="none" stroke="#5a6675" stroke-width="1.3" marker-end="url(#arr)"/>
<text x="135.5" y="610.5" font-size="11.5" text-anchor="middle" fill="#3a4553" font-style="italic" stroke="#ffffff" stroke-width="2.5" paint-order="stroke" stroke-linejoin="round">(MQ, JSON)</text>
<line x1="20" y1="1208" x2="1245" y2="1208" stroke="#e6e9ee" stroke-width="1"/>
<text x="20" y="1230" font-size="11" font-weight="bold" fill="#3a4553">LEGEND</text>
<rect x="150" y="1220" width="26" height="14" rx="3" fill="#e9f2fb" stroke="#1f77b4" stroke-dasharray="5 3"/>
<text x="182" y="1231" font-size="10" fill="#17202c">Actor group</text>
<rect x="272" y="1220" width="26" height="14" rx="3" fill="#e9f3fa" stroke="#2f83b6"/>
<text x="304" y="1231" font-size="10" fill="#17202c">Application</text>
<rect x="394" y="1220" width="26" height="14" rx="3" fill="#ffffff" stroke="#48546a"/>
<text x="426" y="1231" font-size="10" fill="#17202c">Application module</text>
<rect x="552" y="1220" width="26" height="14" rx="3" fill="#f4edf8" stroke="#8a53a8"/>
<text x="584" y="1231" font-size="10" fill="#17202c">Message queue / broker</text>
<rect x="731" y="1220" width="26" height="14" rx="3" fill="#f4edf8" stroke="#8a53a8"/>
<text x="763" y="1231" font-size="10" fill="#17202c">Datastore / registry</text>
<rect x="899" y="1220" width="26" height="14" rx="3" fill="#f4eff8" stroke="#8659a6" stroke-dasharray="5 3"/>
<text x="931" y="1231" font-size="10" fill="#17202c">External system</text>
<line x1="150" y1="1250" x2="176" y2="1250" stroke="#5a6675" stroke-width="1.3" marker-end="url(#arr)"/>
<text x="182" y="1254" font-size="10" fill="#17202c">Application flow — (protocol, format) under the label</text>
</svg>
