<svg xmlns="http://www.w3.org/2000/svg" viewBox="0 0 1238 735" font-family="Helvetica,Arial,sans-serif">
<defs><marker id="arr" viewBox="0 0 10 10" refX="9" refY="5" markerWidth="7" markerHeight="7" orient="auto-start-reverse">
<path d="M0,0 L10,5 L0,10 z" fill="#444444"/></marker></defs>
<rect width="1238" height="735" fill="white"/>
<rect x="10" y="221" width="113" height="181" rx="6" fill="#eef4fb" stroke="#7a9cc4" stroke-width="1.2" stroke-dasharray="5 3"/>
<text x="20" y="239" font-size="12" font-weight="bold" fill="#333">Managers</text>
<rect x="848" y="319" width="144" height="154" rx="6" fill="#e8f1f8" stroke="#5b8db8" stroke-width="1.2"/>
<text x="858" y="337" font-size="12" font-weight="bold" fill="#333">CRM</text>
<rect x="366" y="125" width="347" height="195" rx="6" fill="#e8f1f8" stroke="#5b8db8" stroke-width="1.2"/>
<text x="376" y="143" font-size="12" font-weight="bold" fill="#333">Billing</text>
<rect x="842" y="22" width="351" height="120" rx="6" fill="#e8f1f8" stroke="#5b8db8" stroke-width="1.2"/>
<text x="852" y="40" font-size="12" font-weight="bold" fill="#333">Accounting</text>
<circle cx="77.5" cy="259" r="7" fill="none" stroke="#445566" stroke-width="1.5"/>
<path d="M 66.5 281 q 11 -19 22 0" fill="none" stroke="#445566" stroke-width="1.5"/>
<text x="77.5" y="293" font-size="10" text-anchor="middle" fill="#223344">Accountant</text>
<circle cx="66.5" cy="335" r="7" fill="none" stroke="#445566" stroke-width="1.5"/>
<path d="M 55.5 357 q 11 -19 22 0" fill="none" stroke="#445566" stroke-width="1.5"/>
<text x="66.5" y="369" font-size="10" text-anchor="middle" fill="#223344">Sales</text>
<text x="66.5" y="380" font-size="10" text-anchor="middle" fill="#223344">administration</text>
<rect x="858" y="347" width="124" height="48" rx="4" fill="#ffffff" stroke="#5b7a99" stroke-width="1.3"/>
<text x="920" y="368.25" font-size="11.5" text-anchor="middle" fill="#222233">Customer-account</text>
<text x="920" y="381.75" font-size="11.5" text-anchor="middle" fill="#222233">management</text>
<rect x="864" y="415" width="112" height="48" rx="4" fill="#ffffff" stroke="#5b7a99" stroke-width="1.3"/>
<text x="920" y="436.25" font-size="11.5" text-anchor="middle" fill="#222233">Contract</text>
<text x="920" y="449.75" font-size="11.5" text-anchor="middle" fill="#222233">management</text>
<rect x="376" y="194" width="112" height="48" rx="4" fill="#ffffff" stroke="#5b7a99" stroke-width="1.3"/>
<text x="432" y="215.25" font-size="11.5" text-anchor="middle" fill="#222233">Billing</text>
<text x="432" y="228.75" font-size="11.5" text-anchor="middle" fill="#222233">engine</text>
<rect x="586" y="194" width="117" height="48" rx="4" fill="#ffffff" stroke="#5b7a99" stroke-width="1.3"/>
<text x="644.5" y="215.25" font-size="11.5" text-anchor="middle" fill="#222233">Invoice issuing</text>
<text x="644.5" y="228.75" font-size="11.5" text-anchor="middle" fill="#222233">and sending</text>
<rect x="376" y="262" width="112" height="48" rx="4" fill="#ffffff" stroke="#5b7a99" stroke-width="1.3"/>
<text x="432" y="283.25" font-size="11.5" text-anchor="middle" fill="#222233">Dunning and</text>
<text x="432" y="296.75" font-size="11.5" text-anchor="middle" fill="#222233">collection</text>
<rect x="1071" y="58.33333333333333" width="112" height="40" rx="4" fill="#ffffff" stroke="#5b7a99" stroke-width="1.3"/>
<text x="1127" y="82.33333333333333" font-size="11.5" text-anchor="middle" fill="#222233">General ledger</text>
<rect x="852" y="61" width="112" height="48" rx="4" fill="#ffffff" stroke="#5b7a99" stroke-width="1.3"/>
<text x="908" y="82.25" font-size="11.5" text-anchor="middle" fill="#222233">Accounts</text>
<text x="908" y="95.75" font-size="11.5" text-anchor="middle" fill="#222233">receivable</text>
<path d="M 1116 354 v 34 a 56 7 0 0 0 112 0 v -34" fill="#f3eef8" stroke="#8a6fae" stroke-width="1.3"/>
<ellipse cx="1172" cy="354" rx="56" ry="7" fill="#f3eef8" stroke="#8a6fae" stroke-width="1.3"/>
<text x="1172" y="371.75" font-size="11.5" text-anchor="middle" fill="#222233">Customer</text>
<text x="1172" y="385.25" font-size="11.5" text-anchor="middle" fill="#222233">repository</text>
<path d="M 148 193 v 34 a 56 7 0 0 0 112 0 v -34" fill="#f3eef8" stroke="#8a6fae" stroke-width="1.3"/>
<ellipse cx="204" cy="193" rx="56" ry="7" fill="#f3eef8" stroke="#8a6fae" stroke-width="1.3"/>
<text x="204" y="210.75" font-size="11.5" text-anchor="middle" fill="#222233">Offer</text>
<text x="204" y="224.25" font-size="11.5" text-anchor="middle" fill="#222233">catalog</text>
<rect x="922" y="253" width="112" height="48" rx="4" fill="#f0eef5" stroke="#9187b3" stroke-width="1.2" stroke-dasharray="5 3"/>
<text x="978" y="274.25" font-size="11.5" text-anchor="middle" fill="#222233">Partner EDI</text>
<text x="978" y="287.75" font-size="11.5" text-anchor="middle" fill="#222233">platform</text>
<rect x="922" y="194" width="149" height="48" rx="4" fill="#f0eef5" stroke="#9187b3" stroke-width="1.2" stroke-dasharray="5 3"/>
<text x="996.5" y="215.25" font-size="11.5" text-anchor="middle" fill="#222233">Electronic-invoicing</text>
<text x="996.5" y="228.75" font-size="11.5" text-anchor="middle" fill="#222233">portal (PPF)</text>
<path d="M 113 358.5 L 128 359 L 268 359 L 268 439 L 346 439 A 5 5 0 0 1 356 439 L 864 439" fill="none" stroke="#444444" stroke-width="1.3" marker-end="url(#arr)"/>
<text x="309.5" y="453.5" font-size="10.5" text-anchor="middle" fill="#333" font-style="italic" stroke="white" stroke-width="2.5" paint-order="stroke" stroke-linejoin="round">Enter and</text>
<text x="309.5" y="467" font-size="10.5" text-anchor="middle" fill="#333" font-style="italic" stroke="white" stroke-width="2.5" paint-order="stroke" stroke-linejoin="round">update</text>
<text x="309.5" y="480.5" font-size="10.5" text-anchor="middle" fill="#333" font-style="italic" stroke="white" stroke-width="2.5" paint-order="stroke" stroke-linejoin="round">contracts</text>
<rect x="280" y="488.5" width="59" height="15" rx="7.5" fill="#fdf3d8" stroke="#c9a227" stroke-width="1"/>
<text x="309.5" y="499.5" font-size="9.5" text-anchor="middle" fill="#7a6216" font-weight="bold">Contract</text>
<path d="M 982 371 L 1116 371" fill="none" stroke="#444444" stroke-width="1.3" marker-end="url(#arr)"/>
<text x="1056.5" y="385.5" font-size="10.5" text-anchor="middle" fill="#333" font-style="italic" stroke="white" stroke-width="2.5" paint-order="stroke" stroke-linejoin="round">Sync customer</text>
<text x="1056.5" y="399" font-size="10.5" text-anchor="middle" fill="#333" font-style="italic" stroke="white" stroke-width="2.5" paint-order="stroke" stroke-linejoin="round">accounts</text>
<text x="1056.5" y="412.5" font-size="9" text-anchor="middle" fill="#777" stroke="white" stroke-width="2.5" paint-order="stroke" stroke-linejoin="round">(API_REST, JSON)</text>
<path d="M 976 439 L 1007 439 L 1007 483 L 351 483 L 351 226 L 376 226" fill="none" stroke="#444444" stroke-width="1.3" marker-end="url(#arr)"/>
<text x="884.5" y="497.5" font-size="10.5" text-anchor="middle" fill="#333" font-style="italic" stroke="white" stroke-width="2.5" paint-order="stroke" stroke-linejoin="round">Contractual</text>
<text x="884.5" y="511" font-size="10.5" text-anchor="middle" fill="#333" font-style="italic" stroke="white" stroke-width="2.5" paint-order="stroke" stroke-linejoin="round">items to bill</text>
<text x="884.5" y="524.5" font-size="9" text-anchor="middle" fill="#777" stroke="white" stroke-width="2.5" paint-order="stroke" stroke-linejoin="round">(MQ, JSON)</text>
<rect x="855" y="531" width="59" height="15" rx="7.5" fill="#fdf3d8" stroke="#c9a227" stroke-width="1"/>
<text x="884.5" y="542" font-size="9.5" text-anchor="middle" fill="#7a6216" font-weight="bold">Contract</text>
<path d="M 260 210 L 376 210" fill="none" stroke="#444444" stroke-width="1.3" marker-end="url(#arr)"/>
<text x="308.5" y="224.5" font-size="10.5" text-anchor="middle" fill="#333" font-style="italic" stroke="white" stroke-width="2.5" paint-order="stroke" stroke-linejoin="round">Prices and</text>
<text x="308.5" y="238" font-size="10.5" text-anchor="middle" fill="#333" font-style="italic" stroke="white" stroke-width="2.5" paint-order="stroke" stroke-linejoin="round">terms</text>
<text x="308.5" y="251.5" font-size="9" text-anchor="middle" fill="#777" stroke="white" stroke-width="2.5" paint-order="stroke" stroke-linejoin="round">(JDBC)</text>
<path d="M 488 218 L 586 218" fill="none" stroke="#444444" stroke-width="1.3" marker-end="url(#arr)"/>
<text x="537" y="164.5" font-size="10.5" text-anchor="middle" fill="#333" font-style="italic" stroke="white" stroke-width="2.5" paint-order="stroke" stroke-linejoin="round">Computed</text>
<text x="537" y="178" font-size="10.5" text-anchor="middle" fill="#333" font-style="italic" stroke="white" stroke-width="2.5" paint-order="stroke" stroke-linejoin="round">invoices</text>
<text x="537" y="191.5" font-size="9" text-anchor="middle" fill="#777" stroke="white" stroke-width="2.5" paint-order="stroke" stroke-linejoin="round">(MQ, JSON)</text>
<rect x="510" y="198" width="54" height="15" rx="7.5" fill="#fdf3d8" stroke="#c9a227" stroke-width="1"/>
<text x="537" y="209" font-size="9.5" text-anchor="middle" fill="#7a6216" font-weight="bold">Invoice</text>
<path d="M 703 230 L 728 230 L 728 228 L 912 228 L 912 277 L 922 277" fill="none" stroke="#444444" stroke-width="1.3" marker-end="url(#arr)"/>
<text x="872.5" y="242.5" font-size="10.5" text-anchor="middle" fill="#333" font-style="italic" stroke="white" stroke-width="2.5" paint-order="stroke" stroke-linejoin="round">Submit</text>
<text x="872.5" y="256" font-size="10.5" text-anchor="middle" fill="#333" font-style="italic" stroke="white" stroke-width="2.5" paint-order="stroke" stroke-linejoin="round">paperless</text>
<text x="872.5" y="269.5" font-size="10.5" text-anchor="middle" fill="#333" font-style="italic" stroke="white" stroke-width="2.5" paint-order="stroke" stroke-linejoin="round">invoices</text>
<text x="872.5" y="283" font-size="9" text-anchor="middle" fill="#777" stroke="white" stroke-width="2.5" paint-order="stroke" stroke-linejoin="round">(AS4, UBL)</text>
<rect x="845.5" y="289.5" width="54" height="15" rx="7.5" fill="#fdf3d8" stroke="#c9a227" stroke-width="1"/>
<text x="872.5" y="300.5" font-size="9.5" text-anchor="middle" fill="#7a6216" font-weight="bold">Invoice</text>
<path d="M 703 218 L 922 218" fill="none" stroke="#444444" stroke-width="1.3" marker-end="url(#arr)"/>
<text x="789" y="164.5" font-size="10.5" text-anchor="middle" fill="#333" font-style="italic" stroke="white" stroke-width="2.5" paint-order="stroke" stroke-linejoin="round">Regulatory</text>
<text x="789" y="178" font-size="10.5" text-anchor="middle" fill="#333" font-style="italic" stroke="white" stroke-width="2.5" paint-order="stroke" stroke-linejoin="round">transmission</text>
<text x="789" y="191.5" font-size="9" text-anchor="middle" fill="#777" stroke="white" stroke-width="2.5" paint-order="stroke" stroke-linejoin="round">(API_REST, FacturX)</text>
<rect x="762" y="198" width="54" height="15" rx="7.5" fill="#fdf3d8" stroke="#c9a227" stroke-width="1"/>
<text x="789" y="209" font-size="9.5" text-anchor="middle" fill="#7a6216" font-weight="bold">Invoice</text>
<path d="M 703 206 L 728 206 L 728 85 L 852 85" fill="none" stroke="#444444" stroke-width="1.3" marker-end="url(#arr)"/>
<text x="779.5" y="99.5" font-size="10.5" text-anchor="middle" fill="#333" font-style="italic" stroke="white" stroke-width="2.5" paint-order="stroke" stroke-linejoin="round">Sales entries</text>
<text x="779.5" y="113" font-size="9" text-anchor="middle" fill="#777" stroke="white" stroke-width="2.5" paint-order="stroke" stroke-linejoin="round">(MQ, JSON)</text>
<path d="M 488 286 L 833 286 L 833 371 L 858 371" fill="none" stroke="#444444" stroke-width="1.3" marker-end="url(#arr)"/>
<text x="778.5" y="300.5" font-size="10.5" text-anchor="middle" fill="#333" font-style="italic" stroke="white" stroke-width="2.5" paint-order="stroke" stroke-linejoin="round">Customer</text>
<text x="778.5" y="314" font-size="10.5" text-anchor="middle" fill="#333" font-style="italic" stroke="white" stroke-width="2.5" paint-order="stroke" stroke-linejoin="round">dunning status</text>
<text x="778.5" y="327.5" font-size="9" text-anchor="middle" fill="#777" stroke="white" stroke-width="2.5" paint-order="stroke" stroke-linejoin="round">(API_REST, JSON)</text>
<path d="M 964 85 L 1071 85" fill="none" stroke="#444444" stroke-width="1.3" marker-end="url(#arr)"/>
<text x="1017.5" y="99.5" font-size="10.5" text-anchor="middle" fill="#333" font-style="italic" stroke="white" stroke-width="2.5" paint-order="stroke" stroke-linejoin="round">Accounting</text>
<text x="1017.5" y="113" font-size="10.5" text-anchor="middle" fill="#333" font-style="italic" stroke="white" stroke-width="2.5" paint-order="stroke" stroke-linejoin="round">posting</text>
<text x="1017.5" y="126.5" font-size="9" text-anchor="middle" fill="#777" stroke="white" stroke-width="2.5" paint-order="stroke" stroke-linejoin="round">(batch, CSV)</text>
<path d="M 113 267.6666666666667 L 128 268 L 138 268 L 138 50 L 1061 49.99999999999997 L 1061 71.66666666666666 L 1071 71.66666666666666" fill="none" stroke="#444444" stroke-width="1.3" marker-end="url(#arr)"/>
<text x="679.5" y="64.5" font-size="10.5" text-anchor="middle" fill="#333" font-style="italic" stroke="white" stroke-width="2.5" paint-order="stroke" stroke-linejoin="round">Controls and</text>
<text x="679.5" y="78" font-size="10.5" text-anchor="middle" fill="#333" font-style="italic" stroke="white" stroke-width="2.5" paint-order="stroke" stroke-linejoin="round">closings</text>
<path d="M 113 286.3333333333333 L 128 286 L 346 286 A 5 5 0 0 1 356 286 L 376 286" fill="none" stroke="#444444" stroke-width="1.3" marker-end="url(#arr)"/>
<text x="180.5" y="263.5" font-size="10.5" text-anchor="middle" fill="#333" font-style="italic" stroke="white" stroke-width="2.5" paint-order="stroke" stroke-linejoin="round">Steer</text>
<text x="180.5" y="277" font-size="10.5" text-anchor="middle" fill="#333" font-style="italic" stroke="white" stroke-width="2.5" paint-order="stroke" stroke-linejoin="round">collection</text>
<line x1="20" y1="569" x2="1218" y2="569" stroke="#ddd" stroke-width="1"/>
<text x="20" y="591" font-size="11" font-weight="bold" fill="#555">BUSINESS OBJECTS</text>
<rect x="150" y="581" width="54" height="15" rx="7.5" fill="#fdf3d8" stroke="#c9a227"/>
<text x="177" y="592" font-size="9.5" text-anchor="middle" fill="#7a6216" font-weight="bold">Invoice</text>
<text x="214" y="592" font-size="10" fill="#666">— billing document issued to a customer</text>
<rect x="150" y="605" width="59" height="15" rx="7.5" fill="#fdf3d8" stroke="#c9a227"/>
<text x="179.5" y="616" font-size="9.5" text-anchor="middle" fill="#7a6216" font-weight="bold">Contract</text>
<text x="219" y="616" font-size="10" fill="#666">— active commercial commitment of a customer</text>
<line x1="20" y1="643" x2="1218" y2="643" stroke="#ddd" stroke-width="1"/>
<text x="20" y="665" font-size="11" font-weight="bold" fill="#555">LEGEND</text>
<rect x="150" y="655" width="26" height="14" rx="3" fill="#eef4fb" stroke="#7a9cc4" stroke-dasharray="5 3"/>
<text x="182" y="666" font-size="10" fill="#444">Actor group</text>
<rect x="272" y="655" width="26" height="14" rx="3" fill="#e8f1f8" stroke="#5b8db8"/>
<text x="304" y="666" font-size="10" fill="#444">Application</text>
<rect x="394" y="655" width="26" height="14" rx="3" fill="#ffffff" stroke="#5b7a99"/>
<text x="426" y="666" font-size="10" fill="#444">Application module</text>
<rect x="552" y="655" width="26" height="14" rx="3" fill="#f3eef8" stroke="#8a6fae"/>
<text x="584" y="666" font-size="10" fill="#444">Datastore / registry</text>
<rect x="720" y="655" width="26" height="14" rx="3" fill="#f0eef5" stroke="#9187b3" stroke-dasharray="5 3"/>
<text x="752" y="666" font-size="10" fill="#444">External system</text>
<line x1="150" y1="685" x2="176" y2="685" stroke="#444444" stroke-width="1.3" marker-end="url(#arr)"/>
<text x="182" y="689" font-size="10" fill="#444">Application flow — (protocol, format) under the label</text>
<rect x="480" y="678" width="96" height="15" rx="7.5" fill="#fdf3d8" stroke="#c9a227"/>
<text x="528" y="689" font-size="9.5" text-anchor="middle" fill="#7a6216" font-weight="bold">Business object</text>
<text x="584" y="689" font-size="10" fill="#444">carried by the flow</text>
<text x="150" y="713" font-size="10" fill="#444" font-style="italic">Factur-X mandatory since the electronic-invoicing reform</text>
</svg>
