<svg xmlns="http://www.w3.org/2000/svg" viewBox="0 0 401 749" font-family="Helvetica,Arial,sans-serif">
<defs><marker id="arr" viewBox="0 0 10 10" refX="9" refY="5" markerWidth="7" markerHeight="7" orient="auto-start-reverse">
<path d="M0,0 L10,5 L0,10 z" fill="#5a6675"/></marker></defs>
<rect width="401" height="749" fill="#ffffff"/>
<rect x="54.971822427037864" y="22" width="166" height="90" rx="6" fill="#e9f2fb" stroke="#1f77b4" stroke-width="1.2" stroke-dasharray="5 3"/>
<text x="64.97182242703786" y="40" font-size="13" font-weight="bold" fill="#17202c">HR actors</text>
<rect x="86.97182242703786" y="142" width="184" height="188.5" rx="6" fill="#e9f3fa" stroke="#2f83b6" stroke-width="1.2"/>
<text x="96.97182242703786" y="160" font-size="13" font-weight="bold" fill="#17202c">HR portal</text>
<circle cx="179.97182242703786" cy="59" r="7" fill="none" stroke="#1f5e91" stroke-width="1.5"/>
<path d="M 168.97182242703786 81 q 11 -19 22 0" fill="none" stroke="#1f5e91" stroke-width="1.5"/>
<text x="179.97182242703786" y="93" font-size="11" text-anchor="middle" fill="#20364c">Employee</text>
<circle cx="95.97182242703786" cy="59" r="7" fill="none" stroke="#1f5e91" stroke-width="1.5"/>
<path d="M 84.97182242703786 81 q 11 -19 22 0" fill="none" stroke="#1f5e91" stroke-width="1.5"/>
<text x="95.97182242703786" y="93" font-size="11" text-anchor="middle" fill="#20364c">Manager</text>
<rect x="153.97182242703786" y="169" width="108" height="47" rx="4" fill="#ffffff" stroke="#48546a" stroke-width="1.3"/>
<text x="207.97182242703786" y="189.25" font-size="12.5" text-anchor="middle" fill="#17202c">Leave</text>
<text x="207.97182242703786" y="203.75" font-size="12.5" text-anchor="middle" fill="#17202c">requests</text>
<rect x="107.97182242703786" y="274.5" width="108" height="47" rx="4" fill="#ffffff" stroke="#48546a" stroke-width="1.3"/>
<text x="161.97182242703786" y="294.75" font-size="12.5" text-anchor="middle" fill="#17202c">Approval</text>
<text x="161.97182242703786" y="309.25" font-size="12.5" text-anchor="middle" fill="#17202c">workflow</text>
<path d="M 206.80232965650677 405 h 92 a 8 23.5 0 0 1 0 47 h -92 a 8 23.5 0 0 1 0 -47" fill="#f4edf8" stroke="#8a53a8" stroke-width="1.3"/>
<ellipse cx="206.80232965650677" cy="428.5" rx="8" ry="23.5" fill="#f4edf8" stroke="#8a53a8" stroke-width="1.3"/>
<text x="256.8023296565068" y="425.25" font-size="12.5" text-anchor="middle" fill="#17202c">Notification</text>
<text x="256.8023296565068" y="439.75" font-size="12.5" text-anchor="middle" fill="#17202c">bus</text>
<path d="M 10 402 v 33 a 54 7 0 0 0 108 0 v -33" fill="#f4edf8" stroke="#8a53a8" stroke-width="1.3"/>
<ellipse cx="64" cy="402" rx="54" ry="7" fill="#f4edf8" stroke="#8a53a8" stroke-width="1.3"/>
<text x="64" y="418.75" font-size="12.5" text-anchor="middle" fill="#17202c">HR</text>
<text x="64" y="433.25" font-size="12.5" text-anchor="middle" fill="#17202c">repository</text>
<rect x="97.13859444130584" y="466" width="108" height="47" rx="4" fill="#f4eff8" stroke="#8659a6" stroke-width="1.2" stroke-dasharray="5 3"/>
<text x="151.13859444130583" y="486.25" font-size="12.5" text-anchor="middle" fill="#17202c">Payroll HRIS</text>
<text x="151.13859444130583" y="500.75" font-size="12.5" text-anchor="middle" fill="#17202c">(outsourced)</text>
<path d="M 179.97182242703786 103 L 179.97182242703786 127 L 207.97182242703786 127 L 207.97182242703786 169" fill="none" stroke="#5a6675" stroke-width="1.3" marker-end="url(#arr)"/>
<path d="M 189.97182242703786 216 L 189.97182242703786 226 L 179.97182242703786 226 L 179.97182242703786 274.5" fill="none" stroke="#5a6675" stroke-width="1.3" marker-end="url(#arr)"/>
<path d="M 95.97182242703786 103 L 95.97182242703786 264.5 L 143.97182242703786 264.5 L 143.97182242703786 274.5" fill="none" stroke="#5a6675" stroke-width="1.3" marker-end="url(#arr)"/>
<path d="M 134.97182242703786 321.5 L 134.97182242703786 346 L 62.68506015241516 346 L 62.68506015241516 395" fill="none" stroke="#5a6675" stroke-width="1.3" marker-end="url(#arr)"/>
<path d="M 188.97182242703786 321.5 L 188.97182242703786 356 L 188.80232965650677 429 L 197.80232965650677 429" fill="none" stroke="#5a6675" stroke-width="1.3" marker-end="url(#arr)"/>
<path d="M 225.97182242703786 216 L 225.97182242703786 346 L 316.8023296565068 346 L 316.8023296565068 428.5 L 307.8023296565068 428.5" fill="none" stroke="#5a6675" stroke-width="1.3" marker-end="url(#arr)"/>
<path d="M 161.97182242703786 321.5 L 161.97182242703786 352 L 150.68506015241516 352 L 151.13859444130586 466" fill="none" stroke="#5a6675" stroke-width="1.3" marker-end="url(#arr)"/>
<text x="179.97182242703786" y="253.5" font-size="11.5" text-anchor="middle" fill="#3a4553" font-style="italic" stroke="#ffffff" stroke-width="4" paint-order="stroke" stroke-linejoin="round">(internal)</text>
<text x="62.68506015241516" y="373.75" font-size="11.5" text-anchor="middle" fill="#3a4553" font-style="italic" stroke="#ffffff" stroke-width="4" paint-order="stroke" stroke-linejoin="round">(JDBC)</text>
<text x="188.88707604177233" y="395.75" font-size="11.5" text-anchor="middle" fill="#3a4553" font-style="italic" stroke="#ffffff" stroke-width="4" paint-order="stroke" stroke-linejoin="round">(MQ, JSON)</text>
<text x="271.38707604177233" y="349.25" font-size="11.5" text-anchor="middle" fill="#3a4553" font-style="italic" stroke="#ffffff" stroke-width="4" paint-order="stroke" stroke-linejoin="round">(MQ, JSON)</text>
<text x="150.9118272968605" y="460" font-size="11.5" text-anchor="middle" fill="#3a4553" font-style="italic" stroke="#ffffff" stroke-width="4" paint-order="stroke" stroke-linejoin="round">(SFTP, CSV)</text>
<line x1="20" y1="533" x2="381" y2="533" stroke="#e6e9ee" stroke-width="1"/>
<text x="20" y="555" font-size="11" font-weight="bold" fill="#3a4553">LEGEND</text>
<rect x="150" y="545" width="26" height="14" rx="3" fill="#e9f2fb" stroke="#1f77b4" stroke-dasharray="5 3"/>
<text x="182" y="556" font-size="10" fill="#17202c">Actor group</text>
<rect x="150" y="567" width="26" height="14" rx="3" fill="#e9f3fa" stroke="#2f83b6"/>
<text x="182" y="578" font-size="10" fill="#17202c">Application</text>
<rect x="150" y="589" width="26" height="14" rx="3" fill="#ffffff" stroke="#48546a"/>
<text x="182" y="600" font-size="10" fill="#17202c">Application module</text>
<rect x="150" y="611" width="26" height="14" rx="3" fill="#f4edf8" stroke="#8a53a8"/>
<text x="182" y="622" font-size="10" fill="#17202c">Message queue / broker</text>
<rect x="150" y="633" width="26" height="14" rx="3" fill="#f4edf8" stroke="#8a53a8"/>
<text x="182" y="644" font-size="10" fill="#17202c">Datastore / registry</text>
<rect x="150" y="655" width="26" height="14" rx="3" fill="#f4eff8" stroke="#8659a6" stroke-dasharray="5 3"/>
<text x="182" y="666" font-size="10" fill="#17202c">External system</text>
<line x1="150" y1="707" x2="176" y2="707" stroke="#5a6675" stroke-width="1.3" marker-end="url(#arr)"/>
<text x="182" y="711" font-size="10" fill="#17202c">Application flow — (protocol, format)</text>
<text x="182" y="723" font-size="10" fill="#17202c">under the label</text>
</svg>
