<svg xmlns="http://www.w3.org/2000/svg" viewBox="0 0 1259 738" font-family="Helvetica,Arial,sans-serif">
<defs><marker id="arr" viewBox="0 0 10 10" refX="9" refY="5" markerWidth="7" markerHeight="7" orient="auto-start-reverse">
<path d="M0,0 L10,5 L0,10 z" fill="#444444"/></marker></defs>
<rect width="1259" height="738" fill="white"/>
<rect x="10" y="224" width="119" height="175" rx="6" fill="#eef4fb" stroke="#7a9cc4" stroke-width="1.2" stroke-dasharray="5 3"/>
<text x="20" y="242" font-size="13" font-weight="bold" fill="#333">Managers</text>
<rect x="865" y="324" width="149" height="150" rx="6" fill="#e8f1f8" stroke="#5b8db8" stroke-width="1.2"/>
<text x="875" y="342" font-size="13" font-weight="bold" fill="#333">CRM</text>
<rect x="374" y="126" width="348" height="193.5" rx="6" fill="#e8f1f8" stroke="#5b8db8" stroke-width="1.2"/>
<text x="384" y="144" font-size="13" font-weight="bold" fill="#333">Billing</text>
<rect x="858" y="22" width="354" height="119.5" rx="6" fill="#e8f1f8" stroke="#5b8db8" stroke-width="1.2"/>
<text x="868" y="40" font-size="13" font-weight="bold" fill="#333">Accounting</text>
<circle cx="82" cy="261" r="7" fill="none" stroke="#445566" stroke-width="1.5"/>
<path d="M 71 283 q 11 -19 22 0" fill="none" stroke="#445566" stroke-width="1.5"/>
<text x="82" y="295" font-size="11" text-anchor="middle" fill="#223344">Accountant</text>
<circle cx="69.5" cy="335" r="7" fill="none" stroke="#445566" stroke-width="1.5"/>
<path d="M 58.5 357 q 11 -19 22 0" fill="none" stroke="#445566" stroke-width="1.5"/>
<text x="69.5" y="369" font-size="11" text-anchor="middle" fill="#223344">Sales</text>
<text x="69.5" y="380" font-size="11" text-anchor="middle" fill="#223344">administration</text>
<rect x="874" y="351" width="131" height="47" rx="4" fill="#ffffff" stroke="#5b7a99" stroke-width="1.3"/>
<text x="939.5" y="371.25" font-size="12.5" text-anchor="middle" fill="#222233">Customer-account</text>
<text x="939.5" y="385.75" font-size="12.5" text-anchor="middle" fill="#222233">management</text>
<rect x="885.5" y="418" width="108" height="47" rx="4" fill="#ffffff" stroke="#5b7a99" stroke-width="1.3"/>
<text x="939.5" y="438.25" font-size="12.5" text-anchor="middle" fill="#222233">Contract</text>
<text x="939.5" y="452.75" font-size="12.5" text-anchor="middle" fill="#222233">management</text>
<rect x="383" y="196.5" width="108" height="47" rx="4" fill="#ffffff" stroke="#5b7a99" stroke-width="1.3"/>
<text x="437" y="216.75" font-size="12.5" text-anchor="middle" fill="#222233">Billing</text>
<text x="437" y="231.25" font-size="12.5" text-anchor="middle" fill="#222233">engine</text>
<rect x="589" y="196.5" width="124" height="47" rx="4" fill="#ffffff" stroke="#5b7a99" stroke-width="1.3"/>
<text x="651" y="216.75" font-size="12.5" text-anchor="middle" fill="#222233">Invoice issuing</text>
<text x="651" y="231.25" font-size="12.5" text-anchor="middle" fill="#222233">and sending</text>
<rect x="383" y="263.5" width="108" height="47" rx="4" fill="#ffffff" stroke="#5b7a99" stroke-width="1.3"/>
<text x="437" y="283.75" font-size="12.5" text-anchor="middle" fill="#222233">Dunning and</text>
<text x="437" y="298.25" font-size="12.5" text-anchor="middle" fill="#222233">collection</text>
<rect x="1086" y="58.16666666666667" width="117" height="38" rx="4" fill="#ffffff" stroke="#5b7a99" stroke-width="1.3"/>
<text x="1144.5" y="81.16666666666667" font-size="12.5" text-anchor="middle" fill="#222233">General ledger</text>
<rect x="867" y="60" width="108" height="47" rx="4" fill="#ffffff" stroke="#5b7a99" stroke-width="1.3"/>
<text x="921" y="80.25" font-size="12.5" text-anchor="middle" fill="#222233">Accounts</text>
<text x="921" y="94.75" font-size="12.5" text-anchor="middle" fill="#222233">receivable</text>
<path d="M 1141 358 v 33 a 54 7 0 0 0 108 0 v -33" fill="#f3eef8" stroke="#8a6fae" stroke-width="1.3"/>
<ellipse cx="1195" cy="358" rx="54" ry="7" fill="#f3eef8" stroke="#8a6fae" stroke-width="1.3"/>
<text x="1195" y="374.75" font-size="12.5" text-anchor="middle" fill="#222233">Customer</text>
<text x="1195" y="389.25" font-size="12.5" text-anchor="middle" fill="#222233">repository</text>
<path d="M 154 195 v 33 a 54 7 0 0 0 108 0 v -33" fill="#f3eef8" stroke="#8a6fae" stroke-width="1.3"/>
<ellipse cx="208" cy="195" rx="54" ry="7" fill="#f3eef8" stroke="#8a6fae" stroke-width="1.3"/>
<text x="208" y="211.75" font-size="12.5" text-anchor="middle" fill="#222233">Offer</text>
<text x="208" y="226.25" font-size="12.5" text-anchor="middle" fill="#222233">catalog</text>
<rect x="944" y="254" width="108" height="47" rx="4" fill="#f0eef5" stroke="#9187b3" stroke-width="1.2" stroke-dasharray="5 3"/>
<text x="998" y="274.25" font-size="12.5" text-anchor="middle" fill="#222233">Partner EDI</text>
<text x="998" y="288.75" font-size="12.5" text-anchor="middle" fill="#222233">platform</text>
<rect x="944" y="196" width="158" height="47" rx="4" fill="#f0eef5" stroke="#9187b3" stroke-width="1.2" stroke-dasharray="5 3"/>
<text x="1023" y="216.25" font-size="12.5" text-anchor="middle" fill="#222233">Electronic-invoicing</text>
<text x="1023" y="230.75" font-size="12.5" text-anchor="middle" fill="#222233">portal (PPF)</text>
<path d="M 120 357.5 L 134 358 L 275 358 L 275 442 L 860 441.5 L 885.5 441.5" fill="none" stroke="#444444" stroke-width="1.3" marker-end="url(#arr)"/>
<text x="317" y="457.5" font-size="11.5" text-anchor="middle" fill="#333" font-style="italic" stroke="white" stroke-width="2.5" paint-order="stroke" stroke-linejoin="round">Enter and</text>
<text x="317" y="472" font-size="11.5" text-anchor="middle" fill="#333" font-style="italic" stroke="white" stroke-width="2.5" paint-order="stroke" stroke-linejoin="round">update</text>
<text x="317" y="486.5" font-size="11.5" text-anchor="middle" fill="#333" font-style="italic" stroke="white" stroke-width="2.5" paint-order="stroke" stroke-linejoin="round">contracts</text>
<rect x="287.5" y="494.5" width="59" height="15" rx="7.5" fill="#fdf3d8" stroke="#c9a227" stroke-width="1"/>
<text x="317" y="505.5" font-size="9.5" text-anchor="middle" fill="#7a6216" font-weight="bold">Contract</text>
<path d="M 1005 374.5 L 1019 375 L 1141 375" fill="none" stroke="#444444" stroke-width="1.3" marker-end="url(#arr)"/>
<text x="1080" y="390.5" font-size="11.5" text-anchor="middle" fill="#333" font-style="italic" stroke="white" stroke-width="2.5" paint-order="stroke" stroke-linejoin="round">Sync customer</text>
<text x="1080" y="405" font-size="11.5" text-anchor="middle" fill="#333" font-style="italic" stroke="white" stroke-width="2.5" paint-order="stroke" stroke-linejoin="round">accounts</text>
<text x="1080" y="419.5" font-size="9" text-anchor="middle" fill="#777" stroke="white" stroke-width="2.5" paint-order="stroke" stroke-linejoin="round">(API_REST, JSON)</text>
<path d="M 993.5 441.5 L 1019 442 L 1029 442 L 1029 484 L 359 484 L 359 228 L 369 227.83333333333334 L 383 227.83333333333334" fill="none" stroke="#444444" stroke-width="1.3" marker-end="url(#arr)"/>
<text x="905" y="499.5" font-size="11.5" text-anchor="middle" fill="#333" font-style="italic" stroke="white" stroke-width="2.5" paint-order="stroke" stroke-linejoin="round">Contractual</text>
<text x="905" y="514" font-size="11.5" text-anchor="middle" fill="#333" font-style="italic" stroke="white" stroke-width="2.5" paint-order="stroke" stroke-linejoin="round">items to bill</text>
<text x="905" y="528.5" font-size="9" text-anchor="middle" fill="#777" stroke="white" stroke-width="2.5" paint-order="stroke" stroke-linejoin="round">(MQ, JSON)</text>
<rect x="875.5" y="534" width="59" height="15" rx="7.5" fill="#fdf3d8" stroke="#c9a227" stroke-width="1"/>
<text x="905" y="545" font-size="9.5" text-anchor="middle" fill="#7a6216" font-weight="bold">Contract</text>
<path d="M 262 212 L 369 212.16666666666669 L 383 212.16666666666669" fill="none" stroke="#444444" stroke-width="1.3" marker-end="url(#arr)"/>
<text x="313.5" y="227.5" font-size="11.5" text-anchor="middle" fill="#333" font-style="italic" stroke="white" stroke-width="2.5" paint-order="stroke" stroke-linejoin="round">Prices and</text>
<text x="313.5" y="242" font-size="11.5" text-anchor="middle" fill="#333" font-style="italic" stroke="white" stroke-width="2.5" paint-order="stroke" stroke-linejoin="round">terms</text>
<text x="313.5" y="256.5" font-size="9" text-anchor="middle" fill="#777" stroke="white" stroke-width="2.5" paint-order="stroke" stroke-linejoin="round">(JDBC)</text>
<path d="M 491 220 L 589 220" fill="none" stroke="#444444" stroke-width="1.3" marker-end="url(#arr)"/>
<text x="540" y="165.5" font-size="11.5" text-anchor="middle" fill="#333" font-style="italic" stroke="white" stroke-width="2.5" paint-order="stroke" stroke-linejoin="round">Computed</text>
<text x="540" y="180" font-size="11.5" text-anchor="middle" fill="#333" font-style="italic" stroke="white" stroke-width="2.5" paint-order="stroke" stroke-linejoin="round">invoices</text>
<text x="540" y="194.5" font-size="9" text-anchor="middle" fill="#777" stroke="white" stroke-width="2.5" paint-order="stroke" stroke-linejoin="round">(MQ, JSON)</text>
<rect x="513" y="200" width="54" height="15" rx="7.5" fill="#fdf3d8" stroke="#c9a227" stroke-width="1"/>
<text x="540" y="211" font-size="9.5" text-anchor="middle" fill="#7a6216" font-weight="bold">Invoice</text>
<path d="M 713 231.75 L 727 232 L 737 232 L 737 230 L 934 230 L 934 278 L 944 278" fill="none" stroke="#444444" stroke-width="1.3" marker-end="url(#arr)"/>
<text x="892" y="245.5" font-size="11.5" text-anchor="middle" fill="#333" font-style="italic" stroke="white" stroke-width="2.5" paint-order="stroke" stroke-linejoin="round">Submit</text>
<text x="892" y="260" font-size="11.5" text-anchor="middle" fill="#333" font-style="italic" stroke="white" stroke-width="2.5" paint-order="stroke" stroke-linejoin="round">paperless</text>
<text x="892" y="274.5" font-size="11.5" text-anchor="middle" fill="#333" font-style="italic" stroke="white" stroke-width="2.5" paint-order="stroke" stroke-linejoin="round">invoices</text>
<text x="892" y="289" font-size="9" text-anchor="middle" fill="#777" stroke="white" stroke-width="2.5" paint-order="stroke" stroke-linejoin="round">(AS4, UBL)</text>
<rect x="865" y="294.5" width="54" height="15" rx="7.5" fill="#fdf3d8" stroke="#c9a227" stroke-width="1"/>
<text x="892" y="305.5" font-size="9.5" text-anchor="middle" fill="#7a6216" font-weight="bold">Invoice</text>
<path d="M 713 220 L 944 220" fill="none" stroke="#444444" stroke-width="1.3" marker-end="url(#arr)"/>
<text x="798" y="165.5" font-size="11.5" text-anchor="middle" fill="#333" font-style="italic" stroke="white" stroke-width="2.5" paint-order="stroke" stroke-linejoin="round">Regulatory</text>
<text x="798" y="180" font-size="11.5" text-anchor="middle" fill="#333" font-style="italic" stroke="white" stroke-width="2.5" paint-order="stroke" stroke-linejoin="round">transmission</text>
<text x="798" y="194.5" font-size="9" text-anchor="middle" fill="#777" stroke="white" stroke-width="2.5" paint-order="stroke" stroke-linejoin="round">(API_REST, FacturX)</text>
<rect x="771" y="200" width="54" height="15" rx="7.5" fill="#fdf3d8" stroke="#c9a227" stroke-width="1"/>
<text x="798" y="211" font-size="9.5" text-anchor="middle" fill="#7a6216" font-weight="bold">Invoice</text>
<path d="M 713 208.25 L 727 208 L 737 208 L 737 84 L 853 83.5 L 867 83.5" fill="none" stroke="#444444" stroke-width="1.3" marker-end="url(#arr)"/>
<text x="792" y="99.5" font-size="11.5" text-anchor="middle" fill="#333" font-style="italic" stroke="white" stroke-width="2.5" paint-order="stroke" stroke-linejoin="round">Sales entries</text>
<text x="792" y="114" font-size="9" text-anchor="middle" fill="#777" stroke="white" stroke-width="2.5" paint-order="stroke" stroke-linejoin="round">(MQ, JSON)</text>
<path d="M 491 287 L 850 287 L 850 375 L 860 374.5 L 874 374.5" fill="none" stroke="#444444" stroke-width="1.3" marker-end="url(#arr)"/>
<text x="791.5" y="302.5" font-size="11.5" text-anchor="middle" fill="#333" font-style="italic" stroke="white" stroke-width="2.5" paint-order="stroke" stroke-linejoin="round">Customer</text>
<text x="791.5" y="317" font-size="11.5" text-anchor="middle" fill="#333" font-style="italic" stroke="white" stroke-width="2.5" paint-order="stroke" stroke-linejoin="round">dunning status</text>
<text x="791.5" y="331.5" font-size="9" text-anchor="middle" fill="#777" stroke="white" stroke-width="2.5" paint-order="stroke" stroke-linejoin="round">(API_REST, JSON)</text>
<path d="M 975 83.5 L 1086 83.5" fill="none" stroke="#444444" stroke-width="1.3" marker-end="url(#arr)"/>
<text x="1030.5" y="99" font-size="11.5" text-anchor="middle" fill="#333" font-style="italic" stroke="white" stroke-width="2.5" paint-order="stroke" stroke-linejoin="round">Accounting</text>
<text x="1030.5" y="113.5" font-size="11.5" text-anchor="middle" fill="#333" font-style="italic" stroke="white" stroke-width="2.5" paint-order="stroke" stroke-linejoin="round">posting</text>
<text x="1030.5" y="128" font-size="9" text-anchor="middle" fill="#777" stroke="white" stroke-width="2.5" paint-order="stroke" stroke-linejoin="round">(batch, CSV)</text>
<path d="M 120 269 L 144 269 L 144 49 L 1076 49.00000000000003 L 1076 70.83333333333334 L 1086 70.83333333333334" fill="none" stroke="#444444" stroke-width="1.3" marker-end="url(#arr)"/>
<text x="685" y="64.5" font-size="11.5" text-anchor="middle" fill="#333" font-style="italic" stroke="white" stroke-width="2.5" paint-order="stroke" stroke-linejoin="round">Controls and</text>
<text x="685" y="79" font-size="11.5" text-anchor="middle" fill="#333" font-style="italic" stroke="white" stroke-width="2.5" paint-order="stroke" stroke-linejoin="round">closings</text>
<path d="M 120 287 L 354 287 A 5 5 0 0 1 364 287 L 383 287" fill="none" stroke="#444444" stroke-width="1.3" marker-end="url(#arr)"/>
<text x="189.5" y="263.5" font-size="11.5" text-anchor="middle" fill="#333" font-style="italic" stroke="white" stroke-width="2.5" paint-order="stroke" stroke-linejoin="round">Steer</text>
<text x="189.5" y="278" font-size="11.5" text-anchor="middle" fill="#333" font-style="italic" stroke="white" stroke-width="2.5" paint-order="stroke" stroke-linejoin="round">collection</text>
<line x1="20" y1="572" x2="1239" y2="572" stroke="#ddd" stroke-width="1"/>
<text x="20" y="594" font-size="11" font-weight="bold" fill="#555">BUSINESS OBJECTS</text>
<rect x="150" y="584" width="54" height="15" rx="7.5" fill="#fdf3d8" stroke="#c9a227"/>
<text x="177" y="595" font-size="9.5" text-anchor="middle" fill="#7a6216" font-weight="bold">Invoice</text>
<text x="214" y="595" font-size="10" fill="#666">— billing document issued to a customer</text>
<rect x="150" y="608" width="59" height="15" rx="7.5" fill="#fdf3d8" stroke="#c9a227"/>
<text x="179.5" y="619" font-size="9.5" text-anchor="middle" fill="#7a6216" font-weight="bold">Contract</text>
<text x="219" y="619" font-size="10" fill="#666">— active commercial commitment of a customer</text>
<line x1="20" y1="646" x2="1239" y2="646" stroke="#ddd" stroke-width="1"/>
<text x="20" y="668" font-size="11" font-weight="bold" fill="#555">LEGEND</text>
<rect x="150" y="658" width="26" height="14" rx="3" fill="#eef4fb" stroke="#7a9cc4" stroke-dasharray="5 3"/>
<text x="182" y="669" font-size="10" fill="#444">Actor group</text>
<rect x="272" y="658" width="26" height="14" rx="3" fill="#e8f1f8" stroke="#5b8db8"/>
<text x="304" y="669" font-size="10" fill="#444">Application</text>
<rect x="394" y="658" width="26" height="14" rx="3" fill="#ffffff" stroke="#5b7a99"/>
<text x="426" y="669" font-size="10" fill="#444">Application module</text>
<rect x="552" y="658" width="26" height="14" rx="3" fill="#f3eef8" stroke="#8a6fae"/>
<text x="584" y="669" font-size="10" fill="#444">Datastore / registry</text>
<rect x="720" y="658" width="26" height="14" rx="3" fill="#f0eef5" stroke="#9187b3" stroke-dasharray="5 3"/>
<text x="752" y="669" font-size="10" fill="#444">External system</text>
<line x1="150" y1="688" x2="176" y2="688" stroke="#444444" stroke-width="1.3" marker-end="url(#arr)"/>
<text x="182" y="692" font-size="10" fill="#444">Application flow — (protocol, format) under the label</text>
<rect x="480" y="681" width="96" height="15" rx="7.5" fill="#fdf3d8" stroke="#c9a227"/>
<text x="528" y="692" font-size="9.5" text-anchor="middle" fill="#7a6216" font-weight="bold">Business object</text>
<text x="584" y="692" font-size="10" fill="#444">carried by the flow</text>
<text x="150" y="716" font-size="10" fill="#444" font-style="italic">Factur-X mandatory since the electronic-invoicing reform</text>
</svg>
