<svg xmlns="http://www.w3.org/2000/svg" viewBox="0 0 296 1045" font-family="Helvetica,Arial,sans-serif">
<defs><marker id="arr" viewBox="0 0 10 10" refX="9" refY="5" markerWidth="7" markerHeight="7" orient="auto-start-reverse">
<path d="M0,0 L10,5 L0,10 z" fill="#444444"/></marker></defs>
<rect width="296" height="1045" fill="white"/>
<rect x="83" y="30" width="172" height="98" rx="6" fill="#eef4fb" stroke="#7a9cc4" stroke-width="1.2" stroke-dasharray="5 3"/>
<text x="93" y="48" font-size="12" font-weight="bold" fill="#333">HR actors</text>
<rect x="23" y="263" width="209.33333333333334" height="246" rx="6" fill="#e8f1f8" stroke="#5b8db8" stroke-width="1.2"/>
<text x="33" y="281" font-size="12" font-weight="bold" fill="#333">HR portal</text>
<circle cx="127" cy="70" r="7" fill="none" stroke="#445566" stroke-width="1.5"/>
<path d="M 116 92 q 11 -19 22 0" fill="none" stroke="#445566" stroke-width="1.5"/>
<text x="127" y="104" font-size="10" text-anchor="middle" fill="#223344">Employee</text>
<circle cx="211" cy="70" r="7" fill="none" stroke="#445566" stroke-width="1.5"/>
<path d="M 200 92 q 11 -19 22 0" fill="none" stroke="#445566" stroke-width="1.5"/>
<text x="211" y="104" font-size="10" text-anchor="middle" fill="#223344">Manager</text>
<rect x="57" y="293" width="140" height="51" rx="4" fill="#ffffff" stroke="#5b7a99" stroke-width="1.3"/>
<text x="127" y="315.75" font-size="11.5" text-anchor="middle" fill="#222233">Leave</text>
<text x="127" y="329.25" font-size="11.5" text-anchor="middle" fill="#222233">requests</text>
<rect x="80.33333333333334" y="446" width="140" height="51" rx="4" fill="#ffffff" stroke="#5b7a99" stroke-width="1.3"/>
<text x="150.33333333333334" y="468.75" font-size="11.5" text-anchor="middle" fill="#222233">Approval</text>
<text x="150.33333333333334" y="482.25" font-size="11.5" text-anchor="middle" fill="#222233">workflow</text>
<path d="M 22 652 v 37 a 70 7 0 0 0 140 0 v -37" fill="#f3eef8" stroke="#8a6fae" stroke-width="1.3"/>
<ellipse cx="92" cy="652" rx="70" ry="7" fill="#f3eef8" stroke="#8a6fae" stroke-width="1.3"/>
<text x="92" y="671.25" font-size="11.5" text-anchor="middle" fill="#222233">HR</text>
<text x="92" y="684.75" font-size="11.5" text-anchor="middle" fill="#222233">repository</text>
<rect x="104" y="740" width="140" height="51" rx="4" fill="#f0eef5" stroke="#9187b3" stroke-width="1.2" stroke-dasharray="5 3"/>
<text x="174" y="762.75" font-size="11.5" text-anchor="middle" fill="#222233">Payroll HRIS</text>
<text x="174" y="776.25" font-size="11.5" text-anchor="middle" fill="#222233">(outsourced)</text>
<path d="M 127 116 L 127 293" fill="none" stroke="#444444" stroke-width="1.3" marker-end="url(#arr)"/>
<text x="73.5" y="188.5" font-size="10.5" text-anchor="middle" fill="#333" font-style="italic" stroke="white" stroke-width="2.5" paint-order="stroke" stroke-linejoin="round">Submit a request</text>
<rect x="30.5" y="196.5" width="86" height="15" rx="7.5" fill="#fdf3d8" stroke="#c9a227" stroke-width="1"/>
<text x="73.5" y="207.5" font-size="9.5" text-anchor="middle" fill="#7a6216" font-weight="bold">Leave request</text>
<path d="M 127 344 L 127 446" fill="none" stroke="#444444" stroke-width="1.3" marker-end="url(#arr)"/>
<text x="80" y="375.5" font-size="10.5" text-anchor="middle" fill="#333" font-style="italic" stroke="white" stroke-width="2.5" paint-order="stroke" stroke-linejoin="round">Submit to the</text>
<text x="80" y="389" font-size="10.5" text-anchor="middle" fill="#333" font-style="italic" stroke="white" stroke-width="2.5" paint-order="stroke" stroke-linejoin="round">workflow</text>
<text x="80" y="402.5" font-size="9" text-anchor="middle" fill="#777" stroke="white" stroke-width="2.5" paint-order="stroke" stroke-linejoin="round">(internal)</text>
<rect x="37" y="409" width="86" height="15" rx="7.5" fill="#fdf3d8" stroke="#c9a227" stroke-width="1"/>
<text x="80" y="420" font-size="9.5" text-anchor="middle" fill="#7a6216" font-weight="bold">Leave request</text>
<path d="M 211 116 L 211 143 L 207 143 L 207 436 L 173.66666666666666 436 L 173.66666666666666 446" fill="none" stroke="#444444" stroke-width="1.3" marker-end="url(#arr)"/>
<text x="243.5" y="188.5" font-size="10.5" text-anchor="middle" fill="#333" font-style="italic" stroke="white" stroke-width="2.5" paint-order="stroke" stroke-linejoin="round">Approve or</text>
<text x="243.5" y="202" font-size="10.5" text-anchor="middle" fill="#333" font-style="italic" stroke="white" stroke-width="2.5" paint-order="stroke" stroke-linejoin="round">reject</text>
<path d="M 127 497 L 127 524 L 92 524 L 92 645" fill="none" stroke="#444444" stroke-width="1.3" marker-end="url(#arr)"/>
<text x="50.5" y="569.5" font-size="10.5" text-anchor="middle" fill="#333" font-style="italic" stroke="white" stroke-width="2.5" paint-order="stroke" stroke-linejoin="round">Update leave</text>
<text x="50.5" y="583" font-size="10.5" text-anchor="middle" fill="#333" font-style="italic" stroke="white" stroke-width="2.5" paint-order="stroke" stroke-linejoin="round">balances</text>
<text x="50.5" y="596.5" font-size="9" text-anchor="middle" fill="#777" stroke="white" stroke-width="2.5" paint-order="stroke" stroke-linejoin="round">(JDBC)</text>
<path d="M 173.66666666666666 497 L 174 514 L 174 740" fill="none" stroke="#444444" stroke-width="1.3" marker-end="url(#arr)"/>
<text x="231" y="569.5" font-size="10.5" text-anchor="middle" fill="#333" font-style="italic" stroke="white" stroke-width="2.5" paint-order="stroke" stroke-linejoin="round">Approved variable</text>
<text x="231" y="583" font-size="10.5" text-anchor="middle" fill="#333" font-style="italic" stroke="white" stroke-width="2.5" paint-order="stroke" stroke-linejoin="round">items</text>
<text x="231" y="596.5" font-size="9" text-anchor="middle" fill="#777" stroke="white" stroke-width="2.5" paint-order="stroke" stroke-linejoin="round">(SFTP, CSV)</text>
<line x1="20" y1="813" x2="276" y2="813" stroke="#ddd" stroke-width="1"/>
<text x="20" y="835" font-size="11" font-weight="bold" fill="#555">BUSINESS OBJECTS</text>
<rect x="150" y="825" width="86" height="15" rx="7.5" fill="#fdf3d8" stroke="#c9a227"/>
<text x="193" y="836" font-size="9.5" text-anchor="middle" fill="#7a6216" font-weight="bold">Leave request</text>
<text x="246" y="836" font-size="10" fill="#666">— request submitted by an employee, subject to approval</text>
<line x1="20" y1="863" x2="276" y2="863" stroke="#ddd" stroke-width="1"/>
<text x="20" y="885" font-size="11" font-weight="bold" fill="#555">LEGEND</text>
<rect x="150" y="875" width="26" height="14" rx="3" fill="#eef4fb" stroke="#7a9cc4" stroke-dasharray="5 3"/>
<text x="182" y="886" font-size="10" fill="#444">Actor group</text>
<rect x="150" y="897" width="26" height="14" rx="3" fill="#e8f1f8" stroke="#5b8db8"/>
<text x="182" y="908" font-size="10" fill="#444">Application</text>
<rect x="150" y="919" width="26" height="14" rx="3" fill="#ffffff" stroke="#5b7a99"/>
<text x="182" y="930" font-size="10" fill="#444">Application module</text>
<rect x="150" y="941" width="26" height="14" rx="3" fill="#f3eef8" stroke="#8a6fae"/>
<text x="182" y="952" font-size="10" fill="#444">Datastore / registry</text>
<rect x="150" y="963" width="26" height="14" rx="3" fill="#f0eef5" stroke="#9187b3" stroke-dasharray="5 3"/>
<text x="182" y="974" font-size="10" fill="#444">External system</text>
<line x1="150" y1="1015" x2="176" y2="1015" stroke="#444444" stroke-width="1.3" marker-end="url(#arr)"/>
<text x="182" y="1019" font-size="10" fill="#444">Application flow — (protocol, format) under the label</text>
<rect x="480" y="1008" width="96" height="15" rx="7.5" fill="#fdf3d8" stroke="#c9a227"/>
<text x="528" y="1019" font-size="9.5" text-anchor="middle" fill="#7a6216" font-weight="bold">Business object</text>
<text x="584" y="1019" font-size="10" fill="#444">carried by the flow</text>
</svg>
