<svg xmlns="http://www.w3.org/2000/svg" viewBox="0 0 918 784" font-family="Helvetica,Arial,sans-serif">
<defs><marker id="arr" viewBox="0 0 10 10" refX="9" refY="5" markerWidth="7" markerHeight="7" orient="auto-start-reverse">
<path d="M0,0 L10,5 L0,10 z" fill="#5a6675"/></marker></defs>
<rect width="918" height="784" fill="#ffffff"/>
<rect x="141" y="22" width="215" height="101" rx="6" fill="#e9f2fb" stroke="#1f77b4" stroke-width="1.2" stroke-dasharray="5 3"/>
<text x="151" y="40" font-size="13" font-weight="bold" fill="#17202c">Managers</text>
<rect x="93" y="403" width="277" height="83" rx="6" fill="#e9f3fa" stroke="#2f83b6" stroke-width="1.2"/>
<text x="103" y="421" font-size="13" font-weight="bold" fill="#17202c">CRM</text>
<rect x="233" y="255" width="398" height="83" rx="6" fill="#e9f3fa" stroke="#2f83b6" stroke-width="1.2"/>
<text x="243" y="273" font-size="13" font-weight="bold" fill="#17202c">Billing</text>
<rect x="726" y="407" width="182" height="179.5" rx="6" fill="#e9f3fa" stroke="#2f83b6" stroke-width="1.2"/>
<text x="736" y="425" font-size="13" font-weight="bold" fill="#17202c">Accounting</text>
<circle cx="309" cy="70" r="7" fill="none" stroke="#1f5e91" stroke-width="1.5"/>
<path d="M 298 92 q 11 -19 22 0" fill="none" stroke="#1f5e91" stroke-width="1.5"/>
<text x="309" y="104" font-size="11" text-anchor="middle" fill="#20364c">Accountant</text>
<circle cx="200.5" cy="59" r="7" fill="none" stroke="#1f5e91" stroke-width="1.5"/>
<path d="M 189.5 81 q 11 -19 22 0" fill="none" stroke="#1f5e91" stroke-width="1.5"/>
<text x="200.5" y="93" font-size="11" text-anchor="middle" fill="#20364c">Sales</text>
<text x="200.5" y="104" font-size="11" text-anchor="middle" fill="#20364c">administration</text>
<rect x="230" y="430" width="131" height="47" rx="4" fill="#ffffff" stroke="#48546a" stroke-width="1.3"/>
<text x="295.5" y="450.25" font-size="12.5" text-anchor="middle" fill="#17202c">Customer-account</text>
<text x="295.5" y="464.75" font-size="12.5" text-anchor="middle" fill="#17202c">management</text>
<rect x="102" y="430" width="108" height="47" rx="4" fill="#ffffff" stroke="#48546a" stroke-width="1.3"/>
<text x="156" y="450.25" font-size="12.5" text-anchor="middle" fill="#17202c">Contract</text>
<text x="156" y="464.75" font-size="12.5" text-anchor="middle" fill="#17202c">management</text>
<rect x="370" y="282" width="108" height="47" rx="4" fill="#ffffff" stroke="#48546a" stroke-width="1.3"/>
<text x="424" y="302.25" font-size="12.5" text-anchor="middle" fill="#17202c">Billing</text>
<text x="424" y="316.75" font-size="12.5" text-anchor="middle" fill="#17202c">engine</text>
<rect x="498" y="282" width="124" height="47" rx="4" fill="#ffffff" stroke="#48546a" stroke-width="1.3"/>
<text x="560" y="302.25" font-size="12.5" text-anchor="middle" fill="#17202c">Invoice issuing</text>
<text x="560" y="316.75" font-size="12.5" text-anchor="middle" fill="#17202c">and sending</text>
<rect x="242" y="282" width="108" height="47" rx="4" fill="#ffffff" stroke="#48546a" stroke-width="1.3"/>
<text x="296" y="302.25" font-size="12.5" text-anchor="middle" fill="#17202c">Dunning and</text>
<text x="296" y="316.75" font-size="12.5" text-anchor="middle" fill="#17202c">collection</text>
<rect x="782" y="539.5" width="117" height="38" rx="4" fill="#ffffff" stroke="#48546a" stroke-width="1.3"/>
<text x="840.5" y="562.5" font-size="12.5" text-anchor="middle" fill="#17202c">General ledger</text>
<rect x="767" y="434" width="108" height="47" rx="4" fill="#ffffff" stroke="#48546a" stroke-width="1.3"/>
<text x="821" y="454.25" font-size="12.5" text-anchor="middle" fill="#17202c">Accounts</text>
<text x="821" y="468.75" font-size="12.5" text-anchor="middle" fill="#17202c">receivable</text>
<path d="M 389 398 h 92 a 8 23.5 0 0 1 0 47 h -92 a 8 23.5 0 0 1 0 -47" fill="#f4edf8" stroke="#8a53a8" stroke-width="1.3"/>
<ellipse cx="389" cy="421.5" rx="8" ry="23.5" fill="#f4edf8" stroke="#8a53a8" stroke-width="1.3"/>
<text x="439" y="418.25" font-size="12.5" text-anchor="middle" fill="#17202c">Billing</text>
<text x="439" y="432.75" font-size="12.5" text-anchor="middle" fill="#17202c">event bus</text>
<path d="M 242 549 v 33 a 54 7 0 0 0 108 0 v -33" fill="#f4edf8" stroke="#8a53a8" stroke-width="1.3"/>
<ellipse cx="296" cy="549" rx="54" ry="7" fill="#f4edf8" stroke="#8a53a8" stroke-width="1.3"/>
<text x="296" y="565.75" font-size="12.5" text-anchor="middle" fill="#17202c">Customer</text>
<text x="296" y="580.25" font-size="12.5" text-anchor="middle" fill="#17202c">repository</text>
<path d="M 388 155 v 33 a 54 7 0 0 0 108 0 v -33" fill="#f4edf8" stroke="#8a53a8" stroke-width="1.3"/>
<ellipse cx="442" cy="155" rx="54" ry="7" fill="#f4edf8" stroke="#8a53a8" stroke-width="1.3"/>
<text x="442" y="171.75" font-size="12.5" text-anchor="middle" fill="#17202c">Offer</text>
<text x="442" y="186.25" font-size="12.5" text-anchor="middle" fill="#17202c">catalog</text>
<rect x="519" y="441" width="108" height="47" rx="4" fill="#f4eff8" stroke="#8659a6" stroke-width="1.2" stroke-dasharray="5 3"/>
<text x="573" y="461.25" font-size="12.5" text-anchor="middle" fill="#17202c">Partner EDI</text>
<text x="573" y="475.75" font-size="12.5" text-anchor="middle" fill="#17202c">platform</text>
<rect x="638" y="603" width="158" height="47" rx="4" fill="#f4eff8" stroke="#8659a6" stroke-width="1.2" stroke-dasharray="5 3"/>
<text x="717" y="623.25" font-size="12.5" text-anchor="middle" fill="#17202c">Electronic-invoicing</text>
<text x="717" y="637.75" font-size="12.5" text-anchor="middle" fill="#17202c">portal (PPF)</text>
<path d="M 200.5 114 L 201 128 L 201 138 L 173 138 L 173 250 L 156 250 L 156 430" fill="none" stroke="#5a6675" stroke-width="1.3" marker-end="url(#arr)"/>
<path d="M 295.5 477 L 296 491 L 296 542" fill="none" stroke="#5a6675" stroke-width="1.3" marker-end="url(#arr)"/>
<text x="239" y="519.5" font-size="11.5" text-anchor="middle" fill="#3a4553" font-style="italic" stroke="#ffffff" stroke-width="2.5" paint-order="stroke" stroke-linejoin="round">(API_REST, JSON)</text>
<path d="M 156 477 L 156 501 L 83 501 L 83 240 L 168 240 A 5 5 0 0 1 178 240 L 291 240 A 5 5 0 0 1 301 240 L 406 240 L 406 282" fill="none" stroke="#5a6675" stroke-width="1.3" marker-end="url(#arr)"/>
<text x="45.5" y="410.5" font-size="11.5" text-anchor="middle" fill="#3a4553" font-style="italic" stroke="#ffffff" stroke-width="2.5" paint-order="stroke" stroke-linejoin="round">(MQ, JSON)</text>
<path d="M 442 195 L 442 282" fill="none" stroke="#5a6675" stroke-width="1.3" marker-end="url(#arr)"/>
<text x="417.5" y="223.5" font-size="11.5" text-anchor="middle" fill="#3a4553" font-style="italic" stroke="#ffffff" stroke-width="2.5" paint-order="stroke" stroke-linejoin="round">(JDBC)</text>
<path d="M 424 329 L 424 353 L 417 353 L 417 398" fill="none" stroke="#5a6675" stroke-width="1.3" marker-end="url(#arr)"/>
<text x="379.5" y="375.5" font-size="11.5" text-anchor="middle" fill="#3a4553" font-style="italic" stroke="#ffffff" stroke-width="2.5" paint-order="stroke" stroke-linejoin="round">(MQ, JSON)</text>
<path d="M 522.8 329 L 523 343 L 523 353 L 453 353 L 453 398" fill="none" stroke="#5a6675" stroke-width="1.3" marker-end="url(#arr)"/>
<text x="491.5" y="375.5" font-size="11.5" text-anchor="middle" fill="#3a4553" font-style="italic" stroke="#ffffff" stroke-width="2.5" paint-order="stroke" stroke-linejoin="round">(MQ, JSON)</text>
<path d="M 547.6 329 L 548 343 L 548 381 L 573 381 L 573 441" fill="none" stroke="#5a6675" stroke-width="1.3" marker-end="url(#arr)"/>
<text x="535.5" y="403.5" font-size="11.5" text-anchor="middle" fill="#3a4553" font-style="italic" stroke="#ffffff" stroke-width="2.5" paint-order="stroke" stroke-linejoin="round">(AS4, UBL)</text>
<path d="M 572.4 329 L 572 343 L 572 371 L 583 371 L 583 431 L 717 431 L 717 603" fill="none" stroke="#5a6675" stroke-width="1.3" marker-end="url(#arr)"/>
<text x="650.5" y="414.5" font-size="11.5" text-anchor="middle" fill="#3a4553" font-style="italic" stroke="#ffffff" stroke-width="2.5" paint-order="stroke" stroke-linejoin="round">(API_REST, FacturX)</text>
<path d="M 597.2 329 L 597 343 L 597 353 L 667 353 L 667 392 L 821 392 L 821 434" fill="none" stroke="#5a6675" stroke-width="1.3" marker-end="url(#arr)"/>
<text x="629.5" y="375.5" font-size="11.5" text-anchor="middle" fill="#3a4553" font-style="italic" stroke="#ffffff" stroke-width="2.5" paint-order="stroke" stroke-linejoin="round">(MQ, JSON)</text>
<path d="M 296 329 L 295.5 398 L 295.5 430" fill="none" stroke="#5a6675" stroke-width="1.3" marker-end="url(#arr)"/>
<text x="239" y="371.5" font-size="11.5" text-anchor="middle" fill="#3a4553" font-style="italic" stroke="#ffffff" stroke-width="2.5" paint-order="stroke" stroke-linejoin="round">(API_REST, JSON)</text>
<path d="M 821 481 L 821 539.5" fill="none" stroke="#5a6675" stroke-width="1.3" marker-end="url(#arr)"/>
<text x="777" y="513.5" font-size="11.5" text-anchor="middle" fill="#3a4553" font-style="italic" stroke="#ffffff" stroke-width="2.5" paint-order="stroke" stroke-linejoin="round">(batch, CSV)</text>
<path d="M 321.6666666666667 114 L 322 128 L 322 138 L 678 138 L 678 138 L 885 138 L 885 529.5 L 860 529.5 L 860 539.5" fill="none" stroke="#5a6675" stroke-width="1.3" marker-end="url(#arr)"/>
<path d="M 296.33333333333337 114 L 296 128 L 296 282" fill="none" stroke="#5a6675" stroke-width="1.3" marker-end="url(#arr)"/>
<line x1="20" y1="670" x2="898" y2="670" stroke="#e6e9ee" stroke-width="1"/>
<text x="20" y="692" font-size="11" font-weight="bold" fill="#3a4553">LEGEND</text>
<rect x="150" y="682" width="26" height="14" rx="3" fill="#e9f2fb" stroke="#1f77b4" stroke-dasharray="5 3"/>
<text x="182" y="693" font-size="10" fill="#17202c">Actor group</text>
<rect x="272" y="682" width="26" height="14" rx="3" fill="#e9f3fa" stroke="#2f83b6"/>
<text x="304" y="693" font-size="10" fill="#17202c">Application</text>
<rect x="394" y="682" width="26" height="14" rx="3" fill="#ffffff" stroke="#48546a"/>
<text x="426" y="693" font-size="10" fill="#17202c">Application module</text>
<rect x="552" y="682" width="26" height="14" rx="3" fill="#f4edf8" stroke="#8a53a8"/>
<text x="584" y="693" font-size="10" fill="#17202c">Message queue / broker</text>
<rect x="150" y="704" width="26" height="14" rx="3" fill="#f4edf8" stroke="#8a53a8"/>
<text x="182" y="715" font-size="10" fill="#17202c">Datastore / registry</text>
<rect x="318" y="704" width="26" height="14" rx="3" fill="#f4eff8" stroke="#8659a6" stroke-dasharray="5 3"/>
<text x="350" y="715" font-size="10" fill="#17202c">External system</text>
<line x1="150" y1="734" x2="176" y2="734" stroke="#5a6675" stroke-width="1.3" marker-end="url(#arr)"/>
<text x="182" y="738" font-size="10" fill="#17202c">Application flow — (protocol, format) under the label</text>
<text x="150" y="762" font-size="10" fill="#17202c" font-style="italic">Factur-X mandatory since the electronic-invoicing reform</text>
</svg>
