<svg xmlns="http://www.w3.org/2000/svg" viewBox="0 0 821 303" font-family="Helvetica,Arial,sans-serif">
<defs><marker id="arr" viewBox="0 0 10 10" refX="9" refY="5" markerWidth="7" markerHeight="7" orient="auto-start-reverse">
<path d="M0,0 L10,5 L0,10 z" fill="#5a6675"/></marker></defs>
<rect width="821" height="303" fill="#ffffff"/>
<rect x="10" y="22" width="82" height="164" rx="6" fill="#e9f2fb" stroke="#1f77b4" stroke-width="1.2" stroke-dasharray="5 3"/>
<text x="20" y="40" font-size="13" font-weight="bold" fill="#17202c">HR actors</text>
<rect x="122" y="79" width="345" height="94" rx="6" fill="#e9f3fa" stroke="#2f83b6" stroke-width="1.2"/>
<text x="132" y="97" font-size="13" font-weight="bold" fill="#17202c">HR portal</text>
<circle cx="51" cy="59" r="7" fill="none" stroke="#1f5e91" stroke-width="1.5"/>
<path d="M 40 81 q 11 -19 22 0" fill="none" stroke="#1f5e91" stroke-width="1.5"/>
<text x="51" y="93" font-size="11" text-anchor="middle" fill="#20364c">Employee</text>
<circle cx="51" cy="133" r="7" fill="none" stroke="#1f5e91" stroke-width="1.5"/>
<path d="M 40 155 q 11 -19 22 0" fill="none" stroke="#1f5e91" stroke-width="1.5"/>
<text x="51" y="167" font-size="11" text-anchor="middle" fill="#20364c">Manager</text>
<rect x="131" y="106" width="108" height="47" rx="4" fill="#ffffff" stroke="#48546a" stroke-width="1.3"/>
<text x="185" y="126.25" font-size="12.5" text-anchor="middle" fill="#17202c">Leave</text>
<text x="185" y="140.75" font-size="12.5" text-anchor="middle" fill="#17202c">requests</text>
<rect x="350" y="113.83333333333333" width="108" height="47" rx="4" fill="#ffffff" stroke="#48546a" stroke-width="1.3"/>
<text x="404" y="134.08333333333331" font-size="12.5" text-anchor="middle" fill="#17202c">Approval</text>
<text x="404" y="148.58333333333331" font-size="12.5" text-anchor="middle" fill="#17202c">workflow</text>
<path d="M 587 51 h 92 a 8 23.5 0 0 1 0 47 h -92 a 8 23.5 0 0 1 0 -47" fill="#f4edf8" stroke="#8a53a8" stroke-width="1.3"/>
<ellipse cx="587" cy="74.5" rx="8" ry="23.5" fill="#f4edf8" stroke="#8a53a8" stroke-width="1.3"/>
<text x="637" y="71.25" font-size="12.5" text-anchor="middle" fill="#17202c">Notification</text>
<text x="637" y="85.75" font-size="12.5" text-anchor="middle" fill="#17202c">bus</text>
<path d="M 579 116 v 33 a 54 7 0 0 0 108 0 v -33" fill="#f4edf8" stroke="#8a53a8" stroke-width="1.3"/>
<ellipse cx="633" cy="116" rx="54" ry="7" fill="#f4edf8" stroke="#8a53a8" stroke-width="1.3"/>
<text x="633" y="132.75" font-size="12.5" text-anchor="middle" fill="#17202c">HR</text>
<text x="633" y="147.25" font-size="12.5" text-anchor="middle" fill="#17202c">repository</text>
<rect x="703" y="142" width="108" height="47" rx="4" fill="#f4eff8" stroke="#8659a6" stroke-width="1.2" stroke-dasharray="5 3"/>
<text x="757" y="162.25" font-size="12.5" text-anchor="middle" fill="#17202c">Payroll HRIS</text>
<text x="757" y="176.75" font-size="12.5" text-anchor="middle" fill="#17202c">(outsourced)</text>
<path d="M 83 85 L 107 85 L 107 130 L 117 129.5 L 131 129.5" fill="none" stroke="#5a6675" stroke-width="1.3" marker-end="url(#arr)"/>
<path d="M 239 129.5 L 350 129.5" fill="none" stroke="#5a6675" stroke-width="1.3" marker-end="url(#arr)"/>
<text x="294.5" y="120.5" font-size="11.5" text-anchor="middle" fill="#3a4553" font-style="italic" stroke="#ffffff" stroke-width="2.5" paint-order="stroke" stroke-linejoin="round">(internal)</text>
<path d="M 83 150 L 107 150 L 107 163 L 340 163 L 340 145.16666666666669 L 350 145.16666666666669" fill="none" stroke="#5a6675" stroke-width="1.3" marker-end="url(#arr)"/>
<path d="M 458 137.33333333333334 L 472 137 L 482 137 L 482 133 L 579 133" fill="none" stroke="#5a6675" stroke-width="1.3" marker-end="url(#arr)"/>
<text x="514.5" y="148.5" font-size="11.5" text-anchor="middle" fill="#3a4553" font-style="italic" stroke="#ffffff" stroke-width="2.5" paint-order="stroke" stroke-linejoin="round">(JDBC)</text>
<path d="M 458 125.58333333333333 L 472 126 L 482 126 L 482 82 L 579 82" fill="none" stroke="#5a6675" stroke-width="1.3" marker-end="url(#arr)"/>
<text x="527.5" y="97.5" font-size="11.5" text-anchor="middle" fill="#3a4553" font-style="italic" stroke="#ffffff" stroke-width="2.5" paint-order="stroke" stroke-linejoin="round">(MQ, JSON)</text>
<path d="M 83 67 L 579 67" fill="none" stroke="#5a6675" stroke-width="1.3" marker-end="url(#arr)"/>
<text x="164.5" y="57.5" font-size="11.5" text-anchor="middle" fill="#3a4553" font-style="italic" stroke="#ffffff" stroke-width="2.5" paint-order="stroke" stroke-linejoin="round">(webhook, JSON)</text>
<path d="M 458 149.08333333333331 L 472 149 L 482 149 L 482 166 L 703 166" fill="none" stroke="#5a6675" stroke-width="1.3" marker-end="url(#arr)"/>
<text x="530.5" y="181.5" font-size="11.5" text-anchor="middle" fill="#3a4553" font-style="italic" stroke="#ffffff" stroke-width="2.5" paint-order="stroke" stroke-linejoin="round">(SFTP, CSV)</text>
<line x1="20" y1="209" x2="801" y2="209" stroke="#e6e9ee" stroke-width="1"/>
<text x="20" y="231" font-size="11" font-weight="bold" fill="#3a4553">LEGEND</text>
<rect x="150" y="221" width="26" height="14" rx="3" fill="#e9f2fb" stroke="#1f77b4" stroke-dasharray="5 3"/>
<text x="182" y="232" font-size="10" fill="#17202c">Actor group</text>
<rect x="272" y="221" width="26" height="14" rx="3" fill="#e9f3fa" stroke="#2f83b6"/>
<text x="304" y="232" font-size="10" fill="#17202c">Application</text>
<rect x="394" y="221" width="26" height="14" rx="3" fill="#ffffff" stroke="#48546a"/>
<text x="426" y="232" font-size="10" fill="#17202c">Application module</text>
<rect x="552" y="221" width="26" height="14" rx="3" fill="#f4edf8" stroke="#8a53a8"/>
<text x="584" y="232" font-size="10" fill="#17202c">Message queue / broker</text>
<rect x="150" y="243" width="26" height="14" rx="3" fill="#f4edf8" stroke="#8a53a8"/>
<text x="182" y="254" font-size="10" fill="#17202c">Datastore / registry</text>
<rect x="318" y="243" width="26" height="14" rx="3" fill="#f4eff8" stroke="#8659a6" stroke-dasharray="5 3"/>
<text x="350" y="254" font-size="10" fill="#17202c">External system</text>
<line x1="150" y1="273" x2="176" y2="273" stroke="#5a6675" stroke-width="1.3" marker-end="url(#arr)"/>
<text x="182" y="277" font-size="10" fill="#17202c">Application flow — (protocol, format) under the label</text>
</svg>
