<svg xmlns="http://www.w3.org/2000/svg" viewBox="0 0 587 2053" font-family="Helvetica,Arial,sans-serif">
<defs><marker id="arr" viewBox="0 0 10 10" refX="9" refY="5" markerWidth="7" markerHeight="7" orient="auto-start-reverse">
<path d="M0,0 L10,5 L0,10 z" fill="#444444"/></marker></defs>
<rect width="587" height="2053" fill="white"/>
<rect x="149" y="233" width="425.66666666666663" height="1075" rx="6" fill="#f5f5f4" stroke="#8a8a85" stroke-width="1.4"/>
<text x="159" y="251" font-size="12" font-weight="bold" fill="#333">Main data center</text>
<rect x="172.33333333333331" y="288" width="336" height="287" rx="6" fill="#ecf3ec" stroke="#6d9a6d" stroke-width="1.2" stroke-dasharray="5 3"/>
<text x="182.33333333333331" y="306" font-size="12" font-weight="bold" fill="#333">DMZ</text>
<rect x="332.3333333333333" y="457" width="164" height="101" rx="6" fill="#ffffff" stroke="#55606b" stroke-width="1.5"/>
<text x="342.3333333333333" y="475" font-size="12" font-weight="bold" fill="#333">Reverse proxies</text>
<text x="342.3333333333333" y="488" font-size="12" font-weight="bold" fill="#333">(HA)</text>
<rect x="183.66666666666663" y="668" width="368" height="372" rx="6" fill="#ecf3ec" stroke="#6d9a6d" stroke-width="1.2" stroke-dasharray="5 3"/>
<text x="193.66666666666663" y="686" font-size="12" font-weight="bold" fill="#333">Application zone</text>
<rect x="195.66666666666663" y="703" width="324" height="101" rx="6" fill="#ffffff" stroke="#55606b" stroke-width="1.5"/>
<text x="205.66666666666663" y="721" font-size="12" font-weight="bold" fill="#333">K8s cluster</text>
<text x="205.66666666666663" y="734" font-size="12" font-weight="bold" fill="#333">front</text>
<rect x="195.66666666666663" y="897" width="324" height="106" rx="6" fill="#ffffff" stroke="#55606b" stroke-width="1.5"/>
<text x="205.66666666666663" y="915" font-size="12" font-weight="bold" fill="#333">K8s cluster</text>
<text x="205.66666666666663" y="928" font-size="12" font-weight="bold" fill="#333">business</text>
<rect x="183" y="1133" width="372" height="158" rx="6" fill="#ecf3ec" stroke="#6d9a6d" stroke-width="1.2" stroke-dasharray="5 3"/>
<text x="193" y="1151" font-size="12" font-weight="bold" fill="#333">Data zone</text>
<rect x="195" y="1168" width="164" height="106" rx="6" fill="#ffffff" stroke="#55606b" stroke-width="1.5"/>
<text x="205" y="1186" font-size="12" font-weight="bold" fill="#333">PostgreSQL</text>
<text x="205" y="1199" font-size="12" font-weight="bold" fill="#333">cluster</text>
<rect x="379" y="1169.6666666666667" width="164" height="101" rx="6" fill="#ffffff" stroke="#55606b" stroke-width="1.5"/>
<text x="389" y="1187.6666666666667" font-size="12" font-weight="bold" fill="#333">Kafka</text>
<text x="389" y="1200.6666666666667" font-size="12" font-weight="bold" fill="#333">cluster</text>
<rect x="216" y="1449" width="270" height="334" rx="6" fill="#f5f5f4" stroke="#8a8a85" stroke-width="1.4"/>
<text x="226" y="1467" font-size="12" font-weight="bold" fill="#333">Disaster-recovery site</text>
<rect x="228" y="1484" width="246" height="287" rx="6" fill="#ecf3ec" stroke="#6d9a6d" stroke-width="1.2" stroke-dasharray="5 3"/>
<text x="238" y="1502" font-size="12" font-weight="bold" fill="#333">DR data zone</text>
<rect x="287" y="1519" width="164" height="106" rx="6" fill="#ffffff" stroke="#55606b" stroke-width="1.5"/>
<text x="297" y="1537" font-size="12" font-weight="bold" fill="#333">PostgreSQL</text>
<text x="297" y="1550" font-size="12" font-weight="bold" fill="#333">standby</text>
<rect x="344.3333333333333" y="318" width="140" height="51" rx="4" fill="#ffffff" stroke="#55606b" stroke-width="1.5"/>
<text x="414.3333333333333" y="340.75" font-size="11.5" text-anchor="middle" fill="#222233">Application</text>
<text x="414.3333333333333" y="354.25" font-size="11.5" text-anchor="middle" fill="#222233">firewall (WAF)</text>
<rect x="344.3333333333333" y="500" width="140" height="46" rx="4" fill="#fff7e6" stroke="#b08d2a" stroke-width="1.2"/>
<text x="414.3333333333333" y="527" font-size="11.5" text-anchor="middle" fill="#222233">Nginx</text>
<rect x="184.33333333333331" y="318" width="140" height="51" rx="4" fill="#ffffff" stroke="#55606b" stroke-width="1.5"/>
<text x="254.33333333333331" y="340.75" font-size="11.5" text-anchor="middle" fill="#222233">Transfer</text>
<text x="254.33333333333331" y="354.25" font-size="11.5" text-anchor="middle" fill="#222233">gateway</text>
<rect x="367.66666666666663" y="746" width="140" height="46" rx="4" fill="#fff7e6" stroke="#b08d2a" stroke-width="1.2"/>
<text x="437.66666666666663" y="773" font-size="11.5" text-anchor="middle" fill="#222233">Sales front</text>
<rect x="207.66666666666663" y="746" width="140" height="46" rx="4" fill="#fff7e6" stroke="#b08d2a" stroke-width="1.2"/>
<text x="277.66666666666663" y="773" font-size="11.5" text-anchor="middle" fill="#222233">Checkout funnel</text>
<rect x="367.66666666666663" y="940" width="140" height="51" rx="4" fill="#fff7e6" stroke="#b08d2a" stroke-width="1.2"/>
<text x="437.66666666666663" y="962.75" font-size="11.5" text-anchor="middle" fill="#222233">Order</text>
<text x="437.66666666666663" y="976.25" font-size="11.5" text-anchor="middle" fill="#222233">management</text>
<rect x="207.66666666666663" y="940" width="140" height="51" rx="4" fill="#fff7e6" stroke="#b08d2a" stroke-width="1.2"/>
<text x="277.66666666666663" y="962.75" font-size="11.5" text-anchor="middle" fill="#222233">Payment</text>
<text x="277.66666666666663" y="976.25" font-size="11.5" text-anchor="middle" fill="#222233">hub</text>
<rect x="207" y="1211" width="140" height="51" rx="4" fill="#fff7e6" stroke="#b08d2a" stroke-width="1.2"/>
<text x="277" y="1233.75" font-size="11.5" text-anchor="middle" fill="#222233">PostgreSQL</text>
<text x="277" y="1247.25" font-size="11.5" text-anchor="middle" fill="#222233">primary</text>
<rect x="391" y="1212.6666666666667" width="140" height="46" rx="4" fill="#fff7e6" stroke="#b08d2a" stroke-width="1.2"/>
<text x="461" y="1239.6666666666667" font-size="11.5" text-anchor="middle" fill="#222233">Kafka</text>
<rect x="299" y="1562" width="140" height="51" rx="4" fill="#fff7e6" stroke="#b08d2a" stroke-width="1.2"/>
<text x="369" y="1584.75" font-size="11.5" text-anchor="middle" fill="#222233">PostgreSQL</text>
<text x="369" y="1598.25" font-size="11.5" text-anchor="middle" fill="#222233">replica</text>
<rect x="252.33333333333334" y="1708" width="140" height="51" rx="4" fill="#ffffff" stroke="#55606b" stroke-width="1.5"/>
<text x="322.33333333333337" y="1730.75" font-size="11.5" text-anchor="middle" fill="#222233">Backup</text>
<text x="322.33333333333337" y="1744.25" font-size="11.5" text-anchor="middle" fill="#222233">server</text>
<circle cx="413.5" cy="40" r="7" fill="none" stroke="#445566" stroke-width="1.5"/>
<path d="M 402.5 62 q 11 -19 22 0" fill="none" stroke="#445566" stroke-width="1.5"/>
<text x="413.5" y="74" font-size="10" text-anchor="middle" fill="#223344">Internet</text>
<text x="413.5" y="85" font-size="10" text-anchor="middle" fill="#223344">customers</text>
<rect x="168" y="1827" width="140" height="46" rx="4" fill="#f0eef5" stroke="#9187b3" stroke-width="1.2" stroke-dasharray="5 3"/>
<text x="238" y="1854" font-size="11.5" text-anchor="middle" fill="#222233">PSP</text>
<rect x="12" y="1444" width="140" height="51" rx="4" fill="#f0eef5" stroke="#9187b3" stroke-width="1.2" stroke-dasharray="5 3"/>
<text x="82" y="1466.75" font-size="11.5" text-anchor="middle" fill="#222233">Carrier</text>
<text x="82" y="1480.25" font-size="11.5" text-anchor="middle" fill="#222233">platforms</text>
<path d="M 414 97 L 414.3333333333333 228 L 414.3333333333333 318" fill="none" stroke="#444444" stroke-width="1.3" marker-end="url(#arr)"/>
<text x="378.5" y="152.5" font-size="10.5" text-anchor="middle" fill="#333" font-style="italic" stroke="white" stroke-width="2.5" paint-order="stroke" stroke-linejoin="round">Client web</text>
<text x="378.5" y="166" font-size="10.5" text-anchor="middle" fill="#333" font-style="italic" stroke="white" stroke-width="2.5" paint-order="stroke" stroke-linejoin="round">traffic</text>
<text x="378.5" y="179.5" font-size="9" text-anchor="middle" fill="#777" stroke="white" stroke-width="2.5" paint-order="stroke" stroke-linejoin="round">(HTTPS/443)</text>
<path d="M 414.3333333333333 369 L 414.3333333333333 500" fill="none" stroke="#444444" stroke-width="1.3" marker-end="url(#arr)"/>
<text x="448.3333333333333" y="400.5" font-size="10.5" text-anchor="middle" fill="#333" font-style="italic" stroke="white" stroke-width="2.5" paint-order="stroke" stroke-linejoin="round">Filtered</text>
<text x="448.3333333333333" y="414" font-size="10.5" text-anchor="middle" fill="#333" font-style="italic" stroke="white" stroke-width="2.5" paint-order="stroke" stroke-linejoin="round">traffic</text>
<text x="448.3333333333333" y="427.5" font-size="9" text-anchor="middle" fill="#777" stroke="white" stroke-width="2.5" paint-order="stroke" stroke-linejoin="round">(HTTPS/443)</text>
<path d="M 437.66666666666663 546 L 437.66666666666663 746" fill="none" stroke="#444444" stroke-width="1.3" marker-end="url(#arr)"/>
<text x="402.1666666666667" y="611.5" font-size="10.5" text-anchor="middle" fill="#333" font-style="italic" stroke="white" stroke-width="2.5" paint-order="stroke" stroke-linejoin="round">Front</text>
<text x="402.1666666666667" y="625" font-size="10.5" text-anchor="middle" fill="#333" font-style="italic" stroke="white" stroke-width="2.5" paint-order="stroke" stroke-linejoin="round">routing</text>
<text x="402.1666666666667" y="638.5" font-size="9" text-anchor="middle" fill="#777" stroke="white" stroke-width="2.5" paint-order="stroke" stroke-linejoin="round">(HTTPS/8443)</text>
<path d="M 391 546 L 391 590 L 357.6666666666667 590 L 357.6666666666667 653 L 277.6666666666667 653 L 277.66666666666663 746" fill="none" stroke="#444444" stroke-width="1.3" marker-end="url(#arr)"/>
<text x="322.16666666666663" y="611.5" font-size="10.5" text-anchor="middle" fill="#333" font-style="italic" stroke="white" stroke-width="2.5" paint-order="stroke" stroke-linejoin="round">Checkout</text>
<text x="322.16666666666663" y="625" font-size="10.5" text-anchor="middle" fill="#333" font-style="italic" stroke="white" stroke-width="2.5" paint-order="stroke" stroke-linejoin="round">routing</text>
<text x="322.16666666666663" y="638.5" font-size="9" text-anchor="middle" fill="#777" stroke="white" stroke-width="2.5" paint-order="stroke" stroke-linejoin="round">(HTTPS/8444)</text>
<path d="M 414.33333333333326 792 L 414.33333333333326 882 L 437.66666666666663 882 L 437.66666666666663 940" fill="none" stroke="#444444" stroke-width="1.3" marker-end="url(#arr)"/>
<text x="450.83333333333326" y="840.5" font-size="10.5" text-anchor="middle" fill="#333" font-style="italic" stroke="white" stroke-width="2.5" paint-order="stroke" stroke-linejoin="round">Orders</text>
<text x="450.83333333333326" y="854" font-size="10.5" text-anchor="middle" fill="#333" font-style="italic" stroke="white" stroke-width="2.5" paint-order="stroke" stroke-linejoin="round">API</text>
<text x="450.83333333333326" y="867.5" font-size="9" text-anchor="middle" fill="#777" stroke="white" stroke-width="2.5" paint-order="stroke" stroke-linejoin="round">(HTTPS/8443)</text>
<path d="M 277.66666666666663 792 L 277.66666666666663 940" fill="none" stroke="#444444" stroke-width="1.3" marker-end="url(#arr)"/>
<text x="242.16666666666663" y="840.5" font-size="10.5" text-anchor="middle" fill="#333" font-style="italic" stroke="white" stroke-width="2.5" paint-order="stroke" stroke-linejoin="round">Payment</text>
<text x="242.16666666666663" y="854" font-size="10.5" text-anchor="middle" fill="#333" font-style="italic" stroke="white" stroke-width="2.5" paint-order="stroke" stroke-linejoin="round">API</text>
<text x="242.16666666666663" y="867.5" font-size="9" text-anchor="middle" fill="#777" stroke="white" stroke-width="2.5" paint-order="stroke" stroke-linejoin="round">(HTTPS/8445)</text>
<path d="M 254.3333333333333 991 L 254.3333333333333 1055 L 172 1055 L 172 1323 L 203 1323 L 203 1793 L 238 1793 L 238 1827" fill="none" stroke="#444444" stroke-width="1.3" marker-end="url(#arr)"/>
<text x="147" y="1368.5" font-size="10.5" text-anchor="middle" fill="#333" font-style="italic" stroke="white" stroke-width="2.5" paint-order="stroke" stroke-linejoin="round">Authorization and</text>
<text x="147" y="1382" font-size="10.5" text-anchor="middle" fill="#333" font-style="italic" stroke="white" stroke-width="2.5" paint-order="stroke" stroke-linejoin="round">capture</text>
<text x="147" y="1395.5" font-size="9" text-anchor="middle" fill="#777" stroke="white" stroke-width="2.5" paint-order="stroke" stroke-linejoin="round">(HTTPS/443)</text>
<path d="M 402.66666666666663 991 L 402.66666666666663 1055 L 367.66666666666663 1055 L 367.66666666666663 1118 L 300.3333333333333 1118 L 300.3333333333333 1211" fill="none" stroke="#444444" stroke-width="1.3" marker-end="url(#arr)"/>
<text x="333.16666666666663" y="1076.5" font-size="10.5" text-anchor="middle" fill="#333" font-style="italic" stroke="white" stroke-width="2.5" paint-order="stroke" stroke-linejoin="round">Read/write</text>
<text x="333.16666666666663" y="1090" font-size="10.5" text-anchor="middle" fill="#333" font-style="italic" stroke="white" stroke-width="2.5" paint-order="stroke" stroke-linejoin="round">orders</text>
<text x="333.16666666666663" y="1103.5" font-size="9" text-anchor="middle" fill="#777" stroke="white" stroke-width="2.5" paint-order="stroke" stroke-linejoin="round">(TCP/5432)</text>
<path d="M 300.99999999999994 991 L 300.99999999999994 1055 L 289.66666666666663 1055 L 289.66666666666663 1118 L 253.66666666666666 1118 L 253.66666666666666 1211" fill="none" stroke="#444444" stroke-width="1.3" marker-end="url(#arr)"/>
<text x="249.16666666666663" y="1076.5" font-size="10.5" text-anchor="middle" fill="#333" font-style="italic" stroke="white" stroke-width="2.5" paint-order="stroke" stroke-linejoin="round">Read/write</text>
<text x="249.16666666666663" y="1090" font-size="10.5" text-anchor="middle" fill="#333" font-style="italic" stroke="white" stroke-width="2.5" paint-order="stroke" stroke-linejoin="round">transactions</text>
<text x="249.16666666666663" y="1103.5" font-size="9" text-anchor="middle" fill="#777" stroke="white" stroke-width="2.5" paint-order="stroke" stroke-linejoin="round">(TCP/5432)</text>
<path d="M 437.66666666666663 991 L 437.66666666666663 1212.6666666666665" fill="none" stroke="#444444" stroke-width="1.3" marker-end="url(#arr)"/>
<text x="407.16666666666663" y="1076.5" font-size="10.5" text-anchor="middle" fill="#333" font-style="italic" stroke="white" stroke-width="2.5" paint-order="stroke" stroke-linejoin="round">Order</text>
<text x="407.16666666666663" y="1090" font-size="10.5" text-anchor="middle" fill="#333" font-style="italic" stroke="white" stroke-width="2.5" paint-order="stroke" stroke-linejoin="round">events</text>
<text x="407.16666666666663" y="1103.5" font-size="9" text-anchor="middle" fill="#777" stroke="white" stroke-width="2.5" paint-order="stroke" stroke-linejoin="round">(TCP/9092)</text>
<path d="M 460.99999999999994 792 L 460.99999999999994 819 L 529.6666666666666 819 L 529.6666666666666 1118 L 484.3333333333333 1118 L 484.3333333333333 1212.6666666666665" fill="none" stroke="#444444" stroke-width="1.3" marker-end="url(#arr)"/>
<text x="499.16666666666663" y="1076.5" font-size="10.5" text-anchor="middle" fill="#333" font-style="italic" stroke="white" stroke-width="2.5" paint-order="stroke" stroke-linejoin="round">Browsing</text>
<text x="499.16666666666663" y="1090" font-size="10.5" text-anchor="middle" fill="#333" font-style="italic" stroke="white" stroke-width="2.5" paint-order="stroke" stroke-linejoin="round">events</text>
<text x="499.16666666666663" y="1103.5" font-size="9" text-anchor="middle" fill="#777" stroke="white" stroke-width="2.5" paint-order="stroke" stroke-linejoin="round">(TCP/9092)</text>
<path d="M 472.66666666666663 991 L 472.66666666666663 1018 L 524.6666666666666 1018 A 5 5 0 0 1 534.6666666666666 1018 L 539.6666666666666 1018 L 539.6666666666666 1055 L 561.6666666666666 1055 L 561.6666666666666 273 L 419.3333333333333 273 A 5 5 0 0 0 409.3333333333333 273 L 254.33333333333331 273 L 254.33333333333331 318" fill="none" stroke="#444444" stroke-width="1.3" marker-end="url(#arr)"/>
<text x="533.6666666666666" y="611.5" font-size="10.5" text-anchor="middle" fill="#333" font-style="italic" stroke="white" stroke-width="2.5" paint-order="stroke" stroke-linejoin="round">Carrier</text>
<text x="533.6666666666666" y="625" font-size="10.5" text-anchor="middle" fill="#333" font-style="italic" stroke="white" stroke-width="2.5" paint-order="stroke" stroke-linejoin="round">files</text>
<text x="533.6666666666666" y="638.5" font-size="9" text-anchor="middle" fill="#777" stroke="white" stroke-width="2.5" paint-order="stroke" stroke-linejoin="round">(SFTP/22)</text>
<path d="M 254.33333333333331 369 L 254.33333333333337 590 L 161.00000000000006 590 L 161 1347 L 82 1347 L 82 1444" fill="none" stroke="#444444" stroke-width="1.3" marker-end="url(#arr)"/>
<text x="49.5" y="1368.5" font-size="10.5" text-anchor="middle" fill="#333" font-style="italic" stroke="white" stroke-width="2.5" paint-order="stroke" stroke-linejoin="round">Logistics</text>
<text x="49.5" y="1382" font-size="10.5" text-anchor="middle" fill="#333" font-style="italic" stroke="white" stroke-width="2.5" paint-order="stroke" stroke-linejoin="round">exchanges</text>
<text x="49.5" y="1395.5" font-size="9" text-anchor="middle" fill="#777" stroke="white" stroke-width="2.5" paint-order="stroke" stroke-linejoin="round">(AS4/443)</text>
<path d="M 277 1262 L 277 1323 L 369 1323 L 369 1562" fill="none" stroke="#444444" stroke-width="1.3" marker-end="url(#arr)"/>
<text x="330.5" y="1368.5" font-size="10.5" text-anchor="middle" fill="#333" font-style="italic" stroke="white" stroke-width="2.5" paint-order="stroke" stroke-linejoin="round">Async</text>
<text x="330.5" y="1382" font-size="10.5" text-anchor="middle" fill="#333" font-style="italic" stroke="white" stroke-width="2.5" paint-order="stroke" stroke-linejoin="round">replication</text>
<text x="330.5" y="1395.5" font-size="9" text-anchor="middle" fill="#777" stroke="white" stroke-width="2.5" paint-order="stroke" stroke-linejoin="round">(TCP/5432)</text>
<path d="M 299 1625 L 299 1708" fill="none" stroke="#444444" stroke-width="1.3" marker-end="url(#arr)"/>
<text x="268.5" y="1656.5" font-size="10.5" text-anchor="middle" fill="#333" font-style="italic" stroke="white" stroke-width="2.5" paint-order="stroke" stroke-linejoin="round">Daily</text>
<text x="268.5" y="1670" font-size="10.5" text-anchor="middle" fill="#333" font-style="italic" stroke="white" stroke-width="2.5" paint-order="stroke" stroke-linejoin="round">backups</text>
<text x="268.5" y="1683.5" font-size="9" text-anchor="middle" fill="#777" stroke="white" stroke-width="2.5" paint-order="stroke" stroke-linejoin="round">(TCP/9095)</text>
<path d="M 461 1258.6666666666665 L 461 1697.9999999999998 L 345.6666666666667 1697.9999999999998 L 345.6666666666667 1707.9999999999998" fill="none" stroke="#444444" stroke-width="1.3" marker-end="url(#arr)"/>
<text x="494.5" y="1368.4999999999998" font-size="10.5" text-anchor="middle" fill="#333" font-style="italic" stroke="white" stroke-width="2.5" paint-order="stroke" stroke-linejoin="round">Topic</text>
<text x="494.5" y="1381.9999999999998" font-size="10.5" text-anchor="middle" fill="#333" font-style="italic" stroke="white" stroke-width="2.5" paint-order="stroke" stroke-linejoin="round">archiving</text>
<text x="494.5" y="1395.4999999999998" font-size="9" text-anchor="middle" fill="#777" stroke="white" stroke-width="2.5" paint-order="stroke" stroke-linejoin="round">(TCP/9095)</text>
<line x1="20" y1="1895" x2="567" y2="1895" stroke="#ddd" stroke-width="1"/>
<text x="20" y="1917" font-size="11" font-weight="bold" fill="#555">LEGEND</text>
<rect x="150" y="1907" width="26" height="14" rx="3" fill="#f5f5f4" stroke="#8a8a85"/>
<text x="182" y="1918" font-size="10" fill="#444">Site / data center</text>
<rect x="308" y="1907" width="26" height="14" rx="3" fill="#ecf3ec" stroke="#6d9a6d" stroke-dasharray="5 3"/>
<text x="340" y="1918" font-size="10" fill="#444">Network zone</text>
<rect x="150" y="1929" width="26" height="14" rx="3" fill="#ffffff" stroke="#55606b"/>
<text x="182" y="1940" font-size="10" fill="#444">Server / VM</text>
<rect x="272" y="1929" width="26" height="14" rx="3" fill="#fff7e6" stroke="#b08d2a"/>
<text x="304" y="1940" font-size="10" fill="#444">Deployed application</text>
<circle cx="163" cy="1954" r="3" fill="none" stroke="#445566" stroke-width="1.2"/>
<path d="M 158 1964 q 5 -7 10 0" fill="none" stroke="#445566" stroke-width="1.2"/>
<text x="182" y="1962" font-size="10" fill="#444">User / consumer</text>
<rect x="292" y="1951" width="26" height="14" rx="3" fill="#f0eef5" stroke="#9187b3" stroke-dasharray="5 3"/>
<text x="324" y="1962" font-size="10" fill="#444">External system</text>
<line x1="150" y1="2003" x2="176" y2="2003" stroke="#444444" stroke-width="1.3" marker-end="url(#arr)"/>
<text x="182" y="2007" font-size="10" fill="#444">Technical flow (protocol, port)</text>
<text x="150" y="2031" font-size="10" fill="#444" font-style="italic">Inter-zone and inter-site flows filtered by firewall (flow matrix in the architecture dossier)</text>
</svg>
