<svg xmlns="http://www.w3.org/2000/svg" viewBox="0 0 527 1450" font-family="Helvetica,Arial,sans-serif">
<defs><marker id="arr" viewBox="0 0 10 10" refX="9" refY="5" markerWidth="7" markerHeight="7" orient="auto-start-reverse">
<path d="M0,0 L10,5 L0,10 z" fill="#444444"/></marker></defs>
<rect width="527" height="1450" fill="white"/>
<rect x="12" y="233" width="503" height="828" rx="6" fill="#f5f5f4" stroke="#8a8a85" stroke-width="1.4"/>
<text x="22" y="251" font-size="12" font-weight="bold" fill="#333">Main data center</text>
<rect x="131.66666666666669" y="288" width="348" height="153" rx="6" fill="#ecf3ec" stroke="#6d9a6d" stroke-width="1.2" stroke-dasharray="5 3"/>
<text x="141.66666666666669" y="306" font-size="12" font-weight="bold" fill="#333">DMZ</text>
<rect x="303.6666666666667" y="323" width="164" height="101" rx="6" fill="#ffffff" stroke="#55606b" stroke-width="1.5"/>
<text x="313.6666666666667" y="341" font-size="12" font-weight="bold" fill="#333">Reverse proxy</text>
<text x="313.6666666666667" y="354" font-size="12" font-weight="bold" fill="#333">(HA pair)</text>
<rect x="131" y="534" width="372" height="140" rx="6" fill="#ecf3ec" stroke="#6d9a6d" stroke-width="1.2" stroke-dasharray="5 3"/>
<text x="141" y="552" font-size="12" font-weight="bold" fill="#333">Application zone</text>
<rect x="143" y="569" width="164" height="88" rx="6" fill="#ffffff" stroke="#55606b" stroke-width="1.5"/>
<text x="153" y="587" font-size="12" font-weight="bold" fill="#333">Billing VM</text>
<rect x="327" y="569" width="164" height="88" rx="6" fill="#ffffff" stroke="#55606b" stroke-width="1.5"/>
<text x="337" y="587" font-size="12" font-weight="bold" fill="#333">CRM VM</text>
<rect x="233.66666666666669" y="767" width="246" height="282" rx="6" fill="#ecf3ec" stroke="#6d9a6d" stroke-width="1.2" stroke-dasharray="5 3"/>
<text x="243.66666666666669" y="785" font-size="12" font-weight="bold" fill="#333">Data zone</text>
<rect x="303.6666666666667" y="802" width="164" height="101" rx="6" fill="#ffffff" stroke="#55606b" stroke-width="1.5"/>
<text x="313.6666666666667" y="820" font-size="12" font-weight="bold" fill="#333">Database</text>
<text x="313.6666666666667" y="833" font-size="12" font-weight="bold" fill="#333">server</text>
<rect x="315.6666666666667" y="366" width="140" height="46" rx="4" fill="#fff7e6" stroke="#b08d2a" stroke-width="1.2"/>
<text x="385.6666666666667" y="393" font-size="11.5" text-anchor="middle" fill="#222233">WAF</text>
<rect x="143.66666666666669" y="348" width="140" height="51" rx="4" fill="#ffffff" stroke="#55606b" stroke-width="1.5"/>
<text x="213.66666666666669" y="370.75" font-size="11.5" text-anchor="middle" fill="#222233">Transfer</text>
<text x="213.66666666666669" y="384.25" font-size="11.5" text-anchor="middle" fill="#222233">gateway</text>
<rect x="155" y="599" width="140" height="46" rx="4" fill="#fff7e6" stroke="#b08d2a" stroke-width="1.2"/>
<text x="225" y="626" font-size="11.5" text-anchor="middle" fill="#222233">Billing</text>
<rect x="339" y="599" width="140" height="46" rx="4" fill="#fff7e6" stroke="#b08d2a" stroke-width="1.2"/>
<text x="409" y="626" font-size="11.5" text-anchor="middle" fill="#222233">CRM</text>
<rect x="315.6666666666667" y="845" width="140" height="46" rx="4" fill="#fff7e6" stroke="#b08d2a" stroke-width="1.2"/>
<text x="385.6666666666667" y="872" font-size="11.5" text-anchor="middle" fill="#222233">PostgreSQL</text>
<rect x="245.66666666666669" y="986" width="140" height="51" rx="4" fill="#ffffff" stroke="#55606b" stroke-width="1.5"/>
<text x="315.6666666666667" y="1008.75" font-size="11.5" text-anchor="middle" fill="#222233">Backup</text>
<text x="315.6666666666667" y="1022.25" font-size="11.5" text-anchor="middle" fill="#222233">server</text>
<circle cx="386" cy="40" r="7" fill="none" stroke="#445566" stroke-width="1.5"/>
<path d="M 375 62 q 11 -19 22 0" fill="none" stroke="#445566" stroke-width="1.5"/>
<text x="386" y="74" font-size="10" text-anchor="middle" fill="#223344">User</text>
<text x="386" y="85" font-size="10" text-anchor="middle" fill="#223344">workstations</text>
<rect x="50" y="1197" width="140" height="51" rx="4" fill="#f0eef5" stroke="#9187b3" stroke-width="1.2" stroke-dasharray="5 3"/>
<text x="120" y="1219.75" font-size="11.5" text-anchor="middle" fill="#222233">Partner EDI</text>
<text x="120" y="1233.25" font-size="11.5" text-anchor="middle" fill="#222233">platform</text>
<path d="M 386 97 L 385.6666666666667 228 L 385.6666666666667 366" fill="none" stroke="#444444" stroke-width="1.3" marker-end="url(#arr)"/>
<text x="335.5" y="152.5" font-size="10.5" text-anchor="middle" fill="#333" font-style="italic" stroke="white" stroke-width="2.5" paint-order="stroke" stroke-linejoin="round">Web application</text>
<text x="335.5" y="166" font-size="10.5" text-anchor="middle" fill="#333" font-style="italic" stroke="white" stroke-width="2.5" paint-order="stroke" stroke-linejoin="round">access</text>
<text x="335.5" y="179.5" font-size="9" text-anchor="middle" fill="#777" stroke="white" stroke-width="2.5" paint-order="stroke" stroke-linejoin="round">(HTTPS/443)</text>
<path d="M 362.33333333333337 412 L 362.33333333333337 519 L 225 519 L 225 599" fill="none" stroke="#444444" stroke-width="1.3" marker-end="url(#arr)"/>
<text x="309.83333333333337" y="477.5" font-size="10.5" text-anchor="middle" fill="#333" font-style="italic" stroke="white" stroke-width="2.5" paint-order="stroke" stroke-linejoin="round">Filtered billing</text>
<text x="309.83333333333337" y="491" font-size="10.5" text-anchor="middle" fill="#333" font-style="italic" stroke="white" stroke-width="2.5" paint-order="stroke" stroke-linejoin="round">traffic</text>
<text x="309.83333333333337" y="504.5" font-size="9" text-anchor="middle" fill="#777" stroke="white" stroke-width="2.5" paint-order="stroke" stroke-linejoin="round">(HTTPS/8443)</text>
<path d="M 409 412 L 409 599" fill="none" stroke="#444444" stroke-width="1.3" marker-end="url(#arr)"/>
<text x="450.5" y="477.5" font-size="10.5" text-anchor="middle" fill="#333" font-style="italic" stroke="white" stroke-width="2.5" paint-order="stroke" stroke-linejoin="round">Filtered CRM</text>
<text x="450.5" y="491" font-size="10.5" text-anchor="middle" fill="#333" font-style="italic" stroke="white" stroke-width="2.5" paint-order="stroke" stroke-linejoin="round">traffic</text>
<text x="450.5" y="504.5" font-size="9" text-anchor="middle" fill="#777" stroke="white" stroke-width="2.5" paint-order="stroke" stroke-linejoin="round">(HTTPS/8444)</text>
<path d="M 248.33333333333331 645 L 248.33333333333331 752 L 362.33333333333337 752 L 362.33333333333337 845" fill="none" stroke="#444444" stroke-width="1.3" marker-end="url(#arr)"/>
<text x="207.83333333333331" y="710.5" font-size="10.5" text-anchor="middle" fill="#333" font-style="italic" stroke="white" stroke-width="2.5" paint-order="stroke" stroke-linejoin="round">Read/write</text>
<text x="207.83333333333331" y="724" font-size="10.5" text-anchor="middle" fill="#333" font-style="italic" stroke="white" stroke-width="2.5" paint-order="stroke" stroke-linejoin="round">billing data</text>
<text x="207.83333333333331" y="737.5" font-size="9" text-anchor="middle" fill="#777" stroke="white" stroke-width="2.5" paint-order="stroke" stroke-linejoin="round">(TCP/5432)</text>
<path d="M 409 645 L 409 845" fill="none" stroke="#444444" stroke-width="1.3" marker-end="url(#arr)"/>
<text x="453.5" y="710.5" font-size="10.5" text-anchor="middle" fill="#333" font-style="italic" stroke="white" stroke-width="2.5" paint-order="stroke" stroke-linejoin="round">Read/write</text>
<text x="453.5" y="724" font-size="10.5" text-anchor="middle" fill="#333" font-style="italic" stroke="white" stroke-width="2.5" paint-order="stroke" stroke-linejoin="round">customer data</text>
<text x="453.5" y="737.5" font-size="9" text-anchor="middle" fill="#777" stroke="white" stroke-width="2.5" paint-order="stroke" stroke-linejoin="round">(TCP/5432)</text>
<path d="M 201.66666666666666 645 L 201.66666666666666 689 L 125 689 A 5 5 0 0 0 115 689 L 109 689 L 109 273 L 213.66666666666669 273 L 213.66666666666669 348" fill="none" stroke="#444444" stroke-width="1.3" marker-end="url(#arr)"/>
<text x="65.5" y="477.5" font-size="10.5" text-anchor="middle" fill="#333" font-style="italic" stroke="white" stroke-width="2.5" paint-order="stroke" stroke-linejoin="round">Drop invoices</text>
<text x="65.5" y="491" font-size="10.5" text-anchor="middle" fill="#333" font-style="italic" stroke="white" stroke-width="2.5" paint-order="stroke" stroke-linejoin="round">to transmit</text>
<text x="65.5" y="504.5" font-size="9" text-anchor="middle" fill="#777" stroke="white" stroke-width="2.5" paint-order="stroke" stroke-linejoin="round">(SFTP/22)</text>
<path d="M 213.66666666666669 399 L 213.66666666666669 456 L 120 456 L 120 1197" fill="none" stroke="#444444" stroke-width="1.3" marker-end="url(#arr)"/>
<text x="87.5" y="1121.5" font-size="10.5" text-anchor="middle" fill="#333" font-style="italic" stroke="white" stroke-width="2.5" paint-order="stroke" stroke-linejoin="round">Partner</text>
<text x="87.5" y="1135" font-size="10.5" text-anchor="middle" fill="#333" font-style="italic" stroke="white" stroke-width="2.5" paint-order="stroke" stroke-linejoin="round">transfers</text>
<text x="87.5" y="1148.5" font-size="9" text-anchor="middle" fill="#777" stroke="white" stroke-width="2.5" paint-order="stroke" stroke-linejoin="round">(AS4/443)</text>
<path d="M 315.6666666666667 903 L 315.6666666666667 986" fill="none" stroke="#444444" stroke-width="1.3" marker-end="url(#arr)"/>
<text x="285.1666666666667" y="934.5" font-size="10.5" text-anchor="middle" fill="#333" font-style="italic" stroke="white" stroke-width="2.5" paint-order="stroke" stroke-linejoin="round">Daily</text>
<text x="285.1666666666667" y="948" font-size="10.5" text-anchor="middle" fill="#333" font-style="italic" stroke="white" stroke-width="2.5" paint-order="stroke" stroke-linejoin="round">backups</text>
<text x="285.1666666666667" y="961.5" font-size="9" text-anchor="middle" fill="#777" stroke="white" stroke-width="2.5" paint-order="stroke" stroke-linejoin="round">(TCP/9092)</text>
<line x1="20" y1="1270" x2="507" y2="1270" stroke="#ddd" stroke-width="1"/>
<text x="20" y="1292" font-size="11" font-weight="bold" fill="#555">LEGEND</text>
<rect x="150" y="1282" width="26" height="14" rx="3" fill="#f5f5f4" stroke="#8a8a85"/>
<text x="182" y="1293" font-size="10" fill="#444">Site / data center</text>
<rect x="150" y="1304" width="26" height="14" rx="3" fill="#ecf3ec" stroke="#6d9a6d" stroke-dasharray="5 3"/>
<text x="182" y="1315" font-size="10" fill="#444">Network zone</text>
<rect x="277" y="1304" width="26" height="14" rx="3" fill="#ffffff" stroke="#55606b"/>
<text x="309" y="1315" font-size="10" fill="#444">Server / VM</text>
<rect x="150" y="1326" width="26" height="14" rx="3" fill="#fff7e6" stroke="#b08d2a"/>
<text x="182" y="1337" font-size="10" fill="#444">Deployed application</text>
<circle cx="163" cy="1351" r="3" fill="none" stroke="#445566" stroke-width="1.2"/>
<path d="M 158 1361 q 5 -7 10 0" fill="none" stroke="#445566" stroke-width="1.2"/>
<text x="182" y="1359" font-size="10" fill="#444">User / consumer</text>
<rect x="292" y="1348" width="26" height="14" rx="3" fill="#f0eef5" stroke="#9187b3" stroke-dasharray="5 3"/>
<text x="324" y="1359" font-size="10" fill="#444">External system</text>
<line x1="150" y1="1400" x2="176" y2="1400" stroke="#444444" stroke-width="1.3" marker-end="url(#arr)"/>
<text x="182" y="1404" font-size="10" fill="#444">Technical flow (protocol, port)</text>
<text x="150" y="1428" font-size="10" fill="#444" font-style="italic">Inter-zone flows filtered by firewall (flow matrix attached to the architecture dossier)</text>
</svg>
