<svg xmlns="http://www.w3.org/2000/svg" viewBox="0 0 1445 461" font-family="Helvetica,Arial,sans-serif">
<defs><marker id="arr" viewBox="0 0 10 10" refX="9" refY="5" markerWidth="7" markerHeight="7" orient="auto-start-reverse">
<path d="M0,0 L10,5 L0,10 z" fill="#444444"/></marker></defs>
<rect width="1445" height="461" fill="white"/>
<rect x="200" y="22" width="1027" height="327" rx="6" fill="#f5f5f4" stroke="#8a8a85" stroke-width="1.4"/>
<text x="210" y="40" font-size="12" font-weight="bold" fill="#333">Main data center</text>
<rect x="235" y="128.33333333333331" width="162" height="197" rx="6" fill="#ecf3ec" stroke="#6d9a6d" stroke-width="1.2" stroke-dasharray="5 3"/>
<text x="245" y="146.33333333333331" font-size="12" font-weight="bold" fill="#333">DMZ</text>
<rect x="250" y="224.33333333333331" width="132" height="91" rx="6" fill="#ffffff" stroke="#55606b" stroke-width="1.5"/>
<text x="260" y="242.33333333333331" font-size="12" font-weight="bold" fill="#333">Reverse proxy</text>
<text x="260" y="255.33333333333331" font-size="12" font-weight="bold" fill="#333">(HA pair)</text>
<rect x="530" y="118" width="162" height="214" rx="6" fill="#ecf3ec" stroke="#6d9a6d" stroke-width="1.2" stroke-dasharray="5 3"/>
<text x="540" y="136" font-size="12" font-weight="bold" fill="#333">Application zone</text>
<rect x="545" y="146" width="132" height="78" rx="6" fill="#ffffff" stroke="#55606b" stroke-width="1.5"/>
<text x="555" y="164" font-size="12" font-weight="bold" fill="#333">Billing VM</text>
<rect x="545" y="244" width="132" height="78" rx="6" fill="#ffffff" stroke="#55606b" stroke-width="1.5"/>
<text x="555" y="262" font-size="12" font-weight="bold" fill="#333">CRM VM</text>
<rect x="825" y="196.33333333333331" width="392" height="129" rx="6" fill="#ecf3ec" stroke="#6d9a6d" stroke-width="1.2" stroke-dasharray="5 3"/>
<text x="835" y="214.33333333333331" font-size="12" font-weight="bold" fill="#333">Data zone</text>
<rect x="840" y="224.33333333333331" width="132" height="91" rx="6" fill="#ffffff" stroke="#55606b" stroke-width="1.5"/>
<text x="850" y="242.33333333333331" font-size="12" font-weight="bold" fill="#333">Database</text>
<text x="850" y="255.33333333333331" font-size="12" font-weight="bold" fill="#333">server</text>
<rect x="260" y="265.3333333333333" width="112" height="40" rx="4" fill="#fff7e6" stroke="#b08d2a" stroke-width="1.2"/>
<text x="316" y="289.3333333333333" font-size="11.5" text-anchor="middle" fill="#222233">WAF</text>
<rect x="260" y="156.33333333333331" width="112" height="48" rx="4" fill="#ffffff" stroke="#55606b" stroke-width="1.5"/>
<text x="316" y="177.58333333333331" font-size="11.5" text-anchor="middle" fill="#222233">Transfer</text>
<text x="316" y="191.08333333333331" font-size="11.5" text-anchor="middle" fill="#222233">gateway</text>
<rect x="555" y="174" width="112" height="40" rx="4" fill="#fff7e6" stroke="#b08d2a" stroke-width="1.2"/>
<text x="611" y="198" font-size="11.5" text-anchor="middle" fill="#222233">Billing</text>
<rect x="555" y="272" width="112" height="40" rx="4" fill="#fff7e6" stroke="#b08d2a" stroke-width="1.2"/>
<text x="611" y="296" font-size="11.5" text-anchor="middle" fill="#222233">CRM</text>
<rect x="850" y="265.3333333333333" width="112" height="40" rx="4" fill="#fff7e6" stroke="#b08d2a" stroke-width="1.2"/>
<text x="906" y="289.3333333333333" font-size="11.5" text-anchor="middle" fill="#222233">PostgreSQL</text>
<rect x="1095" y="241.33333333333331" width="112" height="48" rx="4" fill="#ffffff" stroke="#55606b" stroke-width="1.5"/>
<text x="1151" y="262.5833333333333" font-size="11.5" text-anchor="middle" fill="#222233">Backup</text>
<text x="1151" y="276.0833333333333" font-size="11.5" text-anchor="middle" fill="#222233">server</text>
<circle cx="51" cy="261" r="7" fill="none" stroke="#445566" stroke-width="1.5"/>
<path d="M 40 283 q 11 -19 22 0" fill="none" stroke="#445566" stroke-width="1.5"/>
<text x="51" y="295" font-size="10" text-anchor="middle" fill="#223344">User</text>
<text x="51" y="306" font-size="10" text-anchor="middle" fill="#223344">workstations</text>
<rect x="1323" y="83" width="112" height="48" rx="4" fill="#f0eef5" stroke="#9187b3" stroke-width="1.2" stroke-dasharray="5 3"/>
<text x="1379" y="104.25" font-size="11.5" text-anchor="middle" fill="#222233">Partner EDI</text>
<text x="1379" y="117.75" font-size="11.5" text-anchor="middle" fill="#222233">platform</text>
<path d="M 92 285 L 195 285.3333333333333 L 260 285.3333333333333" fill="none" stroke="#444444" stroke-width="1.3" marker-end="url(#arr)"/>
<text x="143.5" y="299.5" font-size="10.5" text-anchor="middle" fill="#333" font-style="italic" stroke="white" stroke-width="2.5" paint-order="stroke" stroke-linejoin="round">Web</text>
<text x="143.5" y="313" font-size="10.5" text-anchor="middle" fill="#333" font-style="italic" stroke="white" stroke-width="2.5" paint-order="stroke" stroke-linejoin="round">application</text>
<text x="143.5" y="326.5" font-size="10.5" text-anchor="middle" fill="#333" font-style="italic" stroke="white" stroke-width="2.5" paint-order="stroke" stroke-linejoin="round">access</text>
<text x="143.5" y="340" font-size="9" text-anchor="middle" fill="#777" stroke="white" stroke-width="2.5" paint-order="stroke" stroke-linejoin="round">(HTTPS/443)</text>
<path d="M 372 278.66666666666663 L 515 278.66666666666663 L 515 194 L 555 194" fill="none" stroke="#444444" stroke-width="1.3" marker-end="url(#arr)"/>
<text x="463.5" y="230.66666666666666" font-size="10.5" text-anchor="middle" fill="#333" font-style="italic" stroke="white" stroke-width="2.5" paint-order="stroke" stroke-linejoin="round">Filtered</text>
<text x="463.5" y="244.16666666666666" font-size="10.5" text-anchor="middle" fill="#333" font-style="italic" stroke="white" stroke-width="2.5" paint-order="stroke" stroke-linejoin="round">billing</text>
<text x="463.5" y="257.66666666666663" font-size="10.5" text-anchor="middle" fill="#333" font-style="italic" stroke="white" stroke-width="2.5" paint-order="stroke" stroke-linejoin="round">traffic</text>
<text x="463.5" y="271.16666666666663" font-size="9" text-anchor="middle" fill="#777" stroke="white" stroke-width="2.5" paint-order="stroke" stroke-linejoin="round">(HTTPS/8443)</text>
<path d="M 372 292 L 555 292" fill="none" stroke="#444444" stroke-width="1.3" marker-end="url(#arr)"/>
<text x="463.5" y="306.5" font-size="10.5" text-anchor="middle" fill="#333" font-style="italic" stroke="white" stroke-width="2.5" paint-order="stroke" stroke-linejoin="round">Filtered CRM</text>
<text x="463.5" y="320" font-size="10.5" text-anchor="middle" fill="#333" font-style="italic" stroke="white" stroke-width="2.5" paint-order="stroke" stroke-linejoin="round">traffic</text>
<text x="463.5" y="333.5" font-size="9" text-anchor="middle" fill="#777" stroke="white" stroke-width="2.5" paint-order="stroke" stroke-linejoin="round">(HTTPS/8444)</text>
<path d="M 667 200.66666666666666 L 810 200.66666666666669 L 810 278.6666666666667 L 850 278.66666666666663" fill="none" stroke="#444444" stroke-width="1.3" marker-end="url(#arr)"/>
<text x="758.5" y="166.16666666666669" font-size="10.5" text-anchor="middle" fill="#333" font-style="italic" stroke="white" stroke-width="2.5" paint-order="stroke" stroke-linejoin="round">Read/write</text>
<text x="758.5" y="179.66666666666669" font-size="10.5" text-anchor="middle" fill="#333" font-style="italic" stroke="white" stroke-width="2.5" paint-order="stroke" stroke-linejoin="round">billing data</text>
<text x="758.5" y="193.16666666666669" font-size="9" text-anchor="middle" fill="#777" stroke="white" stroke-width="2.5" paint-order="stroke" stroke-linejoin="round">(TCP/5432)</text>
<path d="M 667 292 L 850 292" fill="none" stroke="#444444" stroke-width="1.3" marker-end="url(#arr)"/>
<text x="758.5" y="306.5" font-size="10.5" text-anchor="middle" fill="#333" font-style="italic" stroke="white" stroke-width="2.5" paint-order="stroke" stroke-linejoin="round">Read/write</text>
<text x="758.5" y="320" font-size="10.5" text-anchor="middle" fill="#333" font-style="italic" stroke="white" stroke-width="2.5" paint-order="stroke" stroke-linejoin="round">customer data</text>
<text x="758.5" y="333.5" font-size="9" text-anchor="middle" fill="#777" stroke="white" stroke-width="2.5" paint-order="stroke" stroke-linejoin="round">(TCP/5432)</text>
<path d="M 667 187.33333333333334 L 707 187.33333333333334 L 707 50 L 220 50 L 220 180.33333333333331 L 260 180.33333333333331" fill="none" stroke="#444444" stroke-width="1.3" marker-end="url(#arr)"/>
<text x="463.5" y="64.5" font-size="10.5" text-anchor="middle" fill="#333" font-style="italic" stroke="white" stroke-width="2.5" paint-order="stroke" stroke-linejoin="round">Drop invoices</text>
<text x="463.5" y="78" font-size="10.5" text-anchor="middle" fill="#333" font-style="italic" stroke="white" stroke-width="2.5" paint-order="stroke" stroke-linejoin="round">to transmit</text>
<text x="463.5" y="91.5" font-size="9" text-anchor="middle" fill="#777" stroke="white" stroke-width="2.5" paint-order="stroke" stroke-linejoin="round">(SFTP/22)</text>
<path d="M 372 180.33333333333331 L 412 180.33333333333331 L 412 107 L 702 107 A 5 5 0 0 1 712 107 L 1323 107" fill="none" stroke="#444444" stroke-width="1.3" marker-end="url(#arr)"/>
<text x="1277.5" y="121.5" font-size="10.5" text-anchor="middle" fill="#333" font-style="italic" stroke="white" stroke-width="2.5" paint-order="stroke" stroke-linejoin="round">Partner</text>
<text x="1277.5" y="135" font-size="10.5" text-anchor="middle" fill="#333" font-style="italic" stroke="white" stroke-width="2.5" paint-order="stroke" stroke-linejoin="round">transfers</text>
<text x="1277.5" y="148.5" font-size="9" text-anchor="middle" fill="#777" stroke="white" stroke-width="2.5" paint-order="stroke" stroke-linejoin="round">(AS4/443)</text>
<path d="M 972 265.3333333333333 L 1095 265.3333333333333" fill="none" stroke="#444444" stroke-width="1.3" marker-end="url(#arr)"/>
<text x="1033.5" y="279.8333333333333" font-size="10.5" text-anchor="middle" fill="#333" font-style="italic" stroke="white" stroke-width="2.5" paint-order="stroke" stroke-linejoin="round">Daily backups</text>
<text x="1033.5" y="293.3333333333333" font-size="9" text-anchor="middle" fill="#777" stroke="white" stroke-width="2.5" paint-order="stroke" stroke-linejoin="round">(TCP/9092)</text>
<line x1="20" y1="369" x2="1425" y2="369" stroke="#ddd" stroke-width="1"/>
<text x="20" y="391" font-size="11" font-weight="bold" fill="#555">LEGEND</text>
<rect x="150" y="381" width="26" height="14" rx="3" fill="#f5f5f4" stroke="#8a8a85"/>
<text x="182" y="392" font-size="10" fill="#444">Site / data center</text>
<rect x="308" y="381" width="26" height="14" rx="3" fill="#ecf3ec" stroke="#6d9a6d" stroke-dasharray="5 3"/>
<text x="340" y="392" font-size="10" fill="#444">Network zone</text>
<rect x="435" y="381" width="26" height="14" rx="3" fill="#ffffff" stroke="#55606b"/>
<text x="467" y="392" font-size="10" fill="#444">Server / VM</text>
<rect x="557" y="381" width="26" height="14" rx="3" fill="#fff7e6" stroke="#b08d2a"/>
<text x="589" y="392" font-size="10" fill="#444">Deployed application</text>
<circle cx="738" cy="384" r="3" fill="none" stroke="#445566" stroke-width="1.2"/>
<path d="M 733 394 q 5 -7 10 0" fill="none" stroke="#445566" stroke-width="1.2"/>
<text x="757" y="392" font-size="10" fill="#444">User / consumer</text>
<rect x="867" y="381" width="26" height="14" rx="3" fill="#f0eef5" stroke="#9187b3" stroke-dasharray="5 3"/>
<text x="899" y="392" font-size="10" fill="#444">External system</text>
<line x1="150" y1="411" x2="176" y2="411" stroke="#444444" stroke-width="1.3" marker-end="url(#arr)"/>
<text x="182" y="415" font-size="10" fill="#444">Technical flow (protocol, port)</text>
<text x="150" y="439" font-size="10" fill="#444" font-style="italic">Inter-zone flows filtered by firewall (flow matrix attached to the architecture dossier)</text>
</svg>
