<svg xmlns="http://www.w3.org/2000/svg" viewBox="0 0 632 2094" font-family="Helvetica,Arial,sans-serif">
<defs><marker id="arr" viewBox="0 0 10 10" refX="9" refY="5" markerWidth="7" markerHeight="7" orient="auto-start-reverse">
<path d="M0,0 L10,5 L0,10 z" fill="#5a6675"/></marker></defs>
<rect width="632" height="2094" fill="#ffffff"/>
<rect x="67" y="169" width="485.2" height="1336.5" rx="6" fill="#f3f5f6" stroke="#7c8794" stroke-width="1.4"/>
<text x="77" y="187" font-size="13" font-weight="bold" fill="#17202c">Main data center</text>
<rect x="191.5" y="221" width="317.5" height="251.5" rx="6" fill="#eaf5ef" stroke="#1a8f66" stroke-width="1.2" stroke-dasharray="5 3"/>
<text x="201.5" y="239" font-size="13" font-weight="bold" fill="#17202c">DMZ</text>
<rect x="324" y="370.5" width="126" height="88" rx="6" fill="#ffffff" stroke="#48546a" stroke-width="1.5"/>
<text x="334" y="388.5" font-size="13" font-weight="bold" fill="#17202c">Reverse proxies</text>
<text x="334" y="402.5" font-size="13" font-weight="bold" fill="#17202c">(HA)</text>
<rect x="197" y="553" width="346.2" height="690.5" rx="6" fill="#eaf5ef" stroke="#1a8f66" stroke-width="1.2" stroke-dasharray="5 3"/>
<text x="207" y="571" font-size="13" font-weight="bold" fill="#17202c">Application zone</text>
<rect x="206" y="585" width="270" height="88" rx="6" fill="#ffffff" stroke="#48546a" stroke-width="1.5"/>
<text x="216" y="603" font-size="13" font-weight="bold" fill="#17202c">K8s cluster</text>
<text x="216" y="617" font-size="13" font-weight="bold" fill="#17202c">front</text>
<rect x="272" y="753.5" width="254" height="97" rx="6" fill="#ffffff" stroke="#48546a" stroke-width="1.5"/>
<text x="282" y="771.5" font-size="13" font-weight="bold" fill="#17202c">K8s cluster</text>
<text x="282" y="785.5" font-size="13" font-weight="bold" fill="#17202c">business</text>
<rect x="225.2" y="1348.5" width="290" height="143" rx="6" fill="#eaf5ef" stroke="#1a8f66" stroke-width="1.2" stroke-dasharray="5 3"/>
<text x="235.2" y="1366.5" font-size="13" font-weight="bold" fill="#17202c">Data zone</text>
<rect x="380.2" y="1380.5" width="126" height="97" rx="6" fill="#ffffff" stroke="#48546a" stroke-width="1.5"/>
<text x="390.2" y="1398.5" font-size="13" font-weight="bold" fill="#17202c">PostgreSQL</text>
<text x="390.2" y="1412.5" font-size="13" font-weight="bold" fill="#17202c">cluster</text>
<rect x="234.2" y="1383.5" width="126" height="88" rx="6" fill="#ffffff" stroke="#48546a" stroke-width="1.5"/>
<text x="244.2" y="1401.5" font-size="13" font-weight="bold" fill="#17202c">Kafka</text>
<text x="244.2" y="1415.5" font-size="13" font-weight="bold" fill="#17202c">cluster</text>
<rect x="243" y="1597" width="225" height="296.5" rx="6" fill="#f3f5f6" stroke="#7c8794" stroke-width="1.4"/>
<text x="253" y="1615" font-size="13" font-weight="bold" fill="#17202c">Disaster-recovery site</text>
<rect x="252" y="1629" width="207" height="255.5" rx="6" fill="#eaf5ef" stroke="#1a8f66" stroke-width="1.2" stroke-dasharray="5 3"/>
<text x="262" y="1647" font-size="13" font-weight="bold" fill="#17202c">DR data zone</text>
<rect x="324" y="1661" width="126" height="97" rx="6" fill="#ffffff" stroke="#48546a" stroke-width="1.5"/>
<text x="334" y="1679" font-size="13" font-weight="bold" fill="#17202c">PostgreSQL</text>
<text x="334" y="1693" font-size="13" font-weight="bold" fill="#17202c">standby</text>
<rect x="328.5" y="248" width="117" height="47" rx="4" fill="#ffffff" stroke="#48546a" stroke-width="1.5"/>
<text x="387" y="268.25" font-size="12.5" text-anchor="middle" fill="#17202c">Application</text>
<text x="387" y="282.75" font-size="12.5" text-anchor="middle" fill="#17202c">firewall (WAF)</text>
<rect x="333" y="411.5" width="108" height="38" rx="4" fill="#fdf4e3" stroke="#c88a2e" stroke-width="1.2"/>
<text x="387" y="434.5" font-size="12.5" text-anchor="middle" fill="#17202c">Nginx</text>
<rect x="200.5" y="248" width="108" height="47" rx="4" fill="#ffffff" stroke="#48546a" stroke-width="1.5"/>
<text x="254.5" y="268.25" font-size="12.5" text-anchor="middle" fill="#17202c">Transfer</text>
<text x="254.5" y="282.75" font-size="12.5" text-anchor="middle" fill="#17202c">gateway</text>
<rect x="393.2" y="970.5" width="108" height="38" rx="4" fill="#f5e6dd" stroke="#b85a30" stroke-width="1.3"/>
<path d="M 401.2 978.5 L 415.2 978.5 Q 417.2 983.5 408.2 990.5 Q 399.2 983.5 401.2 978.5" fill="none" stroke="#b85a30" stroke-width="1.3"/>
<text x="457.2" y="993.5" font-size="12.5" text-anchor="middle" fill="#17202c">Gateway</text>
<rect x="393.2" y="1079" width="108" height="47" rx="4" fill="#fdefe3" stroke="#d1600f" stroke-width="1.3"/>
<rect x="399.2" y="1085" width="18" height="14" rx="3" fill="none" stroke="#d1600f" stroke-width="1.3"/>
<path d="M 403.2 1088 v -4 a 5 5 0 0 1 10 0 v 4" fill="none" stroke="#d1600f" stroke-width="1.3"/>
<circle cx="408.2" cy="1095" r="2.5" fill="#d1600f"/>
<text x="457.2" y="1099.25" font-size="12.5" text-anchor="middle" fill="#17202c">OAuth2</text>
<text x="457.2" y="1113.75" font-size="12.5" text-anchor="middle" fill="#17202c">proxy</text>
<rect x="393.2" y="1196.5" width="108" height="38" rx="4" fill="#e0f0f0" stroke="#3a8f8f" stroke-width="1.3"/>
<text x="447.2" y="1219.5" font-size="12.5" text-anchor="middle" fill="#17202c">LDAP / IdP</text>
<rect x="215" y="626" width="108" height="38" rx="4" fill="#fdf4e3" stroke="#c88a2e" stroke-width="1.2"/>
<text x="269" y="649" font-size="12.5" text-anchor="middle" fill="#17202c">Sales front</text>
<rect x="343" y="626" width="124" height="38" rx="4" fill="#fdf4e3" stroke="#c88a2e" stroke-width="1.2"/>
<text x="405" y="649" font-size="12.5" text-anchor="middle" fill="#17202c">Checkout funnel</text>
<rect x="281" y="794.5" width="108" height="47" rx="4" fill="#fdf4e3" stroke="#c88a2e" stroke-width="1.2"/>
<text x="335" y="814.75" font-size="12.5" text-anchor="middle" fill="#17202c">Order</text>
<text x="335" y="829.25" font-size="12.5" text-anchor="middle" fill="#17202c">management</text>
<rect x="409" y="794.5" width="108" height="47" rx="4" fill="#fdf4e3" stroke="#c88a2e" stroke-width="1.2"/>
<text x="463" y="814.75" font-size="12.5" text-anchor="middle" fill="#17202c">Payment</text>
<text x="463" y="829.25" font-size="12.5" text-anchor="middle" fill="#17202c">hub</text>
<rect x="389.2" y="1421.5" width="108" height="47" rx="4" fill="#fdf4e3" stroke="#c88a2e" stroke-width="1.2"/>
<text x="443.2" y="1441.75" font-size="12.5" text-anchor="middle" fill="#17202c">PostgreSQL</text>
<text x="443.2" y="1456.25" font-size="12.5" text-anchor="middle" fill="#17202c">primary</text>
<rect x="243.2" y="1424.5" width="108" height="38" rx="4" fill="#fdf4e3" stroke="#c88a2e" stroke-width="1.2"/>
<text x="297.2" y="1447.5" font-size="12.5" text-anchor="middle" fill="#17202c">Kafka</text>
<rect x="333" y="1702" width="108" height="47" rx="4" fill="#fdf4e3" stroke="#c88a2e" stroke-width="1.2"/>
<text x="387" y="1722.25" font-size="12.5" text-anchor="middle" fill="#17202c">PostgreSQL</text>
<text x="387" y="1736.75" font-size="12.5" text-anchor="middle" fill="#17202c">replica</text>
<rect x="261" y="1828.5" width="108" height="47" rx="4" fill="#ffffff" stroke="#48546a" stroke-width="1.5"/>
<text x="315" y="1848.75" font-size="12.5" text-anchor="middle" fill="#17202c">Backup</text>
<text x="315" y="1863.25" font-size="12.5" text-anchor="middle" fill="#17202c">server</text>
<circle cx="387" cy="32" r="7" fill="none" stroke="#1f5e91" stroke-width="1.5"/>
<path d="M 376 54 q 11 -19 22 0" fill="none" stroke="#1f5e91" stroke-width="1.5"/>
<text x="387" y="66" font-size="11" text-anchor="middle" fill="#20364c">Internet</text>
<text x="387" y="77" font-size="11" text-anchor="middle" fill="#20364c">customers</text>
<rect x="514" y="1592" width="108" height="38" rx="4" fill="#f4eff8" stroke="#8659a6" stroke-width="1.2" stroke-dasharray="5 3"/>
<text x="568" y="1615" font-size="12.5" text-anchor="middle" fill="#17202c">PSP</text>
<rect x="22" y="1588" width="108" height="47" rx="4" fill="#f4eff8" stroke="#8659a6" stroke-width="1.2" stroke-dasharray="5 3"/>
<text x="76" y="1608.25" font-size="12.5" text-anchor="middle" fill="#17202c">Carrier</text>
<text x="76" y="1622.75" font-size="12.5" text-anchor="middle" fill="#17202c">platforms</text>
<path d="M 387 87 L 387 248" fill="none" stroke="#5a6675" stroke-width="1.3" marker-end="url(#arr)"/>
<text x="349.5" y="115.5" font-size="11.5" text-anchor="middle" fill="#3a4553" font-style="italic" stroke="#ffffff" stroke-width="2.5" paint-order="stroke" stroke-linejoin="round">Client web</text>
<text x="349.5" y="130" font-size="11.5" text-anchor="middle" fill="#3a4553" font-style="italic" stroke="#ffffff" stroke-width="2.5" paint-order="stroke" stroke-linejoin="round">traffic</text>
<text x="349.5" y="144.5" font-size="9" text-anchor="middle" fill="#79828f" stroke="#ffffff" stroke-width="2.5" paint-order="stroke" stroke-linejoin="round">(HTTPS/443)</text>
<path d="M 387 295 L 387 411.5" fill="none" stroke="#5a6675" stroke-width="1.3" marker-end="url(#arr)"/>
<text x="445" y="327.5" font-size="11.5" text-anchor="middle" fill="#3a4553" font-style="italic" stroke="#ffffff" stroke-width="2.5" paint-order="stroke" stroke-linejoin="round">Filtered traffic</text>
<text x="445" y="342" font-size="9" text-anchor="middle" fill="#79828f" stroke="#ffffff" stroke-width="2.5" paint-order="stroke" stroke-linejoin="round">(HTTPS/443)</text>
<path d="M 369 449.5 L 369 487.5 L 282 487.5 L 282 538 L 269 538 L 269 626" fill="none" stroke="#5a6675" stroke-width="1.3" marker-end="url(#arr)"/>
<text x="235" y="510" font-size="11.5" text-anchor="middle" fill="#3a4553" font-style="italic" stroke="#ffffff" stroke-width="2.5" paint-order="stroke" stroke-linejoin="round">Front routing</text>
<text x="235" y="524.5" font-size="9" text-anchor="middle" fill="#79828f" stroke="#ffffff" stroke-width="2.5" paint-order="stroke" stroke-linejoin="round">(HTTPS/8443)</text>
<path d="M 405 449.5 L 405 626" fill="none" stroke="#5a6675" stroke-width="1.3" marker-end="url(#arr)"/>
<text x="348" y="510" font-size="11.5" text-anchor="middle" fill="#3a4553" font-style="italic" stroke="#ffffff" stroke-width="2.5" paint-order="stroke" stroke-linejoin="round">Checkout routing</text>
<text x="348" y="524.5" font-size="9" text-anchor="middle" fill="#79828f" stroke="#ffffff" stroke-width="2.5" paint-order="stroke" stroke-linejoin="round">(HTTPS/8444)</text>
<path d="M 287 664 L 287 688 L 335 688 L 335 794.5" fill="none" stroke="#5a6675" stroke-width="1.3" marker-end="url(#arr)"/>
<text x="297.5" y="710.5" font-size="11.5" text-anchor="middle" fill="#3a4553" font-style="italic" stroke="#ffffff" stroke-width="2.5" paint-order="stroke" stroke-linejoin="round">Orders API</text>
<text x="297.5" y="725" font-size="9" text-anchor="middle" fill="#79828f" stroke="#ffffff" stroke-width="2.5" paint-order="stroke" stroke-linejoin="round">(HTTPS/8443)</text>
<path d="M 405 664 L 405 738.5 L 463 738.5 L 463 794.5" fill="none" stroke="#5a6675" stroke-width="1.3" marker-end="url(#arr)"/>
<text x="446.5" y="710.5" font-size="11.5" text-anchor="middle" fill="#3a4553" font-style="italic" stroke="#ffffff" stroke-width="2.5" paint-order="stroke" stroke-linejoin="round">Payment API</text>
<text x="446.5" y="725" font-size="9" text-anchor="middle" fill="#79828f" stroke="#ffffff" stroke-width="2.5" paint-order="stroke" stroke-linejoin="round">(HTTPS/8445)</text>
<path d="M 481 841.5 L 481 865.5 L 533.2 865.5 L 533 1510.5 L 533 1521 L 568 1521 L 568 1592" fill="none" stroke="#5a6675" stroke-width="1.3" marker-end="url(#arr)"/>
<text x="521" y="1543.5" font-size="11.5" text-anchor="middle" fill="#3a4553" font-style="italic" stroke="#ffffff" stroke-width="2.5" paint-order="stroke" stroke-linejoin="round">Authorization</text>
<text x="521" y="1558" font-size="11.5" text-anchor="middle" fill="#3a4553" font-style="italic" stroke="#ffffff" stroke-width="2.5" paint-order="stroke" stroke-linejoin="round">and capture</text>
<text x="521" y="1572.5" font-size="9" text-anchor="middle" fill="#79828f" stroke="#ffffff" stroke-width="2.5" paint-order="stroke" stroke-linejoin="round">(HTTPS/443)</text>
<path d="M 367.4 841.5 L 367.4 885.5 L 511.2 885.5 L 511.2 1258.5 L 425.2 1258.5 L 425.2 1421.5" fill="none" stroke="#5a6675" stroke-width="1.3" marker-end="url(#arr)"/>
<text x="387.7" y="1291" font-size="11.5" text-anchor="middle" fill="#3a4553" font-style="italic" stroke="#ffffff" stroke-width="2.5" paint-order="stroke" stroke-linejoin="round">Read/write</text>
<text x="387.7" y="1305.5" font-size="11.5" text-anchor="middle" fill="#3a4553" font-style="italic" stroke="#ffffff" stroke-width="2.5" paint-order="stroke" stroke-linejoin="round">orders</text>
<text x="387.7" y="1320" font-size="9" text-anchor="middle" fill="#79828f" stroke="#ffffff" stroke-width="2.5" paint-order="stroke" stroke-linejoin="round">(TCP/5432)</text>
<path d="M 445 841.5 L 445 875.5 L 522.2 875.5 L 522.2 1333.5 L 461.2 1333.5 L 461.2 1421.5" fill="none" stroke="#5a6675" stroke-width="1.3" marker-end="url(#arr)"/>
<text x="478.2" y="1291" font-size="11.5" text-anchor="middle" fill="#3a4553" font-style="italic" stroke="#ffffff" stroke-width="2.5" paint-order="stroke" stroke-linejoin="round">Read/write</text>
<text x="478.2" y="1305.5" font-size="11.5" text-anchor="middle" fill="#3a4553" font-style="italic" stroke="#ffffff" stroke-width="2.5" paint-order="stroke" stroke-linejoin="round">transactions</text>
<text x="478.2" y="1320" font-size="9" text-anchor="middle" fill="#79828f" stroke="#ffffff" stroke-width="2.5" paint-order="stroke" stroke-linejoin="round">(TCP/5432)</text>
<path d="M 324.2 841.5 L 324.2 1333.5 L 315.2 1333.5 L 315.2 1424.5" fill="none" stroke="#5a6675" stroke-width="1.3" marker-end="url(#arr)"/>
<text x="280.2" y="1298.25" font-size="11.5" text-anchor="middle" fill="#3a4553" font-style="italic" stroke="#ffffff" stroke-width="2.5" paint-order="stroke" stroke-linejoin="round">Order events</text>
<text x="280.2" y="1312.75" font-size="9" text-anchor="middle" fill="#79828f" stroke="#ffffff" stroke-width="2.5" paint-order="stroke" stroke-linejoin="round">(TCP/9092)</text>
<path d="M 251 664 L 251 1268.5 L 227.2 1268.5 L 227.2 1333.5 L 279.2 1333.5 L 279.2 1424.5" fill="none" stroke="#5a6675" stroke-width="1.3" marker-end="url(#arr)"/>
<text x="173.7" y="1298.25" font-size="11.5" text-anchor="middle" fill="#3a4553" font-style="italic" stroke="#ffffff" stroke-width="2.5" paint-order="stroke" stroke-linejoin="round">Browsing events</text>
<text x="173.7" y="1312.75" font-size="9" text-anchor="middle" fill="#79828f" stroke="#ffffff" stroke-width="2.5" paint-order="stroke" stroke-linejoin="round">(TCP/9092)</text>
<path d="M 345.8 841.5 L 345.8 895.5 L 447.2 895.5 L 447.2 970.5" fill="none" stroke="#5a6675" stroke-width="1.3" marker-end="url(#arr)"/>
<text x="390.2" y="918" font-size="11.5" text-anchor="middle" fill="#3a4553" font-style="italic" stroke="#ffffff" stroke-width="2.5" paint-order="stroke" stroke-linejoin="round">Authenticate API</text>
<text x="390.2" y="932.5" font-size="11.5" text-anchor="middle" fill="#3a4553" font-style="italic" stroke="#ffffff" stroke-width="2.5" paint-order="stroke" stroke-linejoin="round">calls</text>
<text x="390.2" y="947" font-size="9" text-anchor="middle" fill="#79828f" stroke="#ffffff" stroke-width="2.5" paint-order="stroke" stroke-linejoin="round">(HTTPS/8443)</text>
<path d="M 447.2 1008.5 L 447.2 1079" fill="none" stroke="#5a6675" stroke-width="1.3" marker-end="url(#arr)"/>
<text x="419.2" y="1041" font-size="11.5" text-anchor="middle" fill="#3a4553" font-style="italic" stroke="#ffffff" stroke-width="2.5" paint-order="stroke" stroke-linejoin="round">Forward</text>
<text x="419.2" y="1055.5" font-size="9" text-anchor="middle" fill="#79828f" stroke="#ffffff" stroke-width="2.5" paint-order="stroke" stroke-linejoin="round">(HTTP/80)</text>
<path d="M 447.2 1126 L 447.2 1196.5" fill="none" stroke="#5a6675" stroke-width="1.3" marker-end="url(#arr)"/>
<text x="400.2" y="1158.5" font-size="11.5" text-anchor="middle" fill="#3a4553" font-style="italic" stroke="#ffffff" stroke-width="2.5" paint-order="stroke" stroke-linejoin="round">Verify tokens</text>
<text x="400.2" y="1173" font-size="9" text-anchor="middle" fill="#79828f" stroke="#ffffff" stroke-width="2.5" paint-order="stroke" stroke-linejoin="round">(LDAPS/636)</text>
<path d="M 302.6 841.5 L 302.6 865.5 L 256 865.5 A 5 5 0 0 0 246 865.5 L 240 865.5 L 240 1258.5 L 179 1258.5 L 179 206 L 254.5 206 L 254.5 248" fill="none" stroke="#5a6675" stroke-width="1.3" marker-end="url(#arr)"/>
<text x="132" y="510" font-size="11.5" text-anchor="middle" fill="#3a4553" font-style="italic" stroke="#ffffff" stroke-width="2.5" paint-order="stroke" stroke-linejoin="round">Carrier files</text>
<text x="132" y="524.5" font-size="9" text-anchor="middle" fill="#79828f" stroke="#ffffff" stroke-width="2.5" paint-order="stroke" stroke-linejoin="round">(SFTP/22)</text>
<path d="M 254.5 295 L 254.5 487.5 L 184 487.5 A 5 5 0 0 0 174 487.5 L 76 487.5 L 76 1588" fill="none" stroke="#5a6675" stroke-width="1.3" marker-end="url(#arr)"/>
<text x="42" y="1539.5" font-size="11.5" text-anchor="middle" fill="#3a4553" font-style="italic" stroke="#ffffff" stroke-width="2.5" paint-order="stroke" stroke-linejoin="round">Logistics</text>
<text x="42" y="1554" font-size="11.5" text-anchor="middle" fill="#3a4553" font-style="italic" stroke="#ffffff" stroke-width="2.5" paint-order="stroke" stroke-linejoin="round">exchanges</text>
<text x="42" y="1568.5" font-size="9" text-anchor="middle" fill="#79828f" stroke="#ffffff" stroke-width="2.5" paint-order="stroke" stroke-linejoin="round">(AS4/443)</text>
<path d="M 443.2 1468.5 L 443 1510.5 L 443 1521 L 387 1521 L 387 1702" fill="none" stroke="#5a6675" stroke-width="1.3" marker-end="url(#arr)"/>
<text x="428.5" y="1543.5" font-size="11.5" text-anchor="middle" fill="#3a4553" font-style="italic" stroke="#ffffff" stroke-width="2.5" paint-order="stroke" stroke-linejoin="round">Async</text>
<text x="428.5" y="1558" font-size="11.5" text-anchor="middle" fill="#3a4553" font-style="italic" stroke="#ffffff" stroke-width="2.5" paint-order="stroke" stroke-linejoin="round">replication</text>
<text x="428.5" y="1572.5" font-size="9" text-anchor="middle" fill="#79828f" stroke="#ffffff" stroke-width="2.5" paint-order="stroke" stroke-linejoin="round">(TCP/5432)</text>
<path d="M 333 1758 L 333 1828.5" fill="none" stroke="#5a6675" stroke-width="1.3" marker-end="url(#arr)"/>
<text x="381" y="1790.5" font-size="11.5" text-anchor="middle" fill="#3a4553" font-style="italic" stroke="#ffffff" stroke-width="2.5" paint-order="stroke" stroke-linejoin="round">Daily backups</text>
<text x="381" y="1805" font-size="9" text-anchor="middle" fill="#79828f" stroke="#ffffff" stroke-width="2.5" paint-order="stroke" stroke-linejoin="round">(TCP/9095)</text>
<path d="M 297.2 1462.5 L 297 1510.5 L 297 1828.5" fill="none" stroke="#5a6675" stroke-width="1.3" marker-end="url(#arr)"/>
<text x="243.5" y="1539.5" font-size="11.5" text-anchor="middle" fill="#3a4553" font-style="italic" stroke="#ffffff" stroke-width="2.5" paint-order="stroke" stroke-linejoin="round">Topic archiving</text>
<text x="243.5" y="1554" font-size="9" text-anchor="middle" fill="#79828f" stroke="#ffffff" stroke-width="2.5" paint-order="stroke" stroke-linejoin="round">(TCP/9095)</text>
<line x1="20" y1="1914" x2="612" y2="1914" stroke="#e6e9ee" stroke-width="1"/>
<text x="20" y="1936" font-size="11" font-weight="bold" fill="#3a4553">LEGEND</text>
<rect x="150" y="1926" width="26" height="14" rx="3" fill="#f3f5f6" stroke="#7c8794"/>
<text x="182" y="1937" font-size="10" fill="#17202c">Site / data center</text>
<rect x="308" y="1926" width="26" height="14" rx="3" fill="#eaf5ef" stroke="#1a8f66" stroke-dasharray="5 3"/>
<text x="340" y="1937" font-size="10" fill="#17202c">Network zone</text>
<rect x="150" y="1948" width="26" height="14" rx="3" fill="#ffffff" stroke="#48546a"/>
<text x="182" y="1959" font-size="10" fill="#17202c">Server / VM</text>
<rect x="272" y="1948" width="26" height="14" rx="3" fill="#fdf4e3" stroke="#c88a2e"/>
<text x="304" y="1959" font-size="10" fill="#17202c">Deployed application</text>
<rect x="150" y="1970" width="26" height="14" rx="3" fill="#f5e6dd" stroke="#b85a30"/>
<text x="182" y="1981" font-size="10" fill="#17202c">Gateway / reverse proxy</text>
<rect x="334" y="1970" width="26" height="14" rx="3" fill="#fdefe3" stroke="#d1600f"/>
<text x="366" y="1981" font-size="10" fill="#17202c">Auth middleware</text>
<rect x="150" y="1992" width="26" height="14" rx="3" fill="#e0f0f0" stroke="#3a8f8f"/>
<text x="182" y="2003" font-size="10" fill="#17202c">Identity provider (IdP)</text>
<circle cx="347" cy="1995" r="3" fill="none" stroke="#1f5e91" stroke-width="1.2"/>
<path d="M 342 2005 q 5 -7 10 0" fill="none" stroke="#1f5e91" stroke-width="1.2"/>
<text x="366" y="2003" font-size="10" fill="#17202c">User / consumer</text>
<rect x="150" y="2014" width="26" height="14" rx="3" fill="#f4eff8" stroke="#8659a6" stroke-dasharray="5 3"/>
<text x="182" y="2025" font-size="10" fill="#17202c">External system</text>
<line x1="150" y1="2044" x2="176" y2="2044" stroke="#5a6675" stroke-width="1.3" marker-end="url(#arr)"/>
<text x="182" y="2048" font-size="10" fill="#17202c">Technical flow (protocol, port)</text>
<text x="150" y="2072" font-size="10" fill="#17202c" font-style="italic">Inter-zone and inter-site flows filtered by firewall (flow matrix in the architecture dossier)</text>
</svg>
