<svg xmlns="http://www.w3.org/2000/svg" viewBox="0 0 2137 641" font-family="Helvetica,Arial,sans-serif">
<defs><marker id="arr" viewBox="0 0 10 10" refX="9" refY="5" markerWidth="7" markerHeight="7" orient="auto-start-reverse">
<path d="M0,0 L10,5 L0,10 z" fill="#444444"/></marker></defs>
<rect width="2137" height="641" fill="white"/>
<rect x="27" y="30" width="1435" height="436.41666666666663" rx="6" fill="#f5f5f4" stroke="#8a8a85" stroke-width="1.4"/>
<text x="37" y="48" font-size="12" font-weight="bold" fill="#333">Main data center</text>
<rect x="64" y="120.83333333333337" width="440" height="204.5" rx="6" fill="#ecf3ec" stroke="#6d9a6d" stroke-width="1.2" stroke-dasharray="5 3"/>
<text x="74" y="138.83333333333337" font-size="12" font-weight="bold" fill="#333">DMZ</text>
<rect x="323" y="150.83333333333337" width="164" height="101" rx="6" fill="#ffffff" stroke="#55606b" stroke-width="1.5"/>
<text x="333" y="168.83333333333337" font-size="12" font-weight="bold" fill="#333">Reverse proxies</text>
<text x="333" y="181.83333333333337" font-size="12" font-weight="bold" fill="#333">(HA)</text>
<rect x="621" y="60" width="479" height="230" rx="6" fill="#ecf3ec" stroke="#6d9a6d" stroke-width="1.2" stroke-dasharray="5 3"/>
<text x="631" y="78" font-size="12" font-weight="bold" fill="#333">Application zone</text>
<rect x="638" y="92.5" width="164" height="167" rx="6" fill="#ffffff" stroke="#55606b" stroke-width="1.5"/>
<text x="648" y="110.5" font-size="12" font-weight="bold" fill="#333">K8s cluster</text>
<text x="648" y="123.5" font-size="12" font-weight="bold" fill="#333">front</text>
<rect x="919" y="90" width="164" height="177" rx="6" fill="#ffffff" stroke="#55606b" stroke-width="1.5"/>
<text x="929" y="108" font-size="12" font-weight="bold" fill="#333">K8s cluster</text>
<text x="929" y="121" font-size="12" font-weight="bold" fill="#333">business</text>
<rect x="1247" y="109.75" width="198" height="269" rx="6" fill="#ecf3ec" stroke="#6d9a6d" stroke-width="1.2" stroke-dasharray="5 3"/>
<text x="1257" y="127.75" font-size="12" font-weight="bold" fill="#333">Data zone</text>
<rect x="1264" y="139.75" width="164" height="106" rx="6" fill="#ffffff" stroke="#55606b" stroke-width="1.5"/>
<text x="1274" y="157.75" font-size="12" font-weight="bold" fill="#333">PostgreSQL</text>
<text x="1274" y="170.75" font-size="12" font-weight="bold" fill="#333">cluster</text>
<rect x="1264" y="265.75" width="164" height="101" rx="6" fill="#ffffff" stroke="#55606b" stroke-width="1.5"/>
<text x="1274" y="283.75" font-size="12" font-weight="bold" fill="#333">Kafka</text>
<text x="1274" y="296.75" font-size="12" font-weight="bold" fill="#333">cluster</text>
<rect x="1666" y="153" width="459" height="204" rx="6" fill="#f5f5f4" stroke="#8a8a85" stroke-width="1.4"/>
<text x="1676" y="171" font-size="12" font-weight="bold" fill="#333">Disaster-recovery site</text>
<rect x="1683" y="183" width="430" height="162" rx="6" fill="#ecf3ec" stroke="#6d9a6d" stroke-width="1.2" stroke-dasharray="5 3"/>
<text x="1693" y="201" font-size="12" font-weight="bold" fill="#333">DR data zone</text>
<rect x="1700" y="216" width="164" height="106" rx="6" fill="#ffffff" stroke="#55606b" stroke-width="1.5"/>
<text x="1710" y="234" font-size="12" font-weight="bold" fill="#333">PostgreSQL</text>
<text x="1710" y="247" font-size="12" font-weight="bold" fill="#333">standby</text>
<rect x="76" y="191.33333333333337" width="140" height="51" rx="4" fill="#ffffff" stroke="#55606b" stroke-width="1.5"/>
<text x="146" y="214.08333333333337" font-size="11.5" text-anchor="middle" fill="#222233">Application</text>
<text x="146" y="227.58333333333337" font-size="11.5" text-anchor="middle" fill="#222233">firewall (WAF)</text>
<rect x="335" y="193.83333333333337" width="140" height="46" rx="4" fill="#fff7e6" stroke="#b08d2a" stroke-width="1.2"/>
<text x="405" y="220.83333333333337" font-size="11.5" text-anchor="middle" fill="#222233">Nginx</text>
<rect x="76" y="262.33333333333337" width="140" height="51" rx="4" fill="#ffffff" stroke="#55606b" stroke-width="1.5"/>
<text x="146" y="285.08333333333337" font-size="11.5" text-anchor="middle" fill="#222233">Transfer</text>
<text x="146" y="298.58333333333337" font-size="11.5" text-anchor="middle" fill="#222233">gateway</text>
<rect x="650" y="201.5" width="140" height="46" rx="4" fill="#fff7e6" stroke="#b08d2a" stroke-width="1.2"/>
<text x="720" y="228.5" font-size="11.5" text-anchor="middle" fill="#222233">Sales front</text>
<rect x="650" y="135.5" width="140" height="46" rx="4" fill="#fff7e6" stroke="#b08d2a" stroke-width="1.2"/>
<text x="720" y="162.5" font-size="11.5" text-anchor="middle" fill="#222233">Checkout funnel</text>
<rect x="931" y="204" width="140" height="51" rx="4" fill="#fff7e6" stroke="#b08d2a" stroke-width="1.2"/>
<text x="1001" y="226.75" font-size="11.5" text-anchor="middle" fill="#222233">Order</text>
<text x="1001" y="240.25" font-size="11.5" text-anchor="middle" fill="#222233">management</text>
<rect x="931" y="133" width="140" height="51" rx="4" fill="#fff7e6" stroke="#b08d2a" stroke-width="1.2"/>
<text x="1001" y="155.75" font-size="11.5" text-anchor="middle" fill="#222233">Payment</text>
<text x="1001" y="169.25" font-size="11.5" text-anchor="middle" fill="#222233">hub</text>
<rect x="1276" y="182.75" width="140" height="51" rx="4" fill="#fff7e6" stroke="#b08d2a" stroke-width="1.2"/>
<text x="1346" y="205.5" font-size="11.5" text-anchor="middle" fill="#222233">PostgreSQL</text>
<text x="1346" y="219" font-size="11.5" text-anchor="middle" fill="#222233">primary</text>
<rect x="1276" y="308.75" width="140" height="46" rx="4" fill="#fff7e6" stroke="#b08d2a" stroke-width="1.2"/>
<text x="1346" y="335.75" font-size="11.5" text-anchor="middle" fill="#222233">Kafka</text>
<rect x="1712" y="259" width="140" height="51" rx="4" fill="#fff7e6" stroke="#b08d2a" stroke-width="1.2"/>
<text x="1782" y="281.75" font-size="11.5" text-anchor="middle" fill="#222233">PostgreSQL</text>
<text x="1782" y="295.25" font-size="11.5" text-anchor="middle" fill="#222233">replica</text>
<rect x="1961" y="242" width="140" height="51" rx="4" fill="#ffffff" stroke="#55606b" stroke-width="1.5"/>
<text x="2031" y="264.75" font-size="11.5" text-anchor="middle" fill="#222233">Backup</text>
<text x="2031" y="278.25" font-size="11.5" text-anchor="middle" fill="#222233">server</text>
<rect x="1614" y="453" width="140" height="51" rx="4" fill="#f0eef5" stroke="#9187b3" stroke-width="1.2" stroke-dasharray="5 3"/>
<text x="1684" y="475.75" font-size="11.5" text-anchor="middle" fill="#222233">Internet</text>
<text x="1684" y="489.25" font-size="11.5" text-anchor="middle" fill="#222233">customers</text>
<rect x="1661" y="76" width="140" height="46" rx="4" fill="#f0eef5" stroke="#9187b3" stroke-width="1.2" stroke-dasharray="5 3"/>
<text x="1731" y="103" font-size="11.5" text-anchor="middle" fill="#222233">PSP</text>
<rect x="1614" y="370" width="140" height="51" rx="4" fill="#f0eef5" stroke="#9187b3" stroke-width="1.2" stroke-dasharray="5 3"/>
<text x="1684" y="392.75" font-size="11.5" text-anchor="middle" fill="#222233">Carrier</text>
<text x="1684" y="406.25" font-size="11.5" text-anchor="middle" fill="#222233">platforms</text>
<path d="M 1614 479 L 12 479 L 12 217 L 22 216.83333333333334 L 76 216.83333333333337" fill="none" stroke="#444444" stroke-width="1.3" marker-end="url(#arr)"/>
<text x="54.5" y="494.5" font-size="10.5" text-anchor="middle" fill="#333" font-style="italic" stroke="white" stroke-width="2.5" paint-order="stroke" stroke-linejoin="round">Client web</text>
<text x="54.5" y="508" font-size="10.5" text-anchor="middle" fill="#333" font-style="italic" stroke="white" stroke-width="2.5" paint-order="stroke" stroke-linejoin="round">traffic</text>
<text x="54.5" y="521.5" font-size="9" text-anchor="middle" fill="#777" stroke="white" stroke-width="2.5" paint-order="stroke" stroke-linejoin="round">(HTTPS/443)</text>
<path d="M 216 216.83333333333337 L 335 216.83333333333337" fill="none" stroke="#444444" stroke-width="1.3" marker-end="url(#arr)"/>
<text x="267" y="182.33333333333337" font-size="10.5" text-anchor="middle" fill="#333" font-style="italic" stroke="white" stroke-width="2.5" paint-order="stroke" stroke-linejoin="round">Filtered</text>
<text x="267" y="195.83333333333337" font-size="10.5" text-anchor="middle" fill="#333" font-style="italic" stroke="white" stroke-width="2.5" paint-order="stroke" stroke-linejoin="round">traffic</text>
<text x="267" y="209.33333333333337" font-size="9" text-anchor="middle" fill="#777" stroke="white" stroke-width="2.5" paint-order="stroke" stroke-linejoin="round">(HTTPS/443)</text>
<path d="M 475 224.50000000000003 L 650 224.5" fill="none" stroke="#444444" stroke-width="1.3" marker-end="url(#arr)"/>
<text x="562.5" y="239" font-size="10.5" text-anchor="middle" fill="#333" font-style="italic" stroke="white" stroke-width="2.5" paint-order="stroke" stroke-linejoin="round">Front</text>
<text x="562.5" y="252.5" font-size="10.5" text-anchor="middle" fill="#333" font-style="italic" stroke="white" stroke-width="2.5" paint-order="stroke" stroke-linejoin="round">routing</text>
<text x="562.5" y="266" font-size="9" text-anchor="middle" fill="#777" stroke="white" stroke-width="2.5" paint-order="stroke" stroke-linejoin="round">(HTTPS/8443)</text>
<path d="M 475 209.1666666666667 L 519 209.16666666666669 L 519 158.5 L 650 158.5" fill="none" stroke="#444444" stroke-width="1.3" marker-end="url(#arr)"/>
<text x="562.5" y="124" font-size="10.5" text-anchor="middle" fill="#333" font-style="italic" stroke="white" stroke-width="2.5" paint-order="stroke" stroke-linejoin="round">Checkout</text>
<text x="562.5" y="137.5" font-size="10.5" text-anchor="middle" fill="#333" font-style="italic" stroke="white" stroke-width="2.5" paint-order="stroke" stroke-linejoin="round">routing</text>
<text x="562.5" y="151" font-size="9" text-anchor="middle" fill="#777" stroke="white" stroke-width="2.5" paint-order="stroke" stroke-linejoin="round">(HTTPS/8444)</text>
<path d="M 790 216.83333333333331 L 904 216.83333333333331 L 904 229.5 L 931 229.5" fill="none" stroke="#444444" stroke-width="1.3" marker-end="url(#arr)"/>
<text x="860.5" y="231.33333333333331" font-size="10.5" text-anchor="middle" fill="#333" font-style="italic" stroke="white" stroke-width="2.5" paint-order="stroke" stroke-linejoin="round">Orders</text>
<text x="860.5" y="244.83333333333331" font-size="10.5" text-anchor="middle" fill="#333" font-style="italic" stroke="white" stroke-width="2.5" paint-order="stroke" stroke-linejoin="round">API</text>
<text x="860.5" y="258.3333333333333" font-size="9" text-anchor="middle" fill="#777" stroke="white" stroke-width="2.5" paint-order="stroke" stroke-linejoin="round">(HTTPS/8443)</text>
<path d="M 790 158.5 L 931 158.5" fill="none" stroke="#444444" stroke-width="1.3" marker-end="url(#arr)"/>
<text x="860.5" y="124" font-size="10.5" text-anchor="middle" fill="#333" font-style="italic" stroke="white" stroke-width="2.5" paint-order="stroke" stroke-linejoin="round">Payment</text>
<text x="860.5" y="137.5" font-size="10.5" text-anchor="middle" fill="#333" font-style="italic" stroke="white" stroke-width="2.5" paint-order="stroke" stroke-linejoin="round">API</text>
<text x="860.5" y="151" font-size="9" text-anchor="middle" fill="#777" stroke="white" stroke-width="2.5" paint-order="stroke" stroke-linejoin="round">(HTTPS/8445)</text>
<path d="M 1071 150 L 1115 150 L 1115 98.75 L 1467 99 L 1661 99" fill="none" stroke="#444444" stroke-width="1.3" marker-end="url(#arr)"/>
<text x="1564" y="114.5" font-size="10.5" text-anchor="middle" fill="#333" font-style="italic" stroke="white" stroke-width="2.5" paint-order="stroke" stroke-linejoin="round">Authorization and</text>
<text x="1564" y="128" font-size="10.5" text-anchor="middle" fill="#333" font-style="italic" stroke="white" stroke-width="2.5" paint-order="stroke" stroke-linejoin="round">capture</text>
<text x="1564" y="141.5" font-size="9" text-anchor="middle" fill="#777" stroke="white" stroke-width="2.5" paint-order="stroke" stroke-linejoin="round">(HTTPS/443)</text>
<path d="M 1071 216.75 L 1276 216.75" fill="none" stroke="#444444" stroke-width="1.3" marker-end="url(#arr)"/>
<text x="1183.5" y="231.25" font-size="10.5" text-anchor="middle" fill="#333" font-style="italic" stroke="white" stroke-width="2.5" paint-order="stroke" stroke-linejoin="round">Read/write</text>
<text x="1183.5" y="244.75" font-size="10.5" text-anchor="middle" fill="#333" font-style="italic" stroke="white" stroke-width="2.5" paint-order="stroke" stroke-linejoin="round">orders</text>
<text x="1183.5" y="258.25" font-size="9" text-anchor="middle" fill="#777" stroke="white" stroke-width="2.5" paint-order="stroke" stroke-linejoin="round">(TCP/5432)</text>
<path d="M 1071 167 L 1115 167 L 1115 159.75 L 1232 159.75 L 1232 199.75 L 1276 199.75" fill="none" stroke="#444444" stroke-width="1.3" marker-end="url(#arr)"/>
<text x="1183.5" y="174.25" font-size="10.5" text-anchor="middle" fill="#333" font-style="italic" stroke="white" stroke-width="2.5" paint-order="stroke" stroke-linejoin="round">Read/write</text>
<text x="1183.5" y="187.75" font-size="10.5" text-anchor="middle" fill="#333" font-style="italic" stroke="white" stroke-width="2.5" paint-order="stroke" stroke-linejoin="round">transactions</text>
<text x="1183.5" y="201.25" font-size="9" text-anchor="middle" fill="#777" stroke="white" stroke-width="2.5" paint-order="stroke" stroke-linejoin="round">(TCP/5432)</text>
<path d="M 1071 229.5 L 1135 229.5 L 1135 282.41666666666663 L 1232 282.41666666666663 L 1232 324.0833333333333 L 1276 324.08333333333337" fill="none" stroke="#444444" stroke-width="1.3" marker-end="url(#arr)"/>
<text x="1183.5" y="296.91666666666663" font-size="10.5" text-anchor="middle" fill="#333" font-style="italic" stroke="white" stroke-width="2.5" paint-order="stroke" stroke-linejoin="round">Order</text>
<text x="1183.5" y="310.41666666666663" font-size="10.5" text-anchor="middle" fill="#333" font-style="italic" stroke="white" stroke-width="2.5" paint-order="stroke" stroke-linejoin="round">events</text>
<text x="1183.5" y="323.91666666666663" font-size="9" text-anchor="middle" fill="#777" stroke="white" stroke-width="2.5" paint-order="stroke" stroke-linejoin="round">(TCP/9092)</text>
<path d="M 790 232.16666666666666 L 817 232.16666666666666 L 817 277 L 1115 277 L 1115 339.41666666666663 L 1120 339.41666666666663 A 5 5 0 0 1 1130 339.41666666666663 L 1276 339.41666666666663" fill="none" stroke="#444444" stroke-width="1.3" marker-end="url(#arr)"/>
<text x="1183.5" y="353.91666666666663" font-size="10.5" text-anchor="middle" fill="#333" font-style="italic" stroke="white" stroke-width="2.5" paint-order="stroke" stroke-linejoin="round">Browsing</text>
<text x="1183.5" y="367.41666666666663" font-size="10.5" text-anchor="middle" fill="#333" font-style="italic" stroke="white" stroke-width="2.5" paint-order="stroke" stroke-linejoin="round">events</text>
<text x="1183.5" y="380.91666666666663" font-size="9" text-anchor="middle" fill="#777" stroke="white" stroke-width="2.5" paint-order="stroke" stroke-linejoin="round">(TCP/9092)</text>
<path d="M 1071 242.25 L 1125 242.25 L 1125 407.41666666666663 L 49 407.41666666666663 L 49 287.83333333333337 L 76 287.83333333333337" fill="none" stroke="#444444" stroke-width="1.3" marker-end="url(#arr)"/>
<text x="562.5" y="421.91666666666663" font-size="10.5" text-anchor="middle" fill="#333" font-style="italic" stroke="white" stroke-width="2.5" paint-order="stroke" stroke-linejoin="round">Carrier</text>
<text x="562.5" y="435.41666666666663" font-size="10.5" text-anchor="middle" fill="#333" font-style="italic" stroke="white" stroke-width="2.5" paint-order="stroke" stroke-linejoin="round">files</text>
<text x="562.5" y="448.91666666666663" font-size="9" text-anchor="middle" fill="#777" stroke="white" stroke-width="2.5" paint-order="stroke" stroke-linejoin="round">(SFTP/22)</text>
<path d="M 216 287.83333333333337 L 519 287.83333333333337 L 519 396.41666666666663 L 1120 396.41666666666663 A 5 5 0 0 1 1130 396.41666666666663 L 1467 396 L 1614 396" fill="none" stroke="#444444" stroke-width="1.3" marker-end="url(#arr)"/>
<text x="1540.5" y="411.5" font-size="10.5" text-anchor="middle" fill="#333" font-style="italic" stroke="white" stroke-width="2.5" paint-order="stroke" stroke-linejoin="round">Logistics</text>
<text x="1540.5" y="425" font-size="10.5" text-anchor="middle" fill="#333" font-style="italic" stroke="white" stroke-width="2.5" paint-order="stroke" stroke-linejoin="round">exchanges</text>
<text x="1540.5" y="438.5" font-size="9" text-anchor="middle" fill="#777" stroke="white" stroke-width="2.5" paint-order="stroke" stroke-linejoin="round">(AS4/443)</text>
<path d="M 1416 208.25 L 1467 208 L 1592 208 L 1592 285 L 1661 284.5 L 1712 284.5" fill="none" stroke="#444444" stroke-width="1.3" marker-end="url(#arr)"/>
<text x="1546.5" y="172.5" font-size="10.5" text-anchor="middle" fill="#333" font-style="italic" stroke="white" stroke-width="2.5" paint-order="stroke" stroke-linejoin="round">Async</text>
<text x="1546.5" y="186" font-size="10.5" text-anchor="middle" fill="#333" font-style="italic" stroke="white" stroke-width="2.5" paint-order="stroke" stroke-linejoin="round">replication</text>
<text x="1546.5" y="199.5" font-size="9" text-anchor="middle" fill="#777" stroke="white" stroke-width="2.5" paint-order="stroke" stroke-linejoin="round">(TCP/5432)</text>
<path d="M 1864 259 L 1961 259" fill="none" stroke="#444444" stroke-width="1.3" marker-end="url(#arr)"/>
<text x="1912.5" y="224.5" font-size="10.5" text-anchor="middle" fill="#333" font-style="italic" stroke="white" stroke-width="2.5" paint-order="stroke" stroke-linejoin="round">Daily</text>
<text x="1912.5" y="238" font-size="10.5" text-anchor="middle" fill="#333" font-style="italic" stroke="white" stroke-width="2.5" paint-order="stroke" stroke-linejoin="round">backups</text>
<text x="1912.5" y="251.5" font-size="9" text-anchor="middle" fill="#777" stroke="white" stroke-width="2.5" paint-order="stroke" stroke-linejoin="round">(TCP/9095)</text>
<path d="M 1416 331.75 L 1467 332 L 1951 332 L 1951 276 L 1961 276" fill="none" stroke="#444444" stroke-width="1.3" marker-end="url(#arr)"/>
<text x="1540.5" y="347.5" font-size="10.5" text-anchor="middle" fill="#333" font-style="italic" stroke="white" stroke-width="2.5" paint-order="stroke" stroke-linejoin="round">Topic</text>
<text x="1540.5" y="361" font-size="10.5" text-anchor="middle" fill="#333" font-style="italic" stroke="white" stroke-width="2.5" paint-order="stroke" stroke-linejoin="round">archiving</text>
<text x="1540.5" y="374.5" font-size="9" text-anchor="middle" fill="#777" stroke="white" stroke-width="2.5" paint-order="stroke" stroke-linejoin="round">(TCP/9095)</text>
<line x1="20" y1="549" x2="2117" y2="549" stroke="#ddd" stroke-width="1"/>
<text x="20" y="571" font-size="11" font-weight="bold" fill="#555">LEGEND</text>
<rect x="150" y="561" width="26" height="14" rx="3" fill="#f5f5f4" stroke="#8a8a85"/>
<text x="182" y="572" font-size="10" fill="#444">Site / data center</text>
<rect x="308" y="561" width="26" height="14" rx="3" fill="#ecf3ec" stroke="#6d9a6d" stroke-dasharray="5 3"/>
<text x="340" y="572" font-size="10" fill="#444">Network zone</text>
<rect x="435" y="561" width="26" height="14" rx="3" fill="#ffffff" stroke="#55606b"/>
<text x="467" y="572" font-size="10" fill="#444">Server / VM</text>
<rect x="557" y="561" width="26" height="14" rx="3" fill="#fff7e6" stroke="#b08d2a"/>
<text x="589" y="572" font-size="10" fill="#444">Deployed application</text>
<rect x="725" y="561" width="26" height="14" rx="3" fill="#f0eef5" stroke="#9187b3" stroke-dasharray="5 3"/>
<text x="757" y="572" font-size="10" fill="#444">External system</text>
<line x1="150" y1="591" x2="176" y2="591" stroke="#444444" stroke-width="1.3" marker-end="url(#arr)"/>
<text x="182" y="595" font-size="10" fill="#444">Technical flow (protocol, port)</text>
<text x="150" y="619" font-size="10" fill="#444" font-style="italic">Inter-zone and inter-site flows filtered by firewall (flow matrix in the architecture dossier)</text>
</svg>
