<svg xmlns="http://www.w3.org/2000/svg" viewBox="0 0 192 874" font-family="Helvetica,Arial,sans-serif">
<defs><marker id="arr" viewBox="0 0 10 10" refX="9" refY="5" markerWidth="7" markerHeight="7" orient="auto-start-reverse">
<path d="M0,0 L10,5 L0,10 z" fill="#5a6675"/></marker></defs>
<rect width="192" height="874" fill="#ffffff"/>
<rect x="10" y="155" width="172" height="517" rx="6" fill="#f3f5f6" stroke="#7c8794" stroke-width="1.4"/>
<text x="20" y="173" font-size="13" font-weight="bold" fill="#17202c">Cloud host</text>
<rect x="38" y="187" width="126" height="83" rx="6" fill="#eaf5ef" stroke="#1a8f66" stroke-width="1.2" stroke-dasharray="5 3"/>
<text x="48" y="205" font-size="13" font-weight="bold" fill="#17202c">Public zone</text>
<rect x="19" y="365" width="154" height="298" rx="6" fill="#eaf5ef" stroke="#1a8f66" stroke-width="1.2" stroke-dasharray="5 3"/>
<text x="29" y="383" font-size="13" font-weight="bold" fill="#17202c">Private zone</text>
<rect x="38" y="397" width="126" height="74" rx="6" fill="#ffffff" stroke="#48546a" stroke-width="1.5"/>
<text x="48" y="415" font-size="13" font-weight="bold" fill="#17202c">Web VM</text>
<rect x="38" y="566" width="126" height="88" rx="6" fill="#ffffff" stroke="#48546a" stroke-width="1.5"/>
<text x="48" y="584" font-size="13" font-weight="bold" fill="#17202c">Database</text>
<text x="48" y="598" font-size="13" font-weight="bold" fill="#17202c">VM</text>
<rect x="47" y="214" width="108" height="47" rx="4" fill="#ffffff" stroke="#48546a" stroke-width="1.5"/>
<text x="101" y="234.25" font-size="12.5" text-anchor="middle" fill="#17202c">Load</text>
<text x="101" y="248.75" font-size="12.5" text-anchor="middle" fill="#17202c">balancer</text>
<rect x="47" y="424" width="108" height="38" rx="4" fill="#fdf4e3" stroke="#c88a2e" stroke-width="1.2"/>
<text x="101" y="447" font-size="12.5" text-anchor="middle" fill="#17202c">CMS</text>
<rect x="47" y="607" width="108" height="38" rx="4" fill="#fdf4e3" stroke="#c88a2e" stroke-width="1.2"/>
<text x="101" y="630" font-size="12.5" text-anchor="middle" fill="#17202c">MySQL</text>
<circle cx="101" cy="32" r="7" fill="none" stroke="#1f5e91" stroke-width="1.5"/>
<path d="M 90 54 q 11 -19 22 0" fill="none" stroke="#1f5e91" stroke-width="1.5"/>
<text x="101" y="66" font-size="11" text-anchor="middle" fill="#20364c">Internet</text>
<text x="101" y="77" font-size="11" text-anchor="middle" fill="#20364c">visitors</text>
<path d="M 101 87 L 101 214" fill="none" stroke="#5a6675" stroke-width="1.3" marker-end="url(#arr)"/>
<text x="60.5" y="115.5" font-size="11.5" text-anchor="middle" fill="#3a4553" font-style="italic" stroke="#ffffff" stroke-width="2.5" paint-order="stroke" stroke-linejoin="round">Site access</text>
<text x="60.5" y="130" font-size="9" text-anchor="middle" fill="#79828f" stroke="#ffffff" stroke-width="2.5" paint-order="stroke" stroke-linejoin="round">(HTTPS/443)</text>
<path d="M 101 261 L 101 424" fill="none" stroke="#5a6675" stroke-width="1.3" marker-end="url(#arr)"/>
<text x="68" y="307.5" font-size="11.5" text-anchor="middle" fill="#3a4553" font-style="italic" stroke="#ffffff" stroke-width="2.5" paint-order="stroke" stroke-linejoin="round">Balanced</text>
<text x="68" y="322" font-size="11.5" text-anchor="middle" fill="#3a4553" font-style="italic" stroke="#ffffff" stroke-width="2.5" paint-order="stroke" stroke-linejoin="round">traffic</text>
<text x="68" y="336.5" font-size="9" text-anchor="middle" fill="#79828f" stroke="#ffffff" stroke-width="2.5" paint-order="stroke" stroke-linejoin="round">(HTTP/8080)</text>
<path d="M 101 462 L 101 607" fill="none" stroke="#5a6675" stroke-width="1.3" marker-end="url(#arr)"/>
<text x="63.5" y="508.5" font-size="11.5" text-anchor="middle" fill="#3a4553" font-style="italic" stroke="#ffffff" stroke-width="2.5" paint-order="stroke" stroke-linejoin="round">Read/write</text>
<text x="63.5" y="523" font-size="11.5" text-anchor="middle" fill="#3a4553" font-style="italic" stroke="#ffffff" stroke-width="2.5" paint-order="stroke" stroke-linejoin="round">content</text>
<text x="63.5" y="537.5" font-size="9" text-anchor="middle" fill="#79828f" stroke="#ffffff" stroke-width="2.5" paint-order="stroke" stroke-linejoin="round">(TCP/3306)</text>
<line x1="20" y1="692" x2="172" y2="692" stroke="#e6e9ee" stroke-width="1"/>
<text x="20" y="714" font-size="11" font-weight="bold" fill="#3a4553">LEGEND</text>
<rect x="150" y="704" width="26" height="14" rx="3" fill="#f3f5f6" stroke="#7c8794"/>
<text x="182" y="715" font-size="10" fill="#17202c">Site / data center</text>
<rect x="150" y="726" width="26" height="14" rx="3" fill="#eaf5ef" stroke="#1a8f66" stroke-dasharray="5 3"/>
<text x="182" y="737" font-size="10" fill="#17202c">Network zone</text>
<rect x="150" y="748" width="26" height="14" rx="3" fill="#ffffff" stroke="#48546a"/>
<text x="182" y="759" font-size="10" fill="#17202c">Server / VM</text>
<rect x="150" y="770" width="26" height="14" rx="3" fill="#fdf4e3" stroke="#c88a2e"/>
<text x="182" y="781" font-size="10" fill="#17202c">Deployed application</text>
<circle cx="163" cy="795" r="3" fill="none" stroke="#1f5e91" stroke-width="1.2"/>
<path d="M 158 805 q 5 -7 10 0" fill="none" stroke="#1f5e91" stroke-width="1.2"/>
<text x="182" y="803" font-size="10" fill="#17202c">User / consumer</text>
<line x1="150" y1="844" x2="176" y2="844" stroke="#5a6675" stroke-width="1.3" marker-end="url(#arr)"/>
<text x="182" y="848" font-size="10" fill="#17202c">Technical flow (protocol, port)</text>
</svg>
