<svg xmlns="http://www.w3.org/2000/svg" viewBox="0 0 1029 343" font-family="Helvetica,Arial,sans-serif">
<defs><marker id="arr" viewBox="0 0 10 10" refX="9" refY="5" markerWidth="7" markerHeight="7" orient="auto-start-reverse">
<path d="M0,0 L10,5 L0,10 z" fill="#444444"/></marker></defs>
<rect width="1029" height="343" fill="white"/>
<rect x="240" y="30" width="777" height="197" rx="6" fill="#f5f5f4" stroke="#8a8a85" stroke-width="1.4"/>
<text x="250" y="48" font-size="12" font-weight="bold" fill="#333">Cloud host</text>
<rect x="257" y="100.5" width="164" height="93" rx="6" fill="#ecf3ec" stroke="#6d9a6d" stroke-width="1.2" stroke-dasharray="5 3"/>
<text x="267" y="118.5" font-size="12" font-weight="bold" fill="#333">Public zone</text>
<rect x="533" y="60" width="472" height="155" rx="6" fill="#ecf3ec" stroke="#6d9a6d" stroke-width="1.2" stroke-dasharray="5 3"/>
<text x="543" y="78" font-size="12" font-weight="bold" fill="#333">Private zone</text>
<rect x="550" y="103" width="164" height="88" rx="6" fill="#ffffff" stroke="#55606b" stroke-width="1.5"/>
<text x="560" y="121" font-size="12" font-weight="bold" fill="#333">Web VM</text>
<rect x="829" y="90" width="164" height="101" rx="6" fill="#ffffff" stroke="#55606b" stroke-width="1.5"/>
<text x="839" y="108" font-size="12" font-weight="bold" fill="#333">Database</text>
<text x="839" y="121" font-size="12" font-weight="bold" fill="#333">VM</text>
<rect x="269" y="130.5" width="140" height="51" rx="4" fill="#ffffff" stroke="#55606b" stroke-width="1.5"/>
<text x="339" y="153.25" font-size="11.5" text-anchor="middle" fill="#222233">Load</text>
<text x="339" y="166.75" font-size="11.5" text-anchor="middle" fill="#222233">balancer</text>
<rect x="562" y="133" width="140" height="46" rx="4" fill="#fff7e6" stroke="#b08d2a" stroke-width="1.2"/>
<text x="632" y="160" font-size="11.5" text-anchor="middle" fill="#222233">CMS</text>
<rect x="841" y="133" width="140" height="46" rx="4" fill="#fff7e6" stroke="#b08d2a" stroke-width="1.2"/>
<text x="911" y="160" font-size="11.5" text-anchor="middle" fill="#222233">MySQL</text>
<circle cx="44" cy="132" r="7" fill="none" stroke="#445566" stroke-width="1.5"/>
<path d="M 33 154 q 11 -19 22 0" fill="none" stroke="#445566" stroke-width="1.5"/>
<text x="44" y="166" font-size="10" text-anchor="middle" fill="#223344">Internet</text>
<text x="44" y="177" font-size="10" text-anchor="middle" fill="#223344">visitors</text>
<path d="M 76 156 L 269 156" fill="none" stroke="#444444" stroke-width="1.3" marker-end="url(#arr)"/>
<text x="155.5" y="171.5" font-size="10.5" text-anchor="middle" fill="#333" font-style="italic" stroke="white" stroke-width="2.5" paint-order="stroke" stroke-linejoin="round">Site access</text>
<text x="155.5" y="185" font-size="9" text-anchor="middle" fill="#777" stroke="white" stroke-width="2.5" paint-order="stroke" stroke-linejoin="round">(HTTPS/443)</text>
<path d="M 409 156 L 562 156" fill="none" stroke="#444444" stroke-width="1.3" marker-end="url(#arr)"/>
<text x="477" y="170.5" font-size="10.5" text-anchor="middle" fill="#333" font-style="italic" stroke="white" stroke-width="2.5" paint-order="stroke" stroke-linejoin="round">Balanced</text>
<text x="477" y="184" font-size="10.5" text-anchor="middle" fill="#333" font-style="italic" stroke="white" stroke-width="2.5" paint-order="stroke" stroke-linejoin="round">traffic</text>
<text x="477" y="197.5" font-size="9" text-anchor="middle" fill="#777" stroke="white" stroke-width="2.5" paint-order="stroke" stroke-linejoin="round">(HTTP/8080)</text>
<path d="M 702 156 L 841 156" fill="none" stroke="#444444" stroke-width="1.3" marker-end="url(#arr)"/>
<text x="771.5" y="170.5" font-size="10.5" text-anchor="middle" fill="#333" font-style="italic" stroke="white" stroke-width="2.5" paint-order="stroke" stroke-linejoin="round">Read/write</text>
<text x="771.5" y="184" font-size="10.5" text-anchor="middle" fill="#333" font-style="italic" stroke="white" stroke-width="2.5" paint-order="stroke" stroke-linejoin="round">content</text>
<text x="771.5" y="197.5" font-size="9" text-anchor="middle" fill="#777" stroke="white" stroke-width="2.5" paint-order="stroke" stroke-linejoin="round">(TCP/3306)</text>
<line x1="20" y1="249" x2="1009" y2="249" stroke="#ddd" stroke-width="1"/>
<text x="20" y="271" font-size="11" font-weight="bold" fill="#555">LEGEND</text>
<rect x="150" y="261" width="26" height="14" rx="3" fill="#f5f5f4" stroke="#8a8a85"/>
<text x="182" y="272" font-size="10" fill="#444">Site / data center</text>
<rect x="308" y="261" width="26" height="14" rx="3" fill="#ecf3ec" stroke="#6d9a6d" stroke-dasharray="5 3"/>
<text x="340" y="272" font-size="10" fill="#444">Network zone</text>
<rect x="435" y="261" width="26" height="14" rx="3" fill="#ffffff" stroke="#55606b"/>
<text x="467" y="272" font-size="10" fill="#444">Server / VM</text>
<rect x="557" y="261" width="26" height="14" rx="3" fill="#fff7e6" stroke="#b08d2a"/>
<text x="589" y="272" font-size="10" fill="#444">Deployed application</text>
<circle cx="738" cy="264" r="3" fill="none" stroke="#445566" stroke-width="1.2"/>
<path d="M 733 274 q 5 -7 10 0" fill="none" stroke="#445566" stroke-width="1.2"/>
<text x="757" y="272" font-size="10" fill="#444">User / consumer</text>
<line x1="150" y1="313" x2="176" y2="313" stroke="#444444" stroke-width="1.3" marker-end="url(#arr)"/>
<text x="182" y="317" font-size="10" fill="#444">Technical flow (protocol, port)</text>
</svg>
