<svg xmlns="http://www.w3.org/2000/svg" viewBox="0 0 855 317" font-family="Helvetica,Arial,sans-serif">
<defs><marker id="arr" viewBox="0 0 10 10" refX="9" refY="5" markerWidth="7" markerHeight="7" orient="auto-start-reverse">
<path d="M0,0 L10,5 L0,10 z" fill="#5a6675"/></marker></defs>
<rect width="855" height="317" fill="#ffffff"/>
<rect x="188" y="22" width="657" height="181" rx="6" fill="#f3f5f6" stroke="#7c8794" stroke-width="1.4"/>
<text x="198" y="40" font-size="13" font-weight="bold" fill="#17202c">Cloud host</text>
<rect x="202" y="85.5" width="126" height="83" rx="6" fill="#eaf5ef" stroke="#1a8f66" stroke-width="1.2" stroke-dasharray="5 3"/>
<text x="212" y="103.5" font-size="13" font-weight="bold" fill="#17202c">Public zone</text>
<rect x="440" y="49" width="396" height="145" rx="6" fill="#eaf5ef" stroke="#1a8f66" stroke-width="1.2" stroke-dasharray="5 3"/>
<text x="450" y="67" font-size="13" font-weight="bold" fill="#17202c">Private zone</text>
<rect x="454" y="90" width="126" height="74" rx="6" fill="#ffffff" stroke="#48546a" stroke-width="1.5"/>
<text x="464" y="108" font-size="13" font-weight="bold" fill="#17202c">Web VM</text>
<rect x="701" y="76" width="126" height="88" rx="6" fill="#ffffff" stroke="#48546a" stroke-width="1.5"/>
<text x="711" y="94" font-size="13" font-weight="bold" fill="#17202c">Database</text>
<text x="711" y="108" font-size="13" font-weight="bold" fill="#17202c">VM</text>
<rect x="211" y="112.5" width="108" height="47" rx="4" fill="#ffffff" stroke="#48546a" stroke-width="1.5"/>
<text x="265" y="132.75" font-size="12.5" text-anchor="middle" fill="#17202c">Load</text>
<text x="265" y="147.25" font-size="12.5" text-anchor="middle" fill="#17202c">balancer</text>
<rect x="463" y="117" width="108" height="38" rx="4" fill="#fdf4e3" stroke="#c88a2e" stroke-width="1.2"/>
<text x="517" y="140" font-size="12.5" text-anchor="middle" fill="#17202c">CMS</text>
<rect x="710" y="117" width="108" height="38" rx="4" fill="#fdf4e3" stroke="#c88a2e" stroke-width="1.2"/>
<text x="764" y="140" font-size="12.5" text-anchor="middle" fill="#17202c">MySQL</text>
<circle cx="42" cy="113" r="7" fill="none" stroke="#1f5e91" stroke-width="1.5"/>
<path d="M 31 135 q 11 -19 22 0" fill="none" stroke="#1f5e91" stroke-width="1.5"/>
<text x="42" y="147" font-size="11" text-anchor="middle" fill="#20364c">Internet</text>
<text x="42" y="158" font-size="11" text-anchor="middle" fill="#20364c">visitors</text>
<path d="M 74 136 L 211 136" fill="none" stroke="#5a6675" stroke-width="1.3" marker-end="url(#arr)"/>
<text x="128.5" y="151.5" font-size="11.5" text-anchor="middle" fill="#3a4553" font-style="italic" stroke="#ffffff" stroke-width="2.5" paint-order="stroke" stroke-linejoin="round">Site access</text>
<text x="128.5" y="166" font-size="9" text-anchor="middle" fill="#79828f" stroke="#ffffff" stroke-width="2.5" paint-order="stroke" stroke-linejoin="round">(HTTPS/443)</text>
<path d="M 319 136 L 463 136" fill="none" stroke="#5a6675" stroke-width="1.3" marker-end="url(#arr)"/>
<text x="384" y="151.5" font-size="11.5" text-anchor="middle" fill="#3a4553" font-style="italic" stroke="#ffffff" stroke-width="2.5" paint-order="stroke" stroke-linejoin="round">Balanced</text>
<text x="384" y="166" font-size="11.5" text-anchor="middle" fill="#3a4553" font-style="italic" stroke="#ffffff" stroke-width="2.5" paint-order="stroke" stroke-linejoin="round">traffic</text>
<text x="384" y="180.5" font-size="9" text-anchor="middle" fill="#79828f" stroke="#ffffff" stroke-width="2.5" paint-order="stroke" stroke-linejoin="round">(HTTP/8080)</text>
<path d="M 571 136 L 710 136" fill="none" stroke="#5a6675" stroke-width="1.3" marker-end="url(#arr)"/>
<text x="640.5" y="151.5" font-size="11.5" text-anchor="middle" fill="#3a4553" font-style="italic" stroke="#ffffff" stroke-width="2.5" paint-order="stroke" stroke-linejoin="round">Read/write</text>
<text x="640.5" y="166" font-size="11.5" text-anchor="middle" fill="#3a4553" font-style="italic" stroke="#ffffff" stroke-width="2.5" paint-order="stroke" stroke-linejoin="round">content</text>
<text x="640.5" y="180.5" font-size="9" text-anchor="middle" fill="#79828f" stroke="#ffffff" stroke-width="2.5" paint-order="stroke" stroke-linejoin="round">(TCP/3306)</text>
<line x1="20" y1="223" x2="835" y2="223" stroke="#e6e9ee" stroke-width="1"/>
<text x="20" y="245" font-size="11" font-weight="bold" fill="#3a4553">LEGEND</text>
<rect x="150" y="235" width="26" height="14" rx="3" fill="#f3f5f6" stroke="#7c8794"/>
<text x="182" y="246" font-size="10" fill="#17202c">Site / data center</text>
<rect x="308" y="235" width="26" height="14" rx="3" fill="#eaf5ef" stroke="#1a8f66" stroke-dasharray="5 3"/>
<text x="340" y="246" font-size="10" fill="#17202c">Network zone</text>
<rect x="435" y="235" width="26" height="14" rx="3" fill="#ffffff" stroke="#48546a"/>
<text x="467" y="246" font-size="10" fill="#17202c">Server / VM</text>
<rect x="557" y="235" width="26" height="14" rx="3" fill="#fdf4e3" stroke="#c88a2e"/>
<text x="589" y="246" font-size="10" fill="#17202c">Deployed application</text>
<circle cx="163" cy="260" r="3" fill="none" stroke="#1f5e91" stroke-width="1.2"/>
<path d="M 158 270 q 5 -7 10 0" fill="none" stroke="#1f5e91" stroke-width="1.2"/>
<text x="182" y="268" font-size="10" fill="#17202c">User / consumer</text>
<line x1="150" y1="287" x2="176" y2="287" stroke="#5a6675" stroke-width="1.3" marker-end="url(#arr)"/>
<text x="182" y="291" font-size="10" fill="#17202c">Technical flow (protocol, port)</text>
</svg>
