<svg xmlns="http://www.w3.org/2000/svg" viewBox="0 0 219 872" font-family="Helvetica,Arial,sans-serif">
<defs><marker id="arr" viewBox="0 0 10 10" refX="9" refY="5" markerWidth="7" markerHeight="7" orient="auto-start-reverse">
<path d="M0,0 L10,5 L0,10 z" fill="#444444"/></marker></defs>
<rect width="219" height="872" fill="white"/>
<rect x="10" y="156" width="199" height="513.5" rx="6" fill="#f5f5f4" stroke="#8a8a85" stroke-width="1.4"/>
<text x="20" y="174" font-size="12" font-weight="bold" fill="#333">Cloud host</text>
<rect x="57" y="189" width="132" height="86" rx="6" fill="#ecf3ec" stroke="#6d9a6d" stroke-width="1.2" stroke-dasharray="5 3"/>
<text x="67" y="207" font-size="12" font-weight="bold" fill="#333">Public zone</text>
<rect x="46" y="354.5" width="153" height="305" rx="6" fill="#ecf3ec" stroke="#6d9a6d" stroke-width="1.2" stroke-dasharray="5 3"/>
<text x="56" y="372.5" font-size="12" font-weight="bold" fill="#333">Private zone</text>
<rect x="57" y="387.5" width="132" height="78" rx="6" fill="#ffffff" stroke="#55606b" stroke-width="1.5"/>
<text x="67" y="405.5" font-size="12" font-weight="bold" fill="#333">Web VM</text>
<rect x="57" y="558.5" width="132" height="91" rx="6" fill="#ffffff" stroke="#55606b" stroke-width="1.5"/>
<text x="67" y="576.5" font-size="12" font-weight="bold" fill="#333">Database</text>
<text x="67" y="589.5" font-size="12" font-weight="bold" fill="#333">VM</text>
<rect x="67" y="217" width="112" height="48" rx="4" fill="#ffffff" stroke="#55606b" stroke-width="1.5"/>
<text x="123" y="238.25" font-size="11.5" text-anchor="middle" fill="#222233">Load</text>
<text x="123" y="251.75" font-size="11.5" text-anchor="middle" fill="#222233">balancer</text>
<rect x="67" y="415.5" width="112" height="40" rx="4" fill="#fff7e6" stroke="#b08d2a" stroke-width="1.2"/>
<text x="123" y="439.5" font-size="11.5" text-anchor="middle" fill="#222233">CMS</text>
<rect x="67" y="599.5" width="112" height="40" rx="4" fill="#fff7e6" stroke="#b08d2a" stroke-width="1.2"/>
<text x="123" y="623.5" font-size="11.5" text-anchor="middle" fill="#222233">MySQL</text>
<circle cx="123" cy="32" r="7" fill="none" stroke="#445566" stroke-width="1.5"/>
<path d="M 112 54 q 11 -19 22 0" fill="none" stroke="#445566" stroke-width="1.5"/>
<text x="123" y="66" font-size="10" text-anchor="middle" fill="#223344">Internet</text>
<text x="123" y="77" font-size="10" text-anchor="middle" fill="#223344">visitors</text>
<path d="M 123 89 L 123 217" fill="none" stroke="#444444" stroke-width="1.3" marker-end="url(#arr)"/>
<text x="85.5" y="116.5" font-size="10.5" text-anchor="middle" fill="#333" font-style="italic" stroke="white" stroke-width="2.5" paint-order="stroke" stroke-linejoin="round">Site access</text>
<text x="85.5" y="130" font-size="9" text-anchor="middle" fill="#777" stroke="white" stroke-width="2.5" paint-order="stroke" stroke-linejoin="round">(HTTPS/443)</text>
<path d="M 123 265 L 123 415.5" fill="none" stroke="#444444" stroke-width="1.3" marker-end="url(#arr)"/>
<text x="70.5" y="311.5" font-size="10.5" text-anchor="middle" fill="#333" font-style="italic" stroke="white" stroke-width="2.5" paint-order="stroke" stroke-linejoin="round">Balanced traffic</text>
<text x="70.5" y="325" font-size="9" text-anchor="middle" fill="#777" stroke="white" stroke-width="2.5" paint-order="stroke" stroke-linejoin="round">(HTTP/8080)</text>
<path d="M 123 455.5 L 123 599.5" fill="none" stroke="#444444" stroke-width="1.3" marker-end="url(#arr)"/>
<text x="88.5" y="502" font-size="10.5" text-anchor="middle" fill="#333" font-style="italic" stroke="white" stroke-width="2.5" paint-order="stroke" stroke-linejoin="round">Read/write</text>
<text x="88.5" y="515.5" font-size="10.5" text-anchor="middle" fill="#333" font-style="italic" stroke="white" stroke-width="2.5" paint-order="stroke" stroke-linejoin="round">content</text>
<text x="88.5" y="529" font-size="9" text-anchor="middle" fill="#777" stroke="white" stroke-width="2.5" paint-order="stroke" stroke-linejoin="round">(TCP/3306)</text>
<line x1="20" y1="690" x2="199" y2="690" stroke="#ddd" stroke-width="1"/>
<text x="20" y="712" font-size="11" font-weight="bold" fill="#555">LEGEND</text>
<rect x="150" y="702" width="26" height="14" rx="3" fill="#f5f5f4" stroke="#8a8a85"/>
<text x="182" y="713" font-size="10" fill="#444">Site / data center</text>
<rect x="150" y="724" width="26" height="14" rx="3" fill="#ecf3ec" stroke="#6d9a6d" stroke-dasharray="5 3"/>
<text x="182" y="735" font-size="10" fill="#444">Network zone</text>
<rect x="150" y="746" width="26" height="14" rx="3" fill="#ffffff" stroke="#55606b"/>
<text x="182" y="757" font-size="10" fill="#444">Server / VM</text>
<rect x="150" y="768" width="26" height="14" rx="3" fill="#fff7e6" stroke="#b08d2a"/>
<text x="182" y="779" font-size="10" fill="#444">Deployed application</text>
<circle cx="163" cy="793" r="3" fill="none" stroke="#445566" stroke-width="1.2"/>
<path d="M 158 803 q 5 -7 10 0" fill="none" stroke="#445566" stroke-width="1.2"/>
<text x="182" y="801" font-size="10" fill="#444">User / consumer</text>
<line x1="150" y1="842" x2="176" y2="842" stroke="#444444" stroke-width="1.3" marker-end="url(#arr)"/>
<text x="182" y="846" font-size="10" fill="#444">Technical flow (protocol, port)</text>
</svg>
