<svg xmlns="http://www.w3.org/2000/svg" viewBox="0 0 523 1846" font-family="Helvetica,Arial,sans-serif">
<defs><marker id="arr" viewBox="0 0 10 10" refX="9" refY="5" markerWidth="7" markerHeight="7" orient="auto-start-reverse">
<path d="M0,0 L10,5 L0,10 z" fill="#5a6675"/></marker></defs>
<rect width="523" height="1846" fill="#ffffff"/>
<rect x="130" y="169" width="383" height="1021" rx="6" fill="#f3f5f6" stroke="#7c8794" stroke-width="1.4"/>
<text x="140" y="187" font-size="13" font-weight="bold" fill="#17202c">Main data center</text>
<rect x="195.5" y="221" width="269.5" height="266" rx="6" fill="#eaf5ef" stroke="#1a8f66" stroke-width="1.2" stroke-dasharray="5 3"/>
<text x="205.5" y="239" font-size="13" font-weight="bold" fill="#17202c">DMZ</text>
<rect x="328" y="385" width="126" height="88" rx="6" fill="#ffffff" stroke="#48546a" stroke-width="1.5"/>
<text x="338" y="403" font-size="13" font-weight="bold" fill="#17202c">Reverse proxies</text>
<text x="338" y="417" font-size="13" font-weight="bold" fill="#17202c">(HA)</text>
<rect x="193" y="582" width="300" height="346" rx="6" fill="#eaf5ef" stroke="#1a8f66" stroke-width="1.2" stroke-dasharray="5 3"/>
<text x="203" y="600" font-size="13" font-weight="bold" fill="#17202c">Application zone</text>
<rect x="202" y="614" width="270" height="88" rx="6" fill="#ffffff" stroke="#48546a" stroke-width="1.5"/>
<text x="212" y="632" font-size="13" font-weight="bold" fill="#17202c">K8s cluster</text>
<text x="212" y="646" font-size="13" font-weight="bold" fill="#17202c">front</text>
<rect x="210" y="797" width="254" height="97" rx="6" fill="#ffffff" stroke="#48546a" stroke-width="1.5"/>
<text x="220" y="815" font-size="13" font-weight="bold" fill="#17202c">K8s cluster</text>
<text x="220" y="829" font-size="13" font-weight="bold" fill="#17202c">business</text>
<rect x="201" y="1033" width="290" height="143" rx="6" fill="#eaf5ef" stroke="#1a8f66" stroke-width="1.2" stroke-dasharray="5 3"/>
<text x="211" y="1051" font-size="13" font-weight="bold" fill="#17202c">Data zone</text>
<rect x="210" y="1065" width="126" height="97" rx="6" fill="#ffffff" stroke="#48546a" stroke-width="1.5"/>
<text x="220" y="1083" font-size="13" font-weight="bold" fill="#17202c">PostgreSQL</text>
<text x="220" y="1097" font-size="13" font-weight="bold" fill="#17202c">cluster</text>
<rect x="356" y="1068" width="126" height="88" rx="6" fill="#ffffff" stroke="#48546a" stroke-width="1.5"/>
<text x="366" y="1086" font-size="13" font-weight="bold" fill="#17202c">Kafka</text>
<text x="366" y="1100" font-size="13" font-weight="bold" fill="#17202c">cluster</text>
<rect x="215" y="1281" width="223" height="311" rx="6" fill="#f3f5f6" stroke="#7c8794" stroke-width="1.4"/>
<text x="225" y="1299" font-size="13" font-weight="bold" fill="#17202c">Disaster-recovery site</text>
<rect x="224" y="1313" width="205" height="270" rx="6" fill="#eaf5ef" stroke="#1a8f66" stroke-width="1.2" stroke-dasharray="5 3"/>
<text x="234" y="1331" font-size="13" font-weight="bold" fill="#17202c">DR data zone</text>
<rect x="283" y="1345" width="126" height="97" rx="6" fill="#ffffff" stroke="#48546a" stroke-width="1.5"/>
<text x="293" y="1363" font-size="13" font-weight="bold" fill="#17202c">PostgreSQL</text>
<text x="293" y="1377" font-size="13" font-weight="bold" fill="#17202c">standby</text>
<rect x="332.5" y="248" width="117" height="47" rx="4" fill="#ffffff" stroke="#48546a" stroke-width="1.5"/>
<text x="391" y="268.25" font-size="12.5" text-anchor="middle" fill="#17202c">Application</text>
<text x="391" y="282.75" font-size="12.5" text-anchor="middle" fill="#17202c">firewall (WAF)</text>
<rect x="337" y="426" width="108" height="38" rx="4" fill="#fdf4e3" stroke="#c88a2e" stroke-width="1.2"/>
<text x="391" y="449" font-size="12.5" text-anchor="middle" fill="#17202c">Nginx</text>
<rect x="204.5" y="248" width="108" height="47" rx="4" fill="#ffffff" stroke="#48546a" stroke-width="1.5"/>
<text x="258.5" y="268.25" font-size="12.5" text-anchor="middle" fill="#17202c">Transfer</text>
<text x="258.5" y="282.75" font-size="12.5" text-anchor="middle" fill="#17202c">gateway</text>
<rect x="355" y="655" width="108" height="38" rx="4" fill="#fdf4e3" stroke="#c88a2e" stroke-width="1.2"/>
<text x="409" y="678" font-size="12.5" text-anchor="middle" fill="#17202c">Sales front</text>
<rect x="211" y="655" width="124" height="38" rx="4" fill="#fdf4e3" stroke="#c88a2e" stroke-width="1.2"/>
<text x="273" y="678" font-size="12.5" text-anchor="middle" fill="#17202c">Checkout funnel</text>
<rect x="347" y="838" width="108" height="47" rx="4" fill="#fdf4e3" stroke="#c88a2e" stroke-width="1.2"/>
<text x="401" y="858.25" font-size="12.5" text-anchor="middle" fill="#17202c">Order</text>
<text x="401" y="872.75" font-size="12.5" text-anchor="middle" fill="#17202c">management</text>
<rect x="219" y="838" width="108" height="47" rx="4" fill="#fdf4e3" stroke="#c88a2e" stroke-width="1.2"/>
<text x="273" y="858.25" font-size="12.5" text-anchor="middle" fill="#17202c">Payment</text>
<text x="273" y="872.75" font-size="12.5" text-anchor="middle" fill="#17202c">hub</text>
<rect x="219" y="1106" width="108" height="47" rx="4" fill="#fdf4e3" stroke="#c88a2e" stroke-width="1.2"/>
<text x="273" y="1126.25" font-size="12.5" text-anchor="middle" fill="#17202c">PostgreSQL</text>
<text x="273" y="1140.75" font-size="12.5" text-anchor="middle" fill="#17202c">primary</text>
<rect x="365" y="1109" width="108" height="38" rx="4" fill="#fdf4e3" stroke="#c88a2e" stroke-width="1.2"/>
<text x="419" y="1132" font-size="12.5" text-anchor="middle" fill="#17202c">Kafka</text>
<rect x="292" y="1386" width="108" height="47" rx="4" fill="#fdf4e3" stroke="#c88a2e" stroke-width="1.2"/>
<text x="346" y="1406.25" font-size="12.5" text-anchor="middle" fill="#17202c">PostgreSQL</text>
<text x="346" y="1420.75" font-size="12.5" text-anchor="middle" fill="#17202c">replica</text>
<rect x="256" y="1527" width="108" height="47" rx="4" fill="#ffffff" stroke="#48546a" stroke-width="1.5"/>
<text x="310" y="1547.25" font-size="12.5" text-anchor="middle" fill="#17202c">Backup</text>
<text x="310" y="1561.75" font-size="12.5" text-anchor="middle" fill="#17202c">server</text>
<circle cx="391" cy="32" r="7" fill="none" stroke="#1f5e91" stroke-width="1.5"/>
<path d="M 380 54 q 11 -19 22 0" fill="none" stroke="#1f5e91" stroke-width="1.5"/>
<text x="391" y="66" font-size="11" text-anchor="middle" fill="#20364c">Internet</text>
<text x="391" y="77" font-size="11" text-anchor="middle" fill="#20364c">customers</text>
<rect x="150" y="1608" width="108" height="38" rx="4" fill="#f4eff8" stroke="#8659a6" stroke-width="1.2" stroke-dasharray="5 3"/>
<text x="204" y="1631" font-size="12.5" text-anchor="middle" fill="#17202c">PSP</text>
<rect x="22" y="1276" width="108" height="47" rx="4" fill="#f4eff8" stroke="#8659a6" stroke-width="1.2" stroke-dasharray="5 3"/>
<text x="76" y="1296.25" font-size="12.5" text-anchor="middle" fill="#17202c">Carrier</text>
<text x="76" y="1310.75" font-size="12.5" text-anchor="middle" fill="#17202c">platforms</text>
<path d="M 391 87 L 391 248" fill="none" stroke="#5a6675" stroke-width="1.3" marker-end="url(#arr)"/>
<text x="353.5" y="115.5" font-size="11.5" text-anchor="middle" fill="#3a4553" font-style="italic" stroke="#ffffff" stroke-width="2.5" paint-order="stroke" stroke-linejoin="round">Client web</text>
<text x="353.5" y="130" font-size="11.5" text-anchor="middle" fill="#3a4553" font-style="italic" stroke="#ffffff" stroke-width="2.5" paint-order="stroke" stroke-linejoin="round">traffic</text>
<text x="353.5" y="144.5" font-size="9" text-anchor="middle" fill="#79828f" stroke="#ffffff" stroke-width="2.5" paint-order="stroke" stroke-linejoin="round">(HTTPS/443)</text>
<path d="M 391 295 L 391 426" fill="none" stroke="#5a6675" stroke-width="1.3" marker-end="url(#arr)"/>
<text x="425" y="327.5" font-size="11.5" text-anchor="middle" fill="#3a4553" font-style="italic" stroke="#ffffff" stroke-width="2.5" paint-order="stroke" stroke-linejoin="round">Filtered</text>
<text x="425" y="342" font-size="11.5" text-anchor="middle" fill="#3a4553" font-style="italic" stroke="#ffffff" stroke-width="2.5" paint-order="stroke" stroke-linejoin="round">traffic</text>
<text x="425" y="356.5" font-size="9" text-anchor="middle" fill="#79828f" stroke="#ffffff" stroke-width="2.5" paint-order="stroke" stroke-linejoin="round">(HTTPS/443)</text>
<path d="M 409 464 L 409 655" fill="none" stroke="#5a6675" stroke-width="1.3" marker-end="url(#arr)"/>
<text x="373.5" y="524.5" font-size="11.5" text-anchor="middle" fill="#3a4553" font-style="italic" stroke="#ffffff" stroke-width="2.5" paint-order="stroke" stroke-linejoin="round">Front</text>
<text x="373.5" y="539" font-size="11.5" text-anchor="middle" fill="#3a4553" font-style="italic" stroke="#ffffff" stroke-width="2.5" paint-order="stroke" stroke-linejoin="round">routing</text>
<text x="373.5" y="553.5" font-size="9" text-anchor="middle" fill="#79828f" stroke="#ffffff" stroke-width="2.5" paint-order="stroke" stroke-linejoin="round">(HTTPS/8443)</text>
<path d="M 373 464 L 373 502 L 329 502 L 329 567 L 273 567 L 273 655" fill="none" stroke="#5a6675" stroke-width="1.3" marker-end="url(#arr)"/>
<text x="293.5" y="524.5" font-size="11.5" text-anchor="middle" fill="#3a4553" font-style="italic" stroke="#ffffff" stroke-width="2.5" paint-order="stroke" stroke-linejoin="round">Checkout</text>
<text x="293.5" y="539" font-size="11.5" text-anchor="middle" fill="#3a4553" font-style="italic" stroke="#ffffff" stroke-width="2.5" paint-order="stroke" stroke-linejoin="round">routing</text>
<text x="293.5" y="553.5" font-size="9" text-anchor="middle" fill="#79828f" stroke="#ffffff" stroke-width="2.5" paint-order="stroke" stroke-linejoin="round">(HTTPS/8444)</text>
<path d="M 391 693 L 391 782 L 401 782 L 401 838" fill="none" stroke="#5a6675" stroke-width="1.3" marker-end="url(#arr)"/>
<text x="427.5" y="739.5" font-size="11.5" text-anchor="middle" fill="#3a4553" font-style="italic" stroke="#ffffff" stroke-width="2.5" paint-order="stroke" stroke-linejoin="round">Orders</text>
<text x="427.5" y="754" font-size="11.5" text-anchor="middle" fill="#3a4553" font-style="italic" stroke="#ffffff" stroke-width="2.5" paint-order="stroke" stroke-linejoin="round">API</text>
<text x="427.5" y="768.5" font-size="9" text-anchor="middle" fill="#79828f" stroke="#ffffff" stroke-width="2.5" paint-order="stroke" stroke-linejoin="round">(HTTPS/8443)</text>
<path d="M 273 693 L 273 838" fill="none" stroke="#5a6675" stroke-width="1.3" marker-end="url(#arr)"/>
<text x="237.5" y="739.5" font-size="11.5" text-anchor="middle" fill="#3a4553" font-style="italic" stroke="#ffffff" stroke-width="2.5" paint-order="stroke" stroke-linejoin="round">Payment</text>
<text x="237.5" y="754" font-size="11.5" text-anchor="middle" fill="#3a4553" font-style="italic" stroke="#ffffff" stroke-width="2.5" paint-order="stroke" stroke-linejoin="round">API</text>
<text x="237.5" y="768.5" font-size="9" text-anchor="middle" fill="#79828f" stroke="#ffffff" stroke-width="2.5" paint-order="stroke" stroke-linejoin="round">(HTTPS/8445)</text>
<path d="M 255 885 L 255 943 L 150 943 L 150 1205 L 204 1205 L 204 1608" fill="none" stroke="#5a6675" stroke-width="1.3" marker-end="url(#arr)"/>
<text x="144" y="1227.5" font-size="11.5" text-anchor="middle" fill="#3a4553" font-style="italic" stroke="#ffffff" stroke-width="2.5" paint-order="stroke" stroke-linejoin="round">Authorization and</text>
<text x="144" y="1242" font-size="11.5" text-anchor="middle" fill="#3a4553" font-style="italic" stroke="#ffffff" stroke-width="2.5" paint-order="stroke" stroke-linejoin="round">capture</text>
<text x="144" y="1256.5" font-size="9" text-anchor="middle" fill="#79828f" stroke="#ffffff" stroke-width="2.5" paint-order="stroke" stroke-linejoin="round">(HTTPS/443)</text>
<path d="M 374 885 L 374 943 L 331 943 L 331 1018 L 291 1018 L 291 1106" fill="none" stroke="#5a6675" stroke-width="1.3" marker-end="url(#arr)"/>
<text x="293.5" y="975.5" font-size="11.5" text-anchor="middle" fill="#3a4553" font-style="italic" stroke="#ffffff" stroke-width="2.5" paint-order="stroke" stroke-linejoin="round">Read/write</text>
<text x="293.5" y="990" font-size="11.5" text-anchor="middle" fill="#3a4553" font-style="italic" stroke="#ffffff" stroke-width="2.5" paint-order="stroke" stroke-linejoin="round">orders</text>
<text x="293.5" y="1004.5" font-size="9" text-anchor="middle" fill="#79828f" stroke="#ffffff" stroke-width="2.5" paint-order="stroke" stroke-linejoin="round">(TCP/5432)</text>
<path d="M 291 885 L 291 953 L 247 953 L 247 1018 L 255 1018 L 255 1106" fill="none" stroke="#5a6675" stroke-width="1.3" marker-end="url(#arr)"/>
<text x="203" y="975.5" font-size="11.5" text-anchor="middle" fill="#3a4553" font-style="italic" stroke="#ffffff" stroke-width="2.5" paint-order="stroke" stroke-linejoin="round">Read/write</text>
<text x="203" y="990" font-size="11.5" text-anchor="middle" fill="#3a4553" font-style="italic" stroke="#ffffff" stroke-width="2.5" paint-order="stroke" stroke-linejoin="round">transactions</text>
<text x="203" y="1004.5" font-size="9" text-anchor="middle" fill="#79828f" stroke="#ffffff" stroke-width="2.5" paint-order="stroke" stroke-linejoin="round">(TCP/5432)</text>
<path d="M 401 885 L 401 1109" fill="none" stroke="#5a6675" stroke-width="1.3" marker-end="url(#arr)"/>
<text x="370.5" y="975.5" font-size="11.5" text-anchor="middle" fill="#3a4553" font-style="italic" stroke="#ffffff" stroke-width="2.5" paint-order="stroke" stroke-linejoin="round">Order</text>
<text x="370.5" y="990" font-size="11.5" text-anchor="middle" fill="#3a4553" font-style="italic" stroke="#ffffff" stroke-width="2.5" paint-order="stroke" stroke-linejoin="round">events</text>
<text x="370.5" y="1004.5" font-size="9" text-anchor="middle" fill="#79828f" stroke="#ffffff" stroke-width="2.5" paint-order="stroke" stroke-linejoin="round">(TCP/9092)</text>
<path d="M 427 693 L 427 717 L 474 717 L 474 1018 L 437 1018 L 437 1109" fill="none" stroke="#5a6675" stroke-width="1.3" marker-end="url(#arr)"/>
<text x="443" y="975.5" font-size="11.5" text-anchor="middle" fill="#3a4553" font-style="italic" stroke="#ffffff" stroke-width="2.5" paint-order="stroke" stroke-linejoin="round">Browsing</text>
<text x="443" y="990" font-size="11.5" text-anchor="middle" fill="#3a4553" font-style="italic" stroke="#ffffff" stroke-width="2.5" paint-order="stroke" stroke-linejoin="round">events</text>
<text x="443" y="1004.5" font-size="9" text-anchor="middle" fill="#79828f" stroke="#ffffff" stroke-width="2.5" paint-order="stroke" stroke-linejoin="round">(TCP/9092)</text>
<path d="M 428 885 L 428 909 L 469 909 A 5 5 0 0 1 479 909 L 484 909 L 484 943 L 503 943 L 503 206 L 396 206 A 5 5 0 0 0 386 206 L 258.5 206 L 258.5 248" fill="none" stroke="#5a6675" stroke-width="1.3" marker-end="url(#arr)"/>
<text x="475" y="524.5" font-size="11.5" text-anchor="middle" fill="#3a4553" font-style="italic" stroke="#ffffff" stroke-width="2.5" paint-order="stroke" stroke-linejoin="round">Carrier</text>
<text x="475" y="539" font-size="11.5" text-anchor="middle" fill="#3a4553" font-style="italic" stroke="#ffffff" stroke-width="2.5" paint-order="stroke" stroke-linejoin="round">files</text>
<text x="475" y="553.5" font-size="9" text-anchor="middle" fill="#79828f" stroke="#ffffff" stroke-width="2.5" paint-order="stroke" stroke-linejoin="round">(SFTP/22)</text>
<path d="M 258.5 295 L 258.5 502 L 139 502 L 139 1205 L 76 1205 L 76 1276" fill="none" stroke="#5a6675" stroke-width="1.3" marker-end="url(#arr)"/>
<text x="42" y="1227.5" font-size="11.5" text-anchor="middle" fill="#3a4553" font-style="italic" stroke="#ffffff" stroke-width="2.5" paint-order="stroke" stroke-linejoin="round">Logistics</text>
<text x="42" y="1242" font-size="11.5" text-anchor="middle" fill="#3a4553" font-style="italic" stroke="#ffffff" stroke-width="2.5" paint-order="stroke" stroke-linejoin="round">exchanges</text>
<text x="42" y="1256.5" font-size="9" text-anchor="middle" fill="#79828f" stroke="#ffffff" stroke-width="2.5" paint-order="stroke" stroke-linejoin="round">(AS4/443)</text>
<path d="M 273 1153 L 273 1205 L 346 1205 L 346 1386" fill="none" stroke="#5a6675" stroke-width="1.3" marker-end="url(#arr)"/>
<text x="305.5" y="1227.5" font-size="11.5" text-anchor="middle" fill="#3a4553" font-style="italic" stroke="#ffffff" stroke-width="2.5" paint-order="stroke" stroke-linejoin="round">Async</text>
<text x="305.5" y="1242" font-size="11.5" text-anchor="middle" fill="#3a4553" font-style="italic" stroke="#ffffff" stroke-width="2.5" paint-order="stroke" stroke-linejoin="round">replication</text>
<text x="305.5" y="1256.5" font-size="9" text-anchor="middle" fill="#79828f" stroke="#ffffff" stroke-width="2.5" paint-order="stroke" stroke-linejoin="round">(TCP/5432)</text>
<path d="M 292 1442 L 292 1527" fill="none" stroke="#5a6675" stroke-width="1.3" marker-end="url(#arr)"/>
<text x="261.5" y="1474.5" font-size="11.5" text-anchor="middle" fill="#3a4553" font-style="italic" stroke="#ffffff" stroke-width="2.5" paint-order="stroke" stroke-linejoin="round">Daily</text>
<text x="261.5" y="1489" font-size="11.5" text-anchor="middle" fill="#3a4553" font-style="italic" stroke="#ffffff" stroke-width="2.5" paint-order="stroke" stroke-linejoin="round">backups</text>
<text x="261.5" y="1503.5" font-size="9" text-anchor="middle" fill="#79828f" stroke="#ffffff" stroke-width="2.5" paint-order="stroke" stroke-linejoin="round">(TCP/9095)</text>
<path d="M 419 1147 L 419 1517 L 328 1517 L 328 1527" fill="none" stroke="#5a6675" stroke-width="1.3" marker-end="url(#arr)"/>
<text x="454" y="1223.5" font-size="11.5" text-anchor="middle" fill="#3a4553" font-style="italic" stroke="#ffffff" stroke-width="2.5" paint-order="stroke" stroke-linejoin="round">Topic</text>
<text x="454" y="1238" font-size="11.5" text-anchor="middle" fill="#3a4553" font-style="italic" stroke="#ffffff" stroke-width="2.5" paint-order="stroke" stroke-linejoin="round">archiving</text>
<text x="454" y="1252.5" font-size="9" text-anchor="middle" fill="#79828f" stroke="#ffffff" stroke-width="2.5" paint-order="stroke" stroke-linejoin="round">(TCP/9095)</text>
<line x1="20" y1="1666" x2="503" y2="1666" stroke="#e6e9ee" stroke-width="1"/>
<text x="20" y="1688" font-size="11" font-weight="bold" fill="#3a4553">LEGEND</text>
<rect x="150" y="1678" width="26" height="14" rx="3" fill="#f3f5f6" stroke="#7c8794"/>
<text x="182" y="1689" font-size="10" fill="#17202c">Site / data center</text>
<rect x="150" y="1700" width="26" height="14" rx="3" fill="#eaf5ef" stroke="#1a8f66" stroke-dasharray="5 3"/>
<text x="182" y="1711" font-size="10" fill="#17202c">Network zone</text>
<rect x="277" y="1700" width="26" height="14" rx="3" fill="#ffffff" stroke="#48546a"/>
<text x="309" y="1711" font-size="10" fill="#17202c">Server / VM</text>
<rect x="150" y="1722" width="26" height="14" rx="3" fill="#fdf4e3" stroke="#c88a2e"/>
<text x="182" y="1733" font-size="10" fill="#17202c">Deployed application</text>
<circle cx="163" cy="1747" r="3" fill="none" stroke="#1f5e91" stroke-width="1.2"/>
<path d="M 158 1757 q 5 -7 10 0" fill="none" stroke="#1f5e91" stroke-width="1.2"/>
<text x="182" y="1755" font-size="10" fill="#17202c">User / consumer</text>
<rect x="292" y="1744" width="26" height="14" rx="3" fill="#f4eff8" stroke="#8659a6" stroke-dasharray="5 3"/>
<text x="324" y="1755" font-size="10" fill="#17202c">External system</text>
<line x1="150" y1="1796" x2="176" y2="1796" stroke="#5a6675" stroke-width="1.3" marker-end="url(#arr)"/>
<text x="182" y="1800" font-size="10" fill="#17202c">Technical flow (protocol, port)</text>
<text x="150" y="1824" font-size="10" fill="#17202c" font-style="italic">Inter-zone and inter-site flows filtered by firewall (flow matrix in the architecture dossier)</text>
</svg>
