<svg xmlns="http://www.w3.org/2000/svg" viewBox="0 0 2149 468" font-family="Helvetica,Arial,sans-serif">
<defs><marker id="arr" viewBox="0 0 10 10" refX="9" refY="5" markerWidth="7" markerHeight="7" orient="auto-start-reverse">
<path d="M0,0 L10,5 L0,10 z" fill="#5a6675"/></marker></defs>
<rect width="2149" height="468" fill="#ffffff"/>
<rect x="212" y="22" width="1718" height="333.5" rx="6" fill="#f3f5f6" stroke="#7c8794" stroke-width="1.4"/>
<text x="222" y="40" font-size="13" font-weight="bold" fill="#17202c">Main data center</text>
<rect x="246" y="137.16666666666669" width="154" height="191" rx="6" fill="#eaf5ef" stroke="#1a8f66" stroke-width="1.2" stroke-dasharray="5 3"/>
<text x="256" y="155.16666666666669" font-size="13" font-weight="bold" fill="#17202c">DMZ</text>
<rect x="260" y="231.16666666666669" width="126" height="88" rx="6" fill="#ffffff" stroke="#48546a" stroke-width="1.5"/>
<text x="270" y="249.16666666666669" font-size="13" font-weight="bold" fill="#17202c">Reverse proxy</text>
<text x="270" y="263.1666666666667" font-size="13" font-weight="bold" fill="#17202c">(HA pair)</text>
<rect x="540" y="119" width="854" height="215.5" rx="6" fill="#eaf5ef" stroke="#1a8f66" stroke-width="1.2" stroke-dasharray="5 3"/>
<text x="550" y="137" font-size="13" font-weight="bold" fill="#17202c">Application zone</text>
<rect x="554" y="157.5" width="146" height="74" rx="6" fill="#ffffff" stroke="#48546a" stroke-width="1.5"/>
<text x="564" y="175.5" font-size="13" font-weight="bold" fill="#17202c">Billing VM</text>
<rect x="564" y="251.5" width="126" height="74" rx="6" fill="#ffffff" stroke="#48546a" stroke-width="1.5"/>
<text x="574" y="269.5" font-size="13" font-weight="bold" fill="#17202c">CRM VM</text>
<rect x="1534" y="204.16666666666669" width="387" height="124" rx="6" fill="#eaf5ef" stroke="#1a8f66" stroke-width="1.2" stroke-dasharray="5 3"/>
<text x="1544" y="222.16666666666669" font-size="13" font-weight="bold" fill="#17202c">Data zone</text>
<rect x="1548" y="231.16666666666669" width="126" height="88" rx="6" fill="#ffffff" stroke="#48546a" stroke-width="1.5"/>
<text x="1558" y="249.16666666666669" font-size="13" font-weight="bold" fill="#17202c">Database</text>
<text x="1558" y="263.1666666666667" font-size="13" font-weight="bold" fill="#17202c">server</text>
<rect x="269" y="272.1666666666667" width="108" height="38" rx="4" fill="#fdf4e3" stroke="#c88a2e" stroke-width="1.2"/>
<text x="323" y="295.1666666666667" font-size="12.5" text-anchor="middle" fill="#17202c">WAF</text>
<rect x="269" y="164.16666666666669" width="108" height="47" rx="4" fill="#ffffff" stroke="#48546a" stroke-width="1.5"/>
<text x="323" y="184.41666666666669" font-size="12.5" text-anchor="middle" fill="#17202c">Transfer</text>
<text x="323" y="198.91666666666669" font-size="12.5" text-anchor="middle" fill="#17202c">gateway</text>
<rect x="839" y="175" width="108" height="38" rx="4" fill="#f5e6dd" stroke="#b85a30" stroke-width="1.3"/>
<path d="M 847 183 L 861 183 Q 863 188 854 195 Q 845 188 847 183" fill="none" stroke="#b85a30" stroke-width="1.3"/>
<text x="903" y="198" font-size="12.5" text-anchor="middle" fill="#17202c">Gateway</text>
<rect x="1039" y="170.5" width="108" height="47" rx="4" fill="#fdefe3" stroke="#d1600f" stroke-width="1.3"/>
<rect x="1045" y="176.5" width="18" height="14" rx="3" fill="none" stroke="#d1600f" stroke-width="1.3"/>
<path d="M 1049 179.5 v -4 a 5 5 0 0 1 10 0 v 4" fill="none" stroke="#d1600f" stroke-width="1.3"/>
<circle cx="1054" cy="186.5" r="2.5" fill="#d1600f"/>
<text x="1103" y="190.75" font-size="12.5" text-anchor="middle" fill="#17202c">OAuth2</text>
<text x="1103" y="205.25" font-size="12.5" text-anchor="middle" fill="#17202c">proxy</text>
<rect x="1277" y="175" width="108" height="38" rx="4" fill="#e0f0f0" stroke="#3a8f8f" stroke-width="1.3"/>
<text x="1331" y="198" font-size="12.5" text-anchor="middle" fill="#17202c">LDAP / IdP</text>
<rect x="563" y="184.5" width="108" height="38" rx="4" fill="#fdf4e3" stroke="#c88a2e" stroke-width="1.2"/>
<text x="617" y="207.5" font-size="12.5" text-anchor="middle" fill="#17202c">Billing</text>
<rect x="573" y="278.5" width="108" height="38" rx="4" fill="#fdf4e3" stroke="#c88a2e" stroke-width="1.2"/>
<text x="627" y="301.5" font-size="12.5" text-anchor="middle" fill="#17202c">CRM</text>
<rect x="1557" y="272.1666666666667" width="108" height="38" rx="4" fill="#fdf4e3" stroke="#c88a2e" stroke-width="1.2"/>
<text x="1611" y="295.1666666666667" font-size="12.5" text-anchor="middle" fill="#17202c">PostgreSQL</text>
<rect x="1804" y="248.66666666666669" width="108" height="47" rx="4" fill="#ffffff" stroke="#48546a" stroke-width="1.5"/>
<text x="1858" y="268.9166666666667" font-size="12.5" text-anchor="middle" fill="#17202c">Backup</text>
<text x="1858" y="283.4166666666667" font-size="12.5" text-anchor="middle" fill="#17202c">server</text>
<circle cx="54" cy="268" r="7" fill="none" stroke="#1f5e91" stroke-width="1.5"/>
<path d="M 43 290 q 11 -19 22 0" fill="none" stroke="#1f5e91" stroke-width="1.5"/>
<text x="54" y="302" font-size="11" text-anchor="middle" fill="#20364c">User</text>
<text x="54" y="313" font-size="11" text-anchor="middle" fill="#20364c">workstations</text>
<rect x="2031" y="84" width="108" height="47" rx="4" fill="#f4eff8" stroke="#8659a6" stroke-width="1.2" stroke-dasharray="5 3"/>
<text x="2085" y="104.25" font-size="12.5" text-anchor="middle" fill="#17202c">Partner EDI</text>
<text x="2085" y="118.75" font-size="12.5" text-anchor="middle" fill="#17202c">platform</text>
<path d="M 98 291 L 207 291.1666666666667 L 269 291.1666666666667" fill="none" stroke="#5a6675" stroke-width="1.3" marker-end="url(#arr)"/>
<text x="152.5" y="306.5" font-size="11.5" text-anchor="middle" fill="#3a4553" font-style="italic" stroke="#ffffff" stroke-width="2.5" paint-order="stroke" stroke-linejoin="round">Web</text>
<text x="152.5" y="321" font-size="11.5" text-anchor="middle" fill="#3a4553" font-style="italic" stroke="#ffffff" stroke-width="2.5" paint-order="stroke" stroke-linejoin="round">application</text>
<text x="152.5" y="335.5" font-size="11.5" text-anchor="middle" fill="#3a4553" font-style="italic" stroke="#ffffff" stroke-width="2.5" paint-order="stroke" stroke-linejoin="round">access</text>
<text x="152.5" y="350" font-size="9" text-anchor="middle" fill="#79828f" stroke="#ffffff" stroke-width="2.5" paint-order="stroke" stroke-linejoin="round">(HTTPS/443)</text>
<path d="M 377 284.83333333333337 L 525 284.83333333333337 L 525 203.5 L 563 203.5" fill="none" stroke="#5a6675" stroke-width="1.3" marker-end="url(#arr)"/>
<text x="470" y="234.83333333333334" font-size="11.5" text-anchor="middle" fill="#3a4553" font-style="italic" stroke="#ffffff" stroke-width="2.5" paint-order="stroke" stroke-linejoin="round">Filtered</text>
<text x="470" y="249.33333333333334" font-size="11.5" text-anchor="middle" fill="#3a4553" font-style="italic" stroke="#ffffff" stroke-width="2.5" paint-order="stroke" stroke-linejoin="round">billing</text>
<text x="470" y="263.83333333333337" font-size="11.5" text-anchor="middle" fill="#3a4553" font-style="italic" stroke="#ffffff" stroke-width="2.5" paint-order="stroke" stroke-linejoin="round">traffic</text>
<text x="470" y="278.33333333333337" font-size="9" text-anchor="middle" fill="#79828f" stroke="#ffffff" stroke-width="2.5" paint-order="stroke" stroke-linejoin="round">(HTTPS/8443)</text>
<path d="M 377 297.5 L 573 297.5" fill="none" stroke="#5a6675" stroke-width="1.3" marker-end="url(#arr)"/>
<text x="470" y="313" font-size="11.5" text-anchor="middle" fill="#3a4553" font-style="italic" stroke="#ffffff" stroke-width="2.5" paint-order="stroke" stroke-linejoin="round">Filtered CRM</text>
<text x="470" y="327.5" font-size="11.5" text-anchor="middle" fill="#3a4553" font-style="italic" stroke="#ffffff" stroke-width="2.5" paint-order="stroke" stroke-linejoin="round">traffic</text>
<text x="470" y="342" font-size="9" text-anchor="middle" fill="#79828f" stroke="#ffffff" stroke-width="2.5" paint-order="stroke" stroke-linejoin="round">(HTTPS/8444)</text>
<path d="M 671 213 L 681 213 L 681 214 L 715 214 L 715 238.5 L 1519 238.5 L 1519 284.8333333333333 L 1557 284.83333333333337" fill="none" stroke="#5a6675" stroke-width="1.3" marker-end="url(#arr)"/>
<text x="1464" y="203" font-size="11.5" text-anchor="middle" fill="#3a4553" font-style="italic" stroke="#ffffff" stroke-width="2.5" paint-order="stroke" stroke-linejoin="round">Read/write</text>
<text x="1464" y="217.5" font-size="11.5" text-anchor="middle" fill="#3a4553" font-style="italic" stroke="#ffffff" stroke-width="2.5" paint-order="stroke" stroke-linejoin="round">billing data</text>
<text x="1464" y="232" font-size="9" text-anchor="middle" fill="#79828f" stroke="#ffffff" stroke-width="2.5" paint-order="stroke" stroke-linejoin="round">(TCP/5432)</text>
<path d="M 681 297.5 L 1557 297.5" fill="none" stroke="#5a6675" stroke-width="1.3" marker-end="url(#arr)"/>
<text x="1464" y="313" font-size="11.5" text-anchor="middle" fill="#3a4553" font-style="italic" stroke="#ffffff" stroke-width="2.5" paint-order="stroke" stroke-linejoin="round">Read/write</text>
<text x="1464" y="327.5" font-size="11.5" text-anchor="middle" fill="#3a4553" font-style="italic" stroke="#ffffff" stroke-width="2.5" paint-order="stroke" stroke-linejoin="round">customer data</text>
<text x="1464" y="342" font-size="9" text-anchor="middle" fill="#79828f" stroke="#ffffff" stroke-width="2.5" paint-order="stroke" stroke-linejoin="round">(TCP/5432)</text>
<path d="M 671 194 L 839 194" fill="none" stroke="#5a6675" stroke-width="1.3" marker-end="url(#arr)"/>
<text x="777" y="158.5" font-size="11.5" text-anchor="middle" fill="#3a4553" font-style="italic" stroke="#ffffff" stroke-width="2.5" paint-order="stroke" stroke-linejoin="round">Authenticate</text>
<text x="777" y="173" font-size="11.5" text-anchor="middle" fill="#3a4553" font-style="italic" stroke="#ffffff" stroke-width="2.5" paint-order="stroke" stroke-linejoin="round">API calls</text>
<text x="777" y="187.5" font-size="9" text-anchor="middle" fill="#79828f" stroke="#ffffff" stroke-width="2.5" paint-order="stroke" stroke-linejoin="round">(HTTPS/8443)</text>
<path d="M 947 194 L 1039 194" fill="none" stroke="#5a6675" stroke-width="1.3" marker-end="url(#arr)"/>
<text x="993" y="173" font-size="11.5" text-anchor="middle" fill="#3a4553" font-style="italic" stroke="#ffffff" stroke-width="2.5" paint-order="stroke" stroke-linejoin="round">Forward</text>
<text x="993" y="187.5" font-size="9" text-anchor="middle" fill="#79828f" stroke="#ffffff" stroke-width="2.5" paint-order="stroke" stroke-linejoin="round">(HTTP/80)</text>
<path d="M 1147 194 L 1277 194" fill="none" stroke="#5a6675" stroke-width="1.3" marker-end="url(#arr)"/>
<text x="1212" y="173" font-size="11.5" text-anchor="middle" fill="#3a4553" font-style="italic" stroke="#ffffff" stroke-width="2.5" paint-order="stroke" stroke-linejoin="round">Verify tokens</text>
<text x="1212" y="187.5" font-size="9" text-anchor="middle" fill="#79828f" stroke="#ffffff" stroke-width="2.5" paint-order="stroke" stroke-linejoin="round">(LDAPS/636)</text>
<path d="M 671 203.5 L 681 203.5 L 681 204 L 725 204 L 725 227.5 L 1409 227.5 L 1409 49 L 231 49 L 231 187.66666666666669 L 269 187.66666666666669" fill="none" stroke="#5a6675" stroke-width="1.3" marker-end="url(#arr)"/>
<text x="470" y="64.5" font-size="11.5" text-anchor="middle" fill="#3a4553" font-style="italic" stroke="#ffffff" stroke-width="2.5" paint-order="stroke" stroke-linejoin="round">Drop invoices</text>
<text x="470" y="79" font-size="11.5" text-anchor="middle" fill="#3a4553" font-style="italic" stroke="#ffffff" stroke-width="2.5" paint-order="stroke" stroke-linejoin="round">to transmit</text>
<text x="470" y="93.5" font-size="9" text-anchor="middle" fill="#79828f" stroke="#ffffff" stroke-width="2.5" paint-order="stroke" stroke-linejoin="round">(SFTP/22)</text>
<path d="M 377 187.66666666666669 L 415 187.66666666666669 L 415 108 L 1404 108 A 5 5 0 0 1 1414 108 L 2031 108" fill="none" stroke="#5a6675" stroke-width="1.3" marker-end="url(#arr)"/>
<text x="1983" y="123.5" font-size="11.5" text-anchor="middle" fill="#3a4553" font-style="italic" stroke="#ffffff" stroke-width="2.5" paint-order="stroke" stroke-linejoin="round">Partner</text>
<text x="1983" y="138" font-size="11.5" text-anchor="middle" fill="#3a4553" font-style="italic" stroke="#ffffff" stroke-width="2.5" paint-order="stroke" stroke-linejoin="round">transfers</text>
<text x="1983" y="152.5" font-size="9" text-anchor="middle" fill="#79828f" stroke="#ffffff" stroke-width="2.5" paint-order="stroke" stroke-linejoin="round">(AS4/443)</text>
<path d="M 1674 272.1666666666667 L 1804 272.1666666666667" fill="none" stroke="#5a6675" stroke-width="1.3" marker-end="url(#arr)"/>
<text x="1739" y="287.6666666666667" font-size="11.5" text-anchor="middle" fill="#3a4553" font-style="italic" stroke="#ffffff" stroke-width="2.5" paint-order="stroke" stroke-linejoin="round">Daily backups</text>
<text x="1739" y="302.1666666666667" font-size="9" text-anchor="middle" fill="#79828f" stroke="#ffffff" stroke-width="2.5" paint-order="stroke" stroke-linejoin="round">(TCP/9092)</text>
<line x1="20" y1="376" x2="2129" y2="376" stroke="#e6e9ee" stroke-width="1"/>
<text x="20" y="398" font-size="11" font-weight="bold" fill="#3a4553">LEGEND</text>
<rect x="150" y="388" width="26" height="14" rx="3" fill="#f3f5f6" stroke="#7c8794"/>
<text x="182" y="399" font-size="10" fill="#17202c">Site / data center</text>
<rect x="308" y="388" width="26" height="14" rx="3" fill="#eaf5ef" stroke="#1a8f66" stroke-dasharray="5 3"/>
<text x="340" y="399" font-size="10" fill="#17202c">Network zone</text>
<rect x="435" y="388" width="26" height="14" rx="3" fill="#ffffff" stroke="#48546a"/>
<text x="467" y="399" font-size="10" fill="#17202c">Server / VM</text>
<rect x="557" y="388" width="26" height="14" rx="3" fill="#fdf4e3" stroke="#c88a2e"/>
<text x="589" y="399" font-size="10" fill="#17202c">Deployed application</text>
<rect x="725" y="388" width="26" height="14" rx="3" fill="#f5e6dd" stroke="#b85a30"/>
<text x="757" y="399" font-size="10" fill="#17202c">Gateway / reverse proxy</text>
<rect x="909" y="388" width="26" height="14" rx="3" fill="#fdefe3" stroke="#d1600f"/>
<text x="941" y="399" font-size="10" fill="#17202c">Auth middleware</text>
<rect x="1051" y="388" width="26" height="14" rx="3" fill="#e0f0f0" stroke="#3a8f8f"/>
<text x="1083" y="399" font-size="10" fill="#17202c">Identity provider (IdP)</text>
<circle cx="1248" cy="391" r="3" fill="none" stroke="#1f5e91" stroke-width="1.2"/>
<path d="M 1243 401 q 5 -7 10 0" fill="none" stroke="#1f5e91" stroke-width="1.2"/>
<text x="1267" y="399" font-size="10" fill="#17202c">User / consumer</text>
<rect x="1377" y="388" width="26" height="14" rx="3" fill="#f4eff8" stroke="#8659a6" stroke-dasharray="5 3"/>
<text x="1409" y="399" font-size="10" fill="#17202c">External system</text>
<line x1="150" y1="418" x2="176" y2="418" stroke="#5a6675" stroke-width="1.3" marker-end="url(#arr)"/>
<text x="182" y="422" font-size="10" fill="#17202c">Technical flow (protocol, port)</text>
<text x="150" y="446" font-size="10" fill="#17202c" font-style="italic">Inter-zone flows filtered by firewall (flow matrix attached to the architecture dossier)</text>
</svg>
