<svg xmlns="http://www.w3.org/2000/svg" viewBox="0 0 327 906" font-family="Helvetica,Arial,sans-serif">
<defs><marker id="arr" viewBox="0 0 10 10" refX="9" refY="5" markerWidth="7" markerHeight="7" orient="auto-start-reverse">
<path d="M0,0 L10,5 L0,10 z" fill="#444444"/></marker></defs>
<rect width="327" height="906" fill="white"/>
<rect x="12" y="45" width="212" height="562" rx="6" fill="#f5f5f4" stroke="#8a8a85" stroke-width="1.4"/>
<text x="22" y="63" font-size="12" font-weight="bold" fill="#333">Cloud host</text>
<rect x="36" y="80" width="164" height="93" rx="6" fill="#ecf3ec" stroke="#6d9a6d" stroke-width="1.2" stroke-dasharray="5 3"/>
<text x="46" y="98" font-size="12" font-weight="bold" fill="#333">Public zone</text>
<rect x="24" y="266" width="188" height="329" rx="6" fill="#ecf3ec" stroke="#6d9a6d" stroke-width="1.2" stroke-dasharray="5 3"/>
<text x="34" y="284" font-size="12" font-weight="bold" fill="#333">Private zone</text>
<rect x="36" y="301" width="164" height="88" rx="6" fill="#ffffff" stroke="#55606b" stroke-width="1.5"/>
<text x="46" y="319" font-size="12" font-weight="bold" fill="#333">Web VM</text>
<rect x="36" y="482" width="164" height="101" rx="6" fill="#ffffff" stroke="#55606b" stroke-width="1.5"/>
<text x="46" y="500" font-size="12" font-weight="bold" fill="#333">Database</text>
<text x="46" y="513" font-size="12" font-weight="bold" fill="#333">VM</text>
<rect x="48" y="110" width="140" height="51" rx="4" fill="#ffffff" stroke="#55606b" stroke-width="1.5"/>
<text x="118" y="132.75" font-size="11.5" text-anchor="middle" fill="#222233">Load</text>
<text x="118" y="146.25" font-size="11.5" text-anchor="middle" fill="#222233">balancer</text>
<rect x="48" y="331" width="140" height="46" rx="4" fill="#fff7e6" stroke="#b08d2a" stroke-width="1.2"/>
<text x="118" y="358" font-size="11.5" text-anchor="middle" fill="#222233">CMS</text>
<rect x="48" y="525" width="140" height="46" rx="4" fill="#fff7e6" stroke="#b08d2a" stroke-width="1.2"/>
<text x="118" y="552" font-size="11.5" text-anchor="middle" fill="#222233">MySQL</text>
<rect x="170" y="651" width="140" height="51" rx="4" fill="#f0eef5" stroke="#9187b3" stroke-width="1.2" stroke-dasharray="5 3"/>
<text x="240" y="673.75" font-size="11.5" text-anchor="middle" fill="#222233">Internet</text>
<text x="240" y="687.25" font-size="11.5" text-anchor="middle" fill="#222233">visitors</text>
<path d="M 240 651 L 240 30 L 118 30 L 118 110" fill="none" stroke="#444444" stroke-width="1.3" marker-end="url(#arr)"/>
<text x="279.5" y="51.5" font-size="10.5" text-anchor="middle" fill="#333" font-style="italic" stroke="white" stroke-width="2.5" paint-order="stroke" stroke-linejoin="round">Site access</text>
<text x="279.5" y="65" font-size="9" text-anchor="middle" fill="#777" stroke="white" stroke-width="2.5" paint-order="stroke" stroke-linejoin="round">(HTTPS/443)</text>
<path d="M 118 161 L 118 331" fill="none" stroke="#444444" stroke-width="1.3" marker-end="url(#arr)"/>
<text x="85" y="209.5" font-size="10.5" text-anchor="middle" fill="#333" font-style="italic" stroke="white" stroke-width="2.5" paint-order="stroke" stroke-linejoin="round">Balanced</text>
<text x="85" y="223" font-size="10.5" text-anchor="middle" fill="#333" font-style="italic" stroke="white" stroke-width="2.5" paint-order="stroke" stroke-linejoin="round">traffic</text>
<text x="85" y="236.5" font-size="9" text-anchor="middle" fill="#777" stroke="white" stroke-width="2.5" paint-order="stroke" stroke-linejoin="round">(HTTP/8080)</text>
<path d="M 118 377 L 118 525" fill="none" stroke="#444444" stroke-width="1.3" marker-end="url(#arr)"/>
<text x="83.5" y="425.5" font-size="10.5" text-anchor="middle" fill="#333" font-style="italic" stroke="white" stroke-width="2.5" paint-order="stroke" stroke-linejoin="round">Read/write</text>
<text x="83.5" y="439" font-size="10.5" text-anchor="middle" fill="#333" font-style="italic" stroke="white" stroke-width="2.5" paint-order="stroke" stroke-linejoin="round">content</text>
<text x="83.5" y="452.5" font-size="9" text-anchor="middle" fill="#777" stroke="white" stroke-width="2.5" paint-order="stroke" stroke-linejoin="round">(TCP/3306)</text>
<line x1="20" y1="724" x2="307" y2="724" stroke="#ddd" stroke-width="1"/>
<text x="20" y="746" font-size="11" font-weight="bold" fill="#555">LEGEND</text>
<rect x="150" y="736" width="26" height="14" rx="3" fill="#f5f5f4" stroke="#8a8a85"/>
<text x="182" y="747" font-size="10" fill="#444">Site / data center</text>
<rect x="150" y="758" width="26" height="14" rx="3" fill="#ecf3ec" stroke="#6d9a6d" stroke-dasharray="5 3"/>
<text x="182" y="769" font-size="10" fill="#444">Network zone</text>
<rect x="150" y="780" width="26" height="14" rx="3" fill="#ffffff" stroke="#55606b"/>
<text x="182" y="791" font-size="10" fill="#444">Server / VM</text>
<rect x="150" y="802" width="26" height="14" rx="3" fill="#fff7e6" stroke="#b08d2a"/>
<text x="182" y="813" font-size="10" fill="#444">Deployed application</text>
<rect x="150" y="824" width="26" height="14" rx="3" fill="#f0eef5" stroke="#9187b3" stroke-dasharray="5 3"/>
<text x="182" y="835" font-size="10" fill="#444">External system</text>
<line x1="150" y1="876" x2="176" y2="876" stroke="#444444" stroke-width="1.3" marker-end="url(#arr)"/>
<text x="182" y="880" font-size="10" fill="#444">Technical flow (protocol, port)</text>
</svg>
