<svg xmlns="http://www.w3.org/2000/svg" viewBox="0 0 461 1320" font-family="Helvetica,Arial,sans-serif">
<defs><marker id="arr" viewBox="0 0 10 10" refX="9" refY="5" markerWidth="7" markerHeight="7" orient="auto-start-reverse">
<path d="M0,0 L10,5 L0,10 z" fill="#444444"/></marker></defs>
<rect width="461" height="1320" fill="white"/>
<rect x="10" y="169" width="441" height="779" rx="6" fill="#f5f5f4" stroke="#8a8a85" stroke-width="1.4"/>
<text x="20" y="187" font-size="12" font-weight="bold" fill="#333">Main data center</text>
<rect x="128.33333333333334" y="222" width="284" height="139" rx="6" fill="#ecf3ec" stroke="#6d9a6d" stroke-width="1.2" stroke-dasharray="5 3"/>
<text x="138.33333333333334" y="240" font-size="12" font-weight="bold" fill="#333">DMZ</text>
<rect x="270.33333333333337" y="255" width="132" height="91" rx="6" fill="#ffffff" stroke="#55606b" stroke-width="1.5"/>
<text x="280.33333333333337" y="273" font-size="12" font-weight="bold" fill="#333">Reverse proxy</text>
<text x="280.33333333333337" y="286" font-size="12" font-weight="bold" fill="#333">(HA pair)</text>
<rect x="127" y="454" width="304" height="126" rx="6" fill="#ecf3ec" stroke="#6d9a6d" stroke-width="1.2" stroke-dasharray="5 3"/>
<text x="137" y="472" font-size="12" font-weight="bold" fill="#333">Application zone</text>
<rect x="137" y="487" width="132" height="78" rx="6" fill="#ffffff" stroke="#55606b" stroke-width="1.5"/>
<text x="147" y="505" font-size="12" font-weight="bold" fill="#333">Billing VM</text>
<rect x="289" y="487" width="132" height="78" rx="6" fill="#ffffff" stroke="#55606b" stroke-width="1.5"/>
<text x="299" y="505" font-size="12" font-weight="bold" fill="#333">CRM VM</text>
<rect x="211.33333333333334" y="673" width="201" height="265" rx="6" fill="#ecf3ec" stroke="#6d9a6d" stroke-width="1.2" stroke-dasharray="5 3"/>
<text x="221.33333333333334" y="691" font-size="12" font-weight="bold" fill="#333">Data zone</text>
<rect x="270.33333333333337" y="706" width="132" height="91" rx="6" fill="#ffffff" stroke="#55606b" stroke-width="1.5"/>
<text x="280.33333333333337" y="724" font-size="12" font-weight="bold" fill="#333">Database</text>
<text x="280.33333333333337" y="737" font-size="12" font-weight="bold" fill="#333">server</text>
<rect x="280.33333333333337" y="296" width="112" height="40" rx="4" fill="#fff7e6" stroke="#b08d2a" stroke-width="1.2"/>
<text x="336.33333333333337" y="320" font-size="11.5" text-anchor="middle" fill="#222233">WAF</text>
<rect x="138.33333333333334" y="276.5" width="112" height="48" rx="4" fill="#ffffff" stroke="#55606b" stroke-width="1.5"/>
<text x="194.33333333333334" y="297.75" font-size="11.5" text-anchor="middle" fill="#222233">Transfer</text>
<text x="194.33333333333334" y="311.25" font-size="11.5" text-anchor="middle" fill="#222233">gateway</text>
<rect x="147" y="515" width="112" height="40" rx="4" fill="#fff7e6" stroke="#b08d2a" stroke-width="1.2"/>
<text x="203" y="539" font-size="11.5" text-anchor="middle" fill="#222233">Billing</text>
<rect x="299" y="515" width="112" height="40" rx="4" fill="#fff7e6" stroke="#b08d2a" stroke-width="1.2"/>
<text x="355" y="539" font-size="11.5" text-anchor="middle" fill="#222233">CRM</text>
<rect x="280.33333333333337" y="747" width="112" height="40" rx="4" fill="#fff7e6" stroke="#b08d2a" stroke-width="1.2"/>
<text x="336.33333333333337" y="771" font-size="11.5" text-anchor="middle" fill="#222233">PostgreSQL</text>
<rect x="224.33333333333334" y="880" width="112" height="48" rx="4" fill="#ffffff" stroke="#55606b" stroke-width="1.5"/>
<text x="280.33333333333337" y="901.25" font-size="11.5" text-anchor="middle" fill="#222233">Backup</text>
<text x="280.33333333333337" y="914.75" font-size="11.5" text-anchor="middle" fill="#222233">server</text>
<circle cx="336" cy="32" r="7" fill="none" stroke="#445566" stroke-width="1.5"/>
<path d="M 325 54 q 11 -19 22 0" fill="none" stroke="#445566" stroke-width="1.5"/>
<text x="336" y="66" font-size="10" text-anchor="middle" fill="#223344">User</text>
<text x="336" y="77" font-size="10" text-anchor="middle" fill="#223344">workstations</text>
<rect x="60" y="1028" width="112" height="48" rx="4" fill="#f0eef5" stroke="#9187b3" stroke-width="1.2" stroke-dasharray="5 3"/>
<text x="116" y="1049.25" font-size="11.5" text-anchor="middle" fill="#222233">Partner EDI</text>
<text x="116" y="1062.75" font-size="11.5" text-anchor="middle" fill="#222233">platform</text>
<path d="M 336 89 L 336.33333333333337 164 L 336.33333333333337 296" fill="none" stroke="#444444" stroke-width="1.3" marker-end="url(#arr)"/>
<text x="286.5" y="116.5" font-size="10.5" text-anchor="middle" fill="#333" font-style="italic" stroke="white" stroke-width="2.5" paint-order="stroke" stroke-linejoin="round">Web application</text>
<text x="286.5" y="130" font-size="10.5" text-anchor="middle" fill="#333" font-style="italic" stroke="white" stroke-width="2.5" paint-order="stroke" stroke-linejoin="round">access</text>
<text x="286.5" y="143.5" font-size="9" text-anchor="middle" fill="#777" stroke="white" stroke-width="2.5" paint-order="stroke" stroke-linejoin="round">(HTTPS/443)</text>
<path d="M 317.6666666666667 336 L 317.6666666666667 439 L 203.00000000000003 439 L 203.00000000000003 515" fill="none" stroke="#444444" stroke-width="1.3" marker-end="url(#arr)"/>
<text x="265.1666666666667" y="397.5" font-size="10.5" text-anchor="middle" fill="#333" font-style="italic" stroke="white" stroke-width="2.5" paint-order="stroke" stroke-linejoin="round">Filtered billing</text>
<text x="265.1666666666667" y="411" font-size="10.5" text-anchor="middle" fill="#333" font-style="italic" stroke="white" stroke-width="2.5" paint-order="stroke" stroke-linejoin="round">traffic</text>
<text x="265.1666666666667" y="424.5" font-size="9" text-anchor="middle" fill="#777" stroke="white" stroke-width="2.5" paint-order="stroke" stroke-linejoin="round">(HTTPS/8443)</text>
<path d="M 355 336 L 355 515" fill="none" stroke="#444444" stroke-width="1.3" marker-end="url(#arr)"/>
<text x="396.5" y="397.5" font-size="10.5" text-anchor="middle" fill="#333" font-style="italic" stroke="white" stroke-width="2.5" paint-order="stroke" stroke-linejoin="round">Filtered CRM</text>
<text x="396.5" y="411" font-size="10.5" text-anchor="middle" fill="#333" font-style="italic" stroke="white" stroke-width="2.5" paint-order="stroke" stroke-linejoin="round">traffic</text>
<text x="396.5" y="424.5" font-size="9" text-anchor="middle" fill="#777" stroke="white" stroke-width="2.5" paint-order="stroke" stroke-linejoin="round">(HTTPS/8444)</text>
<path d="M 221.66666666666666 555 L 221.66666666666666 658 L 317.6666666666667 658 L 317.6666666666667 747" fill="none" stroke="#444444" stroke-width="1.3" marker-end="url(#arr)"/>
<text x="181.16666666666666" y="616.5" font-size="10.5" text-anchor="middle" fill="#333" font-style="italic" stroke="white" stroke-width="2.5" paint-order="stroke" stroke-linejoin="round">Read/write</text>
<text x="181.16666666666666" y="630" font-size="10.5" text-anchor="middle" fill="#333" font-style="italic" stroke="white" stroke-width="2.5" paint-order="stroke" stroke-linejoin="round">billing data</text>
<text x="181.16666666666666" y="643.5" font-size="9" text-anchor="middle" fill="#777" stroke="white" stroke-width="2.5" paint-order="stroke" stroke-linejoin="round">(TCP/5432)</text>
<path d="M 355 555 L 355 747" fill="none" stroke="#444444" stroke-width="1.3" marker-end="url(#arr)"/>
<text x="399.5" y="616.5" font-size="10.5" text-anchor="middle" fill="#333" font-style="italic" stroke="white" stroke-width="2.5" paint-order="stroke" stroke-linejoin="round">Read/write</text>
<text x="399.5" y="630" font-size="10.5" text-anchor="middle" fill="#333" font-style="italic" stroke="white" stroke-width="2.5" paint-order="stroke" stroke-linejoin="round">customer data</text>
<text x="399.5" y="643.5" font-size="9" text-anchor="middle" fill="#777" stroke="white" stroke-width="2.5" paint-order="stroke" stroke-linejoin="round">(TCP/5432)</text>
<path d="M 184.33333333333331 555 L 184.33333333333331 595 L 121 595 A 5 5 0 0 0 111 595 L 105 595 L 105 207 L 194.33333333333334 207 L 194.33333333333334 276.5" fill="none" stroke="#444444" stroke-width="1.3" marker-end="url(#arr)"/>
<text x="61.5" y="397.5" font-size="10.5" text-anchor="middle" fill="#333" font-style="italic" stroke="white" stroke-width="2.5" paint-order="stroke" stroke-linejoin="round">Drop invoices</text>
<text x="61.5" y="411" font-size="10.5" text-anchor="middle" fill="#333" font-style="italic" stroke="white" stroke-width="2.5" paint-order="stroke" stroke-linejoin="round">to transmit</text>
<text x="61.5" y="424.5" font-size="9" text-anchor="middle" fill="#777" stroke="white" stroke-width="2.5" paint-order="stroke" stroke-linejoin="round">(SFTP/22)</text>
<path d="M 194.33333333333334 324.5 L 194.33333333333334 376 L 116 376 L 116 1028" fill="none" stroke="#444444" stroke-width="1.3" marker-end="url(#arr)"/>
<text x="84.5" y="980.5" font-size="10.5" text-anchor="middle" fill="#333" font-style="italic" stroke="white" stroke-width="2.5" paint-order="stroke" stroke-linejoin="round">Partner</text>
<text x="84.5" y="994" font-size="10.5" text-anchor="middle" fill="#333" font-style="italic" stroke="white" stroke-width="2.5" paint-order="stroke" stroke-linejoin="round">transfers</text>
<text x="84.5" y="1007.5" font-size="9" text-anchor="middle" fill="#777" stroke="white" stroke-width="2.5" paint-order="stroke" stroke-linejoin="round">(AS4/443)</text>
<path d="M 280.33333333333337 797 L 280.33333333333337 880" fill="none" stroke="#444444" stroke-width="1.3" marker-end="url(#arr)"/>
<text x="249.83333333333334" y="828.5" font-size="10.5" text-anchor="middle" fill="#333" font-style="italic" stroke="white" stroke-width="2.5" paint-order="stroke" stroke-linejoin="round">Daily</text>
<text x="249.83333333333334" y="842" font-size="10.5" text-anchor="middle" fill="#333" font-style="italic" stroke="white" stroke-width="2.5" paint-order="stroke" stroke-linejoin="round">backups</text>
<text x="249.83333333333334" y="855.5" font-size="9" text-anchor="middle" fill="#777" stroke="white" stroke-width="2.5" paint-order="stroke" stroke-linejoin="round">(TCP/9092)</text>
<line x1="20" y1="1096" x2="441" y2="1096" stroke="#ddd" stroke-width="1"/>
<text x="20" y="1118" font-size="11" font-weight="bold" fill="#555">LEGEND</text>
<rect x="150" y="1108" width="26" height="14" rx="3" fill="#f5f5f4" stroke="#8a8a85"/>
<text x="182" y="1119" font-size="10" fill="#444">Site / data center</text>
<rect x="150" y="1130" width="26" height="14" rx="3" fill="#ecf3ec" stroke="#6d9a6d" stroke-dasharray="5 3"/>
<text x="182" y="1141" font-size="10" fill="#444">Network zone</text>
<rect x="150" y="1152" width="26" height="14" rx="3" fill="#ffffff" stroke="#55606b"/>
<text x="182" y="1163" font-size="10" fill="#444">Server / VM</text>
<rect x="150" y="1174" width="26" height="14" rx="3" fill="#fff7e6" stroke="#b08d2a"/>
<text x="182" y="1185" font-size="10" fill="#444">Deployed application</text>
<circle cx="163" cy="1199" r="3" fill="none" stroke="#445566" stroke-width="1.2"/>
<path d="M 158 1209 q 5 -7 10 0" fill="none" stroke="#445566" stroke-width="1.2"/>
<text x="182" y="1207" font-size="10" fill="#444">User / consumer</text>
<rect x="150" y="1218" width="26" height="14" rx="3" fill="#f0eef5" stroke="#9187b3" stroke-dasharray="5 3"/>
<text x="182" y="1229" font-size="10" fill="#444">External system</text>
<line x1="150" y1="1270" x2="176" y2="1270" stroke="#444444" stroke-width="1.3" marker-end="url(#arr)"/>
<text x="182" y="1274" font-size="10" fill="#444">Technical flow (protocol, port)</text>
<text x="150" y="1298" font-size="10" fill="#444" font-style="italic">Inter-zone flows filtered by firewall (flow matrix attached to the architecture dossier)</text>
</svg>
