<svg xmlns="http://www.w3.org/2000/svg" viewBox="0 0 519 1667" font-family="Helvetica,Arial,sans-serif">
<defs><marker id="arr" viewBox="0 0 10 10" refX="9" refY="5" markerWidth="7" markerHeight="7" orient="auto-start-reverse">
<path d="M0,0 L10,5 L0,10 z" fill="#5a6675"/></marker></defs>
<rect width="519" height="1667" fill="#ffffff"/>
<rect x="10" y="169" width="499" height="1125" rx="6" fill="#f3f5f6" stroke="#7c8794" stroke-width="1.4"/>
<text x="20" y="187" font-size="13" font-weight="bold" fill="#17202c">Main data center</text>
<rect x="189" y="221" width="272" height="134" rx="6" fill="#eaf5ef" stroke="#1a8f66" stroke-width="1.2" stroke-dasharray="5 3"/>
<text x="199" y="239" font-size="13" font-weight="bold" fill="#17202c">DMZ</text>
<rect x="326" y="253" width="126" height="88" rx="6" fill="#ffffff" stroke="#48546a" stroke-width="1.5"/>
<text x="336" y="271" font-size="13" font-weight="bold" fill="#17202c">Reverse proxy</text>
<text x="336" y="285" font-size="13" font-weight="bold" fill="#17202c">(HA pair)</text>
<rect x="133" y="450" width="346" height="479" rx="6" fill="#eaf5ef" stroke="#1a8f66" stroke-width="1.2" stroke-dasharray="5 3"/>
<text x="143" y="468" font-size="13" font-weight="bold" fill="#17202c">Application zone</text>
<rect x="198" y="482" width="126" height="74" rx="6" fill="#ffffff" stroke="#48546a" stroke-width="1.5"/>
<text x="208" y="500" font-size="13" font-weight="bold" fill="#17202c">Billing VM</text>
<rect x="344" y="482" width="126" height="74" rx="6" fill="#ffffff" stroke="#48546a" stroke-width="1.5"/>
<text x="354" y="500" font-size="13" font-weight="bold" fill="#17202c">CRM VM</text>
<rect x="267" y="1024" width="194" height="261" rx="6" fill="#eaf5ef" stroke="#1a8f66" stroke-width="1.2" stroke-dasharray="5 3"/>
<text x="277" y="1042" font-size="13" font-weight="bold" fill="#17202c">Data zone</text>
<rect x="326" y="1056" width="126" height="88" rx="6" fill="#ffffff" stroke="#48546a" stroke-width="1.5"/>
<text x="336" y="1074" font-size="13" font-weight="bold" fill="#17202c">Database</text>
<text x="336" y="1088" font-size="13" font-weight="bold" fill="#17202c">server</text>
<rect x="335" y="294" width="108" height="38" rx="4" fill="#fdf4e3" stroke="#c88a2e" stroke-width="1.2"/>
<text x="389" y="317" font-size="12.5" text-anchor="middle" fill="#17202c">WAF</text>
<rect x="198" y="273.5" width="108" height="47" rx="4" fill="#ffffff" stroke="#48546a" stroke-width="1.5"/>
<text x="252" y="293.75" font-size="12.5" text-anchor="middle" fill="#17202c">Transfer</text>
<text x="252" y="308.25" font-size="12.5" text-anchor="middle" fill="#17202c">gateway</text>
<rect x="180" y="656" width="108" height="38" rx="4" fill="#f5e6dd" stroke="#b85a30" stroke-width="1.3"/>
<path d="M 188 664 L 202 664 Q 204 669 195 676 Q 186 669 188 664" fill="none" stroke="#b85a30" stroke-width="1.3"/>
<text x="244" y="679" font-size="12.5" text-anchor="middle" fill="#17202c">Gateway</text>
<rect x="180" y="764.5" width="108" height="47" rx="4" fill="#fdefe3" stroke="#d1600f" stroke-width="1.3"/>
<rect x="186" y="770.5" width="18" height="14" rx="3" fill="none" stroke="#d1600f" stroke-width="1.3"/>
<path d="M 190 773.5 v -4 a 5 5 0 0 1 10 0 v 4" fill="none" stroke="#d1600f" stroke-width="1.3"/>
<circle cx="195" cy="780.5" r="2.5" fill="#d1600f"/>
<text x="244" y="784.75" font-size="12.5" text-anchor="middle" fill="#17202c">OAuth2</text>
<text x="244" y="799.25" font-size="12.5" text-anchor="middle" fill="#17202c">proxy</text>
<rect x="180" y="882" width="108" height="38" rx="4" fill="#e0f0f0" stroke="#3a8f8f" stroke-width="1.3"/>
<text x="234" y="905" font-size="12.5" text-anchor="middle" fill="#17202c">LDAP / IdP</text>
<rect x="207" y="509" width="108" height="38" rx="4" fill="#fdf4e3" stroke="#c88a2e" stroke-width="1.2"/>
<text x="261" y="532" font-size="12.5" text-anchor="middle" fill="#17202c">Billing</text>
<rect x="353" y="509" width="108" height="38" rx="4" fill="#fdf4e3" stroke="#c88a2e" stroke-width="1.2"/>
<text x="407" y="532" font-size="12.5" text-anchor="middle" fill="#17202c">CRM</text>
<rect x="335" y="1097" width="108" height="38" rx="4" fill="#fdf4e3" stroke="#c88a2e" stroke-width="1.2"/>
<text x="389" y="1120" font-size="12.5" text-anchor="middle" fill="#17202c">PostgreSQL</text>
<rect x="281" y="1229" width="108" height="47" rx="4" fill="#ffffff" stroke="#48546a" stroke-width="1.5"/>
<text x="335" y="1249.25" font-size="12.5" text-anchor="middle" fill="#17202c">Backup</text>
<text x="335" y="1263.75" font-size="12.5" text-anchor="middle" fill="#17202c">server</text>
<circle cx="389" cy="32" r="7" fill="none" stroke="#1f5e91" stroke-width="1.5"/>
<path d="M 378 54 q 11 -19 22 0" fill="none" stroke="#1f5e91" stroke-width="1.5"/>
<text x="389" y="66" font-size="11" text-anchor="middle" fill="#20364c">User</text>
<text x="389" y="77" font-size="11" text-anchor="middle" fill="#20364c">workstations</text>
<rect x="68" y="1376" width="108" height="47" rx="4" fill="#f4eff8" stroke="#8659a6" stroke-width="1.2" stroke-dasharray="5 3"/>
<text x="122" y="1396.25" font-size="12.5" text-anchor="middle" fill="#17202c">Partner EDI</text>
<text x="122" y="1410.75" font-size="12.5" text-anchor="middle" fill="#17202c">platform</text>
<path d="M 389 87 L 389 294" fill="none" stroke="#5a6675" stroke-width="1.3" marker-end="url(#arr)"/>
<text x="335.5" y="115.5" font-size="11.5" text-anchor="middle" fill="#3a4553" font-style="italic" stroke="#ffffff" stroke-width="2.5" paint-order="stroke" stroke-linejoin="round">Web application</text>
<text x="335.5" y="130" font-size="11.5" text-anchor="middle" fill="#3a4553" font-style="italic" stroke="#ffffff" stroke-width="2.5" paint-order="stroke" stroke-linejoin="round">access</text>
<text x="335.5" y="144.5" font-size="9" text-anchor="middle" fill="#79828f" stroke="#ffffff" stroke-width="2.5" paint-order="stroke" stroke-linejoin="round">(HTTPS/443)</text>
<path d="M 371 332 L 371 435 L 261 435 L 261 509" fill="none" stroke="#5a6675" stroke-width="1.3" marker-end="url(#arr)"/>
<text x="314" y="392.5" font-size="11.5" text-anchor="middle" fill="#3a4553" font-style="italic" stroke="#ffffff" stroke-width="2.5" paint-order="stroke" stroke-linejoin="round">Filtered billing</text>
<text x="314" y="407" font-size="11.5" text-anchor="middle" fill="#3a4553" font-style="italic" stroke="#ffffff" stroke-width="2.5" paint-order="stroke" stroke-linejoin="round">traffic</text>
<text x="314" y="421.5" font-size="9" text-anchor="middle" fill="#79828f" stroke="#ffffff" stroke-width="2.5" paint-order="stroke" stroke-linejoin="round">(HTTPS/8443)</text>
<path d="M 407 332 L 407 509" fill="none" stroke="#5a6675" stroke-width="1.3" marker-end="url(#arr)"/>
<text x="452" y="392.5" font-size="11.5" text-anchor="middle" fill="#3a4553" font-style="italic" stroke="#ffffff" stroke-width="2.5" paint-order="stroke" stroke-linejoin="round">Filtered CRM</text>
<text x="452" y="407" font-size="11.5" text-anchor="middle" fill="#3a4553" font-style="italic" stroke="#ffffff" stroke-width="2.5" paint-order="stroke" stroke-linejoin="round">traffic</text>
<text x="452" y="421.5" font-size="9" text-anchor="middle" fill="#79828f" stroke="#ffffff" stroke-width="2.5" paint-order="stroke" stroke-linejoin="round">(HTTPS/8444)</text>
<path d="M 288 547 L 288 571 L 309 571 L 309 1009 L 371 1009 L 371 1097" fill="none" stroke="#5a6675" stroke-width="1.3" marker-end="url(#arr)"/>
<text x="265" y="966.5" font-size="11.5" text-anchor="middle" fill="#3a4553" font-style="italic" stroke="#ffffff" stroke-width="2.5" paint-order="stroke" stroke-linejoin="round">Read/write</text>
<text x="265" y="981" font-size="11.5" text-anchor="middle" fill="#3a4553" font-style="italic" stroke="#ffffff" stroke-width="2.5" paint-order="stroke" stroke-linejoin="round">billing data</text>
<text x="265" y="995.5" font-size="9" text-anchor="middle" fill="#79828f" stroke="#ffffff" stroke-width="2.5" paint-order="stroke" stroke-linejoin="round">(TCP/5432)</text>
<path d="M 407 547 L 407 1097" fill="none" stroke="#5a6675" stroke-width="1.3" marker-end="url(#arr)"/>
<text x="455" y="966.5" font-size="11.5" text-anchor="middle" fill="#3a4553" font-style="italic" stroke="#ffffff" stroke-width="2.5" paint-order="stroke" stroke-linejoin="round">Read/write</text>
<text x="455" y="981" font-size="11.5" text-anchor="middle" fill="#3a4553" font-style="italic" stroke="#ffffff" stroke-width="2.5" paint-order="stroke" stroke-linejoin="round">customer data</text>
<text x="455" y="995.5" font-size="9" text-anchor="middle" fill="#79828f" stroke="#ffffff" stroke-width="2.5" paint-order="stroke" stroke-linejoin="round">(TCP/5432)</text>
<path d="M 234 547 L 234 656" fill="none" stroke="#5a6675" stroke-width="1.3" marker-end="url(#arr)"/>
<text x="190" y="603.5" font-size="11.5" text-anchor="middle" fill="#3a4553" font-style="italic" stroke="#ffffff" stroke-width="2.5" paint-order="stroke" stroke-linejoin="round">Authenticate</text>
<text x="190" y="618" font-size="11.5" text-anchor="middle" fill="#3a4553" font-style="italic" stroke="#ffffff" stroke-width="2.5" paint-order="stroke" stroke-linejoin="round">API calls</text>
<text x="190" y="632.5" font-size="9" text-anchor="middle" fill="#79828f" stroke="#ffffff" stroke-width="2.5" paint-order="stroke" stroke-linejoin="round">(HTTPS/8443)</text>
<path d="M 234 694 L 234 764.5" fill="none" stroke="#5a6675" stroke-width="1.3" marker-end="url(#arr)"/>
<text x="206" y="726.5" font-size="11.5" text-anchor="middle" fill="#3a4553" font-style="italic" stroke="#ffffff" stroke-width="2.5" paint-order="stroke" stroke-linejoin="round">Forward</text>
<text x="206" y="741" font-size="9" text-anchor="middle" fill="#79828f" stroke="#ffffff" stroke-width="2.5" paint-order="stroke" stroke-linejoin="round">(HTTP/80)</text>
<path d="M 234 811.5 L 234 882" fill="none" stroke="#5a6675" stroke-width="1.3" marker-end="url(#arr)"/>
<text x="187" y="844" font-size="11.5" text-anchor="middle" fill="#3a4553" font-style="italic" stroke="#ffffff" stroke-width="2.5" paint-order="stroke" stroke-linejoin="round">Verify tokens</text>
<text x="187" y="858.5" font-size="9" text-anchor="middle" fill="#79828f" stroke="#ffffff" stroke-width="2.5" paint-order="stroke" stroke-linejoin="round">(LDAPS/636)</text>
<path d="M 261 547 L 261 581 L 298 581 L 298 944 L 127 944 A 5 5 0 0 0 117 944 L 111 944 L 111 206 L 252 206 L 252 273.5" fill="none" stroke="#5a6675" stroke-width="1.3" marker-end="url(#arr)"/>
<text x="64" y="392.5" font-size="11.5" text-anchor="middle" fill="#3a4553" font-style="italic" stroke="#ffffff" stroke-width="2.5" paint-order="stroke" stroke-linejoin="round">Drop invoices</text>
<text x="64" y="407" font-size="11.5" text-anchor="middle" fill="#3a4553" font-style="italic" stroke="#ffffff" stroke-width="2.5" paint-order="stroke" stroke-linejoin="round">to transmit</text>
<text x="64" y="421.5" font-size="9" text-anchor="middle" fill="#79828f" stroke="#ffffff" stroke-width="2.5" paint-order="stroke" stroke-linejoin="round">(SFTP/22)</text>
<path d="M 252 320.5 L 252 370 L 122 370 L 122 1376" fill="none" stroke="#5a6675" stroke-width="1.3" marker-end="url(#arr)"/>
<text x="88" y="1327.5" font-size="11.5" text-anchor="middle" fill="#3a4553" font-style="italic" stroke="#ffffff" stroke-width="2.5" paint-order="stroke" stroke-linejoin="round">Partner</text>
<text x="88" y="1342" font-size="11.5" text-anchor="middle" fill="#3a4553" font-style="italic" stroke="#ffffff" stroke-width="2.5" paint-order="stroke" stroke-linejoin="round">transfers</text>
<text x="88" y="1356.5" font-size="9" text-anchor="middle" fill="#79828f" stroke="#ffffff" stroke-width="2.5" paint-order="stroke" stroke-linejoin="round">(AS4/443)</text>
<path d="M 335 1144 L 335 1229" fill="none" stroke="#5a6675" stroke-width="1.3" marker-end="url(#arr)"/>
<text x="304.5" y="1176.5" font-size="11.5" text-anchor="middle" fill="#3a4553" font-style="italic" stroke="#ffffff" stroke-width="2.5" paint-order="stroke" stroke-linejoin="round">Daily</text>
<text x="304.5" y="1191" font-size="11.5" text-anchor="middle" fill="#3a4553" font-style="italic" stroke="#ffffff" stroke-width="2.5" paint-order="stroke" stroke-linejoin="round">backups</text>
<text x="304.5" y="1205.5" font-size="9" text-anchor="middle" fill="#79828f" stroke="#ffffff" stroke-width="2.5" paint-order="stroke" stroke-linejoin="round">(TCP/9092)</text>
<line x1="20" y1="1443" x2="499" y2="1443" stroke="#e6e9ee" stroke-width="1"/>
<text x="20" y="1465" font-size="11" font-weight="bold" fill="#3a4553">LEGEND</text>
<rect x="150" y="1455" width="26" height="14" rx="3" fill="#f3f5f6" stroke="#7c8794"/>
<text x="182" y="1466" font-size="10" fill="#17202c">Site / data center</text>
<rect x="150" y="1477" width="26" height="14" rx="3" fill="#eaf5ef" stroke="#1a8f66" stroke-dasharray="5 3"/>
<text x="182" y="1488" font-size="10" fill="#17202c">Network zone</text>
<rect x="277" y="1477" width="26" height="14" rx="3" fill="#ffffff" stroke="#48546a"/>
<text x="309" y="1488" font-size="10" fill="#17202c">Server / VM</text>
<rect x="150" y="1499" width="26" height="14" rx="3" fill="#fdf4e3" stroke="#c88a2e"/>
<text x="182" y="1510" font-size="10" fill="#17202c">Deployed application</text>
<rect x="150" y="1521" width="26" height="14" rx="3" fill="#f5e6dd" stroke="#b85a30"/>
<text x="182" y="1532" font-size="10" fill="#17202c">Gateway / reverse proxy</text>
<rect x="150" y="1543" width="26" height="14" rx="3" fill="#fdefe3" stroke="#d1600f"/>
<text x="182" y="1554" font-size="10" fill="#17202c">Auth middleware</text>
<rect x="292" y="1543" width="26" height="14" rx="3" fill="#e0f0f0" stroke="#3a8f8f"/>
<text x="324" y="1554" font-size="10" fill="#17202c">Identity provider (IdP)</text>
<circle cx="163" cy="1568" r="3" fill="none" stroke="#1f5e91" stroke-width="1.2"/>
<path d="M 158 1578 q 5 -7 10 0" fill="none" stroke="#1f5e91" stroke-width="1.2"/>
<text x="182" y="1576" font-size="10" fill="#17202c">User / consumer</text>
<rect x="292" y="1565" width="26" height="14" rx="3" fill="#f4eff8" stroke="#8659a6" stroke-dasharray="5 3"/>
<text x="324" y="1576" font-size="10" fill="#17202c">External system</text>
<line x1="150" y1="1617" x2="176" y2="1617" stroke="#5a6675" stroke-width="1.3" marker-end="url(#arr)"/>
<text x="182" y="1621" font-size="10" fill="#17202c">Technical flow (protocol, port)</text>
<text x="150" y="1645" font-size="10" fill="#17202c" font-style="italic">Inter-zone flows filtered by firewall (flow matrix attached to the architecture dossier)</text>
</svg>
