<svg xmlns="http://www.w3.org/2000/svg" viewBox="0 0 545 1415" font-family="Helvetica,Arial,sans-serif">
<defs><marker id="arr" viewBox="0 0 10 10" refX="9" refY="5" markerWidth="7" markerHeight="7" orient="auto-start-reverse">
<path d="M0,0 L10,5 L0,10 z" fill="#444444"/></marker></defs>
<rect width="545" height="1415" fill="white"/>
<rect x="12" y="233" width="521" height="814.5" rx="6" fill="#f5f5f4" stroke="#8a8a85" stroke-width="1.4"/>
<text x="22" y="251" font-size="12" font-weight="bold" fill="#333">Main data center</text>
<rect x="149.66666666666669" y="288" width="348" height="153" rx="6" fill="#ecf3ec" stroke="#6d9a6d" stroke-width="1.2" stroke-dasharray="5 3"/>
<text x="159.66666666666669" y="306" font-size="12" font-weight="bold" fill="#333">DMZ</text>
<rect x="321.6666666666667" y="323" width="164" height="101" rx="6" fill="#ffffff" stroke="#55606b" stroke-width="1.5"/>
<text x="331.6666666666667" y="341" font-size="12" font-weight="bold" fill="#333">Reverse proxy</text>
<text x="331.6666666666667" y="354" font-size="12" font-weight="bold" fill="#333">(HA pair)</text>
<rect x="149" y="534" width="372" height="140" rx="6" fill="#ecf3ec" stroke="#6d9a6d" stroke-width="1.2" stroke-dasharray="5 3"/>
<text x="159" y="552" font-size="12" font-weight="bold" fill="#333">Application zone</text>
<rect x="161" y="569" width="164" height="88" rx="6" fill="#ffffff" stroke="#55606b" stroke-width="1.5"/>
<text x="171" y="587" font-size="12" font-weight="bold" fill="#333">Billing VM</text>
<rect x="345" y="569" width="164" height="88" rx="6" fill="#ffffff" stroke="#55606b" stroke-width="1.5"/>
<text x="355" y="587" font-size="12" font-weight="bold" fill="#333">CRM VM</text>
<rect x="236.66666666666669" y="767" width="261" height="268.5" rx="6" fill="#ecf3ec" stroke="#6d9a6d" stroke-width="1.2" stroke-dasharray="5 3"/>
<text x="246.66666666666669" y="785" font-size="12" font-weight="bold" fill="#333">Data zone</text>
<rect x="321.6666666666667" y="802" width="164" height="101" rx="6" fill="#ffffff" stroke="#55606b" stroke-width="1.5"/>
<text x="331.6666666666667" y="820" font-size="12" font-weight="bold" fill="#333">Database</text>
<text x="331.6666666666667" y="833" font-size="12" font-weight="bold" fill="#333">server</text>
<rect x="333.6666666666667" y="366" width="140" height="46" rx="4" fill="#fff7e6" stroke="#b08d2a" stroke-width="1.2"/>
<text x="403.6666666666667" y="393" font-size="11.5" text-anchor="middle" fill="#222233">WAF</text>
<rect x="161.66666666666669" y="348" width="140" height="51" rx="4" fill="#ffffff" stroke="#55606b" stroke-width="1.5"/>
<text x="231.66666666666669" y="370.75" font-size="11.5" text-anchor="middle" fill="#222233">Transfer</text>
<text x="231.66666666666669" y="384.25" font-size="11.5" text-anchor="middle" fill="#222233">gateway</text>
<rect x="173" y="599" width="140" height="46" rx="4" fill="#fff7e6" stroke="#b08d2a" stroke-width="1.2"/>
<text x="243" y="626" font-size="11.5" text-anchor="middle" fill="#222233">Billing</text>
<rect x="357" y="599" width="140" height="46" rx="4" fill="#fff7e6" stroke="#b08d2a" stroke-width="1.2"/>
<text x="427" y="626" font-size="11.5" text-anchor="middle" fill="#222233">CRM</text>
<rect x="333.6666666666667" y="845" width="140" height="46" rx="4" fill="#fff7e6" stroke="#b08d2a" stroke-width="1.2"/>
<text x="403.6666666666667" y="872" font-size="11.5" text-anchor="middle" fill="#222233">PostgreSQL</text>
<rect x="263.6666666666667" y="972.5" width="140" height="51" rx="4" fill="#ffffff" stroke="#55606b" stroke-width="1.5"/>
<text x="333.6666666666667" y="995.25" font-size="11.5" text-anchor="middle" fill="#222233">Backup</text>
<text x="333.6666666666667" y="1008.75" font-size="11.5" text-anchor="middle" fill="#222233">server</text>
<circle cx="404" cy="40" r="7" fill="none" stroke="#445566" stroke-width="1.5"/>
<path d="M 393 62 q 11 -19 22 0" fill="none" stroke="#445566" stroke-width="1.5"/>
<text x="404" y="74" font-size="10" text-anchor="middle" fill="#223344">User</text>
<text x="404" y="85" font-size="10" text-anchor="middle" fill="#223344">workstations</text>
<rect x="68" y="1184" width="140" height="51" rx="4" fill="#f0eef5" stroke="#9187b3" stroke-width="1.2" stroke-dasharray="5 3"/>
<text x="138" y="1206.75" font-size="11.5" text-anchor="middle" fill="#222233">Partner EDI</text>
<text x="138" y="1220.25" font-size="11.5" text-anchor="middle" fill="#222233">platform</text>
<path d="M 404 97 L 403.6666666666667 228 L 403.6666666666667 366" fill="none" stroke="#444444" stroke-width="1.3" marker-end="url(#arr)"/>
<text x="353.5" y="152.5" font-size="10.5" text-anchor="middle" fill="#333" font-style="italic" stroke="white" stroke-width="2.5" paint-order="stroke" stroke-linejoin="round">Web application</text>
<text x="353.5" y="166" font-size="10.5" text-anchor="middle" fill="#333" font-style="italic" stroke="white" stroke-width="2.5" paint-order="stroke" stroke-linejoin="round">access</text>
<text x="353.5" y="179.5" font-size="9" text-anchor="middle" fill="#777" stroke="white" stroke-width="2.5" paint-order="stroke" stroke-linejoin="round">(HTTPS/443)</text>
<path d="M 380.33333333333337 412 L 380.33333333333337 519 L 243 519 L 243 599" fill="none" stroke="#444444" stroke-width="1.3" marker-end="url(#arr)"/>
<text x="327.83333333333337" y="477.5" font-size="10.5" text-anchor="middle" fill="#333" font-style="italic" stroke="white" stroke-width="2.5" paint-order="stroke" stroke-linejoin="round">Filtered billing</text>
<text x="327.83333333333337" y="491" font-size="10.5" text-anchor="middle" fill="#333" font-style="italic" stroke="white" stroke-width="2.5" paint-order="stroke" stroke-linejoin="round">traffic</text>
<text x="327.83333333333337" y="504.5" font-size="9" text-anchor="middle" fill="#777" stroke="white" stroke-width="2.5" paint-order="stroke" stroke-linejoin="round">(HTTPS/8443)</text>
<path d="M 427 412 L 427 599" fill="none" stroke="#444444" stroke-width="1.3" marker-end="url(#arr)"/>
<text x="468.5" y="477.5" font-size="10.5" text-anchor="middle" fill="#333" font-style="italic" stroke="white" stroke-width="2.5" paint-order="stroke" stroke-linejoin="round">Filtered CRM</text>
<text x="468.5" y="491" font-size="10.5" text-anchor="middle" fill="#333" font-style="italic" stroke="white" stroke-width="2.5" paint-order="stroke" stroke-linejoin="round">traffic</text>
<text x="468.5" y="504.5" font-size="9" text-anchor="middle" fill="#777" stroke="white" stroke-width="2.5" paint-order="stroke" stroke-linejoin="round">(HTTPS/8444)</text>
<path d="M 266.3333333333333 645 L 266.3333333333333 752 L 380.33333333333337 752 L 380.33333333333337 845" fill="none" stroke="#444444" stroke-width="1.3" marker-end="url(#arr)"/>
<text x="225.83333333333331" y="710.5" font-size="10.5" text-anchor="middle" fill="#333" font-style="italic" stroke="white" stroke-width="2.5" paint-order="stroke" stroke-linejoin="round">Read/write</text>
<text x="225.83333333333331" y="724" font-size="10.5" text-anchor="middle" fill="#333" font-style="italic" stroke="white" stroke-width="2.5" paint-order="stroke" stroke-linejoin="round">billing data</text>
<text x="225.83333333333331" y="737.5" font-size="9" text-anchor="middle" fill="#777" stroke="white" stroke-width="2.5" paint-order="stroke" stroke-linejoin="round">(TCP/5432)</text>
<path d="M 427 645 L 427 845" fill="none" stroke="#444444" stroke-width="1.3" marker-end="url(#arr)"/>
<text x="471.5" y="710.5" font-size="10.5" text-anchor="middle" fill="#333" font-style="italic" stroke="white" stroke-width="2.5" paint-order="stroke" stroke-linejoin="round">Read/write</text>
<text x="471.5" y="724" font-size="10.5" text-anchor="middle" fill="#333" font-style="italic" stroke="white" stroke-width="2.5" paint-order="stroke" stroke-linejoin="round">customer data</text>
<text x="471.5" y="737.5" font-size="9" text-anchor="middle" fill="#777" stroke="white" stroke-width="2.5" paint-order="stroke" stroke-linejoin="round">(TCP/5432)</text>
<path d="M 219.66666666666666 645 L 219.66666666666666 689 L 143 689 A 5 5 0 0 0 133 689 L 127 689 L 127 273 L 231.66666666666669 273 L 231.66666666666669 348" fill="none" stroke="#444444" stroke-width="1.3" marker-end="url(#arr)"/>
<text x="74.5" y="477.5" font-size="10.5" text-anchor="middle" fill="#333" font-style="italic" stroke="white" stroke-width="2.5" paint-order="stroke" stroke-linejoin="round">Drop invoices to</text>
<text x="74.5" y="491" font-size="10.5" text-anchor="middle" fill="#333" font-style="italic" stroke="white" stroke-width="2.5" paint-order="stroke" stroke-linejoin="round">transmit</text>
<text x="74.5" y="504.5" font-size="9" text-anchor="middle" fill="#777" stroke="white" stroke-width="2.5" paint-order="stroke" stroke-linejoin="round">(SFTP/22)</text>
<path d="M 231.66666666666669 399 L 231.66666666666669 456 L 138 456 L 138 1184" fill="none" stroke="#444444" stroke-width="1.3" marker-end="url(#arr)"/>
<text x="105.5" y="1108.5" font-size="10.5" text-anchor="middle" fill="#333" font-style="italic" stroke="white" stroke-width="2.5" paint-order="stroke" stroke-linejoin="round">Partner</text>
<text x="105.5" y="1122" font-size="10.5" text-anchor="middle" fill="#333" font-style="italic" stroke="white" stroke-width="2.5" paint-order="stroke" stroke-linejoin="round">transfers</text>
<text x="105.5" y="1135.5" font-size="9" text-anchor="middle" fill="#777" stroke="white" stroke-width="2.5" paint-order="stroke" stroke-linejoin="round">(AS4/443)</text>
<path d="M 333.6666666666667 903 L 333.6666666666667 972.5" fill="none" stroke="#444444" stroke-width="1.3" marker-end="url(#arr)"/>
<text x="290.1666666666667" y="934.5" font-size="10.5" text-anchor="middle" fill="#333" font-style="italic" stroke="white" stroke-width="2.5" paint-order="stroke" stroke-linejoin="round">Daily backups</text>
<text x="290.1666666666667" y="948" font-size="9" text-anchor="middle" fill="#777" stroke="white" stroke-width="2.5" paint-order="stroke" stroke-linejoin="round">(TCP/9092)</text>
<line x1="20" y1="1257" x2="525" y2="1257" stroke="#ddd" stroke-width="1"/>
<text x="20" y="1279" font-size="11" font-weight="bold" fill="#555">LEGEND</text>
<rect x="150" y="1269" width="26" height="14" rx="3" fill="#f5f5f4" stroke="#8a8a85"/>
<text x="182" y="1280" font-size="10" fill="#444">Site / data center</text>
<rect x="308" y="1269" width="26" height="14" rx="3" fill="#ecf3ec" stroke="#6d9a6d" stroke-dasharray="5 3"/>
<text x="340" y="1280" font-size="10" fill="#444">Network zone</text>
<rect x="150" y="1291" width="26" height="14" rx="3" fill="#ffffff" stroke="#55606b"/>
<text x="182" y="1302" font-size="10" fill="#444">Server / VM</text>
<rect x="272" y="1291" width="26" height="14" rx="3" fill="#fff7e6" stroke="#b08d2a"/>
<text x="304" y="1302" font-size="10" fill="#444">Deployed application</text>
<circle cx="163" cy="1316" r="3" fill="none" stroke="#445566" stroke-width="1.2"/>
<path d="M 158 1326 q 5 -7 10 0" fill="none" stroke="#445566" stroke-width="1.2"/>
<text x="182" y="1324" font-size="10" fill="#444">User / consumer</text>
<rect x="292" y="1313" width="26" height="14" rx="3" fill="#f0eef5" stroke="#9187b3" stroke-dasharray="5 3"/>
<text x="324" y="1324" font-size="10" fill="#444">External system</text>
<line x1="150" y1="1365" x2="176" y2="1365" stroke="#444444" stroke-width="1.3" marker-end="url(#arr)"/>
<text x="182" y="1369" font-size="10" fill="#444">Technical flow (protocol, port)</text>
<text x="150" y="1393" font-size="10" fill="#444" font-style="italic">Inter-zone flows filtered by firewall (flow matrix attached to the architecture dossier)</text>
</svg>
