<svg xmlns="http://www.w3.org/2000/svg" viewBox="0 0 483 1294" font-family="Helvetica,Arial,sans-serif">
<defs><marker id="arr" viewBox="0 0 10 10" refX="9" refY="5" markerWidth="7" markerHeight="7" orient="auto-start-reverse">
<path d="M0,0 L10,5 L0,10 z" fill="#444444"/></marker></defs>
<rect width="483" height="1294" fill="white"/>
<rect x="10" y="169" width="463" height="751.5" rx="6" fill="#f5f5f4" stroke="#8a8a85" stroke-width="1.4"/>
<text x="20" y="187" font-size="13" font-weight="bold" fill="#333">Main data center</text>
<rect x="153" y="221" width="272" height="134" rx="6" fill="#ecf3ec" stroke="#6d9a6d" stroke-width="1.2" stroke-dasharray="5 3"/>
<text x="163" y="239" font-size="13" font-weight="bold" fill="#333">DMZ</text>
<rect x="290" y="253" width="126" height="88" rx="6" fill="#ffffff" stroke="#55606b" stroke-width="1.5"/>
<text x="300" y="271" font-size="13" font-weight="bold" fill="#333">Reverse proxy</text>
<text x="300" y="285" font-size="13" font-weight="bold" fill="#333">(HA pair)</text>
<rect x="153" y="450" width="290" height="120" rx="6" fill="#ecf3ec" stroke="#6d9a6d" stroke-width="1.2" stroke-dasharray="5 3"/>
<text x="163" y="468" font-size="13" font-weight="bold" fill="#333">Application zone</text>
<rect x="162" y="482" width="126" height="74" rx="6" fill="#ffffff" stroke="#55606b" stroke-width="1.5"/>
<text x="172" y="500" font-size="13" font-weight="bold" fill="#333">Billing VM</text>
<rect x="308" y="482" width="126" height="74" rx="6" fill="#ffffff" stroke="#55606b" stroke-width="1.5"/>
<text x="318" y="500" font-size="13" font-weight="bold" fill="#333">CRM VM</text>
<rect x="198" y="665" width="227" height="246.5" rx="6" fill="#ecf3ec" stroke="#6d9a6d" stroke-width="1.2" stroke-dasharray="5 3"/>
<text x="208" y="683" font-size="13" font-weight="bold" fill="#333">Data zone</text>
<rect x="290" y="697" width="126" height="88" rx="6" fill="#ffffff" stroke="#55606b" stroke-width="1.5"/>
<text x="300" y="715" font-size="13" font-weight="bold" fill="#333">Database</text>
<text x="300" y="729" font-size="13" font-weight="bold" fill="#333">server</text>
<rect x="299" y="294" width="108" height="38" rx="4" fill="#fff7e6" stroke="#b08d2a" stroke-width="1.2"/>
<text x="353" y="317" font-size="12.5" text-anchor="middle" fill="#222233">WAF</text>
<rect x="162" y="273.5" width="108" height="47" rx="4" fill="#ffffff" stroke="#55606b" stroke-width="1.5"/>
<text x="216" y="293.75" font-size="12.5" text-anchor="middle" fill="#222233">Transfer</text>
<text x="216" y="308.25" font-size="12.5" text-anchor="middle" fill="#222233">gateway</text>
<rect x="171" y="509" width="108" height="38" rx="4" fill="#fff7e6" stroke="#b08d2a" stroke-width="1.2"/>
<text x="225" y="532" font-size="12.5" text-anchor="middle" fill="#222233">Billing</text>
<rect x="317" y="509" width="108" height="38" rx="4" fill="#fff7e6" stroke="#b08d2a" stroke-width="1.2"/>
<text x="371" y="532" font-size="12.5" text-anchor="middle" fill="#222233">CRM</text>
<rect x="299" y="738" width="108" height="38" rx="4" fill="#fff7e6" stroke="#b08d2a" stroke-width="1.2"/>
<text x="353" y="761" font-size="12.5" text-anchor="middle" fill="#222233">PostgreSQL</text>
<rect x="245" y="855.5" width="108" height="47" rx="4" fill="#ffffff" stroke="#55606b" stroke-width="1.5"/>
<text x="299" y="875.75" font-size="12.5" text-anchor="middle" fill="#222233">Backup</text>
<text x="299" y="890.25" font-size="12.5" text-anchor="middle" fill="#222233">server</text>
<circle cx="353" cy="32" r="7" fill="none" stroke="#445566" stroke-width="1.5"/>
<path d="M 342 54 q 11 -19 22 0" fill="none" stroke="#445566" stroke-width="1.5"/>
<text x="353" y="66" font-size="11" text-anchor="middle" fill="#223344">User</text>
<text x="353" y="77" font-size="11" text-anchor="middle" fill="#223344">workstations</text>
<rect x="88" y="1003" width="108" height="47" rx="4" fill="#f0eef5" stroke="#9187b3" stroke-width="1.2" stroke-dasharray="5 3"/>
<text x="142" y="1023.25" font-size="12.5" text-anchor="middle" fill="#222233">Partner EDI</text>
<text x="142" y="1037.75" font-size="12.5" text-anchor="middle" fill="#222233">platform</text>
<path d="M 353 87 L 353 294" fill="none" stroke="#444444" stroke-width="1.3" marker-end="url(#arr)"/>
<text x="299.5" y="115.5" font-size="11.5" text-anchor="middle" fill="#333" font-style="italic" stroke="white" stroke-width="2.5" paint-order="stroke" stroke-linejoin="round">Web application</text>
<text x="299.5" y="130" font-size="11.5" text-anchor="middle" fill="#333" font-style="italic" stroke="white" stroke-width="2.5" paint-order="stroke" stroke-linejoin="round">access</text>
<text x="299.5" y="144.5" font-size="9" text-anchor="middle" fill="#777" stroke="white" stroke-width="2.5" paint-order="stroke" stroke-linejoin="round">(HTTPS/443)</text>
<path d="M 335 332 L 335 435 L 225 435 L 225 509" fill="none" stroke="#444444" stroke-width="1.3" marker-end="url(#arr)"/>
<text x="278" y="392.5" font-size="11.5" text-anchor="middle" fill="#333" font-style="italic" stroke="white" stroke-width="2.5" paint-order="stroke" stroke-linejoin="round">Filtered billing</text>
<text x="278" y="407" font-size="11.5" text-anchor="middle" fill="#333" font-style="italic" stroke="white" stroke-width="2.5" paint-order="stroke" stroke-linejoin="round">traffic</text>
<text x="278" y="421.5" font-size="9" text-anchor="middle" fill="#777" stroke="white" stroke-width="2.5" paint-order="stroke" stroke-linejoin="round">(HTTPS/8443)</text>
<path d="M 371 332 L 371 509" fill="none" stroke="#444444" stroke-width="1.3" marker-end="url(#arr)"/>
<text x="416" y="392.5" font-size="11.5" text-anchor="middle" fill="#333" font-style="italic" stroke="white" stroke-width="2.5" paint-order="stroke" stroke-linejoin="round">Filtered CRM</text>
<text x="416" y="407" font-size="11.5" text-anchor="middle" fill="#333" font-style="italic" stroke="white" stroke-width="2.5" paint-order="stroke" stroke-linejoin="round">traffic</text>
<text x="416" y="421.5" font-size="9" text-anchor="middle" fill="#777" stroke="white" stroke-width="2.5" paint-order="stroke" stroke-linejoin="round">(HTTPS/8444)</text>
<path d="M 243 547 L 243 650 L 335 650 L 335 738" fill="none" stroke="#444444" stroke-width="1.3" marker-end="url(#arr)"/>
<text x="199" y="607.5" font-size="11.5" text-anchor="middle" fill="#333" font-style="italic" stroke="white" stroke-width="2.5" paint-order="stroke" stroke-linejoin="round">Read/write</text>
<text x="199" y="622" font-size="11.5" text-anchor="middle" fill="#333" font-style="italic" stroke="white" stroke-width="2.5" paint-order="stroke" stroke-linejoin="round">billing data</text>
<text x="199" y="636.5" font-size="9" text-anchor="middle" fill="#777" stroke="white" stroke-width="2.5" paint-order="stroke" stroke-linejoin="round">(TCP/5432)</text>
<path d="M 371 547 L 371 738" fill="none" stroke="#444444" stroke-width="1.3" marker-end="url(#arr)"/>
<text x="419" y="607.5" font-size="11.5" text-anchor="middle" fill="#333" font-style="italic" stroke="white" stroke-width="2.5" paint-order="stroke" stroke-linejoin="round">Read/write</text>
<text x="419" y="622" font-size="11.5" text-anchor="middle" fill="#333" font-style="italic" stroke="white" stroke-width="2.5" paint-order="stroke" stroke-linejoin="round">customer data</text>
<text x="419" y="636.5" font-size="9" text-anchor="middle" fill="#777" stroke="white" stroke-width="2.5" paint-order="stroke" stroke-linejoin="round">(TCP/5432)</text>
<path d="M 207 547 L 207 585 L 147 585 A 5 5 0 0 0 137 585 L 131 585 L 131 206 L 216 206 L 216 273.5" fill="none" stroke="#444444" stroke-width="1.3" marker-end="url(#arr)"/>
<text x="74" y="392.5" font-size="11.5" text-anchor="middle" fill="#333" font-style="italic" stroke="white" stroke-width="2.5" paint-order="stroke" stroke-linejoin="round">Drop invoices to</text>
<text x="74" y="407" font-size="11.5" text-anchor="middle" fill="#333" font-style="italic" stroke="white" stroke-width="2.5" paint-order="stroke" stroke-linejoin="round">transmit</text>
<text x="74" y="421.5" font-size="9" text-anchor="middle" fill="#777" stroke="white" stroke-width="2.5" paint-order="stroke" stroke-linejoin="round">(SFTP/22)</text>
<path d="M 216 320.5 L 216 370 L 142 370 L 142 1003" fill="none" stroke="#444444" stroke-width="1.3" marker-end="url(#arr)"/>
<text x="108" y="954.5" font-size="11.5" text-anchor="middle" fill="#333" font-style="italic" stroke="white" stroke-width="2.5" paint-order="stroke" stroke-linejoin="round">Partner</text>
<text x="108" y="969" font-size="11.5" text-anchor="middle" fill="#333" font-style="italic" stroke="white" stroke-width="2.5" paint-order="stroke" stroke-linejoin="round">transfers</text>
<text x="108" y="983.5" font-size="9" text-anchor="middle" fill="#777" stroke="white" stroke-width="2.5" paint-order="stroke" stroke-linejoin="round">(AS4/443)</text>
<path d="M 299 785 L 299 855.5" fill="none" stroke="#444444" stroke-width="1.3" marker-end="url(#arr)"/>
<text x="252" y="817.5" font-size="11.5" text-anchor="middle" fill="#333" font-style="italic" stroke="white" stroke-width="2.5" paint-order="stroke" stroke-linejoin="round">Daily backups</text>
<text x="252" y="832" font-size="9" text-anchor="middle" fill="#777" stroke="white" stroke-width="2.5" paint-order="stroke" stroke-linejoin="round">(TCP/9092)</text>
<line x1="20" y1="1070" x2="463" y2="1070" stroke="#ddd" stroke-width="1"/>
<text x="20" y="1092" font-size="11" font-weight="bold" fill="#555">LEGEND</text>
<rect x="150" y="1082" width="26" height="14" rx="3" fill="#f5f5f4" stroke="#8a8a85"/>
<text x="182" y="1093" font-size="10" fill="#444">Site / data center</text>
<rect x="150" y="1104" width="26" height="14" rx="3" fill="#ecf3ec" stroke="#6d9a6d" stroke-dasharray="5 3"/>
<text x="182" y="1115" font-size="10" fill="#444">Network zone</text>
<rect x="150" y="1126" width="26" height="14" rx="3" fill="#ffffff" stroke="#55606b"/>
<text x="182" y="1137" font-size="10" fill="#444">Server / VM</text>
<rect x="150" y="1148" width="26" height="14" rx="3" fill="#fff7e6" stroke="#b08d2a"/>
<text x="182" y="1159" font-size="10" fill="#444">Deployed application</text>
<circle cx="163" cy="1173" r="3" fill="none" stroke="#445566" stroke-width="1.2"/>
<path d="M 158 1183 q 5 -7 10 0" fill="none" stroke="#445566" stroke-width="1.2"/>
<text x="182" y="1181" font-size="10" fill="#444">User / consumer</text>
<rect x="150" y="1192" width="26" height="14" rx="3" fill="#f0eef5" stroke="#9187b3" stroke-dasharray="5 3"/>
<text x="182" y="1203" font-size="10" fill="#444">External system</text>
<line x1="150" y1="1244" x2="176" y2="1244" stroke="#444444" stroke-width="1.3" marker-end="url(#arr)"/>
<text x="182" y="1248" font-size="10" fill="#444">Technical flow (protocol, port)</text>
<text x="150" y="1272" font-size="10" fill="#444" font-style="italic">Inter-zone flows filtered by firewall (flow matrix attached to the architecture dossier)</text>
</svg>
