<svg xmlns="http://www.w3.org/2000/svg" viewBox="0 0 1729 492" font-family="Helvetica,Arial,sans-serif">
<defs><marker id="arr" viewBox="0 0 10 10" refX="9" refY="5" markerWidth="7" markerHeight="7" orient="auto-start-reverse">
<path d="M0,0 L10,5 L0,10 z" fill="#444444"/></marker></defs>
<rect width="1729" height="492" fill="white"/>
<rect x="258" y="30" width="1167" height="348" rx="6" fill="#f5f5f4" stroke="#8a8a85" stroke-width="1.4"/>
<text x="268" y="48" font-size="12" font-weight="bold" fill="#333">Main data center</text>
<rect x="295" y="144.33333333333334" width="198" height="214" rx="6" fill="#ecf3ec" stroke="#6d9a6d" stroke-width="1.2" stroke-dasharray="5 3"/>
<text x="305" y="162.33333333333334" font-size="12" font-weight="bold" fill="#333">DMZ</text>
<rect x="312" y="245.33333333333334" width="164" height="101" rx="6" fill="#ffffff" stroke="#55606b" stroke-width="1.5"/>
<text x="322" y="263.33333333333337" font-size="12" font-weight="bold" fill="#333">Reverse proxy</text>
<text x="322" y="276.33333333333337" font-size="12" font-weight="bold" fill="#333">(HA pair)</text>
<rect x="626" y="128" width="198" height="238" rx="6" fill="#ecf3ec" stroke="#6d9a6d" stroke-width="1.2" stroke-dasharray="5 3"/>
<text x="636" y="146" font-size="12" font-weight="bold" fill="#333">Application zone</text>
<rect x="643" y="158" width="164" height="88" rx="6" fill="#ffffff" stroke="#55606b" stroke-width="1.5"/>
<text x="653" y="176" font-size="12" font-weight="bold" fill="#333">Billing VM</text>
<rect x="643" y="266" width="164" height="88" rx="6" fill="#ffffff" stroke="#55606b" stroke-width="1.5"/>
<text x="653" y="284" font-size="12" font-weight="bold" fill="#333">CRM VM</text>
<rect x="957" y="215.33333333333334" width="456" height="143" rx="6" fill="#ecf3ec" stroke="#6d9a6d" stroke-width="1.2" stroke-dasharray="5 3"/>
<text x="967" y="233.33333333333334" font-size="12" font-weight="bold" fill="#333">Data zone</text>
<rect x="974" y="245.33333333333334" width="164" height="101" rx="6" fill="#ffffff" stroke="#55606b" stroke-width="1.5"/>
<text x="984" y="263.33333333333337" font-size="12" font-weight="bold" fill="#333">Database</text>
<text x="984" y="276.33333333333337" font-size="12" font-weight="bold" fill="#333">server</text>
<rect x="324" y="288.33333333333337" width="140" height="46" rx="4" fill="#fff7e6" stroke="#b08d2a" stroke-width="1.2"/>
<text x="394" y="315.33333333333337" font-size="11.5" text-anchor="middle" fill="#222233">WAF</text>
<rect x="324" y="174.33333333333334" width="140" height="51" rx="4" fill="#ffffff" stroke="#55606b" stroke-width="1.5"/>
<text x="394" y="197.08333333333334" font-size="11.5" text-anchor="middle" fill="#222233">Transfer</text>
<text x="394" y="210.58333333333334" font-size="11.5" text-anchor="middle" fill="#222233">gateway</text>
<rect x="655" y="188" width="140" height="46" rx="4" fill="#fff7e6" stroke="#b08d2a" stroke-width="1.2"/>
<text x="725" y="215" font-size="11.5" text-anchor="middle" fill="#222233">Billing</text>
<rect x="655" y="296" width="140" height="46" rx="4" fill="#fff7e6" stroke="#b08d2a" stroke-width="1.2"/>
<text x="725" y="323" font-size="11.5" text-anchor="middle" fill="#222233">CRM</text>
<rect x="986" y="288.33333333333337" width="140" height="46" rx="4" fill="#fff7e6" stroke="#b08d2a" stroke-width="1.2"/>
<text x="1056" y="315.33333333333337" font-size="11.5" text-anchor="middle" fill="#222233">PostgreSQL</text>
<rect x="1261" y="262.83333333333337" width="140" height="51" rx="4" fill="#ffffff" stroke="#55606b" stroke-width="1.5"/>
<text x="1331" y="285.58333333333337" font-size="11.5" text-anchor="middle" fill="#222233">Backup</text>
<text x="1331" y="299.08333333333337" font-size="11.5" text-anchor="middle" fill="#222233">server</text>
<circle cx="53" cy="287" r="7" fill="none" stroke="#445566" stroke-width="1.5"/>
<path d="M 42 309 q 11 -19 22 0" fill="none" stroke="#445566" stroke-width="1.5"/>
<text x="53" y="321" font-size="10" text-anchor="middle" fill="#223344">User</text>
<text x="53" y="332" font-size="10" text-anchor="middle" fill="#223344">workstations</text>
<rect x="1577" y="91" width="140" height="51" rx="4" fill="#f0eef5" stroke="#9187b3" stroke-width="1.2" stroke-dasharray="5 3"/>
<text x="1647" y="113.75" font-size="11.5" text-anchor="middle" fill="#222233">Partner EDI</text>
<text x="1647" y="127.25" font-size="11.5" text-anchor="middle" fill="#222233">platform</text>
<path d="M 94 311 L 253 311.33333333333337 L 324 311.33333333333337" fill="none" stroke="#444444" stroke-width="1.3" marker-end="url(#arr)"/>
<text x="173.5" y="326.5" font-size="10.5" text-anchor="middle" fill="#333" font-style="italic" stroke="white" stroke-width="2.5" paint-order="stroke" stroke-linejoin="round">Web</text>
<text x="173.5" y="340" font-size="10.5" text-anchor="middle" fill="#333" font-style="italic" stroke="white" stroke-width="2.5" paint-order="stroke" stroke-linejoin="round">application</text>
<text x="173.5" y="353.5" font-size="10.5" text-anchor="middle" fill="#333" font-style="italic" stroke="white" stroke-width="2.5" paint-order="stroke" stroke-linejoin="round">access</text>
<text x="173.5" y="367" font-size="9" text-anchor="middle" fill="#777" stroke="white" stroke-width="2.5" paint-order="stroke" stroke-linejoin="round">(HTTPS/443)</text>
<path d="M 464 303.6666666666667 L 611 303.6666666666667 L 611 211.00000000000003 L 655 211.00000000000003" fill="none" stroke="#444444" stroke-width="1.3" marker-end="url(#arr)"/>
<text x="559.5" y="255.66666666666669" font-size="10.5" text-anchor="middle" fill="#333" font-style="italic" stroke="white" stroke-width="2.5" paint-order="stroke" stroke-linejoin="round">Filtered</text>
<text x="559.5" y="269.1666666666667" font-size="10.5" text-anchor="middle" fill="#333" font-style="italic" stroke="white" stroke-width="2.5" paint-order="stroke" stroke-linejoin="round">billing</text>
<text x="559.5" y="282.6666666666667" font-size="10.5" text-anchor="middle" fill="#333" font-style="italic" stroke="white" stroke-width="2.5" paint-order="stroke" stroke-linejoin="round">traffic</text>
<text x="559.5" y="296.1666666666667" font-size="9" text-anchor="middle" fill="#777" stroke="white" stroke-width="2.5" paint-order="stroke" stroke-linejoin="round">(HTTPS/8443)</text>
<path d="M 464 319.00000000000006 L 655 319" fill="none" stroke="#444444" stroke-width="1.3" marker-end="url(#arr)"/>
<text x="559.5" y="333.5" font-size="10.5" text-anchor="middle" fill="#333" font-style="italic" stroke="white" stroke-width="2.5" paint-order="stroke" stroke-linejoin="round">Filtered CRM</text>
<text x="559.5" y="347" font-size="10.5" text-anchor="middle" fill="#333" font-style="italic" stroke="white" stroke-width="2.5" paint-order="stroke" stroke-linejoin="round">traffic</text>
<text x="559.5" y="360.5" font-size="9" text-anchor="middle" fill="#777" stroke="white" stroke-width="2.5" paint-order="stroke" stroke-linejoin="round">(HTTPS/8444)</text>
<path d="M 795 218.66666666666666 L 942 218.66666666666666 L 942 303.6666666666667 L 986 303.6666666666667" fill="none" stroke="#444444" stroke-width="1.3" marker-end="url(#arr)"/>
<text x="890.5" y="184.16666666666666" font-size="10.5" text-anchor="middle" fill="#333" font-style="italic" stroke="white" stroke-width="2.5" paint-order="stroke" stroke-linejoin="round">Read/write</text>
<text x="890.5" y="197.66666666666666" font-size="10.5" text-anchor="middle" fill="#333" font-style="italic" stroke="white" stroke-width="2.5" paint-order="stroke" stroke-linejoin="round">billing data</text>
<text x="890.5" y="211.16666666666666" font-size="9" text-anchor="middle" fill="#777" stroke="white" stroke-width="2.5" paint-order="stroke" stroke-linejoin="round">(TCP/5432)</text>
<path d="M 795 319 L 986 319.00000000000006" fill="none" stroke="#444444" stroke-width="1.3" marker-end="url(#arr)"/>
<text x="890.5" y="333.5" font-size="10.5" text-anchor="middle" fill="#333" font-style="italic" stroke="white" stroke-width="2.5" paint-order="stroke" stroke-linejoin="round">Read/write</text>
<text x="890.5" y="347" font-size="10.5" text-anchor="middle" fill="#333" font-style="italic" stroke="white" stroke-width="2.5" paint-order="stroke" stroke-linejoin="round">customer data</text>
<text x="890.5" y="360.5" font-size="9" text-anchor="middle" fill="#777" stroke="white" stroke-width="2.5" paint-order="stroke" stroke-linejoin="round">(TCP/5432)</text>
<path d="M 795 203.33333333333334 L 839 203.33333333333331 L 839 60 L 280 60 L 280 199.83333333333334 L 324 199.83333333333334" fill="none" stroke="#444444" stroke-width="1.3" marker-end="url(#arr)"/>
<text x="559.5" y="74.5" font-size="10.5" text-anchor="middle" fill="#333" font-style="italic" stroke="white" stroke-width="2.5" paint-order="stroke" stroke-linejoin="round">Drop invoices</text>
<text x="559.5" y="88" font-size="10.5" text-anchor="middle" fill="#333" font-style="italic" stroke="white" stroke-width="2.5" paint-order="stroke" stroke-linejoin="round">to transmit</text>
<text x="559.5" y="101.5" font-size="9" text-anchor="middle" fill="#777" stroke="white" stroke-width="2.5" paint-order="stroke" stroke-linejoin="round">(SFTP/22)</text>
<path d="M 464 199.83333333333334 L 508 199.83333333333334 L 508 117 L 834 117 A 5 5 0 0 1 844 117 L 1577 117" fill="none" stroke="#444444" stroke-width="1.3" marker-end="url(#arr)"/>
<text x="1503.5" y="132.5" font-size="10.5" text-anchor="middle" fill="#333" font-style="italic" stroke="white" stroke-width="2.5" paint-order="stroke" stroke-linejoin="round">Partner</text>
<text x="1503.5" y="146" font-size="10.5" text-anchor="middle" fill="#333" font-style="italic" stroke="white" stroke-width="2.5" paint-order="stroke" stroke-linejoin="round">transfers</text>
<text x="1503.5" y="159.5" font-size="9" text-anchor="middle" fill="#777" stroke="white" stroke-width="2.5" paint-order="stroke" stroke-linejoin="round">(AS4/443)</text>
<path d="M 1138 288.33333333333337 L 1261 288.33333333333337" fill="none" stroke="#444444" stroke-width="1.3" marker-end="url(#arr)"/>
<text x="1199.5" y="302.83333333333337" font-size="10.5" text-anchor="middle" fill="#333" font-style="italic" stroke="white" stroke-width="2.5" paint-order="stroke" stroke-linejoin="round">Daily backups</text>
<text x="1199.5" y="316.33333333333337" font-size="9" text-anchor="middle" fill="#777" stroke="white" stroke-width="2.5" paint-order="stroke" stroke-linejoin="round">(TCP/9092)</text>
<line x1="20" y1="400" x2="1709" y2="400" stroke="#ddd" stroke-width="1"/>
<text x="20" y="422" font-size="11" font-weight="bold" fill="#555">LEGEND</text>
<rect x="150" y="412" width="26" height="14" rx="3" fill="#f5f5f4" stroke="#8a8a85"/>
<text x="182" y="423" font-size="10" fill="#444">Site / data center</text>
<rect x="308" y="412" width="26" height="14" rx="3" fill="#ecf3ec" stroke="#6d9a6d" stroke-dasharray="5 3"/>
<text x="340" y="423" font-size="10" fill="#444">Network zone</text>
<rect x="435" y="412" width="26" height="14" rx="3" fill="#ffffff" stroke="#55606b"/>
<text x="467" y="423" font-size="10" fill="#444">Server / VM</text>
<rect x="557" y="412" width="26" height="14" rx="3" fill="#fff7e6" stroke="#b08d2a"/>
<text x="589" y="423" font-size="10" fill="#444">Deployed application</text>
<circle cx="738" cy="415" r="3" fill="none" stroke="#445566" stroke-width="1.2"/>
<path d="M 733 425 q 5 -7 10 0" fill="none" stroke="#445566" stroke-width="1.2"/>
<text x="757" y="423" font-size="10" fill="#444">User / consumer</text>
<rect x="867" y="412" width="26" height="14" rx="3" fill="#f0eef5" stroke="#9187b3" stroke-dasharray="5 3"/>
<text x="899" y="423" font-size="10" fill="#444">External system</text>
<line x1="150" y1="442" x2="176" y2="442" stroke="#444444" stroke-width="1.3" marker-end="url(#arr)"/>
<text x="182" y="446" font-size="10" fill="#444">Technical flow (protocol, port)</text>
<text x="150" y="470" font-size="10" fill="#444" font-style="italic">Inter-zone flows filtered by firewall (flow matrix attached to the architecture dossier)</text>
</svg>
