<svg xmlns="http://www.w3.org/2000/svg" viewBox="0 0 559 1609" font-family="Helvetica,Arial,sans-serif">
<defs><marker id="arr" viewBox="0 0 10 10" refX="9" refY="5" markerWidth="7" markerHeight="7" orient="auto-start-reverse">
<path d="M0,0 L10,5 L0,10 z" fill="#5a6675"/></marker></defs>
<rect width="559" height="1609" fill="#ffffff"/>
<rect x="10" y="169" width="539" height="1110.5" rx="6" fill="#f3f5f6" stroke="#7c8794" stroke-width="1.4"/>
<text x="20" y="187" font-size="13" font-weight="bold" fill="#17202c">Main data center</text>
<rect x="229" y="221" width="272" height="134" rx="6" fill="#eaf5ef" stroke="#1a8f66" stroke-width="1.2" stroke-dasharray="5 3"/>
<text x="239" y="239" font-size="13" font-weight="bold" fill="#17202c">DMZ</text>
<rect x="366" y="253" width="126" height="88" rx="6" fill="#ffffff" stroke="#48546a" stroke-width="1.5"/>
<text x="376" y="271" font-size="13" font-weight="bold" fill="#17202c">Reverse proxy</text>
<text x="376" y="285" font-size="13" font-weight="bold" fill="#17202c">(HA pair)</text>
<rect x="153" y="450" width="366" height="479" rx="6" fill="#eaf5ef" stroke="#1a8f66" stroke-width="1.2" stroke-dasharray="5 3"/>
<text x="163" y="468" font-size="13" font-weight="bold" fill="#17202c">Application zone</text>
<rect x="238" y="482" width="126" height="74" rx="6" fill="#ffffff" stroke="#48546a" stroke-width="1.5"/>
<text x="248" y="500" font-size="13" font-weight="bold" fill="#17202c">Billing VM</text>
<rect x="384" y="482" width="126" height="74" rx="6" fill="#ffffff" stroke="#48546a" stroke-width="1.5"/>
<text x="394" y="500" font-size="13" font-weight="bold" fill="#17202c">CRM VM</text>
<rect x="274" y="1024" width="227" height="246.5" rx="6" fill="#eaf5ef" stroke="#1a8f66" stroke-width="1.2" stroke-dasharray="5 3"/>
<text x="284" y="1042" font-size="13" font-weight="bold" fill="#17202c">Data zone</text>
<rect x="366" y="1056" width="126" height="88" rx="6" fill="#ffffff" stroke="#48546a" stroke-width="1.5"/>
<text x="376" y="1074" font-size="13" font-weight="bold" fill="#17202c">Database</text>
<text x="376" y="1088" font-size="13" font-weight="bold" fill="#17202c">server</text>
<rect x="375" y="294" width="108" height="38" rx="4" fill="#fdf4e3" stroke="#c88a2e" stroke-width="1.2"/>
<text x="429" y="317" font-size="12.5" text-anchor="middle" fill="#17202c">WAF</text>
<rect x="238" y="273.5" width="108" height="47" rx="4" fill="#ffffff" stroke="#48546a" stroke-width="1.5"/>
<text x="292" y="293.75" font-size="12.5" text-anchor="middle" fill="#17202c">Transfer</text>
<text x="292" y="308.25" font-size="12.5" text-anchor="middle" fill="#17202c">gateway</text>
<rect x="220" y="656" width="108" height="38" rx="4" fill="#f5e6dd" stroke="#b85a30" stroke-width="1.3"/>
<path d="M 228 664 L 242 664 Q 244 669 235 676 Q 226 669 228 664" fill="none" stroke="#b85a30" stroke-width="1.3"/>
<text x="284" y="679" font-size="12.5" text-anchor="middle" fill="#17202c">Gateway</text>
<rect x="220" y="764.5" width="108" height="47" rx="4" fill="#fdefe3" stroke="#d1600f" stroke-width="1.3"/>
<rect x="226" y="770.5" width="18" height="14" rx="3" fill="none" stroke="#d1600f" stroke-width="1.3"/>
<path d="M 230 773.5 v -4 a 5 5 0 0 1 10 0 v 4" fill="none" stroke="#d1600f" stroke-width="1.3"/>
<circle cx="235" cy="780.5" r="2.5" fill="#d1600f"/>
<text x="284" y="784.75" font-size="12.5" text-anchor="middle" fill="#17202c">OAuth2</text>
<text x="284" y="799.25" font-size="12.5" text-anchor="middle" fill="#17202c">proxy</text>
<rect x="220" y="882" width="108" height="38" rx="4" fill="#e0f0f0" stroke="#3a8f8f" stroke-width="1.3"/>
<text x="274" y="905" font-size="12.5" text-anchor="middle" fill="#17202c">LDAP / IdP</text>
<rect x="247" y="509" width="108" height="38" rx="4" fill="#fdf4e3" stroke="#c88a2e" stroke-width="1.2"/>
<text x="301" y="532" font-size="12.5" text-anchor="middle" fill="#17202c">Billing</text>
<rect x="393" y="509" width="108" height="38" rx="4" fill="#fdf4e3" stroke="#c88a2e" stroke-width="1.2"/>
<text x="447" y="532" font-size="12.5" text-anchor="middle" fill="#17202c">CRM</text>
<rect x="375" y="1097" width="108" height="38" rx="4" fill="#fdf4e3" stroke="#c88a2e" stroke-width="1.2"/>
<text x="429" y="1120" font-size="12.5" text-anchor="middle" fill="#17202c">PostgreSQL</text>
<rect x="321" y="1214.5" width="108" height="47" rx="4" fill="#ffffff" stroke="#48546a" stroke-width="1.5"/>
<text x="375" y="1234.75" font-size="12.5" text-anchor="middle" fill="#17202c">Backup</text>
<text x="375" y="1249.25" font-size="12.5" text-anchor="middle" fill="#17202c">server</text>
<circle cx="429" cy="32" r="7" fill="none" stroke="#1f5e91" stroke-width="1.5"/>
<path d="M 418 54 q 11 -19 22 0" fill="none" stroke="#1f5e91" stroke-width="1.5"/>
<text x="429" y="66" font-size="11" text-anchor="middle" fill="#20364c">User</text>
<text x="429" y="77" font-size="11" text-anchor="middle" fill="#20364c">workstations</text>
<rect x="88" y="1362" width="108" height="47" rx="4" fill="#f4eff8" stroke="#8659a6" stroke-width="1.2" stroke-dasharray="5 3"/>
<text x="142" y="1382.25" font-size="12.5" text-anchor="middle" fill="#17202c">Partner EDI</text>
<text x="142" y="1396.75" font-size="12.5" text-anchor="middle" fill="#17202c">platform</text>
<path d="M 429 87 L 429 294" fill="none" stroke="#5a6675" stroke-width="1.3" marker-end="url(#arr)"/>
<text x="375.5" y="115.5" font-size="11.5" text-anchor="middle" fill="#3a4553" font-style="italic" stroke="#ffffff" stroke-width="2.5" paint-order="stroke" stroke-linejoin="round">Web application</text>
<text x="375.5" y="130" font-size="11.5" text-anchor="middle" fill="#3a4553" font-style="italic" stroke="#ffffff" stroke-width="2.5" paint-order="stroke" stroke-linejoin="round">access</text>
<text x="375.5" y="144.5" font-size="9" text-anchor="middle" fill="#79828f" stroke="#ffffff" stroke-width="2.5" paint-order="stroke" stroke-linejoin="round">(HTTPS/443)</text>
<path d="M 411 332 L 411 435 L 301 435 L 301 509" fill="none" stroke="#5a6675" stroke-width="1.3" marker-end="url(#arr)"/>
<text x="354" y="392.5" font-size="11.5" text-anchor="middle" fill="#3a4553" font-style="italic" stroke="#ffffff" stroke-width="2.5" paint-order="stroke" stroke-linejoin="round">Filtered billing</text>
<text x="354" y="407" font-size="11.5" text-anchor="middle" fill="#3a4553" font-style="italic" stroke="#ffffff" stroke-width="2.5" paint-order="stroke" stroke-linejoin="round">traffic</text>
<text x="354" y="421.5" font-size="9" text-anchor="middle" fill="#79828f" stroke="#ffffff" stroke-width="2.5" paint-order="stroke" stroke-linejoin="round">(HTTPS/8443)</text>
<path d="M 447 332 L 447 509" fill="none" stroke="#5a6675" stroke-width="1.3" marker-end="url(#arr)"/>
<text x="492" y="392.5" font-size="11.5" text-anchor="middle" fill="#3a4553" font-style="italic" stroke="#ffffff" stroke-width="2.5" paint-order="stroke" stroke-linejoin="round">Filtered CRM</text>
<text x="492" y="407" font-size="11.5" text-anchor="middle" fill="#3a4553" font-style="italic" stroke="#ffffff" stroke-width="2.5" paint-order="stroke" stroke-linejoin="round">traffic</text>
<text x="492" y="421.5" font-size="9" text-anchor="middle" fill="#79828f" stroke="#ffffff" stroke-width="2.5" paint-order="stroke" stroke-linejoin="round">(HTTPS/8444)</text>
<path d="M 328 547 L 328 571 L 349 571 L 349 1009 L 411 1009 L 411 1097" fill="none" stroke="#5a6675" stroke-width="1.3" marker-end="url(#arr)"/>
<text x="305" y="966.5" font-size="11.5" text-anchor="middle" fill="#3a4553" font-style="italic" stroke="#ffffff" stroke-width="2.5" paint-order="stroke" stroke-linejoin="round">Read/write</text>
<text x="305" y="981" font-size="11.5" text-anchor="middle" fill="#3a4553" font-style="italic" stroke="#ffffff" stroke-width="2.5" paint-order="stroke" stroke-linejoin="round">billing data</text>
<text x="305" y="995.5" font-size="9" text-anchor="middle" fill="#79828f" stroke="#ffffff" stroke-width="2.5" paint-order="stroke" stroke-linejoin="round">(TCP/5432)</text>
<path d="M 447 547 L 447 1097" fill="none" stroke="#5a6675" stroke-width="1.3" marker-end="url(#arr)"/>
<text x="495" y="966.5" font-size="11.5" text-anchor="middle" fill="#3a4553" font-style="italic" stroke="#ffffff" stroke-width="2.5" paint-order="stroke" stroke-linejoin="round">Read/write</text>
<text x="495" y="981" font-size="11.5" text-anchor="middle" fill="#3a4553" font-style="italic" stroke="#ffffff" stroke-width="2.5" paint-order="stroke" stroke-linejoin="round">customer data</text>
<text x="495" y="995.5" font-size="9" text-anchor="middle" fill="#79828f" stroke="#ffffff" stroke-width="2.5" paint-order="stroke" stroke-linejoin="round">(TCP/5432)</text>
<path d="M 274 547 L 274 656" fill="none" stroke="#5a6675" stroke-width="1.3" marker-end="url(#arr)"/>
<text x="217" y="603.5" font-size="11.5" text-anchor="middle" fill="#3a4553" font-style="italic" stroke="#ffffff" stroke-width="2.5" paint-order="stroke" stroke-linejoin="round">Authenticate API</text>
<text x="217" y="618" font-size="11.5" text-anchor="middle" fill="#3a4553" font-style="italic" stroke="#ffffff" stroke-width="2.5" paint-order="stroke" stroke-linejoin="round">calls</text>
<text x="217" y="632.5" font-size="9" text-anchor="middle" fill="#79828f" stroke="#ffffff" stroke-width="2.5" paint-order="stroke" stroke-linejoin="round">(HTTPS/8443)</text>
<path d="M 274 694 L 274 764.5" fill="none" stroke="#5a6675" stroke-width="1.3" marker-end="url(#arr)"/>
<text x="246" y="726.5" font-size="11.5" text-anchor="middle" fill="#3a4553" font-style="italic" stroke="#ffffff" stroke-width="2.5" paint-order="stroke" stroke-linejoin="round">Forward</text>
<text x="246" y="741" font-size="9" text-anchor="middle" fill="#79828f" stroke="#ffffff" stroke-width="2.5" paint-order="stroke" stroke-linejoin="round">(HTTP/80)</text>
<path d="M 274 811.5 L 274 882" fill="none" stroke="#5a6675" stroke-width="1.3" marker-end="url(#arr)"/>
<text x="227" y="844" font-size="11.5" text-anchor="middle" fill="#3a4553" font-style="italic" stroke="#ffffff" stroke-width="2.5" paint-order="stroke" stroke-linejoin="round">Verify tokens</text>
<text x="227" y="858.5" font-size="9" text-anchor="middle" fill="#79828f" stroke="#ffffff" stroke-width="2.5" paint-order="stroke" stroke-linejoin="round">(LDAPS/636)</text>
<path d="M 301 547 L 301 581 L 338 581 L 338 944 L 147 944 A 5 5 0 0 0 137 944 L 131 944 L 131 206 L 292 206 L 292 273.5" fill="none" stroke="#5a6675" stroke-width="1.3" marker-end="url(#arr)"/>
<text x="74" y="392.5" font-size="11.5" text-anchor="middle" fill="#3a4553" font-style="italic" stroke="#ffffff" stroke-width="2.5" paint-order="stroke" stroke-linejoin="round">Drop invoices to</text>
<text x="74" y="407" font-size="11.5" text-anchor="middle" fill="#3a4553" font-style="italic" stroke="#ffffff" stroke-width="2.5" paint-order="stroke" stroke-linejoin="round">transmit</text>
<text x="74" y="421.5" font-size="9" text-anchor="middle" fill="#79828f" stroke="#ffffff" stroke-width="2.5" paint-order="stroke" stroke-linejoin="round">(SFTP/22)</text>
<path d="M 292 320.5 L 292 370 L 142 370 L 142 1362" fill="none" stroke="#5a6675" stroke-width="1.3" marker-end="url(#arr)"/>
<text x="108" y="1313.5" font-size="11.5" text-anchor="middle" fill="#3a4553" font-style="italic" stroke="#ffffff" stroke-width="2.5" paint-order="stroke" stroke-linejoin="round">Partner</text>
<text x="108" y="1328" font-size="11.5" text-anchor="middle" fill="#3a4553" font-style="italic" stroke="#ffffff" stroke-width="2.5" paint-order="stroke" stroke-linejoin="round">transfers</text>
<text x="108" y="1342.5" font-size="9" text-anchor="middle" fill="#79828f" stroke="#ffffff" stroke-width="2.5" paint-order="stroke" stroke-linejoin="round">(AS4/443)</text>
<path d="M 375 1144 L 375 1214.5" fill="none" stroke="#5a6675" stroke-width="1.3" marker-end="url(#arr)"/>
<text x="328" y="1176.5" font-size="11.5" text-anchor="middle" fill="#3a4553" font-style="italic" stroke="#ffffff" stroke-width="2.5" paint-order="stroke" stroke-linejoin="round">Daily backups</text>
<text x="328" y="1191" font-size="9" text-anchor="middle" fill="#79828f" stroke="#ffffff" stroke-width="2.5" paint-order="stroke" stroke-linejoin="round">(TCP/9092)</text>
<line x1="20" y1="1429" x2="539" y2="1429" stroke="#e6e9ee" stroke-width="1"/>
<text x="20" y="1451" font-size="11" font-weight="bold" fill="#3a4553">LEGEND</text>
<rect x="150" y="1441" width="26" height="14" rx="3" fill="#f3f5f6" stroke="#7c8794"/>
<text x="182" y="1452" font-size="10" fill="#17202c">Site / data center</text>
<rect x="308" y="1441" width="26" height="14" rx="3" fill="#eaf5ef" stroke="#1a8f66" stroke-dasharray="5 3"/>
<text x="340" y="1452" font-size="10" fill="#17202c">Network zone</text>
<rect x="150" y="1463" width="26" height="14" rx="3" fill="#ffffff" stroke="#48546a"/>
<text x="182" y="1474" font-size="10" fill="#17202c">Server / VM</text>
<rect x="272" y="1463" width="26" height="14" rx="3" fill="#fdf4e3" stroke="#c88a2e"/>
<text x="304" y="1474" font-size="10" fill="#17202c">Deployed application</text>
<rect x="150" y="1485" width="26" height="14" rx="3" fill="#f5e6dd" stroke="#b85a30"/>
<text x="182" y="1496" font-size="10" fill="#17202c">Gateway / reverse proxy</text>
<rect x="334" y="1485" width="26" height="14" rx="3" fill="#fdefe3" stroke="#d1600f"/>
<text x="366" y="1496" font-size="10" fill="#17202c">Auth middleware</text>
<rect x="150" y="1507" width="26" height="14" rx="3" fill="#e0f0f0" stroke="#3a8f8f"/>
<text x="182" y="1518" font-size="10" fill="#17202c">Identity provider (IdP)</text>
<circle cx="347" cy="1510" r="3" fill="none" stroke="#1f5e91" stroke-width="1.2"/>
<path d="M 342 1520 q 5 -7 10 0" fill="none" stroke="#1f5e91" stroke-width="1.2"/>
<text x="366" y="1518" font-size="10" fill="#17202c">User / consumer</text>
<rect x="150" y="1529" width="26" height="14" rx="3" fill="#f4eff8" stroke="#8659a6" stroke-dasharray="5 3"/>
<text x="182" y="1540" font-size="10" fill="#17202c">External system</text>
<line x1="150" y1="1559" x2="176" y2="1559" stroke="#5a6675" stroke-width="1.3" marker-end="url(#arr)"/>
<text x="182" y="1563" font-size="10" fill="#17202c">Technical flow (protocol, port)</text>
<text x="150" y="1587" font-size="10" fill="#17202c" font-style="italic">Inter-zone flows filtered by firewall (flow matrix attached to the architecture dossier)</text>
</svg>
