<svg xmlns="http://www.w3.org/2000/svg" viewBox="0 0 236 986" font-family="Helvetica,Arial,sans-serif">
<defs><marker id="arr" viewBox="0 0 10 10" refX="9" refY="5" markerWidth="7" markerHeight="7" orient="auto-start-reverse">
<path d="M0,0 L10,5 L0,10 z" fill="#444444"/></marker></defs>
<rect width="236" height="986" fill="white"/>
<rect x="12" y="220" width="212" height="562" rx="6" fill="#f5f5f4" stroke="#8a8a85" stroke-width="1.4"/>
<text x="22" y="238" font-size="12" font-weight="bold" fill="#333">Cloud host</text>
<rect x="36" y="255" width="164" height="93" rx="6" fill="#ecf3ec" stroke="#6d9a6d" stroke-width="1.2" stroke-dasharray="5 3"/>
<text x="46" y="273" font-size="12" font-weight="bold" fill="#333">Public zone</text>
<rect x="24" y="441" width="188" height="329" rx="6" fill="#ecf3ec" stroke="#6d9a6d" stroke-width="1.2" stroke-dasharray="5 3"/>
<text x="34" y="459" font-size="12" font-weight="bold" fill="#333">Private zone</text>
<rect x="36" y="476" width="164" height="88" rx="6" fill="#ffffff" stroke="#55606b" stroke-width="1.5"/>
<text x="46" y="494" font-size="12" font-weight="bold" fill="#333">Web VM</text>
<rect x="36" y="657" width="164" height="101" rx="6" fill="#ffffff" stroke="#55606b" stroke-width="1.5"/>
<text x="46" y="675" font-size="12" font-weight="bold" fill="#333">Database</text>
<text x="46" y="688" font-size="12" font-weight="bold" fill="#333">VM</text>
<rect x="48" y="285" width="140" height="51" rx="4" fill="#ffffff" stroke="#55606b" stroke-width="1.5"/>
<text x="118" y="307.75" font-size="11.5" text-anchor="middle" fill="#222233">Load</text>
<text x="118" y="321.25" font-size="11.5" text-anchor="middle" fill="#222233">balancer</text>
<rect x="48" y="506" width="140" height="46" rx="4" fill="#fff7e6" stroke="#b08d2a" stroke-width="1.2"/>
<text x="118" y="533" font-size="11.5" text-anchor="middle" fill="#222233">CMS</text>
<rect x="48" y="700" width="140" height="46" rx="4" fill="#fff7e6" stroke="#b08d2a" stroke-width="1.2"/>
<text x="118" y="727" font-size="11.5" text-anchor="middle" fill="#222233">MySQL</text>
<circle cx="118" cy="40" r="7" fill="none" stroke="#445566" stroke-width="1.5"/>
<path d="M 107 62 q 11 -19 22 0" fill="none" stroke="#445566" stroke-width="1.5"/>
<text x="118" y="74" font-size="10" text-anchor="middle" fill="#223344">Internet</text>
<text x="118" y="85" font-size="10" text-anchor="middle" fill="#223344">visitors</text>
<path d="M 118 97 L 118 285" fill="none" stroke="#444444" stroke-width="1.3" marker-end="url(#arr)"/>
<text x="79.5" y="152.5" font-size="10.5" text-anchor="middle" fill="#333" font-style="italic" stroke="white" stroke-width="2.5" paint-order="stroke" stroke-linejoin="round">Site access</text>
<text x="79.5" y="166" font-size="9" text-anchor="middle" fill="#777" stroke="white" stroke-width="2.5" paint-order="stroke" stroke-linejoin="round">(HTTPS/443)</text>
<path d="M 118 336 L 118 506" fill="none" stroke="#444444" stroke-width="1.3" marker-end="url(#arr)"/>
<text x="85" y="384.5" font-size="10.5" text-anchor="middle" fill="#333" font-style="italic" stroke="white" stroke-width="2.5" paint-order="stroke" stroke-linejoin="round">Balanced</text>
<text x="85" y="398" font-size="10.5" text-anchor="middle" fill="#333" font-style="italic" stroke="white" stroke-width="2.5" paint-order="stroke" stroke-linejoin="round">traffic</text>
<text x="85" y="411.5" font-size="9" text-anchor="middle" fill="#777" stroke="white" stroke-width="2.5" paint-order="stroke" stroke-linejoin="round">(HTTP/8080)</text>
<path d="M 118 552 L 118 700" fill="none" stroke="#444444" stroke-width="1.3" marker-end="url(#arr)"/>
<text x="83.5" y="600.5" font-size="10.5" text-anchor="middle" fill="#333" font-style="italic" stroke="white" stroke-width="2.5" paint-order="stroke" stroke-linejoin="round">Read/write</text>
<text x="83.5" y="614" font-size="10.5" text-anchor="middle" fill="#333" font-style="italic" stroke="white" stroke-width="2.5" paint-order="stroke" stroke-linejoin="round">content</text>
<text x="83.5" y="627.5" font-size="9" text-anchor="middle" fill="#777" stroke="white" stroke-width="2.5" paint-order="stroke" stroke-linejoin="round">(TCP/3306)</text>
<line x1="20" y1="804" x2="216" y2="804" stroke="#ddd" stroke-width="1"/>
<text x="20" y="826" font-size="11" font-weight="bold" fill="#555">LEGEND</text>
<rect x="150" y="816" width="26" height="14" rx="3" fill="#f5f5f4" stroke="#8a8a85"/>
<text x="182" y="827" font-size="10" fill="#444">Site / data center</text>
<rect x="150" y="838" width="26" height="14" rx="3" fill="#ecf3ec" stroke="#6d9a6d" stroke-dasharray="5 3"/>
<text x="182" y="849" font-size="10" fill="#444">Network zone</text>
<rect x="150" y="860" width="26" height="14" rx="3" fill="#ffffff" stroke="#55606b"/>
<text x="182" y="871" font-size="10" fill="#444">Server / VM</text>
<rect x="150" y="882" width="26" height="14" rx="3" fill="#fff7e6" stroke="#b08d2a"/>
<text x="182" y="893" font-size="10" fill="#444">Deployed application</text>
<circle cx="163" cy="907" r="3" fill="none" stroke="#445566" stroke-width="1.2"/>
<path d="M 158 917 q 5 -7 10 0" fill="none" stroke="#445566" stroke-width="1.2"/>
<text x="182" y="915" font-size="10" fill="#444">User / consumer</text>
<line x1="150" y1="956" x2="176" y2="956" stroke="#444444" stroke-width="1.3" marker-end="url(#arr)"/>
<text x="182" y="960" font-size="10" fill="#444">Technical flow (protocol, port)</text>
</svg>
