<svg xmlns="http://www.w3.org/2000/svg" viewBox="0 0 479 1307" font-family="Helvetica,Arial,sans-serif">
<defs><marker id="arr" viewBox="0 0 10 10" refX="9" refY="5" markerWidth="7" markerHeight="7" orient="auto-start-reverse">
<path d="M0,0 L10,5 L0,10 z" fill="#444444"/></marker></defs>
<rect width="479" height="1307" fill="white"/>
<rect x="10" y="169" width="459" height="765.5" rx="6" fill="#f5f5f4" stroke="#8a8a85" stroke-width="1.4"/>
<text x="20" y="187" font-size="12" font-weight="bold" fill="#333">Main data center</text>
<rect x="146.33333333333334" y="222" width="284" height="139" rx="6" fill="#ecf3ec" stroke="#6d9a6d" stroke-width="1.2" stroke-dasharray="5 3"/>
<text x="156.33333333333334" y="240" font-size="12" font-weight="bold" fill="#333">DMZ</text>
<rect x="288.33333333333337" y="255" width="132" height="91" rx="6" fill="#ffffff" stroke="#55606b" stroke-width="1.5"/>
<text x="298.33333333333337" y="273" font-size="12" font-weight="bold" fill="#333">Reverse proxy</text>
<text x="298.33333333333337" y="286" font-size="12" font-weight="bold" fill="#333">(HA pair)</text>
<rect x="145" y="454" width="304" height="126" rx="6" fill="#ecf3ec" stroke="#6d9a6d" stroke-width="1.2" stroke-dasharray="5 3"/>
<text x="155" y="472" font-size="12" font-weight="bold" fill="#333">Application zone</text>
<rect x="155" y="487" width="132" height="78" rx="6" fill="#ffffff" stroke="#55606b" stroke-width="1.5"/>
<text x="165" y="505" font-size="12" font-weight="bold" fill="#333">Billing VM</text>
<rect x="307" y="487" width="132" height="78" rx="6" fill="#ffffff" stroke="#55606b" stroke-width="1.5"/>
<text x="317" y="505" font-size="12" font-weight="bold" fill="#333">CRM VM</text>
<rect x="203.33333333333334" y="673" width="227" height="251.5" rx="6" fill="#ecf3ec" stroke="#6d9a6d" stroke-width="1.2" stroke-dasharray="5 3"/>
<text x="213.33333333333334" y="691" font-size="12" font-weight="bold" fill="#333">Data zone</text>
<rect x="288.33333333333337" y="706" width="132" height="91" rx="6" fill="#ffffff" stroke="#55606b" stroke-width="1.5"/>
<text x="298.33333333333337" y="724" font-size="12" font-weight="bold" fill="#333">Database</text>
<text x="298.33333333333337" y="737" font-size="12" font-weight="bold" fill="#333">server</text>
<rect x="298.33333333333337" y="296" width="112" height="40" rx="4" fill="#fff7e6" stroke="#b08d2a" stroke-width="1.2"/>
<text x="354.33333333333337" y="320" font-size="11.5" text-anchor="middle" fill="#222233">WAF</text>
<rect x="156.33333333333334" y="276.5" width="112" height="48" rx="4" fill="#ffffff" stroke="#55606b" stroke-width="1.5"/>
<text x="212.33333333333334" y="297.75" font-size="11.5" text-anchor="middle" fill="#222233">Transfer</text>
<text x="212.33333333333334" y="311.25" font-size="11.5" text-anchor="middle" fill="#222233">gateway</text>
<rect x="165" y="515" width="112" height="40" rx="4" fill="#fff7e6" stroke="#b08d2a" stroke-width="1.2"/>
<text x="221" y="539" font-size="11.5" text-anchor="middle" fill="#222233">Billing</text>
<rect x="317" y="515" width="112" height="40" rx="4" fill="#fff7e6" stroke="#b08d2a" stroke-width="1.2"/>
<text x="373" y="539" font-size="11.5" text-anchor="middle" fill="#222233">CRM</text>
<rect x="298.33333333333337" y="747" width="112" height="40" rx="4" fill="#fff7e6" stroke="#b08d2a" stroke-width="1.2"/>
<text x="354.33333333333337" y="771" font-size="11.5" text-anchor="middle" fill="#222233">PostgreSQL</text>
<rect x="242.33333333333334" y="866.5" width="112" height="48" rx="4" fill="#ffffff" stroke="#55606b" stroke-width="1.5"/>
<text x="298.33333333333337" y="887.75" font-size="11.5" text-anchor="middle" fill="#222233">Backup</text>
<text x="298.33333333333337" y="901.25" font-size="11.5" text-anchor="middle" fill="#222233">server</text>
<circle cx="354" cy="32" r="7" fill="none" stroke="#445566" stroke-width="1.5"/>
<path d="M 343 54 q 11 -19 22 0" fill="none" stroke="#445566" stroke-width="1.5"/>
<text x="354" y="66" font-size="10" text-anchor="middle" fill="#223344">User</text>
<text x="354" y="77" font-size="10" text-anchor="middle" fill="#223344">workstations</text>
<rect x="78" y="1015" width="112" height="48" rx="4" fill="#f0eef5" stroke="#9187b3" stroke-width="1.2" stroke-dasharray="5 3"/>
<text x="134" y="1036.25" font-size="11.5" text-anchor="middle" fill="#222233">Partner EDI</text>
<text x="134" y="1049.75" font-size="11.5" text-anchor="middle" fill="#222233">platform</text>
<path d="M 354 89 L 354.33333333333337 164 L 354.33333333333337 296" fill="none" stroke="#444444" stroke-width="1.3" marker-end="url(#arr)"/>
<text x="304.5" y="116.5" font-size="10.5" text-anchor="middle" fill="#333" font-style="italic" stroke="white" stroke-width="2.5" paint-order="stroke" stroke-linejoin="round">Web application</text>
<text x="304.5" y="130" font-size="10.5" text-anchor="middle" fill="#333" font-style="italic" stroke="white" stroke-width="2.5" paint-order="stroke" stroke-linejoin="round">access</text>
<text x="304.5" y="143.5" font-size="9" text-anchor="middle" fill="#777" stroke="white" stroke-width="2.5" paint-order="stroke" stroke-linejoin="round">(HTTPS/443)</text>
<path d="M 335.6666666666667 336 L 335.6666666666667 439 L 221.00000000000003 439 L 221.00000000000003 515" fill="none" stroke="#444444" stroke-width="1.3" marker-end="url(#arr)"/>
<text x="283.1666666666667" y="397.5" font-size="10.5" text-anchor="middle" fill="#333" font-style="italic" stroke="white" stroke-width="2.5" paint-order="stroke" stroke-linejoin="round">Filtered billing</text>
<text x="283.1666666666667" y="411" font-size="10.5" text-anchor="middle" fill="#333" font-style="italic" stroke="white" stroke-width="2.5" paint-order="stroke" stroke-linejoin="round">traffic</text>
<text x="283.1666666666667" y="424.5" font-size="9" text-anchor="middle" fill="#777" stroke="white" stroke-width="2.5" paint-order="stroke" stroke-linejoin="round">(HTTPS/8443)</text>
<path d="M 373 336 L 373 515" fill="none" stroke="#444444" stroke-width="1.3" marker-end="url(#arr)"/>
<text x="414.5" y="397.5" font-size="10.5" text-anchor="middle" fill="#333" font-style="italic" stroke="white" stroke-width="2.5" paint-order="stroke" stroke-linejoin="round">Filtered CRM</text>
<text x="414.5" y="411" font-size="10.5" text-anchor="middle" fill="#333" font-style="italic" stroke="white" stroke-width="2.5" paint-order="stroke" stroke-linejoin="round">traffic</text>
<text x="414.5" y="424.5" font-size="9" text-anchor="middle" fill="#777" stroke="white" stroke-width="2.5" paint-order="stroke" stroke-linejoin="round">(HTTPS/8444)</text>
<path d="M 239.66666666666666 555 L 239.66666666666666 658 L 335.66666666666663 658 L 335.6666666666667 747" fill="none" stroke="#444444" stroke-width="1.3" marker-end="url(#arr)"/>
<text x="199.16666666666666" y="616.5" font-size="10.5" text-anchor="middle" fill="#333" font-style="italic" stroke="white" stroke-width="2.5" paint-order="stroke" stroke-linejoin="round">Read/write</text>
<text x="199.16666666666666" y="630" font-size="10.5" text-anchor="middle" fill="#333" font-style="italic" stroke="white" stroke-width="2.5" paint-order="stroke" stroke-linejoin="round">billing data</text>
<text x="199.16666666666666" y="643.5" font-size="9" text-anchor="middle" fill="#777" stroke="white" stroke-width="2.5" paint-order="stroke" stroke-linejoin="round">(TCP/5432)</text>
<path d="M 373 555 L 373 747" fill="none" stroke="#444444" stroke-width="1.3" marker-end="url(#arr)"/>
<text x="417.5" y="616.5" font-size="10.5" text-anchor="middle" fill="#333" font-style="italic" stroke="white" stroke-width="2.5" paint-order="stroke" stroke-linejoin="round">Read/write</text>
<text x="417.5" y="630" font-size="10.5" text-anchor="middle" fill="#333" font-style="italic" stroke="white" stroke-width="2.5" paint-order="stroke" stroke-linejoin="round">customer data</text>
<text x="417.5" y="643.5" font-size="9" text-anchor="middle" fill="#777" stroke="white" stroke-width="2.5" paint-order="stroke" stroke-linejoin="round">(TCP/5432)</text>
<path d="M 202.33333333333331 555 L 202.33333333333331 595 L 139 595 A 5 5 0 0 0 129 595 L 123 595 L 123 207 L 212.33333333333334 207 L 212.33333333333334 276.5" fill="none" stroke="#444444" stroke-width="1.3" marker-end="url(#arr)"/>
<text x="70.5" y="397.5" font-size="10.5" text-anchor="middle" fill="#333" font-style="italic" stroke="white" stroke-width="2.5" paint-order="stroke" stroke-linejoin="round">Drop invoices to</text>
<text x="70.5" y="411" font-size="10.5" text-anchor="middle" fill="#333" font-style="italic" stroke="white" stroke-width="2.5" paint-order="stroke" stroke-linejoin="round">transmit</text>
<text x="70.5" y="424.5" font-size="9" text-anchor="middle" fill="#777" stroke="white" stroke-width="2.5" paint-order="stroke" stroke-linejoin="round">(SFTP/22)</text>
<path d="M 212.33333333333334 324.5 L 212.33333333333334 376 L 134 376 L 134 1015" fill="none" stroke="#444444" stroke-width="1.3" marker-end="url(#arr)"/>
<text x="102.5" y="967.5" font-size="10.5" text-anchor="middle" fill="#333" font-style="italic" stroke="white" stroke-width="2.5" paint-order="stroke" stroke-linejoin="round">Partner</text>
<text x="102.5" y="981" font-size="10.5" text-anchor="middle" fill="#333" font-style="italic" stroke="white" stroke-width="2.5" paint-order="stroke" stroke-linejoin="round">transfers</text>
<text x="102.5" y="994.5" font-size="9" text-anchor="middle" fill="#777" stroke="white" stroke-width="2.5" paint-order="stroke" stroke-linejoin="round">(AS4/443)</text>
<path d="M 298.33333333333337 797 L 298.33333333333337 866.5" fill="none" stroke="#444444" stroke-width="1.3" marker-end="url(#arr)"/>
<text x="254.83333333333334" y="828.5" font-size="10.5" text-anchor="middle" fill="#333" font-style="italic" stroke="white" stroke-width="2.5" paint-order="stroke" stroke-linejoin="round">Daily backups</text>
<text x="254.83333333333334" y="842" font-size="9" text-anchor="middle" fill="#777" stroke="white" stroke-width="2.5" paint-order="stroke" stroke-linejoin="round">(TCP/9092)</text>
<line x1="20" y1="1083" x2="459" y2="1083" stroke="#ddd" stroke-width="1"/>
<text x="20" y="1105" font-size="11" font-weight="bold" fill="#555">LEGEND</text>
<rect x="150" y="1095" width="26" height="14" rx="3" fill="#f5f5f4" stroke="#8a8a85"/>
<text x="182" y="1106" font-size="10" fill="#444">Site / data center</text>
<rect x="150" y="1117" width="26" height="14" rx="3" fill="#ecf3ec" stroke="#6d9a6d" stroke-dasharray="5 3"/>
<text x="182" y="1128" font-size="10" fill="#444">Network zone</text>
<rect x="150" y="1139" width="26" height="14" rx="3" fill="#ffffff" stroke="#55606b"/>
<text x="182" y="1150" font-size="10" fill="#444">Server / VM</text>
<rect x="150" y="1161" width="26" height="14" rx="3" fill="#fff7e6" stroke="#b08d2a"/>
<text x="182" y="1172" font-size="10" fill="#444">Deployed application</text>
<circle cx="163" cy="1186" r="3" fill="none" stroke="#445566" stroke-width="1.2"/>
<path d="M 158 1196 q 5 -7 10 0" fill="none" stroke="#445566" stroke-width="1.2"/>
<text x="182" y="1194" font-size="10" fill="#444">User / consumer</text>
<rect x="150" y="1205" width="26" height="14" rx="3" fill="#f0eef5" stroke="#9187b3" stroke-dasharray="5 3"/>
<text x="182" y="1216" font-size="10" fill="#444">External system</text>
<line x1="150" y1="1257" x2="176" y2="1257" stroke="#444444" stroke-width="1.3" marker-end="url(#arr)"/>
<text x="182" y="1261" font-size="10" fill="#444">Technical flow (protocol, port)</text>
<text x="150" y="1285" font-size="10" fill="#444" font-style="italic">Inter-zone flows filtered by firewall (flow matrix attached to the architecture dossier)</text>
</svg>
