<svg xmlns="http://www.w3.org/2000/svg" viewBox="0 0 193 885" font-family="Helvetica,Arial,sans-serif">
<defs><marker id="arr" viewBox="0 0 10 10" refX="9" refY="5" markerWidth="7" markerHeight="7" orient="auto-start-reverse">
<path d="M0,0 L10,5 L0,10 z" fill="#444444"/></marker></defs>
<rect width="193" height="885" fill="white"/>
<rect x="10" y="156" width="173" height="527" rx="6" fill="#f5f5f4" stroke="#8a8a85" stroke-width="1.4"/>
<text x="20" y="174" font-size="12" font-weight="bold" fill="#333">Cloud host</text>
<rect x="31" y="189" width="132" height="86" rx="6" fill="#ecf3ec" stroke="#6d9a6d" stroke-width="1.2" stroke-dasharray="5 3"/>
<text x="41" y="207" font-size="12" font-weight="bold" fill="#333">Public zone</text>
<rect x="20" y="368" width="153" height="305" rx="6" fill="#ecf3ec" stroke="#6d9a6d" stroke-width="1.2" stroke-dasharray="5 3"/>
<text x="30" y="386" font-size="12" font-weight="bold" fill="#333">Private zone</text>
<rect x="31" y="401" width="132" height="78" rx="6" fill="#ffffff" stroke="#55606b" stroke-width="1.5"/>
<text x="41" y="419" font-size="12" font-weight="bold" fill="#333">Web VM</text>
<rect x="31" y="572" width="132" height="91" rx="6" fill="#ffffff" stroke="#55606b" stroke-width="1.5"/>
<text x="41" y="590" font-size="12" font-weight="bold" fill="#333">Database</text>
<text x="41" y="603" font-size="12" font-weight="bold" fill="#333">VM</text>
<rect x="41" y="217" width="112" height="48" rx="4" fill="#ffffff" stroke="#55606b" stroke-width="1.5"/>
<text x="97" y="238.25" font-size="11.5" text-anchor="middle" fill="#222233">Load</text>
<text x="97" y="251.75" font-size="11.5" text-anchor="middle" fill="#222233">balancer</text>
<rect x="41" y="429" width="112" height="40" rx="4" fill="#fff7e6" stroke="#b08d2a" stroke-width="1.2"/>
<text x="97" y="453" font-size="11.5" text-anchor="middle" fill="#222233">CMS</text>
<rect x="41" y="613" width="112" height="40" rx="4" fill="#fff7e6" stroke="#b08d2a" stroke-width="1.2"/>
<text x="97" y="637" font-size="11.5" text-anchor="middle" fill="#222233">MySQL</text>
<circle cx="97" cy="32" r="7" fill="none" stroke="#445566" stroke-width="1.5"/>
<path d="M 86 54 q 11 -19 22 0" fill="none" stroke="#445566" stroke-width="1.5"/>
<text x="97" y="66" font-size="10" text-anchor="middle" fill="#223344">Internet</text>
<text x="97" y="77" font-size="10" text-anchor="middle" fill="#223344">visitors</text>
<path d="M 97 89 L 97 217" fill="none" stroke="#444444" stroke-width="1.3" marker-end="url(#arr)"/>
<text x="59.5" y="116.5" font-size="10.5" text-anchor="middle" fill="#333" font-style="italic" stroke="white" stroke-width="2.5" paint-order="stroke" stroke-linejoin="round">Site access</text>
<text x="59.5" y="130" font-size="9" text-anchor="middle" fill="#777" stroke="white" stroke-width="2.5" paint-order="stroke" stroke-linejoin="round">(HTTPS/443)</text>
<path d="M 97 265 L 97 429" fill="none" stroke="#444444" stroke-width="1.3" marker-end="url(#arr)"/>
<text x="64" y="311.5" font-size="10.5" text-anchor="middle" fill="#333" font-style="italic" stroke="white" stroke-width="2.5" paint-order="stroke" stroke-linejoin="round">Balanced</text>
<text x="64" y="325" font-size="10.5" text-anchor="middle" fill="#333" font-style="italic" stroke="white" stroke-width="2.5" paint-order="stroke" stroke-linejoin="round">traffic</text>
<text x="64" y="338.5" font-size="9" text-anchor="middle" fill="#777" stroke="white" stroke-width="2.5" paint-order="stroke" stroke-linejoin="round">(HTTP/8080)</text>
<path d="M 97 469 L 97 613" fill="none" stroke="#444444" stroke-width="1.3" marker-end="url(#arr)"/>
<text x="62.5" y="515.5" font-size="10.5" text-anchor="middle" fill="#333" font-style="italic" stroke="white" stroke-width="2.5" paint-order="stroke" stroke-linejoin="round">Read/write</text>
<text x="62.5" y="529" font-size="10.5" text-anchor="middle" fill="#333" font-style="italic" stroke="white" stroke-width="2.5" paint-order="stroke" stroke-linejoin="round">content</text>
<text x="62.5" y="542.5" font-size="9" text-anchor="middle" fill="#777" stroke="white" stroke-width="2.5" paint-order="stroke" stroke-linejoin="round">(TCP/3306)</text>
<line x1="20" y1="703" x2="173" y2="703" stroke="#ddd" stroke-width="1"/>
<text x="20" y="725" font-size="11" font-weight="bold" fill="#555">LEGEND</text>
<rect x="150" y="715" width="26" height="14" rx="3" fill="#f5f5f4" stroke="#8a8a85"/>
<text x="182" y="726" font-size="10" fill="#444">Site / data center</text>
<rect x="150" y="737" width="26" height="14" rx="3" fill="#ecf3ec" stroke="#6d9a6d" stroke-dasharray="5 3"/>
<text x="182" y="748" font-size="10" fill="#444">Network zone</text>
<rect x="150" y="759" width="26" height="14" rx="3" fill="#ffffff" stroke="#55606b"/>
<text x="182" y="770" font-size="10" fill="#444">Server / VM</text>
<rect x="150" y="781" width="26" height="14" rx="3" fill="#fff7e6" stroke="#b08d2a"/>
<text x="182" y="792" font-size="10" fill="#444">Deployed application</text>
<circle cx="163" cy="806" r="3" fill="none" stroke="#445566" stroke-width="1.2"/>
<path d="M 158 816 q 5 -7 10 0" fill="none" stroke="#445566" stroke-width="1.2"/>
<text x="182" y="814" font-size="10" fill="#444">User / consumer</text>
<line x1="150" y1="855" x2="176" y2="855" stroke="#444444" stroke-width="1.3" marker-end="url(#arr)"/>
<text x="182" y="859" font-size="10" fill="#444">Technical flow (protocol, port)</text>
</svg>
