<svg xmlns="http://www.w3.org/2000/svg" viewBox="0 0 222 860" font-family="Helvetica,Arial,sans-serif">
<defs><marker id="arr" viewBox="0 0 10 10" refX="9" refY="5" markerWidth="7" markerHeight="7" orient="auto-start-reverse">
<path d="M0,0 L10,5 L0,10 z" fill="#444444"/></marker></defs>
<rect width="222" height="860" fill="white"/>
<rect x="10" y="155" width="202" height="502.5" rx="6" fill="#f5f5f4" stroke="#8a8a85" stroke-width="1.4"/>
<text x="20" y="173" font-size="13" font-weight="bold" fill="#333">Cloud host</text>
<rect x="68" y="187" width="126" height="83" rx="6" fill="#ecf3ec" stroke="#6d9a6d" stroke-width="1.2" stroke-dasharray="5 3"/>
<text x="78" y="205" font-size="13" font-weight="bold" fill="#333">Public zone</text>
<rect x="49" y="350.5" width="154" height="298" rx="6" fill="#ecf3ec" stroke="#6d9a6d" stroke-width="1.2" stroke-dasharray="5 3"/>
<text x="59" y="368.5" font-size="13" font-weight="bold" fill="#333">Private zone</text>
<rect x="68" y="382.5" width="126" height="74" rx="6" fill="#ffffff" stroke="#55606b" stroke-width="1.5"/>
<text x="78" y="400.5" font-size="13" font-weight="bold" fill="#333">Web VM</text>
<rect x="68" y="551.5" width="126" height="88" rx="6" fill="#ffffff" stroke="#55606b" stroke-width="1.5"/>
<text x="78" y="569.5" font-size="13" font-weight="bold" fill="#333">Database</text>
<text x="78" y="583.5" font-size="13" font-weight="bold" fill="#333">VM</text>
<rect x="77" y="214" width="108" height="47" rx="4" fill="#ffffff" stroke="#55606b" stroke-width="1.5"/>
<text x="131" y="234.25" font-size="12.5" text-anchor="middle" fill="#222233">Load</text>
<text x="131" y="248.75" font-size="12.5" text-anchor="middle" fill="#222233">balancer</text>
<rect x="77" y="409.5" width="108" height="38" rx="4" fill="#fff7e6" stroke="#b08d2a" stroke-width="1.2"/>
<text x="131" y="432.5" font-size="12.5" text-anchor="middle" fill="#222233">CMS</text>
<rect x="77" y="592.5" width="108" height="38" rx="4" fill="#fff7e6" stroke="#b08d2a" stroke-width="1.2"/>
<text x="131" y="615.5" font-size="12.5" text-anchor="middle" fill="#222233">MySQL</text>
<circle cx="131" cy="32" r="7" fill="none" stroke="#445566" stroke-width="1.5"/>
<path d="M 120 54 q 11 -19 22 0" fill="none" stroke="#445566" stroke-width="1.5"/>
<text x="131" y="66" font-size="11" text-anchor="middle" fill="#223344">Internet</text>
<text x="131" y="77" font-size="11" text-anchor="middle" fill="#223344">visitors</text>
<path d="M 131 87 L 131 214" fill="none" stroke="#444444" stroke-width="1.3" marker-end="url(#arr)"/>
<text x="90.5" y="115.5" font-size="11.5" text-anchor="middle" fill="#333" font-style="italic" stroke="white" stroke-width="2.5" paint-order="stroke" stroke-linejoin="round">Site access</text>
<text x="90.5" y="130" font-size="9" text-anchor="middle" fill="#777" stroke="white" stroke-width="2.5" paint-order="stroke" stroke-linejoin="round">(HTTPS/443)</text>
<path d="M 131 261 L 131 409.5" fill="none" stroke="#444444" stroke-width="1.3" marker-end="url(#arr)"/>
<text x="74" y="307.5" font-size="11.5" text-anchor="middle" fill="#333" font-style="italic" stroke="white" stroke-width="2.5" paint-order="stroke" stroke-linejoin="round">Balanced traffic</text>
<text x="74" y="322" font-size="9" text-anchor="middle" fill="#777" stroke="white" stroke-width="2.5" paint-order="stroke" stroke-linejoin="round">(HTTP/8080)</text>
<path d="M 131 447.5 L 131 592.5" fill="none" stroke="#444444" stroke-width="1.3" marker-end="url(#arr)"/>
<text x="93.5" y="494" font-size="11.5" text-anchor="middle" fill="#333" font-style="italic" stroke="white" stroke-width="2.5" paint-order="stroke" stroke-linejoin="round">Read/write</text>
<text x="93.5" y="508.5" font-size="11.5" text-anchor="middle" fill="#333" font-style="italic" stroke="white" stroke-width="2.5" paint-order="stroke" stroke-linejoin="round">content</text>
<text x="93.5" y="523" font-size="9" text-anchor="middle" fill="#777" stroke="white" stroke-width="2.5" paint-order="stroke" stroke-linejoin="round">(TCP/3306)</text>
<line x1="20" y1="678" x2="202" y2="678" stroke="#ddd" stroke-width="1"/>
<text x="20" y="700" font-size="11" font-weight="bold" fill="#555">LEGEND</text>
<rect x="150" y="690" width="26" height="14" rx="3" fill="#f5f5f4" stroke="#8a8a85"/>
<text x="182" y="701" font-size="10" fill="#444">Site / data center</text>
<rect x="150" y="712" width="26" height="14" rx="3" fill="#ecf3ec" stroke="#6d9a6d" stroke-dasharray="5 3"/>
<text x="182" y="723" font-size="10" fill="#444">Network zone</text>
<rect x="150" y="734" width="26" height="14" rx="3" fill="#ffffff" stroke="#55606b"/>
<text x="182" y="745" font-size="10" fill="#444">Server / VM</text>
<rect x="150" y="756" width="26" height="14" rx="3" fill="#fff7e6" stroke="#b08d2a"/>
<text x="182" y="767" font-size="10" fill="#444">Deployed application</text>
<circle cx="163" cy="781" r="3" fill="none" stroke="#445566" stroke-width="1.2"/>
<path d="M 158 791 q 5 -7 10 0" fill="none" stroke="#445566" stroke-width="1.2"/>
<text x="182" y="789" font-size="10" fill="#444">User / consumer</text>
<line x1="150" y1="830" x2="176" y2="830" stroke="#444444" stroke-width="1.3" marker-end="url(#arr)"/>
<text x="182" y="834" font-size="10" fill="#444">Technical flow (protocol, port)</text>
</svg>
