<svg xmlns="http://www.w3.org/2000/svg" viewBox="0 0 556 1811" font-family="Helvetica,Arial,sans-serif">
<defs><marker id="arr" viewBox="0 0 10 10" refX="9" refY="5" markerWidth="7" markerHeight="7" orient="auto-start-reverse">
<path d="M0,0 L10,5 L0,10 z" fill="#444444"/></marker></defs>
<rect width="556" height="1811" fill="white"/>
<rect x="116" y="169" width="429.8333333333333" height="1011.5" rx="6" fill="#f5f5f4" stroke="#8a8a85" stroke-width="1.4"/>
<text x="126" y="187" font-size="12" font-weight="bold" fill="#333">Main data center</text>
<rect x="212.83333333333331" y="222" width="312" height="256.5" rx="6" fill="#ecf3ec" stroke="#6d9a6d" stroke-width="1.2" stroke-dasharray="5 3"/>
<text x="222.83333333333331" y="240" font-size="12" font-weight="bold" fill="#333">DMZ</text>
<rect x="344.8333333333333" y="372.5" width="132" height="91" rx="6" fill="#ffffff" stroke="#55606b" stroke-width="1.5"/>
<text x="354.8333333333333" y="390.5" font-size="12" font-weight="bold" fill="#333">Reverse proxies</text>
<text x="354.8333333333333" y="403.5" font-size="12" font-weight="bold" fill="#333">(HA)</text>
<rect x="211.99999999999997" y="558" width="311" height="337.5" rx="6" fill="#ecf3ec" stroke="#6d9a6d" stroke-width="1.2" stroke-dasharray="5 3"/>
<text x="221.99999999999997" y="576" font-size="12" font-weight="bold" fill="#333">Application zone</text>
<rect x="226.49999999999997" y="591" width="269" height="91" rx="6" fill="#ffffff" stroke="#55606b" stroke-width="1.5"/>
<text x="236.49999999999997" y="609" font-size="12" font-weight="bold" fill="#333">K8s cluster</text>
<text x="236.49999999999997" y="622" font-size="12" font-weight="bold" fill="#333">front</text>
<rect x="228.99999999999997" y="761.5" width="264" height="99" rx="6" fill="#ffffff" stroke="#55606b" stroke-width="1.5"/>
<text x="238.99999999999997" y="779.5" font-size="12" font-weight="bold" fill="#333">K8s cluster</text>
<text x="238.99999999999997" y="792.5" font-size="12" font-weight="bold" fill="#333">business</text>
<rect x="185.66666666666669" y="1018.5" width="304" height="147" rx="6" fill="#ecf3ec" stroke="#6d9a6d" stroke-width="1.2" stroke-dasharray="5 3"/>
<text x="195.66666666666669" y="1036.5" font-size="12" font-weight="bold" fill="#333">Data zone</text>
<rect x="195.66666666666669" y="1051.5" width="132" height="99" rx="6" fill="#ffffff" stroke="#55606b" stroke-width="1.5"/>
<text x="205.66666666666669" y="1069.5" font-size="12" font-weight="bold" fill="#333">PostgreSQL</text>
<text x="205.66666666666669" y="1082.5" font-size="12" font-weight="bold" fill="#333">cluster</text>
<rect x="347.6666666666667" y="1054.1666666666667" width="132" height="91" rx="6" fill="#ffffff" stroke="#55606b" stroke-width="1.5"/>
<text x="357.6666666666667" y="1072.1666666666667" font-size="12" font-weight="bold" fill="#333">Kafka</text>
<text x="357.6666666666667" y="1085.1666666666667" font-size="12" font-weight="bold" fill="#333">cluster</text>
<rect x="177" y="1270" width="258" height="302.5" rx="6" fill="#f5f5f4" stroke="#8a8a85" stroke-width="1.4"/>
<text x="187" y="1288" font-size="12" font-weight="bold" fill="#333">Disaster-recovery site</text>
<rect x="187" y="1303" width="238" height="259.5" rx="6" fill="#ecf3ec" stroke="#6d9a6d" stroke-width="1.2" stroke-dasharray="5 3"/>
<text x="197" y="1321" font-size="12" font-weight="bold" fill="#333">DR data zone</text>
<rect x="272" y="1336" width="132" height="99" rx="6" fill="#ffffff" stroke="#55606b" stroke-width="1.5"/>
<text x="282" y="1354" font-size="12" font-weight="bold" fill="#333">PostgreSQL</text>
<text x="282" y="1367" font-size="12" font-weight="bold" fill="#333">standby</text>
<rect x="354.8333333333333" y="250" width="112" height="48" rx="4" fill="#ffffff" stroke="#55606b" stroke-width="1.5"/>
<text x="410.8333333333333" y="271.25" font-size="11.5" text-anchor="middle" fill="#222233">Application</text>
<text x="410.8333333333333" y="284.75" font-size="11.5" text-anchor="middle" fill="#222233">firewall (WAF)</text>
<rect x="354.8333333333333" y="413.5" width="112" height="40" rx="4" fill="#fff7e6" stroke="#b08d2a" stroke-width="1.2"/>
<text x="410.8333333333333" y="437.5" font-size="11.5" text-anchor="middle" fill="#222233">Nginx</text>
<rect x="222.83333333333331" y="250" width="112" height="48" rx="4" fill="#ffffff" stroke="#55606b" stroke-width="1.5"/>
<text x="278.8333333333333" y="271.25" font-size="11.5" text-anchor="middle" fill="#222233">Transfer</text>
<text x="278.8333333333333" y="284.75" font-size="11.5" text-anchor="middle" fill="#222233">gateway</text>
<rect x="373.5" y="632" width="112" height="40" rx="4" fill="#fff7e6" stroke="#b08d2a" stroke-width="1.2"/>
<text x="429.5" y="656" font-size="11.5" text-anchor="middle" fill="#222233">Sales front</text>
<rect x="236.49999999999997" y="632" width="117" height="40" rx="4" fill="#fff7e6" stroke="#b08d2a" stroke-width="1.2"/>
<text x="295" y="656" font-size="11.5" text-anchor="middle" fill="#222233">Checkout funnel</text>
<rect x="371" y="802.5" width="112" height="48" rx="4" fill="#fff7e6" stroke="#b08d2a" stroke-width="1.2"/>
<text x="427" y="823.75" font-size="11.5" text-anchor="middle" fill="#222233">Order</text>
<text x="427" y="837.25" font-size="11.5" text-anchor="middle" fill="#222233">management</text>
<rect x="238.99999999999997" y="802.5" width="112" height="48" rx="4" fill="#fff7e6" stroke="#b08d2a" stroke-width="1.2"/>
<text x="295" y="823.75" font-size="11.5" text-anchor="middle" fill="#222233">Payment</text>
<text x="295" y="837.25" font-size="11.5" text-anchor="middle" fill="#222233">hub</text>
<rect x="205.66666666666669" y="1092.5" width="112" height="48" rx="4" fill="#fff7e6" stroke="#b08d2a" stroke-width="1.2"/>
<text x="261.6666666666667" y="1113.75" font-size="11.5" text-anchor="middle" fill="#222233">PostgreSQL</text>
<text x="261.6666666666667" y="1127.25" font-size="11.5" text-anchor="middle" fill="#222233">primary</text>
<rect x="357.6666666666667" y="1095.1666666666667" width="112" height="40" rx="4" fill="#fff7e6" stroke="#b08d2a" stroke-width="1.2"/>
<text x="413.6666666666667" y="1119.1666666666667" font-size="11.5" text-anchor="middle" fill="#222233">Kafka</text>
<rect x="282" y="1377" width="112" height="48" rx="4" fill="#fff7e6" stroke="#b08d2a" stroke-width="1.2"/>
<text x="338" y="1398.25" font-size="11.5" text-anchor="middle" fill="#222233">PostgreSQL</text>
<text x="338" y="1411.75" font-size="11.5" text-anchor="middle" fill="#222233">replica</text>
<rect x="244.66666666666669" y="1504.5" width="112" height="48" rx="4" fill="#ffffff" stroke="#55606b" stroke-width="1.5"/>
<text x="300.6666666666667" y="1525.75" font-size="11.5" text-anchor="middle" fill="#222233">Backup</text>
<text x="300.6666666666667" y="1539.25" font-size="11.5" text-anchor="middle" fill="#222233">server</text>
<circle cx="410.5" cy="32" r="7" fill="none" stroke="#445566" stroke-width="1.5"/>
<path d="M 399.5 54 q 11 -19 22 0" fill="none" stroke="#445566" stroke-width="1.5"/>
<text x="410.5" y="66" font-size="10" text-anchor="middle" fill="#223344">Internet</text>
<text x="410.5" y="77" font-size="10" text-anchor="middle" fill="#223344">customers</text>
<rect x="138" y="1593" width="112" height="40" rx="4" fill="#f0eef5" stroke="#9187b3" stroke-width="1.2" stroke-dasharray="5 3"/>
<text x="194" y="1617" font-size="11.5" text-anchor="middle" fill="#222233">PSP</text>
<rect x="15" y="1265" width="112" height="48" rx="4" fill="#f0eef5" stroke="#9187b3" stroke-width="1.2" stroke-dasharray="5 3"/>
<text x="71" y="1286.25" font-size="11.5" text-anchor="middle" fill="#222233">Carrier</text>
<text x="71" y="1299.75" font-size="11.5" text-anchor="middle" fill="#222233">platforms</text>
<path d="M 411 89 L 410.8333333333333 164 L 410.8333333333333 250" fill="none" stroke="#444444" stroke-width="1.3" marker-end="url(#arr)"/>
<text x="376.5" y="116.5" font-size="10.5" text-anchor="middle" fill="#333" font-style="italic" stroke="white" stroke-width="2.5" paint-order="stroke" stroke-linejoin="round">Client web</text>
<text x="376.5" y="130" font-size="10.5" text-anchor="middle" fill="#333" font-style="italic" stroke="white" stroke-width="2.5" paint-order="stroke" stroke-linejoin="round">traffic</text>
<text x="376.5" y="143.5" font-size="9" text-anchor="middle" fill="#777" stroke="white" stroke-width="2.5" paint-order="stroke" stroke-linejoin="round">(HTTPS/443)</text>
<path d="M 410.8333333333333 298 L 410.83333333333326 413.5" fill="none" stroke="#444444" stroke-width="1.3" marker-end="url(#arr)"/>
<text x="464.3333333333333" y="329.5" font-size="10.5" text-anchor="middle" fill="#333" font-style="italic" stroke="white" stroke-width="2.5" paint-order="stroke" stroke-linejoin="round">Filtered traffic</text>
<text x="464.3333333333333" y="343" font-size="9" text-anchor="middle" fill="#777" stroke="white" stroke-width="2.5" paint-order="stroke" stroke-linejoin="round">(HTTPS/443)</text>
<path d="M 429.5 453.5 L 429.5 632" fill="none" stroke="#444444" stroke-width="1.3" marker-end="url(#arr)"/>
<text x="386" y="515" font-size="10.5" text-anchor="middle" fill="#333" font-style="italic" stroke="white" stroke-width="2.5" paint-order="stroke" stroke-linejoin="round">Front routing</text>
<text x="386" y="528.5" font-size="9" text-anchor="middle" fill="#777" stroke="white" stroke-width="2.5" paint-order="stroke" stroke-linejoin="round">(HTTPS/8443)</text>
<path d="M 392.16666666666663 453.5 L 392.1666666666666 493.5 L 333.4999999999999 493.5 L 333.4999999999999 543 L 294.9999999999999 543 L 295 632" fill="none" stroke="#444444" stroke-width="1.3" marker-end="url(#arr)"/>
<text x="281" y="515" font-size="10.5" text-anchor="middle" fill="#333" font-style="italic" stroke="white" stroke-width="2.5" paint-order="stroke" stroke-linejoin="round">Checkout routing</text>
<text x="281" y="528.5" font-size="9" text-anchor="middle" fill="#777" stroke="white" stroke-width="2.5" paint-order="stroke" stroke-linejoin="round">(HTTPS/8444)</text>
<path d="M 410.83333333333326 672 L 410.83333333333326 746.5 L 427 746.5 L 427 802.5" fill="none" stroke="#444444" stroke-width="1.3" marker-end="url(#arr)"/>
<text x="447.33333333333326" y="718.5" font-size="10.5" text-anchor="middle" fill="#333" font-style="italic" stroke="white" stroke-width="2.5" paint-order="stroke" stroke-linejoin="round">Orders API</text>
<text x="447.33333333333326" y="732" font-size="9" text-anchor="middle" fill="#777" stroke="white" stroke-width="2.5" paint-order="stroke" stroke-linejoin="round">(HTTPS/8443)</text>
<path d="M 295 672 L 295 802.5" fill="none" stroke="#444444" stroke-width="1.3" marker-end="url(#arr)"/>
<text x="257.5" y="718.5" font-size="10.5" text-anchor="middle" fill="#333" font-style="italic" stroke="white" stroke-width="2.5" paint-order="stroke" stroke-linejoin="round">Payment API</text>
<text x="257.5" y="732" font-size="9" text-anchor="middle" fill="#777" stroke="white" stroke-width="2.5" paint-order="stroke" stroke-linejoin="round">(HTTPS/8445)</text>
<path d="M 276.3333333333333 850.5 L 276.33333333333326 910.5 L 136.99999999999997 910.5 L 137 1196 L 166 1196 L 166 1583 L 194 1583 L 194 1593" fill="none" stroke="#444444" stroke-width="1.3" marker-end="url(#arr)"/>
<text x="122.50000000000003" y="1217.5" font-size="10.5" text-anchor="middle" fill="#333" font-style="italic" stroke="white" stroke-width="2.5" paint-order="stroke" stroke-linejoin="round">Authorization</text>
<text x="122.50000000000003" y="1231" font-size="10.5" text-anchor="middle" fill="#333" font-style="italic" stroke="white" stroke-width="2.5" paint-order="stroke" stroke-linejoin="round">and capture</text>
<text x="122.50000000000003" y="1244.5" font-size="9" text-anchor="middle" fill="#777" stroke="white" stroke-width="2.5" paint-order="stroke" stroke-linejoin="round">(HTTPS/443)</text>
<path d="M 399 850.5 L 398.99999999999994 930.5 L 305 930.5 L 305 1003.5 L 280.3333333333333 1003.5 L 280.3333333333333 1092.5" fill="none" stroke="#444444" stroke-width="1.3" marker-end="url(#arr)"/>
<text x="270.5" y="962" font-size="10.5" text-anchor="middle" fill="#333" font-style="italic" stroke="white" stroke-width="2.5" paint-order="stroke" stroke-linejoin="round">Read/write</text>
<text x="270.5" y="975.5" font-size="10.5" text-anchor="middle" fill="#333" font-style="italic" stroke="white" stroke-width="2.5" paint-order="stroke" stroke-linejoin="round">orders</text>
<text x="270.5" y="989" font-size="9" text-anchor="middle" fill="#777" stroke="white" stroke-width="2.5" paint-order="stroke" stroke-linejoin="round">(TCP/5432)</text>
<path d="M 313.66666666666663 850.5 L 313.66666666666663 920.5 L 226.99999999999997 920.5 L 226.99999999999997 1003.5 L 242.99999999999997 1003.5 L 243 1092.5" fill="none" stroke="#444444" stroke-width="1.3" marker-end="url(#arr)"/>
<text x="186.50000000000003" y="962" font-size="10.5" text-anchor="middle" fill="#333" font-style="italic" stroke="white" stroke-width="2.5" paint-order="stroke" stroke-linejoin="round">Read/write</text>
<text x="186.50000000000003" y="975.5" font-size="10.5" text-anchor="middle" fill="#333" font-style="italic" stroke="white" stroke-width="2.5" paint-order="stroke" stroke-linejoin="round">transactions</text>
<text x="186.50000000000003" y="989" font-size="9" text-anchor="middle" fill="#777" stroke="white" stroke-width="2.5" paint-order="stroke" stroke-linejoin="round">(TCP/5432)</text>
<path d="M 427 850.5 L 426.99999999999994 940.5 L 395 940.5 L 395 1095.1666666666665" fill="none" stroke="#444444" stroke-width="1.3" marker-end="url(#arr)"/>
<text x="354.5" y="968.75" font-size="10.5" text-anchor="middle" fill="#333" font-style="italic" stroke="white" stroke-width="2.5" paint-order="stroke" stroke-linejoin="round">Order events</text>
<text x="354.5" y="982.25" font-size="9" text-anchor="middle" fill="#777" stroke="white" stroke-width="2.5" paint-order="stroke" stroke-linejoin="round">(TCP/9092)</text>
<path d="M 448.16666666666663 672 L 448.16666666666663 697 L 503 697 L 503 1003.5 L 432.3333333333333 1003.5 L 432.3333333333333 1095.1666666666665" fill="none" stroke="#444444" stroke-width="1.3" marker-end="url(#arr)"/>
<text x="453.5" y="968.75" font-size="10.5" text-anchor="middle" fill="#333" font-style="italic" stroke="white" stroke-width="2.5" paint-order="stroke" stroke-linejoin="round">Browsing events</text>
<text x="453.5" y="982.25" font-size="9" text-anchor="middle" fill="#777" stroke="white" stroke-width="2.5" paint-order="stroke" stroke-linejoin="round">(TCP/9092)</text>
<path d="M 455 850.5 L 455 875.5 L 498 875.5 A 5 5 0 0 1 508 875.5 L 513 875.5 L 513 910.5 L 534.8333333333333 910.5 L 534.8333333333333 207 L 415.8333333333333 207 A 5 5 0 0 0 405.8333333333333 207 L 278.83333333333326 207 L 278.83333333333326 250" fill="none" stroke="#444444" stroke-width="1.3" marker-end="url(#arr)"/>
<text x="491.33333333333326" y="515" font-size="10.5" text-anchor="middle" fill="#333" font-style="italic" stroke="white" stroke-width="2.5" paint-order="stroke" stroke-linejoin="round">Carrier files</text>
<text x="491.33333333333326" y="528.5" font-size="9" text-anchor="middle" fill="#777" stroke="white" stroke-width="2.5" paint-order="stroke" stroke-linejoin="round">(SFTP/22)</text>
<path d="M 278.8333333333333 298 L 278.83333333333326 493.5 L 125.99999999999994 493.5 L 126 1196 L 71 1196 L 71 1265" fill="none" stroke="#444444" stroke-width="1.3" marker-end="url(#arr)"/>
<text x="39.5" y="1217.5" font-size="10.5" text-anchor="middle" fill="#333" font-style="italic" stroke="white" stroke-width="2.5" paint-order="stroke" stroke-linejoin="round">Logistics</text>
<text x="39.5" y="1231" font-size="10.5" text-anchor="middle" fill="#333" font-style="italic" stroke="white" stroke-width="2.5" paint-order="stroke" stroke-linejoin="round">exchanges</text>
<text x="39.5" y="1244.5" font-size="9" text-anchor="middle" fill="#777" stroke="white" stroke-width="2.5" paint-order="stroke" stroke-linejoin="round">(AS4/443)</text>
<path d="M 261.6666666666667 1140.5 L 262 1185.5 L 262 1255 L 338 1255 L 338 1377" fill="none" stroke="#444444" stroke-width="1.3" marker-end="url(#arr)"/>
<text x="224.5" y="1213.5" font-size="10.5" text-anchor="middle" fill="#333" font-style="italic" stroke="white" stroke-width="2.5" paint-order="stroke" stroke-linejoin="round">Async</text>
<text x="224.5" y="1227" font-size="10.5" text-anchor="middle" fill="#333" font-style="italic" stroke="white" stroke-width="2.5" paint-order="stroke" stroke-linejoin="round">replication</text>
<text x="224.5" y="1240.5" font-size="9" text-anchor="middle" fill="#777" stroke="white" stroke-width="2.5" paint-order="stroke" stroke-linejoin="round">(TCP/5432)</text>
<path d="M 282 1435 L 282 1504.5" fill="none" stroke="#444444" stroke-width="1.3" marker-end="url(#arr)"/>
<text x="238.5" y="1466.5" font-size="10.5" text-anchor="middle" fill="#333" font-style="italic" stroke="white" stroke-width="2.5" paint-order="stroke" stroke-linejoin="round">Daily backups</text>
<text x="238.5" y="1480" font-size="9" text-anchor="middle" fill="#777" stroke="white" stroke-width="2.5" paint-order="stroke" stroke-linejoin="round">(TCP/9095)</text>
<path d="M 413.6666666666667 1135.1666666666665 L 414 1185.5 L 414 1494.4999999999998 L 319.3333333333333 1494.4999999999998 L 319.3333333333333 1504.4999999999998" fill="none" stroke="#444444" stroke-width="1.3" marker-end="url(#arr)"/>
<text x="464.5" y="1213.4999999999998" font-size="10.5" text-anchor="middle" fill="#333" font-style="italic" stroke="white" stroke-width="2.5" paint-order="stroke" stroke-linejoin="round">Topic archiving</text>
<text x="464.5" y="1226.9999999999998" font-size="9" text-anchor="middle" fill="#777" stroke="white" stroke-width="2.5" paint-order="stroke" stroke-linejoin="round">(TCP/9095)</text>
<line x1="20" y1="1653" x2="536" y2="1653" stroke="#ddd" stroke-width="1"/>
<text x="20" y="1675" font-size="11" font-weight="bold" fill="#555">LEGEND</text>
<rect x="150" y="1665" width="26" height="14" rx="3" fill="#f5f5f4" stroke="#8a8a85"/>
<text x="182" y="1676" font-size="10" fill="#444">Site / data center</text>
<rect x="308" y="1665" width="26" height="14" rx="3" fill="#ecf3ec" stroke="#6d9a6d" stroke-dasharray="5 3"/>
<text x="340" y="1676" font-size="10" fill="#444">Network zone</text>
<rect x="150" y="1687" width="26" height="14" rx="3" fill="#ffffff" stroke="#55606b"/>
<text x="182" y="1698" font-size="10" fill="#444">Server / VM</text>
<rect x="272" y="1687" width="26" height="14" rx="3" fill="#fff7e6" stroke="#b08d2a"/>
<text x="304" y="1698" font-size="10" fill="#444">Deployed application</text>
<circle cx="163" cy="1712" r="3" fill="none" stroke="#445566" stroke-width="1.2"/>
<path d="M 158 1722 q 5 -7 10 0" fill="none" stroke="#445566" stroke-width="1.2"/>
<text x="182" y="1720" font-size="10" fill="#444">User / consumer</text>
<rect x="292" y="1709" width="26" height="14" rx="3" fill="#f0eef5" stroke="#9187b3" stroke-dasharray="5 3"/>
<text x="324" y="1720" font-size="10" fill="#444">External system</text>
<line x1="150" y1="1761" x2="176" y2="1761" stroke="#444444" stroke-width="1.3" marker-end="url(#arr)"/>
<text x="182" y="1765" font-size="10" fill="#444">Technical flow (protocol, port)</text>
<text x="150" y="1789" font-size="10" fill="#444" font-style="italic">Inter-zone and inter-site flows filtered by firewall (flow matrix in the architecture dossier)</text>
</svg>
