<svg xmlns="http://www.w3.org/2000/svg" viewBox="0 0 662 1131" font-family="Helvetica,Arial,sans-serif">
<defs><marker id="arr" viewBox="0 0 10 10" refX="9" refY="5" markerWidth="7" markerHeight="7" orient="auto-start-reverse">
<path d="M0,0 L10,5 L0,10 z" fill="#5a6675"/></marker></defs>
<rect width="662" height="1131" fill="#ffffff"/>
<rect x="10" y="143" width="642" height="707" rx="6" fill="#f3f5f6" stroke="#7c8794" stroke-width="1.4"/>
<text x="20" y="161" font-size="13" font-weight="bold" fill="#17202c">Main data center</text>
<rect x="352" y="610.375" width="272" height="134" rx="6" fill="#eaf5ef" stroke="#1a8f66" stroke-width="1.2" stroke-dasharray="5 3"/>
<text x="362" y="628.375" font-size="13" font-weight="bold" fill="#17202c">DMZ</text>
<rect x="489" y="642.375" width="126" height="88" rx="6" fill="#ffffff" stroke="#48546a" stroke-width="1.5"/>
<text x="499" y="660.375" font-size="13" font-weight="bold" fill="#17202c">Reverse proxy</text>
<text x="499" y="674.375" font-size="13" font-weight="bold" fill="#17202c">(HA pair)</text>
<rect x="19" y="195" width="450" height="323" rx="6" fill="#eaf5ef" stroke="#1a8f66" stroke-width="1.2" stroke-dasharray="5 3"/>
<text x="29" y="213" font-size="13" font-weight="bold" fill="#17202c">Application zone</text>
<rect x="334" y="333.5" width="126" height="74" rx="6" fill="#ffffff" stroke="#48546a" stroke-width="1.5"/>
<text x="344" y="351.5" font-size="13" font-weight="bold" fill="#17202c">Billing VM</text>
<rect x="188" y="333.5" width="126" height="74" rx="6" fill="#ffffff" stroke="#48546a" stroke-width="1.5"/>
<text x="198" y="351.5" font-size="13" font-weight="bold" fill="#17202c">CRM VM</text>
<rect x="111" y="586.5" width="208" height="234.5" rx="6" fill="#eaf5ef" stroke="#1a8f66" stroke-width="1.2" stroke-dasharray="5 3"/>
<text x="121" y="604.5" font-size="13" font-weight="bold" fill="#17202c">Data zone</text>
<rect x="184" y="618.5" width="126" height="88" rx="6" fill="#ffffff" stroke="#48546a" stroke-width="1.5"/>
<text x="194" y="636.5" font-size="13" font-weight="bold" fill="#17202c">Database</text>
<text x="194" y="650.5" font-size="13" font-weight="bold" fill="#17202c">server</text>
<rect x="498" y="683.375" width="108" height="38" rx="4" fill="#fdf4e3" stroke="#c88a2e" stroke-width="1.2"/>
<text x="552" y="706.375" font-size="12.5" text-anchor="middle" fill="#17202c">WAF</text>
<rect x="361" y="662.875" width="108" height="47" rx="4" fill="#ffffff" stroke="#48546a" stroke-width="1.5"/>
<text x="415" y="683.125" font-size="12.5" text-anchor="middle" fill="#17202c">Transfer</text>
<text x="415" y="697.625" font-size="12.5" text-anchor="middle" fill="#17202c">gateway</text>
<rect x="87" y="222" width="108" height="38" rx="4" fill="#f5e6dd" stroke="#b85a30" stroke-width="1.3"/>
<path d="M 95 230 L 109 230 Q 111 235 102 242 Q 93 235 95 230" fill="none" stroke="#b85a30" stroke-width="1.3"/>
<text x="151" y="245" font-size="12.5" text-anchor="middle" fill="#17202c">Gateway</text>
<rect x="60" y="347" width="108" height="47" rx="4" fill="#fdefe3" stroke="#d1600f" stroke-width="1.3"/>
<rect x="66" y="353" width="18" height="14" rx="3" fill="none" stroke="#d1600f" stroke-width="1.3"/>
<path d="M 70 356 v -4 a 5 5 0 0 1 10 0 v 4" fill="none" stroke="#d1600f" stroke-width="1.3"/>
<circle cx="75" cy="363" r="2.5" fill="#d1600f"/>
<text x="124" y="367.25" font-size="12.5" text-anchor="middle" fill="#17202c">OAuth2</text>
<text x="124" y="381.75" font-size="12.5" text-anchor="middle" fill="#17202c">proxy</text>
<rect x="60" y="471" width="108" height="38" rx="4" fill="#e0f0f0" stroke="#3a8f8f" stroke-width="1.3"/>
<text x="114" y="494" font-size="12.5" text-anchor="middle" fill="#17202c">LDAP / IdP</text>
<rect x="343" y="360.5" width="108" height="38" rx="4" fill="#fdf4e3" stroke="#c88a2e" stroke-width="1.2"/>
<text x="397" y="383.5" font-size="12.5" text-anchor="middle" fill="#17202c">Billing</text>
<rect x="197" y="360.5" width="108" height="38" rx="4" fill="#fdf4e3" stroke="#c88a2e" stroke-width="1.2"/>
<text x="251" y="383.5" font-size="12.5" text-anchor="middle" fill="#17202c">CRM</text>
<rect x="193" y="659.5" width="108" height="38" rx="4" fill="#fdf4e3" stroke="#c88a2e" stroke-width="1.2"/>
<text x="247" y="682.5" font-size="12.5" text-anchor="middle" fill="#17202c">PostgreSQL</text>
<rect x="139" y="765" width="108" height="47" rx="4" fill="#ffffff" stroke="#48546a" stroke-width="1.5"/>
<text x="193" y="785.25" font-size="12.5" text-anchor="middle" fill="#17202c">Backup</text>
<text x="193" y="799.75" font-size="12.5" text-anchor="middle" fill="#17202c">server</text>
<circle cx="552" cy="32" r="7" fill="none" stroke="#1f5e91" stroke-width="1.5"/>
<path d="M 541 54 q 11 -19 22 0" fill="none" stroke="#1f5e91" stroke-width="1.5"/>
<text x="552" y="66" font-size="11" text-anchor="middle" fill="#20364c">User</text>
<text x="552" y="77" font-size="11" text-anchor="middle" fill="#20364c">workstations</text>
<rect x="361" y="906" width="108" height="47" rx="4" fill="#f4eff8" stroke="#8659a6" stroke-width="1.2" stroke-dasharray="5 3"/>
<text x="415" y="926.25" font-size="12.5" text-anchor="middle" fill="#17202c">Partner EDI</text>
<text x="415" y="940.75" font-size="12.5" text-anchor="middle" fill="#17202c">platform</text>
<path d="M 552 87 L 552 683.375" fill="none" stroke="#5a6675" stroke-width="1.3" marker-end="url(#arr)"/>
<text x="511.5" y="115.5" font-size="11.5" text-anchor="middle" fill="#3a4553" font-style="italic" stroke="#ffffff" stroke-width="2.5" paint-order="stroke" stroke-linejoin="round">(HTTPS/443)</text>
<path d="M 552 721.375 L 552 831 L 642 831 L 642 180 L 557 180 A 5 5 0 0 0 547 180 L 141 180 L 141 222" fill="none" stroke="#5a6675" stroke-width="1.3" marker-end="url(#arr)"/>
<text x="601.5" y="555.5" font-size="11.5" text-anchor="middle" fill="#3a4553" font-style="italic" stroke="#ffffff" stroke-width="2.5" paint-order="stroke" stroke-linejoin="round">(HTTPS/443)</text>
<path d="M 379 398.5 L 379 533 L 265 533 L 265 659.5" fill="none" stroke="#5a6675" stroke-width="1.3" marker-end="url(#arr)"/>
<text x="303.5" y="555.5" font-size="11.5" text-anchor="middle" fill="#3a4553" font-style="italic" stroke="#ffffff" stroke-width="2.5" paint-order="stroke" stroke-linejoin="round">(TCP/5432)</text>
<path d="M 251 398.5 L 251 571.5 L 229 571.5 L 229 659.5" fill="none" stroke="#5a6675" stroke-width="1.3" marker-end="url(#arr)"/>
<text x="213.5" y="555.5" font-size="11.5" text-anchor="middle" fill="#3a4553" font-style="italic" stroke="#ffffff" stroke-width="2.5" paint-order="stroke" stroke-linejoin="round">(TCP/5432)</text>
<path d="M 114 260 L 114 347" fill="none" stroke="#5a6675" stroke-width="1.3" marker-end="url(#arr)"/>
<text x="70" y="302.5" font-size="11.5" text-anchor="middle" fill="#3a4553" font-style="italic" stroke="#ffffff" stroke-width="2.5" paint-order="stroke" stroke-linejoin="round">(HTTPS/8443)</text>
<path d="M 114 394 L 114 471" fill="none" stroke="#5a6675" stroke-width="1.3" marker-end="url(#arr)"/>
<text x="73.5" y="445" font-size="11.5" text-anchor="middle" fill="#3a4553" font-style="italic" stroke="#ffffff" stroke-width="2.5" paint-order="stroke" stroke-linejoin="round">(LDAPS/636)</text>
<path d="M 168 260 L 168 270 L 397 270 L 397 360.5" fill="none" stroke="#5a6675" stroke-width="1.3" marker-end="url(#arr)"/>
<text x="353" y="302.5" font-size="11.5" text-anchor="middle" fill="#3a4553" font-style="italic" stroke="#ffffff" stroke-width="2.5" paint-order="stroke" stroke-linejoin="round">(HTTPS/8443)</text>
<path d="M 141 260 L 141 280 L 251 280 L 251 360.5" fill="none" stroke="#5a6675" stroke-width="1.3" marker-end="url(#arr)"/>
<text x="207" y="302.5" font-size="11.5" text-anchor="middle" fill="#3a4553" font-style="italic" stroke="#ffffff" stroke-width="2.5" paint-order="stroke" stroke-linejoin="round">(HTTPS/8444)</text>
<path d="M 415 398.5 L 415 662.875" fill="none" stroke="#5a6675" stroke-width="1.3" marker-end="url(#arr)"/>
<text x="381" y="555.5" font-size="11.5" text-anchor="middle" fill="#3a4553" font-style="italic" stroke="#ffffff" stroke-width="2.5" paint-order="stroke" stroke-linejoin="round">(SFTP/22)</text>
<path d="M 415 709.875 L 415 906" fill="none" stroke="#5a6675" stroke-width="1.3" marker-end="url(#arr)"/>
<text x="381" y="883.5" font-size="11.5" text-anchor="middle" fill="#3a4553" font-style="italic" stroke="#ffffff" stroke-width="2.5" paint-order="stroke" stroke-linejoin="round">(AS4/443)</text>
<path d="M 193 706.5 L 193 765" fill="none" stroke="#5a6675" stroke-width="1.3" marker-end="url(#arr)"/>
<text x="155.5" y="739" font-size="11.5" text-anchor="middle" fill="#3a4553" font-style="italic" stroke="#ffffff" stroke-width="2.5" paint-order="stroke" stroke-linejoin="round">(TCP/9092)</text>
<line x1="20" y1="973" x2="642" y2="973" stroke="#e6e9ee" stroke-width="1"/>
<text x="20" y="995" font-size="11" font-weight="bold" fill="#3a4553">LEGEND</text>
<rect x="150" y="985" width="26" height="14" rx="3" fill="#f3f5f6" stroke="#7c8794"/>
<text x="182" y="996" font-size="10" fill="#17202c">Site / data center</text>
<rect x="308" y="985" width="26" height="14" rx="3" fill="#eaf5ef" stroke="#1a8f66" stroke-dasharray="5 3"/>
<text x="340" y="996" font-size="10" fill="#17202c">Network zone</text>
<rect x="435" y="985" width="26" height="14" rx="3" fill="#ffffff" stroke="#48546a"/>
<text x="467" y="996" font-size="10" fill="#17202c">Server / VM</text>
<rect x="150" y="1007" width="26" height="14" rx="3" fill="#fdf4e3" stroke="#c88a2e"/>
<text x="182" y="1018" font-size="10" fill="#17202c">Deployed application</text>
<rect x="318" y="1007" width="26" height="14" rx="3" fill="#f5e6dd" stroke="#b85a30"/>
<text x="350" y="1018" font-size="10" fill="#17202c">Gateway / reverse proxy</text>
<rect x="150" y="1029" width="26" height="14" rx="3" fill="#fdefe3" stroke="#d1600f"/>
<text x="182" y="1040" font-size="10" fill="#17202c">Auth middleware</text>
<rect x="292" y="1029" width="26" height="14" rx="3" fill="#e0f0f0" stroke="#3a8f8f"/>
<text x="324" y="1040" font-size="10" fill="#17202c">Identity provider (IdP)</text>
<circle cx="163" cy="1054" r="3" fill="none" stroke="#1f5e91" stroke-width="1.2"/>
<path d="M 158 1064 q 5 -7 10 0" fill="none" stroke="#1f5e91" stroke-width="1.2"/>
<text x="182" y="1062" font-size="10" fill="#17202c">User / consumer</text>
<rect x="292" y="1051" width="26" height="14" rx="3" fill="#f4eff8" stroke="#8659a6" stroke-dasharray="5 3"/>
<text x="324" y="1062" font-size="10" fill="#17202c">External system</text>
<line x1="150" y1="1081" x2="176" y2="1081" stroke="#5a6675" stroke-width="1.3" marker-end="url(#arr)"/>
<text x="182" y="1085" font-size="10" fill="#17202c">Technical flow (protocol, port)</text>
<text x="150" y="1109" font-size="10" fill="#17202c" font-style="italic">Inter-zone flows filtered by firewall (flow matrix attached to the architecture dossier)</text>
</svg>
