<svg xmlns="http://www.w3.org/2000/svg" viewBox="0 0 463 1308" font-family="Helvetica,Arial,sans-serif">
<defs><marker id="arr" viewBox="0 0 10 10" refX="9" refY="5" markerWidth="7" markerHeight="7" orient="auto-start-reverse">
<path d="M0,0 L10,5 L0,10 z" fill="#5a6675"/></marker></defs>
<rect width="463" height="1308" fill="#ffffff"/>
<rect x="10" y="169" width="443" height="766" rx="6" fill="#f3f5f6" stroke="#7c8794" stroke-width="1.4"/>
<text x="20" y="187" font-size="13" font-weight="bold" fill="#17202c">Main data center</text>
<rect x="133" y="221" width="272" height="134" rx="6" fill="#eaf5ef" stroke="#1a8f66" stroke-width="1.2" stroke-dasharray="5 3"/>
<text x="143" y="239" font-size="13" font-weight="bold" fill="#17202c">DMZ</text>
<rect x="270" y="253" width="126" height="88" rx="6" fill="#ffffff" stroke="#48546a" stroke-width="1.5"/>
<text x="280" y="271" font-size="13" font-weight="bold" fill="#17202c">Reverse proxy</text>
<text x="280" y="285" font-size="13" font-weight="bold" fill="#17202c">(HA pair)</text>
<rect x="133" y="450" width="290" height="120" rx="6" fill="#eaf5ef" stroke="#1a8f66" stroke-width="1.2" stroke-dasharray="5 3"/>
<text x="143" y="468" font-size="13" font-weight="bold" fill="#17202c">Application zone</text>
<rect x="142" y="482" width="126" height="74" rx="6" fill="#ffffff" stroke="#48546a" stroke-width="1.5"/>
<text x="152" y="500" font-size="13" font-weight="bold" fill="#17202c">Billing VM</text>
<rect x="288" y="482" width="126" height="74" rx="6" fill="#ffffff" stroke="#48546a" stroke-width="1.5"/>
<text x="298" y="500" font-size="13" font-weight="bold" fill="#17202c">CRM VM</text>
<rect x="211" y="665" width="194" height="261" rx="6" fill="#eaf5ef" stroke="#1a8f66" stroke-width="1.2" stroke-dasharray="5 3"/>
<text x="221" y="683" font-size="13" font-weight="bold" fill="#17202c">Data zone</text>
<rect x="270" y="697" width="126" height="88" rx="6" fill="#ffffff" stroke="#48546a" stroke-width="1.5"/>
<text x="280" y="715" font-size="13" font-weight="bold" fill="#17202c">Database</text>
<text x="280" y="729" font-size="13" font-weight="bold" fill="#17202c">server</text>
<rect x="279" y="294" width="108" height="38" rx="4" fill="#fdf4e3" stroke="#c88a2e" stroke-width="1.2"/>
<text x="333" y="317" font-size="12.5" text-anchor="middle" fill="#17202c">WAF</text>
<rect x="142" y="273.5" width="108" height="47" rx="4" fill="#ffffff" stroke="#48546a" stroke-width="1.5"/>
<text x="196" y="293.75" font-size="12.5" text-anchor="middle" fill="#17202c">Transfer</text>
<text x="196" y="308.25" font-size="12.5" text-anchor="middle" fill="#17202c">gateway</text>
<rect x="151" y="509" width="108" height="38" rx="4" fill="#fdf4e3" stroke="#c88a2e" stroke-width="1.2"/>
<text x="205" y="532" font-size="12.5" text-anchor="middle" fill="#17202c">Billing</text>
<rect x="297" y="509" width="108" height="38" rx="4" fill="#fdf4e3" stroke="#c88a2e" stroke-width="1.2"/>
<text x="351" y="532" font-size="12.5" text-anchor="middle" fill="#17202c">CRM</text>
<rect x="279" y="738" width="108" height="38" rx="4" fill="#fdf4e3" stroke="#c88a2e" stroke-width="1.2"/>
<text x="333" y="761" font-size="12.5" text-anchor="middle" fill="#17202c">PostgreSQL</text>
<rect x="225" y="870" width="108" height="47" rx="4" fill="#ffffff" stroke="#48546a" stroke-width="1.5"/>
<text x="279" y="890.25" font-size="12.5" text-anchor="middle" fill="#17202c">Backup</text>
<text x="279" y="904.75" font-size="12.5" text-anchor="middle" fill="#17202c">server</text>
<circle cx="333" cy="32" r="7" fill="none" stroke="#1f5e91" stroke-width="1.5"/>
<path d="M 322 54 q 11 -19 22 0" fill="none" stroke="#1f5e91" stroke-width="1.5"/>
<text x="333" y="66" font-size="11" text-anchor="middle" fill="#20364c">User</text>
<text x="333" y="77" font-size="11" text-anchor="middle" fill="#20364c">workstations</text>
<rect x="68" y="1017" width="108" height="47" rx="4" fill="#f4eff8" stroke="#8659a6" stroke-width="1.2" stroke-dasharray="5 3"/>
<text x="122" y="1037.25" font-size="12.5" text-anchor="middle" fill="#17202c">Partner EDI</text>
<text x="122" y="1051.75" font-size="12.5" text-anchor="middle" fill="#17202c">platform</text>
<path d="M 333 87 L 333 294" fill="none" stroke="#5a6675" stroke-width="1.3" marker-end="url(#arr)"/>
<text x="279.5" y="115.5" font-size="11.5" text-anchor="middle" fill="#3a4553" font-style="italic" stroke="#ffffff" stroke-width="2.5" paint-order="stroke" stroke-linejoin="round">Web application</text>
<text x="279.5" y="130" font-size="11.5" text-anchor="middle" fill="#3a4553" font-style="italic" stroke="#ffffff" stroke-width="2.5" paint-order="stroke" stroke-linejoin="round">access</text>
<text x="279.5" y="144.5" font-size="9" text-anchor="middle" fill="#79828f" stroke="#ffffff" stroke-width="2.5" paint-order="stroke" stroke-linejoin="round">(HTTPS/443)</text>
<path d="M 315 332 L 315 435 L 205 435 L 205 509" fill="none" stroke="#5a6675" stroke-width="1.3" marker-end="url(#arr)"/>
<text x="258" y="392.5" font-size="11.5" text-anchor="middle" fill="#3a4553" font-style="italic" stroke="#ffffff" stroke-width="2.5" paint-order="stroke" stroke-linejoin="round">Filtered billing</text>
<text x="258" y="407" font-size="11.5" text-anchor="middle" fill="#3a4553" font-style="italic" stroke="#ffffff" stroke-width="2.5" paint-order="stroke" stroke-linejoin="round">traffic</text>
<text x="258" y="421.5" font-size="9" text-anchor="middle" fill="#79828f" stroke="#ffffff" stroke-width="2.5" paint-order="stroke" stroke-linejoin="round">(HTTPS/8443)</text>
<path d="M 351 332 L 351 509" fill="none" stroke="#5a6675" stroke-width="1.3" marker-end="url(#arr)"/>
<text x="396" y="392.5" font-size="11.5" text-anchor="middle" fill="#3a4553" font-style="italic" stroke="#ffffff" stroke-width="2.5" paint-order="stroke" stroke-linejoin="round">Filtered CRM</text>
<text x="396" y="407" font-size="11.5" text-anchor="middle" fill="#3a4553" font-style="italic" stroke="#ffffff" stroke-width="2.5" paint-order="stroke" stroke-linejoin="round">traffic</text>
<text x="396" y="421.5" font-size="9" text-anchor="middle" fill="#79828f" stroke="#ffffff" stroke-width="2.5" paint-order="stroke" stroke-linejoin="round">(HTTPS/8444)</text>
<path d="M 223 547 L 223 650 L 315 650 L 315 738" fill="none" stroke="#5a6675" stroke-width="1.3" marker-end="url(#arr)"/>
<text x="179" y="607.5" font-size="11.5" text-anchor="middle" fill="#3a4553" font-style="italic" stroke="#ffffff" stroke-width="2.5" paint-order="stroke" stroke-linejoin="round">Read/write</text>
<text x="179" y="622" font-size="11.5" text-anchor="middle" fill="#3a4553" font-style="italic" stroke="#ffffff" stroke-width="2.5" paint-order="stroke" stroke-linejoin="round">billing data</text>
<text x="179" y="636.5" font-size="9" text-anchor="middle" fill="#79828f" stroke="#ffffff" stroke-width="2.5" paint-order="stroke" stroke-linejoin="round">(TCP/5432)</text>
<path d="M 351 547 L 351 738" fill="none" stroke="#5a6675" stroke-width="1.3" marker-end="url(#arr)"/>
<text x="399" y="607.5" font-size="11.5" text-anchor="middle" fill="#3a4553" font-style="italic" stroke="#ffffff" stroke-width="2.5" paint-order="stroke" stroke-linejoin="round">Read/write</text>
<text x="399" y="622" font-size="11.5" text-anchor="middle" fill="#3a4553" font-style="italic" stroke="#ffffff" stroke-width="2.5" paint-order="stroke" stroke-linejoin="round">customer data</text>
<text x="399" y="636.5" font-size="9" text-anchor="middle" fill="#79828f" stroke="#ffffff" stroke-width="2.5" paint-order="stroke" stroke-linejoin="round">(TCP/5432)</text>
<path d="M 187 547 L 187 585 L 127 585 A 5 5 0 0 0 117 585 L 111 585 L 111 206 L 196 206 L 196 273.5" fill="none" stroke="#5a6675" stroke-width="1.3" marker-end="url(#arr)"/>
<text x="64" y="392.5" font-size="11.5" text-anchor="middle" fill="#3a4553" font-style="italic" stroke="#ffffff" stroke-width="2.5" paint-order="stroke" stroke-linejoin="round">Drop invoices</text>
<text x="64" y="407" font-size="11.5" text-anchor="middle" fill="#3a4553" font-style="italic" stroke="#ffffff" stroke-width="2.5" paint-order="stroke" stroke-linejoin="round">to transmit</text>
<text x="64" y="421.5" font-size="9" text-anchor="middle" fill="#79828f" stroke="#ffffff" stroke-width="2.5" paint-order="stroke" stroke-linejoin="round">(SFTP/22)</text>
<path d="M 196 320.5 L 196 370 L 122 370 L 122 1017" fill="none" stroke="#5a6675" stroke-width="1.3" marker-end="url(#arr)"/>
<text x="88" y="968.5" font-size="11.5" text-anchor="middle" fill="#3a4553" font-style="italic" stroke="#ffffff" stroke-width="2.5" paint-order="stroke" stroke-linejoin="round">Partner</text>
<text x="88" y="983" font-size="11.5" text-anchor="middle" fill="#3a4553" font-style="italic" stroke="#ffffff" stroke-width="2.5" paint-order="stroke" stroke-linejoin="round">transfers</text>
<text x="88" y="997.5" font-size="9" text-anchor="middle" fill="#79828f" stroke="#ffffff" stroke-width="2.5" paint-order="stroke" stroke-linejoin="round">(AS4/443)</text>
<path d="M 279 785 L 279 870" fill="none" stroke="#5a6675" stroke-width="1.3" marker-end="url(#arr)"/>
<text x="248.5" y="817.5" font-size="11.5" text-anchor="middle" fill="#3a4553" font-style="italic" stroke="#ffffff" stroke-width="2.5" paint-order="stroke" stroke-linejoin="round">Daily</text>
<text x="248.5" y="832" font-size="11.5" text-anchor="middle" fill="#3a4553" font-style="italic" stroke="#ffffff" stroke-width="2.5" paint-order="stroke" stroke-linejoin="round">backups</text>
<text x="248.5" y="846.5" font-size="9" text-anchor="middle" fill="#79828f" stroke="#ffffff" stroke-width="2.5" paint-order="stroke" stroke-linejoin="round">(TCP/9092)</text>
<line x1="20" y1="1084" x2="443" y2="1084" stroke="#e6e9ee" stroke-width="1"/>
<text x="20" y="1106" font-size="11" font-weight="bold" fill="#3a4553">LEGEND</text>
<rect x="150" y="1096" width="26" height="14" rx="3" fill="#f3f5f6" stroke="#7c8794"/>
<text x="182" y="1107" font-size="10" fill="#17202c">Site / data center</text>
<rect x="150" y="1118" width="26" height="14" rx="3" fill="#eaf5ef" stroke="#1a8f66" stroke-dasharray="5 3"/>
<text x="182" y="1129" font-size="10" fill="#17202c">Network zone</text>
<rect x="150" y="1140" width="26" height="14" rx="3" fill="#ffffff" stroke="#48546a"/>
<text x="182" y="1151" font-size="10" fill="#17202c">Server / VM</text>
<rect x="150" y="1162" width="26" height="14" rx="3" fill="#fdf4e3" stroke="#c88a2e"/>
<text x="182" y="1173" font-size="10" fill="#17202c">Deployed application</text>
<circle cx="163" cy="1187" r="3" fill="none" stroke="#1f5e91" stroke-width="1.2"/>
<path d="M 158 1197 q 5 -7 10 0" fill="none" stroke="#1f5e91" stroke-width="1.2"/>
<text x="182" y="1195" font-size="10" fill="#17202c">User / consumer</text>
<rect x="150" y="1206" width="26" height="14" rx="3" fill="#f4eff8" stroke="#8659a6" stroke-dasharray="5 3"/>
<text x="182" y="1217" font-size="10" fill="#17202c">External system</text>
<line x1="150" y1="1258" x2="176" y2="1258" stroke="#5a6675" stroke-width="1.3" marker-end="url(#arr)"/>
<text x="182" y="1262" font-size="10" fill="#17202c">Technical flow (protocol, port)</text>
<text x="150" y="1286" font-size="10" fill="#17202c" font-style="italic">Inter-zone flows filtered by firewall (flow matrix attached to the architecture dossier)</text>
</svg>
