<svg xmlns="http://www.w3.org/2000/svg" viewBox="0 0 815 1489" font-family="Helvetica,Arial,sans-serif">
<defs><marker id="arr" viewBox="0 0 10 10" refX="9" refY="5" markerWidth="7" markerHeight="7" orient="auto-start-reverse">
<path d="M0,0 L10,5 L0,10 z" fill="#5a6675"/></marker></defs>
<rect width="815" height="1489" fill="#ffffff"/>
<rect x="10" y="143" width="727" height="840" rx="6" fill="#f3f5f6" stroke="#7c8794" stroke-width="1.4"/>
<text x="20" y="161" font-size="13" font-weight="bold" fill="#17202c">Main data center</text>
<rect x="108" y="709.5" width="283.5" height="239.5" rx="6" fill="#eaf5ef" stroke="#1a8f66" stroke-width="1.2" stroke-dasharray="5 3"/>
<text x="118" y="727.5" font-size="13" font-weight="bold" fill="#17202c">DMZ</text>
<rect x="133" y="847" width="126" height="88" rx="6" fill="#ffffff" stroke="#48546a" stroke-width="1.5"/>
<text x="143" y="865" font-size="13" font-weight="bold" fill="#17202c">Reverse proxies</text>
<text x="143" y="879" font-size="13" font-weight="bold" fill="#17202c">(HA)</text>
<rect x="207" y="195" width="463" height="416" rx="6" fill="#eaf5ef" stroke="#1a8f66" stroke-width="1.2" stroke-dasharray="5 3"/>
<text x="217" y="213" font-size="13" font-weight="bold" fill="#17202c">Application zone</text>
<rect x="375" y="323.5" width="270" height="88" rx="6" fill="#ffffff" stroke="#48546a" stroke-width="1.5"/>
<text x="385" y="341.5" font-size="13" font-weight="bold" fill="#17202c">K8s cluster</text>
<text x="385" y="355.5" font-size="13" font-weight="bold" fill="#17202c">front</text>
<rect x="383" y="480" width="254" height="97" rx="6" fill="#ffffff" stroke="#48546a" stroke-width="1.5"/>
<text x="393" y="498" font-size="13" font-weight="bold" fill="#17202c">K8s cluster</text>
<text x="393" y="512" font-size="13" font-weight="bold" fill="#17202c">business</text>
<rect x="427" y="741.6666666666666" width="290" height="143" rx="6" fill="#eaf5ef" stroke="#1a8f66" stroke-width="1.2" stroke-dasharray="5 3"/>
<text x="437" y="759.6666666666666" font-size="13" font-weight="bold" fill="#17202c">Data zone</text>
<rect x="582" y="773.6666666666666" width="126" height="97" rx="6" fill="#ffffff" stroke="#48546a" stroke-width="1.5"/>
<text x="592" y="791.6666666666666" font-size="13" font-weight="bold" fill="#17202c">PostgreSQL</text>
<text x="592" y="805.6666666666666" font-size="13" font-weight="bold" fill="#17202c">cluster</text>
<rect x="436" y="776.6666666666666" width="126" height="88" rx="6" fill="#ffffff" stroke="#48546a" stroke-width="1.5"/>
<text x="446" y="794.6666666666666" font-size="13" font-weight="bold" fill="#17202c">Kafka</text>
<text x="446" y="808.6666666666666" font-size="13" font-weight="bold" fill="#17202c">cluster</text>
<rect x="445" y="1048" width="225" height="284.5" rx="6" fill="#f3f5f6" stroke="#7c8794" stroke-width="1.4"/>
<text x="455" y="1066" font-size="13" font-weight="bold" fill="#17202c">Disaster-recovery site</text>
<rect x="454" y="1080" width="207" height="243.5" rx="6" fill="#eaf5ef" stroke="#1a8f66" stroke-width="1.2" stroke-dasharray="5 3"/>
<text x="464" y="1098" font-size="13" font-weight="bold" fill="#17202c">DR data zone</text>
<rect x="526" y="1112" width="126" height="97" rx="6" fill="#ffffff" stroke="#48546a" stroke-width="1.5"/>
<text x="536" y="1130" font-size="13" font-weight="bold" fill="#17202c">PostgreSQL</text>
<text x="536" y="1144" font-size="13" font-weight="bold" fill="#17202c">standby</text>
<rect x="137.5" y="736.5" width="117" height="47" rx="4" fill="#ffffff" stroke="#48546a" stroke-width="1.5"/>
<text x="196" y="756.75" font-size="12.5" text-anchor="middle" fill="#17202c">Application</text>
<text x="196" y="771.25" font-size="12.5" text-anchor="middle" fill="#17202c">firewall (WAF)</text>
<rect x="142" y="888" width="108" height="38" rx="4" fill="#fdf4e3" stroke="#c88a2e" stroke-width="1.2"/>
<text x="196" y="911" font-size="12.5" text-anchor="middle" fill="#17202c">Nginx</text>
<rect x="274.5" y="736.5" width="108" height="47" rx="4" fill="#ffffff" stroke="#48546a" stroke-width="1.5"/>
<text x="328.5" y="756.75" font-size="12.5" text-anchor="middle" fill="#17202c">Transfer</text>
<text x="328.5" y="771.25" font-size="12.5" text-anchor="middle" fill="#17202c">gateway</text>
<rect x="493" y="222" width="108" height="38" rx="4" fill="#f5e6dd" stroke="#b85a30" stroke-width="1.3"/>
<path d="M 501 230 L 515 230 Q 517 235 508 242 Q 499 235 501 230" fill="none" stroke="#b85a30" stroke-width="1.3"/>
<text x="557" y="245" font-size="12.5" text-anchor="middle" fill="#17202c">Gateway</text>
<rect x="241" y="344" width="108" height="47" rx="4" fill="#fdefe3" stroke="#d1600f" stroke-width="1.3"/>
<rect x="247" y="350" width="18" height="14" rx="3" fill="none" stroke="#d1600f" stroke-width="1.3"/>
<path d="M 251 353 v -4 a 5 5 0 0 1 10 0 v 4" fill="none" stroke="#d1600f" stroke-width="1.3"/>
<circle cx="256" cy="360" r="2.5" fill="#d1600f"/>
<text x="305" y="364.25" font-size="12.5" text-anchor="middle" fill="#17202c">OAuth2</text>
<text x="305" y="378.75" font-size="12.5" text-anchor="middle" fill="#17202c">proxy</text>
<rect x="241" y="480" width="108" height="38" rx="4" fill="#e0f0f0" stroke="#3a8f8f" stroke-width="1.3"/>
<text x="295" y="503" font-size="12.5" text-anchor="middle" fill="#17202c">LDAP / IdP</text>
<rect x="384" y="364.5" width="108" height="38" rx="4" fill="#fdf4e3" stroke="#c88a2e" stroke-width="1.2"/>
<text x="438" y="387.5" font-size="12.5" text-anchor="middle" fill="#17202c">Sales front</text>
<rect x="512" y="364.5" width="124" height="38" rx="4" fill="#fdf4e3" stroke="#c88a2e" stroke-width="1.2"/>
<text x="574" y="387.5" font-size="12.5" text-anchor="middle" fill="#17202c">Checkout funnel</text>
<rect x="392" y="521" width="108" height="47" rx="4" fill="#fdf4e3" stroke="#c88a2e" stroke-width="1.2"/>
<text x="446" y="541.25" font-size="12.5" text-anchor="middle" fill="#17202c">Order</text>
<text x="446" y="555.75" font-size="12.5" text-anchor="middle" fill="#17202c">management</text>
<rect x="520" y="521" width="108" height="47" rx="4" fill="#fdf4e3" stroke="#c88a2e" stroke-width="1.2"/>
<text x="574" y="541.25" font-size="12.5" text-anchor="middle" fill="#17202c">Payment</text>
<text x="574" y="555.75" font-size="12.5" text-anchor="middle" fill="#17202c">hub</text>
<rect x="591" y="814.6666666666666" width="108" height="47" rx="4" fill="#fdf4e3" stroke="#c88a2e" stroke-width="1.2"/>
<text x="645" y="834.9166666666666" font-size="12.5" text-anchor="middle" fill="#17202c">PostgreSQL</text>
<text x="645" y="849.4166666666666" font-size="12.5" text-anchor="middle" fill="#17202c">primary</text>
<rect x="445" y="817.6666666666666" width="108" height="38" rx="4" fill="#fdf4e3" stroke="#c88a2e" stroke-width="1.2"/>
<text x="499" y="840.6666666666666" font-size="12.5" text-anchor="middle" fill="#17202c">Kafka</text>
<rect x="535" y="1153" width="108" height="47" rx="4" fill="#fdf4e3" stroke="#c88a2e" stroke-width="1.2"/>
<text x="589" y="1173.25" font-size="12.5" text-anchor="middle" fill="#17202c">PostgreSQL</text>
<text x="589" y="1187.75" font-size="12.5" text-anchor="middle" fill="#17202c">replica</text>
<rect x="463" y="1267.5" width="108" height="47" rx="4" fill="#ffffff" stroke="#48546a" stroke-width="1.5"/>
<text x="517" y="1287.75" font-size="12.5" text-anchor="middle" fill="#17202c">Backup</text>
<text x="517" y="1302.25" font-size="12.5" text-anchor="middle" fill="#17202c">server</text>
<circle cx="196" cy="32" r="7" fill="none" stroke="#1f5e91" stroke-width="1.5"/>
<path d="M 185 54 q 11 -19 22 0" fill="none" stroke="#1f5e91" stroke-width="1.5"/>
<text x="196" y="66" font-size="11" text-anchor="middle" fill="#20364c">Internet</text>
<text x="196" y="77" font-size="11" text-anchor="middle" fill="#20364c">customers</text>
<rect x="697" y="1043" width="108" height="38" rx="4" fill="#f4eff8" stroke="#8659a6" stroke-width="1.2" stroke-dasharray="5 3"/>
<text x="751" y="1066" font-size="12.5" text-anchor="middle" fill="#17202c">PSP</text>
<rect x="275" y="1039" width="108" height="47" rx="4" fill="#f4eff8" stroke="#8659a6" stroke-width="1.2" stroke-dasharray="5 3"/>
<text x="329" y="1059.25" font-size="12.5" text-anchor="middle" fill="#17202c">Carrier</text>
<text x="329" y="1073.75" font-size="12.5" text-anchor="middle" fill="#17202c">platforms</text>
<path d="M 196 87 L 196 736.5" fill="none" stroke="#5a6675" stroke-width="1.3" marker-end="url(#arr)"/>
<text x="155.5" y="115.5" font-size="11.5" text-anchor="middle" fill="#3a4553" font-style="italic" stroke="#ffffff" stroke-width="2.5" paint-order="stroke" stroke-linejoin="round">(HTTPS/443)</text>
<path d="M 196 783.5 L 196 888" fill="none" stroke="#5a6675" stroke-width="1.3" marker-end="url(#arr)"/>
<text x="155.5" y="816" font-size="11.5" text-anchor="middle" fill="#3a4553" font-style="italic" stroke="#ffffff" stroke-width="2.5" paint-order="stroke" stroke-linejoin="round">(HTTPS/443)</text>
<path d="M 196 926 L 196 964 L 98 964 L 98 180 L 191 180 A 5 5 0 0 1 201 180 L 547 180 L 547 222" fill="none" stroke="#5a6675" stroke-width="1.3" marker-end="url(#arr)"/>
<text x="57.5" y="678.5" font-size="11.5" text-anchor="middle" fill="#3a4553" font-style="italic" stroke="#ffffff" stroke-width="2.5" paint-order="stroke" stroke-linejoin="round">(HTTPS/443)</text>
<path d="M 547 260 L 547 308.5 L 438 308.5 L 438 364.5" fill="none" stroke="#5a6675" stroke-width="1.3" marker-end="url(#arr)"/>
<text x="503" y="292.5" font-size="11.5" text-anchor="middle" fill="#3a4553" font-style="italic" stroke="#ffffff" stroke-width="2.5" paint-order="stroke" stroke-linejoin="round">(HTTPS/8443)</text>
<path d="M 574 260 L 574 364.5" fill="none" stroke="#5a6675" stroke-width="1.3" marker-end="url(#arr)"/>
<text x="619" y="292.5" font-size="11.5" text-anchor="middle" fill="#3a4553" font-style="italic" stroke="#ffffff" stroke-width="2.5" paint-order="stroke" stroke-linejoin="round">(HTTPS/8444)</text>
<path d="M 456 402.5 L 456 465 L 446 465 L 446 521" fill="none" stroke="#5a6675" stroke-width="1.3" marker-end="url(#arr)"/>
<text x="412" y="449" font-size="11.5" text-anchor="middle" fill="#3a4553" font-style="italic" stroke="#ffffff" stroke-width="2.5" paint-order="stroke" stroke-linejoin="round">(HTTPS/8443)</text>
<path d="M 574 402.5 L 574 521" fill="none" stroke="#5a6675" stroke-width="1.3" marker-end="url(#arr)"/>
<text x="619" y="449" font-size="11.5" text-anchor="middle" fill="#3a4553" font-style="italic" stroke="#ffffff" stroke-width="2.5" paint-order="stroke" stroke-linejoin="round">(HTTPS/8445)</text>
<path d="M 592 568 L 592 626 L 727 626 L 727 998 L 751 998 L 751 1043" fill="none" stroke="#5a6675" stroke-width="1.3" marker-end="url(#arr)"/>
<text x="710.5" y="1020.5" font-size="11.5" text-anchor="middle" fill="#3a4553" font-style="italic" stroke="#ffffff" stroke-width="2.5" paint-order="stroke" stroke-linejoin="round">(HTTPS/443)</text>
<path d="M 473 568 L 473 646 L 601 646 L 601 694.5 L 627 694.5 L 627 814.6666666666666" fill="none" stroke="#5a6675" stroke-width="1.3" marker-end="url(#arr)"/>
<text x="563.5" y="678.5" font-size="11.5" text-anchor="middle" fill="#3a4553" font-style="italic" stroke="#ffffff" stroke-width="2.5" paint-order="stroke" stroke-linejoin="round">(TCP/5432)</text>
<path d="M 556 568 L 556 636 L 685 636 L 685 694.5 L 663 694.5 L 663 814.6666666666666" fill="none" stroke="#5a6675" stroke-width="1.3" marker-end="url(#arr)"/>
<text x="647.5" y="678.5" font-size="11.5" text-anchor="middle" fill="#3a4553" font-style="italic" stroke="#ffffff" stroke-width="2.5" paint-order="stroke" stroke-linejoin="round">(TCP/5432)</text>
<path d="M 446 568 L 446 656 L 517 656 L 517 817.6666666666666" fill="none" stroke="#5a6675" stroke-width="1.3" marker-end="url(#arr)"/>
<text x="479.5" y="678.5" font-size="11.5" text-anchor="middle" fill="#3a4553" font-style="italic" stroke="#ffffff" stroke-width="2.5" paint-order="stroke" stroke-linejoin="round">(TCP/9092)</text>
<path d="M 420 402.5 L 420 426.5 L 359 426.5 L 359 626 L 433 626 L 433 694.5 L 481 694.5 L 481 817.6666666666666" fill="none" stroke="#5a6675" stroke-width="1.3" marker-end="url(#arr)"/>
<text x="395.5" y="678.5" font-size="11.5" text-anchor="middle" fill="#3a4553" font-style="italic" stroke="#ffffff" stroke-width="2.5" paint-order="stroke" stroke-linejoin="round">(TCP/9092)</text>
<path d="M 520 260 L 520 270 L 295 270 L 295 344" fill="none" stroke="#5a6675" stroke-width="1.3" marker-end="url(#arr)"/>
<text x="261" y="292.5" font-size="11.5" text-anchor="middle" fill="#3a4553" font-style="italic" stroke="#ffffff" stroke-width="2.5" paint-order="stroke" stroke-linejoin="round">(HTTP/80)</text>
<path d="M 295 391 L 295 480" fill="none" stroke="#5a6675" stroke-width="1.3" marker-end="url(#arr)"/>
<text x="254.5" y="449" font-size="11.5" text-anchor="middle" fill="#3a4553" font-style="italic" stroke="#ffffff" stroke-width="2.5" paint-order="stroke" stroke-linejoin="round">(LDAPS/636)</text>
<path d="M 419 568 L 419 592 L 364 592 A 5 5 0 0 0 354 592 L 349 592 L 349 694.5 L 328.5 694.5 L 328.5 736.5" fill="none" stroke="#5a6675" stroke-width="1.3" marker-end="url(#arr)"/>
<text x="315" y="678.5" font-size="11.5" text-anchor="middle" fill="#3a4553" font-style="italic" stroke="#ffffff" stroke-width="2.5" paint-order="stroke" stroke-linejoin="round">(SFTP/22)</text>
<path d="M 328.5 783.5 L 329 988 L 329 1039" fill="none" stroke="#5a6675" stroke-width="1.3" marker-end="url(#arr)"/>
<text x="295" y="1016.5" font-size="11.5" text-anchor="middle" fill="#3a4553" font-style="italic" stroke="#ffffff" stroke-width="2.5" paint-order="stroke" stroke-linejoin="round">(AS4/443)</text>
<path d="M 645 861.6666666666666 L 645 998 L 589 998 L 589 1153" fill="none" stroke="#5a6675" stroke-width="1.3" marker-end="url(#arr)"/>
<text x="627.5" y="1020.5" font-size="11.5" text-anchor="middle" fill="#3a4553" font-style="italic" stroke="#ffffff" stroke-width="2.5" paint-order="stroke" stroke-linejoin="round">(TCP/5432)</text>
<path d="M 535 1209 L 535 1267.5" fill="none" stroke="#5a6675" stroke-width="1.3" marker-end="url(#arr)"/>
<text x="573.5" y="1241.5" font-size="11.5" text-anchor="middle" fill="#3a4553" font-style="italic" stroke="#ffffff" stroke-width="2.5" paint-order="stroke" stroke-linejoin="round">(TCP/9095)</text>
<path d="M 499 855.6666666666666 L 499 1267.5" fill="none" stroke="#5a6675" stroke-width="1.3" marker-end="url(#arr)"/>
<text x="461.5" y="1016.5" font-size="11.5" text-anchor="middle" fill="#3a4553" font-style="italic" stroke="#ffffff" stroke-width="2.5" paint-order="stroke" stroke-linejoin="round">(TCP/9095)</text>
<line x1="20" y1="1353" x2="795" y2="1353" stroke="#e6e9ee" stroke-width="1"/>
<text x="20" y="1375" font-size="11" font-weight="bold" fill="#3a4553">LEGEND</text>
<rect x="150" y="1365" width="26" height="14" rx="3" fill="#f3f5f6" stroke="#7c8794"/>
<text x="182" y="1376" font-size="10" fill="#17202c">Site / data center</text>
<rect x="308" y="1365" width="26" height="14" rx="3" fill="#eaf5ef" stroke="#1a8f66" stroke-dasharray="5 3"/>
<text x="340" y="1376" font-size="10" fill="#17202c">Network zone</text>
<rect x="435" y="1365" width="26" height="14" rx="3" fill="#ffffff" stroke="#48546a"/>
<text x="467" y="1376" font-size="10" fill="#17202c">Server / VM</text>
<rect x="557" y="1365" width="26" height="14" rx="3" fill="#fdf4e3" stroke="#c88a2e"/>
<text x="589" y="1376" font-size="10" fill="#17202c">Deployed application</text>
<rect x="150" y="1387" width="26" height="14" rx="3" fill="#f5e6dd" stroke="#b85a30"/>
<text x="182" y="1398" font-size="10" fill="#17202c">Gateway / reverse proxy</text>
<rect x="334" y="1387" width="26" height="14" rx="3" fill="#fdefe3" stroke="#d1600f"/>
<text x="366" y="1398" font-size="10" fill="#17202c">Auth middleware</text>
<rect x="476" y="1387" width="26" height="14" rx="3" fill="#e0f0f0" stroke="#3a8f8f"/>
<text x="508" y="1398" font-size="10" fill="#17202c">Identity provider (IdP)</text>
<circle cx="163" cy="1412" r="3" fill="none" stroke="#1f5e91" stroke-width="1.2"/>
<path d="M 158 1422 q 5 -7 10 0" fill="none" stroke="#1f5e91" stroke-width="1.2"/>
<text x="182" y="1420" font-size="10" fill="#17202c">User / consumer</text>
<rect x="292" y="1409" width="26" height="14" rx="3" fill="#f4eff8" stroke="#8659a6" stroke-dasharray="5 3"/>
<text x="324" y="1420" font-size="10" fill="#17202c">External system</text>
<line x1="150" y1="1439" x2="176" y2="1439" stroke="#5a6675" stroke-width="1.3" marker-end="url(#arr)"/>
<text x="182" y="1443" font-size="10" fill="#17202c">Technical flow (protocol, port)</text>
<text x="150" y="1467" font-size="10" fill="#17202c" font-style="italic">Inter-zone and inter-site flows filtered by firewall (flow matrix in the architecture dossier)</text>
</svg>
