<svg xmlns="http://www.w3.org/2000/svg" viewBox="0 0 1000 394" font-family="Helvetica,Arial,sans-serif">
<defs><marker id="arr" viewBox="0 0 10 10" refX="9" refY="5" markerWidth="7" markerHeight="7" orient="auto-start-reverse">
<path d="M0,0 L10,5 L0,10 z" fill="#444444"/></marker></defs>
<rect width="1000" height="394" fill="white"/>
<rect x="27" y="30" width="777" height="197" rx="6" fill="#f5f5f4" stroke="#8a8a85" stroke-width="1.4"/>
<text x="37" y="48" font-size="12" font-weight="bold" fill="#333">Cloud host</text>
<rect x="44" y="100.5" width="164" height="93" rx="6" fill="#ecf3ec" stroke="#6d9a6d" stroke-width="1.2" stroke-dasharray="5 3"/>
<text x="54" y="118.5" font-size="12" font-weight="bold" fill="#333">Public zone</text>
<rect x="320" y="60" width="472" height="155" rx="6" fill="#ecf3ec" stroke="#6d9a6d" stroke-width="1.2" stroke-dasharray="5 3"/>
<text x="330" y="78" font-size="12" font-weight="bold" fill="#333">Private zone</text>
<rect x="337" y="103" width="164" height="88" rx="6" fill="#ffffff" stroke="#55606b" stroke-width="1.5"/>
<text x="347" y="121" font-size="12" font-weight="bold" fill="#333">Web VM</text>
<rect x="616" y="90" width="164" height="101" rx="6" fill="#ffffff" stroke="#55606b" stroke-width="1.5"/>
<text x="626" y="108" font-size="12" font-weight="bold" fill="#333">Database</text>
<text x="626" y="121" font-size="12" font-weight="bold" fill="#333">VM</text>
<rect x="56" y="130.5" width="140" height="51" rx="4" fill="#ffffff" stroke="#55606b" stroke-width="1.5"/>
<text x="126" y="153.25" font-size="11.5" text-anchor="middle" fill="#222233">Load</text>
<text x="126" y="166.75" font-size="11.5" text-anchor="middle" fill="#222233">balancer</text>
<rect x="349" y="133" width="140" height="46" rx="4" fill="#fff7e6" stroke="#b08d2a" stroke-width="1.2"/>
<text x="419" y="160" font-size="11.5" text-anchor="middle" fill="#222233">CMS</text>
<rect x="628" y="133" width="140" height="46" rx="4" fill="#fff7e6" stroke="#b08d2a" stroke-width="1.2"/>
<text x="698" y="160" font-size="11.5" text-anchor="middle" fill="#222233">MySQL</text>
<rect x="848" y="217" width="140" height="51" rx="4" fill="#f0eef5" stroke="#9187b3" stroke-width="1.2" stroke-dasharray="5 3"/>
<text x="918" y="239.75" font-size="11.5" text-anchor="middle" fill="#222233">Internet</text>
<text x="918" y="253.25" font-size="11.5" text-anchor="middle" fill="#222233">visitors</text>
<path d="M 848 243 L 12 243 L 12 156 L 56 156" fill="none" stroke="#444444" stroke-width="1.3" marker-end="url(#arr)"/>
<text x="57.5" y="258.5" font-size="10.5" text-anchor="middle" fill="#333" font-style="italic" stroke="white" stroke-width="2.5" paint-order="stroke" stroke-linejoin="round">Site access</text>
<text x="57.5" y="272" font-size="9" text-anchor="middle" fill="#777" stroke="white" stroke-width="2.5" paint-order="stroke" stroke-linejoin="round">(HTTPS/443)</text>
<path d="M 196 156 L 349 156" fill="none" stroke="#444444" stroke-width="1.3" marker-end="url(#arr)"/>
<text x="264" y="170.5" font-size="10.5" text-anchor="middle" fill="#333" font-style="italic" stroke="white" stroke-width="2.5" paint-order="stroke" stroke-linejoin="round">Balanced</text>
<text x="264" y="184" font-size="10.5" text-anchor="middle" fill="#333" font-style="italic" stroke="white" stroke-width="2.5" paint-order="stroke" stroke-linejoin="round">traffic</text>
<text x="264" y="197.5" font-size="9" text-anchor="middle" fill="#777" stroke="white" stroke-width="2.5" paint-order="stroke" stroke-linejoin="round">(HTTP/8080)</text>
<path d="M 489 156 L 628 156" fill="none" stroke="#444444" stroke-width="1.3" marker-end="url(#arr)"/>
<text x="558.5" y="170.5" font-size="10.5" text-anchor="middle" fill="#333" font-style="italic" stroke="white" stroke-width="2.5" paint-order="stroke" stroke-linejoin="round">Read/write</text>
<text x="558.5" y="184" font-size="10.5" text-anchor="middle" fill="#333" font-style="italic" stroke="white" stroke-width="2.5" paint-order="stroke" stroke-linejoin="round">content</text>
<text x="558.5" y="197.5" font-size="9" text-anchor="middle" fill="#777" stroke="white" stroke-width="2.5" paint-order="stroke" stroke-linejoin="round">(TCP/3306)</text>
<line x1="20" y1="300" x2="980" y2="300" stroke="#ddd" stroke-width="1"/>
<text x="20" y="322" font-size="11" font-weight="bold" fill="#555">LEGEND</text>
<rect x="150" y="312" width="26" height="14" rx="3" fill="#f5f5f4" stroke="#8a8a85"/>
<text x="182" y="323" font-size="10" fill="#444">Site / data center</text>
<rect x="308" y="312" width="26" height="14" rx="3" fill="#ecf3ec" stroke="#6d9a6d" stroke-dasharray="5 3"/>
<text x="340" y="323" font-size="10" fill="#444">Network zone</text>
<rect x="435" y="312" width="26" height="14" rx="3" fill="#ffffff" stroke="#55606b"/>
<text x="467" y="323" font-size="10" fill="#444">Server / VM</text>
<rect x="557" y="312" width="26" height="14" rx="3" fill="#fff7e6" stroke="#b08d2a"/>
<text x="589" y="323" font-size="10" fill="#444">Deployed application</text>
<rect x="725" y="312" width="26" height="14" rx="3" fill="#f0eef5" stroke="#9187b3" stroke-dasharray="5 3"/>
<text x="757" y="323" font-size="10" fill="#444">External system</text>
<line x1="150" y1="364" x2="176" y2="364" stroke="#444444" stroke-width="1.3" marker-end="url(#arr)"/>
<text x="182" y="368" font-size="10" fill="#444">Technical flow (protocol, port)</text>
</svg>
