<svg xmlns="http://www.w3.org/2000/svg" viewBox="0 0 336 893" font-family="Helvetica,Arial,sans-serif">
<defs><marker id="arr" viewBox="0 0 10 10" refX="9" refY="5" markerWidth="7" markerHeight="7" orient="auto-start-reverse">
<path d="M0,0 L10,5 L0,10 z" fill="#444444"/></marker></defs>
<rect width="336" height="893" fill="white"/>
<rect x="12" y="45" width="221" height="548.5" rx="6" fill="#f5f5f4" stroke="#8a8a85" stroke-width="1.4"/>
<text x="22" y="63" font-size="12" font-weight="bold" fill="#333">Cloud host</text>
<rect x="45" y="80" width="164" height="93" rx="6" fill="#ecf3ec" stroke="#6d9a6d" stroke-width="1.2" stroke-dasharray="5 3"/>
<text x="55" y="98" font-size="12" font-weight="bold" fill="#333">Public zone</text>
<rect x="33" y="252.5" width="188" height="329" rx="6" fill="#ecf3ec" stroke="#6d9a6d" stroke-width="1.2" stroke-dasharray="5 3"/>
<text x="43" y="270.5" font-size="12" font-weight="bold" fill="#333">Private zone</text>
<rect x="45" y="287.5" width="164" height="88" rx="6" fill="#ffffff" stroke="#55606b" stroke-width="1.5"/>
<text x="55" y="305.5" font-size="12" font-weight="bold" fill="#333">Web VM</text>
<rect x="45" y="468.5" width="164" height="101" rx="6" fill="#ffffff" stroke="#55606b" stroke-width="1.5"/>
<text x="55" y="486.5" font-size="12" font-weight="bold" fill="#333">Database</text>
<text x="55" y="499.5" font-size="12" font-weight="bold" fill="#333">VM</text>
<rect x="57" y="110" width="140" height="51" rx="4" fill="#ffffff" stroke="#55606b" stroke-width="1.5"/>
<text x="127" y="132.75" font-size="11.5" text-anchor="middle" fill="#222233">Load</text>
<text x="127" y="146.25" font-size="11.5" text-anchor="middle" fill="#222233">balancer</text>
<rect x="57" y="317.5" width="140" height="46" rx="4" fill="#fff7e6" stroke="#b08d2a" stroke-width="1.2"/>
<text x="127" y="344.5" font-size="11.5" text-anchor="middle" fill="#222233">CMS</text>
<rect x="57" y="511.5" width="140" height="46" rx="4" fill="#fff7e6" stroke="#b08d2a" stroke-width="1.2"/>
<text x="127" y="538.5" font-size="11.5" text-anchor="middle" fill="#222233">MySQL</text>
<rect x="179" y="638" width="140" height="51" rx="4" fill="#f0eef5" stroke="#9187b3" stroke-width="1.2" stroke-dasharray="5 3"/>
<text x="249" y="660.75" font-size="11.5" text-anchor="middle" fill="#222233">Internet</text>
<text x="249" y="674.25" font-size="11.5" text-anchor="middle" fill="#222233">visitors</text>
<path d="M 249 638 L 249 30 L 127 30 L 127 110" fill="none" stroke="#444444" stroke-width="1.3" marker-end="url(#arr)"/>
<text x="288.5" y="51.5" font-size="10.5" text-anchor="middle" fill="#333" font-style="italic" stroke="white" stroke-width="2.5" paint-order="stroke" stroke-linejoin="round">Site access</text>
<text x="288.5" y="65" font-size="9" text-anchor="middle" fill="#777" stroke="white" stroke-width="2.5" paint-order="stroke" stroke-linejoin="round">(HTTPS/443)</text>
<path d="M 127 161 L 127 317.5" fill="none" stroke="#444444" stroke-width="1.3" marker-end="url(#arr)"/>
<text x="74.5" y="209.5" font-size="10.5" text-anchor="middle" fill="#333" font-style="italic" stroke="white" stroke-width="2.5" paint-order="stroke" stroke-linejoin="round">Balanced traffic</text>
<text x="74.5" y="223" font-size="9" text-anchor="middle" fill="#777" stroke="white" stroke-width="2.5" paint-order="stroke" stroke-linejoin="round">(HTTP/8080)</text>
<path d="M 127 363.5 L 127 511.5" fill="none" stroke="#444444" stroke-width="1.3" marker-end="url(#arr)"/>
<text x="92.5" y="412" font-size="10.5" text-anchor="middle" fill="#333" font-style="italic" stroke="white" stroke-width="2.5" paint-order="stroke" stroke-linejoin="round">Read/write</text>
<text x="92.5" y="425.5" font-size="10.5" text-anchor="middle" fill="#333" font-style="italic" stroke="white" stroke-width="2.5" paint-order="stroke" stroke-linejoin="round">content</text>
<text x="92.5" y="439" font-size="9" text-anchor="middle" fill="#777" stroke="white" stroke-width="2.5" paint-order="stroke" stroke-linejoin="round">(TCP/3306)</text>
<line x1="20" y1="711" x2="316" y2="711" stroke="#ddd" stroke-width="1"/>
<text x="20" y="733" font-size="11" font-weight="bold" fill="#555">LEGEND</text>
<rect x="150" y="723" width="26" height="14" rx="3" fill="#f5f5f4" stroke="#8a8a85"/>
<text x="182" y="734" font-size="10" fill="#444">Site / data center</text>
<rect x="150" y="745" width="26" height="14" rx="3" fill="#ecf3ec" stroke="#6d9a6d" stroke-dasharray="5 3"/>
<text x="182" y="756" font-size="10" fill="#444">Network zone</text>
<rect x="150" y="767" width="26" height="14" rx="3" fill="#ffffff" stroke="#55606b"/>
<text x="182" y="778" font-size="10" fill="#444">Server / VM</text>
<rect x="150" y="789" width="26" height="14" rx="3" fill="#fff7e6" stroke="#b08d2a"/>
<text x="182" y="800" font-size="10" fill="#444">Deployed application</text>
<rect x="150" y="811" width="26" height="14" rx="3" fill="#f0eef5" stroke="#9187b3" stroke-dasharray="5 3"/>
<text x="182" y="822" font-size="10" fill="#444">External system</text>
<line x1="150" y1="863" x2="176" y2="863" stroke="#444444" stroke-width="1.3" marker-end="url(#arr)"/>
<text x="182" y="867" font-size="10" fill="#444">Technical flow (protocol, port)</text>
</svg>
