<svg xmlns="http://www.w3.org/2000/svg" viewBox="0 0 245 973" font-family="Helvetica,Arial,sans-serif">
<defs><marker id="arr" viewBox="0 0 10 10" refX="9" refY="5" markerWidth="7" markerHeight="7" orient="auto-start-reverse">
<path d="M0,0 L10,5 L0,10 z" fill="#444444"/></marker></defs>
<rect width="245" height="973" fill="white"/>
<rect x="12" y="220" width="221" height="548.5" rx="6" fill="#f5f5f4" stroke="#8a8a85" stroke-width="1.4"/>
<text x="22" y="238" font-size="12" font-weight="bold" fill="#333">Cloud host</text>
<rect x="45" y="255" width="164" height="93" rx="6" fill="#ecf3ec" stroke="#6d9a6d" stroke-width="1.2" stroke-dasharray="5 3"/>
<text x="55" y="273" font-size="12" font-weight="bold" fill="#333">Public zone</text>
<rect x="33" y="427.5" width="188" height="329" rx="6" fill="#ecf3ec" stroke="#6d9a6d" stroke-width="1.2" stroke-dasharray="5 3"/>
<text x="43" y="445.5" font-size="12" font-weight="bold" fill="#333">Private zone</text>
<rect x="45" y="462.5" width="164" height="88" rx="6" fill="#ffffff" stroke="#55606b" stroke-width="1.5"/>
<text x="55" y="480.5" font-size="12" font-weight="bold" fill="#333">Web VM</text>
<rect x="45" y="643.5" width="164" height="101" rx="6" fill="#ffffff" stroke="#55606b" stroke-width="1.5"/>
<text x="55" y="661.5" font-size="12" font-weight="bold" fill="#333">Database</text>
<text x="55" y="674.5" font-size="12" font-weight="bold" fill="#333">VM</text>
<rect x="57" y="285" width="140" height="51" rx="4" fill="#ffffff" stroke="#55606b" stroke-width="1.5"/>
<text x="127" y="307.75" font-size="11.5" text-anchor="middle" fill="#222233">Load</text>
<text x="127" y="321.25" font-size="11.5" text-anchor="middle" fill="#222233">balancer</text>
<rect x="57" y="492.5" width="140" height="46" rx="4" fill="#fff7e6" stroke="#b08d2a" stroke-width="1.2"/>
<text x="127" y="519.5" font-size="11.5" text-anchor="middle" fill="#222233">CMS</text>
<rect x="57" y="686.5" width="140" height="46" rx="4" fill="#fff7e6" stroke="#b08d2a" stroke-width="1.2"/>
<text x="127" y="713.5" font-size="11.5" text-anchor="middle" fill="#222233">MySQL</text>
<circle cx="127" cy="40" r="7" fill="none" stroke="#445566" stroke-width="1.5"/>
<path d="M 116 62 q 11 -19 22 0" fill="none" stroke="#445566" stroke-width="1.5"/>
<text x="127" y="74" font-size="10" text-anchor="middle" fill="#223344">Internet</text>
<text x="127" y="85" font-size="10" text-anchor="middle" fill="#223344">visitors</text>
<path d="M 127 97 L 127 285" fill="none" stroke="#444444" stroke-width="1.3" marker-end="url(#arr)"/>
<text x="88.5" y="152.5" font-size="10.5" text-anchor="middle" fill="#333" font-style="italic" stroke="white" stroke-width="2.5" paint-order="stroke" stroke-linejoin="round">Site access</text>
<text x="88.5" y="166" font-size="9" text-anchor="middle" fill="#777" stroke="white" stroke-width="2.5" paint-order="stroke" stroke-linejoin="round">(HTTPS/443)</text>
<path d="M 127 336 L 127 492.5" fill="none" stroke="#444444" stroke-width="1.3" marker-end="url(#arr)"/>
<text x="74.5" y="384.5" font-size="10.5" text-anchor="middle" fill="#333" font-style="italic" stroke="white" stroke-width="2.5" paint-order="stroke" stroke-linejoin="round">Balanced traffic</text>
<text x="74.5" y="398" font-size="9" text-anchor="middle" fill="#777" stroke="white" stroke-width="2.5" paint-order="stroke" stroke-linejoin="round">(HTTP/8080)</text>
<path d="M 127 538.5 L 127 686.5" fill="none" stroke="#444444" stroke-width="1.3" marker-end="url(#arr)"/>
<text x="92.5" y="587" font-size="10.5" text-anchor="middle" fill="#333" font-style="italic" stroke="white" stroke-width="2.5" paint-order="stroke" stroke-linejoin="round">Read/write</text>
<text x="92.5" y="600.5" font-size="10.5" text-anchor="middle" fill="#333" font-style="italic" stroke="white" stroke-width="2.5" paint-order="stroke" stroke-linejoin="round">content</text>
<text x="92.5" y="614" font-size="9" text-anchor="middle" fill="#777" stroke="white" stroke-width="2.5" paint-order="stroke" stroke-linejoin="round">(TCP/3306)</text>
<line x1="20" y1="791" x2="225" y2="791" stroke="#ddd" stroke-width="1"/>
<text x="20" y="813" font-size="11" font-weight="bold" fill="#555">LEGEND</text>
<rect x="150" y="803" width="26" height="14" rx="3" fill="#f5f5f4" stroke="#8a8a85"/>
<text x="182" y="814" font-size="10" fill="#444">Site / data center</text>
<rect x="150" y="825" width="26" height="14" rx="3" fill="#ecf3ec" stroke="#6d9a6d" stroke-dasharray="5 3"/>
<text x="182" y="836" font-size="10" fill="#444">Network zone</text>
<rect x="150" y="847" width="26" height="14" rx="3" fill="#ffffff" stroke="#55606b"/>
<text x="182" y="858" font-size="10" fill="#444">Server / VM</text>
<rect x="150" y="869" width="26" height="14" rx="3" fill="#fff7e6" stroke="#b08d2a"/>
<text x="182" y="880" font-size="10" fill="#444">Deployed application</text>
<circle cx="163" cy="894" r="3" fill="none" stroke="#445566" stroke-width="1.2"/>
<path d="M 158 904 q 5 -7 10 0" fill="none" stroke="#445566" stroke-width="1.2"/>
<text x="182" y="902" font-size="10" fill="#444">User / consumer</text>
<line x1="150" y1="943" x2="176" y2="943" stroke="#444444" stroke-width="1.3" marker-end="url(#arr)"/>
<text x="182" y="947" font-size="10" fill="#444">Technical flow (protocol, port)</text>
</svg>
