<svg xmlns="http://www.w3.org/2000/svg" viewBox="0 0 2106 2820" font-family="Helvetica,Arial,sans-serif">
<defs><marker id="arr" viewBox="0 0 10 10" refX="9" refY="5" markerWidth="7" markerHeight="7" orient="auto-start-reverse">
<path d="M0,0 L10,5 L0,10 z" fill="#444444"/></marker></defs>
<rect width="2106" height="2820" fill="white"/>
<rect x="1471" y="115" width="309" height="109" rx="6" fill="#eef4fb" stroke="#7a9cc4" stroke-width="1.2" stroke-dasharray="5 3"/>
<text x="1481" y="133" font-size="12" font-weight="bold" fill="#333">Customers</text>
<rect x="352" y="30" width="529" height="109" rx="6" fill="#eef4fb" stroke="#7a9cc4" stroke-width="1.2" stroke-dasharray="5 3"/>
<text x="362" y="48" font-size="12" font-weight="bold" fill="#333">Internal teams</text>
<rect x="899" y="1120" width="914.5" height="641" rx="6" fill="#f6f2ea" stroke="#b09a6d" stroke-width="1.2"/>
<text x="909" y="1138" font-size="12" font-weight="bold" fill="#333">Commerce front</text>
<rect x="1169" y="1175" width="484" height="133" rx="6" fill="#fdfbf6" stroke="#c4b258" stroke-width="1"/>
<text x="1179" y="1193" font-size="12" font-weight="bold" fill="#333">Presentation layer</text>
<rect x="1235" y="1499" width="485" height="215" rx="6" fill="#fdfbf6" stroke="#c4b258" stroke-width="1"/>
<text x="1245" y="1517" font-size="12" font-weight="bold" fill="#333">Customer-journey layer</text>
<rect x="355" y="274" width="1038" height="681" rx="6" fill="#f6f2ea" stroke="#b09a6d" stroke-width="1.2"/>
<text x="365" y="292" font-size="12" font-weight="bold" fill="#333">Commerce core</text>
<rect x="381" y="684" width="496" height="234" rx="6" fill="#fdfbf6" stroke="#c4b258" stroke-width="1"/>
<text x="391" y="702" font-size="12" font-weight="bold" fill="#333">Sales layer</text>
<rect x="897" y="390" width="484" height="93" rx="6" fill="#fdfbf6" stroke="#c4b258" stroke-width="1"/>
<text x="907" y="408" font-size="12" font-weight="bold" fill="#333">Offer layer</text>
<rect x="422" y="329" width="363" height="215" rx="6" fill="#fdfbf6" stroke="#c4b258" stroke-width="1"/>
<text x="432" y="347" font-size="12" font-weight="bold" fill="#333">Execution layer</text>
<rect x="580" y="1896" width="352" height="441" rx="6" fill="#f6f2ea" stroke="#b09a6d" stroke-width="1.2"/>
<text x="590" y="1914" font-size="12" font-weight="bold" fill="#333">Data platform</text>
<rect x="592" y="1931" width="324" height="93" rx="6" fill="#fdfbf6" stroke="#c4b258" stroke-width="1"/>
<text x="602" y="1949" font-size="12" font-weight="bold" fill="#333">Collection layer</text>
<rect x="728.6666666666667" y="2105" width="164" height="215" rx="6" fill="#fdfbf6" stroke="#c4b258" stroke-width="1"/>
<text x="738.6666666666667" y="2123" font-size="12" font-weight="bold" fill="#333">Analytics layer</text>
<rect x="209" y="2466" width="804" height="93" rx="6" fill="#f0eef5" stroke="#9187b3" stroke-width="1.2" stroke-dasharray="5 3"/>
<text x="219" y="2484" font-size="12" font-weight="bold" fill="#333">External systems</text>
<circle cx="1727" cy="166" r="7" fill="none" stroke="#445566" stroke-width="1.5"/>
<path d="M 1716 188 q 11 -19 22 0" fill="none" stroke="#445566" stroke-width="1.5"/>
<text x="1727" y="200" font-size="10" text-anchor="middle" fill="#223344">Web customer</text>
<circle cx="1616.5" cy="166" r="7" fill="none" stroke="#445566" stroke-width="1.5"/>
<path d="M 1605.5 188 q 11 -19 22 0" fill="none" stroke="#445566" stroke-width="1.5"/>
<text x="1616.5" y="200" font-size="10" text-anchor="middle" fill="#223344">Mobile customer</text>
<circle cx="1515" cy="155" r="7" fill="none" stroke="#445566" stroke-width="1.5"/>
<path d="M 1504 177 q 11 -19 22 0" fill="none" stroke="#445566" stroke-width="1.5"/>
<text x="1515" y="189" font-size="10" text-anchor="middle" fill="#223344">In-store</text>
<text x="1515" y="200" font-size="10" text-anchor="middle" fill="#223344">customer</text>
<circle cx="512.5" cy="70" r="7" fill="none" stroke="#445566" stroke-width="1.5"/>
<path d="M 501.5 92 q 11 -19 22 0" fill="none" stroke="#445566" stroke-width="1.5"/>
<text x="512.5" y="104" font-size="10" text-anchor="middle" fill="#223344">Customer-relations</text>
<text x="512.5" y="115" font-size="10" text-anchor="middle" fill="#223344">advisor</text>
<circle cx="825.5" cy="70" r="7" fill="none" stroke="#445566" stroke-width="1.5"/>
<path d="M 814.5 92 q 11 -19 22 0" fill="none" stroke="#445566" stroke-width="1.5"/>
<text x="825.5" y="104" font-size="10" text-anchor="middle" fill="#223344">Merchandising</text>
<text x="825.5" y="115" font-size="10" text-anchor="middle" fill="#223344">manager</text>
<circle cx="622.5" cy="70" r="7" fill="none" stroke="#445566" stroke-width="1.5"/>
<path d="M 611.5 92 q 11 -19 22 0" fill="none" stroke="#445566" stroke-width="1.5"/>
<text x="622.5" y="104" font-size="10" text-anchor="middle" fill="#223344">Warehouse</text>
<text x="622.5" y="115" font-size="10" text-anchor="middle" fill="#223344">operator</text>
<circle cx="399.5" cy="81" r="7" fill="none" stroke="#445566" stroke-width="1.5"/>
<path d="M 388.5 103 q 11 -19 22 0" fill="none" stroke="#445566" stroke-width="1.5"/>
<text x="399.5" y="115" font-size="10" text-anchor="middle" fill="#223344">Accountant</text>
<circle cx="718.5" cy="70" r="7" fill="none" stroke="#445566" stroke-width="1.5"/>
<path d="M 707.5 92 q 11 -19 22 0" fill="none" stroke="#445566" stroke-width="1.5"/>
<text x="718.5" y="104" font-size="10" text-anchor="middle" fill="#223344">Platform</text>
<text x="718.5" y="115" font-size="10" text-anchor="middle" fill="#223344">administrator</text>
<rect x="1501" y="1205" width="140" height="51" rx="4" fill="#ffffff" stroke="#666677" stroke-width="1.3"/>
<text x="1571" y="1227.75" font-size="11.5" text-anchor="middle" fill="#222233">E-commerce</text>
<text x="1571" y="1241.25" font-size="11.5" text-anchor="middle" fill="#222233">site</text>
<rect x="1341" y="1205" width="140" height="51" rx="4" fill="#ffffff" stroke="#666677" stroke-width="1.3"/>
<text x="1411" y="1227.75" font-size="11.5" text-anchor="middle" fill="#222233">Mobile</text>
<text x="1411" y="1241.25" font-size="11.5" text-anchor="middle" fill="#222233">app</text>
<rect x="1181" y="1205" width="140" height="51" rx="4" fill="#ffffff" stroke="#666677" stroke-width="1.3"/>
<text x="1251" y="1227.75" font-size="11.5" text-anchor="middle" fill="#222233">Store</text>
<text x="1251" y="1241.25" font-size="11.5" text-anchor="middle" fill="#222233">kiosks</text>
<rect x="1568" y="1529" width="140" height="51" rx="4" fill="#ffffff" stroke="#666677" stroke-width="1.3"/>
<text x="1638" y="1551.75" font-size="11.5" text-anchor="middle" fill="#222233">Catalog</text>
<text x="1638" y="1565.25" font-size="11.5" text-anchor="middle" fill="#222233">browsing</text>
<rect x="1407" y="1529" width="140" height="51" rx="4" fill="#ffffff" stroke="#666677" stroke-width="1.3"/>
<text x="1477" y="1551.75" font-size="11.5" text-anchor="middle" fill="#222233">Cart and</text>
<text x="1477" y="1565.25" font-size="11.5" text-anchor="middle" fill="#222233">checkout</text>
<rect x="1247" y="1529" width="140" height="51" rx="4" fill="#ffffff" stroke="#666677" stroke-width="1.3"/>
<text x="1317" y="1551.75" font-size="11.5" text-anchor="middle" fill="#222233">Customer</text>
<text x="1317" y="1565.25" font-size="11.5" text-anchor="middle" fill="#222233">account</text>
<rect x="1544.6666666666667" y="1651" width="140" height="51" rx="4" fill="#ffffff" stroke="#666677" stroke-width="1.3"/>
<text x="1614.6666666666667" y="1673.75" font-size="11.5" text-anchor="middle" fill="#222233">Personalized</text>
<text x="1614.6666666666667" y="1687.25" font-size="11.5" text-anchor="middle" fill="#222233">recommendations</text>
<rect x="565" y="714" width="140" height="51" rx="4" fill="#ffffff" stroke="#666677" stroke-width="1.3"/>
<text x="635" y="736.75" font-size="11.5" text-anchor="middle" fill="#222233">Order</text>
<text x="635" y="750.25" font-size="11.5" text-anchor="middle" fill="#222233">management</text>
<rect x="473" y="855" width="140" height="51" rx="4" fill="#ffffff" stroke="#666677" stroke-width="1.3"/>
<text x="543" y="877.75" font-size="11.5" text-anchor="middle" fill="#222233">Payment</text>
<text x="543" y="891.25" font-size="11.5" text-anchor="middle" fill="#222233">orchestration</text>
<rect x="725" y="714" width="140" height="51" rx="4" fill="#ffffff" stroke="#666677" stroke-width="1.3"/>
<text x="795" y="736.75" font-size="11.5" text-anchor="middle" fill="#222233">Promotions</text>
<text x="795" y="750.25" font-size="11.5" text-anchor="middle" fill="#222233">engine</text>
<rect x="393" y="714" width="140" height="51" rx="4" fill="#ffffff" stroke="#666677" stroke-width="1.3"/>
<text x="463" y="736.75" font-size="11.5" text-anchor="middle" fill="#222233">Loyalty</text>
<text x="463" y="750.25" font-size="11.5" text-anchor="middle" fill="#222233">program</text>
<rect x="909" y="420" width="140" height="51" rx="4" fill="#ffffff" stroke="#666677" stroke-width="1.3"/>
<text x="979" y="442.75" font-size="11.5" text-anchor="middle" fill="#222233">Product</text>
<text x="979" y="456.25" font-size="11.5" text-anchor="middle" fill="#222233">repository</text>
<rect x="1229" y="422.5" width="140" height="46" rx="4" fill="#ffffff" stroke="#666677" stroke-width="1.3"/>
<text x="1299" y="449.5" font-size="11.5" text-anchor="middle" fill="#222233">Pricing</text>
<rect x="1069" y="420" width="140" height="51" rx="4" fill="#ffffff" stroke="#666677" stroke-width="1.3"/>
<text x="1139" y="442.75" font-size="11.5" text-anchor="middle" fill="#222233">Unified stock</text>
<text x="1139" y="456.25" font-size="11.5" text-anchor="middle" fill="#222233">view</text>
<rect x="633" y="359" width="140" height="51" rx="4" fill="#ffffff" stroke="#666677" stroke-width="1.3"/>
<text x="703" y="381.75" font-size="11.5" text-anchor="middle" fill="#222233">Shipment</text>
<text x="703" y="395.25" font-size="11.5" text-anchor="middle" fill="#222233">orchestration</text>
<rect x="537.3333333333334" y="481" width="140" height="51" rx="4" fill="#ffffff" stroke="#666677" stroke-width="1.3"/>
<text x="607.3333333333334" y="503.75" font-size="11.5" text-anchor="middle" fill="#222233">Warehouse</text>
<text x="607.3333333333334" y="517.25" font-size="11.5" text-anchor="middle" fill="#222233">control</text>
<rect x="434" y="359" width="140" height="51" rx="4" fill="#ffffff" stroke="#666677" stroke-width="1.3"/>
<text x="504" y="381.75" font-size="11.5" text-anchor="middle" fill="#222233">After-sales</text>
<text x="504" y="395.25" font-size="11.5" text-anchor="middle" fill="#222233">service</text>
<rect x="764" y="1961" width="140" height="51" rx="4" fill="#ffffff" stroke="#666677" stroke-width="1.3"/>
<text x="834" y="1983.75" font-size="11.5" text-anchor="middle" fill="#222233">Browsing-event</text>
<text x="834" y="1997.25" font-size="11.5" text-anchor="middle" fill="#222233">collection</text>
<rect x="604" y="1961" width="140" height="51" rx="4" fill="#ffffff" stroke="#666677" stroke-width="1.3"/>
<text x="674" y="1983.75" font-size="11.5" text-anchor="middle" fill="#222233">Reference-data</text>
<text x="674" y="1997.25" font-size="11.5" text-anchor="middle" fill="#222233">change capture</text>
<rect x="740.6666666666667" y="2135" width="140" height="51" rx="4" fill="#ffffff" stroke="#666677" stroke-width="1.3"/>
<text x="810.6666666666667" y="2157.75" font-size="11.5" text-anchor="middle" fill="#222233">Data</text>
<text x="810.6666666666667" y="2171.25" font-size="11.5" text-anchor="middle" fill="#222233">warehouse</text>
<rect x="740.6666666666667" y="2257" width="140" height="51" rx="4" fill="#ffffff" stroke="#666677" stroke-width="1.3"/>
<text x="810.6666666666667" y="2279.75" font-size="11.5" text-anchor="middle" fill="#222233">Customer</text>
<text x="810.6666666666667" y="2293.25" font-size="11.5" text-anchor="middle" fill="#222233">segmentation</text>
<rect x="381" y="2496" width="140" height="51" rx="4" fill="#ffffff" stroke="#666677" stroke-width="1.3"/>
<text x="451" y="2518.75" font-size="11.5" text-anchor="middle" fill="#222233">Payment service</text>
<text x="451" y="2532.25" font-size="11.5" text-anchor="middle" fill="#222233">provider (PSP)</text>
<rect x="221" y="2496" width="140" height="51" rx="4" fill="#ffffff" stroke="#666677" stroke-width="1.3"/>
<text x="291" y="2518.75" font-size="11.5" text-anchor="middle" fill="#222233">Carrier</text>
<text x="291" y="2532.25" font-size="11.5" text-anchor="middle" fill="#222233">platforms</text>
<rect x="541" y="2496" width="140" height="51" rx="4" fill="#ffffff" stroke="#666677" stroke-width="1.3"/>
<text x="611" y="2518.75" font-size="11.5" text-anchor="middle" fill="#222233">Group</text>
<text x="611" y="2532.25" font-size="11.5" text-anchor="middle" fill="#222233">ERP</text>
<rect x="861" y="2496" width="140" height="51" rx="4" fill="#ffffff" stroke="#666677" stroke-width="1.3"/>
<text x="931" y="2518.75" font-size="11.5" text-anchor="middle" fill="#222233">Group</text>
<text x="931" y="2532.25" font-size="11.5" text-anchor="middle" fill="#222233">CRM</text>
<rect x="701" y="2496" width="140" height="51" rx="4" fill="#ffffff" stroke="#666677" stroke-width="1.3"/>
<text x="771" y="2518.75" font-size="11.5" text-anchor="middle" fill="#222233">Customer-review</text>
<text x="771" y="2532.25" font-size="11.5" text-anchor="middle" fill="#222233">platform</text>
<path d="M 1727 212 L 1727 1075 L 1548 1075 L 1547.6666666666667 1115 L 1547.6666666666667 1205" fill="none" stroke="#444444" stroke-width="1.3" marker-end="url(#arr)"/>
<text x="1676.5" y="284.5" font-size="10.5" text-anchor="middle" fill="#333" font-style="italic" stroke="white" stroke-width="2.5" paint-order="stroke" stroke-linejoin="round">Browse, search,</text>
<text x="1676.5" y="298" font-size="10.5" text-anchor="middle" fill="#333" font-style="italic" stroke="white" stroke-width="2.5" paint-order="stroke" stroke-linejoin="round">order</text>
<path d="M 1616.5 212 L 1617 229 L 1617 1065 L 1411 1065 L 1411 1205" fill="none" stroke="#444444" stroke-width="1.3" marker-end="url(#arr)"/>
<text x="1566.5" y="1025.5" font-size="10.5" text-anchor="middle" fill="#333" font-style="italic" stroke="white" stroke-width="2.5" paint-order="stroke" stroke-linejoin="round">Mobile purchase</text>
<text x="1566.5" y="1039" font-size="10.5" text-anchor="middle" fill="#333" font-style="italic" stroke="white" stroke-width="2.5" paint-order="stroke" stroke-linejoin="round">journey</text>
<path d="M 1515 212 L 1515 1004 L 1507 1004 L 1507 1055 L 1251 1055 L 1251 1205" fill="none" stroke="#444444" stroke-width="1.3" marker-end="url(#arr)"/>
<text x="1456.5" y="1025.5" font-size="10.5" text-anchor="middle" fill="#333" font-style="italic" stroke="white" stroke-width="2.5" paint-order="stroke" stroke-linejoin="round">Check stock and</text>
<text x="1456.5" y="1039" font-size="10.5" text-anchor="middle" fill="#333" font-style="italic" stroke="white" stroke-width="2.5" paint-order="stroke" stroke-linejoin="round">order in store</text>
<path d="M 1571 1256 L 1571 1394 L 1655.5 1394 L 1655.5 1529" fill="none" stroke="#444444" stroke-width="1.3" marker-end="url(#arr)"/>
<text x="1521.5" y="1364.5" font-size="10.5" text-anchor="middle" fill="#333" font-style="italic" stroke="white" stroke-width="2.5" paint-order="stroke" stroke-linejoin="round">Display product</text>
<text x="1521.5" y="1378" font-size="10.5" text-anchor="middle" fill="#333" font-style="italic" stroke="white" stroke-width="2.5" paint-order="stroke" stroke-linejoin="round">pages</text>
<path d="M 1434.3333333333333 1256 L 1434.3333333333333 1266 L 1531 1266 A 5 5 0 0 1 1541 1266 L 1566 1266 A 5 5 0 0 1 1576 1266 L 1581 1266 L 1581 1333 L 1673 1333 L 1673 1529" fill="none" stroke="#444444" stroke-width="1.3" marker-end="url(#arr)"/>
<text x="1626.5" y="1364.5" font-size="10.5" text-anchor="middle" fill="#333" font-style="italic" stroke="white" stroke-width="2.5" paint-order="stroke" stroke-linejoin="round">Display mobile</text>
<text x="1626.5" y="1378" font-size="10.5" text-anchor="middle" fill="#333" font-style="italic" stroke="white" stroke-width="2.5" paint-order="stroke" stroke-linejoin="round">catalog</text>
<path d="M 1251 1256 L 1251 1286 L 1531 1286 A 5 5 0 0 1 1541 1286 L 1541 1286 A 5 5 0 0 1 1551 1286 L 1556 1286 L 1556 1343 L 1463 1343 L 1463 1404 L 1638 1404 L 1638 1529" fill="none" stroke="#444444" stroke-width="1.3" marker-end="url(#arr)"/>
<text x="1425.5" y="1364.5" font-size="10.5" text-anchor="middle" fill="#333" font-style="italic" stroke="white" stroke-width="2.5" paint-order="stroke" stroke-linejoin="round">Browse the</text>
<text x="1425.5" y="1378" font-size="10.5" text-anchor="middle" fill="#333" font-style="italic" stroke="white" stroke-width="2.5" paint-order="stroke" stroke-linejoin="round">store offer</text>
<path d="M 1536 1256 L 1536 1323 L 1163 1323 A 5 5 0 0 0 1153 1323 L 1152 1323 A 5 5 0 0 0 1142 1323 L 1141 1323 A 5 5 0 0 0 1131 1323 L 1130 1323 A 5 5 0 0 0 1120 1323 L 1024 1323 L 1024 1464 L 1453.6666666666665 1464 L 1453.6666666666665 1529" fill="none" stroke="#444444" stroke-width="1.3" marker-end="url(#arr)"/>
<text x="977.5" y="1371.25" font-size="10.5" text-anchor="middle" fill="#333" font-style="italic" stroke="white" stroke-width="2.5" paint-order="stroke" stroke-linejoin="round">Build the cart</text>
<path d="M 1387.6666666666665 1256 L 1387.6666666666665 1276 L 1531 1276 A 5 5 0 0 1 1541 1276 L 1546 1276 L 1546 1333 L 1163 1333 A 5 5 0 0 0 1153 1333 L 1152 1333 A 5 5 0 0 0 1142 1333 L 1141 1333 A 5 5 0 0 0 1131 1333 L 1130 1333 A 5 5 0 0 0 1120 1333 L 1035 1333 L 1035 1454 L 1500.3333333333333 1454 L 1500.3333333333333 1529" fill="none" stroke="#444444" stroke-width="1.3" marker-end="url(#arr)"/>
<text x="1076.5" y="1364.5" font-size="10.5" text-anchor="middle" fill="#333" font-style="italic" stroke="white" stroke-width="2.5" paint-order="stroke" stroke-linejoin="round">Synchronized</text>
<text x="1076.5" y="1378" font-size="10.5" text-anchor="middle" fill="#333" font-style="italic" stroke="white" stroke-width="2.5" paint-order="stroke" stroke-linejoin="round">mobile cart</text>
<path d="M 1500.3333333333333 1580 L 1500.3333333333333 1739 L 1801.5 1739 L 1802 1766 L 1802 1776 L 1826 1776 L 1826 249 L 1732 249 A 5 5 0 0 0 1722 249 L 1622 249 A 5 5 0 0 0 1612 249 L 1520 249 A 5 5 0 0 0 1510 249 L 1144 249 A 5 5 0 0 0 1134 249 L 1007 249 A 5 5 0 0 0 997 249 L 903 249 A 5 5 0 0 0 893 249 L 795 249 L 795 714" fill="none" stroke="#444444" stroke-width="1.3" marker-end="url(#arr)"/>
<text x="1781.5" y="1051.5" font-size="10.5" text-anchor="middle" fill="#333" font-style="italic" stroke="white" stroke-width="2.5" paint-order="stroke" stroke-linejoin="round">Apply current</text>
<text x="1781.5" y="1065" font-size="10.5" text-anchor="middle" fill="#333" font-style="italic" stroke="white" stroke-width="2.5" paint-order="stroke" stroke-linejoin="round">offers</text>
<path d="M 1638 1580 L 1638 1651" fill="none" stroke="#444444" stroke-width="1.3" marker-end="url(#arr)"/>
<text x="1668" y="1611.5" font-size="10.5" text-anchor="middle" fill="#333" font-style="italic" stroke="white" stroke-width="2.5" paint-order="stroke" stroke-linejoin="round">Browsing</text>
<text x="1668" y="1625" font-size="10.5" text-anchor="middle" fill="#333" font-style="italic" stroke="white" stroke-width="2.5" paint-order="stroke" stroke-linejoin="round">context</text>
<path d="M 1614.6666666666665 1702 L 1614.6666666666667 1729 L 1780.5 1729 L 1780.5 1160 L 1695.5 1160 A 5 5 0 0 0 1685.5 1160 L 1594.3333333333333 1160 L 1594.3333333333333 1205" fill="none" stroke="#444444" stroke-width="1.3" marker-end="url(#arr)"/>
<text x="1740" y="1364.5" font-size="10.5" text-anchor="middle" fill="#333" font-style="italic" stroke="white" stroke-width="2.5" paint-order="stroke" stroke-linejoin="round">Personalized</text>
<text x="1740" y="1378" font-size="10.5" text-anchor="middle" fill="#333" font-style="italic" stroke="white" stroke-width="2.5" paint-order="stroke" stroke-linejoin="round">suggestions</text>
<path d="M 1317 1580 L 1317 1776 L 863 1776 L 863 1020 L 640 1020 A 5 5 0 0 0 630 1020 L 548 1020 A 5 5 0 0 0 538 1020 L 372 1020 A 5 5 0 0 0 362 1020 L 343 1020 L 343 259 L 378 259 L 378 669 L 463 669 L 463 714" fill="none" stroke="#444444" stroke-width="1.3" marker-end="url(#arr)"/>
<text x="812.5" y="1065.5" font-size="10.5" text-anchor="middle" fill="#333" font-style="italic" stroke="white" stroke-width="2.5" paint-order="stroke" stroke-linejoin="round">Loyalty balance</text>
<text x="812.5" y="1079" font-size="10.5" text-anchor="middle" fill="#333" font-style="italic" stroke="white" stroke-width="2.5" paint-order="stroke" stroke-linejoin="round">and benefits</text>
<path d="M 1453.6666666666667 1580 L 1454 1766 L 1454 1786 L 852 1786 L 852 1175 L 846 1175 A 5 5 0 0 0 836 1175 L 753 1175 L 753 1105 L 677 1105 A 5 5 0 0 0 667 1105 L 572 1105 A 5 5 0 0 0 562 1105 L 456 1105 A 5 5 0 0 0 446 1105 L 332 1105 L 332 249 L 384 249 A 5 5 0 0 1 394 249 L 395 249 A 5 5 0 0 1 405 249 L 411 249 L 411 639 L 611.6666666666665 639 L 611.6666666666667 714" fill="none" stroke="#444444" stroke-width="1.3" marker-end="url(#arr)"/>
<text x="717.5" y="1126.5" font-size="10.5" text-anchor="middle" fill="#333" font-style="italic" stroke="white" stroke-width="2.5" paint-order="stroke" stroke-linejoin="round">Order</text>
<text x="717.5" y="1140" font-size="10.5" text-anchor="middle" fill="#333" font-style="italic" stroke="white" stroke-width="2.5" paint-order="stroke" stroke-linejoin="round">validation</text>
<rect x="696" y="1148" width="43" height="15" rx="7.5" fill="#fdf3d8" stroke="#c9a227" stroke-width="1"/>
<text x="717.5" y="1159" font-size="9.5" text-anchor="middle" fill="#7a6216" font-weight="bold">Order</text>
<path d="M 600 765 L 600 775 L 559 775 A 5 5 0 0 0 549 775 L 548 775 A 5 5 0 0 0 538 775 L 532 775 L 532 845 L 508 845 L 508 855" fill="none" stroke="#444444" stroke-width="1.3" marker-end="url(#arr)"/>
<text x="501" y="796.5" font-size="10.5" text-anchor="middle" fill="#333" font-style="italic" stroke="white" stroke-width="2.5" paint-order="stroke" stroke-linejoin="round">Charge</text>
<text x="501" y="810" font-size="10.5" text-anchor="middle" fill="#333" font-style="italic" stroke="white" stroke-width="2.5" paint-order="stroke" stroke-linejoin="round">request</text>
<rect x="474" y="818" width="54" height="15" rx="7.5" fill="#fdf3d8" stroke="#c9a227" stroke-width="1"/>
<text x="501" y="829" font-size="9.5" text-anchor="middle" fill="#7a6216" font-weight="bold">Payment</text>
<path d="M 543 906 L 543 1095 L 451 1095 L 451 2496" fill="none" stroke="#444444" stroke-width="1.3" marker-end="url(#arr)"/>
<text x="383" y="1126.5" font-size="10.5" text-anchor="middle" fill="#333" font-style="italic" stroke="white" stroke-width="2.5" paint-order="stroke" stroke-linejoin="round">Payment authorization</text>
<text x="383" y="1140" font-size="10.5" text-anchor="middle" fill="#333" font-style="italic" stroke="white" stroke-width="2.5" paint-order="stroke" stroke-linejoin="round">and capture</text>
<rect x="356" y="1148" width="54" height="15" rx="7.5" fill="#fdf3d8" stroke="#c9a227" stroke-width="1"/>
<text x="383" y="1159" font-size="9.5" text-anchor="middle" fill="#7a6216" font-weight="bold">Payment</text>
<path d="M 451 2547 L 451 2584 L 86 2584 L 86 239 L 191 239 A 5 5 0 0 1 201 239 L 389 239 L 389 659 L 543 659 L 543 855" fill="none" stroke="#444444" stroke-width="1.3" marker-end="url(#arr)"/>
<text x="47.5" y="2472.5" font-size="10.5" text-anchor="middle" fill="#333" font-style="italic" stroke="white" stroke-width="2.5" paint-order="stroke" stroke-linejoin="round">Transaction</text>
<text x="47.5" y="2486" font-size="10.5" text-anchor="middle" fill="#333" font-style="italic" stroke="white" stroke-width="2.5" paint-order="stroke" stroke-linejoin="round">status</text>
<path d="M 670 765 L 670 933 L 887 933 L 887 314 L 800 314 A 5 5 0 0 0 790 314 L 726.3333333333333 314 L 726.3333333333333 359" fill="none" stroke="#444444" stroke-width="1.3" marker-end="url(#arr)"/>
<text x="852.5" y="580.5" font-size="10.5" text-anchor="middle" fill="#333" font-style="italic" stroke="white" stroke-width="2.5" paint-order="stroke" stroke-linejoin="round">Fulfilment</text>
<text x="852.5" y="594" font-size="10.5" text-anchor="middle" fill="#333" font-style="italic" stroke="white" stroke-width="2.5" paint-order="stroke" stroke-linejoin="round">order</text>
<rect x="831" y="602" width="43" height="15" rx="7.5" fill="#fdf3d8" stroke="#c9a227" stroke-width="1"/>
<text x="852.5" y="613" font-size="9.5" text-anchor="middle" fill="#7a6216" font-weight="bold">Order</text>
<path d="M 703 410 L 703 471 L 630.6666666666666 471 L 630.6666666666666 481" fill="none" stroke="#444444" stroke-width="1.3" marker-end="url(#arr)"/>
<text x="648" y="441.5" font-size="10.5" text-anchor="middle" fill="#333" font-style="italic" stroke="white" stroke-width="2.5" paint-order="stroke" stroke-linejoin="round">Warehouse picking</text>
<text x="648" y="455" font-size="10.5" text-anchor="middle" fill="#333" font-style="italic" stroke="white" stroke-width="2.5" paint-order="stroke" stroke-linejoin="round">waves</text>
<path d="M 622.5 127 L 623 144 L 623 259 L 584 259 L 584 481" fill="none" stroke="#444444" stroke-width="1.3" marker-end="url(#arr)"/>
<text x="578.5" y="199.5" font-size="10.5" text-anchor="middle" fill="#333" font-style="italic" stroke="white" stroke-width="2.5" paint-order="stroke" stroke-linejoin="round">Pick and ship</text>
<text x="578.5" y="213" font-size="10.5" text-anchor="middle" fill="#333" font-style="italic" stroke="white" stroke-width="2.5" paint-order="stroke" stroke-linejoin="round">parcels</text>
<path d="M 668 410 L 668 420 L 589 420 A 5 5 0 0 0 579 420 L 509 420 A 5 5 0 0 0 499 420 L 493 420 L 493 559 L 416 559 A 5 5 0 0 0 406 559 L 405 559 A 5 5 0 0 0 395 559 L 394 559 A 5 5 0 0 0 384 559 L 383 559 A 5 5 0 0 0 373 559 L 367 559 L 367 1095 L 337 1095 A 5 5 0 0 0 327 1095 L 306 1095 L 306 2427 L 291 2427 L 291 2496" fill="none" stroke="#444444" stroke-width="1.3" marker-end="url(#arr)"/>
<text x="255.5" y="2378.5" font-size="10.5" text-anchor="middle" fill="#333" font-style="italic" stroke="white" stroke-width="2.5" paint-order="stroke" stroke-linejoin="round">Pickup requests</text>
<text x="255.5" y="2392" font-size="10.5" text-anchor="middle" fill="#333" font-style="italic" stroke="white" stroke-width="2.5" paint-order="stroke" stroke-linejoin="round">and labels</text>
<rect x="231.5" y="2400" width="48" height="15" rx="7.5" fill="#fdf3d8" stroke="#c9a227" stroke-width="1"/>
<text x="255.5" y="2411" font-size="9.5" text-anchor="middle" fill="#7a6216" font-weight="bold">Parcel</text>
<path d="M 291 2547 L 291 2574 L 196 2574 L 196 229 L 395 229 A 5 5 0 0 1 405 229 L 499 229 A 5 5 0 0 1 509 229 L 618 229 A 5 5 0 0 1 628 229 L 680 229 L 679.6666666666666 269 L 679.6666666666666 359" fill="none" stroke="#444444" stroke-width="1.3" marker-end="url(#arr)"/>
<text x="145.5" y="2472.5" font-size="10.5" text-anchor="middle" fill="#333" font-style="italic" stroke="white" stroke-width="2.5" paint-order="stroke" stroke-linejoin="round">Parcel-tracking</text>
<text x="145.5" y="2486" font-size="10.5" text-anchor="middle" fill="#333" font-style="italic" stroke="white" stroke-width="2.5" paint-order="stroke" stroke-linejoin="round">events</text>
<path d="M 738 410 L 738 559 L 790 559 A 5 5 0 0 1 800 559 L 882 559 A 5 5 0 0 1 892 559 L 950.6666666666666 559 A 5 5 0 0 1 960.6666666666666 559 L 966.6666666666666 559 L 967 960 L 967 1105 L 922 1105 L 922 1474 L 1340.3333333333333 1474 L 1340.3333333333333 1529" fill="none" stroke="#444444" stroke-width="1.3" marker-end="url(#arr)"/>
<text x="919.5" y="1051.5" font-size="10.5" text-anchor="middle" fill="#333" font-style="italic" stroke="white" stroke-width="2.5" paint-order="stroke" stroke-linejoin="round">Customer order</text>
<text x="919.5" y="1065" font-size="10.5" text-anchor="middle" fill="#333" font-style="italic" stroke="white" stroke-width="2.5" paint-order="stroke" stroke-linejoin="round">tracking</text>
<path d="M 512.5 127 L 513 144 L 513 178 L 504 178 L 504 359" fill="none" stroke="#444444" stroke-width="1.3" marker-end="url(#arr)"/>
<text x="468.5" y="199.5" font-size="10.5" text-anchor="middle" fill="#333" font-style="italic" stroke="white" stroke-width="2.5" paint-order="stroke" stroke-linejoin="round">Handle</text>
<text x="468.5" y="213" font-size="10.5" text-anchor="middle" fill="#333" font-style="italic" stroke="white" stroke-width="2.5" paint-order="stroke" stroke-linejoin="round">complaints</text>
<path d="M 504 410 L 504 629 L 658.3333333333333 629 L 658.3333333333333 714" fill="none" stroke="#444444" stroke-width="1.3" marker-end="url(#arr)"/>
<text x="466.5" y="590" font-size="10.5" text-anchor="middle" fill="#333" font-style="italic" stroke="white" stroke-width="2.5" paint-order="stroke" stroke-linejoin="round">Returns and</text>
<text x="466.5" y="603.5" font-size="10.5" text-anchor="middle" fill="#333" font-style="italic" stroke="white" stroke-width="2.5" paint-order="stroke" stroke-linejoin="round">refunds</text>
<path d="M 825.5 127 L 826 144 L 826 174 L 1002 174 L 1002.3333333333333 269 L 1002.3333333333334 420" fill="none" stroke="#444444" stroke-width="1.3" marker-end="url(#arr)"/>
<text x="954.5" y="205.5" font-size="10.5" text-anchor="middle" fill="#333" font-style="italic" stroke="white" stroke-width="2.5" paint-order="stroke" stroke-linejoin="round">Enrich product</text>
<text x="954.5" y="219" font-size="10.5" text-anchor="middle" fill="#333" font-style="italic" stroke="white" stroke-width="2.5" paint-order="stroke" stroke-linejoin="round">pages</text>
<path d="M 1002.3333333333334 471 L 1002 960 L 1002 970 L 1053 970 L 1053 1064 L 1136 1064 L 1136 1434 L 1585.5 1434 L 1585.5 1529" fill="none" stroke="#444444" stroke-width="1.3" marker-end="url(#arr)"/>
<text x="1014.5" y="1015.5" font-size="10.5" text-anchor="middle" fill="#333" font-style="italic" stroke="white" stroke-width="2.5" paint-order="stroke" stroke-linejoin="round">Publish the</text>
<text x="1014.5" y="1029" font-size="10.5" text-anchor="middle" fill="#333" font-style="italic" stroke="white" stroke-width="2.5" paint-order="stroke" stroke-linejoin="round">catalog</text>
<rect x="987.5" y="1037" width="54" height="15" rx="7.5" fill="#fdf3d8" stroke="#c9a227" stroke-width="1"/>
<text x="1014.5" y="1048" font-size="9.5" text-anchor="middle" fill="#7a6216" font-weight="bold">Product</text>
<path d="M 1299 468.5 L 1299 1045 L 1158 1045 L 1158 1414 L 1620.5 1414 L 1620.5 1529" fill="none" stroke="#444444" stroke-width="1.3" marker-end="url(#arr)"/>
<text x="1257.5" y="1015.5" font-size="10.5" text-anchor="middle" fill="#333" font-style="italic" stroke="white" stroke-width="2.5" paint-order="stroke" stroke-linejoin="round">Current sale</text>
<text x="1257.5" y="1029" font-size="10.5" text-anchor="middle" fill="#333" font-style="italic" stroke="white" stroke-width="2.5" paint-order="stroke" stroke-linejoin="round">prices</text>
<path d="M 587.6666666666667 2547 L 588 2564 L 588 2604 L 1989 2604 L 1989 239 L 1732 239 A 5 5 0 0 0 1722 239 L 1622 239 A 5 5 0 0 0 1612 239 L 1520 239 A 5 5 0 0 0 1510 239 L 1139 239 L 1139 420" fill="none" stroke="#444444" stroke-width="1.3" marker-end="url(#arr)"/>
<text x="2043.5" y="2472.5" font-size="10.5" text-anchor="middle" fill="#333" font-style="italic" stroke="white" stroke-width="2.5" paint-order="stroke" stroke-linejoin="round">Accounting stock</text>
<text x="2043.5" y="2486" font-size="10.5" text-anchor="middle" fill="#333" font-style="italic" stroke="white" stroke-width="2.5" paint-order="stroke" stroke-linejoin="round">movements</text>
<path d="M 1139 471 L 1139 970 L 1147 970 L 1147 1424 L 1603 1424 L 1603 1529" fill="none" stroke="#444444" stroke-width="1.3" marker-end="url(#arr)"/>
<text x="1105.5" y="1015.5" font-size="10.5" text-anchor="middle" fill="#333" font-style="italic" stroke="white" stroke-width="2.5" paint-order="stroke" stroke-linejoin="round">Product</text>
<text x="1105.5" y="1029" font-size="10.5" text-anchor="middle" fill="#333" font-style="italic" stroke="white" stroke-width="2.5" paint-order="stroke" stroke-linejoin="round">availability</text>
<rect x="1078.5" y="1037" width="54" height="15" rx="7.5" fill="#fdf3d8" stroke="#c9a227" stroke-width="1"/>
<text x="1105.5" y="1048" font-size="9.5" text-anchor="middle" fill="#7a6216" font-weight="bold">Product</text>
<path d="M 634.3333333333333 2547 L 634 2564 L 634 2594 L 1977 2594 L 1977 259 L 1831 259 A 5 5 0 0 0 1821 259 L 1732 259 A 5 5 0 0 0 1722 259 L 1622 259 A 5 5 0 0 0 1612 259 L 1520 259 A 5 5 0 0 0 1510 259 L 1299 259 L 1299 422.5" fill="none" stroke="#444444" stroke-width="1.3" marker-end="url(#arr)"/>
<text x="1918" y="2430.5" font-size="10.5" text-anchor="middle" fill="#333" font-style="italic" stroke="white" stroke-width="2.5" paint-order="stroke" stroke-linejoin="round">Reference purchase</text>
<text x="1918" y="2444" font-size="10.5" text-anchor="middle" fill="#333" font-style="italic" stroke="white" stroke-width="2.5" paint-order="stroke" stroke-linejoin="round">costs</text>
<path d="M 1606 1256 L 1606 1323 L 1685.5 1323 A 5 5 0 0 1 1695.5 1323 L 1775.5 1323 A 5 5 0 0 1 1785.5 1323 L 1791.5 1323 L 1792 1766 L 1792 1796 L 846 1796 A 5 5 0 0 0 836 1796 L 834 1796 L 834 1961" fill="none" stroke="#444444" stroke-width="1.3" marker-end="url(#arr)"/>
<text x="804" y="1827.5" font-size="10.5" text-anchor="middle" fill="#333" font-style="italic" stroke="white" stroke-width="2.5" paint-order="stroke" stroke-linejoin="round">Browsing</text>
<text x="804" y="1841" font-size="10.5" text-anchor="middle" fill="#333" font-style="italic" stroke="white" stroke-width="2.5" paint-order="stroke" stroke-linejoin="round">events</text>
<path d="M 955.6666666666666 471 L 956 960 L 956 1030 L 868 1030 A 5 5 0 0 0 858 1030 L 672 1030 L 672 1156 L 674 1156 L 674 1961" fill="none" stroke="#444444" stroke-width="1.3" marker-end="url(#arr)"/>
<text x="624.5" y="1126.5" font-size="10.5" text-anchor="middle" fill="#333" font-style="italic" stroke="white" stroke-width="2.5" paint-order="stroke" stroke-linejoin="round">Reference-data</text>
<text x="624.5" y="1140" font-size="10.5" text-anchor="middle" fill="#333" font-style="italic" stroke="white" stroke-width="2.5" paint-order="stroke" stroke-linejoin="round">changes</text>
<path d="M 834 2012 L 834 2135" fill="none" stroke="#444444" stroke-width="1.3" marker-end="url(#arr)"/>
<text x="878.5" y="2060.5" font-size="10.5" text-anchor="middle" fill="#333" font-style="italic" stroke="white" stroke-width="2.5" paint-order="stroke" stroke-linejoin="round">Feed the data</text>
<text x="878.5" y="2074" font-size="10.5" text-anchor="middle" fill="#333" font-style="italic" stroke="white" stroke-width="2.5" paint-order="stroke" stroke-linejoin="round">foundation</text>
<path d="M 674 2012 L 674 2039 L 787.3333333333334 2039 L 787.3333333333334 2135" fill="none" stroke="#444444" stroke-width="1.3" marker-end="url(#arr)"/>
<text x="740.8333333333334" y="2060.5" font-size="10.5" text-anchor="middle" fill="#333" font-style="italic" stroke="white" stroke-width="2.5" paint-order="stroke" stroke-linejoin="round">Reference-data</text>
<text x="740.8333333333334" y="2074" font-size="10.5" text-anchor="middle" fill="#333" font-style="italic" stroke="white" stroke-width="2.5" paint-order="stroke" stroke-linejoin="round">sync</text>
<path d="M 810.6666666666667 2186 L 810.6666666666667 2257" fill="none" stroke="#444444" stroke-width="1.3" marker-end="url(#arr)"/>
<text x="781.6666666666667" y="2217.5" font-size="10.5" text-anchor="middle" fill="#333" font-style="italic" stroke="white" stroke-width="2.5" paint-order="stroke" stroke-linejoin="round">Compute</text>
<text x="781.6666666666667" y="2231" font-size="10.5" text-anchor="middle" fill="#333" font-style="italic" stroke="white" stroke-width="2.5" paint-order="stroke" stroke-linejoin="round">segments</text>
<path d="M 834.0000000000001 2308 L 834 2352 L 944 2352 L 944 1806 L 841 1806 L 841 1095 L 858 1095 A 5 5 0 0 1 868 1095 L 906 1095 A 5 5 0 0 1 916 1095 L 962 1095 A 5 5 0 0 1 972 1095 L 1125 1095 L 1125 1444 L 1557 1444 L 1557 1641 L 1591.3333333333335 1641 L 1591.3333333333335 1651" fill="none" stroke="#444444" stroke-width="1.3" marker-end="url(#arr)"/>
<text x="1007" y="1902.5" font-size="10.5" text-anchor="middle" fill="#333" font-style="italic" stroke="white" stroke-width="2.5" paint-order="stroke" stroke-linejoin="round">Audience segments</text>
<text x="1007" y="1916" font-size="10.5" text-anchor="middle" fill="#333" font-style="italic" stroke="white" stroke-width="2.5" paint-order="stroke" stroke-linejoin="round">for personalization</text>
<path d="M 787.3333333333334 2308 L 787 2342 L 787 2427 L 931 2427 L 931 2496" fill="none" stroke="#444444" stroke-width="1.3" marker-end="url(#arr)"/>
<text x="742.5" y="2397.5" font-size="10.5" text-anchor="middle" fill="#333" font-style="italic" stroke="white" stroke-width="2.5" paint-order="stroke" stroke-linejoin="round">Audiences for</text>
<text x="742.5" y="2411" font-size="10.5" text-anchor="middle" fill="#333" font-style="italic" stroke="white" stroke-width="2.5" paint-order="stroke" stroke-linejoin="round">campaigns</text>
<path d="M 931 2547 L 931 2574 L 1837 2574 L 1837 1085 L 1831 1085 A 5 5 0 0 0 1821 1085 L 1553 1085 A 5 5 0 0 0 1543 1085 L 1416 1085 A 5 5 0 0 0 1406 1085 L 1256 1085 A 5 5 0 0 0 1246 1085 L 1163 1085 A 5 5 0 0 0 1153 1085 L 1152 1085 A 5 5 0 0 0 1142 1085 L 1141 1085 A 5 5 0 0 0 1131 1085 L 972 1085 A 5 5 0 0 0 962 1085 L 911 1085 L 911 1484 L 1293.6666666666667 1484 L 1293.6666666666667 1529" fill="none" stroke="#444444" stroke-width="1.3" marker-end="url(#arr)"/>
<text x="1795.5" y="2472.5" font-size="10.5" text-anchor="middle" fill="#333" font-style="italic" stroke="white" stroke-width="2.5" paint-order="stroke" stroke-linejoin="round">Personalized</text>
<text x="1795.5" y="2486" font-size="10.5" text-anchor="middle" fill="#333" font-style="italic" stroke="white" stroke-width="2.5" paint-order="stroke" stroke-linejoin="round">outreach</text>
<path d="M 399.5 127 L 400 144 L 400 649 L 554 649 L 554 845 L 578 845 L 578 855" fill="none" stroke="#444444" stroke-width="1.3" marker-end="url(#arr)"/>
<text x="361.5" y="199.5" font-size="10.5" text-anchor="middle" fill="#333" font-style="italic" stroke="white" stroke-width="2.5" paint-order="stroke" stroke-linejoin="round">Reconcile</text>
<text x="361.5" y="213" font-size="10.5" text-anchor="middle" fill="#333" font-style="italic" stroke="white" stroke-width="2.5" paint-order="stroke" stroke-linejoin="round">collections</text>
<path d="M 718.5 127 L 719 144 L 719 184 L 898 184 L 898 259 L 956 259 L 955.6666666666666 269 L 955.6666666666666 420" fill="none" stroke="#444444" stroke-width="1.3" marker-end="url(#arr)"/>
<text x="824" y="205.5" font-size="10.5" text-anchor="middle" fill="#333" font-style="italic" stroke="white" stroke-width="2.5" paint-order="stroke" stroke-linejoin="round">Administer repositories</text>
<text x="824" y="219" font-size="10.5" text-anchor="middle" fill="#333" font-style="italic" stroke="white" stroke-width="2.5" paint-order="stroke" stroke-linejoin="round">and permissions</text>
<path d="M 635 765 L 635 1095 L 567 1095 L 567 2427 L 771 2427 L 771 2496" fill="none" stroke="#444444" stroke-width="1.3" marker-end="url(#arr)"/>
<text x="513.5" y="1126.5" font-size="10.5" text-anchor="middle" fill="#333" font-style="italic" stroke="white" stroke-width="2.5" paint-order="stroke" stroke-linejoin="round">Request a review</text>
<text x="513.5" y="1140" font-size="10.5" text-anchor="middle" fill="#333" font-style="italic" stroke="white" stroke-width="2.5" paint-order="stroke" stroke-linejoin="round">after delivery</text>
<path d="M 771 2547 L 771 2584 L 1849 2584 L 1849 1105 L 1842 1105 A 5 5 0 0 0 1832 1105 L 1831 1105 A 5 5 0 0 0 1821 1105 L 1691 1105 L 1690.5 1115 L 1690.5 1529" fill="none" stroke="#444444" stroke-width="1.3" marker-end="url(#arr)"/>
<text x="1900.5" y="2472.5" font-size="10.5" text-anchor="middle" fill="#333" font-style="italic" stroke="white" stroke-width="2.5" paint-order="stroke" stroke-linejoin="round">Product ratings</text>
<text x="1900.5" y="2486" font-size="10.5" text-anchor="middle" fill="#333" font-style="italic" stroke="white" stroke-width="2.5" paint-order="stroke" stroke-linejoin="round">and reviews</text>
<line x1="20" y1="2626" x2="2086" y2="2626" stroke="#ddd" stroke-width="1"/>
<text x="20" y="2648" font-size="11" font-weight="bold" fill="#555">BUSINESS OBJECTS</text>
<rect x="150" y="2638" width="43" height="15" rx="7.5" fill="#fdf3d8" stroke="#c9a227"/>
<text x="171.5" y="2649" font-size="9.5" text-anchor="middle" fill="#7a6216" font-weight="bold">Order</text>
<text x="203" y="2649" font-size="10" fill="#666">— cart validated by a customer, tracked until delivery</text>
<rect x="150" y="2662" width="54" height="15" rx="7.5" fill="#fdf3d8" stroke="#c9a227"/>
<text x="177" y="2673" font-size="9.5" text-anchor="middle" fill="#7a6216" font-weight="bold">Payment</text>
<text x="214" y="2673" font-size="10" fill="#666">— financial transaction tied to an order</text>
<rect x="150" y="2686" width="54" height="15" rx="7.5" fill="#fdf3d8" stroke="#c9a227"/>
<text x="177" y="2697" font-size="9.5" text-anchor="middle" fill="#7a6216" font-weight="bold">Product</text>
<text x="214" y="2697" font-size="10" fill="#666">— catalog item with price and availability</text>
<rect x="150" y="2710" width="48" height="15" rx="7.5" fill="#fdf3d8" stroke="#c9a227"/>
<text x="174" y="2721" font-size="9.5" text-anchor="middle" fill="#7a6216" font-weight="bold">Parcel</text>
<text x="208" y="2721" font-size="10" fill="#666">— shipping unit handed to the carrier</text>
<line x1="20" y1="2748" x2="2086" y2="2748" stroke="#ddd" stroke-width="1"/>
<text x="20" y="2770" font-size="11" font-weight="bold" fill="#555">LEGEND</text>
<rect x="150" y="2760" width="26" height="14" rx="3" fill="#eef4fb" stroke="#7a9cc4" stroke-dasharray="5 3"/>
<text x="182" y="2771" font-size="10" fill="#444">Actor group</text>
<rect x="272" y="2760" width="26" height="14" rx="3" fill="#f6f2ea" stroke="#b09a6d"/>
<text x="304" y="2771" font-size="10" fill="#444">System</text>
<rect x="368" y="2760" width="26" height="14" rx="3" fill="#fdfbf6" stroke="#c4b258"/>
<text x="400" y="2771" font-size="10" fill="#444">Layer</text>
<rect x="458" y="2760" width="26" height="14" rx="3" fill="#ffffff" stroke="#666677"/>
<text x="490" y="2771" font-size="10" fill="#444">Functional block</text>
<rect x="606" y="2760" width="26" height="14" rx="3" fill="#f0eef5" stroke="#9187b3" stroke-dasharray="5 3"/>
<text x="638" y="2771" font-size="10" fill="#444">External system</text>
<line x1="150" y1="2790" x2="176" y2="2790" stroke="#444444" stroke-width="1.3" marker-end="url(#arr)"/>
<text x="182" y="2794" font-size="10" fill="#444">Functional flow (label = exchanged data)</text>
<rect x="480" y="2783" width="96" height="15" rx="7.5" fill="#fdf3d8" stroke="#c9a227"/>
<text x="528" y="2794" font-size="9.5" text-anchor="middle" fill="#7a6216" font-weight="bold">Business object</text>
<text x="584" y="2794" font-size="10" fill="#444">carried by the flow</text>
</svg>
