<svg xmlns="http://www.w3.org/2000/svg" viewBox="0 0 2078 2752" font-family="Helvetica,Arial,sans-serif">
<defs><marker id="arr" viewBox="0 0 10 10" refX="9" refY="5" markerWidth="7" markerHeight="7" orient="auto-start-reverse">
<path d="M0,0 L10,5 L0,10 z" fill="#444444"/></marker></defs>
<rect width="2078" height="2752" fill="white"/>
<rect x="1460" y="123" width="309" height="109" rx="6" fill="#eef4fb" stroke="#7a9cc4" stroke-width="1.2" stroke-dasharray="5 3"/>
<text x="1470" y="141" font-size="12" font-weight="bold" fill="#333">Customers</text>
<rect x="342" y="30" width="529" height="109" rx="6" fill="#eef4fb" stroke="#7a9cc4" stroke-width="1.2" stroke-dasharray="5 3"/>
<text x="352" y="48" font-size="12" font-weight="bold" fill="#333">Internal teams</text>
<rect x="888" y="1101" width="914.5" height="627.5" rx="6" fill="#f6f2ea" stroke="#b09a6d" stroke-width="1.2"/>
<text x="898" y="1119" font-size="12" font-weight="bold" fill="#333">Commerce front</text>
<rect x="1158" y="1156" width="484" height="133" rx="6" fill="#fdfbf6" stroke="#c4b258" stroke-width="1"/>
<text x="1168" y="1174" font-size="12" font-weight="bold" fill="#333">Presentation layer</text>
<rect x="1224" y="1480" width="519" height="201.5" rx="6" fill="#fdfbf6" stroke="#c4b258" stroke-width="1"/>
<text x="1234" y="1498" font-size="12" font-weight="bold" fill="#333">Customer-journey layer</text>
<rect x="325" y="282" width="1057" height="654" rx="6" fill="#f6f2ea" stroke="#b09a6d" stroke-width="1.2"/>
<text x="335" y="300" font-size="12" font-weight="bold" fill="#333">Commerce core</text>
<rect x="348" y="678.5" width="496" height="220.5" rx="6" fill="#fdfbf6" stroke="#c4b258" stroke-width="1"/>
<text x="358" y="696.5" font-size="12" font-weight="bold" fill="#333">Sales layer</text>
<rect x="886" y="398" width="484" height="93" rx="6" fill="#fdfbf6" stroke="#c4b258" stroke-width="1"/>
<text x="896" y="416" font-size="12" font-weight="bold" fill="#333">Offer layer</text>
<rect x="412" y="337" width="340" height="215" rx="6" fill="#fdfbf6" stroke="#c4b258" stroke-width="1"/>
<text x="422" y="355" font-size="12" font-weight="bold" fill="#333">Execution layer</text>
<rect x="533" y="1841" width="352" height="427.5" rx="6" fill="#f6f2ea" stroke="#b09a6d" stroke-width="1.2"/>
<text x="543" y="1859" font-size="12" font-weight="bold" fill="#333">Data platform</text>
<rect x="545" y="1876" width="324" height="93" rx="6" fill="#fdfbf6" stroke="#c4b258" stroke-width="1"/>
<text x="555" y="1894" font-size="12" font-weight="bold" fill="#333">Collection layer</text>
<rect x="648.6666666666667" y="2050" width="197" height="201.5" rx="6" fill="#fdfbf6" stroke="#c4b258" stroke-width="1"/>
<text x="658.6666666666667" y="2068" font-size="12" font-weight="bold" fill="#333">Analytics layer</text>
<rect x="208" y="2398" width="804" height="93" rx="6" fill="#f0eef5" stroke="#9187b3" stroke-width="1.2" stroke-dasharray="5 3"/>
<text x="218" y="2416" font-size="12" font-weight="bold" fill="#333">External systems</text>
<circle cx="1716" cy="174" r="7" fill="none" stroke="#445566" stroke-width="1.5"/>
<path d="M 1705 196 q 11 -19 22 0" fill="none" stroke="#445566" stroke-width="1.5"/>
<text x="1716" y="208" font-size="10" text-anchor="middle" fill="#223344">Web customer</text>
<circle cx="1605.5" cy="174" r="7" fill="none" stroke="#445566" stroke-width="1.5"/>
<path d="M 1594.5 196 q 11 -19 22 0" fill="none" stroke="#445566" stroke-width="1.5"/>
<text x="1605.5" y="208" font-size="10" text-anchor="middle" fill="#223344">Mobile customer</text>
<circle cx="1504" cy="163" r="7" fill="none" stroke="#445566" stroke-width="1.5"/>
<path d="M 1493 185 q 11 -19 22 0" fill="none" stroke="#445566" stroke-width="1.5"/>
<text x="1504" y="197" font-size="10" text-anchor="middle" fill="#223344">In-store</text>
<text x="1504" y="208" font-size="10" text-anchor="middle" fill="#223344">customer</text>
<circle cx="502.5" cy="70" r="7" fill="none" stroke="#445566" stroke-width="1.5"/>
<path d="M 491.5 92 q 11 -19 22 0" fill="none" stroke="#445566" stroke-width="1.5"/>
<text x="502.5" y="104" font-size="10" text-anchor="middle" fill="#223344">Customer-relations</text>
<text x="502.5" y="115" font-size="10" text-anchor="middle" fill="#223344">advisor</text>
<circle cx="815.5" cy="70" r="7" fill="none" stroke="#445566" stroke-width="1.5"/>
<path d="M 804.5 92 q 11 -19 22 0" fill="none" stroke="#445566" stroke-width="1.5"/>
<text x="815.5" y="104" font-size="10" text-anchor="middle" fill="#223344">Merchandising</text>
<text x="815.5" y="115" font-size="10" text-anchor="middle" fill="#223344">manager</text>
<circle cx="612.5" cy="70" r="7" fill="none" stroke="#445566" stroke-width="1.5"/>
<path d="M 601.5 92 q 11 -19 22 0" fill="none" stroke="#445566" stroke-width="1.5"/>
<text x="612.5" y="104" font-size="10" text-anchor="middle" fill="#223344">Warehouse</text>
<text x="612.5" y="115" font-size="10" text-anchor="middle" fill="#223344">operator</text>
<circle cx="389.5" cy="81" r="7" fill="none" stroke="#445566" stroke-width="1.5"/>
<path d="M 378.5 103 q 11 -19 22 0" fill="none" stroke="#445566" stroke-width="1.5"/>
<text x="389.5" y="115" font-size="10" text-anchor="middle" fill="#223344">Accountant</text>
<circle cx="708.5" cy="70" r="7" fill="none" stroke="#445566" stroke-width="1.5"/>
<path d="M 697.5 92 q 11 -19 22 0" fill="none" stroke="#445566" stroke-width="1.5"/>
<text x="708.5" y="104" font-size="10" text-anchor="middle" fill="#223344">Platform</text>
<text x="708.5" y="115" font-size="10" text-anchor="middle" fill="#223344">administrator</text>
<rect x="1490" y="1186" width="140" height="51" rx="4" fill="#ffffff" stroke="#666677" stroke-width="1.3"/>
<text x="1560" y="1208.75" font-size="11.5" text-anchor="middle" fill="#222233">E-commerce</text>
<text x="1560" y="1222.25" font-size="11.5" text-anchor="middle" fill="#222233">site</text>
<rect x="1330" y="1186" width="140" height="51" rx="4" fill="#ffffff" stroke="#666677" stroke-width="1.3"/>
<text x="1400" y="1208.75" font-size="11.5" text-anchor="middle" fill="#222233">Mobile</text>
<text x="1400" y="1222.25" font-size="11.5" text-anchor="middle" fill="#222233">app</text>
<rect x="1170" y="1186" width="140" height="51" rx="4" fill="#ffffff" stroke="#666677" stroke-width="1.3"/>
<text x="1240" y="1208.75" font-size="11.5" text-anchor="middle" fill="#222233">Store</text>
<text x="1240" y="1222.25" font-size="11.5" text-anchor="middle" fill="#222233">kiosks</text>
<rect x="1557" y="1510" width="140" height="51" rx="4" fill="#ffffff" stroke="#666677" stroke-width="1.3"/>
<text x="1627" y="1532.75" font-size="11.5" text-anchor="middle" fill="#222233">Catalog</text>
<text x="1627" y="1546.25" font-size="11.5" text-anchor="middle" fill="#222233">browsing</text>
<rect x="1396" y="1510" width="140" height="51" rx="4" fill="#ffffff" stroke="#666677" stroke-width="1.3"/>
<text x="1466" y="1532.75" font-size="11.5" text-anchor="middle" fill="#222233">Cart and</text>
<text x="1466" y="1546.25" font-size="11.5" text-anchor="middle" fill="#222233">checkout</text>
<rect x="1236" y="1510" width="140" height="51" rx="4" fill="#ffffff" stroke="#666677" stroke-width="1.3"/>
<text x="1306" y="1532.75" font-size="11.5" text-anchor="middle" fill="#222233">Customer</text>
<text x="1306" y="1546.25" font-size="11.5" text-anchor="middle" fill="#222233">account</text>
<rect x="1533.6666666666667" y="1618.5" width="140" height="51" rx="4" fill="#ffffff" stroke="#666677" stroke-width="1.3"/>
<text x="1603.6666666666667" y="1641.25" font-size="11.5" text-anchor="middle" fill="#222233">Personalized</text>
<text x="1603.6666666666667" y="1654.75" font-size="11.5" text-anchor="middle" fill="#222233">recommendations</text>
<rect x="532" y="708.5" width="140" height="51" rx="4" fill="#ffffff" stroke="#666677" stroke-width="1.3"/>
<text x="602" y="731.25" font-size="11.5" text-anchor="middle" fill="#222233">Order</text>
<text x="602" y="744.75" font-size="11.5" text-anchor="middle" fill="#222233">management</text>
<rect x="440" y="836" width="140" height="51" rx="4" fill="#ffffff" stroke="#666677" stroke-width="1.3"/>
<text x="510" y="858.75" font-size="11.5" text-anchor="middle" fill="#222233">Payment</text>
<text x="510" y="872.25" font-size="11.5" text-anchor="middle" fill="#222233">orchestration</text>
<rect x="692" y="708.5" width="140" height="51" rx="4" fill="#ffffff" stroke="#666677" stroke-width="1.3"/>
<text x="762" y="731.25" font-size="11.5" text-anchor="middle" fill="#222233">Promotions</text>
<text x="762" y="744.75" font-size="11.5" text-anchor="middle" fill="#222233">engine</text>
<rect x="360" y="708.5" width="140" height="51" rx="4" fill="#ffffff" stroke="#666677" stroke-width="1.3"/>
<text x="430" y="731.25" font-size="11.5" text-anchor="middle" fill="#222233">Loyalty</text>
<text x="430" y="744.75" font-size="11.5" text-anchor="middle" fill="#222233">program</text>
<rect x="898" y="428" width="140" height="51" rx="4" fill="#ffffff" stroke="#666677" stroke-width="1.3"/>
<text x="968" y="450.75" font-size="11.5" text-anchor="middle" fill="#222233">Product</text>
<text x="968" y="464.25" font-size="11.5" text-anchor="middle" fill="#222233">repository</text>
<rect x="1218" y="430.5" width="140" height="46" rx="4" fill="#ffffff" stroke="#666677" stroke-width="1.3"/>
<text x="1288" y="457.5" font-size="11.5" text-anchor="middle" fill="#222233">Pricing</text>
<rect x="1058" y="428" width="140" height="51" rx="4" fill="#ffffff" stroke="#666677" stroke-width="1.3"/>
<text x="1128" y="450.75" font-size="11.5" text-anchor="middle" fill="#222233">Unified stock</text>
<text x="1128" y="464.25" font-size="11.5" text-anchor="middle" fill="#222233">view</text>
<rect x="600" y="367" width="140" height="51" rx="4" fill="#ffffff" stroke="#666677" stroke-width="1.3"/>
<text x="670" y="389.75" font-size="11.5" text-anchor="middle" fill="#222233">Shipment</text>
<text x="670" y="403.25" font-size="11.5" text-anchor="middle" fill="#222233">orchestration</text>
<rect x="527.3333333333334" y="489" width="140" height="51" rx="4" fill="#ffffff" stroke="#666677" stroke-width="1.3"/>
<text x="597.3333333333334" y="511.75" font-size="11.5" text-anchor="middle" fill="#222233">Warehouse</text>
<text x="597.3333333333334" y="525.25" font-size="11.5" text-anchor="middle" fill="#222233">control</text>
<rect x="424" y="367" width="140" height="51" rx="4" fill="#ffffff" stroke="#666677" stroke-width="1.3"/>
<text x="494" y="389.75" font-size="11.5" text-anchor="middle" fill="#222233">After-sales</text>
<text x="494" y="403.25" font-size="11.5" text-anchor="middle" fill="#222233">service</text>
<rect x="717" y="1906" width="140" height="51" rx="4" fill="#ffffff" stroke="#666677" stroke-width="1.3"/>
<text x="787" y="1928.75" font-size="11.5" text-anchor="middle" fill="#222233">Browsing-event</text>
<text x="787" y="1942.25" font-size="11.5" text-anchor="middle" fill="#222233">collection</text>
<rect x="557" y="1906" width="140" height="51" rx="4" fill="#ffffff" stroke="#666677" stroke-width="1.3"/>
<text x="627" y="1928.75" font-size="11.5" text-anchor="middle" fill="#222233">Reference-data</text>
<text x="627" y="1942.25" font-size="11.5" text-anchor="middle" fill="#222233">change capture</text>
<rect x="693.6666666666667" y="2080" width="140" height="51" rx="4" fill="#ffffff" stroke="#666677" stroke-width="1.3"/>
<text x="763.6666666666667" y="2102.75" font-size="11.5" text-anchor="middle" fill="#222233">Data</text>
<text x="763.6666666666667" y="2116.25" font-size="11.5" text-anchor="middle" fill="#222233">warehouse</text>
<rect x="693.6666666666667" y="2188.5" width="140" height="51" rx="4" fill="#ffffff" stroke="#666677" stroke-width="1.3"/>
<text x="763.6666666666667" y="2211.25" font-size="11.5" text-anchor="middle" fill="#222233">Customer</text>
<text x="763.6666666666667" y="2224.75" font-size="11.5" text-anchor="middle" fill="#222233">segmentation</text>
<rect x="380" y="2428" width="140" height="51" rx="4" fill="#ffffff" stroke="#666677" stroke-width="1.3"/>
<text x="450" y="2450.75" font-size="11.5" text-anchor="middle" fill="#222233">Payment service</text>
<text x="450" y="2464.25" font-size="11.5" text-anchor="middle" fill="#222233">provider (PSP)</text>
<rect x="220" y="2428" width="140" height="51" rx="4" fill="#ffffff" stroke="#666677" stroke-width="1.3"/>
<text x="290" y="2450.75" font-size="11.5" text-anchor="middle" fill="#222233">Carrier</text>
<text x="290" y="2464.25" font-size="11.5" text-anchor="middle" fill="#222233">platforms</text>
<rect x="540" y="2428" width="140" height="51" rx="4" fill="#ffffff" stroke="#666677" stroke-width="1.3"/>
<text x="610" y="2450.75" font-size="11.5" text-anchor="middle" fill="#222233">Group</text>
<text x="610" y="2464.25" font-size="11.5" text-anchor="middle" fill="#222233">ERP</text>
<rect x="860" y="2428" width="140" height="51" rx="4" fill="#ffffff" stroke="#666677" stroke-width="1.3"/>
<text x="930" y="2450.75" font-size="11.5" text-anchor="middle" fill="#222233">Group</text>
<text x="930" y="2464.25" font-size="11.5" text-anchor="middle" fill="#222233">CRM</text>
<rect x="700" y="2428" width="140" height="51" rx="4" fill="#ffffff" stroke="#666677" stroke-width="1.3"/>
<text x="770" y="2450.75" font-size="11.5" text-anchor="middle" fill="#222233">Customer-review</text>
<text x="770" y="2464.25" font-size="11.5" text-anchor="middle" fill="#222233">platform</text>
<path d="M 1716 220 L 1716 1056 L 1537 1056 L 1536.6666666666667 1096 L 1536.6666666666667 1186" fill="none" stroke="#444444" stroke-width="1.3" marker-end="url(#arr)"/>
<text x="1665.5" y="292.5" font-size="10.5" text-anchor="middle" fill="#333" font-style="italic" stroke="white" stroke-width="2.5" paint-order="stroke" stroke-linejoin="round">Browse, search,</text>
<text x="1665.5" y="306" font-size="10.5" text-anchor="middle" fill="#333" font-style="italic" stroke="white" stroke-width="2.5" paint-order="stroke" stroke-linejoin="round">order</text>
<path d="M 1605.5 220 L 1606 237 L 1606 1046 L 1400 1046 L 1400 1186" fill="none" stroke="#444444" stroke-width="1.3" marker-end="url(#arr)"/>
<text x="1555.5" y="1006.5" font-size="10.5" text-anchor="middle" fill="#333" font-style="italic" stroke="white" stroke-width="2.5" paint-order="stroke" stroke-linejoin="round">Mobile purchase</text>
<text x="1555.5" y="1020" font-size="10.5" text-anchor="middle" fill="#333" font-style="italic" stroke="white" stroke-width="2.5" paint-order="stroke" stroke-linejoin="round">journey</text>
<path d="M 1504 220 L 1504 985 L 1496 985 L 1496 1036 L 1240 1036 L 1240 1186" fill="none" stroke="#444444" stroke-width="1.3" marker-end="url(#arr)"/>
<text x="1445.5" y="1006.5" font-size="10.5" text-anchor="middle" fill="#333" font-style="italic" stroke="white" stroke-width="2.5" paint-order="stroke" stroke-linejoin="round">Check stock and</text>
<text x="1445.5" y="1020" font-size="10.5" text-anchor="middle" fill="#333" font-style="italic" stroke="white" stroke-width="2.5" paint-order="stroke" stroke-linejoin="round">order in store</text>
<path d="M 1560 1237 L 1560 1375 L 1644.5 1375 L 1644.5 1510" fill="none" stroke="#444444" stroke-width="1.3" marker-end="url(#arr)"/>
<text x="1510.5" y="1345.5" font-size="10.5" text-anchor="middle" fill="#333" font-style="italic" stroke="white" stroke-width="2.5" paint-order="stroke" stroke-linejoin="round">Display product</text>
<text x="1510.5" y="1359" font-size="10.5" text-anchor="middle" fill="#333" font-style="italic" stroke="white" stroke-width="2.5" paint-order="stroke" stroke-linejoin="round">pages</text>
<path d="M 1423.3333333333333 1237 L 1423.3333333333333 1247 L 1520 1247 A 5 5 0 0 1 1530 1247 L 1555 1247 A 5 5 0 0 1 1565 1247 L 1570 1247 L 1570 1314 L 1662 1314 L 1662 1510" fill="none" stroke="#444444" stroke-width="1.3" marker-end="url(#arr)"/>
<text x="1615.5" y="1345.5" font-size="10.5" text-anchor="middle" fill="#333" font-style="italic" stroke="white" stroke-width="2.5" paint-order="stroke" stroke-linejoin="round">Display mobile</text>
<text x="1615.5" y="1359" font-size="10.5" text-anchor="middle" fill="#333" font-style="italic" stroke="white" stroke-width="2.5" paint-order="stroke" stroke-linejoin="round">catalog</text>
<path d="M 1240 1237 L 1240 1267 L 1520 1267 A 5 5 0 0 1 1530 1267 L 1530 1267 A 5 5 0 0 1 1540 1267 L 1545 1267 L 1545 1324 L 1452 1324 L 1452 1385 L 1627 1385 L 1627 1510" fill="none" stroke="#444444" stroke-width="1.3" marker-end="url(#arr)"/>
<text x="1399.5" y="1345.5" font-size="10.5" text-anchor="middle" fill="#333" font-style="italic" stroke="white" stroke-width="2.5" paint-order="stroke" stroke-linejoin="round">Browse the store</text>
<text x="1399.5" y="1359" font-size="10.5" text-anchor="middle" fill="#333" font-style="italic" stroke="white" stroke-width="2.5" paint-order="stroke" stroke-linejoin="round">offer</text>
<path d="M 1525 1237 L 1525 1304 L 1152 1304 A 5 5 0 0 0 1142 1304 L 1141 1304 A 5 5 0 0 0 1131 1304 L 1130 1304 A 5 5 0 0 0 1120 1304 L 1119 1304 A 5 5 0 0 0 1109 1304 L 1013 1304 L 1013 1445 L 1442.6666666666665 1445 L 1442.6666666666665 1510" fill="none" stroke="#444444" stroke-width="1.3" marker-end="url(#arr)"/>
<text x="966.5" y="1352.25" font-size="10.5" text-anchor="middle" fill="#333" font-style="italic" stroke="white" stroke-width="2.5" paint-order="stroke" stroke-linejoin="round">Build the cart</text>
<path d="M 1376.6666666666665 1237 L 1376.6666666666665 1257 L 1520 1257 A 5 5 0 0 1 1530 1257 L 1535 1257 L 1535 1314 L 1152 1314 A 5 5 0 0 0 1142 1314 L 1141 1314 A 5 5 0 0 0 1131 1314 L 1130 1314 A 5 5 0 0 0 1120 1314 L 1119 1314 A 5 5 0 0 0 1109 1314 L 1024 1314 L 1024 1435 L 1489.3333333333333 1435 L 1489.3333333333333 1510" fill="none" stroke="#444444" stroke-width="1.3" marker-end="url(#arr)"/>
<text x="1065.5" y="1345.5" font-size="10.5" text-anchor="middle" fill="#333" font-style="italic" stroke="white" stroke-width="2.5" paint-order="stroke" stroke-linejoin="round">Synchronized</text>
<text x="1065.5" y="1359" font-size="10.5" text-anchor="middle" fill="#333" font-style="italic" stroke="white" stroke-width="2.5" paint-order="stroke" stroke-linejoin="round">mobile cart</text>
<path d="M 1489.3333333333333 1561 L 1489.3333333333333 1706.5 L 1790.5 1706.5 L 1791 1733.5 L 1791 1744 L 1815 1744 L 1815 257 L 1721 257 A 5 5 0 0 0 1711 257 L 1611 257 A 5 5 0 0 0 1601 257 L 1509 257 A 5 5 0 0 0 1499 257 L 1133 257 A 5 5 0 0 0 1123 257 L 996 257 A 5 5 0 0 0 986 257 L 892 257 A 5 5 0 0 0 882 257 L 762 257 L 762 708.5" fill="none" stroke="#444444" stroke-width="1.3" marker-end="url(#arr)"/>
<text x="1770.5" y="1032.5" font-size="10.5" text-anchor="middle" fill="#333" font-style="italic" stroke="white" stroke-width="2.5" paint-order="stroke" stroke-linejoin="round">Apply current</text>
<text x="1770.5" y="1046" font-size="10.5" text-anchor="middle" fill="#333" font-style="italic" stroke="white" stroke-width="2.5" paint-order="stroke" stroke-linejoin="round">offers</text>
<path d="M 1627 1561 L 1627 1618.5" fill="none" stroke="#444444" stroke-width="1.3" marker-end="url(#arr)"/>
<text x="1680.5" y="1592.5" font-size="10.5" text-anchor="middle" fill="#333" font-style="italic" stroke="white" stroke-width="2.5" paint-order="stroke" stroke-linejoin="round">Browsing context</text>
<path d="M 1603.6666666666665 1669.5 L 1603.6666666666667 1696.5 L 1769.5 1696.5 L 1769.5 1141 L 1684.5 1141 A 5 5 0 0 0 1674.5 1141 L 1583.3333333333333 1141 L 1583.3333333333333 1186" fill="none" stroke="#444444" stroke-width="1.3" marker-end="url(#arr)"/>
<text x="1729" y="1345.5" font-size="10.5" text-anchor="middle" fill="#333" font-style="italic" stroke="white" stroke-width="2.5" paint-order="stroke" stroke-linejoin="round">Personalized</text>
<text x="1729" y="1359" font-size="10.5" text-anchor="middle" fill="#333" font-style="italic" stroke="white" stroke-width="2.5" paint-order="stroke" stroke-linejoin="round">suggestions</text>
<path d="M 1306 1561 L 1306 1744 L 852 1744 L 852 951 L 607 951 A 5 5 0 0 0 597 951 L 515 951 A 5 5 0 0 0 505 951 L 342 951 A 5 5 0 0 0 332 951 L 313 951 L 313 267 L 368 267 L 368 663.5 L 430 663.5 L 430 708.5" fill="none" stroke="#444444" stroke-width="1.3" marker-end="url(#arr)"/>
<text x="801.5" y="1046.5" font-size="10.5" text-anchor="middle" fill="#333" font-style="italic" stroke="white" stroke-width="2.5" paint-order="stroke" stroke-linejoin="round">Loyalty balance</text>
<text x="801.5" y="1060" font-size="10.5" text-anchor="middle" fill="#333" font-style="italic" stroke="white" stroke-width="2.5" paint-order="stroke" stroke-linejoin="round">and benefits</text>
<path d="M 1442.6666666666667 1561 L 1443 1733.5 L 1443 1754 L 841 1754 L 841 1143 L 835 1143 A 5 5 0 0 0 825 1143 L 742 1143 L 742 1001 L 607 1001 A 5 5 0 0 0 597 1001 L 515 1001 A 5 5 0 0 0 505 1001 L 342 1001 A 5 5 0 0 0 332 1001 L 302 1001 L 302 257 L 374 257 A 5 5 0 0 1 384 257 L 385 257 A 5 5 0 0 1 395 257 L 401 257 L 401 633.5 L 578.6666666666665 633.5 L 578.6666666666667 708.5" fill="none" stroke="#444444" stroke-width="1.3" marker-end="url(#arr)"/>
<text x="688.5" y="1107.5" font-size="10.5" text-anchor="middle" fill="#333" font-style="italic" stroke="white" stroke-width="2.5" paint-order="stroke" stroke-linejoin="round">Order validation</text>
<rect x="667" y="1115.5" width="43" height="15" rx="7.5" fill="#fdf3d8" stroke="#c9a227" stroke-width="1"/>
<text x="688.5" y="1126.5" font-size="9.5" text-anchor="middle" fill="#7a6216" font-weight="bold">Order</text>
<path d="M 567 759.5 L 567 769.5 L 526 769.5 A 5 5 0 0 0 516 769.5 L 515 769.5 A 5 5 0 0 0 505 769.5 L 499 769.5 L 499 826 L 475 826 L 475 836" fill="none" stroke="#444444" stroke-width="1.3" marker-end="url(#arr)"/>
<text x="452.5" y="791" font-size="10.5" text-anchor="middle" fill="#333" font-style="italic" stroke="white" stroke-width="2.5" paint-order="stroke" stroke-linejoin="round">Charge request</text>
<rect x="425.5" y="799" width="54" height="15" rx="7.5" fill="#fdf3d8" stroke="#c9a227" stroke-width="1"/>
<text x="452.5" y="810" font-size="9.5" text-anchor="middle" fill="#7a6216" font-weight="bold">Payment</text>
<path d="M 510 887 L 510 2275 L 404 2275 L 404 2359 L 450 2359 L 450 2428" fill="none" stroke="#444444" stroke-width="1.3" marker-end="url(#arr)"/>
<text x="359.5" y="2296.5" font-size="10.5" text-anchor="middle" fill="#333" font-style="italic" stroke="white" stroke-width="2.5" paint-order="stroke" stroke-linejoin="round">Payment</text>
<text x="359.5" y="2310" font-size="10.5" text-anchor="middle" fill="#333" font-style="italic" stroke="white" stroke-width="2.5" paint-order="stroke" stroke-linejoin="round">authorization</text>
<text x="359.5" y="2323.5" font-size="10.5" text-anchor="middle" fill="#333" font-style="italic" stroke="white" stroke-width="2.5" paint-order="stroke" stroke-linejoin="round">and capture</text>
<rect x="332.5" y="2331.5" width="54" height="15" rx="7.5" fill="#fdf3d8" stroke="#c9a227" stroke-width="1"/>
<text x="359.5" y="2342.5" font-size="9.5" text-anchor="middle" fill="#7a6216" font-weight="bold">Payment</text>
<path d="M 450 2479 L 450 2516 L 86 2516 L 86 247 L 191 247 A 5 5 0 0 1 201 247 L 379 247 L 379 653.5 L 510 653.5 L 510 836" fill="none" stroke="#444444" stroke-width="1.3" marker-end="url(#arr)"/>
<text x="47.5" y="2404.5" font-size="10.5" text-anchor="middle" fill="#333" font-style="italic" stroke="white" stroke-width="2.5" paint-order="stroke" stroke-linejoin="round">Transaction</text>
<text x="47.5" y="2418" font-size="10.5" text-anchor="middle" fill="#333" font-style="italic" stroke="white" stroke-width="2.5" paint-order="stroke" stroke-linejoin="round">status</text>
<path d="M 637 759.5 L 637 914 L 876 914 L 876 322 L 767 322 A 5 5 0 0 0 757 322 L 693.3333333333333 322 L 693.3333333333333 367" fill="none" stroke="#444444" stroke-width="1.3" marker-end="url(#arr)"/>
<text x="823.5" y="588.5" font-size="10.5" text-anchor="middle" fill="#333" font-style="italic" stroke="white" stroke-width="2.5" paint-order="stroke" stroke-linejoin="round">Fulfilment order</text>
<rect x="802" y="596.5" width="43" height="15" rx="7.5" fill="#fdf3d8" stroke="#c9a227" stroke-width="1"/>
<text x="823.5" y="607.5" font-size="9.5" text-anchor="middle" fill="#7a6216" font-weight="bold">Order</text>
<path d="M 670 418 L 670 479 L 620.6666666666666 479 L 620.6666666666666 489" fill="none" stroke="#444444" stroke-width="1.3" marker-end="url(#arr)"/>
<text x="626.5" y="449.5" font-size="10.5" text-anchor="middle" fill="#333" font-style="italic" stroke="white" stroke-width="2.5" paint-order="stroke" stroke-linejoin="round">Warehouse</text>
<text x="626.5" y="463" font-size="10.5" text-anchor="middle" fill="#333" font-style="italic" stroke="white" stroke-width="2.5" paint-order="stroke" stroke-linejoin="round">picking waves</text>
<path d="M 612.5 127 L 613 144 L 613 267 L 574 267 L 574 489" fill="none" stroke="#444444" stroke-width="1.3" marker-end="url(#arr)"/>
<text x="568.5" y="207.5" font-size="10.5" text-anchor="middle" fill="#333" font-style="italic" stroke="white" stroke-width="2.5" paint-order="stroke" stroke-linejoin="round">Pick and ship</text>
<text x="568.5" y="221" font-size="10.5" text-anchor="middle" fill="#333" font-style="italic" stroke="white" stroke-width="2.5" paint-order="stroke" stroke-linejoin="round">parcels</text>
<path d="M 635 418 L 635 428 L 579 428 A 5 5 0 0 0 569 428 L 499 428 A 5 5 0 0 0 489 428 L 483 428 L 483 567 L 406 567 A 5 5 0 0 0 396 567 L 395 567 A 5 5 0 0 0 385 567 L 384 567 A 5 5 0 0 0 374 567 L 373 567 A 5 5 0 0 0 363 567 L 337 567 L 337 2275 L 306 2275 L 306 2345 L 290 2345 L 290 2428" fill="none" stroke="#444444" stroke-width="1.3" marker-end="url(#arr)"/>
<text x="255.5" y="2296.5" font-size="10.5" text-anchor="middle" fill="#333" font-style="italic" stroke="white" stroke-width="2.5" paint-order="stroke" stroke-linejoin="round">Pickup requests</text>
<text x="255.5" y="2310" font-size="10.5" text-anchor="middle" fill="#333" font-style="italic" stroke="white" stroke-width="2.5" paint-order="stroke" stroke-linejoin="round">and labels</text>
<rect x="231.5" y="2318" width="48" height="15" rx="7.5" fill="#fdf3d8" stroke="#c9a227" stroke-width="1"/>
<text x="255.5" y="2329" font-size="9.5" text-anchor="middle" fill="#7a6216" font-weight="bold">Parcel</text>
<path d="M 290 2479 L 290 2506 L 196 2506 L 196 237 L 385 237 A 5 5 0 0 1 395 237 L 489 237 A 5 5 0 0 1 499 237 L 608 237 A 5 5 0 0 1 618 237 L 647 237 L 646.6666666666666 277 L 646.6666666666666 367" fill="none" stroke="#444444" stroke-width="1.3" marker-end="url(#arr)"/>
<text x="145.5" y="2404.5" font-size="10.5" text-anchor="middle" fill="#333" font-style="italic" stroke="white" stroke-width="2.5" paint-order="stroke" stroke-linejoin="round">Parcel-tracking</text>
<text x="145.5" y="2418" font-size="10.5" text-anchor="middle" fill="#333" font-style="italic" stroke="white" stroke-width="2.5" paint-order="stroke" stroke-linejoin="round">events</text>
<path d="M 705 418 L 705 567 L 757 567 A 5 5 0 0 1 767 567 L 871 567 A 5 5 0 0 1 881 567 L 939.6666666666666 567 A 5 5 0 0 1 949.6666666666666 567 L 955.6666666666666 567 L 956 941 L 956 1086 L 911 1086 L 911 1455 L 1329.3333333333333 1455 L 1329.3333333333333 1510" fill="none" stroke="#444444" stroke-width="1.3" marker-end="url(#arr)"/>
<text x="908.5" y="1032.5" font-size="10.5" text-anchor="middle" fill="#333" font-style="italic" stroke="white" stroke-width="2.5" paint-order="stroke" stroke-linejoin="round">Customer order</text>
<text x="908.5" y="1046" font-size="10.5" text-anchor="middle" fill="#333" font-style="italic" stroke="white" stroke-width="2.5" paint-order="stroke" stroke-linejoin="round">tracking</text>
<path d="M 502.5 127 L 503 144 L 503 186 L 494 186 L 494 367" fill="none" stroke="#444444" stroke-width="1.3" marker-end="url(#arr)"/>
<text x="458.5" y="207.5" font-size="10.5" text-anchor="middle" fill="#333" font-style="italic" stroke="white" stroke-width="2.5" paint-order="stroke" stroke-linejoin="round">Handle</text>
<text x="458.5" y="221" font-size="10.5" text-anchor="middle" fill="#333" font-style="italic" stroke="white" stroke-width="2.5" paint-order="stroke" stroke-linejoin="round">complaints</text>
<path d="M 494 418 L 494 623.5 L 625.3333333333333 623.5 L 625.3333333333333 708.5" fill="none" stroke="#444444" stroke-width="1.3" marker-end="url(#arr)"/>
<text x="456.5" y="591.25" font-size="10.5" text-anchor="middle" fill="#333" font-style="italic" stroke="white" stroke-width="2.5" paint-order="stroke" stroke-linejoin="round">Returns and</text>
<text x="456.5" y="604.75" font-size="10.5" text-anchor="middle" fill="#333" font-style="italic" stroke="white" stroke-width="2.5" paint-order="stroke" stroke-linejoin="round">refunds</text>
<path d="M 815.5 127 L 816 144 L 816 168 L 991 168 L 991.3333333333333 277 L 991.3333333333334 428" fill="none" stroke="#444444" stroke-width="1.3" marker-end="url(#arr)"/>
<text x="943.5" y="213.5" font-size="10.5" text-anchor="middle" fill="#333" font-style="italic" stroke="white" stroke-width="2.5" paint-order="stroke" stroke-linejoin="round">Enrich product</text>
<text x="943.5" y="227" font-size="10.5" text-anchor="middle" fill="#333" font-style="italic" stroke="white" stroke-width="2.5" paint-order="stroke" stroke-linejoin="round">pages</text>
<path d="M 991.3333333333334 479 L 991 941 L 991 951 L 1042 951 L 1042 1045 L 1125 1045 L 1125 1415 L 1574.5 1415 L 1574.5 1510" fill="none" stroke="#444444" stroke-width="1.3" marker-end="url(#arr)"/>
<text x="1003.5" y="996.5" font-size="10.5" text-anchor="middle" fill="#333" font-style="italic" stroke="white" stroke-width="2.5" paint-order="stroke" stroke-linejoin="round">Publish the</text>
<text x="1003.5" y="1010" font-size="10.5" text-anchor="middle" fill="#333" font-style="italic" stroke="white" stroke-width="2.5" paint-order="stroke" stroke-linejoin="round">catalog</text>
<rect x="976.5" y="1018" width="54" height="15" rx="7.5" fill="#fdf3d8" stroke="#c9a227" stroke-width="1"/>
<text x="1003.5" y="1029" font-size="9.5" text-anchor="middle" fill="#7a6216" font-weight="bold">Product</text>
<path d="M 1288 476.5 L 1288 1026 L 1147 1026 L 1147 1395 L 1609.5 1395 L 1609.5 1510" fill="none" stroke="#444444" stroke-width="1.3" marker-end="url(#arr)"/>
<text x="1246.5" y="996.5" font-size="10.5" text-anchor="middle" fill="#333" font-style="italic" stroke="white" stroke-width="2.5" paint-order="stroke" stroke-linejoin="round">Current sale</text>
<text x="1246.5" y="1010" font-size="10.5" text-anchor="middle" fill="#333" font-style="italic" stroke="white" stroke-width="2.5" paint-order="stroke" stroke-linejoin="round">prices</text>
<path d="M 586.6666666666667 2479 L 587 2496 L 587 2536 L 1961 2536 L 1961 247 L 1721 247 A 5 5 0 0 0 1711 247 L 1611 247 A 5 5 0 0 0 1601 247 L 1509 247 A 5 5 0 0 0 1499 247 L 1128 247 L 1128 428" fill="none" stroke="#444444" stroke-width="1.3" marker-end="url(#arr)"/>
<text x="2015.5" y="2404.5" font-size="10.5" text-anchor="middle" fill="#333" font-style="italic" stroke="white" stroke-width="2.5" paint-order="stroke" stroke-linejoin="round">Accounting stock</text>
<text x="2015.5" y="2418" font-size="10.5" text-anchor="middle" fill="#333" font-style="italic" stroke="white" stroke-width="2.5" paint-order="stroke" stroke-linejoin="round">movements</text>
<path d="M 1128 479 L 1128 951 L 1136 951 L 1136 1405 L 1592 1405 L 1592 1510" fill="none" stroke="#444444" stroke-width="1.3" marker-end="url(#arr)"/>
<text x="1094.5" y="996.5" font-size="10.5" text-anchor="middle" fill="#333" font-style="italic" stroke="white" stroke-width="2.5" paint-order="stroke" stroke-linejoin="round">Product</text>
<text x="1094.5" y="1010" font-size="10.5" text-anchor="middle" fill="#333" font-style="italic" stroke="white" stroke-width="2.5" paint-order="stroke" stroke-linejoin="round">availability</text>
<rect x="1067.5" y="1018" width="54" height="15" rx="7.5" fill="#fdf3d8" stroke="#c9a227" stroke-width="1"/>
<text x="1094.5" y="1029" font-size="9.5" text-anchor="middle" fill="#7a6216" font-weight="bold">Product</text>
<path d="M 633.3333333333333 2479 L 633 2496 L 633 2526 L 1949 2526 L 1949 267 L 1820 267 A 5 5 0 0 0 1810 267 L 1721 267 A 5 5 0 0 0 1711 267 L 1611 267 A 5 5 0 0 0 1601 267 L 1509 267 A 5 5 0 0 0 1499 267 L 1288 267 L 1288 430.5" fill="none" stroke="#444444" stroke-width="1.3" marker-end="url(#arr)"/>
<text x="1901.5" y="2362.5" font-size="10.5" text-anchor="middle" fill="#333" font-style="italic" stroke="white" stroke-width="2.5" paint-order="stroke" stroke-linejoin="round">Reference</text>
<text x="1901.5" y="2376" font-size="10.5" text-anchor="middle" fill="#333" font-style="italic" stroke="white" stroke-width="2.5" paint-order="stroke" stroke-linejoin="round">purchase costs</text>
<path d="M 1595 1237 L 1595 1304 L 1674.5 1304 A 5 5 0 0 1 1684.5 1304 L 1764.5 1304 A 5 5 0 0 1 1774.5 1304 L 1780.5 1304 L 1781 1733.5 L 1781 1764 L 835 1764 A 5 5 0 0 0 825 1764 L 787 1764 L 787 1906" fill="none" stroke="#444444" stroke-width="1.3" marker-end="url(#arr)"/>
<text x="736.5" y="1785.5" font-size="10.5" text-anchor="middle" fill="#333" font-style="italic" stroke="white" stroke-width="2.5" paint-order="stroke" stroke-linejoin="round">Browsing events</text>
<path d="M 944.6666666666666 479 L 945 941 L 945 1011 L 857 1011 A 5 5 0 0 0 847 1011 L 747 1011 A 5 5 0 0 0 737 1011 L 625 1011 L 625 1802 L 627 1802 L 627 1906" fill="none" stroke="#444444" stroke-width="1.3" marker-end="url(#arr)"/>
<text x="577.5" y="1772.5" font-size="10.5" text-anchor="middle" fill="#333" font-style="italic" stroke="white" stroke-width="2.5" paint-order="stroke" stroke-linejoin="round">Reference-data</text>
<text x="577.5" y="1786" font-size="10.5" text-anchor="middle" fill="#333" font-style="italic" stroke="white" stroke-width="2.5" paint-order="stroke" stroke-linejoin="round">changes</text>
<path d="M 787 1957 L 787 2080" fill="none" stroke="#444444" stroke-width="1.3" marker-end="url(#arr)"/>
<text x="831.5" y="2005.5" font-size="10.5" text-anchor="middle" fill="#333" font-style="italic" stroke="white" stroke-width="2.5" paint-order="stroke" stroke-linejoin="round">Feed the data</text>
<text x="831.5" y="2019" font-size="10.5" text-anchor="middle" fill="#333" font-style="italic" stroke="white" stroke-width="2.5" paint-order="stroke" stroke-linejoin="round">foundation</text>
<path d="M 627 1957 L 627 1984 L 740.3333333333334 1984 L 740.3333333333334 2080" fill="none" stroke="#444444" stroke-width="1.3" marker-end="url(#arr)"/>
<text x="693.8333333333334" y="2005.5" font-size="10.5" text-anchor="middle" fill="#333" font-style="italic" stroke="white" stroke-width="2.5" paint-order="stroke" stroke-linejoin="round">Reference-data</text>
<text x="693.8333333333334" y="2019" font-size="10.5" text-anchor="middle" fill="#333" font-style="italic" stroke="white" stroke-width="2.5" paint-order="stroke" stroke-linejoin="round">sync</text>
<path d="M 763.6666666666667 2131 L 763.6666666666667 2188.5" fill="none" stroke="#444444" stroke-width="1.3" marker-end="url(#arr)"/>
<text x="711.1666666666667" y="2162.5" font-size="10.5" text-anchor="middle" fill="#333" font-style="italic" stroke="white" stroke-width="2.5" paint-order="stroke" stroke-linejoin="round">Compute segments</text>
<path d="M 787.0000000000001 2239.5 L 787 2284 L 897 2284 L 897 1826 L 830 1826 L 830 1076 L 847 1076 A 5 5 0 0 1 857 1076 L 895 1076 A 5 5 0 0 1 905 1076 L 951 1076 A 5 5 0 0 1 961 1076 L 1114 1076 L 1114 1425 L 1546 1425 L 1546 1608.5 L 1580.3333333333335 1608.5 L 1580.3333333333335 1618.5" fill="none" stroke="#444444" stroke-width="1.3" marker-end="url(#arr)"/>
<text x="948.5" y="1847.5" font-size="10.5" text-anchor="middle" fill="#333" font-style="italic" stroke="white" stroke-width="2.5" paint-order="stroke" stroke-linejoin="round">Audience</text>
<text x="948.5" y="1861" font-size="10.5" text-anchor="middle" fill="#333" font-style="italic" stroke="white" stroke-width="2.5" paint-order="stroke" stroke-linejoin="round">segments for</text>
<text x="948.5" y="1874.5" font-size="10.5" text-anchor="middle" fill="#333" font-style="italic" stroke="white" stroke-width="2.5" paint-order="stroke" stroke-linejoin="round">personalization</text>
<path d="M 740.3333333333334 2239.5 L 740 2273.5 L 740 2359 L 930 2359 L 930 2428" fill="none" stroke="#444444" stroke-width="1.3" marker-end="url(#arr)"/>
<text x="695.5" y="2329.5" font-size="10.5" text-anchor="middle" fill="#333" font-style="italic" stroke="white" stroke-width="2.5" paint-order="stroke" stroke-linejoin="round">Audiences for</text>
<text x="695.5" y="2343" font-size="10.5" text-anchor="middle" fill="#333" font-style="italic" stroke="white" stroke-width="2.5" paint-order="stroke" stroke-linejoin="round">campaigns</text>
<path d="M 930 2479 L 930 2506 L 1826 2506 L 1826 1066 L 1820 1066 A 5 5 0 0 0 1810 1066 L 1542 1066 A 5 5 0 0 0 1532 1066 L 1405 1066 A 5 5 0 0 0 1395 1066 L 1245 1066 A 5 5 0 0 0 1235 1066 L 1152 1066 A 5 5 0 0 0 1142 1066 L 1141 1066 A 5 5 0 0 0 1131 1066 L 1130 1066 A 5 5 0 0 0 1120 1066 L 961 1066 A 5 5 0 0 0 951 1066 L 900 1066 L 900 1465 L 1282.6666666666667 1465 L 1282.6666666666667 1510" fill="none" stroke="#444444" stroke-width="1.3" marker-end="url(#arr)"/>
<text x="1784.5" y="2404.5" font-size="10.5" text-anchor="middle" fill="#333" font-style="italic" stroke="white" stroke-width="2.5" paint-order="stroke" stroke-linejoin="round">Personalized</text>
<text x="1784.5" y="2418" font-size="10.5" text-anchor="middle" fill="#333" font-style="italic" stroke="white" stroke-width="2.5" paint-order="stroke" stroke-linejoin="round">outreach</text>
<path d="M 389.5 127 L 390 144 L 390 643.5 L 521 643.5 L 521 826 L 545 826 L 545 836" fill="none" stroke="#444444" stroke-width="1.3" marker-end="url(#arr)"/>
<text x="351.5" y="207.5" font-size="10.5" text-anchor="middle" fill="#333" font-style="italic" stroke="white" stroke-width="2.5" paint-order="stroke" stroke-linejoin="round">Reconcile</text>
<text x="351.5" y="221" font-size="10.5" text-anchor="middle" fill="#333" font-style="italic" stroke="white" stroke-width="2.5" paint-order="stroke" stroke-linejoin="round">collections</text>
<path d="M 708.5 127 L 709 144 L 709 178 L 887 178 L 887 267 L 945 267 L 944.6666666666666 277 L 944.6666666666666 428" fill="none" stroke="#444444" stroke-width="1.3" marker-end="url(#arr)"/>
<text x="833.5" y="199.5" font-size="10.5" text-anchor="middle" fill="#333" font-style="italic" stroke="white" stroke-width="2.5" paint-order="stroke" stroke-linejoin="round">Administer</text>
<text x="833.5" y="213" font-size="10.5" text-anchor="middle" fill="#333" font-style="italic" stroke="white" stroke-width="2.5" paint-order="stroke" stroke-linejoin="round">repositories and</text>
<text x="833.5" y="226.5" font-size="10.5" text-anchor="middle" fill="#333" font-style="italic" stroke="white" stroke-width="2.5" paint-order="stroke" stroke-linejoin="round">permissions</text>
<path d="M 602 759.5 L 602 1751 L 520 1751 L 520 2369 L 770 2369 L 770 2428" fill="none" stroke="#444444" stroke-width="1.3" marker-end="url(#arr)"/>
<text x="466.5" y="2296.5" font-size="10.5" text-anchor="middle" fill="#333" font-style="italic" stroke="white" stroke-width="2.5" paint-order="stroke" stroke-linejoin="round">Request a review</text>
<text x="466.5" y="2310" font-size="10.5" text-anchor="middle" fill="#333" font-style="italic" stroke="white" stroke-width="2.5" paint-order="stroke" stroke-linejoin="round">after delivery</text>
<path d="M 770 2479 L 770 2516 L 1838 2516 L 1838 1086 L 1831 1086 A 5 5 0 0 0 1821 1086 L 1820 1086 A 5 5 0 0 0 1810 1086 L 1680 1086 L 1679.5 1096 L 1679.5 1510" fill="none" stroke="#444444" stroke-width="1.3" marker-end="url(#arr)"/>
<text x="1889.5" y="2404.5" font-size="10.5" text-anchor="middle" fill="#333" font-style="italic" stroke="white" stroke-width="2.5" paint-order="stroke" stroke-linejoin="round">Product ratings</text>
<text x="1889.5" y="2418" font-size="10.5" text-anchor="middle" fill="#333" font-style="italic" stroke="white" stroke-width="2.5" paint-order="stroke" stroke-linejoin="round">and reviews</text>
<line x1="20" y1="2558" x2="2058" y2="2558" stroke="#ddd" stroke-width="1"/>
<text x="20" y="2580" font-size="11" font-weight="bold" fill="#555">BUSINESS OBJECTS</text>
<rect x="150" y="2570" width="43" height="15" rx="7.5" fill="#fdf3d8" stroke="#c9a227"/>
<text x="171.5" y="2581" font-size="9.5" text-anchor="middle" fill="#7a6216" font-weight="bold">Order</text>
<text x="203" y="2581" font-size="10" fill="#666">— cart validated by a customer, tracked until delivery</text>
<rect x="150" y="2594" width="54" height="15" rx="7.5" fill="#fdf3d8" stroke="#c9a227"/>
<text x="177" y="2605" font-size="9.5" text-anchor="middle" fill="#7a6216" font-weight="bold">Payment</text>
<text x="214" y="2605" font-size="10" fill="#666">— financial transaction tied to an order</text>
<rect x="150" y="2618" width="54" height="15" rx="7.5" fill="#fdf3d8" stroke="#c9a227"/>
<text x="177" y="2629" font-size="9.5" text-anchor="middle" fill="#7a6216" font-weight="bold">Product</text>
<text x="214" y="2629" font-size="10" fill="#666">— catalog item with price and availability</text>
<rect x="150" y="2642" width="48" height="15" rx="7.5" fill="#fdf3d8" stroke="#c9a227"/>
<text x="174" y="2653" font-size="9.5" text-anchor="middle" fill="#7a6216" font-weight="bold">Parcel</text>
<text x="208" y="2653" font-size="10" fill="#666">— shipping unit handed to the carrier</text>
<line x1="20" y1="2680" x2="2058" y2="2680" stroke="#ddd" stroke-width="1"/>
<text x="20" y="2702" font-size="11" font-weight="bold" fill="#555">LEGEND</text>
<rect x="150" y="2692" width="26" height="14" rx="3" fill="#eef4fb" stroke="#7a9cc4" stroke-dasharray="5 3"/>
<text x="182" y="2703" font-size="10" fill="#444">Actor group</text>
<rect x="272" y="2692" width="26" height="14" rx="3" fill="#f6f2ea" stroke="#b09a6d"/>
<text x="304" y="2703" font-size="10" fill="#444">System</text>
<rect x="368" y="2692" width="26" height="14" rx="3" fill="#fdfbf6" stroke="#c4b258"/>
<text x="400" y="2703" font-size="10" fill="#444">Layer</text>
<rect x="458" y="2692" width="26" height="14" rx="3" fill="#ffffff" stroke="#666677"/>
<text x="490" y="2703" font-size="10" fill="#444">Functional block</text>
<rect x="606" y="2692" width="26" height="14" rx="3" fill="#f0eef5" stroke="#9187b3" stroke-dasharray="5 3"/>
<text x="638" y="2703" font-size="10" fill="#444">External system</text>
<line x1="150" y1="2722" x2="176" y2="2722" stroke="#444444" stroke-width="1.3" marker-end="url(#arr)"/>
<text x="182" y="2726" font-size="10" fill="#444">Functional flow (label = exchanged data)</text>
<rect x="480" y="2715" width="96" height="15" rx="7.5" fill="#fdf3d8" stroke="#c9a227"/>
<text x="528" y="2726" font-size="9.5" text-anchor="middle" fill="#7a6216" font-weight="bold">Business object</text>
<text x="584" y="2726" font-size="10" fill="#444">carried by the flow</text>
</svg>
