<svg xmlns="http://www.w3.org/2000/svg" viewBox="0 0 1953 2529" font-family="Helvetica,Arial,sans-serif">
<defs><marker id="arr" viewBox="0 0 10 10" refX="9" refY="5" markerWidth="7" markerHeight="7" orient="auto-start-reverse">
<path d="M0,0 L10,5 L0,10 z" fill="#444444"/></marker></defs>
<rect width="1953" height="2529" fill="white"/>
<rect x="1352" y="87" width="305" height="105" rx="6" fill="#eef4fb" stroke="#7a9cc4" stroke-width="1.2" stroke-dasharray="5 3"/>
<text x="1362" y="105" font-size="12" font-weight="bold" fill="#333">Customers</text>
<rect x="375" y="22" width="525" height="105" rx="6" fill="#eef4fb" stroke="#7a9cc4" stroke-width="1.2" stroke-dasharray="5 3"/>
<text x="385" y="40" font-size="12" font-weight="bold" fill="#333">Internal teams</text>
<rect x="855" y="1009" width="837" height="606.5" rx="6" fill="#f6f2ea" stroke="#b09a6d" stroke-width="1.2"/>
<text x="865" y="1027" font-size="12" font-weight="bold" fill="#333">Commerce front</text>
<rect x="1123" y="1062" width="396" height="126" rx="6" fill="#fdfbf6" stroke="#c4b258" stroke-width="1"/>
<text x="1133" y="1080" font-size="12" font-weight="bold" fill="#333">Presentation layer</text>
<rect x="1198" y="1379" width="445" height="191.5" rx="6" fill="#fdfbf6" stroke="#c4b258" stroke-width="1"/>
<text x="1208" y="1397" font-size="12" font-weight="bold" fill="#333">Customer-journey layer</text>
<rect x="378" y="242" width="906" height="630" rx="6" fill="#f6f2ea" stroke="#b09a6d" stroke-width="1.2"/>
<text x="388" y="260" font-size="12" font-weight="bold" fill="#333">Commerce core</text>
<rect x="412" y="626.5" width="408" height="210.5" rx="6" fill="#fdfbf6" stroke="#c4b258" stroke-width="1"/>
<text x="422" y="644.5" font-size="12" font-weight="bold" fill="#333">Sales layer</text>
<rect x="878" y="354.5" width="396" height="86" rx="6" fill="#fdfbf6" stroke="#c4b258" stroke-width="1"/>
<text x="888" y="372.5" font-size="12" font-weight="bold" fill="#333">Offer layer</text>
<rect x="450" y="295" width="294" height="205" rx="6" fill="#fdfbf6" stroke="#c4b258" stroke-width="1"/>
<text x="460" y="313" font-size="12" font-weight="bold" fill="#333">Execution layer</text>
<rect x="516" y="1700" width="304" height="406.5" rx="6" fill="#f6f2ea" stroke="#b09a6d" stroke-width="1.2"/>
<text x="526" y="1718" font-size="12" font-weight="bold" fill="#333">Data platform</text>
<rect x="526" y="1733" width="264" height="86" rx="6" fill="#fdfbf6" stroke="#c4b258" stroke-width="1"/>
<text x="536" y="1751" font-size="12" font-weight="bold" fill="#333">Collection layer</text>
<rect x="592.3333333333334" y="1900" width="179" height="191.5" rx="6" fill="#fdfbf6" stroke="#c4b258" stroke-width="1"/>
<text x="602.3333333333334" y="1918" font-size="12" font-weight="bold" fill="#333">Analytics layer</text>
<rect x="200" y="2184" width="670" height="86" rx="6" fill="#f0eef5" stroke="#9187b3" stroke-width="1.2" stroke-dasharray="5 3"/>
<text x="210" y="2202" font-size="12" font-weight="bold" fill="#333">External systems</text>
<circle cx="1606" cy="136" r="7" fill="none" stroke="#445566" stroke-width="1.5"/>
<path d="M 1595 158 q 11 -19 22 0" fill="none" stroke="#445566" stroke-width="1.5"/>
<text x="1606" y="170" font-size="10" text-anchor="middle" fill="#223344">Web customer</text>
<circle cx="1495.5" cy="136" r="7" fill="none" stroke="#445566" stroke-width="1.5"/>
<path d="M 1484.5 158 q 11 -19 22 0" fill="none" stroke="#445566" stroke-width="1.5"/>
<text x="1495.5" y="170" font-size="10" text-anchor="middle" fill="#223344">Mobile customer</text>
<circle cx="1394" cy="125" r="7" fill="none" stroke="#445566" stroke-width="1.5"/>
<path d="M 1383 147 q 11 -19 22 0" fill="none" stroke="#445566" stroke-width="1.5"/>
<text x="1394" y="159" font-size="10" text-anchor="middle" fill="#223344">In-store</text>
<text x="1394" y="170" font-size="10" text-anchor="middle" fill="#223344">customer</text>
<circle cx="533.5" cy="60" r="7" fill="none" stroke="#445566" stroke-width="1.5"/>
<path d="M 522.5 82 q 11 -19 22 0" fill="none" stroke="#445566" stroke-width="1.5"/>
<text x="533.5" y="94" font-size="10" text-anchor="middle" fill="#223344">Customer-relations</text>
<text x="533.5" y="105" font-size="10" text-anchor="middle" fill="#223344">advisor</text>
<circle cx="846.5" cy="60" r="7" fill="none" stroke="#445566" stroke-width="1.5"/>
<path d="M 835.5 82 q 11 -19 22 0" fill="none" stroke="#445566" stroke-width="1.5"/>
<text x="846.5" y="94" font-size="10" text-anchor="middle" fill="#223344">Merchandising</text>
<text x="846.5" y="105" font-size="10" text-anchor="middle" fill="#223344">manager</text>
<circle cx="643.5" cy="60" r="7" fill="none" stroke="#445566" stroke-width="1.5"/>
<path d="M 632.5 82 q 11 -19 22 0" fill="none" stroke="#445566" stroke-width="1.5"/>
<text x="643.5" y="94" font-size="10" text-anchor="middle" fill="#223344">Warehouse</text>
<text x="643.5" y="105" font-size="10" text-anchor="middle" fill="#223344">operator</text>
<circle cx="420.5" cy="71" r="7" fill="none" stroke="#445566" stroke-width="1.5"/>
<path d="M 409.5 93 q 11 -19 22 0" fill="none" stroke="#445566" stroke-width="1.5"/>
<text x="420.5" y="105" font-size="10" text-anchor="middle" fill="#223344">Accountant</text>
<circle cx="739.5" cy="60" r="7" fill="none" stroke="#445566" stroke-width="1.5"/>
<path d="M 728.5 82 q 11 -19 22 0" fill="none" stroke="#445566" stroke-width="1.5"/>
<text x="739.5" y="94" font-size="10" text-anchor="middle" fill="#223344">Platform</text>
<text x="739.5" y="105" font-size="10" text-anchor="middle" fill="#223344">administrator</text>
<rect x="1397" y="1090" width="112" height="48" rx="4" fill="#ffffff" stroke="#666677" stroke-width="1.3"/>
<text x="1453" y="1111.25" font-size="11.5" text-anchor="middle" fill="#222233">E-commerce</text>
<text x="1453" y="1124.75" font-size="11.5" text-anchor="middle" fill="#222233">site</text>
<rect x="1265" y="1090" width="112" height="48" rx="4" fill="#ffffff" stroke="#666677" stroke-width="1.3"/>
<text x="1321" y="1111.25" font-size="11.5" text-anchor="middle" fill="#222233">Mobile</text>
<text x="1321" y="1124.75" font-size="11.5" text-anchor="middle" fill="#222233">app</text>
<rect x="1133" y="1090" width="112" height="48" rx="4" fill="#ffffff" stroke="#666677" stroke-width="1.3"/>
<text x="1189" y="1111.25" font-size="11.5" text-anchor="middle" fill="#222233">Store</text>
<text x="1189" y="1124.75" font-size="11.5" text-anchor="middle" fill="#222233">kiosks</text>
<rect x="1473" y="1407" width="112" height="48" rx="4" fill="#ffffff" stroke="#666677" stroke-width="1.3"/>
<text x="1529" y="1428.25" font-size="11.5" text-anchor="middle" fill="#222233">Catalog</text>
<text x="1529" y="1441.75" font-size="11.5" text-anchor="middle" fill="#222233">browsing</text>
<rect x="1340" y="1407" width="112" height="48" rx="4" fill="#ffffff" stroke="#666677" stroke-width="1.3"/>
<text x="1396" y="1428.25" font-size="11.5" text-anchor="middle" fill="#222233">Cart and</text>
<text x="1396" y="1441.75" font-size="11.5" text-anchor="middle" fill="#222233">checkout</text>
<rect x="1208" y="1407" width="112" height="48" rx="4" fill="#ffffff" stroke="#666677" stroke-width="1.3"/>
<text x="1264" y="1428.25" font-size="11.5" text-anchor="middle" fill="#222233">Customer</text>
<text x="1264" y="1441.75" font-size="11.5" text-anchor="middle" fill="#222233">account</text>
<rect x="1451" y="1512.5" width="117" height="48" rx="4" fill="#ffffff" stroke="#666677" stroke-width="1.3"/>
<text x="1509.5" y="1533.75" font-size="11.5" text-anchor="middle" fill="#222233">Personalized</text>
<text x="1509.5" y="1547.25" font-size="11.5" text-anchor="middle" fill="#222233">recommendations</text>
<rect x="566" y="654.5" width="112" height="48" rx="4" fill="#ffffff" stroke="#666677" stroke-width="1.3"/>
<text x="622" y="675.75" font-size="11.5" text-anchor="middle" fill="#222233">Order</text>
<text x="622" y="689.25" font-size="11.5" text-anchor="middle" fill="#222233">management</text>
<rect x="488" y="779" width="112" height="48" rx="4" fill="#ffffff" stroke="#666677" stroke-width="1.3"/>
<text x="544" y="800.25" font-size="11.5" text-anchor="middle" fill="#222233">Payment</text>
<text x="544" y="813.75" font-size="11.5" text-anchor="middle" fill="#222233">orchestration</text>
<rect x="698" y="654.5" width="112" height="48" rx="4" fill="#ffffff" stroke="#666677" stroke-width="1.3"/>
<text x="754" y="675.75" font-size="11.5" text-anchor="middle" fill="#222233">Promotions</text>
<text x="754" y="689.25" font-size="11.5" text-anchor="middle" fill="#222233">engine</text>
<rect x="422" y="654.5" width="112" height="48" rx="4" fill="#ffffff" stroke="#666677" stroke-width="1.3"/>
<text x="478" y="675.75" font-size="11.5" text-anchor="middle" fill="#222233">Loyalty</text>
<text x="478" y="689.25" font-size="11.5" text-anchor="middle" fill="#222233">program</text>
<rect x="888" y="382.5" width="112" height="48" rx="4" fill="#ffffff" stroke="#666677" stroke-width="1.3"/>
<text x="944" y="403.75" font-size="11.5" text-anchor="middle" fill="#222233">Product</text>
<text x="944" y="417.25" font-size="11.5" text-anchor="middle" fill="#222233">repository</text>
<rect x="1152" y="386.5" width="112" height="40" rx="4" fill="#ffffff" stroke="#666677" stroke-width="1.3"/>
<text x="1208" y="410.5" font-size="11.5" text-anchor="middle" fill="#222233">Pricing</text>
<rect x="1020" y="382.5" width="112" height="48" rx="4" fill="#ffffff" stroke="#666677" stroke-width="1.3"/>
<text x="1076" y="403.75" font-size="11.5" text-anchor="middle" fill="#222233">Unified stock</text>
<text x="1076" y="417.25" font-size="11.5" text-anchor="middle" fill="#222233">view</text>
<rect x="622" y="323" width="112" height="48" rx="4" fill="#ffffff" stroke="#666677" stroke-width="1.3"/>
<text x="678" y="344.25" font-size="11.5" text-anchor="middle" fill="#222233">Shipment</text>
<text x="678" y="357.75" font-size="11.5" text-anchor="middle" fill="#222233">orchestration</text>
<rect x="544.6666666666666" y="442" width="112" height="48" rx="4" fill="#ffffff" stroke="#666677" stroke-width="1.3"/>
<text x="600.6666666666666" y="463.25" font-size="11.5" text-anchor="middle" fill="#222233">Warehouse</text>
<text x="600.6666666666666" y="476.75" font-size="11.5" text-anchor="middle" fill="#222233">control</text>
<rect x="460" y="323" width="112" height="48" rx="4" fill="#ffffff" stroke="#666677" stroke-width="1.3"/>
<text x="516" y="344.25" font-size="11.5" text-anchor="middle" fill="#222233">After-sales</text>
<text x="516" y="357.75" font-size="11.5" text-anchor="middle" fill="#222233">service</text>
<rect x="668" y="1761" width="112" height="48" rx="4" fill="#ffffff" stroke="#666677" stroke-width="1.3"/>
<text x="724" y="1782.25" font-size="11.5" text-anchor="middle" fill="#222233">Browsing-event</text>
<text x="724" y="1795.75" font-size="11.5" text-anchor="middle" fill="#222233">collection</text>
<rect x="536" y="1761" width="112" height="48" rx="4" fill="#ffffff" stroke="#666677" stroke-width="1.3"/>
<text x="592" y="1782.25" font-size="11.5" text-anchor="middle" fill="#222233">Reference-data</text>
<text x="592" y="1795.75" font-size="11.5" text-anchor="middle" fill="#222233">change capture</text>
<rect x="649.3333333333334" y="1928" width="112" height="48" rx="4" fill="#ffffff" stroke="#666677" stroke-width="1.3"/>
<text x="705.3333333333334" y="1949.25" font-size="11.5" text-anchor="middle" fill="#222233">Data</text>
<text x="705.3333333333334" y="1962.75" font-size="11.5" text-anchor="middle" fill="#222233">warehouse</text>
<rect x="649.3333333333334" y="2033.5" width="112" height="48" rx="4" fill="#ffffff" stroke="#666677" stroke-width="1.3"/>
<text x="705.3333333333334" y="2054.75" font-size="11.5" text-anchor="middle" fill="#222233">Customer</text>
<text x="705.3333333333334" y="2068.25" font-size="11.5" text-anchor="middle" fill="#222233">segmentation</text>
<rect x="342" y="2212" width="117" height="48" rx="4" fill="#ffffff" stroke="#666677" stroke-width="1.3"/>
<text x="400.5" y="2233.25" font-size="11.5" text-anchor="middle" fill="#222233">Payment service</text>
<text x="400.5" y="2246.75" font-size="11.5" text-anchor="middle" fill="#222233">provider (PSP)</text>
<rect x="210" y="2212" width="112" height="48" rx="4" fill="#ffffff" stroke="#666677" stroke-width="1.3"/>
<text x="266" y="2233.25" font-size="11.5" text-anchor="middle" fill="#222233">Carrier</text>
<text x="266" y="2246.75" font-size="11.5" text-anchor="middle" fill="#222233">platforms</text>
<rect x="479" y="2212" width="112" height="48" rx="4" fill="#ffffff" stroke="#666677" stroke-width="1.3"/>
<text x="535" y="2233.25" font-size="11.5" text-anchor="middle" fill="#222233">Group</text>
<text x="535" y="2246.75" font-size="11.5" text-anchor="middle" fill="#222233">ERP</text>
<rect x="748" y="2212" width="112" height="48" rx="4" fill="#ffffff" stroke="#666677" stroke-width="1.3"/>
<text x="804" y="2233.25" font-size="11.5" text-anchor="middle" fill="#222233">Group</text>
<text x="804" y="2246.75" font-size="11.5" text-anchor="middle" fill="#222233">CRM</text>
<rect x="611" y="2212" width="117" height="48" rx="4" fill="#ffffff" stroke="#666677" stroke-width="1.3"/>
<text x="669.5" y="2233.25" font-size="11.5" text-anchor="middle" fill="#222233">Customer-review</text>
<text x="669.5" y="2246.75" font-size="11.5" text-anchor="middle" fill="#222233">platform</text>
<path d="M 1606 182 L 1606 964 L 1434 964 L 1434.3333333333333 1004 L 1434.3333333333333 1090" fill="none" stroke="#444444" stroke-width="1.3" marker-end="url(#arr)"/>
<text x="1556.5" y="248.5" font-size="10.5" text-anchor="middle" fill="#333" font-style="italic" stroke="white" stroke-width="2.5" paint-order="stroke" stroke-linejoin="round">Browse, search,</text>
<text x="1556.5" y="262" font-size="10.5" text-anchor="middle" fill="#333" font-style="italic" stroke="white" stroke-width="2.5" paint-order="stroke" stroke-linejoin="round">order</text>
<path d="M 1495.5 182 L 1496 197 L 1496 903 L 1499 903 L 1499 954 L 1321 954 L 1321 1090" fill="none" stroke="#444444" stroke-width="1.3" marker-end="url(#arr)"/>
<text x="1449.5" y="924.5" font-size="10.5" text-anchor="middle" fill="#333" font-style="italic" stroke="white" stroke-width="2.5" paint-order="stroke" stroke-linejoin="round">Mobile purchase</text>
<text x="1449.5" y="938" font-size="10.5" text-anchor="middle" fill="#333" font-style="italic" stroke="white" stroke-width="2.5" paint-order="stroke" stroke-linejoin="round">journey</text>
<path d="M 1394 182 L 1394 893 L 1392 893 L 1392 944 L 1189 944 L 1189 1090" fill="none" stroke="#444444" stroke-width="1.3" marker-end="url(#arr)"/>
<text x="1342.5" y="914.5" font-size="10.5" text-anchor="middle" fill="#333" font-style="italic" stroke="white" stroke-width="2.5" paint-order="stroke" stroke-linejoin="round">Check stock and</text>
<text x="1342.5" y="928" font-size="10.5" text-anchor="middle" fill="#333" font-style="italic" stroke="white" stroke-width="2.5" paint-order="stroke" stroke-linejoin="round">order in store</text>
<path d="M 1453 1138 L 1453 1158 L 1455 1158 L 1455 1274 L 1543 1274 L 1543 1407" fill="none" stroke="#444444" stroke-width="1.3" marker-end="url(#arr)"/>
<text x="1405.5" y="1244.5" font-size="10.5" text-anchor="middle" fill="#333" font-style="italic" stroke="white" stroke-width="2.5" paint-order="stroke" stroke-linejoin="round">Display product</text>
<text x="1405.5" y="1258" font-size="10.5" text-anchor="middle" fill="#333" font-style="italic" stroke="white" stroke-width="2.5" paint-order="stroke" stroke-linejoin="round">pages</text>
<path d="M 1339.6666666666665 1138 L 1339.6666666666665 1148 L 1420 1148 A 5 5 0 0 1 1430 1148 L 1448 1148 A 5 5 0 0 1 1458 1148 L 1465 1148 L 1465 1213 L 1557 1213 L 1557 1407" fill="none" stroke="#444444" stroke-width="1.3" marker-end="url(#arr)"/>
<text x="1510.5" y="1244.5" font-size="10.5" text-anchor="middle" fill="#333" font-style="italic" stroke="white" stroke-width="2.5" paint-order="stroke" stroke-linejoin="round">Display mobile</text>
<text x="1510.5" y="1258" font-size="10.5" text-anchor="middle" fill="#333" font-style="italic" stroke="white" stroke-width="2.5" paint-order="stroke" stroke-linejoin="round">catalog</text>
<path d="M 1189 1138 L 1189 1168 L 1420 1168 A 5 5 0 0 1 1430 1168 L 1430 1168 A 5 5 0 0 1 1440 1168 L 1445 1168 L 1445 1223 L 1347 1223 L 1347 1284 L 1529 1284 L 1529 1407" fill="none" stroke="#444444" stroke-width="1.3" marker-end="url(#arr)"/>
<text x="1294.5" y="1244.5" font-size="10.5" text-anchor="middle" fill="#333" font-style="italic" stroke="white" stroke-width="2.5" paint-order="stroke" stroke-linejoin="round">Browse the store</text>
<text x="1294.5" y="1258" font-size="10.5" text-anchor="middle" fill="#333" font-style="italic" stroke="white" stroke-width="2.5" paint-order="stroke" stroke-linejoin="round">offer</text>
<path d="M 1425 1138 L 1425 1203 L 1117 1203 A 5 5 0 0 0 1107 1203 L 1106 1203 A 5 5 0 0 0 1096 1203 L 1095 1203 A 5 5 0 0 0 1085 1203 L 1084 1203 A 5 5 0 0 0 1074 1203 L 978 1203 L 978 1344 L 1377.3333333333333 1344 L 1377.3333333333333 1407" fill="none" stroke="#444444" stroke-width="1.3" marker-end="url(#arr)"/>
<text x="931.5" y="1251.25" font-size="10.5" text-anchor="middle" fill="#333" font-style="italic" stroke="white" stroke-width="2.5" paint-order="stroke" stroke-linejoin="round">Build the cart</text>
<path d="M 1302.3333333333333 1138 L 1302.3333333333333 1158 L 1420 1158 A 5 5 0 0 1 1430 1158 L 1435 1158 L 1435 1213 L 1117 1213 A 5 5 0 0 0 1107 1213 L 1106 1213 A 5 5 0 0 0 1096 1213 L 1095 1213 A 5 5 0 0 0 1085 1213 L 1084 1213 A 5 5 0 0 0 1074 1213 L 989 1213 L 989 1334 L 1414.6666666666665 1334 L 1414.6666666666665 1407" fill="none" stroke="#444444" stroke-width="1.3" marker-end="url(#arr)"/>
<text x="1030.5" y="1244.5" font-size="10.5" text-anchor="middle" fill="#333" font-style="italic" stroke="white" stroke-width="2.5" paint-order="stroke" stroke-linejoin="round">Synchronized</text>
<text x="1030.5" y="1258" font-size="10.5" text-anchor="middle" fill="#333" font-style="italic" stroke="white" stroke-width="2.5" paint-order="stroke" stroke-linejoin="round">mobile cart</text>
<path d="M 1414.6666666666667 1455 L 1414.6666666666665 1595.5 L 1667 1595.5 A 5 5 0 0 1 1677 1595.5 L 1682 1595.5 L 1682 1631 L 1702 1631 L 1702 217 L 1611 217 A 5 5 0 0 0 1601 217 L 1501 217 A 5 5 0 0 0 1491 217 L 1399 217 A 5 5 0 0 0 1389 217 L 1081 217 A 5 5 0 0 0 1071 217 L 968 217 A 5 5 0 0 0 958 217 L 867 217 A 5 5 0 0 0 857 217 L 754 217 L 754 654.5" fill="none" stroke="#444444" stroke-width="1.3" marker-end="url(#arr)"/>
<text x="1658.5" y="944.5" font-size="10.5" text-anchor="middle" fill="#333" font-style="italic" stroke="white" stroke-width="2.5" paint-order="stroke" stroke-linejoin="round">Apply current</text>
<text x="1658.5" y="958" font-size="10.5" text-anchor="middle" fill="#333" font-style="italic" stroke="white" stroke-width="2.5" paint-order="stroke" stroke-linejoin="round">offers</text>
<path d="M 1529 1455 L 1529 1512.5" fill="none" stroke="#444444" stroke-width="1.3" marker-end="url(#arr)"/>
<text x="1582.5" y="1486.5" font-size="10.5" text-anchor="middle" fill="#333" font-style="italic" stroke="white" stroke-width="2.5" paint-order="stroke" stroke-linejoin="round">Browsing context</text>
<path d="M 1509.5 1560.5 L 1509.5 1585.5 L 1661 1585.5 L 1661 1047 L 1576 1047 A 5 5 0 0 0 1566 1047 L 1471.6666666666665 1047 L 1471.6666666666665 1090" fill="none" stroke="#444444" stroke-width="1.3" marker-end="url(#arr)"/>
<text x="1620.5" y="1244.5" font-size="10.5" text-anchor="middle" fill="#333" font-style="italic" stroke="white" stroke-width="2.5" paint-order="stroke" stroke-linejoin="round">Personalized</text>
<text x="1620.5" y="1258" font-size="10.5" text-anchor="middle" fill="#333" font-style="italic" stroke="white" stroke-width="2.5" paint-order="stroke" stroke-linejoin="round">suggestions</text>
<path d="M 1264 1455 L 1264 1631 L 828 1631 L 828 887 L 627 887 A 5 5 0 0 0 617 887 L 549 887 A 5 5 0 0 0 539 887 L 393 887 A 5 5 0 0 0 383 887 L 368 887 L 368 227 L 399 227 L 399 611.5 L 478 611.5 L 478 654.5" fill="none" stroke="#444444" stroke-width="1.3" marker-end="url(#arr)"/>
<text x="778.5" y="954.5" font-size="10.5" text-anchor="middle" fill="#333" font-style="italic" stroke="white" stroke-width="2.5" paint-order="stroke" stroke-linejoin="round">Loyalty balance</text>
<text x="778.5" y="968" font-size="10.5" text-anchor="middle" fill="#333" font-style="italic" stroke="white" stroke-width="2.5" paint-order="stroke" stroke-linejoin="round">and benefits</text>
<path d="M 1377.3333333333333 1455 L 1377 1620.5 L 1377 1641 L 819 1641 L 819 1051 L 815 1051 A 5 5 0 0 0 805 1051 L 721 1051 L 721 994 L 612 994 A 5 5 0 0 0 602 994 L 510 994 A 5 5 0 0 0 500 994 L 397 994 A 5 5 0 0 0 387 994 L 359 994 L 359 217 L 405 217 A 5 5 0 0 1 415 217 L 416 217 A 5 5 0 0 1 426 217 L 432 217 L 432 581.5 L 603.3333333333333 581.5 L 603.3333333333334 654.5" fill="none" stroke="#444444" stroke-width="1.3" marker-end="url(#arr)"/>
<text x="668.5" y="1015.5" font-size="10.5" text-anchor="middle" fill="#333" font-style="italic" stroke="white" stroke-width="2.5" paint-order="stroke" stroke-linejoin="round">Order validation</text>
<rect x="647" y="1023.5" width="43" height="15" rx="7.5" fill="#fdf3d8" stroke="#c9a227" stroke-width="1"/>
<text x="668.5" y="1034.5" font-size="9.5" text-anchor="middle" fill="#7a6216" font-weight="bold">Order</text>
<path d="M 594 702.5 L 594 712.5 L 560 712.5 A 5 5 0 0 0 550 712.5 L 549 712.5 A 5 5 0 0 0 539 712.5 L 533 712.5 L 533 769 L 516 769 L 516 779" fill="none" stroke="#444444" stroke-width="1.3" marker-end="url(#arr)"/>
<text x="486.5" y="734" font-size="10.5" text-anchor="middle" fill="#333" font-style="italic" stroke="white" stroke-width="2.5" paint-order="stroke" stroke-linejoin="round">Charge request</text>
<rect x="459.5" y="742" width="54" height="15" rx="7.5" fill="#fdf3d8" stroke="#c9a227" stroke-width="1"/>
<text x="486.5" y="753" font-size="9.5" text-anchor="middle" fill="#7a6216" font-weight="bold">Payment</text>
<path d="M 544 827 L 544 903 L 392 903 L 392 1078 L 401 1078 L 400.5 2179 L 400.5 2212" fill="none" stroke="#444444" stroke-width="1.3" marker-end="url(#arr)"/>
<text x="348.5" y="1015.5" font-size="10.5" text-anchor="middle" fill="#333" font-style="italic" stroke="white" stroke-width="2.5" paint-order="stroke" stroke-linejoin="round">Payment</text>
<text x="348.5" y="1029" font-size="10.5" text-anchor="middle" fill="#333" font-style="italic" stroke="white" stroke-width="2.5" paint-order="stroke" stroke-linejoin="round">authorization</text>
<text x="348.5" y="1042.5" font-size="10.5" text-anchor="middle" fill="#333" font-style="italic" stroke="white" stroke-width="2.5" paint-order="stroke" stroke-linejoin="round">and capture</text>
<rect x="321.5" y="1050.5" width="54" height="15" rx="7.5" fill="#fdf3d8" stroke="#c9a227" stroke-width="1"/>
<text x="348.5" y="1061.5" font-size="9.5" text-anchor="middle" fill="#7a6216" font-weight="bold">Payment</text>
<path d="M 400.5 2260 L 401 2275 L 401 2295 L 83 2295 L 83 207 L 185 207 A 5 5 0 0 1 195 207 L 410 207 L 410 601.5 L 544 601.5 L 544 779" fill="none" stroke="#444444" stroke-width="1.3" marker-end="url(#arr)"/>
<text x="45.5" y="2190.5" font-size="10.5" text-anchor="middle" fill="#333" font-style="italic" stroke="white" stroke-width="2.5" paint-order="stroke" stroke-linejoin="round">Transaction</text>
<text x="45.5" y="2204" font-size="10.5" text-anchor="middle" fill="#333" font-style="italic" stroke="white" stroke-width="2.5" paint-order="stroke" stroke-linejoin="round">status</text>
<path d="M 650 702.5 L 650 852 L 868 852 L 868 280 L 759 280 A 5 5 0 0 0 749 280 L 696.6666666666666 280 L 696.6666666666666 323" fill="none" stroke="#444444" stroke-width="1.3" marker-end="url(#arr)"/>
<text x="815.5" y="536.5" font-size="10.5" text-anchor="middle" fill="#333" font-style="italic" stroke="white" stroke-width="2.5" paint-order="stroke" stroke-linejoin="round">Fulfilment order</text>
<rect x="794" y="544.5" width="43" height="15" rx="7.5" fill="#fdf3d8" stroke="#c9a227" stroke-width="1"/>
<text x="815.5" y="555.5" font-size="9.5" text-anchor="middle" fill="#7a6216" font-weight="bold">Order</text>
<path d="M 678 371 L 678 432 L 619.3333333333333 432 L 619.3333333333333 442" fill="none" stroke="#444444" stroke-width="1.3" marker-end="url(#arr)"/>
<text x="634.5" y="402.5" font-size="10.5" text-anchor="middle" fill="#333" font-style="italic" stroke="white" stroke-width="2.5" paint-order="stroke" stroke-linejoin="round">Warehouse</text>
<text x="634.5" y="416" font-size="10.5" text-anchor="middle" fill="#333" font-style="italic" stroke="white" stroke-width="2.5" paint-order="stroke" stroke-linejoin="round">picking waves</text>
<path d="M 643.5 117 L 644 132 L 644 227 L 582 227 L 582 442" fill="none" stroke="#444444" stroke-width="1.3" marker-end="url(#arr)"/>
<text x="600.5" y="167.5" font-size="10.5" text-anchor="middle" fill="#333" font-style="italic" stroke="white" stroke-width="2.5" paint-order="stroke" stroke-linejoin="round">Pick and ship</text>
<text x="600.5" y="181" font-size="10.5" text-anchor="middle" fill="#333" font-style="italic" stroke="white" stroke-width="2.5" paint-order="stroke" stroke-linejoin="round">parcels</text>
<path d="M 650 371 L 650 381 L 587 381 A 5 5 0 0 0 577 381 L 521 381 A 5 5 0 0 0 511 381 L 505 381 L 505 515 L 437 515 A 5 5 0 0 0 427 515 L 426 515 A 5 5 0 0 0 416 515 L 415 515 A 5 5 0 0 0 405 515 L 404 515 A 5 5 0 0 0 394 515 L 388 515 L 388 984 L 364 984 A 5 5 0 0 0 354 984 L 297 984 L 297 2169 L 266 2169 L 266 2212" fill="none" stroke="#444444" stroke-width="1.3" marker-end="url(#arr)"/>
<text x="247.5" y="2120.5" font-size="10.5" text-anchor="middle" fill="#333" font-style="italic" stroke="white" stroke-width="2.5" paint-order="stroke" stroke-linejoin="round">Pickup requests</text>
<text x="247.5" y="2134" font-size="10.5" text-anchor="middle" fill="#333" font-style="italic" stroke="white" stroke-width="2.5" paint-order="stroke" stroke-linejoin="round">and labels</text>
<rect x="223.5" y="2142" width="48" height="15" rx="7.5" fill="#fdf3d8" stroke="#c9a227" stroke-width="1"/>
<text x="247.5" y="2153" font-size="9.5" text-anchor="middle" fill="#7a6216" font-weight="bold">Parcel</text>
<path d="M 266 2260 L 266 2285 L 190 2285 L 190 197 L 416 197 A 5 5 0 0 1 426 197 L 511 197 A 5 5 0 0 1 521 197 L 639 197 A 5 5 0 0 1 649 197 L 659 197 L 659.3333333333333 237 L 659.3333333333333 323" fill="none" stroke="#444444" stroke-width="1.3" marker-end="url(#arr)"/>
<text x="140.5" y="2190.5" font-size="10.5" text-anchor="middle" fill="#333" font-style="italic" stroke="white" stroke-width="2.5" paint-order="stroke" stroke-linejoin="round">Parcel-tracking</text>
<text x="140.5" y="2204" font-size="10.5" text-anchor="middle" fill="#333" font-style="italic" stroke="white" stroke-width="2.5" paint-order="stroke" stroke-linejoin="round">events</text>
<path d="M 706 371 L 706 515 L 749 515 A 5 5 0 0 1 759 515 L 863 515 A 5 5 0 0 1 873 515 L 920.3333333333334 515 A 5 5 0 0 1 930.3333333333334 515 L 936.3333333333333 515 L 936 877 L 936 887 L 929 887 L 929 994 L 876 994 L 876 1354 L 1282.6666666666665 1354 L 1282.6666666666665 1407" fill="none" stroke="#444444" stroke-width="1.3" marker-end="url(#arr)"/>
<text x="882.5" y="944.5" font-size="10.5" text-anchor="middle" fill="#333" font-style="italic" stroke="white" stroke-width="2.5" paint-order="stroke" stroke-linejoin="round">Customer order</text>
<text x="882.5" y="958" font-size="10.5" text-anchor="middle" fill="#333" font-style="italic" stroke="white" stroke-width="2.5" paint-order="stroke" stroke-linejoin="round">tracking</text>
<path d="M 533.5 117 L 534 132 L 534 146 L 516 146 L 516 323" fill="none" stroke="#444444" stroke-width="1.3" marker-end="url(#arr)"/>
<text x="481.5" y="167.5" font-size="10.5" text-anchor="middle" fill="#333" font-style="italic" stroke="white" stroke-width="2.5" paint-order="stroke" stroke-linejoin="round">Handle</text>
<text x="481.5" y="181" font-size="10.5" text-anchor="middle" fill="#333" font-style="italic" stroke="white" stroke-width="2.5" paint-order="stroke" stroke-linejoin="round">complaints</text>
<path d="M 516 371 L 516 571.5 L 640.6666666666666 571.5 L 640.6666666666666 654.5" fill="none" stroke="#444444" stroke-width="1.3" marker-end="url(#arr)"/>
<text x="478.5" y="539.25" font-size="10.5" text-anchor="middle" fill="#333" font-style="italic" stroke="white" stroke-width="2.5" paint-order="stroke" stroke-linejoin="round">Returns and</text>
<text x="478.5" y="552.75" font-size="10.5" text-anchor="middle" fill="#333" font-style="italic" stroke="white" stroke-width="2.5" paint-order="stroke" stroke-linejoin="round">refunds</text>
<path d="M 846.5 117 L 847 132 L 847 142 L 963 142 L 962.6666666666666 237 L 962.6666666666666 382.5" fill="none" stroke="#444444" stroke-width="1.3" marker-end="url(#arr)"/>
<text x="916.5" y="163.5" font-size="10.5" text-anchor="middle" fill="#333" font-style="italic" stroke="white" stroke-width="2.5" paint-order="stroke" stroke-linejoin="round">Enrich product</text>
<text x="916.5" y="177" font-size="10.5" text-anchor="middle" fill="#333" font-style="italic" stroke="white" stroke-width="2.5" paint-order="stroke" stroke-linejoin="round">pages</text>
<path d="M 962.6666666666666 430.5 L 963 877 L 963 887 L 1012 887 L 1012 957 L 1090 957 L 1090 1314 L 1487 1314 L 1487 1407" fill="none" stroke="#444444" stroke-width="1.3" marker-end="url(#arr)"/>
<text x="974.5" y="908.5" font-size="10.5" text-anchor="middle" fill="#333" font-style="italic" stroke="white" stroke-width="2.5" paint-order="stroke" stroke-linejoin="round">Publish the</text>
<text x="974.5" y="922" font-size="10.5" text-anchor="middle" fill="#333" font-style="italic" stroke="white" stroke-width="2.5" paint-order="stroke" stroke-linejoin="round">catalog</text>
<rect x="947.5" y="930" width="54" height="15" rx="7.5" fill="#fdf3d8" stroke="#c9a227" stroke-width="1"/>
<text x="974.5" y="941" font-size="9.5" text-anchor="middle" fill="#7a6216" font-weight="bold">Product</text>
<path d="M 1208 426.5 L 1208 934 L 1112 934 L 1112 1294 L 1515 1294 L 1515 1407" fill="none" stroke="#444444" stroke-width="1.3" marker-end="url(#arr)"/>
<text x="1167.5" y="904.5" font-size="10.5" text-anchor="middle" fill="#333" font-style="italic" stroke="white" stroke-width="2.5" paint-order="stroke" stroke-linejoin="round">Current sale</text>
<text x="1167.5" y="918" font-size="10.5" text-anchor="middle" fill="#333" font-style="italic" stroke="white" stroke-width="2.5" paint-order="stroke" stroke-linejoin="round">prices</text>
<path d="M 516.3333333333333 2260 L 516 2275 L 516 2315 L 1839 2315 L 1839 207 L 1611 207 A 5 5 0 0 0 1601 207 L 1501 207 A 5 5 0 0 0 1491 207 L 1399 207 A 5 5 0 0 0 1389 207 L 1076 207 L 1076 382.5" fill="none" stroke="#444444" stroke-width="1.3" marker-end="url(#arr)"/>
<text x="1892.5" y="2190.5" font-size="10.5" text-anchor="middle" fill="#333" font-style="italic" stroke="white" stroke-width="2.5" paint-order="stroke" stroke-linejoin="round">Accounting stock</text>
<text x="1892.5" y="2204" font-size="10.5" text-anchor="middle" fill="#333" font-style="italic" stroke="white" stroke-width="2.5" paint-order="stroke" stroke-linejoin="round">movements</text>
<path d="M 1076 430.5 L 1076 887 L 1101 887 L 1101 1304 L 1501 1304 L 1501 1407" fill="none" stroke="#444444" stroke-width="1.3" marker-end="url(#arr)"/>
<text x="1060.5" y="908.5" font-size="10.5" text-anchor="middle" fill="#333" font-style="italic" stroke="white" stroke-width="2.5" paint-order="stroke" stroke-linejoin="round">Product</text>
<text x="1060.5" y="922" font-size="10.5" text-anchor="middle" fill="#333" font-style="italic" stroke="white" stroke-width="2.5" paint-order="stroke" stroke-linejoin="round">availability</text>
<rect x="1033.5" y="930" width="54" height="15" rx="7.5" fill="#fdf3d8" stroke="#c9a227" stroke-width="1"/>
<text x="1060.5" y="941" font-size="9.5" text-anchor="middle" fill="#7a6216" font-weight="bold">Product</text>
<path d="M 553.6666666666666 2260 L 554 2275 L 554 2305 L 1829 2305 L 1829 227 L 1707 227 A 5 5 0 0 0 1697 227 L 1611 227 A 5 5 0 0 0 1601 227 L 1501 227 A 5 5 0 0 0 1491 227 L 1399 227 A 5 5 0 0 0 1389 227 L 1208 227 L 1208 386.5" fill="none" stroke="#444444" stroke-width="1.3" marker-end="url(#arr)"/>
<text x="1782.5" y="2150.5" font-size="10.5" text-anchor="middle" fill="#333" font-style="italic" stroke="white" stroke-width="2.5" paint-order="stroke" stroke-linejoin="round">Reference</text>
<text x="1782.5" y="2164" font-size="10.5" text-anchor="middle" fill="#333" font-style="italic" stroke="white" stroke-width="2.5" paint-order="stroke" stroke-linejoin="round">purchase costs</text>
<path d="M 1481 1138 L 1481 1203 L 1566 1203 A 5 5 0 0 1 1576 1203 L 1656 1203 A 5 5 0 0 1 1666 1203 L 1672 1203 L 1672 1651 L 815 1651 A 5 5 0 0 0 805 1651 L 724 1651 L 724 1761" fill="none" stroke="#444444" stroke-width="1.3" marker-end="url(#arr)"/>
<text x="674.5" y="1672.5" font-size="10.5" text-anchor="middle" fill="#333" font-style="italic" stroke="white" stroke-width="2.5" paint-order="stroke" stroke-linejoin="round">Browsing events</text>
<path d="M 925.3333333333334 430.5 L 925 877 L 925 923 L 833 923 A 5 5 0 0 0 823 923 L 607 923 L 607 1045 L 592 1045 L 592 1761" fill="none" stroke="#444444" stroke-width="1.3" marker-end="url(#arr)"/>
<text x="560.5" y="1015.5" font-size="10.5" text-anchor="middle" fill="#333" font-style="italic" stroke="white" stroke-width="2.5" paint-order="stroke" stroke-linejoin="round">Reference-data</text>
<text x="560.5" y="1029" font-size="10.5" text-anchor="middle" fill="#333" font-style="italic" stroke="white" stroke-width="2.5" paint-order="stroke" stroke-linejoin="round">changes</text>
<path d="M 724 1809 L 724 1928" fill="none" stroke="#444444" stroke-width="1.3" marker-end="url(#arr)"/>
<text x="768.5" y="1855.5" font-size="10.5" text-anchor="middle" fill="#333" font-style="italic" stroke="white" stroke-width="2.5" paint-order="stroke" stroke-linejoin="round">Feed the data</text>
<text x="768.5" y="1869" font-size="10.5" text-anchor="middle" fill="#333" font-style="italic" stroke="white" stroke-width="2.5" paint-order="stroke" stroke-linejoin="round">foundation</text>
<path d="M 592 1809 L 592 1834 L 686.6666666666667 1834 L 686.6666666666667 1928" fill="none" stroke="#444444" stroke-width="1.3" marker-end="url(#arr)"/>
<text x="640.1666666666667" y="1855.5" font-size="10.5" text-anchor="middle" fill="#333" font-style="italic" stroke="white" stroke-width="2.5" paint-order="stroke" stroke-linejoin="round">Reference-data</text>
<text x="640.1666666666667" y="1869" font-size="10.5" text-anchor="middle" fill="#333" font-style="italic" stroke="white" stroke-width="2.5" paint-order="stroke" stroke-linejoin="round">sync</text>
<path d="M 705.3333333333334 1976 L 705.3333333333334 2033.5" fill="none" stroke="#444444" stroke-width="1.3" marker-end="url(#arr)"/>
<text x="652.8333333333334" y="2007.5" font-size="10.5" text-anchor="middle" fill="#333" font-style="italic" stroke="white" stroke-width="2.5" paint-order="stroke" stroke-linejoin="round">Compute segments</text>
<path d="M 724 2081.5 L 724 2122 L 830 2122 L 830 1685 L 810 1685 L 810 984 L 823 984 A 5 5 0 0 1 833 984 L 860 984 A 5 5 0 0 1 870 984 L 924 984 A 5 5 0 0 1 934 984 L 1079 984 L 1079 1324 L 1462 1324 L 1462 1502.5 L 1490 1502.5 L 1490 1512.5" fill="none" stroke="#444444" stroke-width="1.3" marker-end="url(#arr)"/>
<text x="880.5" y="1706.5" font-size="10.5" text-anchor="middle" fill="#333" font-style="italic" stroke="white" stroke-width="2.5" paint-order="stroke" stroke-linejoin="round">Audience</text>
<text x="880.5" y="1720" font-size="10.5" text-anchor="middle" fill="#333" font-style="italic" stroke="white" stroke-width="2.5" paint-order="stroke" stroke-linejoin="round">segments for</text>
<text x="880.5" y="1733.5" font-size="10.5" text-anchor="middle" fill="#333" font-style="italic" stroke="white" stroke-width="2.5" paint-order="stroke" stroke-linejoin="round">personalization</text>
<path d="M 686.6666666666667 2081.5 L 687 2111.5 L 687 2169 L 804 2169 L 804 2212" fill="none" stroke="#444444" stroke-width="1.3" marker-end="url(#arr)"/>
<text x="643.5" y="2139.5" font-size="10.5" text-anchor="middle" fill="#333" font-style="italic" stroke="white" stroke-width="2.5" paint-order="stroke" stroke-linejoin="round">Audiences for</text>
<text x="643.5" y="2153" font-size="10.5" text-anchor="middle" fill="#333" font-style="italic" stroke="white" stroke-width="2.5" paint-order="stroke" stroke-linejoin="round">campaigns</text>
<path d="M 804 2260 L 804 2285 L 1711 2285 L 1711 974 L 1707 974 A 5 5 0 0 0 1697 974 L 1439 974 A 5 5 0 0 0 1429 974 L 1326 974 A 5 5 0 0 0 1316 974 L 1194 974 A 5 5 0 0 0 1184 974 L 1117 974 A 5 5 0 0 0 1107 974 L 1106 974 A 5 5 0 0 0 1096 974 L 1095 974 A 5 5 0 0 0 1085 974 L 934 974 A 5 5 0 0 0 924 974 L 865 974 L 865 1364 L 1245.3333333333333 1364 L 1245.3333333333333 1407" fill="none" stroke="#444444" stroke-width="1.3" marker-end="url(#arr)"/>
<text x="1670.5" y="2190.5" font-size="10.5" text-anchor="middle" fill="#333" font-style="italic" stroke="white" stroke-width="2.5" paint-order="stroke" stroke-linejoin="round">Personalized</text>
<text x="1670.5" y="2204" font-size="10.5" text-anchor="middle" fill="#333" font-style="italic" stroke="white" stroke-width="2.5" paint-order="stroke" stroke-linejoin="round">outreach</text>
<path d="M 420.5 117 L 421 132 L 421 591.5 L 555 591.5 L 555 769 L 572 769 L 572 779" fill="none" stroke="#444444" stroke-width="1.3" marker-end="url(#arr)"/>
<text x="383.5" y="167.5" font-size="10.5" text-anchor="middle" fill="#333" font-style="italic" stroke="white" stroke-width="2.5" paint-order="stroke" stroke-linejoin="round">Reconcile</text>
<text x="383.5" y="181" font-size="10.5" text-anchor="middle" fill="#333" font-style="italic" stroke="white" stroke-width="2.5" paint-order="stroke" stroke-linejoin="round">collections</text>
<path d="M 739.5 117 L 740 132 L 740 152 L 862 152 L 862 227 L 925 227 L 925.3333333333333 237 L 925.3333333333334 382.5" fill="none" stroke="#444444" stroke-width="1.3" marker-end="url(#arr)"/>
<text x="809.5" y="173.5" font-size="10.5" text-anchor="middle" fill="#333" font-style="italic" stroke="white" stroke-width="2.5" paint-order="stroke" stroke-linejoin="round">Administer</text>
<text x="809.5" y="187" font-size="10.5" text-anchor="middle" fill="#333" font-style="italic" stroke="white" stroke-width="2.5" paint-order="stroke" stroke-linejoin="round">repositories and</text>
<text x="809.5" y="200.5" font-size="10.5" text-anchor="middle" fill="#333" font-style="italic" stroke="white" stroke-width="2.5" paint-order="stroke" stroke-linejoin="round">permissions</text>
<path d="M 622 702.5 L 622 913 L 505 913 L 505 2169 L 670 2169 L 669.5 2179 L 669.5 2212" fill="none" stroke="#444444" stroke-width="1.3" marker-end="url(#arr)"/>
<text x="452.5" y="1048.5" font-size="10.5" text-anchor="middle" fill="#333" font-style="italic" stroke="white" stroke-width="2.5" paint-order="stroke" stroke-linejoin="round">Request a review</text>
<text x="452.5" y="1062" font-size="10.5" text-anchor="middle" fill="#333" font-style="italic" stroke="white" stroke-width="2.5" paint-order="stroke" stroke-linejoin="round">after delivery</text>
<path d="M 669.5 2260 L 670 2275 L 670 2295 L 1721 2295 L 1721 994 L 1716 994 A 5 5 0 0 0 1706 994 L 1707 994 A 5 5 0 0 0 1697 994 L 1571 994 L 1571 1407" fill="none" stroke="#444444" stroke-width="1.3" marker-end="url(#arr)"/>
<text x="1771.5" y="2190.5" font-size="10.5" text-anchor="middle" fill="#333" font-style="italic" stroke="white" stroke-width="2.5" paint-order="stroke" stroke-linejoin="round">Product ratings</text>
<text x="1771.5" y="2204" font-size="10.5" text-anchor="middle" fill="#333" font-style="italic" stroke="white" stroke-width="2.5" paint-order="stroke" stroke-linejoin="round">and reviews</text>
<line x1="20" y1="2335" x2="1933" y2="2335" stroke="#ddd" stroke-width="1"/>
<text x="20" y="2357" font-size="11" font-weight="bold" fill="#555">BUSINESS OBJECTS</text>
<rect x="150" y="2347" width="43" height="15" rx="7.5" fill="#fdf3d8" stroke="#c9a227"/>
<text x="171.5" y="2358" font-size="9.5" text-anchor="middle" fill="#7a6216" font-weight="bold">Order</text>
<text x="203" y="2358" font-size="10" fill="#666">— cart validated by a customer, tracked until delivery</text>
<rect x="150" y="2371" width="54" height="15" rx="7.5" fill="#fdf3d8" stroke="#c9a227"/>
<text x="177" y="2382" font-size="9.5" text-anchor="middle" fill="#7a6216" font-weight="bold">Payment</text>
<text x="214" y="2382" font-size="10" fill="#666">— financial transaction tied to an order</text>
<rect x="150" y="2395" width="54" height="15" rx="7.5" fill="#fdf3d8" stroke="#c9a227"/>
<text x="177" y="2406" font-size="9.5" text-anchor="middle" fill="#7a6216" font-weight="bold">Product</text>
<text x="214" y="2406" font-size="10" fill="#666">— catalog item with price and availability</text>
<rect x="150" y="2419" width="48" height="15" rx="7.5" fill="#fdf3d8" stroke="#c9a227"/>
<text x="174" y="2430" font-size="9.5" text-anchor="middle" fill="#7a6216" font-weight="bold">Parcel</text>
<text x="208" y="2430" font-size="10" fill="#666">— shipping unit handed to the carrier</text>
<line x1="20" y1="2457" x2="1933" y2="2457" stroke="#ddd" stroke-width="1"/>
<text x="20" y="2479" font-size="11" font-weight="bold" fill="#555">LEGEND</text>
<rect x="150" y="2469" width="26" height="14" rx="3" fill="#eef4fb" stroke="#7a9cc4" stroke-dasharray="5 3"/>
<text x="182" y="2480" font-size="10" fill="#444">Actor group</text>
<rect x="272" y="2469" width="26" height="14" rx="3" fill="#f6f2ea" stroke="#b09a6d"/>
<text x="304" y="2480" font-size="10" fill="#444">System</text>
<rect x="368" y="2469" width="26" height="14" rx="3" fill="#fdfbf6" stroke="#c4b258"/>
<text x="400" y="2480" font-size="10" fill="#444">Layer</text>
<rect x="458" y="2469" width="26" height="14" rx="3" fill="#ffffff" stroke="#666677"/>
<text x="490" y="2480" font-size="10" fill="#444">Functional block</text>
<rect x="606" y="2469" width="26" height="14" rx="3" fill="#f0eef5" stroke="#9187b3" stroke-dasharray="5 3"/>
<text x="638" y="2480" font-size="10" fill="#444">External system</text>
<line x1="150" y1="2499" x2="176" y2="2499" stroke="#444444" stroke-width="1.3" marker-end="url(#arr)"/>
<text x="182" y="2503" font-size="10" fill="#444">Functional flow (label = exchanged data)</text>
<rect x="480" y="2492" width="96" height="15" rx="7.5" fill="#fdf3d8" stroke="#c9a227"/>
<text x="528" y="2503" font-size="9.5" text-anchor="middle" fill="#7a6216" font-weight="bold">Business object</text>
<text x="584" y="2503" font-size="10" fill="#444">carried by the flow</text>
</svg>
