<svg xmlns="http://www.w3.org/2000/svg" viewBox="0 0 2523 878" font-family="Helvetica,Arial,sans-serif">
<defs><marker id="arr" viewBox="0 0 10 10" refX="9" refY="5" markerWidth="7" markerHeight="7" orient="auto-start-reverse">
<path d="M0,0 L10,5 L0,10 z" fill="#444444"/></marker></defs>
<rect width="2523" height="878" fill="white"/>
<rect x="27" y="74" width="151" height="174" rx="6" fill="#eef4fb" stroke="#7a9cc4" stroke-width="1.2" stroke-dasharray="5 3"/>
<text x="37" y="92" font-size="12" font-weight="bold" fill="#333">Policyholders</text>
<rect x="48" y="264" width="95" height="283" rx="6" fill="#eef4fb" stroke="#7a9cc4" stroke-width="1.2" stroke-dasharray="5 3"/>
<text x="58" y="282" font-size="12" font-weight="bold" fill="#333">Case handlers</text>
<rect x="365" y="42" width="1745" height="334.5" rx="6" fill="#f6f2ea" stroke="#b09a6d" stroke-width="1.2"/>
<text x="375" y="60" font-size="12" font-weight="bold" fill="#333">Claims information system</text>
<rect x="382" y="83" width="169" height="235" rx="6" fill="#fdfbf6" stroke="#c4b258" stroke-width="1"/>
<text x="392" y="101" font-size="12" font-weight="bold" fill="#333">Reporting layer</text>
<rect x="723" y="168.5" width="775" height="185" rx="6" fill="#fdfbf6" stroke="#c4b258" stroke-width="1"/>
<text x="733" y="186.5" font-size="12" font-weight="bold" fill="#333">Investigation layer</text>
<rect x="1637" y="220" width="456" height="118" rx="6" fill="#fdfbf6" stroke="#c4b258" stroke-width="1"/>
<text x="1647" y="238" font-size="12" font-weight="bold" fill="#333">Settlement layer</text>
<rect x="2332" y="83" width="164" height="235" rx="6" fill="#f0eef5" stroke="#9187b3" stroke-width="1.2" stroke-dasharray="5 3"/>
<text x="2342" y="101" font-size="12" font-weight="bold" fill="#333">External systems</text>
<circle cx="110" cy="114" r="7" fill="none" stroke="#445566" stroke-width="1.5"/>
<path d="M 99 136 q 11 -19 22 0" fill="none" stroke="#445566" stroke-width="1.5"/>
<text x="110" y="148" font-size="10" text-anchor="middle" fill="#223344">Policyholder</text>
<circle cx="102.5" cy="190" r="7" fill="none" stroke="#445566" stroke-width="1.5"/>
<path d="M 91.5 212 q 11 -19 22 0" fill="none" stroke="#445566" stroke-width="1.5"/>
<text x="102.5" y="224" font-size="10" text-anchor="middle" fill="#223344">Involved third party</text>
<circle cx="99" cy="304" r="7" fill="none" stroke="#445566" stroke-width="1.5"/>
<path d="M 88 326 q 11 -19 22 0" fill="none" stroke="#445566" stroke-width="1.5"/>
<text x="99" y="338" font-size="10" text-anchor="middle" fill="#223344">Claims</text>
<text x="99" y="349" font-size="10" text-anchor="middle" fill="#223344">handler</text>
<circle cx="98.5" cy="391" r="7" fill="none" stroke="#445566" stroke-width="1.5"/>
<path d="M 87.5 413 q 11 -19 22 0" fill="none" stroke="#445566" stroke-width="1.5"/>
<text x="98.5" y="425" font-size="10" text-anchor="middle" fill="#223344">Appointed</text>
<text x="98.5" y="436" font-size="10" text-anchor="middle" fill="#223344">expert</text>
<circle cx="95.5" cy="478" r="7" fill="none" stroke="#445566" stroke-width="1.5"/>
<path d="M 84.5 500 q 11 -19 22 0" fill="none" stroke="#445566" stroke-width="1.5"/>
<text x="95.5" y="512" font-size="10" text-anchor="middle" fill="#223344">Settlement</text>
<text x="95.5" y="523" font-size="10" text-anchor="middle" fill="#223344">supervisor</text>
<rect x="396.5" y="184" width="140" height="51" rx="4" fill="#ffffff" stroke="#666677" stroke-width="1.3"/>
<text x="466.5" y="206.75" font-size="11.5" text-anchor="middle" fill="#222233">Online</text>
<text x="466.5" y="220.25" font-size="11.5" text-anchor="middle" fill="#222233">reporting</text>
<rect x="396.5" y="255" width="140" height="51" rx="4" fill="#ffffff" stroke="#666677" stroke-width="1.3"/>
<text x="466.5" y="277.75" font-size="11.5" text-anchor="middle" fill="#222233">Phone</text>
<text x="466.5" y="291.25" font-size="11.5" text-anchor="middle" fill="#222233">reporting</text>
<rect x="394" y="113" width="145" height="51" rx="4" fill="#ffffff" stroke="#666677" stroke-width="1.3"/>
<text x="466.5" y="135.75" font-size="11.5" text-anchor="middle" fill="#222233">Supporting-document</text>
<text x="466.5" y="149.25" font-size="11.5" text-anchor="middle" fill="#222233">collection</text>
<rect x="1065" y="264" width="140" height="51" rx="4" fill="#ffffff" stroke="#666677" stroke-width="1.3"/>
<text x="1135" y="286.75" font-size="11.5" text-anchor="middle" fill="#222233">Claim-file</text>
<text x="1135" y="300.25" font-size="11.5" text-anchor="middle" fill="#222233">management</text>
<rect x="735" y="272.5" width="140" height="51" rx="4" fill="#ffffff" stroke="#666677" stroke-width="1.3"/>
<text x="805" y="295.25" font-size="11.5" text-anchor="middle" fill="#222233">Assessment</text>
<text x="805" y="308.75" font-size="11.5" text-anchor="middle" fill="#222233">tracking</text>
<rect x="1346" y="210.5" width="140" height="51" rx="4" fill="#ffffff" stroke="#666677" stroke-width="1.3"/>
<text x="1416" y="233.25" font-size="11.5" text-anchor="middle" fill="#222233">Fraud</text>
<text x="1416" y="246.75" font-size="11.5" text-anchor="middle" fill="#222233">detection</text>
<rect x="1649" y="272.5" width="140" height="51" rx="4" fill="#ffffff" stroke="#666677" stroke-width="1.3"/>
<text x="1719" y="295.25" font-size="11.5" text-anchor="middle" fill="#222233">Compensation</text>
<text x="1719" y="308.75" font-size="11.5" text-anchor="middle" fill="#222233">calculation</text>
<rect x="1941" y="264" width="140" height="51" rx="4" fill="#ffffff" stroke="#666677" stroke-width="1.3"/>
<text x="2011" y="286.75" font-size="11.5" text-anchor="middle" fill="#222233">Payment</text>
<text x="2011" y="300.25" font-size="11.5" text-anchor="middle" fill="#222233">scheduling</text>
<rect x="2344" y="255" width="140" height="51" rx="4" fill="#ffffff" stroke="#666677" stroke-width="1.3"/>
<text x="2414" y="277.75" font-size="11.5" text-anchor="middle" fill="#222233">Banking system</text>
<text x="2414" y="291.25" font-size="11.5" text-anchor="middle" fill="#222233">(transfers)</text>
<rect x="2344" y="184" width="140" height="51" rx="4" fill="#ffffff" stroke="#666677" stroke-width="1.3"/>
<text x="2414" y="206.75" font-size="11.5" text-anchor="middle" fill="#222233">Inter-insurer</text>
<text x="2414" y="220.25" font-size="11.5" text-anchor="middle" fill="#222233">files</text>
<rect x="2344" y="113" width="140" height="51" rx="4" fill="#ffffff" stroke="#666677" stroke-width="1.3"/>
<text x="2414" y="135.75" font-size="11.5" text-anchor="middle" fill="#222233">Group</text>
<text x="2414" y="149.25" font-size="11.5" text-anchor="middle" fill="#222233">ECM</text>
<path d="M 151 141.33333333333331 L 183 141 L 217 141 L 217 210 L 360 209.5 L 396.5 209.5" fill="none" stroke="#444444" stroke-width="1.3" marker-end="url(#arr)"/>
<text x="271.5" y="225.5" font-size="10.5" text-anchor="middle" fill="#333" font-style="italic" stroke="white" stroke-width="2.5" paint-order="stroke" stroke-linejoin="round">Report a claim</text>
<rect x="250" y="233.5" width="43" height="15" rx="7.5" fill="#fdf3d8" stroke="#c9a227" stroke-width="1"/>
<text x="271.5" y="244.5" font-size="9.5" text-anchor="middle" fill="#7a6216" font-weight="bold">Claim</text>
<path d="M 166 208 L 193 208 L 193 281 L 360 280.5 L 396.5 280.5" fill="none" stroke="#444444" stroke-width="1.3" marker-end="url(#arr)"/>
<text x="259" y="296.5" font-size="10.5" text-anchor="middle" fill="#333" font-style="italic" stroke="white" stroke-width="2.5" paint-order="stroke" stroke-linejoin="round">Report involvement</text>
<path d="M 151 122.66666666666666 L 183 123 L 320 123 L 320 139 L 360 138.5 L 394 138.5" fill="none" stroke="#444444" stroke-width="1.3" marker-end="url(#arr)"/>
<text x="268.5" y="138.5" font-size="10.5" text-anchor="middle" fill="#333" font-style="italic" stroke="white" stroke-width="2.5" paint-order="stroke" stroke-linejoin="round">Upload photos</text>
<text x="268.5" y="152" font-size="10.5" text-anchor="middle" fill="#333" font-style="italic" stroke="white" stroke-width="2.5" paint-order="stroke" stroke-linejoin="round">and documents</text>
<path d="M 539 138.5 L 2115 139 L 2327 138.5 L 2344 138.5" fill="none" stroke="#444444" stroke-width="1.3" marker-end="url(#arr)"/>
<text x="2212" y="154.5" font-size="10.5" text-anchor="middle" fill="#333" font-style="italic" stroke="white" stroke-width="2.5" paint-order="stroke" stroke-linejoin="round">Archive documents</text>
<path d="M 536.5 209.5 L 1055 209.5 L 1055 272.5 L 1065 272.5" fill="none" stroke="#444444" stroke-width="1.3" marker-end="url(#arr)"/>
<text x="632" y="181.5" font-size="10.5" text-anchor="middle" fill="#333" font-style="italic" stroke="white" stroke-width="2.5" paint-order="stroke" stroke-linejoin="round">Open the case file</text>
<rect x="600" y="189.5" width="64" height="15" rx="7.5" fill="#fdf3d8" stroke="#c9a227" stroke-width="1"/>
<text x="632" y="200.5" font-size="9.5" text-anchor="middle" fill="#7a6216" font-weight="bold">Case file</text>
<path d="M 536.5 280.5 L 566 280.5 L 566 220.5 L 1045 220.5 L 1045 281 L 1065 281" fill="none" stroke="#444444" stroke-width="1.3" marker-end="url(#arr)"/>
<text x="632" y="235" font-size="10.5" text-anchor="middle" fill="#333" font-style="italic" stroke="white" stroke-width="2.5" paint-order="stroke" stroke-linejoin="round">Open the case file</text>
<text x="632" y="248.5" font-size="10.5" text-anchor="middle" fill="#333" font-style="italic" stroke="white" stroke-width="2.5" paint-order="stroke" stroke-linejoin="round">(phone channel)</text>
<path d="M 1205 276.75 L 1215 276.75 L 1215 244.5 L 1346 244.5" fill="none" stroke="#444444" stroke-width="1.3" marker-end="url(#arr)"/>
<text x="1275.5" y="259" font-size="10.5" text-anchor="middle" fill="#333" font-style="italic" stroke="white" stroke-width="2.5" paint-order="stroke" stroke-linejoin="round">Systematic check</text>
<text x="1275.5" y="272.5" font-size="10.5" text-anchor="middle" fill="#333" font-style="italic" stroke="white" stroke-width="2.5" paint-order="stroke" stroke-linejoin="round">at opening</text>
<path d="M 1486 236 L 1513 236 L 1513 209 L 2293 209 L 2293 210 L 2327 209.5 L 2344 209.5" fill="none" stroke="#444444" stroke-width="1.3" marker-end="url(#arr)"/>
<text x="2221" y="224.5" font-size="10.5" text-anchor="middle" fill="#333" font-style="italic" stroke="white" stroke-width="2.5" paint-order="stroke" stroke-linejoin="round">Query claims-history</text>
<text x="2221" y="238" font-size="10.5" text-anchor="middle" fill="#333" font-style="italic" stroke="white" stroke-width="2.5" paint-order="stroke" stroke-linejoin="round">files</text>
<path d="M 2484 209.5 L 2501 210 L 2511 210 L 2511 30 L 350 30 L 350 72 L 698 72 L 698 198.5 L 1336 198.5 L 1336 227.5 L 1346 227.5" fill="none" stroke="#444444" stroke-width="1.3" marker-end="url(#arr)"/>
<text x="2365.5" y="45.5" font-size="10.5" text-anchor="middle" fill="#333" font-style="italic" stroke="white" stroke-width="2.5" paint-order="stroke" stroke-linejoin="round">Policyholder</text>
<text x="2365.5" y="59" font-size="10.5" text-anchor="middle" fill="#333" font-style="italic" stroke="white" stroke-width="2.5" paint-order="stroke" stroke-linejoin="round">history</text>
<path d="M 1065 306.5 L 875 306.5" fill="none" stroke="#444444" stroke-width="1.3" marker-end="url(#arr)"/>
<text x="960" y="321" font-size="10.5" text-anchor="middle" fill="#333" font-style="italic" stroke="white" stroke-width="2.5" paint-order="stroke" stroke-linejoin="round">Assessment mission</text>
<text x="960" y="334.5" font-size="10.5" text-anchor="middle" fill="#333" font-style="italic" stroke="white" stroke-width="2.5" paint-order="stroke" stroke-linejoin="round">if damage &gt; threshold</text>
<path d="M 131 414.5 L 148 415 L 326 415 L 326 339 L 708 339 L 708 298 L 735 298" fill="none" stroke="#444444" stroke-width="1.3" marker-end="url(#arr)"/>
<text x="247.5" y="430.5" font-size="10.5" text-anchor="middle" fill="#333" font-style="italic" stroke="white" stroke-width="2.5" paint-order="stroke" stroke-linejoin="round">Submit assessment</text>
<text x="247.5" y="444" font-size="10.5" text-anchor="middle" fill="#333" font-style="italic" stroke="white" stroke-width="2.5" paint-order="stroke" stroke-linejoin="round">report</text>
<rect x="194" y="452" width="107" height="15" rx="7.5" fill="#fdf3d8" stroke="#c9a227" stroke-width="1"/>
<text x="247.5" y="463" font-size="9.5" text-anchor="middle" fill="#7a6216" font-weight="bold">Assessment report</text>
<path d="M 875 289.5 L 885 289.5 L 885 295.5 L 1035 295.5 L 1035 298 L 1065 298" fill="none" stroke="#444444" stroke-width="1.3" marker-end="url(#arr)"/>
<text x="960" y="254" font-size="10.5" text-anchor="middle" fill="#333" font-style="italic" stroke="white" stroke-width="2.5" paint-order="stroke" stroke-linejoin="round">Assessment</text>
<text x="960" y="267.5" font-size="10.5" text-anchor="middle" fill="#333" font-style="italic" stroke="white" stroke-width="2.5" paint-order="stroke" stroke-linejoin="round">conclusions</text>
<rect x="906.5" y="275.5" width="107" height="15" rx="7.5" fill="#fdf3d8" stroke="#c9a227" stroke-width="1"/>
<text x="960" y="286.5" font-size="9.5" text-anchor="middle" fill="#7a6216" font-weight="bold">Assessment report</text>
<path d="M 131 327.5 L 148 328 L 698 328 L 698 231.5 L 1035 231.5 L 1035 289.5 L 1065 289.5" fill="none" stroke="#444444" stroke-width="1.3" marker-end="url(#arr)"/>
<text x="254" y="343.5" font-size="10.5" text-anchor="middle" fill="#333" font-style="italic" stroke="white" stroke-width="2.5" paint-order="stroke" stroke-linejoin="round">Investigation and</text>
<text x="254" y="357" font-size="10.5" text-anchor="middle" fill="#333" font-style="italic" stroke="white" stroke-width="2.5" paint-order="stroke" stroke-linejoin="round">management decisions</text>
<path d="M 1205 289.5 L 1649 289.5" fill="none" stroke="#444444" stroke-width="1.3" marker-end="url(#arr)"/>
<text x="1567.5" y="304" font-size="10.5" text-anchor="middle" fill="#333" font-style="italic" stroke="white" stroke-width="2.5" paint-order="stroke" stroke-linejoin="round">Approved items</text>
<text x="1567.5" y="317.5" font-size="10.5" text-anchor="middle" fill="#333" font-style="italic" stroke="white" stroke-width="2.5" paint-order="stroke" stroke-linejoin="round">for pricing</text>
<path d="M 1789 306.5 L 1799 306.5 L 1799 325 L 2135 325 L 2135 559 L 2130 559 A 5 5 0 0 0 2120 559 L 33 559 L 33 502 L 43 501.5 L 60 501.5" fill="none" stroke="#444444" stroke-width="1.3" marker-end="url(#arr)"/>
<text x="413" y="574.5" font-size="10.5" text-anchor="middle" fill="#333" font-style="italic" stroke="white" stroke-width="2.5" paint-order="stroke" stroke-linejoin="round">Approval request</text>
<text x="413" y="588" font-size="10.5" text-anchor="middle" fill="#333" font-style="italic" stroke="white" stroke-width="2.5" paint-order="stroke" stroke-linejoin="round">beyond delegation</text>
<path d="M 131 501.5 L 148 502 L 336 502 L 336 364 L 360 363.5 L 1622 363.5 L 1622 306.5 L 1649 306.5" fill="none" stroke="#444444" stroke-width="1.3" marker-end="url(#arr)"/>
<text x="242.5" y="517.5" font-size="10.5" text-anchor="middle" fill="#333" font-style="italic" stroke="white" stroke-width="2.5" paint-order="stroke" stroke-linejoin="round">Approval or</text>
<text x="242.5" y="531" font-size="10.5" text-anchor="middle" fill="#333" font-style="italic" stroke="white" stroke-width="2.5" paint-order="stroke" stroke-linejoin="round">reasoned refusal</text>
<path d="M 1789 289.5 L 1941 289.5" fill="none" stroke="#444444" stroke-width="1.3" marker-end="url(#arr)"/>
<text x="1865" y="261.5" font-size="10.5" text-anchor="middle" fill="#333" font-style="italic" stroke="white" stroke-width="2.5" paint-order="stroke" stroke-linejoin="round">Compensation order</text>
<rect x="1825" y="269.5" width="80" height="15" rx="7.5" fill="#fdf3d8" stroke="#c9a227" stroke-width="1"/>
<text x="1865" y="280.5" font-size="9.5" text-anchor="middle" fill="#7a6216" font-weight="bold">Compensation</text>
<path d="M 2081 289.5 L 2115 290 L 2125 290 L 2125 281 L 2327 280.5 L 2344 280.5" fill="none" stroke="#444444" stroke-width="1.3" marker-end="url(#arr)"/>
<text x="2201" y="296.5" font-size="10.5" text-anchor="middle" fill="#333" font-style="italic" stroke="white" stroke-width="2.5" paint-order="stroke" stroke-linejoin="round">SEPA transfer</text>
<rect x="2161" y="304.5" width="80" height="15" rx="7.5" fill="#fdf3d8" stroke="#c9a227" stroke-width="1"/>
<text x="2201" y="315.5" font-size="9.5" text-anchor="middle" fill="#7a6216" font-weight="bold">Compensation</text>
<path d="M 1205 302.25 L 1513 302.25 L 1513 348 L 1617 348 A 5 5 0 0 1 1627 348 L 2125 348 L 2125 606 L 12 606 L 12 132 L 69 132" fill="none" stroke="#444444" stroke-width="1.3" marker-end="url(#arr)"/>
<text x="398.5" y="621.5" font-size="10.5" text-anchor="middle" fill="#333" font-style="italic" stroke="white" stroke-width="2.5" paint-order="stroke" stroke-linejoin="round">Notify steps</text>
<text x="398.5" y="635" font-size="10.5" text-anchor="middle" fill="#333" font-style="italic" stroke="white" stroke-width="2.5" paint-order="stroke" stroke-linejoin="round">and decision</text>
<line x1="20" y1="664" x2="2503" y2="664" stroke="#ddd" stroke-width="1"/>
<text x="20" y="686" font-size="11" font-weight="bold" fill="#555">BUSINESS OBJECTS</text>
<rect x="150" y="676" width="43" height="15" rx="7.5" fill="#fdf3d8" stroke="#c9a227"/>
<text x="171.5" y="687" font-size="9.5" text-anchor="middle" fill="#7a6216" font-weight="bold">Claim</text>
<text x="203" y="687" font-size="10" fill="#666">— damaging event reported by a policyholder</text>
<rect x="150" y="700" width="64" height="15" rx="7.5" fill="#fdf3d8" stroke="#c9a227"/>
<text x="182" y="711" font-size="9.5" text-anchor="middle" fill="#7a6216" font-weight="bold">Case file</text>
<text x="224" y="711" font-size="10" fill="#666">— file opened to investigate a claim</text>
<rect x="150" y="724" width="107" height="15" rx="7.5" fill="#fdf3d8" stroke="#c9a227"/>
<text x="203.5" y="735" font-size="9.5" text-anchor="middle" fill="#7a6216" font-weight="bold">Assessment report</text>
<text x="267" y="735" font-size="10" fill="#666">— quantified conclusions of the appointed expert</text>
<rect x="150" y="748" width="80" height="15" rx="7.5" fill="#fdf3d8" stroke="#c9a227"/>
<text x="190" y="759" font-size="9.5" text-anchor="middle" fill="#7a6216" font-weight="bold">Compensation</text>
<text x="240" y="759" font-size="10" fill="#666">— amount approved and paid to the policyholder</text>
<line x1="20" y1="786" x2="2503" y2="786" stroke="#ddd" stroke-width="1"/>
<text x="20" y="808" font-size="11" font-weight="bold" fill="#555">LEGEND</text>
<rect x="150" y="798" width="26" height="14" rx="3" fill="#eef4fb" stroke="#7a9cc4" stroke-dasharray="5 3"/>
<text x="182" y="809" font-size="10" fill="#444">Actor group</text>
<rect x="272" y="798" width="26" height="14" rx="3" fill="#f6f2ea" stroke="#b09a6d"/>
<text x="304" y="809" font-size="10" fill="#444">System</text>
<rect x="368" y="798" width="26" height="14" rx="3" fill="#fdfbf6" stroke="#c4b258"/>
<text x="400" y="809" font-size="10" fill="#444">Layer</text>
<rect x="458" y="798" width="26" height="14" rx="3" fill="#ffffff" stroke="#666677"/>
<text x="490" y="809" font-size="10" fill="#444">Functional block</text>
<rect x="606" y="798" width="26" height="14" rx="3" fill="#f0eef5" stroke="#9187b3" stroke-dasharray="5 3"/>
<text x="638" y="809" font-size="10" fill="#444">External system</text>
<line x1="150" y1="828" x2="176" y2="828" stroke="#444444" stroke-width="1.3" marker-end="url(#arr)"/>
<text x="182" y="832" font-size="10" fill="#444">Functional flow (label = exchanged data)</text>
<rect x="480" y="821" width="96" height="15" rx="7.5" fill="#fdf3d8" stroke="#c9a227"/>
<text x="528" y="832" font-size="9.5" text-anchor="middle" fill="#7a6216" font-weight="bold">Business object</text>
<text x="584" y="832" font-size="10" fill="#444">carried by the flow</text>
<text x="150" y="856" font-size="10" fill="#444" font-style="italic">Claim files are retained for 10 years (legal obligation)</text>
</svg>
