<svg xmlns="http://www.w3.org/2000/svg" viewBox="0 0 1013 1565" font-family="Helvetica,Arial,sans-serif">
<defs><marker id="arr" viewBox="0 0 10 10" refX="9" refY="5" markerWidth="7" markerHeight="7" orient="auto-start-reverse">
<path d="M0,0 L10,5 L0,10 z" fill="#444444"/></marker></defs>
<rect width="1013" height="1565" fill="white"/>
<rect x="234" y="81" width="249" height="94" rx="6" fill="#eef4fb" stroke="#7a9cc4" stroke-width="1.2" stroke-dasharray="5 3"/>
<text x="244" y="99" font-size="12" font-weight="bold" fill="#333">Policyholders</text>
<rect x="555" y="47" width="260" height="105" rx="6" fill="#eef4fb" stroke="#7a9cc4" stroke-width="1.2" stroke-dasharray="5 3"/>
<text x="565" y="65" font-size="12" font-weight="bold" fill="#333">Case handlers</text>
<rect x="101" y="262" width="578.6666666666666" height="885" rx="6" fill="#f6f2ea" stroke="#b09a6d" stroke-width="1.2"/>
<text x="111" y="280" font-size="12" font-weight="bold" fill="#333">Claims information system</text>
<rect x="122" y="295" width="427" height="86" rx="6" fill="#fdfbf6" stroke="#c4b258" stroke-width="1"/>
<text x="132" y="313" font-size="12" font-weight="bold" fill="#333">Reporting layer</text>
<rect x="307" y="477.5" width="351.66666666666663" height="363" rx="6" fill="#fdfbf6" stroke="#c4b258" stroke-width="1"/>
<text x="317" y="495.5" font-size="12" font-weight="bold" fill="#333">Investigation layer</text>
<rect x="354.33333333333337" y="921.5" width="208.66666666666669" height="210.5" rx="6" fill="#fdfbf6" stroke="#c4b258" stroke-width="1"/>
<text x="364.33333333333337" y="939.5" font-size="12" font-weight="bold" fill="#333">Settlement layer</text>
<rect x="145" y="1230" width="396" height="86" rx="6" fill="#f0eef5" stroke="#9187b3" stroke-width="1.2" stroke-dasharray="5 3"/>
<text x="155" y="1248" font-size="12" font-weight="bold" fill="#333">External systems</text>
<circle cx="285" cy="119" r="7" fill="none" stroke="#445566" stroke-width="1.5"/>
<path d="M 274 141 q 11 -19 22 0" fill="none" stroke="#445566" stroke-width="1.5"/>
<text x="285" y="153" font-size="10" text-anchor="middle" fill="#223344">Policyholder</text>
<circle cx="409.5" cy="119" r="7" fill="none" stroke="#445566" stroke-width="1.5"/>
<path d="M 398.5 141 q 11 -19 22 0" fill="none" stroke="#445566" stroke-width="1.5"/>
<text x="409.5" y="153" font-size="10" text-anchor="middle" fill="#223344">Involved third party</text>
<circle cx="597" cy="85" r="7" fill="none" stroke="#445566" stroke-width="1.5"/>
<path d="M 586 107 q 11 -19 22 0" fill="none" stroke="#445566" stroke-width="1.5"/>
<text x="597" y="119" font-size="10" text-anchor="middle" fill="#223344">Claims</text>
<text x="597" y="130" font-size="10" text-anchor="middle" fill="#223344">handler</text>
<circle cx="681.5" cy="85" r="7" fill="none" stroke="#445566" stroke-width="1.5"/>
<path d="M 670.5 107 q 11 -19 22 0" fill="none" stroke="#445566" stroke-width="1.5"/>
<text x="681.5" y="119" font-size="10" text-anchor="middle" fill="#223344">Appointed</text>
<text x="681.5" y="130" font-size="10" text-anchor="middle" fill="#223344">expert</text>
<circle cx="769.5" cy="85" r="7" fill="none" stroke="#445566" stroke-width="1.5"/>
<path d="M 758.5 107 q 11 -19 22 0" fill="none" stroke="#445566" stroke-width="1.5"/>
<text x="769.5" y="119" font-size="10" text-anchor="middle" fill="#223344">Settlement</text>
<text x="769.5" y="130" font-size="10" text-anchor="middle" fill="#223344">supervisor</text>
<rect x="295" y="323" width="112" height="48" rx="4" fill="#ffffff" stroke="#666677" stroke-width="1.3"/>
<text x="351" y="344.25" font-size="11.5" text-anchor="middle" fill="#222233">Online</text>
<text x="351" y="357.75" font-size="11.5" text-anchor="middle" fill="#222233">reporting</text>
<rect x="427" y="323" width="112" height="48" rx="4" fill="#ffffff" stroke="#666677" stroke-width="1.3"/>
<text x="483" y="344.25" font-size="11.5" text-anchor="middle" fill="#222233">Phone</text>
<text x="483" y="357.75" font-size="11.5" text-anchor="middle" fill="#222233">reporting</text>
<rect x="132" y="323" width="143" height="48" rx="4" fill="#ffffff" stroke="#666677" stroke-width="1.3"/>
<text x="203.5" y="344.25" font-size="11.5" text-anchor="middle" fill="#222233">Supporting-document</text>
<text x="203.5" y="357.75" font-size="11.5" text-anchor="middle" fill="#222233">collection</text>
<rect x="422.33333333333337" y="663.5" width="112" height="48" rx="4" fill="#ffffff" stroke="#666677" stroke-width="1.3"/>
<text x="478.33333333333337" y="684.75" font-size="11.5" text-anchor="middle" fill="#222233">Claim-file</text>
<text x="478.33333333333337" y="698.25" font-size="11.5" text-anchor="middle" fill="#222233">management</text>
<rect x="441" y="505.5" width="112" height="48" rx="4" fill="#ffffff" stroke="#666677" stroke-width="1.3"/>
<text x="497" y="526.75" font-size="11.5" text-anchor="middle" fill="#222233">Assessment</text>
<text x="497" y="540.25" font-size="11.5" text-anchor="middle" fill="#222233">tracking</text>
<rect x="356.33333333333337" y="782.5" width="112" height="48" rx="4" fill="#ffffff" stroke="#666677" stroke-width="1.3"/>
<text x="412.33333333333337" y="803.75" font-size="11.5" text-anchor="middle" fill="#222233">Fraud</text>
<text x="412.33333333333337" y="817.25" font-size="11.5" text-anchor="middle" fill="#222233">detection</text>
<rect x="441.00000000000006" y="949.5" width="112" height="48" rx="4" fill="#ffffff" stroke="#666677" stroke-width="1.3"/>
<text x="497.00000000000006" y="970.75" font-size="11.5" text-anchor="middle" fill="#222233">Compensation</text>
<text x="497.00000000000006" y="984.25" font-size="11.5" text-anchor="middle" fill="#222233">calculation</text>
<rect x="422.33333333333337" y="1074" width="112" height="48" rx="4" fill="#ffffff" stroke="#666677" stroke-width="1.3"/>
<text x="478.33333333333337" y="1095.25" font-size="11.5" text-anchor="middle" fill="#222233">Payment</text>
<text x="478.33333333333337" y="1108.75" font-size="11.5" text-anchor="middle" fill="#222233">scheduling</text>
<rect x="419" y="1258" width="112" height="48" rx="4" fill="#ffffff" stroke="#666677" stroke-width="1.3"/>
<text x="475" y="1279.25" font-size="11.5" text-anchor="middle" fill="#222233">Banking system</text>
<text x="475" y="1292.75" font-size="11.5" text-anchor="middle" fill="#222233">(transfers)</text>
<rect x="287" y="1258" width="112" height="48" rx="4" fill="#ffffff" stroke="#666677" stroke-width="1.3"/>
<text x="343" y="1279.25" font-size="11.5" text-anchor="middle" fill="#222233">Inter-insurer</text>
<text x="343" y="1292.75" font-size="11.5" text-anchor="middle" fill="#222233">files</text>
<rect x="155" y="1258" width="112" height="48" rx="4" fill="#ffffff" stroke="#666677" stroke-width="1.3"/>
<text x="211" y="1279.25" font-size="11.5" text-anchor="middle" fill="#222233">Group</text>
<text x="211" y="1292.75" font-size="11.5" text-anchor="middle" fill="#222233">ECM</text>
<path d="M 298.6666666666667 165 L 299 180 L 299 247 L 351 247 L 351 323" fill="none" stroke="#444444" stroke-width="1.3" marker-end="url(#arr)"/>
<text x="252.5" y="211.5" font-size="10.5" text-anchor="middle" fill="#333" font-style="italic" stroke="white" stroke-width="2.5" paint-order="stroke" stroke-linejoin="round">Report a claim</text>
<rect x="231" y="219.5" width="43" height="15" rx="7.5" fill="#fdf3d8" stroke="#c9a227" stroke-width="1"/>
<text x="252.5" y="230.5" font-size="9.5" text-anchor="middle" fill="#7a6216" font-weight="bold">Claim</text>
<path d="M 409.5 165 L 410 180 L 410 190 L 423 190 L 423 237 L 483 237 L 483 323" fill="none" stroke="#444444" stroke-width="1.3" marker-end="url(#arr)"/>
<text x="365" y="220.5" font-size="10.5" text-anchor="middle" fill="#333" font-style="italic" stroke="white" stroke-width="2.5" paint-order="stroke" stroke-linejoin="round">Report involvement</text>
<path d="M 271.3333333333333 165 L 271 180 L 271 190 L 198 190 L 198 247 L 204 247 L 203.5 257 L 203.5 323" fill="none" stroke="#444444" stroke-width="1.3" marker-end="url(#arr)"/>
<text x="154.5" y="217.5" font-size="10.5" text-anchor="middle" fill="#333" font-style="italic" stroke="white" stroke-width="2.5" paint-order="stroke" stroke-linejoin="round">Upload photos</text>
<text x="154.5" y="231" font-size="10.5" text-anchor="middle" fill="#333" font-style="italic" stroke="white" stroke-width="2.5" paint-order="stroke" stroke-linejoin="round">and documents</text>
<path d="M 203.5 371 L 204 1152 L 204 1162 L 207 1162 L 207 1200 L 211 1200 L 211 1258" fill="none" stroke="#444444" stroke-width="1.3" marker-end="url(#arr)"/>
<text x="152" y="1183.5" font-size="10.5" text-anchor="middle" fill="#333" font-style="italic" stroke="white" stroke-width="2.5" paint-order="stroke" stroke-linejoin="round">Archive documents</text>
<path d="M 351 371 L 351 653.5 L 441.00000000000006 653.5 L 441.00000000000006 663.5" fill="none" stroke="#444444" stroke-width="1.3" marker-end="url(#arr)"/>
<text x="293" y="417.5" font-size="10.5" text-anchor="middle" fill="#333" font-style="italic" stroke="white" stroke-width="2.5" paint-order="stroke" stroke-linejoin="round">Open the case file</text>
<rect x="261" y="425.5" width="64" height="15" rx="7.5" fill="#fdf3d8" stroke="#c9a227" stroke-width="1"/>
<text x="293" y="436.5" font-size="9.5" text-anchor="middle" fill="#7a6216" font-weight="bold">Case file</text>
<path d="M 483 371 L 483 396 L 362 396 L 362 643.5 L 459.6666666666667 643.5 L 459.6666666666667 663.5" fill="none" stroke="#444444" stroke-width="1.3" marker-end="url(#arr)"/>
<text x="421" y="420.25" font-size="10.5" text-anchor="middle" fill="#333" font-style="italic" stroke="white" stroke-width="2.5" paint-order="stroke" stroke-linejoin="round">Open the case file</text>
<text x="421" y="433.75" font-size="10.5" text-anchor="middle" fill="#333" font-style="italic" stroke="white" stroke-width="2.5" paint-order="stroke" stroke-linejoin="round">(phone channel)</text>
<path d="M 450.33333333333337 711.5 L 450.33333333333337 721.5 L 431 721.5 L 431 782.5" fill="none" stroke="#444444" stroke-width="1.3" marker-end="url(#arr)"/>
<text x="378.5" y="743" font-size="10.5" text-anchor="middle" fill="#333" font-style="italic" stroke="white" stroke-width="2.5" paint-order="stroke" stroke-linejoin="round">Systematic check</text>
<text x="378.5" y="756.5" font-size="10.5" text-anchor="middle" fill="#333" font-style="italic" stroke="white" stroke-width="2.5" paint-order="stroke" stroke-linejoin="round">at opening</text>
<path d="M 412.33333333333337 830.5 L 412.33333333333337 855.5 L 343.33333333333337 855.5 L 343 1152 L 343 1258" fill="none" stroke="#444444" stroke-width="1.3" marker-end="url(#arr)"/>
<text x="279" y="1179.5" font-size="10.5" text-anchor="middle" fill="#333" font-style="italic" stroke="white" stroke-width="2.5" paint-order="stroke" stroke-linejoin="round">Query claims-history</text>
<text x="279" y="1193" font-size="10.5" text-anchor="middle" fill="#333" font-style="italic" stroke="white" stroke-width="2.5" paint-order="stroke" stroke-linejoin="round">files</text>
<path d="M 343 1306 L 343 1331 L 89 1331 L 89 247 L 111 247 L 111 452.5 L 317 452.5 L 317 772.5 L 393.6666666666667 772.5 L 393.6666666666667 782.5" fill="none" stroke="#444444" stroke-width="1.3" marker-end="url(#arr)"/>
<text x="48.5" y="1236.5" font-size="10.5" text-anchor="middle" fill="#333" font-style="italic" stroke="white" stroke-width="2.5" paint-order="stroke" stroke-linejoin="round">Policyholder</text>
<text x="48.5" y="1250" font-size="10.5" text-anchor="middle" fill="#333" font-style="italic" stroke="white" stroke-width="2.5" paint-order="stroke" stroke-linejoin="round">history</text>
<path d="M 515.6666666666666 663.5 L 515.6666666666666 553.5" fill="none" stroke="#444444" stroke-width="1.3" marker-end="url(#arr)"/>
<text x="583.6666666666666" y="594.5" font-size="10.5" text-anchor="middle" fill="#333" font-style="italic" stroke="white" stroke-width="2.5" paint-order="stroke" stroke-linejoin="round">Assessment mission</text>
<text x="583.6666666666666" y="608" font-size="10.5" text-anchor="middle" fill="#333" font-style="italic" stroke="white" stroke-width="2.5" paint-order="stroke" stroke-linejoin="round">if damage &gt; threshold</text>
<path d="M 681.5 142 L 682 157 L 682 237 L 570 237 L 570 462.5 L 497 462.5 L 497 505.5" fill="none" stroke="#444444" stroke-width="1.3" marker-end="url(#arr)"/>
<text x="624.5" y="188.5" font-size="10.5" text-anchor="middle" fill="#333" font-style="italic" stroke="white" stroke-width="2.5" paint-order="stroke" stroke-linejoin="round">Submit assessment</text>
<text x="624.5" y="202" font-size="10.5" text-anchor="middle" fill="#333" font-style="italic" stroke="white" stroke-width="2.5" paint-order="stroke" stroke-linejoin="round">report</text>
<rect x="571" y="210" width="107" height="15" rx="7.5" fill="#fdf3d8" stroke="#c9a227" stroke-width="1"/>
<text x="624.5" y="221" font-size="9.5" text-anchor="middle" fill="#7a6216" font-weight="bold">Assessment report</text>
<path d="M 478.3333333333333 553.5 L 478.3333333333333 563.5 L 497 563.5 L 497 663.5" fill="none" stroke="#444444" stroke-width="1.3" marker-end="url(#arr)"/>
<text x="439.5" y="585" font-size="10.5" text-anchor="middle" fill="#333" font-style="italic" stroke="white" stroke-width="2.5" paint-order="stroke" stroke-linejoin="round">Assessment</text>
<text x="439.5" y="598.5" font-size="10.5" text-anchor="middle" fill="#333" font-style="italic" stroke="white" stroke-width="2.5" paint-order="stroke" stroke-linejoin="round">conclusions</text>
<rect x="386" y="606.5" width="107" height="15" rx="7.5" fill="#fdf3d8" stroke="#c9a227" stroke-width="1"/>
<text x="439.5" y="617.5" font-size="9.5" text-anchor="middle" fill="#7a6216" font-weight="bold">Assessment report</text>
<path d="M 597 142 L 597 167 L 559 167 L 559 452.5 L 373 452.5 L 373 633.5 L 478.33333333333337 633.5 L 478.33333333333337 663.5" fill="none" stroke="#444444" stroke-width="1.3" marker-end="url(#arr)"/>
<text x="495" y="207.5" font-size="10.5" text-anchor="middle" fill="#333" font-style="italic" stroke="white" stroke-width="2.5" paint-order="stroke" stroke-linejoin="round">Investigation and</text>
<text x="495" y="221" font-size="10.5" text-anchor="middle" fill="#333" font-style="italic" stroke="white" stroke-width="2.5" paint-order="stroke" stroke-linejoin="round">management decisions</text>
<path d="M 478.33333333333337 711.5 L 478.33333333333337 949.5" fill="none" stroke="#444444" stroke-width="1.3" marker-end="url(#arr)"/>
<text x="431.83333333333337" y="877" font-size="10.5" text-anchor="middle" fill="#333" font-style="italic" stroke="white" stroke-width="2.5" paint-order="stroke" stroke-linejoin="round">Approved items</text>
<text x="431.83333333333337" y="890.5" font-size="10.5" text-anchor="middle" fill="#333" font-style="italic" stroke="white" stroke-width="2.5" paint-order="stroke" stroke-linejoin="round">for pricing</text>
<path d="M 515.6666666666667 997.5 L 515.6666666666667 1007.5 L 544.3333333333334 1007.5 L 544 1152 L 544 1172 L 913 1172 L 913 32 L 770 32 L 769.5 42 L 769.5 75" fill="none" stroke="#444444" stroke-width="1.3" marker-end="url(#arr)"/>
<text x="858" y="268.5" font-size="10.5" text-anchor="middle" fill="#333" font-style="italic" stroke="white" stroke-width="2.5" paint-order="stroke" stroke-linejoin="round">Approval request</text>
<text x="858" y="282" font-size="10.5" text-anchor="middle" fill="#333" font-style="italic" stroke="white" stroke-width="2.5" paint-order="stroke" stroke-linejoin="round">beyond delegation</text>
<path d="M 769.5 142 L 770 157 L 770 167 L 795 167 L 795 247 L 669 247 L 668.6666666666666 257 L 668.6666666666666 906.5 L 578 906.5 A 5 5 0 0 0 568 906.5 L 515.6666666666667 906.5 L 515.6666666666667 949.5" fill="none" stroke="#444444" stroke-width="1.3" marker-end="url(#arr)"/>
<text x="742.5" y="188.5" font-size="10.5" text-anchor="middle" fill="#333" font-style="italic" stroke="white" stroke-width="2.5" paint-order="stroke" stroke-linejoin="round">Approval or</text>
<text x="742.5" y="202" font-size="10.5" text-anchor="middle" fill="#333" font-style="italic" stroke="white" stroke-width="2.5" paint-order="stroke" stroke-linejoin="round">reasoned refusal</text>
<path d="M 478.33333333333337 997.5 L 478.33333333333337 1074" fill="none" stroke="#444444" stroke-width="1.3" marker-end="url(#arr)"/>
<text x="420.33333333333337" y="1029" font-size="10.5" text-anchor="middle" fill="#333" font-style="italic" stroke="white" stroke-width="2.5" paint-order="stroke" stroke-linejoin="round">Compensation order</text>
<rect x="380.33333333333337" y="1037" width="80" height="15" rx="7.5" fill="#fdf3d8" stroke="#c9a227" stroke-width="1"/>
<text x="420.33333333333337" y="1048" font-size="9.5" text-anchor="middle" fill="#7a6216" font-weight="bold">Compensation</text>
<path d="M 478.33333333333337 1122 L 478 1152 L 478 1162 L 475 1162 L 475 1258" fill="none" stroke="#444444" stroke-width="1.3" marker-end="url(#arr)"/>
<text x="431" y="1183.5" font-size="10.5" text-anchor="middle" fill="#333" font-style="italic" stroke="white" stroke-width="2.5" paint-order="stroke" stroke-linejoin="round">SEPA transfer</text>
<rect x="391" y="1191.5" width="80" height="15" rx="7.5" fill="#fdf3d8" stroke="#c9a227" stroke-width="1"/>
<text x="431" y="1202.5" font-size="9.5" text-anchor="middle" fill="#7a6216" font-weight="bold">Compensation</text>
<path d="M 506.33333333333337 711.5 L 506.33333333333337 855.5 L 573 855.5 L 573 1162 L 908 1162 A 5 5 0 0 1 918 1162 L 1002 1162 L 1002 22 L 285 22 L 285 109" fill="none" stroke="#444444" stroke-width="1.3" marker-end="url(#arr)"/>
<text x="961.5" y="268.5" font-size="10.5" text-anchor="middle" fill="#333" font-style="italic" stroke="white" stroke-width="2.5" paint-order="stroke" stroke-linejoin="round">Notify steps</text>
<text x="961.5" y="282" font-size="10.5" text-anchor="middle" fill="#333" font-style="italic" stroke="white" stroke-width="2.5" paint-order="stroke" stroke-linejoin="round">and decision</text>
<line x1="20" y1="1351" x2="993" y2="1351" stroke="#ddd" stroke-width="1"/>
<text x="20" y="1373" font-size="11" font-weight="bold" fill="#555">BUSINESS OBJECTS</text>
<rect x="150" y="1363" width="43" height="15" rx="7.5" fill="#fdf3d8" stroke="#c9a227"/>
<text x="171.5" y="1374" font-size="9.5" text-anchor="middle" fill="#7a6216" font-weight="bold">Claim</text>
<text x="203" y="1374" font-size="10" fill="#666">— damaging event reported by a policyholder</text>
<rect x="150" y="1387" width="64" height="15" rx="7.5" fill="#fdf3d8" stroke="#c9a227"/>
<text x="182" y="1398" font-size="9.5" text-anchor="middle" fill="#7a6216" font-weight="bold">Case file</text>
<text x="224" y="1398" font-size="10" fill="#666">— file opened to investigate a claim</text>
<rect x="150" y="1411" width="107" height="15" rx="7.5" fill="#fdf3d8" stroke="#c9a227"/>
<text x="203.5" y="1422" font-size="9.5" text-anchor="middle" fill="#7a6216" font-weight="bold">Assessment report</text>
<text x="267" y="1422" font-size="10" fill="#666">— quantified conclusions of the appointed expert</text>
<rect x="150" y="1435" width="80" height="15" rx="7.5" fill="#fdf3d8" stroke="#c9a227"/>
<text x="190" y="1446" font-size="9.5" text-anchor="middle" fill="#7a6216" font-weight="bold">Compensation</text>
<text x="240" y="1446" font-size="10" fill="#666">— amount approved and paid to the policyholder</text>
<line x1="20" y1="1473" x2="993" y2="1473" stroke="#ddd" stroke-width="1"/>
<text x="20" y="1495" font-size="11" font-weight="bold" fill="#555">LEGEND</text>
<rect x="150" y="1485" width="26" height="14" rx="3" fill="#eef4fb" stroke="#7a9cc4" stroke-dasharray="5 3"/>
<text x="182" y="1496" font-size="10" fill="#444">Actor group</text>
<rect x="272" y="1485" width="26" height="14" rx="3" fill="#f6f2ea" stroke="#b09a6d"/>
<text x="304" y="1496" font-size="10" fill="#444">System</text>
<rect x="368" y="1485" width="26" height="14" rx="3" fill="#fdfbf6" stroke="#c4b258"/>
<text x="400" y="1496" font-size="10" fill="#444">Layer</text>
<rect x="458" y="1485" width="26" height="14" rx="3" fill="#ffffff" stroke="#666677"/>
<text x="490" y="1496" font-size="10" fill="#444">Functional block</text>
<rect x="606" y="1485" width="26" height="14" rx="3" fill="#f0eef5" stroke="#9187b3" stroke-dasharray="5 3"/>
<text x="638" y="1496" font-size="10" fill="#444">External system</text>
<line x1="150" y1="1515" x2="176" y2="1515" stroke="#444444" stroke-width="1.3" marker-end="url(#arr)"/>
<text x="182" y="1519" font-size="10" fill="#444">Functional flow (label = exchanged data)</text>
<rect x="480" y="1508" width="96" height="15" rx="7.5" fill="#fdf3d8" stroke="#c9a227"/>
<text x="528" y="1519" font-size="9.5" text-anchor="middle" fill="#7a6216" font-weight="bold">Business object</text>
<text x="584" y="1519" font-size="10" fill="#444">carried by the flow</text>
<text x="150" y="1543" font-size="10" fill="#444" font-style="italic">Claim files are retained for 10 years (legal obligation)</text>
</svg>
