<svg xmlns="http://www.w3.org/2000/svg" viewBox="0 0 960 1644" font-family="Helvetica,Arial,sans-serif">
<defs><marker id="arr" viewBox="0 0 10 10" refX="9" refY="5" markerWidth="7" markerHeight="7" orient="auto-start-reverse">
<path d="M0,0 L10,5 L0,10 z" fill="#444444"/></marker></defs>
<rect width="960" height="1644" fill="white"/>
<rect x="210" y="91" width="249" height="94" rx="6" fill="#eef4fb" stroke="#7a9cc4" stroke-width="1.2" stroke-dasharray="5 3"/>
<text x="220" y="109" font-size="12" font-weight="bold" fill="#333">Policyholders</text>
<rect x="483" y="47" width="260" height="105" rx="6" fill="#eef4fb" stroke="#7a9cc4" stroke-width="1.2" stroke-dasharray="5 3"/>
<text x="493" y="65" font-size="12" font-weight="bold" fill="#333">Case handlers</text>
<rect x="99" y="276" width="513.6666666666666" height="920" rx="6" fill="#f6f2ea" stroke="#b09a6d" stroke-width="1.2"/>
<text x="109" y="294" font-size="12" font-weight="bold" fill="#333">Claims information system</text>
<rect x="120" y="309" width="427" height="86" rx="6" fill="#fdfbf6" stroke="#c4b258" stroke-width="1"/>
<text x="130" y="327" font-size="12" font-weight="bold" fill="#333">Reporting layer</text>
<rect x="305" y="505" width="286.66666666666663" height="371" rx="6" fill="#fdfbf6" stroke="#c4b258" stroke-width="1"/>
<text x="315" y="523" font-size="12" font-weight="bold" fill="#333">Investigation layer</text>
<rect x="380.33333333333337" y="957" width="180.66666666666669" height="224" rx="6" fill="#fdfbf6" stroke="#c4b258" stroke-width="1"/>
<text x="390.33333333333337" y="975" font-size="12" font-weight="bold" fill="#333">Settlement layer</text>
<rect x="146" y="1287" width="396" height="86" rx="6" fill="#f0eef5" stroke="#9187b3" stroke-width="1.2" stroke-dasharray="5 3"/>
<text x="156" y="1305" font-size="12" font-weight="bold" fill="#333">External systems</text>
<circle cx="261" cy="129" r="7" fill="none" stroke="#445566" stroke-width="1.5"/>
<path d="M 250 151 q 11 -19 22 0" fill="none" stroke="#445566" stroke-width="1.5"/>
<text x="261" y="163" font-size="10" text-anchor="middle" fill="#223344">Policyholder</text>
<circle cx="385.5" cy="129" r="7" fill="none" stroke="#445566" stroke-width="1.5"/>
<path d="M 374.5 151 q 11 -19 22 0" fill="none" stroke="#445566" stroke-width="1.5"/>
<text x="385.5" y="163" font-size="10" text-anchor="middle" fill="#223344">Involved third party</text>
<circle cx="525" cy="85" r="7" fill="none" stroke="#445566" stroke-width="1.5"/>
<path d="M 514 107 q 11 -19 22 0" fill="none" stroke="#445566" stroke-width="1.5"/>
<text x="525" y="119" font-size="10" text-anchor="middle" fill="#223344">Claims</text>
<text x="525" y="130" font-size="10" text-anchor="middle" fill="#223344">handler</text>
<circle cx="609.5" cy="85" r="7" fill="none" stroke="#445566" stroke-width="1.5"/>
<path d="M 598.5 107 q 11 -19 22 0" fill="none" stroke="#445566" stroke-width="1.5"/>
<text x="609.5" y="119" font-size="10" text-anchor="middle" fill="#223344">Appointed</text>
<text x="609.5" y="130" font-size="10" text-anchor="middle" fill="#223344">expert</text>
<circle cx="697.5" cy="85" r="7" fill="none" stroke="#445566" stroke-width="1.5"/>
<path d="M 686.5 107 q 11 -19 22 0" fill="none" stroke="#445566" stroke-width="1.5"/>
<text x="697.5" y="119" font-size="10" text-anchor="middle" fill="#223344">Settlement</text>
<text x="697.5" y="130" font-size="10" text-anchor="middle" fill="#223344">supervisor</text>
<rect x="293" y="337" width="112" height="48" rx="4" fill="#ffffff" stroke="#666677" stroke-width="1.3"/>
<text x="349" y="358.25" font-size="11.5" text-anchor="middle" fill="#222233">Online</text>
<text x="349" y="371.75" font-size="11.5" text-anchor="middle" fill="#222233">reporting</text>
<rect x="425" y="337" width="112" height="48" rx="4" fill="#ffffff" stroke="#666677" stroke-width="1.3"/>
<text x="481" y="358.25" font-size="11.5" text-anchor="middle" fill="#222233">Phone</text>
<text x="481" y="371.75" font-size="11.5" text-anchor="middle" fill="#222233">reporting</text>
<rect x="130" y="337" width="143" height="48" rx="4" fill="#ffffff" stroke="#666677" stroke-width="1.3"/>
<text x="201.5" y="358.25" font-size="11.5" text-anchor="middle" fill="#222233">Supporting-document</text>
<text x="201.5" y="371.75" font-size="11.5" text-anchor="middle" fill="#222233">collection</text>
<rect x="420.33333333333337" y="699" width="112" height="48" rx="4" fill="#ffffff" stroke="#666677" stroke-width="1.3"/>
<text x="476.33333333333337" y="720.25" font-size="11.5" text-anchor="middle" fill="#222233">Claim-file</text>
<text x="476.33333333333337" y="733.75" font-size="11.5" text-anchor="middle" fill="#222233">management</text>
<rect x="439" y="533" width="112" height="48" rx="4" fill="#ffffff" stroke="#666677" stroke-width="1.3"/>
<text x="495" y="554.25" font-size="11.5" text-anchor="middle" fill="#222233">Assessment</text>
<text x="495" y="567.75" font-size="11.5" text-anchor="middle" fill="#222233">tracking</text>
<rect x="354.33333333333337" y="818" width="112" height="48" rx="4" fill="#ffffff" stroke="#666677" stroke-width="1.3"/>
<text x="410.33333333333337" y="839.25" font-size="11.5" text-anchor="middle" fill="#222233">Fraud</text>
<text x="410.33333333333337" y="852.75" font-size="11.5" text-anchor="middle" fill="#222233">detection</text>
<rect x="439.00000000000006" y="985" width="112" height="48" rx="4" fill="#ffffff" stroke="#666677" stroke-width="1.3"/>
<text x="495.00000000000006" y="1006.25" font-size="11.5" text-anchor="middle" fill="#222233">Compensation</text>
<text x="495.00000000000006" y="1019.75" font-size="11.5" text-anchor="middle" fill="#222233">calculation</text>
<rect x="420.33333333333337" y="1123" width="112" height="48" rx="4" fill="#ffffff" stroke="#666677" stroke-width="1.3"/>
<text x="476.33333333333337" y="1144.25" font-size="11.5" text-anchor="middle" fill="#222233">Payment</text>
<text x="476.33333333333337" y="1157.75" font-size="11.5" text-anchor="middle" fill="#222233">scheduling</text>
<rect x="420" y="1315" width="112" height="48" rx="4" fill="#ffffff" stroke="#666677" stroke-width="1.3"/>
<text x="476" y="1336.25" font-size="11.5" text-anchor="middle" fill="#222233">Banking system</text>
<text x="476" y="1349.75" font-size="11.5" text-anchor="middle" fill="#222233">(transfers)</text>
<rect x="288" y="1315" width="112" height="48" rx="4" fill="#ffffff" stroke="#666677" stroke-width="1.3"/>
<text x="344" y="1336.25" font-size="11.5" text-anchor="middle" fill="#222233">Inter-insurer</text>
<text x="344" y="1349.75" font-size="11.5" text-anchor="middle" fill="#222233">files</text>
<rect x="156" y="1315" width="112" height="48" rx="4" fill="#ffffff" stroke="#666677" stroke-width="1.3"/>
<text x="212" y="1336.25" font-size="11.5" text-anchor="middle" fill="#222233">Group</text>
<text x="212" y="1349.75" font-size="11.5" text-anchor="middle" fill="#222233">ECM</text>
<path d="M 274.6666666666667 175 L 275 190 L 275 204 L 303 204 L 303 261 L 349 261 L 349 337" fill="none" stroke="#444444" stroke-width="1.3" marker-end="url(#arr)"/>
<text x="256.5" y="225.5" font-size="10.5" text-anchor="middle" fill="#333" font-style="italic" stroke="white" stroke-width="2.5" paint-order="stroke" stroke-linejoin="round">Report a claim</text>
<rect x="235" y="233.5" width="43" height="15" rx="7.5" fill="#fdf3d8" stroke="#c9a227" stroke-width="1"/>
<text x="256.5" y="244.5" font-size="9.5" text-anchor="middle" fill="#7a6216" font-weight="bold">Claim</text>
<path d="M 385.5 175 L 386 190 L 386 261 L 481 261 L 481 337" fill="none" stroke="#444444" stroke-width="1.3" marker-end="url(#arr)"/>
<text x="348.5" y="231.5" font-size="10.5" text-anchor="middle" fill="#333" font-style="italic" stroke="white" stroke-width="2.5" paint-order="stroke" stroke-linejoin="round">Report</text>
<text x="348.5" y="245" font-size="10.5" text-anchor="middle" fill="#333" font-style="italic" stroke="white" stroke-width="2.5" paint-order="stroke" stroke-linejoin="round">involvement</text>
<path d="M 247.33333333333334 175 L 247 190 L 247 204 L 202 204 L 201.5 271 L 201.5 337" fill="none" stroke="#444444" stroke-width="1.3" marker-end="url(#arr)"/>
<text x="158.5" y="225.5" font-size="10.5" text-anchor="middle" fill="#333" font-style="italic" stroke="white" stroke-width="2.5" paint-order="stroke" stroke-linejoin="round">Upload photos</text>
<text x="158.5" y="239" font-size="10.5" text-anchor="middle" fill="#333" font-style="italic" stroke="white" stroke-width="2.5" paint-order="stroke" stroke-linejoin="round">and documents</text>
<path d="M 201.5 385 L 202 1201 L 202 1272 L 212 1272 L 212 1315" fill="none" stroke="#444444" stroke-width="1.3" marker-end="url(#arr)"/>
<text x="170.5" y="1242.5" font-size="10.5" text-anchor="middle" fill="#333" font-style="italic" stroke="white" stroke-width="2.5" paint-order="stroke" stroke-linejoin="round">Archive</text>
<text x="170.5" y="1256" font-size="10.5" text-anchor="middle" fill="#333" font-style="italic" stroke="white" stroke-width="2.5" paint-order="stroke" stroke-linejoin="round">documents</text>
<path d="M 349 385 L 349 689 L 439.00000000000006 689 L 439.00000000000006 699" fill="none" stroke="#444444" stroke-width="1.3" marker-end="url(#arr)"/>
<text x="305.5" y="431.5" font-size="10.5" text-anchor="middle" fill="#333" font-style="italic" stroke="white" stroke-width="2.5" paint-order="stroke" stroke-linejoin="round">Open the case</text>
<text x="305.5" y="445" font-size="10.5" text-anchor="middle" fill="#333" font-style="italic" stroke="white" stroke-width="2.5" paint-order="stroke" stroke-linejoin="round">file</text>
<rect x="273.5" y="453" width="64" height="15" rx="7.5" fill="#fdf3d8" stroke="#c9a227" stroke-width="1"/>
<text x="305.5" y="464" font-size="9.5" text-anchor="middle" fill="#7a6216" font-weight="bold">Case file</text>
<path d="M 481 385 L 481 410 L 360 410 L 360 679 L 457.6666666666667 679 L 457.6666666666667 699" fill="none" stroke="#444444" stroke-width="1.3" marker-end="url(#arr)"/>
<text x="404.5" y="434.25" font-size="10.5" text-anchor="middle" fill="#333" font-style="italic" stroke="white" stroke-width="2.5" paint-order="stroke" stroke-linejoin="round">Open the case</text>
<text x="404.5" y="447.75" font-size="10.5" text-anchor="middle" fill="#333" font-style="italic" stroke="white" stroke-width="2.5" paint-order="stroke" stroke-linejoin="round">file (phone</text>
<text x="404.5" y="461.25" font-size="10.5" text-anchor="middle" fill="#333" font-style="italic" stroke="white" stroke-width="2.5" paint-order="stroke" stroke-linejoin="round">channel)</text>
<path d="M 448.33333333333337 747 L 448.33333333333337 757 L 429 757 L 429 818" fill="none" stroke="#444444" stroke-width="1.3" marker-end="url(#arr)"/>
<text x="376.5" y="778.5" font-size="10.5" text-anchor="middle" fill="#333" font-style="italic" stroke="white" stroke-width="2.5" paint-order="stroke" stroke-linejoin="round">Systematic check</text>
<text x="376.5" y="792" font-size="10.5" text-anchor="middle" fill="#333" font-style="italic" stroke="white" stroke-width="2.5" paint-order="stroke" stroke-linejoin="round">at opening</text>
<path d="M 410.33333333333337 866 L 410.33333333333337 891 L 369.33333333333337 891 L 369 1201 L 369 1211 L 344 1211 L 344 1315" fill="none" stroke="#444444" stroke-width="1.3" marker-end="url(#arr)"/>
<text x="297.5" y="1232.5" font-size="10.5" text-anchor="middle" fill="#333" font-style="italic" stroke="white" stroke-width="2.5" paint-order="stroke" stroke-linejoin="round">Query</text>
<text x="297.5" y="1246" font-size="10.5" text-anchor="middle" fill="#333" font-style="italic" stroke="white" stroke-width="2.5" paint-order="stroke" stroke-linejoin="round">claims-history</text>
<text x="297.5" y="1259.5" font-size="10.5" text-anchor="middle" fill="#333" font-style="italic" stroke="white" stroke-width="2.5" paint-order="stroke" stroke-linejoin="round">files</text>
<path d="M 344 1363 L 344 1388 L 89 1388 L 89 261 L 109 261 L 109 480 L 315 480 L 315 808 L 391.6666666666667 808 L 391.6666666666667 818" fill="none" stroke="#444444" stroke-width="1.3" marker-end="url(#arr)"/>
<text x="48.5" y="1293.5" font-size="10.5" text-anchor="middle" fill="#333" font-style="italic" stroke="white" stroke-width="2.5" paint-order="stroke" stroke-linejoin="round">Policyholder</text>
<text x="48.5" y="1307" font-size="10.5" text-anchor="middle" fill="#333" font-style="italic" stroke="white" stroke-width="2.5" paint-order="stroke" stroke-linejoin="round">history</text>
<path d="M 513.6666666666666 699 L 513.6666666666666 581" fill="none" stroke="#444444" stroke-width="1.3" marker-end="url(#arr)"/>
<text x="549.1666666666666" y="612.5" font-size="10.5" text-anchor="middle" fill="#333" font-style="italic" stroke="white" stroke-width="2.5" paint-order="stroke" stroke-linejoin="round">Assessment</text>
<text x="549.1666666666666" y="626" font-size="10.5" text-anchor="middle" fill="#333" font-style="italic" stroke="white" stroke-width="2.5" paint-order="stroke" stroke-linejoin="round">mission if</text>
<text x="549.1666666666666" y="639.5" font-size="10.5" text-anchor="middle" fill="#333" font-style="italic" stroke="white" stroke-width="2.5" paint-order="stroke" stroke-linejoin="round">damage &gt;</text>
<text x="549.1666666666666" y="653" font-size="10.5" text-anchor="middle" fill="#333" font-style="italic" stroke="white" stroke-width="2.5" paint-order="stroke" stroke-linejoin="round">threshold</text>
<path d="M 609.5 142 L 610 157 L 610 251 L 568 251 L 568 490 L 495 490 L 495 533" fill="none" stroke="#444444" stroke-width="1.3" marker-end="url(#arr)"/>
<text x="552.5" y="188.5" font-size="10.5" text-anchor="middle" fill="#333" font-style="italic" stroke="white" stroke-width="2.5" paint-order="stroke" stroke-linejoin="round">Submit</text>
<text x="552.5" y="202" font-size="10.5" text-anchor="middle" fill="#333" font-style="italic" stroke="white" stroke-width="2.5" paint-order="stroke" stroke-linejoin="round">assessment</text>
<text x="552.5" y="215.5" font-size="10.5" text-anchor="middle" fill="#333" font-style="italic" stroke="white" stroke-width="2.5" paint-order="stroke" stroke-linejoin="round">report</text>
<rect x="499" y="223.5" width="107" height="15" rx="7.5" fill="#fdf3d8" stroke="#c9a227" stroke-width="1"/>
<text x="552.5" y="234.5" font-size="9.5" text-anchor="middle" fill="#7a6216" font-weight="bold">Assessment report</text>
<path d="M 476.3333333333333 581 L 476.3333333333333 591 L 495 591 L 495 699" fill="none" stroke="#444444" stroke-width="1.3" marker-end="url(#arr)"/>
<text x="437.5" y="616.5" font-size="10.5" text-anchor="middle" fill="#333" font-style="italic" stroke="white" stroke-width="2.5" paint-order="stroke" stroke-linejoin="round">Assessment</text>
<text x="437.5" y="630" font-size="10.5" text-anchor="middle" fill="#333" font-style="italic" stroke="white" stroke-width="2.5" paint-order="stroke" stroke-linejoin="round">conclusions</text>
<rect x="384" y="638" width="107" height="15" rx="7.5" fill="#fdf3d8" stroke="#c9a227" stroke-width="1"/>
<text x="437.5" y="649" font-size="9.5" text-anchor="middle" fill="#7a6216" font-weight="bold">Assessment report</text>
<path d="M 525 142 L 525 167 L 487 167 L 487 261 L 557 261 L 557 480 L 371 480 L 371 669 L 476.33333333333337 669 L 476.33333333333337 699" fill="none" stroke="#444444" stroke-width="1.3" marker-end="url(#arr)"/>
<text x="440.5" y="217.5" font-size="10.5" text-anchor="middle" fill="#333" font-style="italic" stroke="white" stroke-width="2.5" paint-order="stroke" stroke-linejoin="round">Investigation</text>
<text x="440.5" y="231" font-size="10.5" text-anchor="middle" fill="#333" font-style="italic" stroke="white" stroke-width="2.5" paint-order="stroke" stroke-linejoin="round">and management</text>
<text x="440.5" y="244.5" font-size="10.5" text-anchor="middle" fill="#333" font-style="italic" stroke="white" stroke-width="2.5" paint-order="stroke" stroke-linejoin="round">decisions</text>
<path d="M 476.33333333333337 747 L 476.33333333333337 985" fill="none" stroke="#444444" stroke-width="1.3" marker-end="url(#arr)"/>
<text x="429.83333333333337" y="912.5" font-size="10.5" text-anchor="middle" fill="#333" font-style="italic" stroke="white" stroke-width="2.5" paint-order="stroke" stroke-linejoin="round">Approved items</text>
<text x="429.83333333333337" y="926" font-size="10.5" text-anchor="middle" fill="#333" font-style="italic" stroke="white" stroke-width="2.5" paint-order="stroke" stroke-linejoin="round">for pricing</text>
<path d="M 513.6666666666667 1033 L 513.6666666666667 1043 L 542.3333333333334 1043 L 542 1201 L 542 1221 L 836 1221 L 836 32 L 698 32 L 697.5 42 L 697.5 75" fill="none" stroke="#444444" stroke-width="1.3" marker-end="url(#arr)"/>
<text x="783.5" y="282.5" font-size="10.5" text-anchor="middle" fill="#333" font-style="italic" stroke="white" stroke-width="2.5" paint-order="stroke" stroke-linejoin="round">Approval request</text>
<text x="783.5" y="296" font-size="10.5" text-anchor="middle" fill="#333" font-style="italic" stroke="white" stroke-width="2.5" paint-order="stroke" stroke-linejoin="round">beyond</text>
<text x="783.5" y="309.5" font-size="10.5" text-anchor="middle" fill="#333" font-style="italic" stroke="white" stroke-width="2.5" paint-order="stroke" stroke-linejoin="round">delegation</text>
<path d="M 697.5 142 L 698 157 L 698 167 L 723 167 L 723 261 L 602 261 L 601.6666666666666 271 L 601.6666666666666 942 L 576 942 A 5 5 0 0 0 566 942 L 513.6666666666667 942 L 513.6666666666667 985" fill="none" stroke="#444444" stroke-width="1.3" marker-end="url(#arr)"/>
<text x="670.5" y="188.5" font-size="10.5" text-anchor="middle" fill="#333" font-style="italic" stroke="white" stroke-width="2.5" paint-order="stroke" stroke-linejoin="round">Approval or</text>
<text x="670.5" y="202" font-size="10.5" text-anchor="middle" fill="#333" font-style="italic" stroke="white" stroke-width="2.5" paint-order="stroke" stroke-linejoin="round">reasoned refusal</text>
<path d="M 476.33333333333337 1033 L 476.33333333333337 1123" fill="none" stroke="#444444" stroke-width="1.3" marker-end="url(#arr)"/>
<text x="432.33333333333337" y="1064.5" font-size="10.5" text-anchor="middle" fill="#333" font-style="italic" stroke="white" stroke-width="2.5" paint-order="stroke" stroke-linejoin="round">Compensation</text>
<text x="432.33333333333337" y="1078" font-size="10.5" text-anchor="middle" fill="#333" font-style="italic" stroke="white" stroke-width="2.5" paint-order="stroke" stroke-linejoin="round">order</text>
<rect x="392.33333333333337" y="1086" width="80" height="15" rx="7.5" fill="#fdf3d8" stroke="#c9a227" stroke-width="1"/>
<text x="432.33333333333337" y="1097" font-size="9.5" text-anchor="middle" fill="#7a6216" font-weight="bold">Compensation</text>
<path d="M 476.33333333333337 1171 L 476 1201 L 476 1315" fill="none" stroke="#444444" stroke-width="1.3" marker-end="url(#arr)"/>
<text x="432" y="1228.5" font-size="10.5" text-anchor="middle" fill="#333" font-style="italic" stroke="white" stroke-width="2.5" paint-order="stroke" stroke-linejoin="round">SEPA transfer</text>
<rect x="392" y="1236.5" width="80" height="15" rx="7.5" fill="#fdf3d8" stroke="#c9a227" stroke-width="1"/>
<text x="432" y="1247.5" font-size="9.5" text-anchor="middle" fill="#7a6216" font-weight="bold">Compensation</text>
<path d="M 504.33333333333337 747 L 504.33333333333337 891 L 571 891 L 571 1211 L 831 1211 A 5 5 0 0 1 841 1211 L 949 1211 L 949 22 L 261 22 L 261 119" fill="none" stroke="#444444" stroke-width="1.3" marker-end="url(#arr)"/>
<text x="896.5" y="282.5" font-size="10.5" text-anchor="middle" fill="#333" font-style="italic" stroke="white" stroke-width="2.5" paint-order="stroke" stroke-linejoin="round">Notify steps and</text>
<text x="896.5" y="296" font-size="10.5" text-anchor="middle" fill="#333" font-style="italic" stroke="white" stroke-width="2.5" paint-order="stroke" stroke-linejoin="round">decision</text>
<line x1="20" y1="1408" x2="940" y2="1408" stroke="#ddd" stroke-width="1"/>
<text x="20" y="1430" font-size="11" font-weight="bold" fill="#555">BUSINESS OBJECTS</text>
<rect x="150" y="1420" width="43" height="15" rx="7.5" fill="#fdf3d8" stroke="#c9a227"/>
<text x="171.5" y="1431" font-size="9.5" text-anchor="middle" fill="#7a6216" font-weight="bold">Claim</text>
<text x="203" y="1431" font-size="10" fill="#666">— damaging event reported by a policyholder</text>
<rect x="150" y="1444" width="64" height="15" rx="7.5" fill="#fdf3d8" stroke="#c9a227"/>
<text x="182" y="1455" font-size="9.5" text-anchor="middle" fill="#7a6216" font-weight="bold">Case file</text>
<text x="224" y="1455" font-size="10" fill="#666">— file opened to investigate a claim</text>
<rect x="150" y="1468" width="107" height="15" rx="7.5" fill="#fdf3d8" stroke="#c9a227"/>
<text x="203.5" y="1479" font-size="9.5" text-anchor="middle" fill="#7a6216" font-weight="bold">Assessment report</text>
<text x="267" y="1479" font-size="10" fill="#666">— quantified conclusions of the appointed expert</text>
<rect x="150" y="1492" width="80" height="15" rx="7.5" fill="#fdf3d8" stroke="#c9a227"/>
<text x="190" y="1503" font-size="9.5" text-anchor="middle" fill="#7a6216" font-weight="bold">Compensation</text>
<text x="240" y="1503" font-size="10" fill="#666">— amount approved and paid to the policyholder</text>
<line x1="20" y1="1530" x2="940" y2="1530" stroke="#ddd" stroke-width="1"/>
<text x="20" y="1552" font-size="11" font-weight="bold" fill="#555">LEGEND</text>
<rect x="150" y="1542" width="26" height="14" rx="3" fill="#eef4fb" stroke="#7a9cc4" stroke-dasharray="5 3"/>
<text x="182" y="1553" font-size="10" fill="#444">Actor group</text>
<rect x="272" y="1542" width="26" height="14" rx="3" fill="#f6f2ea" stroke="#b09a6d"/>
<text x="304" y="1553" font-size="10" fill="#444">System</text>
<rect x="368" y="1542" width="26" height="14" rx="3" fill="#fdfbf6" stroke="#c4b258"/>
<text x="400" y="1553" font-size="10" fill="#444">Layer</text>
<rect x="458" y="1542" width="26" height="14" rx="3" fill="#ffffff" stroke="#666677"/>
<text x="490" y="1553" font-size="10" fill="#444">Functional block</text>
<rect x="606" y="1542" width="26" height="14" rx="3" fill="#f0eef5" stroke="#9187b3" stroke-dasharray="5 3"/>
<text x="638" y="1553" font-size="10" fill="#444">External system</text>
<line x1="150" y1="1594" x2="176" y2="1594" stroke="#444444" stroke-width="1.3" marker-end="url(#arr)"/>
<text x="182" y="1598" font-size="10" fill="#444">Functional flow (label = exchanged data)</text>
<rect x="480" y="1587" width="96" height="15" rx="7.5" fill="#fdf3d8" stroke="#c9a227"/>
<text x="528" y="1598" font-size="9.5" text-anchor="middle" fill="#7a6216" font-weight="bold">Business object</text>
<text x="584" y="1598" font-size="10" fill="#444">carried by the flow</text>
<text x="150" y="1622" font-size="10" fill="#444" font-style="italic">Claim files are retained for 10 years (legal obligation)</text>
</svg>
