<svg xmlns="http://www.w3.org/2000/svg" viewBox="0 0 2074 857" font-family="Helvetica,Arial,sans-serif">
<defs><marker id="arr" viewBox="0 0 10 10" refX="9" refY="5" markerWidth="7" markerHeight="7" orient="auto-start-reverse">
<path d="M0,0 L10,5 L0,10 z" fill="#444444"/></marker></defs>
<rect width="2074" height="857" fill="white"/>
<rect x="25" y="60" width="147" height="170" rx="6" fill="#eef4fb" stroke="#7a9cc4" stroke-width="1.2" stroke-dasharray="5 3"/>
<text x="35" y="78" font-size="12" font-weight="bold" fill="#333">Policyholders</text>
<rect x="49" y="241" width="91" height="279" rx="6" fill="#eef4fb" stroke="#7a9cc4" stroke-width="1.2" stroke-dasharray="5 3"/>
<text x="59" y="259" font-size="12" font-weight="bold" fill="#333">Case handlers</text>
<rect x="307" y="32" width="1475" height="349" rx="6" fill="#f6f2ea" stroke="#b09a6d" stroke-width="1.2"/>
<text x="317" y="50" font-size="12" font-weight="bold" fill="#333">Claims information system</text>
<rect x="322" y="71" width="163" height="222" rx="6" fill="#fdfbf6" stroke="#c4b258" stroke-width="1"/>
<text x="332" y="89" font-size="12" font-weight="bold" fill="#333">Reporting layer</text>
<rect x="628" y="152" width="632" height="208" rx="6" fill="#fdfbf6" stroke="#c4b258" stroke-width="1"/>
<text x="638" y="170" font-size="12" font-weight="bold" fill="#333">Investigation layer</text>
<rect x="1399" y="191" width="368" height="126" rx="6" fill="#fdfbf6" stroke="#c4b258" stroke-width="1"/>
<text x="1409" y="209" font-size="12" font-weight="bold" fill="#333">Settlement layer</text>
<rect x="1917" y="71" width="132" height="222" rx="6" fill="#f0eef5" stroke="#9187b3" stroke-width="1.2" stroke-dasharray="5 3"/>
<text x="1927" y="89" font-size="12" font-weight="bold" fill="#333">External systems</text>
<circle cx="106" cy="98" r="7" fill="none" stroke="#445566" stroke-width="1.5"/>
<path d="M 95 120 q 11 -19 22 0" fill="none" stroke="#445566" stroke-width="1.5"/>
<text x="106" y="132" font-size="10" text-anchor="middle" fill="#223344">Policyholder</text>
<circle cx="98.5" cy="174" r="7" fill="none" stroke="#445566" stroke-width="1.5"/>
<path d="M 87.5 196 q 11 -19 22 0" fill="none" stroke="#445566" stroke-width="1.5"/>
<text x="98.5" y="208" font-size="10" text-anchor="middle" fill="#223344">Involved third party</text>
<circle cx="98" cy="279" r="7" fill="none" stroke="#445566" stroke-width="1.5"/>
<path d="M 87 301 q 11 -19 22 0" fill="none" stroke="#445566" stroke-width="1.5"/>
<text x="98" y="313" font-size="10" text-anchor="middle" fill="#223344">Claims</text>
<text x="98" y="324" font-size="10" text-anchor="middle" fill="#223344">handler</text>
<circle cx="97.5" cy="366" r="7" fill="none" stroke="#445566" stroke-width="1.5"/>
<path d="M 86.5 388 q 11 -19 22 0" fill="none" stroke="#445566" stroke-width="1.5"/>
<text x="97.5" y="400" font-size="10" text-anchor="middle" fill="#223344">Appointed</text>
<text x="97.5" y="411" font-size="10" text-anchor="middle" fill="#223344">expert</text>
<circle cx="94.5" cy="453" r="7" fill="none" stroke="#445566" stroke-width="1.5"/>
<path d="M 83.5 475 q 11 -19 22 0" fill="none" stroke="#445566" stroke-width="1.5"/>
<text x="94.5" y="487" font-size="10" text-anchor="middle" fill="#223344">Settlement</text>
<text x="94.5" y="498" font-size="10" text-anchor="middle" fill="#223344">supervisor</text>
<rect x="347.5" y="167" width="112" height="48" rx="4" fill="#ffffff" stroke="#666677" stroke-width="1.3"/>
<text x="403.5" y="188.25" font-size="11.5" text-anchor="middle" fill="#222233">Online</text>
<text x="403.5" y="201.75" font-size="11.5" text-anchor="middle" fill="#222233">reporting</text>
<rect x="347.5" y="235" width="112" height="48" rx="4" fill="#ffffff" stroke="#666677" stroke-width="1.3"/>
<text x="403.5" y="256.25" font-size="11.5" text-anchor="middle" fill="#222233">Phone</text>
<text x="403.5" y="269.75" font-size="11.5" text-anchor="middle" fill="#222233">reporting</text>
<rect x="332" y="99" width="143" height="48" rx="4" fill="#ffffff" stroke="#666677" stroke-width="1.3"/>
<text x="403.5" y="120.25" font-size="11.5" text-anchor="middle" fill="#222233">Supporting-document</text>
<text x="403.5" y="133.75" font-size="11.5" text-anchor="middle" fill="#222233">collection</text>
<rect x="921" y="248" width="112" height="48" rx="4" fill="#ffffff" stroke="#666677" stroke-width="1.3"/>
<text x="977" y="269.25" font-size="11.5" text-anchor="middle" fill="#222233">Claim-file</text>
<text x="977" y="282.75" font-size="11.5" text-anchor="middle" fill="#222233">management</text>
<rect x="638" y="256" width="112" height="48" rx="4" fill="#ffffff" stroke="#666677" stroke-width="1.3"/>
<text x="694" y="277.25" font-size="11.5" text-anchor="middle" fill="#222233">Assessment</text>
<text x="694" y="290.75" font-size="11.5" text-anchor="middle" fill="#222233">tracking</text>
<rect x="1138" y="181.5" width="112" height="48" rx="4" fill="#ffffff" stroke="#666677" stroke-width="1.3"/>
<text x="1194" y="202.75" font-size="11.5" text-anchor="middle" fill="#222233">Fraud</text>
<text x="1194" y="216.25" font-size="11.5" text-anchor="middle" fill="#222233">detection</text>
<rect x="1409" y="256" width="112" height="48" rx="4" fill="#ffffff" stroke="#666677" stroke-width="1.3"/>
<text x="1465" y="277.25" font-size="11.5" text-anchor="middle" fill="#222233">Compensation</text>
<text x="1465" y="290.75" font-size="11.5" text-anchor="middle" fill="#222233">calculation</text>
<rect x="1645" y="248" width="112" height="48" rx="4" fill="#ffffff" stroke="#666677" stroke-width="1.3"/>
<text x="1701" y="269.25" font-size="11.5" text-anchor="middle" fill="#222233">Payment</text>
<text x="1701" y="282.75" font-size="11.5" text-anchor="middle" fill="#222233">scheduling</text>
<rect x="1927" y="235" width="112" height="48" rx="4" fill="#ffffff" stroke="#666677" stroke-width="1.3"/>
<text x="1983" y="256.25" font-size="11.5" text-anchor="middle" fill="#222233">Banking system</text>
<text x="1983" y="269.75" font-size="11.5" text-anchor="middle" fill="#222233">(transfers)</text>
<rect x="1927" y="167" width="112" height="48" rx="4" fill="#ffffff" stroke="#666677" stroke-width="1.3"/>
<text x="1983" y="188.25" font-size="11.5" text-anchor="middle" fill="#222233">Inter-insurer</text>
<text x="1983" y="201.75" font-size="11.5" text-anchor="middle" fill="#222233">files</text>
<rect x="1927" y="99" width="112" height="48" rx="4" fill="#ffffff" stroke="#666677" stroke-width="1.3"/>
<text x="1983" y="120.25" font-size="11.5" text-anchor="middle" fill="#222233">Group</text>
<text x="1983" y="133.75" font-size="11.5" text-anchor="middle" fill="#222233">ECM</text>
<path d="M 147 125.33333333333333 L 177 125 L 187 125 L 187 191 L 347.5 191" fill="none" stroke="#444444" stroke-width="1.3" marker-end="url(#arr)"/>
<text x="241.5" y="205.5" font-size="10.5" text-anchor="middle" fill="#333" font-style="italic" stroke="white" stroke-width="2.5" paint-order="stroke" stroke-linejoin="round">Report a claim</text>
<rect x="220" y="213.5" width="43" height="15" rx="7.5" fill="#fdf3d8" stroke="#c9a227" stroke-width="1"/>
<text x="241.5" y="224.5" font-size="9.5" text-anchor="middle" fill="#7a6216" font-weight="bold">Claim</text>
<path d="M 162 192 L 187 192 L 187 259 L 347.5 259" fill="none" stroke="#444444" stroke-width="1.3" marker-end="url(#arr)"/>
<text x="232.5" y="273.5" font-size="10.5" text-anchor="middle" fill="#333" font-style="italic" stroke="white" stroke-width="2.5" paint-order="stroke" stroke-linejoin="round">Report</text>
<text x="232.5" y="287" font-size="10.5" text-anchor="middle" fill="#333" font-style="italic" stroke="white" stroke-width="2.5" paint-order="stroke" stroke-linejoin="round">involvement</text>
<path d="M 147 106.66666666666666 L 177 107 L 290 107 L 290 123 L 332 123" fill="none" stroke="#444444" stroke-width="1.3" marker-end="url(#arr)"/>
<text x="238.5" y="121.5" font-size="10.5" text-anchor="middle" fill="#333" font-style="italic" stroke="white" stroke-width="2.5" paint-order="stroke" stroke-linejoin="round">Upload photos</text>
<text x="238.5" y="135" font-size="10.5" text-anchor="middle" fill="#333" font-style="italic" stroke="white" stroke-width="2.5" paint-order="stroke" stroke-linejoin="round">and documents</text>
<path d="M 475 123 L 598 123 A 5 5 0 0 1 608 123 L 1927 123" fill="none" stroke="#444444" stroke-width="1.3" marker-end="url(#arr)"/>
<text x="1832.5" y="137.5" font-size="10.5" text-anchor="middle" fill="#333" font-style="italic" stroke="white" stroke-width="2.5" paint-order="stroke" stroke-linejoin="round">Archive</text>
<text x="1832.5" y="151" font-size="10.5" text-anchor="middle" fill="#333" font-style="italic" stroke="white" stroke-width="2.5" paint-order="stroke" stroke-linejoin="round">documents</text>
<path d="M 459.5 191 L 911 191 L 911 256 L 921 256" fill="none" stroke="#444444" stroke-width="1.3" marker-end="url(#arr)"/>
<text x="551.5" y="149.5" font-size="10.5" text-anchor="middle" fill="#333" font-style="italic" stroke="white" stroke-width="2.5" paint-order="stroke" stroke-linejoin="round">Open the case</text>
<text x="551.5" y="163" font-size="10.5" text-anchor="middle" fill="#333" font-style="italic" stroke="white" stroke-width="2.5" paint-order="stroke" stroke-linejoin="round">file</text>
<rect x="519.5" y="171" width="64" height="15" rx="7.5" fill="#fdf3d8" stroke="#c9a227" stroke-width="1"/>
<text x="551.5" y="182" font-size="9.5" text-anchor="middle" fill="#7a6216" font-weight="bold">Case file</text>
<path d="M 459.5 259 L 500 259 L 500 202 L 901 202 L 901 264 L 921 264" fill="none" stroke="#444444" stroke-width="1.3" marker-end="url(#arr)"/>
<text x="551.5" y="216.5" font-size="10.5" text-anchor="middle" fill="#333" font-style="italic" stroke="white" stroke-width="2.5" paint-order="stroke" stroke-linejoin="round">Open the case</text>
<text x="551.5" y="230" font-size="10.5" text-anchor="middle" fill="#333" font-style="italic" stroke="white" stroke-width="2.5" paint-order="stroke" stroke-linejoin="round">file (phone</text>
<text x="551.5" y="243.5" font-size="10.5" text-anchor="middle" fill="#333" font-style="italic" stroke="white" stroke-width="2.5" paint-order="stroke" stroke-linejoin="round">channel)</text>
<path d="M 1033 260 L 1043 260 L 1043 213.5 L 1138 213.5" fill="none" stroke="#444444" stroke-width="1.3" marker-end="url(#arr)"/>
<text x="1085.5" y="228" font-size="10.5" text-anchor="middle" fill="#333" font-style="italic" stroke="white" stroke-width="2.5" paint-order="stroke" stroke-linejoin="round">Systematic</text>
<text x="1085.5" y="241.5" font-size="10.5" text-anchor="middle" fill="#333" font-style="italic" stroke="white" stroke-width="2.5" paint-order="stroke" stroke-linejoin="round">check at</text>
<text x="1085.5" y="255" font-size="10.5" text-anchor="middle" fill="#333" font-style="italic" stroke="white" stroke-width="2.5" paint-order="stroke" stroke-linejoin="round">opening</text>
<path d="M 1250 205.5 L 1275 205.5 L 1275 180 L 1902 180 L 1902 191 L 1927 191" fill="none" stroke="#444444" stroke-width="1.3" marker-end="url(#arr)"/>
<text x="1847.5" y="194.5" font-size="10.5" text-anchor="middle" fill="#333" font-style="italic" stroke="white" stroke-width="2.5" paint-order="stroke" stroke-linejoin="round">Query</text>
<text x="1847.5" y="208" font-size="10.5" text-anchor="middle" fill="#333" font-style="italic" stroke="white" stroke-width="2.5" paint-order="stroke" stroke-linejoin="round">claims-history</text>
<text x="1847.5" y="221.5" font-size="10.5" text-anchor="middle" fill="#333" font-style="italic" stroke="white" stroke-width="2.5" paint-order="stroke" stroke-linejoin="round">files</text>
<path d="M 2039 191 L 2064 191 L 2064 22 L 292 22 L 292 60 L 603 60 L 603 180 L 1128 180 L 1128 197.5 L 1138 197.5" fill="none" stroke="#444444" stroke-width="1.3" marker-end="url(#arr)"/>
<text x="1950.5" y="36.5" font-size="10.5" text-anchor="middle" fill="#333" font-style="italic" stroke="white" stroke-width="2.5" paint-order="stroke" stroke-linejoin="round">Policyholder</text>
<text x="1950.5" y="50" font-size="10.5" text-anchor="middle" fill="#333" font-style="italic" stroke="white" stroke-width="2.5" paint-order="stroke" stroke-linejoin="round">history</text>
<path d="M 921 288 L 750 288" fill="none" stroke="#444444" stroke-width="1.3" marker-end="url(#arr)"/>
<text x="825.5" y="302.5" font-size="10.5" text-anchor="middle" fill="#333" font-style="italic" stroke="white" stroke-width="2.5" paint-order="stroke" stroke-linejoin="round">Assessment</text>
<text x="825.5" y="316" font-size="10.5" text-anchor="middle" fill="#333" font-style="italic" stroke="white" stroke-width="2.5" paint-order="stroke" stroke-linejoin="round">mission if</text>
<text x="825.5" y="329.5" font-size="10.5" text-anchor="middle" fill="#333" font-style="italic" stroke="white" stroke-width="2.5" paint-order="stroke" stroke-linejoin="round">damage &gt;</text>
<text x="825.5" y="343" font-size="10.5" text-anchor="middle" fill="#333" font-style="italic" stroke="white" stroke-width="2.5" paint-order="stroke" stroke-linejoin="round">threshold</text>
<path d="M 130 389.5 L 145 390 L 282 390 L 282 314 L 613 314 L 613 280 L 638 280" fill="none" stroke="#444444" stroke-width="1.3" marker-end="url(#arr)"/>
<text x="216.5" y="404.5" font-size="10.5" text-anchor="middle" fill="#333" font-style="italic" stroke="white" stroke-width="2.5" paint-order="stroke" stroke-linejoin="round">Submit</text>
<text x="216.5" y="418" font-size="10.5" text-anchor="middle" fill="#333" font-style="italic" stroke="white" stroke-width="2.5" paint-order="stroke" stroke-linejoin="round">assessment</text>
<text x="216.5" y="431.5" font-size="10.5" text-anchor="middle" fill="#333" font-style="italic" stroke="white" stroke-width="2.5" paint-order="stroke" stroke-linejoin="round">report</text>
<rect x="163" y="439.5" width="107" height="15" rx="7.5" fill="#fdf3d8" stroke="#c9a227" stroke-width="1"/>
<text x="216.5" y="450.5" font-size="9.5" text-anchor="middle" fill="#7a6216" font-weight="bold">Assessment report</text>
<path d="M 750 272 L 760 272 L 760 277 L 891 277 L 891 280 L 921 280" fill="none" stroke="#444444" stroke-width="1.3" marker-end="url(#arr)"/>
<text x="825.5" y="235.5" font-size="10.5" text-anchor="middle" fill="#333" font-style="italic" stroke="white" stroke-width="2.5" paint-order="stroke" stroke-linejoin="round">Assessment</text>
<text x="825.5" y="249" font-size="10.5" text-anchor="middle" fill="#333" font-style="italic" stroke="white" stroke-width="2.5" paint-order="stroke" stroke-linejoin="round">conclusions</text>
<rect x="772" y="257" width="107" height="15" rx="7.5" fill="#fdf3d8" stroke="#c9a227" stroke-width="1"/>
<text x="825.5" y="268" font-size="9.5" text-anchor="middle" fill="#7a6216" font-weight="bold">Assessment report</text>
<path d="M 130 302.5 L 145 303 L 603 303 L 603 213 L 891 213 L 891 272 L 921 272" fill="none" stroke="#444444" stroke-width="1.3" marker-end="url(#arr)"/>
<text x="227.5" y="317.5" font-size="10.5" text-anchor="middle" fill="#333" font-style="italic" stroke="white" stroke-width="2.5" paint-order="stroke" stroke-linejoin="round">Investigation</text>
<text x="227.5" y="331" font-size="10.5" text-anchor="middle" fill="#333" font-style="italic" stroke="white" stroke-width="2.5" paint-order="stroke" stroke-linejoin="round">and management</text>
<text x="227.5" y="344.5" font-size="10.5" text-anchor="middle" fill="#333" font-style="italic" stroke="white" stroke-width="2.5" paint-order="stroke" stroke-linejoin="round">decisions</text>
<path d="M 1033 272 L 1409 272" fill="none" stroke="#444444" stroke-width="1.3" marker-end="url(#arr)"/>
<text x="1329.5" y="286.5" font-size="10.5" text-anchor="middle" fill="#333" font-style="italic" stroke="white" stroke-width="2.5" paint-order="stroke" stroke-linejoin="round">Approved items</text>
<text x="1329.5" y="300" font-size="10.5" text-anchor="middle" fill="#333" font-style="italic" stroke="white" stroke-width="2.5" paint-order="stroke" stroke-linejoin="round">for pricing</text>
<path d="M 1521 288 L 1531 288 L 1531 306 L 1807 306 L 1807 530 L 1802 530 A 5 5 0 0 0 1792 530 L 34 530 L 34 477 L 44 476.5 L 59 476.5" fill="none" stroke="#444444" stroke-width="1.3" marker-end="url(#arr)"/>
<text x="346.5" y="544.5" font-size="10.5" text-anchor="middle" fill="#333" font-style="italic" stroke="white" stroke-width="2.5" paint-order="stroke" stroke-linejoin="round">Approval</text>
<text x="346.5" y="558" font-size="10.5" text-anchor="middle" fill="#333" font-style="italic" stroke="white" stroke-width="2.5" paint-order="stroke" stroke-linejoin="round">request beyond</text>
<text x="346.5" y="571.5" font-size="10.5" text-anchor="middle" fill="#333" font-style="italic" stroke="white" stroke-width="2.5" paint-order="stroke" stroke-linejoin="round">delegation</text>
<path d="M 130 476.5 L 145 477 L 155 477 L 155 472 L 292 472 L 292 370 L 1384 370 L 1384 288 L 1409 288" fill="none" stroke="#444444" stroke-width="1.3" marker-end="url(#arr)"/>
<text x="200.5" y="486.5" font-size="10.5" text-anchor="middle" fill="#333" font-style="italic" stroke="white" stroke-width="2.5" paint-order="stroke" stroke-linejoin="round">Approval or</text>
<text x="200.5" y="500" font-size="10.5" text-anchor="middle" fill="#333" font-style="italic" stroke="white" stroke-width="2.5" paint-order="stroke" stroke-linejoin="round">reasoned</text>
<text x="200.5" y="513.5" font-size="10.5" text-anchor="middle" fill="#333" font-style="italic" stroke="white" stroke-width="2.5" paint-order="stroke" stroke-linejoin="round">refusal</text>
<path d="M 1521 272 L 1645 272" fill="none" stroke="#444444" stroke-width="1.3" marker-end="url(#arr)"/>
<text x="1583" y="230.5" font-size="10.5" text-anchor="middle" fill="#333" font-style="italic" stroke="white" stroke-width="2.5" paint-order="stroke" stroke-linejoin="round">Compensation</text>
<text x="1583" y="244" font-size="10.5" text-anchor="middle" fill="#333" font-style="italic" stroke="white" stroke-width="2.5" paint-order="stroke" stroke-linejoin="round">order</text>
<rect x="1543" y="252" width="80" height="15" rx="7.5" fill="#fdf3d8" stroke="#c9a227" stroke-width="1"/>
<text x="1583" y="263" font-size="9.5" text-anchor="middle" fill="#7a6216" font-weight="bold">Compensation</text>
<path d="M 1757 272 L 1797 272 L 1797 259 L 1927 259" fill="none" stroke="#444444" stroke-width="1.3" marker-end="url(#arr)"/>
<text x="1849" y="273.5" font-size="10.5" text-anchor="middle" fill="#333" font-style="italic" stroke="white" stroke-width="2.5" paint-order="stroke" stroke-linejoin="round">SEPA transfer</text>
<rect x="1809" y="281.5" width="80" height="15" rx="7.5" fill="#fdf3d8" stroke="#c9a227" stroke-width="1"/>
<text x="1849" y="292.5" font-size="9.5" text-anchor="middle" fill="#7a6216" font-weight="bold">Compensation</text>
<path d="M 1033 284 L 1275 284 L 1275 327 L 1379 327 A 5 5 0 0 1 1389 327 L 1797 327 L 1797 588 L 10 588 L 10 116 L 65 116" fill="none" stroke="#444444" stroke-width="1.3" marker-end="url(#arr)"/>
<text x="340.5" y="602.5" font-size="10.5" text-anchor="middle" fill="#333" font-style="italic" stroke="white" stroke-width="2.5" paint-order="stroke" stroke-linejoin="round">Notify steps</text>
<text x="340.5" y="616" font-size="10.5" text-anchor="middle" fill="#333" font-style="italic" stroke="white" stroke-width="2.5" paint-order="stroke" stroke-linejoin="round">and decision</text>
<line x1="20" y1="643" x2="2054" y2="643" stroke="#ddd" stroke-width="1"/>
<text x="20" y="665" font-size="11" font-weight="bold" fill="#555">BUSINESS OBJECTS</text>
<rect x="150" y="655" width="43" height="15" rx="7.5" fill="#fdf3d8" stroke="#c9a227"/>
<text x="171.5" y="666" font-size="9.5" text-anchor="middle" fill="#7a6216" font-weight="bold">Claim</text>
<text x="203" y="666" font-size="10" fill="#666">— damaging event reported by a policyholder</text>
<rect x="150" y="679" width="64" height="15" rx="7.5" fill="#fdf3d8" stroke="#c9a227"/>
<text x="182" y="690" font-size="9.5" text-anchor="middle" fill="#7a6216" font-weight="bold">Case file</text>
<text x="224" y="690" font-size="10" fill="#666">— file opened to investigate a claim</text>
<rect x="150" y="703" width="107" height="15" rx="7.5" fill="#fdf3d8" stroke="#c9a227"/>
<text x="203.5" y="714" font-size="9.5" text-anchor="middle" fill="#7a6216" font-weight="bold">Assessment report</text>
<text x="267" y="714" font-size="10" fill="#666">— quantified conclusions of the appointed expert</text>
<rect x="150" y="727" width="80" height="15" rx="7.5" fill="#fdf3d8" stroke="#c9a227"/>
<text x="190" y="738" font-size="9.5" text-anchor="middle" fill="#7a6216" font-weight="bold">Compensation</text>
<text x="240" y="738" font-size="10" fill="#666">— amount approved and paid to the policyholder</text>
<line x1="20" y1="765" x2="2054" y2="765" stroke="#ddd" stroke-width="1"/>
<text x="20" y="787" font-size="11" font-weight="bold" fill="#555">LEGEND</text>
<rect x="150" y="777" width="26" height="14" rx="3" fill="#eef4fb" stroke="#7a9cc4" stroke-dasharray="5 3"/>
<text x="182" y="788" font-size="10" fill="#444">Actor group</text>
<rect x="272" y="777" width="26" height="14" rx="3" fill="#f6f2ea" stroke="#b09a6d"/>
<text x="304" y="788" font-size="10" fill="#444">System</text>
<rect x="368" y="777" width="26" height="14" rx="3" fill="#fdfbf6" stroke="#c4b258"/>
<text x="400" y="788" font-size="10" fill="#444">Layer</text>
<rect x="458" y="777" width="26" height="14" rx="3" fill="#ffffff" stroke="#666677"/>
<text x="490" y="788" font-size="10" fill="#444">Functional block</text>
<rect x="606" y="777" width="26" height="14" rx="3" fill="#f0eef5" stroke="#9187b3" stroke-dasharray="5 3"/>
<text x="638" y="788" font-size="10" fill="#444">External system</text>
<line x1="150" y1="807" x2="176" y2="807" stroke="#444444" stroke-width="1.3" marker-end="url(#arr)"/>
<text x="182" y="811" font-size="10" fill="#444">Functional flow (label = exchanged data)</text>
<rect x="480" y="800" width="96" height="15" rx="7.5" fill="#fdf3d8" stroke="#c9a227"/>
<text x="528" y="811" font-size="9.5" text-anchor="middle" fill="#7a6216" font-weight="bold">Business object</text>
<text x="584" y="811" font-size="10" fill="#444">carried by the flow</text>
<text x="150" y="835" font-size="10" fill="#444" font-style="italic">Claim files are retained for 10 years (legal obligation)</text>
</svg>
