<svg xmlns="http://www.w3.org/2000/svg" viewBox="0 0 1059 1554" font-family="Helvetica,Arial,sans-serif">
<defs><marker id="arr" viewBox="0 0 10 10" refX="9" refY="5" markerWidth="7" markerHeight="7" orient="auto-start-reverse">
<path d="M0,0 L10,5 L0,10 z" fill="#5a6675"/></marker></defs>
<rect width="1059" height="1554" fill="#ffffff"/>
<rect x="225" y="82" width="264" height="90" rx="6" fill="#e9f2fb" stroke="#1f77b4" stroke-width="1.2" stroke-dasharray="5 3"/>
<text x="235" y="100" font-size="13" font-weight="bold" fill="#17202c">Policyholders</text>
<rect x="574" y="47" width="268" height="101" rx="6" fill="#e9f2fb" stroke="#1f77b4" stroke-width="1.2" stroke-dasharray="5 3"/>
<text x="584" y="65" font-size="13" font-weight="bold" fill="#17202c">Case handlers</text>
<rect x="119" y="260" width="592" height="879" rx="6" fill="#fbf4e9" stroke="#c17d1c" stroke-width="1.2"/>
<text x="129" y="278" font-size="13" font-weight="bold" fill="#17202c">Claims information system</text>
<rect x="139" y="292" width="425" height="83" rx="6" fill="#fdfaf0" stroke="#cf9f2f" stroke-width="1"/>
<text x="149" y="310" font-size="13" font-weight="bold" fill="#17202c">Reporting layer</text>
<rect x="323" y="472.5" width="368" height="362" rx="6" fill="#fdfaf0" stroke="#cf9f2f" stroke-width="1"/>
<text x="333" y="490.5" font-size="13" font-weight="bold" fill="#17202c">Investigation layer</text>
<rect x="368" y="917.5" width="214" height="207.5" rx="6" fill="#fdfaf0" stroke="#cf9f2f" stroke-width="1"/>
<text x="378" y="935.5" font-size="13" font-weight="bold" fill="#17202c">Settlement layer</text>
<rect x="175" y="1222" width="393" height="83" rx="6" fill="#f4eff8" stroke="#8659a6" stroke-width="1.2" stroke-dasharray="5 3"/>
<text x="185" y="1240" font-size="13" font-weight="bold" fill="#17202c">External systems</text>
<circle cx="278" cy="119" r="7" fill="none" stroke="#1f5e91" stroke-width="1.5"/>
<path d="M 267 141 q 11 -19 22 0" fill="none" stroke="#1f5e91" stroke-width="1.5"/>
<text x="278" y="153" font-size="11" text-anchor="middle" fill="#20364c">Policyholder</text>
<circle cx="411" cy="119" r="7" fill="none" stroke="#1f5e91" stroke-width="1.5"/>
<path d="M 400 141 q 11 -19 22 0" fill="none" stroke="#1f5e91" stroke-width="1.5"/>
<text x="411" y="153" font-size="11" text-anchor="middle" fill="#20364c">Involved third party</text>
<circle cx="615" cy="84" r="7" fill="none" stroke="#1f5e91" stroke-width="1.5"/>
<path d="M 604 106 q 11 -19 22 0" fill="none" stroke="#1f5e91" stroke-width="1.5"/>
<text x="615" y="118" font-size="11" text-anchor="middle" fill="#20364c">Claims</text>
<text x="615" y="129" font-size="11" text-anchor="middle" fill="#20364c">handler</text>
<circle cx="702" cy="84" r="7" fill="none" stroke="#1f5e91" stroke-width="1.5"/>
<path d="M 691 106 q 11 -19 22 0" fill="none" stroke="#1f5e91" stroke-width="1.5"/>
<text x="702" y="118" font-size="11" text-anchor="middle" fill="#20364c">Appointed</text>
<text x="702" y="129" font-size="11" text-anchor="middle" fill="#20364c">expert</text>
<circle cx="795" cy="84" r="7" fill="none" stroke="#1f5e91" stroke-width="1.5"/>
<path d="M 784 106 q 11 -19 22 0" fill="none" stroke="#1f5e91" stroke-width="1.5"/>
<text x="795" y="118" font-size="11" text-anchor="middle" fill="#20364c">Settlement</text>
<text x="795" y="129" font-size="11" text-anchor="middle" fill="#20364c">supervisor</text>
<rect x="319" y="319" width="108" height="47" rx="4" fill="#ffffff" stroke="#48546a" stroke-width="1.3"/>
<text x="373" y="339.25" font-size="12.5" text-anchor="middle" fill="#17202c">Online</text>
<text x="373" y="353.75" font-size="12.5" text-anchor="middle" fill="#17202c">reporting</text>
<rect x="447" y="319" width="108" height="47" rx="4" fill="#ffffff" stroke="#48546a" stroke-width="1.3"/>
<text x="501" y="339.25" font-size="12.5" text-anchor="middle" fill="#17202c">Phone</text>
<text x="501" y="353.75" font-size="12.5" text-anchor="middle" fill="#17202c">reporting</text>
<rect x="148" y="319" width="151" height="47" rx="4" fill="#ffffff" stroke="#48546a" stroke-width="1.3"/>
<text x="223.5" y="339.25" font-size="12.5" text-anchor="middle" fill="#17202c">Supporting-document</text>
<text x="223.5" y="353.75" font-size="12.5" text-anchor="middle" fill="#17202c">collection</text>
<rect x="447" y="658.5" width="108" height="47" rx="4" fill="#ffffff" stroke="#48546a" stroke-width="1.3"/>
<text x="501" y="678.75" font-size="12.5" text-anchor="middle" fill="#17202c">Claim-file</text>
<text x="501" y="693.25" font-size="12.5" text-anchor="middle" fill="#17202c">management</text>
<rect x="465" y="499.5" width="108" height="47" rx="4" fill="#ffffff" stroke="#48546a" stroke-width="1.3"/>
<text x="519" y="519.75" font-size="12.5" text-anchor="middle" fill="#17202c">Assessment</text>
<text x="519" y="534.25" font-size="12.5" text-anchor="middle" fill="#17202c">tracking</text>
<rect x="383" y="778.5" width="108" height="47" rx="4" fill="#ffffff" stroke="#48546a" stroke-width="1.3"/>
<text x="437" y="798.75" font-size="12.5" text-anchor="middle" fill="#17202c">Fraud</text>
<text x="437" y="813.25" font-size="12.5" text-anchor="middle" fill="#17202c">detection</text>
<rect x="465" y="944.5" width="108" height="47" rx="4" fill="#ffffff" stroke="#48546a" stroke-width="1.3"/>
<text x="519" y="964.75" font-size="12.5" text-anchor="middle" fill="#17202c">Compensation</text>
<text x="519" y="979.25" font-size="12.5" text-anchor="middle" fill="#17202c">calculation</text>
<rect x="447" y="1069" width="108" height="47" rx="4" fill="#ffffff" stroke="#48546a" stroke-width="1.3"/>
<text x="501" y="1089.25" font-size="12.5" text-anchor="middle" fill="#17202c">Payment</text>
<text x="501" y="1103.75" font-size="12.5" text-anchor="middle" fill="#17202c">scheduling</text>
<rect x="442" y="1249" width="117" height="47" rx="4" fill="#ffffff" stroke="#48546a" stroke-width="1.3"/>
<text x="500.5" y="1269.25" font-size="12.5" text-anchor="middle" fill="#17202c">Banking system</text>
<text x="500.5" y="1283.75" font-size="12.5" text-anchor="middle" fill="#17202c">(transfers)</text>
<rect x="312" y="1249" width="110" height="47" rx="4" fill="#ffffff" stroke="#48546a" stroke-width="1.3"/>
<text x="367" y="1269.25" font-size="12.5" text-anchor="middle" fill="#17202c">Inter-insurer</text>
<text x="367" y="1283.75" font-size="12.5" text-anchor="middle" fill="#17202c">files</text>
<rect x="184" y="1249" width="108" height="47" rx="4" fill="#ffffff" stroke="#48546a" stroke-width="1.3"/>
<text x="238" y="1269.25" font-size="12.5" text-anchor="middle" fill="#17202c">Group</text>
<text x="238" y="1283.75" font-size="12.5" text-anchor="middle" fill="#17202c">ECM</text>
<path d="M 292.6666666666667 163 L 293 177 L 293 245 L 373 245 L 373 319" fill="none" stroke="#5a6675" stroke-width="1.3" marker-end="url(#arr)"/>
<text x="242.5" y="209.5" font-size="11.5" text-anchor="middle" fill="#3a4553" font-style="italic" stroke="#ffffff" stroke-width="2.5" paint-order="stroke" stroke-linejoin="round">Report a claim</text>
<rect x="221" y="217.5" width="43" height="15" rx="7.5" fill="#fff2d4" stroke="#d3a01f" stroke-width="1"/>
<text x="242.5" y="228.5" font-size="9.5" text-anchor="middle" fill="#6a5111" font-weight="bold">Claim</text>
<path d="M 411 163 L 411 187 L 427 187 L 427 236 L 501 236 L 501 319" fill="none" stroke="#5a6675" stroke-width="1.3" marker-end="url(#arr)"/>
<text x="364" y="219.5" font-size="11.5" text-anchor="middle" fill="#3a4553" font-style="italic" stroke="#ffffff" stroke-width="2.5" paint-order="stroke" stroke-linejoin="round">Report involvement</text>
<path d="M 263.3333333333333 163 L 263 177 L 263 187 L 184 187 L 184 245 L 224 245 L 223.5 255 L 223.5 319" fill="none" stroke="#5a6675" stroke-width="1.3" marker-end="url(#arr)"/>
<text x="137" y="214.5" font-size="11.5" text-anchor="middle" fill="#3a4553" font-style="italic" stroke="#ffffff" stroke-width="2.5" paint-order="stroke" stroke-linejoin="round">Upload photos</text>
<text x="137" y="229" font-size="11.5" text-anchor="middle" fill="#3a4553" font-style="italic" stroke="#ffffff" stroke-width="2.5" paint-order="stroke" stroke-linejoin="round">and documents</text>
<path d="M 223.5 366 L 224 1144 L 224 1207 L 238 1207 L 238 1249" fill="none" stroke="#5a6675" stroke-width="1.3" marker-end="url(#arr)"/>
<text x="164" y="1190.5" font-size="11.5" text-anchor="middle" fill="#3a4553" font-style="italic" stroke="#ffffff" stroke-width="2.5" paint-order="stroke" stroke-linejoin="round">Archive documents</text>
<path d="M 373 366 L 373 648.5 L 465 648.5 L 465 658.5" fill="none" stroke="#5a6675" stroke-width="1.3" marker-end="url(#arr)"/>
<text x="310" y="412.5" font-size="11.5" text-anchor="middle" fill="#3a4553" font-style="italic" stroke="#ffffff" stroke-width="2.5" paint-order="stroke" stroke-linejoin="round">Open the case file</text>
<rect x="278" y="420.5" width="64" height="15" rx="7.5" fill="#fff2d4" stroke="#d3a01f" stroke-width="1"/>
<text x="310" y="431.5" font-size="9.5" text-anchor="middle" fill="#6a5111" font-weight="bold">Case file</text>
<path d="M 501 366 L 501 390 L 384 390 L 384 638.5 L 483 638.5 L 483 658.5" fill="none" stroke="#5a6675" stroke-width="1.3" marker-end="url(#arr)"/>
<text x="448" y="414.75" font-size="11.5" text-anchor="middle" fill="#3a4553" font-style="italic" stroke="#ffffff" stroke-width="2.5" paint-order="stroke" stroke-linejoin="round">Open the case file</text>
<text x="448" y="429.25" font-size="11.5" text-anchor="middle" fill="#3a4553" font-style="italic" stroke="#ffffff" stroke-width="2.5" paint-order="stroke" stroke-linejoin="round">(phone channel)</text>
<path d="M 474 705.5 L 474 715.5 L 455 715.5 L 455 778.5" fill="none" stroke="#5a6675" stroke-width="1.3" marker-end="url(#arr)"/>
<text x="398" y="738" font-size="11.5" text-anchor="middle" fill="#3a4553" font-style="italic" stroke="#ffffff" stroke-width="2.5" paint-order="stroke" stroke-linejoin="round">Systematic check</text>
<text x="398" y="752.5" font-size="11.5" text-anchor="middle" fill="#3a4553" font-style="italic" stroke="#ffffff" stroke-width="2.5" paint-order="stroke" stroke-linejoin="round">at opening</text>
<path d="M 437 825.5 L 437 849.5 L 357 849.5 L 357 1154 L 371 1154 L 371 1207 L 367 1207 L 367 1249" fill="none" stroke="#5a6675" stroke-width="1.3" marker-end="url(#arr)"/>
<text x="301.5" y="1176.5" font-size="11.5" text-anchor="middle" fill="#3a4553" font-style="italic" stroke="#ffffff" stroke-width="2.5" paint-order="stroke" stroke-linejoin="round">Query claims-history</text>
<text x="301.5" y="1191" font-size="11.5" text-anchor="middle" fill="#3a4553" font-style="italic" stroke="#ffffff" stroke-width="2.5" paint-order="stroke" stroke-linejoin="round">files</text>
<path d="M 367 1296 L 367 1320 L 96 1320 L 96 245 L 128 245 L 128 447.5 L 332 447.5 L 332 768.5 L 419 768.5 L 419 778.5" fill="none" stroke="#5a6675" stroke-width="1.3" marker-end="url(#arr)"/>
<text x="52" y="1229.5" font-size="11.5" text-anchor="middle" fill="#3a4553" font-style="italic" stroke="#ffffff" stroke-width="2.5" paint-order="stroke" stroke-linejoin="round">Policyholder</text>
<text x="52" y="1244" font-size="11.5" text-anchor="middle" fill="#3a4553" font-style="italic" stroke="#ffffff" stroke-width="2.5" paint-order="stroke" stroke-linejoin="round">history</text>
<path d="M 537 658.5 L 537 546.5" fill="none" stroke="#5a6675" stroke-width="1.3" marker-end="url(#arr)"/>
<text x="611" y="588.5" font-size="11.5" text-anchor="middle" fill="#3a4553" font-style="italic" stroke="#ffffff" stroke-width="2.5" paint-order="stroke" stroke-linejoin="round">Assessment mission</text>
<text x="611" y="603" font-size="11.5" text-anchor="middle" fill="#3a4553" font-style="italic" stroke="#ffffff" stroke-width="2.5" paint-order="stroke" stroke-linejoin="round">if damage &gt; threshold</text>
<path d="M 702 139 L 702 235 L 585 235 L 585 457.5 L 519 457.5 L 519 499.5" fill="none" stroke="#5a6675" stroke-width="1.3" marker-end="url(#arr)"/>
<text x="642" y="185.5" font-size="11.5" text-anchor="middle" fill="#3a4553" font-style="italic" stroke="#ffffff" stroke-width="2.5" paint-order="stroke" stroke-linejoin="round">Submit assessment</text>
<text x="642" y="200" font-size="11.5" text-anchor="middle" fill="#3a4553" font-style="italic" stroke="#ffffff" stroke-width="2.5" paint-order="stroke" stroke-linejoin="round">report</text>
<rect x="588.5" y="208" width="107" height="15" rx="7.5" fill="#fff2d4" stroke="#d3a01f" stroke-width="1"/>
<text x="642" y="219" font-size="9.5" text-anchor="middle" fill="#6a5111" font-weight="bold">Assessment report</text>
<path d="M 501 546.5 L 501 556.5 L 519 556.5 L 519 658.5" fill="none" stroke="#5a6675" stroke-width="1.3" marker-end="url(#arr)"/>
<text x="461.5" y="579" font-size="11.5" text-anchor="middle" fill="#3a4553" font-style="italic" stroke="#ffffff" stroke-width="2.5" paint-order="stroke" stroke-linejoin="round">Assessment</text>
<text x="461.5" y="593.5" font-size="11.5" text-anchor="middle" fill="#3a4553" font-style="italic" stroke="#ffffff" stroke-width="2.5" paint-order="stroke" stroke-linejoin="round">conclusions</text>
<rect x="408" y="601.5" width="107" height="15" rx="7.5" fill="#fff2d4" stroke="#d3a01f" stroke-width="1"/>
<text x="461.5" y="612.5" font-size="9.5" text-anchor="middle" fill="#6a5111" font-weight="bold">Assessment report</text>
<path d="M 615 139 L 615 163 L 574 163 L 574 447.5 L 395 447.5 L 395 628.5 L 501 628.5 L 501 658.5" fill="none" stroke="#5a6675" stroke-width="1.3" marker-end="url(#arr)"/>
<text x="504.5" y="205.5" font-size="11.5" text-anchor="middle" fill="#3a4553" font-style="italic" stroke="#ffffff" stroke-width="2.5" paint-order="stroke" stroke-linejoin="round">Investigation and</text>
<text x="504.5" y="220" font-size="11.5" text-anchor="middle" fill="#3a4553" font-style="italic" stroke="#ffffff" stroke-width="2.5" paint-order="stroke" stroke-linejoin="round">management decisions</text>
<path d="M 501 705.5 L 501 944.5" fill="none" stroke="#5a6675" stroke-width="1.3" marker-end="url(#arr)"/>
<text x="450.5" y="872" font-size="11.5" text-anchor="middle" fill="#3a4553" font-style="italic" stroke="#ffffff" stroke-width="2.5" paint-order="stroke" stroke-linejoin="round">Approved items</text>
<text x="450.5" y="886.5" font-size="11.5" text-anchor="middle" fill="#3a4553" font-style="italic" stroke="#ffffff" stroke-width="2.5" paint-order="stroke" stroke-linejoin="round">for pricing</text>
<path d="M 537 991.5 L 537 1001.5 L 565 1001.5 L 565 1164 L 952 1164 L 952 32 L 795 32 L 795 74" fill="none" stroke="#5a6675" stroke-width="1.3" marker-end="url(#arr)"/>
<text x="892" y="267.5" font-size="11.5" text-anchor="middle" fill="#3a4553" font-style="italic" stroke="#ffffff" stroke-width="2.5" paint-order="stroke" stroke-linejoin="round">Approval request</text>
<text x="892" y="282" font-size="11.5" text-anchor="middle" fill="#3a4553" font-style="italic" stroke="#ffffff" stroke-width="2.5" paint-order="stroke" stroke-linejoin="round">beyond delegation</text>
<path d="M 795 139 L 795 163 L 824 163 L 824 245 L 701 245 L 701 902.5 L 597 902.5 A 5 5 0 0 0 587 902.5 L 537 902.5 L 537 944.5" fill="none" stroke="#5a6675" stroke-width="1.3" marker-end="url(#arr)"/>
<text x="767" y="185.5" font-size="11.5" text-anchor="middle" fill="#3a4553" font-style="italic" stroke="#ffffff" stroke-width="2.5" paint-order="stroke" stroke-linejoin="round">Approval or</text>
<text x="767" y="200" font-size="11.5" text-anchor="middle" fill="#3a4553" font-style="italic" stroke="#ffffff" stroke-width="2.5" paint-order="stroke" stroke-linejoin="round">reasoned refusal</text>
<path d="M 501 991.5 L 501 1069" fill="none" stroke="#5a6675" stroke-width="1.3" marker-end="url(#arr)"/>
<text x="438" y="1024" font-size="11.5" text-anchor="middle" fill="#3a4553" font-style="italic" stroke="#ffffff" stroke-width="2.5" paint-order="stroke" stroke-linejoin="round">Compensation order</text>
<rect x="398" y="1032" width="80" height="15" rx="7.5" fill="#fff2d4" stroke="#d3a01f" stroke-width="1"/>
<text x="438" y="1043" font-size="9.5" text-anchor="middle" fill="#6a5111" font-weight="bold">Compensation</text>
<path d="M 501 1116 L 500.5 1217 L 500.5 1249" fill="none" stroke="#5a6675" stroke-width="1.3" marker-end="url(#arr)"/>
<text x="454" y="1172.5" font-size="11.5" text-anchor="middle" fill="#3a4553" font-style="italic" stroke="#ffffff" stroke-width="2.5" paint-order="stroke" stroke-linejoin="round">SEPA transfer</text>
<rect x="414" y="1180.5" width="80" height="15" rx="7.5" fill="#fff2d4" stroke="#d3a01f" stroke-width="1"/>
<text x="454" y="1191.5" font-size="9.5" text-anchor="middle" fill="#6a5111" font-weight="bold">Compensation</text>
<path d="M 528 705.5 L 528 849.5 L 592 849.5 L 592 1154 L 947 1154 A 5 5 0 0 1 957 1154 L 1048 1154 L 1048 22 L 278 22 L 278 109" fill="none" stroke="#5a6675" stroke-width="1.3" marker-end="url(#arr)"/>
<text x="1004" y="267.5" font-size="11.5" text-anchor="middle" fill="#3a4553" font-style="italic" stroke="#ffffff" stroke-width="2.5" paint-order="stroke" stroke-linejoin="round">Notify steps</text>
<text x="1004" y="282" font-size="11.5" text-anchor="middle" fill="#3a4553" font-style="italic" stroke="#ffffff" stroke-width="2.5" paint-order="stroke" stroke-linejoin="round">and decision</text>
<line x1="20" y1="1340" x2="1039" y2="1340" stroke="#e6e9ee" stroke-width="1"/>
<text x="20" y="1362" font-size="11" font-weight="bold" fill="#3a4553">BUSINESS OBJECTS</text>
<rect x="150" y="1352" width="43" height="15" rx="7.5" fill="#fff2d4" stroke="#d3a01f"/>
<text x="171.5" y="1363" font-size="9.5" text-anchor="middle" fill="#6a5111" font-weight="bold">Claim</text>
<text x="203" y="1363" font-size="10" fill="#79828f">— damaging event reported by a policyholder</text>
<rect x="150" y="1376" width="64" height="15" rx="7.5" fill="#fff2d4" stroke="#d3a01f"/>
<text x="182" y="1387" font-size="9.5" text-anchor="middle" fill="#6a5111" font-weight="bold">Case file</text>
<text x="224" y="1387" font-size="10" fill="#79828f">— file opened to investigate a claim</text>
<rect x="150" y="1400" width="107" height="15" rx="7.5" fill="#fff2d4" stroke="#d3a01f"/>
<text x="203.5" y="1411" font-size="9.5" text-anchor="middle" fill="#6a5111" font-weight="bold">Assessment report</text>
<text x="267" y="1411" font-size="10" fill="#79828f">— quantified conclusions of the appointed expert</text>
<rect x="150" y="1424" width="80" height="15" rx="7.5" fill="#fff2d4" stroke="#d3a01f"/>
<text x="190" y="1435" font-size="9.5" text-anchor="middle" fill="#6a5111" font-weight="bold">Compensation</text>
<text x="240" y="1435" font-size="10" fill="#79828f">— amount approved and paid to the policyholder</text>
<line x1="20" y1="1462" x2="1039" y2="1462" stroke="#e6e9ee" stroke-width="1"/>
<text x="20" y="1484" font-size="11" font-weight="bold" fill="#3a4553">LEGEND</text>
<rect x="150" y="1474" width="26" height="14" rx="3" fill="#e9f2fb" stroke="#1f77b4" stroke-dasharray="5 3"/>
<text x="182" y="1485" font-size="10" fill="#17202c">Actor group</text>
<rect x="272" y="1474" width="26" height="14" rx="3" fill="#fbf4e9" stroke="#c17d1c"/>
<text x="304" y="1485" font-size="10" fill="#17202c">System</text>
<rect x="368" y="1474" width="26" height="14" rx="3" fill="#fdfaf0" stroke="#cf9f2f"/>
<text x="400" y="1485" font-size="10" fill="#17202c">Layer</text>
<rect x="458" y="1474" width="26" height="14" rx="3" fill="#ffffff" stroke="#48546a"/>
<text x="490" y="1485" font-size="10" fill="#17202c">Functional block</text>
<rect x="606" y="1474" width="26" height="14" rx="3" fill="#f4eff8" stroke="#8659a6" stroke-dasharray="5 3"/>
<text x="638" y="1485" font-size="10" fill="#17202c">External system</text>
<line x1="150" y1="1504" x2="176" y2="1504" stroke="#5a6675" stroke-width="1.3" marker-end="url(#arr)"/>
<text x="182" y="1508" font-size="10" fill="#17202c">Functional flow (label = exchanged data)</text>
<rect x="480" y="1497" width="96" height="15" rx="7.5" fill="#fff2d4" stroke="#d3a01f"/>
<text x="528" y="1508" font-size="9.5" text-anchor="middle" fill="#6a5111" font-weight="bold">Business object</text>
<text x="584" y="1508" font-size="10" fill="#17202c">carried by the flow</text>
<text x="150" y="1532" font-size="10" fill="#17202c" font-style="italic">Claim files are retained for 10 years (legal obligation)</text>
</svg>
