<svg xmlns="http://www.w3.org/2000/svg" viewBox="0 0 2376 892" font-family="Helvetica,Arial,sans-serif">
<defs><marker id="arr" viewBox="0 0 10 10" refX="9" refY="5" markerWidth="7" markerHeight="7" orient="auto-start-reverse">
<path d="M0,0 L10,5 L0,10 z" fill="#444444"/></marker></defs>
<rect width="2376" height="892" fill="white"/>
<rect x="27" y="74" width="151" height="174" rx="6" fill="#eef4fb" stroke="#7a9cc4" stroke-width="1.2" stroke-dasharray="5 3"/>
<text x="37" y="92" font-size="12" font-weight="bold" fill="#333">Policyholders</text>
<rect x="75" y="264" width="95" height="283" rx="6" fill="#eef4fb" stroke="#7a9cc4" stroke-width="1.2" stroke-dasharray="5 3"/>
<text x="85" y="282" font-size="12" font-weight="bold" fill="#333">Case handlers</text>
<rect x="365" y="42" width="1633" height="361.5" rx="6" fill="#f6f2ea" stroke="#b09a6d" stroke-width="1.2"/>
<text x="375" y="60" font-size="12" font-weight="bold" fill="#333">Claims information system</text>
<rect x="382" y="83" width="169" height="235" rx="6" fill="#fdfbf6" stroke="#c4b258" stroke-width="1"/>
<text x="392" y="101" font-size="12" font-weight="bold" fill="#333">Reporting layer</text>
<rect x="694" y="167" width="720" height="213.5" rx="6" fill="#fdfbf6" stroke="#c4b258" stroke-width="1"/>
<text x="704" y="185" font-size="12" font-weight="bold" fill="#333">Investigation layer</text>
<rect x="1553" y="206.5" width="428" height="131.5" rx="6" fill="#fdfbf6" stroke="#c4b258" stroke-width="1"/>
<text x="1563" y="224.5" font-size="12" font-weight="bold" fill="#333">Settlement layer</text>
<rect x="2185" y="83" width="164" height="235" rx="6" fill="#f0eef5" stroke="#9187b3" stroke-width="1.2" stroke-dasharray="5 3"/>
<text x="2195" y="101" font-size="12" font-weight="bold" fill="#333">External systems</text>
<circle cx="110" cy="114" r="7" fill="none" stroke="#445566" stroke-width="1.5"/>
<path d="M 99 136 q 11 -19 22 0" fill="none" stroke="#445566" stroke-width="1.5"/>
<text x="110" y="148" font-size="10" text-anchor="middle" fill="#223344">Policyholder</text>
<circle cx="102.5" cy="190" r="7" fill="none" stroke="#445566" stroke-width="1.5"/>
<path d="M 91.5 212 q 11 -19 22 0" fill="none" stroke="#445566" stroke-width="1.5"/>
<text x="102.5" y="224" font-size="10" text-anchor="middle" fill="#223344">Involved third party</text>
<circle cx="126" cy="304" r="7" fill="none" stroke="#445566" stroke-width="1.5"/>
<path d="M 115 326 q 11 -19 22 0" fill="none" stroke="#445566" stroke-width="1.5"/>
<text x="126" y="338" font-size="10" text-anchor="middle" fill="#223344">Claims</text>
<text x="126" y="349" font-size="10" text-anchor="middle" fill="#223344">handler</text>
<circle cx="125.5" cy="391" r="7" fill="none" stroke="#445566" stroke-width="1.5"/>
<path d="M 114.5 413 q 11 -19 22 0" fill="none" stroke="#445566" stroke-width="1.5"/>
<text x="125.5" y="425" font-size="10" text-anchor="middle" fill="#223344">Appointed</text>
<text x="125.5" y="436" font-size="10" text-anchor="middle" fill="#223344">expert</text>
<circle cx="122.5" cy="478" r="7" fill="none" stroke="#445566" stroke-width="1.5"/>
<path d="M 111.5 500 q 11 -19 22 0" fill="none" stroke="#445566" stroke-width="1.5"/>
<text x="122.5" y="512" font-size="10" text-anchor="middle" fill="#223344">Settlement</text>
<text x="122.5" y="523" font-size="10" text-anchor="middle" fill="#223344">supervisor</text>
<rect x="396.5" y="184" width="140" height="51" rx="4" fill="#ffffff" stroke="#666677" stroke-width="1.3"/>
<text x="466.5" y="206.75" font-size="11.5" text-anchor="middle" fill="#222233">Online</text>
<text x="466.5" y="220.25" font-size="11.5" text-anchor="middle" fill="#222233">reporting</text>
<rect x="396.5" y="255" width="140" height="51" rx="4" fill="#ffffff" stroke="#666677" stroke-width="1.3"/>
<text x="466.5" y="277.75" font-size="11.5" text-anchor="middle" fill="#222233">Phone</text>
<text x="466.5" y="291.25" font-size="11.5" text-anchor="middle" fill="#222233">reporting</text>
<rect x="394" y="113" width="145" height="51" rx="4" fill="#ffffff" stroke="#666677" stroke-width="1.3"/>
<text x="466.5" y="135.75" font-size="11.5" text-anchor="middle" fill="#222233">Supporting-document</text>
<text x="466.5" y="149.25" font-size="11.5" text-anchor="middle" fill="#222233">collection</text>
<rect x="1017" y="264" width="140" height="51" rx="4" fill="#ffffff" stroke="#666677" stroke-width="1.3"/>
<text x="1087" y="286.75" font-size="11.5" text-anchor="middle" fill="#222233">Claim-file</text>
<text x="1087" y="300.25" font-size="11.5" text-anchor="middle" fill="#222233">management</text>
<rect x="706" y="272.5" width="140" height="51" rx="4" fill="#ffffff" stroke="#666677" stroke-width="1.3"/>
<text x="776" y="295.25" font-size="11.5" text-anchor="middle" fill="#222233">Assessment</text>
<text x="776" y="308.75" font-size="11.5" text-anchor="middle" fill="#222233">tracking</text>
<rect x="1262" y="197" width="140" height="51" rx="4" fill="#ffffff" stroke="#666677" stroke-width="1.3"/>
<text x="1332" y="219.75" font-size="11.5" text-anchor="middle" fill="#222233">Fraud</text>
<text x="1332" y="233.25" font-size="11.5" text-anchor="middle" fill="#222233">detection</text>
<rect x="1565" y="272.5" width="140" height="51" rx="4" fill="#ffffff" stroke="#666677" stroke-width="1.3"/>
<text x="1635" y="295.25" font-size="11.5" text-anchor="middle" fill="#222233">Compensation</text>
<text x="1635" y="308.75" font-size="11.5" text-anchor="middle" fill="#222233">calculation</text>
<rect x="1829" y="264" width="140" height="51" rx="4" fill="#ffffff" stroke="#666677" stroke-width="1.3"/>
<text x="1899" y="286.75" font-size="11.5" text-anchor="middle" fill="#222233">Payment</text>
<text x="1899" y="300.25" font-size="11.5" text-anchor="middle" fill="#222233">scheduling</text>
<rect x="2197" y="255" width="140" height="51" rx="4" fill="#ffffff" stroke="#666677" stroke-width="1.3"/>
<text x="2267" y="277.75" font-size="11.5" text-anchor="middle" fill="#222233">Banking system</text>
<text x="2267" y="291.25" font-size="11.5" text-anchor="middle" fill="#222233">(transfers)</text>
<rect x="2197" y="184" width="140" height="51" rx="4" fill="#ffffff" stroke="#666677" stroke-width="1.3"/>
<text x="2267" y="206.75" font-size="11.5" text-anchor="middle" fill="#222233">Inter-insurer</text>
<text x="2267" y="220.25" font-size="11.5" text-anchor="middle" fill="#222233">files</text>
<rect x="2197" y="113" width="140" height="51" rx="4" fill="#ffffff" stroke="#666677" stroke-width="1.3"/>
<text x="2267" y="135.75" font-size="11.5" text-anchor="middle" fill="#222233">Group</text>
<text x="2267" y="149.25" font-size="11.5" text-anchor="middle" fill="#222233">ECM</text>
<path d="M 151 141.33333333333331 L 183 141 L 217 141 L 217 210 L 360 209.5 L 396.5 209.5" fill="none" stroke="#444444" stroke-width="1.3" marker-end="url(#arr)"/>
<text x="271.5" y="225.5" font-size="10.5" text-anchor="middle" fill="#333" font-style="italic" stroke="white" stroke-width="2.5" paint-order="stroke" stroke-linejoin="round">Report a claim</text>
<rect x="250" y="233.5" width="43" height="15" rx="7.5" fill="#fdf3d8" stroke="#c9a227" stroke-width="1"/>
<text x="271.5" y="244.5" font-size="9.5" text-anchor="middle" fill="#7a6216" font-weight="bold">Claim</text>
<path d="M 166 208 L 193 208 L 193 281 L 360 280.5 L 396.5 280.5" fill="none" stroke="#444444" stroke-width="1.3" marker-end="url(#arr)"/>
<text x="254.5" y="296.5" font-size="10.5" text-anchor="middle" fill="#333" font-style="italic" stroke="white" stroke-width="2.5" paint-order="stroke" stroke-linejoin="round">Report</text>
<text x="254.5" y="310" font-size="10.5" text-anchor="middle" fill="#333" font-style="italic" stroke="white" stroke-width="2.5" paint-order="stroke" stroke-linejoin="round">involvement</text>
<path d="M 151 122.66666666666666 L 183 123 L 320 123 L 320 139 L 360 138.5 L 394 138.5" fill="none" stroke="#444444" stroke-width="1.3" marker-end="url(#arr)"/>
<text x="268.5" y="138.5" font-size="10.5" text-anchor="middle" fill="#333" font-style="italic" stroke="white" stroke-width="2.5" paint-order="stroke" stroke-linejoin="round">Upload photos</text>
<text x="268.5" y="152" font-size="10.5" text-anchor="middle" fill="#333" font-style="italic" stroke="white" stroke-width="2.5" paint-order="stroke" stroke-linejoin="round">and documents</text>
<path d="M 539 138.5 L 2003 139 L 2180 138.5 L 2197 138.5" fill="none" stroke="#444444" stroke-width="1.3" marker-end="url(#arr)"/>
<text x="2076.5" y="154.5" font-size="10.5" text-anchor="middle" fill="#333" font-style="italic" stroke="white" stroke-width="2.5" paint-order="stroke" stroke-linejoin="round">Archive</text>
<text x="2076.5" y="168" font-size="10.5" text-anchor="middle" fill="#333" font-style="italic" stroke="white" stroke-width="2.5" paint-order="stroke" stroke-linejoin="round">documents</text>
<path d="M 536.5 209.5 L 1007 209.5 L 1007 272.5 L 1017 272.5" fill="none" stroke="#444444" stroke-width="1.3" marker-end="url(#arr)"/>
<text x="617.5" y="168" font-size="10.5" text-anchor="middle" fill="#333" font-style="italic" stroke="white" stroke-width="2.5" paint-order="stroke" stroke-linejoin="round">Open the case</text>
<text x="617.5" y="181.5" font-size="10.5" text-anchor="middle" fill="#333" font-style="italic" stroke="white" stroke-width="2.5" paint-order="stroke" stroke-linejoin="round">file</text>
<rect x="585.5" y="189.5" width="64" height="15" rx="7.5" fill="#fdf3d8" stroke="#c9a227" stroke-width="1"/>
<text x="617.5" y="200.5" font-size="9.5" text-anchor="middle" fill="#7a6216" font-weight="bold">Case file</text>
<path d="M 536.5 280.5 L 566 280.5 L 566 220.5 L 997 220.5 L 997 281 L 1017 281" fill="none" stroke="#444444" stroke-width="1.3" marker-end="url(#arr)"/>
<text x="617.5" y="235" font-size="10.5" text-anchor="middle" fill="#333" font-style="italic" stroke="white" stroke-width="2.5" paint-order="stroke" stroke-linejoin="round">Open the case</text>
<text x="617.5" y="248.5" font-size="10.5" text-anchor="middle" fill="#333" font-style="italic" stroke="white" stroke-width="2.5" paint-order="stroke" stroke-linejoin="round">file (phone</text>
<text x="617.5" y="262" font-size="10.5" text-anchor="middle" fill="#333" font-style="italic" stroke="white" stroke-width="2.5" paint-order="stroke" stroke-linejoin="round">channel)</text>
<path d="M 1157 276.75 L 1167 276.75 L 1167 231 L 1262 231" fill="none" stroke="#444444" stroke-width="1.3" marker-end="url(#arr)"/>
<text x="1209.5" y="245.5" font-size="10.5" text-anchor="middle" fill="#333" font-style="italic" stroke="white" stroke-width="2.5" paint-order="stroke" stroke-linejoin="round">Systematic</text>
<text x="1209.5" y="259" font-size="10.5" text-anchor="middle" fill="#333" font-style="italic" stroke="white" stroke-width="2.5" paint-order="stroke" stroke-linejoin="round">check at</text>
<text x="1209.5" y="272.5" font-size="10.5" text-anchor="middle" fill="#333" font-style="italic" stroke="white" stroke-width="2.5" paint-order="stroke" stroke-linejoin="round">opening</text>
<path d="M 1402 222.5 L 1429 222.5 L 1429 195.5 L 2003 196 L 2146 196 L 2146 210 L 2180 209.5 L 2197 209.5" fill="none" stroke="#444444" stroke-width="1.3" marker-end="url(#arr)"/>
<text x="2091.5" y="211.5" font-size="10.5" text-anchor="middle" fill="#333" font-style="italic" stroke="white" stroke-width="2.5" paint-order="stroke" stroke-linejoin="round">Query</text>
<text x="2091.5" y="225" font-size="10.5" text-anchor="middle" fill="#333" font-style="italic" stroke="white" stroke-width="2.5" paint-order="stroke" stroke-linejoin="round">claims-history</text>
<text x="2091.5" y="238.5" font-size="10.5" text-anchor="middle" fill="#333" font-style="italic" stroke="white" stroke-width="2.5" paint-order="stroke" stroke-linejoin="round">files</text>
<path d="M 2337 209.5 L 2354 210 L 2364 210 L 2364 30 L 350 30 L 350 72 L 669 72 L 669 198.5 L 1252 198.5 L 1252 214 L 1262 214" fill="none" stroke="#444444" stroke-width="1.3" marker-end="url(#arr)"/>
<text x="2218.5" y="45.5" font-size="10.5" text-anchor="middle" fill="#333" font-style="italic" stroke="white" stroke-width="2.5" paint-order="stroke" stroke-linejoin="round">Policyholder</text>
<text x="2218.5" y="59" font-size="10.5" text-anchor="middle" fill="#333" font-style="italic" stroke="white" stroke-width="2.5" paint-order="stroke" stroke-linejoin="round">history</text>
<path d="M 1017 306.5 L 846 306.5" fill="none" stroke="#444444" stroke-width="1.3" marker-end="url(#arr)"/>
<text x="921.5" y="321" font-size="10.5" text-anchor="middle" fill="#333" font-style="italic" stroke="white" stroke-width="2.5" paint-order="stroke" stroke-linejoin="round">Assessment</text>
<text x="921.5" y="334.5" font-size="10.5" text-anchor="middle" fill="#333" font-style="italic" stroke="white" stroke-width="2.5" paint-order="stroke" stroke-linejoin="round">mission if</text>
<text x="921.5" y="348" font-size="10.5" text-anchor="middle" fill="#333" font-style="italic" stroke="white" stroke-width="2.5" paint-order="stroke" stroke-linejoin="round">damage &gt;</text>
<text x="921.5" y="361.5" font-size="10.5" text-anchor="middle" fill="#333" font-style="italic" stroke="white" stroke-width="2.5" paint-order="stroke" stroke-linejoin="round">threshold</text>
<path d="M 158 414.5 L 175 415 L 340 415 L 340 339 L 679 339 L 679 298 L 706 298" fill="none" stroke="#444444" stroke-width="1.3" marker-end="url(#arr)"/>
<text x="274.5" y="430.5" font-size="10.5" text-anchor="middle" fill="#333" font-style="italic" stroke="white" stroke-width="2.5" paint-order="stroke" stroke-linejoin="round">Submit</text>
<text x="274.5" y="444" font-size="10.5" text-anchor="middle" fill="#333" font-style="italic" stroke="white" stroke-width="2.5" paint-order="stroke" stroke-linejoin="round">assessment</text>
<text x="274.5" y="457.5" font-size="10.5" text-anchor="middle" fill="#333" font-style="italic" stroke="white" stroke-width="2.5" paint-order="stroke" stroke-linejoin="round">report</text>
<rect x="221" y="465.5" width="107" height="15" rx="7.5" fill="#fdf3d8" stroke="#c9a227" stroke-width="1"/>
<text x="274.5" y="476.5" font-size="9.5" text-anchor="middle" fill="#7a6216" font-weight="bold">Assessment report</text>
<path d="M 846 289.5 L 856 289.5 L 856 295.5 L 987 295.5 L 987 298 L 1017 298" fill="none" stroke="#444444" stroke-width="1.3" marker-end="url(#arr)"/>
<text x="921.5" y="254" font-size="10.5" text-anchor="middle" fill="#333" font-style="italic" stroke="white" stroke-width="2.5" paint-order="stroke" stroke-linejoin="round">Assessment</text>
<text x="921.5" y="267.5" font-size="10.5" text-anchor="middle" fill="#333" font-style="italic" stroke="white" stroke-width="2.5" paint-order="stroke" stroke-linejoin="round">conclusions</text>
<rect x="868" y="275.5" width="107" height="15" rx="7.5" fill="#fdf3d8" stroke="#c9a227" stroke-width="1"/>
<text x="921.5" y="286.5" font-size="9.5" text-anchor="middle" fill="#7a6216" font-weight="bold">Assessment report</text>
<path d="M 158 327.5 L 175 328 L 669 328 L 669 231.5 L 987 231.5 L 987 289.5 L 1017 289.5" fill="none" stroke="#444444" stroke-width="1.3" marker-end="url(#arr)"/>
<text x="271.5" y="343.5" font-size="10.5" text-anchor="middle" fill="#333" font-style="italic" stroke="white" stroke-width="2.5" paint-order="stroke" stroke-linejoin="round">Investigation</text>
<text x="271.5" y="357" font-size="10.5" text-anchor="middle" fill="#333" font-style="italic" stroke="white" stroke-width="2.5" paint-order="stroke" stroke-linejoin="round">and management</text>
<text x="271.5" y="370.5" font-size="10.5" text-anchor="middle" fill="#333" font-style="italic" stroke="white" stroke-width="2.5" paint-order="stroke" stroke-linejoin="round">decisions</text>
<path d="M 1157 289.5 L 1565 289.5" fill="none" stroke="#444444" stroke-width="1.3" marker-end="url(#arr)"/>
<text x="1483.5" y="304" font-size="10.5" text-anchor="middle" fill="#333" font-style="italic" stroke="white" stroke-width="2.5" paint-order="stroke" stroke-linejoin="round">Approved items</text>
<text x="1483.5" y="317.5" font-size="10.5" text-anchor="middle" fill="#333" font-style="italic" stroke="white" stroke-width="2.5" paint-order="stroke" stroke-linejoin="round">for pricing</text>
<path d="M 1705 306.5 L 1715 306.5 L 1715 325 L 2023 325 L 2023 559 L 2018 559 A 5 5 0 0 0 2008 559 L 60 559 L 60 502 L 70 501.5 L 87 501.5" fill="none" stroke="#444444" stroke-width="1.3" marker-end="url(#arr)"/>
<text x="404.5" y="574.5" font-size="10.5" text-anchor="middle" fill="#333" font-style="italic" stroke="white" stroke-width="2.5" paint-order="stroke" stroke-linejoin="round">Approval</text>
<text x="404.5" y="588" font-size="10.5" text-anchor="middle" fill="#333" font-style="italic" stroke="white" stroke-width="2.5" paint-order="stroke" stroke-linejoin="round">request beyond</text>
<text x="404.5" y="601.5" font-size="10.5" text-anchor="middle" fill="#333" font-style="italic" stroke="white" stroke-width="2.5" paint-order="stroke" stroke-linejoin="round">delegation</text>
<path d="M 158 501.5 L 175 502 L 185 502 L 185 498 L 350 498 L 350 391 L 360 390.5 L 1538 390.5 L 1538 306.5 L 1565 306.5" fill="none" stroke="#444444" stroke-width="1.3" marker-end="url(#arr)"/>
<text x="254.5" y="513.5" font-size="10.5" text-anchor="middle" fill="#333" font-style="italic" stroke="white" stroke-width="2.5" paint-order="stroke" stroke-linejoin="round">Approval or</text>
<text x="254.5" y="527" font-size="10.5" text-anchor="middle" fill="#333" font-style="italic" stroke="white" stroke-width="2.5" paint-order="stroke" stroke-linejoin="round">reasoned</text>
<text x="254.5" y="540.5" font-size="10.5" text-anchor="middle" fill="#333" font-style="italic" stroke="white" stroke-width="2.5" paint-order="stroke" stroke-linejoin="round">refusal</text>
<path d="M 1705 289.5 L 1829 289.5" fill="none" stroke="#444444" stroke-width="1.3" marker-end="url(#arr)"/>
<text x="1767" y="248" font-size="10.5" text-anchor="middle" fill="#333" font-style="italic" stroke="white" stroke-width="2.5" paint-order="stroke" stroke-linejoin="round">Compensation</text>
<text x="1767" y="261.5" font-size="10.5" text-anchor="middle" fill="#333" font-style="italic" stroke="white" stroke-width="2.5" paint-order="stroke" stroke-linejoin="round">order</text>
<rect x="1727" y="269.5" width="80" height="15" rx="7.5" fill="#fdf3d8" stroke="#c9a227" stroke-width="1"/>
<text x="1767" y="280.5" font-size="9.5" text-anchor="middle" fill="#7a6216" font-weight="bold">Compensation</text>
<path d="M 1969 289.5 L 2003 290 L 2013 290 L 2013 281 L 2180 280.5 L 2197 280.5" fill="none" stroke="#444444" stroke-width="1.3" marker-end="url(#arr)"/>
<text x="2089" y="296.5" font-size="10.5" text-anchor="middle" fill="#333" font-style="italic" stroke="white" stroke-width="2.5" paint-order="stroke" stroke-linejoin="round">SEPA transfer</text>
<rect x="2049" y="304.5" width="80" height="15" rx="7.5" fill="#fdf3d8" stroke="#c9a227" stroke-width="1"/>
<text x="2089" y="315.5" font-size="9.5" text-anchor="middle" fill="#7a6216" font-weight="bold">Compensation</text>
<path d="M 1157 302.25 L 1429 302.25 L 1429 348 L 1533 348 A 5 5 0 0 1 1543 348 L 2013 348 L 2013 620 L 12 620 L 12 132 L 69 132" fill="none" stroke="#444444" stroke-width="1.3" marker-end="url(#arr)"/>
<text x="398.5" y="635.5" font-size="10.5" text-anchor="middle" fill="#333" font-style="italic" stroke="white" stroke-width="2.5" paint-order="stroke" stroke-linejoin="round">Notify steps</text>
<text x="398.5" y="649" font-size="10.5" text-anchor="middle" fill="#333" font-style="italic" stroke="white" stroke-width="2.5" paint-order="stroke" stroke-linejoin="round">and decision</text>
<line x1="20" y1="678" x2="2356" y2="678" stroke="#ddd" stroke-width="1"/>
<text x="20" y="700" font-size="11" font-weight="bold" fill="#555">BUSINESS OBJECTS</text>
<rect x="150" y="690" width="43" height="15" rx="7.5" fill="#fdf3d8" stroke="#c9a227"/>
<text x="171.5" y="701" font-size="9.5" text-anchor="middle" fill="#7a6216" font-weight="bold">Claim</text>
<text x="203" y="701" font-size="10" fill="#666">— damaging event reported by a policyholder</text>
<rect x="150" y="714" width="64" height="15" rx="7.5" fill="#fdf3d8" stroke="#c9a227"/>
<text x="182" y="725" font-size="9.5" text-anchor="middle" fill="#7a6216" font-weight="bold">Case file</text>
<text x="224" y="725" font-size="10" fill="#666">— file opened to investigate a claim</text>
<rect x="150" y="738" width="107" height="15" rx="7.5" fill="#fdf3d8" stroke="#c9a227"/>
<text x="203.5" y="749" font-size="9.5" text-anchor="middle" fill="#7a6216" font-weight="bold">Assessment report</text>
<text x="267" y="749" font-size="10" fill="#666">— quantified conclusions of the appointed expert</text>
<rect x="150" y="762" width="80" height="15" rx="7.5" fill="#fdf3d8" stroke="#c9a227"/>
<text x="190" y="773" font-size="9.5" text-anchor="middle" fill="#7a6216" font-weight="bold">Compensation</text>
<text x="240" y="773" font-size="10" fill="#666">— amount approved and paid to the policyholder</text>
<line x1="20" y1="800" x2="2356" y2="800" stroke="#ddd" stroke-width="1"/>
<text x="20" y="822" font-size="11" font-weight="bold" fill="#555">LEGEND</text>
<rect x="150" y="812" width="26" height="14" rx="3" fill="#eef4fb" stroke="#7a9cc4" stroke-dasharray="5 3"/>
<text x="182" y="823" font-size="10" fill="#444">Actor group</text>
<rect x="272" y="812" width="26" height="14" rx="3" fill="#f6f2ea" stroke="#b09a6d"/>
<text x="304" y="823" font-size="10" fill="#444">System</text>
<rect x="368" y="812" width="26" height="14" rx="3" fill="#fdfbf6" stroke="#c4b258"/>
<text x="400" y="823" font-size="10" fill="#444">Layer</text>
<rect x="458" y="812" width="26" height="14" rx="3" fill="#ffffff" stroke="#666677"/>
<text x="490" y="823" font-size="10" fill="#444">Functional block</text>
<rect x="606" y="812" width="26" height="14" rx="3" fill="#f0eef5" stroke="#9187b3" stroke-dasharray="5 3"/>
<text x="638" y="823" font-size="10" fill="#444">External system</text>
<line x1="150" y1="842" x2="176" y2="842" stroke="#444444" stroke-width="1.3" marker-end="url(#arr)"/>
<text x="182" y="846" font-size="10" fill="#444">Functional flow (label = exchanged data)</text>
<rect x="480" y="835" width="96" height="15" rx="7.5" fill="#fdf3d8" stroke="#c9a227"/>
<text x="528" y="846" font-size="9.5" text-anchor="middle" fill="#7a6216" font-weight="bold">Business object</text>
<text x="584" y="846" font-size="10" fill="#444">carried by the flow</text>
<text x="150" y="870" font-size="10" fill="#444" font-style="italic">Claim files are retained for 10 years (legal obligation)</text>
</svg>
