<svg xmlns="http://www.w3.org/2000/svg" viewBox="0 0 1018 1619" font-family="Helvetica,Arial,sans-serif">
<defs><marker id="arr" viewBox="0 0 10 10" refX="9" refY="5" markerWidth="7" markerHeight="7" orient="auto-start-reverse">
<path d="M0,0 L10,5 L0,10 z" fill="#5a6675"/></marker></defs>
<rect width="1018" height="1619" fill="#ffffff"/>
<rect x="223" y="91" width="264" height="90" rx="6" fill="#e9f2fb" stroke="#1f77b4" stroke-width="1.2" stroke-dasharray="5 3"/>
<text x="233" y="109" font-size="13" font-weight="bold" fill="#17202c">Policyholders</text>
<rect x="513" y="47" width="268" height="101" rx="6" fill="#e9f2fb" stroke="#1f77b4" stroke-width="1.2" stroke-dasharray="5 3"/>
<text x="523" y="65" font-size="13" font-weight="bold" fill="#17202c">Case handlers</text>
<rect x="106" y="275" width="521" height="918" rx="6" fill="#fbf4e9" stroke="#c17d1c" stroke-width="1.2"/>
<text x="116" y="293" font-size="13" font-weight="bold" fill="#17202c">Claims information system</text>
<rect x="126" y="307" width="425" height="83" rx="6" fill="#fdfaf0" stroke="#cf9f2f" stroke-width="1"/>
<text x="136" y="325" font-size="13" font-weight="bold" fill="#17202c">Reporting layer</text>
<rect x="310" y="502" width="297" height="372" rx="6" fill="#fdfaf0" stroke="#cf9f2f" stroke-width="1"/>
<text x="320" y="520" font-size="13" font-weight="bold" fill="#17202c">Investigation layer</text>
<rect x="393" y="957" width="176" height="222" rx="6" fill="#fdfaf0" stroke="#cf9f2f" stroke-width="1"/>
<text x="403" y="975" font-size="13" font-weight="bold" fill="#17202c">Settlement layer</text>
<rect x="162" y="1287" width="393" height="83" rx="6" fill="#f4eff8" stroke="#8659a6" stroke-width="1.2" stroke-dasharray="5 3"/>
<text x="172" y="1305" font-size="13" font-weight="bold" fill="#17202c">External systems</text>
<circle cx="276" cy="128" r="7" fill="none" stroke="#1f5e91" stroke-width="1.5"/>
<path d="M 265 150 q 11 -19 22 0" fill="none" stroke="#1f5e91" stroke-width="1.5"/>
<text x="276" y="162" font-size="11" text-anchor="middle" fill="#20364c">Policyholder</text>
<circle cx="409" cy="128" r="7" fill="none" stroke="#1f5e91" stroke-width="1.5"/>
<path d="M 398 150 q 11 -19 22 0" fill="none" stroke="#1f5e91" stroke-width="1.5"/>
<text x="409" y="162" font-size="11" text-anchor="middle" fill="#20364c">Involved third party</text>
<circle cx="554" cy="84" r="7" fill="none" stroke="#1f5e91" stroke-width="1.5"/>
<path d="M 543 106 q 11 -19 22 0" fill="none" stroke="#1f5e91" stroke-width="1.5"/>
<text x="554" y="118" font-size="11" text-anchor="middle" fill="#20364c">Claims</text>
<text x="554" y="129" font-size="11" text-anchor="middle" fill="#20364c">handler</text>
<circle cx="641" cy="84" r="7" fill="none" stroke="#1f5e91" stroke-width="1.5"/>
<path d="M 630 106 q 11 -19 22 0" fill="none" stroke="#1f5e91" stroke-width="1.5"/>
<text x="641" y="118" font-size="11" text-anchor="middle" fill="#20364c">Appointed</text>
<text x="641" y="129" font-size="11" text-anchor="middle" fill="#20364c">expert</text>
<circle cx="734" cy="84" r="7" fill="none" stroke="#1f5e91" stroke-width="1.5"/>
<path d="M 723 106 q 11 -19 22 0" fill="none" stroke="#1f5e91" stroke-width="1.5"/>
<text x="734" y="118" font-size="11" text-anchor="middle" fill="#20364c">Settlement</text>
<text x="734" y="129" font-size="11" text-anchor="middle" fill="#20364c">supervisor</text>
<rect x="306" y="334" width="108" height="47" rx="4" fill="#ffffff" stroke="#48546a" stroke-width="1.3"/>
<text x="360" y="354.25" font-size="12.5" text-anchor="middle" fill="#17202c">Online</text>
<text x="360" y="368.75" font-size="12.5" text-anchor="middle" fill="#17202c">reporting</text>
<rect x="434" y="334" width="108" height="47" rx="4" fill="#ffffff" stroke="#48546a" stroke-width="1.3"/>
<text x="488" y="354.25" font-size="12.5" text-anchor="middle" fill="#17202c">Phone</text>
<text x="488" y="368.75" font-size="12.5" text-anchor="middle" fill="#17202c">reporting</text>
<rect x="135" y="334" width="151" height="47" rx="4" fill="#ffffff" stroke="#48546a" stroke-width="1.3"/>
<text x="210.5" y="354.25" font-size="12.5" text-anchor="middle" fill="#17202c">Supporting-document</text>
<text x="210.5" y="368.75" font-size="12.5" text-anchor="middle" fill="#17202c">collection</text>
<rect x="434" y="698" width="108" height="47" rx="4" fill="#ffffff" stroke="#48546a" stroke-width="1.3"/>
<text x="488" y="718.25" font-size="12.5" text-anchor="middle" fill="#17202c">Claim-file</text>
<text x="488" y="732.75" font-size="12.5" text-anchor="middle" fill="#17202c">management</text>
<rect x="452" y="529" width="108" height="47" rx="4" fill="#ffffff" stroke="#48546a" stroke-width="1.3"/>
<text x="506" y="549.25" font-size="12.5" text-anchor="middle" fill="#17202c">Assessment</text>
<text x="506" y="563.75" font-size="12.5" text-anchor="middle" fill="#17202c">tracking</text>
<rect x="370" y="818" width="108" height="47" rx="4" fill="#ffffff" stroke="#48546a" stroke-width="1.3"/>
<text x="424" y="838.25" font-size="12.5" text-anchor="middle" fill="#17202c">Fraud</text>
<text x="424" y="852.75" font-size="12.5" text-anchor="middle" fill="#17202c">detection</text>
<rect x="452" y="984" width="108" height="47" rx="4" fill="#ffffff" stroke="#48546a" stroke-width="1.3"/>
<text x="506" y="1004.25" font-size="12.5" text-anchor="middle" fill="#17202c">Compensation</text>
<text x="506" y="1018.75" font-size="12.5" text-anchor="middle" fill="#17202c">calculation</text>
<rect x="434" y="1123" width="108" height="47" rx="4" fill="#ffffff" stroke="#48546a" stroke-width="1.3"/>
<text x="488" y="1143.25" font-size="12.5" text-anchor="middle" fill="#17202c">Payment</text>
<text x="488" y="1157.75" font-size="12.5" text-anchor="middle" fill="#17202c">scheduling</text>
<rect x="429" y="1314" width="117" height="47" rx="4" fill="#ffffff" stroke="#48546a" stroke-width="1.3"/>
<text x="487.5" y="1334.25" font-size="12.5" text-anchor="middle" fill="#17202c">Banking system</text>
<text x="487.5" y="1348.75" font-size="12.5" text-anchor="middle" fill="#17202c">(transfers)</text>
<rect x="299" y="1314" width="110" height="47" rx="4" fill="#ffffff" stroke="#48546a" stroke-width="1.3"/>
<text x="354" y="1334.25" font-size="12.5" text-anchor="middle" fill="#17202c">Inter-insurer</text>
<text x="354" y="1348.75" font-size="12.5" text-anchor="middle" fill="#17202c">files</text>
<rect x="171" y="1314" width="108" height="47" rx="4" fill="#ffffff" stroke="#48546a" stroke-width="1.3"/>
<text x="225" y="1334.25" font-size="12.5" text-anchor="middle" fill="#17202c">Group</text>
<text x="225" y="1348.75" font-size="12.5" text-anchor="middle" fill="#17202c">ECM</text>
<path d="M 290.6666666666667 172 L 291 186 L 291 202 L 320 202 L 320 260 L 360 260 L 360 334" fill="none" stroke="#5a6675" stroke-width="1.3" marker-end="url(#arr)"/>
<text x="269.5" y="224.5" font-size="11.5" text-anchor="middle" fill="#3a4553" font-style="italic" stroke="#ffffff" stroke-width="2.5" paint-order="stroke" stroke-linejoin="round">Report a claim</text>
<rect x="248" y="232.5" width="43" height="15" rx="7.5" fill="#fff2d4" stroke="#d3a01f" stroke-width="1"/>
<text x="269.5" y="243.5" font-size="9.5" text-anchor="middle" fill="#6a5111" font-weight="bold">Claim</text>
<path d="M 409 172 L 409 260 L 488 260 L 488 334" fill="none" stroke="#5a6675" stroke-width="1.3" marker-end="url(#arr)"/>
<text x="368.5" y="229.5" font-size="11.5" text-anchor="middle" fill="#3a4553" font-style="italic" stroke="#ffffff" stroke-width="2.5" paint-order="stroke" stroke-linejoin="round">Report</text>
<text x="368.5" y="244" font-size="11.5" text-anchor="middle" fill="#3a4553" font-style="italic" stroke="#ffffff" stroke-width="2.5" paint-order="stroke" stroke-linejoin="round">involvement</text>
<path d="M 261.3333333333333 172 L 261 186 L 261 202 L 211 202 L 210.5 270 L 210.5 334" fill="none" stroke="#5a6675" stroke-width="1.3" marker-end="url(#arr)"/>
<text x="164" y="224.5" font-size="11.5" text-anchor="middle" fill="#3a4553" font-style="italic" stroke="#ffffff" stroke-width="2.5" paint-order="stroke" stroke-linejoin="round">Upload photos</text>
<text x="164" y="239" font-size="11.5" text-anchor="middle" fill="#3a4553" font-style="italic" stroke="#ffffff" stroke-width="2.5" paint-order="stroke" stroke-linejoin="round">and documents</text>
<path d="M 210.5 381 L 211 1198 L 211 1272 L 225 1272 L 225 1314" fill="none" stroke="#5a6675" stroke-width="1.3" marker-end="url(#arr)"/>
<text x="177" y="1241.5" font-size="11.5" text-anchor="middle" fill="#3a4553" font-style="italic" stroke="#ffffff" stroke-width="2.5" paint-order="stroke" stroke-linejoin="round">Archive</text>
<text x="177" y="1256" font-size="11.5" text-anchor="middle" fill="#3a4553" font-style="italic" stroke="#ffffff" stroke-width="2.5" paint-order="stroke" stroke-linejoin="round">documents</text>
<path d="M 360 381 L 360 688 L 452 688 L 452 698" fill="none" stroke="#5a6675" stroke-width="1.3" marker-end="url(#arr)"/>
<text x="313" y="427.5" font-size="11.5" text-anchor="middle" fill="#3a4553" font-style="italic" stroke="#ffffff" stroke-width="2.5" paint-order="stroke" stroke-linejoin="round">Open the case</text>
<text x="313" y="442" font-size="11.5" text-anchor="middle" fill="#3a4553" font-style="italic" stroke="#ffffff" stroke-width="2.5" paint-order="stroke" stroke-linejoin="round">file</text>
<rect x="281" y="450" width="64" height="15" rx="7.5" fill="#fff2d4" stroke="#d3a01f" stroke-width="1"/>
<text x="313" y="461" font-size="9.5" text-anchor="middle" fill="#6a5111" font-weight="bold">Case file</text>
<path d="M 488 381 L 488 405 L 371 405 L 371 678 L 470 678 L 470 698" fill="none" stroke="#5a6675" stroke-width="1.3" marker-end="url(#arr)"/>
<text x="419" y="429.75" font-size="11.5" text-anchor="middle" fill="#3a4553" font-style="italic" stroke="#ffffff" stroke-width="2.5" paint-order="stroke" stroke-linejoin="round">Open the case</text>
<text x="419" y="444.25" font-size="11.5" text-anchor="middle" fill="#3a4553" font-style="italic" stroke="#ffffff" stroke-width="2.5" paint-order="stroke" stroke-linejoin="round">file (phone</text>
<text x="419" y="458.75" font-size="11.5" text-anchor="middle" fill="#3a4553" font-style="italic" stroke="#ffffff" stroke-width="2.5" paint-order="stroke" stroke-linejoin="round">channel)</text>
<path d="M 461 745 L 461 755 L 442 755 L 442 818" fill="none" stroke="#5a6675" stroke-width="1.3" marker-end="url(#arr)"/>
<text x="385" y="777.5" font-size="11.5" text-anchor="middle" fill="#3a4553" font-style="italic" stroke="#ffffff" stroke-width="2.5" paint-order="stroke" stroke-linejoin="round">Systematic check</text>
<text x="385" y="792" font-size="11.5" text-anchor="middle" fill="#3a4553" font-style="italic" stroke="#ffffff" stroke-width="2.5" paint-order="stroke" stroke-linejoin="round">at opening</text>
<path d="M 424 865 L 424 889 L 378 889 L 378 1208 L 354 1208 L 354 1314" fill="none" stroke="#5a6675" stroke-width="1.3" marker-end="url(#arr)"/>
<text x="303.5" y="1230.5" font-size="11.5" text-anchor="middle" fill="#3a4553" font-style="italic" stroke="#ffffff" stroke-width="2.5" paint-order="stroke" stroke-linejoin="round">Query</text>
<text x="303.5" y="1245" font-size="11.5" text-anchor="middle" fill="#3a4553" font-style="italic" stroke="#ffffff" stroke-width="2.5" paint-order="stroke" stroke-linejoin="round">claims-history</text>
<text x="303.5" y="1259.5" font-size="11.5" text-anchor="middle" fill="#3a4553" font-style="italic" stroke="#ffffff" stroke-width="2.5" paint-order="stroke" stroke-linejoin="round">files</text>
<path d="M 354 1361 L 354 1385 L 96 1385 L 96 260 L 115 260 L 115 477 L 319 477 L 319 808 L 406 808 L 406 818" fill="none" stroke="#5a6675" stroke-width="1.3" marker-end="url(#arr)"/>
<text x="52" y="1294.5" font-size="11.5" text-anchor="middle" fill="#3a4553" font-style="italic" stroke="#ffffff" stroke-width="2.5" paint-order="stroke" stroke-linejoin="round">Policyholder</text>
<text x="52" y="1309" font-size="11.5" text-anchor="middle" fill="#3a4553" font-style="italic" stroke="#ffffff" stroke-width="2.5" paint-order="stroke" stroke-linejoin="round">history</text>
<path d="M 524 698 L 524 576" fill="none" stroke="#5a6675" stroke-width="1.3" marker-end="url(#arr)"/>
<text x="562.5" y="608.5" font-size="11.5" text-anchor="middle" fill="#3a4553" font-style="italic" stroke="#ffffff" stroke-width="2.5" paint-order="stroke" stroke-linejoin="round">Assessment</text>
<text x="562.5" y="623" font-size="11.5" text-anchor="middle" fill="#3a4553" font-style="italic" stroke="#ffffff" stroke-width="2.5" paint-order="stroke" stroke-linejoin="round">mission if</text>
<text x="562.5" y="637.5" font-size="11.5" text-anchor="middle" fill="#3a4553" font-style="italic" stroke="#ffffff" stroke-width="2.5" paint-order="stroke" stroke-linejoin="round">damage &gt;</text>
<text x="562.5" y="652" font-size="11.5" text-anchor="middle" fill="#3a4553" font-style="italic" stroke="#ffffff" stroke-width="2.5" paint-order="stroke" stroke-linejoin="round">threshold</text>
<path d="M 641 139 L 641 250 L 572 250 L 572 487 L 506 487 L 506 529" fill="none" stroke="#5a6675" stroke-width="1.3" marker-end="url(#arr)"/>
<text x="583.5" y="185.5" font-size="11.5" text-anchor="middle" fill="#3a4553" font-style="italic" stroke="#ffffff" stroke-width="2.5" paint-order="stroke" stroke-linejoin="round">Submit</text>
<text x="583.5" y="200" font-size="11.5" text-anchor="middle" fill="#3a4553" font-style="italic" stroke="#ffffff" stroke-width="2.5" paint-order="stroke" stroke-linejoin="round">assessment</text>
<text x="583.5" y="214.5" font-size="11.5" text-anchor="middle" fill="#3a4553" font-style="italic" stroke="#ffffff" stroke-width="2.5" paint-order="stroke" stroke-linejoin="round">report</text>
<rect x="530" y="222.5" width="107" height="15" rx="7.5" fill="#fff2d4" stroke="#d3a01f" stroke-width="1"/>
<text x="583.5" y="233.5" font-size="9.5" text-anchor="middle" fill="#6a5111" font-weight="bold">Assessment report</text>
<path d="M 488 576 L 488 586 L 506 586 L 506 698" fill="none" stroke="#5a6675" stroke-width="1.3" marker-end="url(#arr)"/>
<text x="448.5" y="613.5" font-size="11.5" text-anchor="middle" fill="#3a4553" font-style="italic" stroke="#ffffff" stroke-width="2.5" paint-order="stroke" stroke-linejoin="round">Assessment</text>
<text x="448.5" y="628" font-size="11.5" text-anchor="middle" fill="#3a4553" font-style="italic" stroke="#ffffff" stroke-width="2.5" paint-order="stroke" stroke-linejoin="round">conclusions</text>
<rect x="395" y="636" width="107" height="15" rx="7.5" fill="#fff2d4" stroke="#d3a01f" stroke-width="1"/>
<text x="448.5" y="647" font-size="9.5" text-anchor="middle" fill="#6a5111" font-weight="bold">Assessment report</text>
<path d="M 554 139 L 554 163 L 518 163 L 518 260 L 561 260 L 561 477 L 382 477 L 382 668 L 488 668 L 488 698" fill="none" stroke="#5a6675" stroke-width="1.3" marker-end="url(#arr)"/>
<text x="467.5" y="214.5" font-size="11.5" text-anchor="middle" fill="#3a4553" font-style="italic" stroke="#ffffff" stroke-width="2.5" paint-order="stroke" stroke-linejoin="round">Investigation</text>
<text x="467.5" y="229" font-size="11.5" text-anchor="middle" fill="#3a4553" font-style="italic" stroke="#ffffff" stroke-width="2.5" paint-order="stroke" stroke-linejoin="round">and management</text>
<text x="467.5" y="243.5" font-size="11.5" text-anchor="middle" fill="#3a4553" font-style="italic" stroke="#ffffff" stroke-width="2.5" paint-order="stroke" stroke-linejoin="round">decisions</text>
<path d="M 488 745 L 488 984" fill="none" stroke="#5a6675" stroke-width="1.3" marker-end="url(#arr)"/>
<text x="437.5" y="911.5" font-size="11.5" text-anchor="middle" fill="#3a4553" font-style="italic" stroke="#ffffff" stroke-width="2.5" paint-order="stroke" stroke-linejoin="round">Approved items</text>
<text x="437.5" y="926" font-size="11.5" text-anchor="middle" fill="#3a4553" font-style="italic" stroke="#ffffff" stroke-width="2.5" paint-order="stroke" stroke-linejoin="round">for pricing</text>
<path d="M 524 1031 L 524 1041 L 552 1041 L 552 1218 L 885 1218 L 885 32 L 734 32 L 734 74" fill="none" stroke="#5a6675" stroke-width="1.3" marker-end="url(#arr)"/>
<text x="828" y="282.5" font-size="11.5" text-anchor="middle" fill="#3a4553" font-style="italic" stroke="#ffffff" stroke-width="2.5" paint-order="stroke" stroke-linejoin="round">Approval request</text>
<text x="828" y="297" font-size="11.5" text-anchor="middle" fill="#3a4553" font-style="italic" stroke="#ffffff" stroke-width="2.5" paint-order="stroke" stroke-linejoin="round">beyond</text>
<text x="828" y="311.5" font-size="11.5" text-anchor="middle" fill="#3a4553" font-style="italic" stroke="#ffffff" stroke-width="2.5" paint-order="stroke" stroke-linejoin="round">delegation</text>
<path d="M 734 139 L 734 163 L 763 163 L 763 260 L 617 260 L 617 942 L 584 942 A 5 5 0 0 0 574 942 L 524 942 L 524 984" fill="none" stroke="#5a6675" stroke-width="1.3" marker-end="url(#arr)"/>
<text x="706" y="185.5" font-size="11.5" text-anchor="middle" fill="#3a4553" font-style="italic" stroke="#ffffff" stroke-width="2.5" paint-order="stroke" stroke-linejoin="round">Approval or</text>
<text x="706" y="200" font-size="11.5" text-anchor="middle" fill="#3a4553" font-style="italic" stroke="#ffffff" stroke-width="2.5" paint-order="stroke" stroke-linejoin="round">reasoned refusal</text>
<path d="M 488 1031 L 488 1123" fill="none" stroke="#5a6675" stroke-width="1.3" marker-end="url(#arr)"/>
<text x="444" y="1063.5" font-size="11.5" text-anchor="middle" fill="#3a4553" font-style="italic" stroke="#ffffff" stroke-width="2.5" paint-order="stroke" stroke-linejoin="round">Compensation</text>
<text x="444" y="1078" font-size="11.5" text-anchor="middle" fill="#3a4553" font-style="italic" stroke="#ffffff" stroke-width="2.5" paint-order="stroke" stroke-linejoin="round">order</text>
<rect x="404" y="1086" width="80" height="15" rx="7.5" fill="#fff2d4" stroke="#d3a01f" stroke-width="1"/>
<text x="444" y="1097" font-size="9.5" text-anchor="middle" fill="#6a5111" font-weight="bold">Compensation</text>
<path d="M 488 1170 L 487.5 1282 L 487.5 1314" fill="none" stroke="#5a6675" stroke-width="1.3" marker-end="url(#arr)"/>
<text x="441" y="1226.5" font-size="11.5" text-anchor="middle" fill="#3a4553" font-style="italic" stroke="#ffffff" stroke-width="2.5" paint-order="stroke" stroke-linejoin="round">SEPA transfer</text>
<rect x="401" y="1234.5" width="80" height="15" rx="7.5" fill="#fff2d4" stroke="#d3a01f" stroke-width="1"/>
<text x="441" y="1245.5" font-size="9.5" text-anchor="middle" fill="#6a5111" font-weight="bold">Compensation</text>
<path d="M 515 745 L 515 889 L 579 889 L 579 1208 L 880 1208 A 5 5 0 0 1 890 1208 L 1007 1208 L 1007 22 L 276 22 L 276 118" fill="none" stroke="#5a6675" stroke-width="1.3" marker-end="url(#arr)"/>
<text x="950" y="282.5" font-size="11.5" text-anchor="middle" fill="#3a4553" font-style="italic" stroke="#ffffff" stroke-width="2.5" paint-order="stroke" stroke-linejoin="round">Notify steps and</text>
<text x="950" y="297" font-size="11.5" text-anchor="middle" fill="#3a4553" font-style="italic" stroke="#ffffff" stroke-width="2.5" paint-order="stroke" stroke-linejoin="round">decision</text>
<line x1="20" y1="1405" x2="998" y2="1405" stroke="#e6e9ee" stroke-width="1"/>
<text x="20" y="1427" font-size="11" font-weight="bold" fill="#3a4553">BUSINESS OBJECTS</text>
<rect x="150" y="1417" width="43" height="15" rx="7.5" fill="#fff2d4" stroke="#d3a01f"/>
<text x="171.5" y="1428" font-size="9.5" text-anchor="middle" fill="#6a5111" font-weight="bold">Claim</text>
<text x="203" y="1428" font-size="10" fill="#79828f">— damaging event reported by a policyholder</text>
<rect x="150" y="1441" width="64" height="15" rx="7.5" fill="#fff2d4" stroke="#d3a01f"/>
<text x="182" y="1452" font-size="9.5" text-anchor="middle" fill="#6a5111" font-weight="bold">Case file</text>
<text x="224" y="1452" font-size="10" fill="#79828f">— file opened to investigate a claim</text>
<rect x="150" y="1465" width="107" height="15" rx="7.5" fill="#fff2d4" stroke="#d3a01f"/>
<text x="203.5" y="1476" font-size="9.5" text-anchor="middle" fill="#6a5111" font-weight="bold">Assessment report</text>
<text x="267" y="1476" font-size="10" fill="#79828f">— quantified conclusions of the appointed expert</text>
<rect x="150" y="1489" width="80" height="15" rx="7.5" fill="#fff2d4" stroke="#d3a01f"/>
<text x="190" y="1500" font-size="9.5" text-anchor="middle" fill="#6a5111" font-weight="bold">Compensation</text>
<text x="240" y="1500" font-size="10" fill="#79828f">— amount approved and paid to the policyholder</text>
<line x1="20" y1="1527" x2="998" y2="1527" stroke="#e6e9ee" stroke-width="1"/>
<text x="20" y="1549" font-size="11" font-weight="bold" fill="#3a4553">LEGEND</text>
<rect x="150" y="1539" width="26" height="14" rx="3" fill="#e9f2fb" stroke="#1f77b4" stroke-dasharray="5 3"/>
<text x="182" y="1550" font-size="10" fill="#17202c">Actor group</text>
<rect x="272" y="1539" width="26" height="14" rx="3" fill="#fbf4e9" stroke="#c17d1c"/>
<text x="304" y="1550" font-size="10" fill="#17202c">System</text>
<rect x="368" y="1539" width="26" height="14" rx="3" fill="#fdfaf0" stroke="#cf9f2f"/>
<text x="400" y="1550" font-size="10" fill="#17202c">Layer</text>
<rect x="458" y="1539" width="26" height="14" rx="3" fill="#ffffff" stroke="#48546a"/>
<text x="490" y="1550" font-size="10" fill="#17202c">Functional block</text>
<rect x="606" y="1539" width="26" height="14" rx="3" fill="#f4eff8" stroke="#8659a6" stroke-dasharray="5 3"/>
<text x="638" y="1550" font-size="10" fill="#17202c">External system</text>
<line x1="150" y1="1569" x2="176" y2="1569" stroke="#5a6675" stroke-width="1.3" marker-end="url(#arr)"/>
<text x="182" y="1573" font-size="10" fill="#17202c">Functional flow (label = exchanged data)</text>
<rect x="480" y="1562" width="96" height="15" rx="7.5" fill="#fff2d4" stroke="#d3a01f"/>
<text x="528" y="1573" font-size="9.5" text-anchor="middle" fill="#6a5111" font-weight="bold">Business object</text>
<text x="584" y="1573" font-size="10" fill="#17202c">carried by the flow</text>
<text x="150" y="1597" font-size="10" fill="#17202c" font-style="italic">Claim files are retained for 10 years (legal obligation)</text>
</svg>
