<svg xmlns="http://www.w3.org/2000/svg" viewBox="0 0 1051 1710" font-family="Helvetica,Arial,sans-serif">
<defs><marker id="arr" viewBox="0 0 10 10" refX="9" refY="5" markerWidth="7" markerHeight="7" orient="auto-start-reverse">
<path d="M0,0 L10,5 L0,10 z" fill="#444444"/></marker></defs>
<rect width="1051" height="1710" fill="white"/>
<rect x="250" y="79" width="253" height="98" rx="6" fill="#eef4fb" stroke="#7a9cc4" stroke-width="1.2" stroke-dasharray="5 3"/>
<text x="260" y="97" font-size="12" font-weight="bold" fill="#333">Policyholders</text>
<rect x="580" y="55" width="264" height="109" rx="6" fill="#eef4fb" stroke="#7a9cc4" stroke-width="1.2" stroke-dasharray="5 3"/>
<text x="590" y="73" font-size="12" font-weight="bold" fill="#333">Case handlers</text>
<rect x="105" y="312" width="607.3333333333333" height="919" rx="6" fill="#f6f2ea" stroke="#b09a6d" stroke-width="1.2"/>
<text x="115" y="330" font-size="12" font-weight="bold" fill="#333">Claims information system</text>
<rect x="128" y="347" width="489" height="93" rx="6" fill="#fdfbf6" stroke="#c4b258" stroke-width="1"/>
<text x="138" y="365" font-size="12" font-weight="bold" fill="#333">Reporting layer</text>
<rect x="314.99999999999994" y="536.5" width="374.33333333333337" height="376" rx="6" fill="#fdfbf6" stroke="#c4b258" stroke-width="1"/>
<text x="324.99999999999994" y="554.5" font-size="12" font-weight="bold" fill="#333">Investigation layer</text>
<rect x="371.66666666666663" y="993.5" width="231.33333333333334" height="220.5" rx="6" fill="#fdfbf6" stroke="#c4b258" stroke-width="1"/>
<text x="381.66666666666663" y="1011.5" font-size="12" font-weight="bold" fill="#333">Settlement layer</text>
<rect x="119" y="1366" width="484" height="93" rx="6" fill="#f0eef5" stroke="#9187b3" stroke-width="1.2" stroke-dasharray="5 3"/>
<text x="129" y="1384" font-size="12" font-weight="bold" fill="#333">External systems</text>
<circle cx="303" cy="119" r="7" fill="none" stroke="#445566" stroke-width="1.5"/>
<path d="M 292 141 q 11 -19 22 0" fill="none" stroke="#445566" stroke-width="1.5"/>
<text x="303" y="153" font-size="10" text-anchor="middle" fill="#223344">Policyholder</text>
<circle cx="427.5" cy="119" r="7" fill="none" stroke="#445566" stroke-width="1.5"/>
<path d="M 416.5 141 q 11 -19 22 0" fill="none" stroke="#445566" stroke-width="1.5"/>
<text x="427.5" y="153" font-size="10" text-anchor="middle" fill="#223344">Involved third party</text>
<circle cx="624" cy="95" r="7" fill="none" stroke="#445566" stroke-width="1.5"/>
<path d="M 613 117 q 11 -19 22 0" fill="none" stroke="#445566" stroke-width="1.5"/>
<text x="624" y="129" font-size="10" text-anchor="middle" fill="#223344">Claims</text>
<text x="624" y="140" font-size="10" text-anchor="middle" fill="#223344">handler</text>
<circle cx="708.5" cy="95" r="7" fill="none" stroke="#445566" stroke-width="1.5"/>
<path d="M 697.5 117 q 11 -19 22 0" fill="none" stroke="#445566" stroke-width="1.5"/>
<text x="708.5" y="129" font-size="10" text-anchor="middle" fill="#223344">Appointed</text>
<text x="708.5" y="140" font-size="10" text-anchor="middle" fill="#223344">expert</text>
<circle cx="796.5" cy="95" r="7" fill="none" stroke="#445566" stroke-width="1.5"/>
<path d="M 785.5 117 q 11 -19 22 0" fill="none" stroke="#445566" stroke-width="1.5"/>
<text x="796.5" y="129" font-size="10" text-anchor="middle" fill="#223344">Settlement</text>
<text x="796.5" y="140" font-size="10" text-anchor="middle" fill="#223344">supervisor</text>
<rect x="305" y="377" width="140" height="51" rx="4" fill="#ffffff" stroke="#666677" stroke-width="1.3"/>
<text x="375" y="399.75" font-size="11.5" text-anchor="middle" fill="#222233">Online</text>
<text x="375" y="413.25" font-size="11.5" text-anchor="middle" fill="#222233">reporting</text>
<rect x="465" y="377" width="140" height="51" rx="4" fill="#ffffff" stroke="#666677" stroke-width="1.3"/>
<text x="535" y="399.75" font-size="11.5" text-anchor="middle" fill="#222233">Phone</text>
<text x="535" y="413.25" font-size="11.5" text-anchor="middle" fill="#222233">reporting</text>
<rect x="140" y="377" width="145" height="51" rx="4" fill="#ffffff" stroke="#666677" stroke-width="1.3"/>
<text x="212.5" y="399.75" font-size="11.5" text-anchor="middle" fill="#222233">Supporting-document</text>
<text x="212.5" y="413.25" font-size="11.5" text-anchor="middle" fill="#222233">collection</text>
<rect x="427.66666666666663" y="727.5" width="140" height="51" rx="4" fill="#ffffff" stroke="#666677" stroke-width="1.3"/>
<text x="497.66666666666663" y="750.25" font-size="11.5" text-anchor="middle" fill="#222233">Claim-file</text>
<text x="497.66666666666663" y="763.75" font-size="11.5" text-anchor="middle" fill="#222233">management</text>
<rect x="451" y="566.5" width="140" height="51" rx="4" fill="#ffffff" stroke="#666677" stroke-width="1.3"/>
<text x="521" y="589.25" font-size="11.5" text-anchor="middle" fill="#222233">Assessment</text>
<text x="521" y="602.75" font-size="11.5" text-anchor="middle" fill="#222233">tracking</text>
<rect x="347.66666666666663" y="849.5" width="140" height="51" rx="4" fill="#ffffff" stroke="#666677" stroke-width="1.3"/>
<text x="417.66666666666663" y="872.25" font-size="11.5" text-anchor="middle" fill="#222233">Fraud</text>
<text x="417.66666666666663" y="885.75" font-size="11.5" text-anchor="middle" fill="#222233">detection</text>
<rect x="451" y="1023.5" width="140" height="51" rx="4" fill="#ffffff" stroke="#666677" stroke-width="1.3"/>
<text x="521" y="1046.25" font-size="11.5" text-anchor="middle" fill="#222233">Compensation</text>
<text x="521" y="1059.75" font-size="11.5" text-anchor="middle" fill="#222233">calculation</text>
<rect x="427.66666666666663" y="1151" width="140" height="51" rx="4" fill="#ffffff" stroke="#666677" stroke-width="1.3"/>
<text x="497.66666666666663" y="1173.75" font-size="11.5" text-anchor="middle" fill="#222233">Payment</text>
<text x="497.66666666666663" y="1187.25" font-size="11.5" text-anchor="middle" fill="#222233">scheduling</text>
<rect x="451" y="1396" width="140" height="51" rx="4" fill="#ffffff" stroke="#666677" stroke-width="1.3"/>
<text x="521" y="1418.75" font-size="11.5" text-anchor="middle" fill="#222233">Banking system</text>
<text x="521" y="1432.25" font-size="11.5" text-anchor="middle" fill="#222233">(transfers)</text>
<rect x="291" y="1396" width="140" height="51" rx="4" fill="#ffffff" stroke="#666677" stroke-width="1.3"/>
<text x="361" y="1418.75" font-size="11.5" text-anchor="middle" fill="#222233">Inter-insurer</text>
<text x="361" y="1432.25" font-size="11.5" text-anchor="middle" fill="#222233">files</text>
<rect x="131" y="1396" width="140" height="51" rx="4" fill="#ffffff" stroke="#666677" stroke-width="1.3"/>
<text x="201" y="1418.75" font-size="11.5" text-anchor="middle" fill="#222233">Group</text>
<text x="201" y="1432.25" font-size="11.5" text-anchor="middle" fill="#222233">ECM</text>
<path d="M 316.6666666666667 165 L 317 182 L 317 273 L 375 273 L 375 377" fill="none" stroke="#444444" stroke-width="1.3" marker-end="url(#arr)"/>
<text x="269.5" y="237.5" font-size="10.5" text-anchor="middle" fill="#333" font-style="italic" stroke="white" stroke-width="2.5" paint-order="stroke" stroke-linejoin="round">Report a claim</text>
<rect x="248" y="245.5" width="43" height="15" rx="7.5" fill="#fdf3d8" stroke="#c9a227" stroke-width="1"/>
<text x="269.5" y="256.5" font-size="9.5" text-anchor="middle" fill="#7a6216" font-weight="bold">Claim</text>
<path d="M 427.5 165 L 428 182 L 428 192 L 444 192 L 444 267 L 535 267 L 535 377" fill="none" stroke="#444444" stroke-width="1.3" marker-end="url(#arr)"/>
<text x="385" y="250.5" font-size="10.5" text-anchor="middle" fill="#333" font-style="italic" stroke="white" stroke-width="2.5" paint-order="stroke" stroke-linejoin="round">Report involvement</text>
<path d="M 289.3333333333333 165 L 289 182 L 289 216 L 213 216 L 212.5 307 L 212.5 377" fill="none" stroke="#444444" stroke-width="1.3" marker-end="url(#arr)"/>
<text x="168.5" y="237.5" font-size="10.5" text-anchor="middle" fill="#333" font-style="italic" stroke="white" stroke-width="2.5" paint-order="stroke" stroke-linejoin="round">Upload photos</text>
<text x="168.5" y="251" font-size="10.5" text-anchor="middle" fill="#333" font-style="italic" stroke="white" stroke-width="2.5" paint-order="stroke" stroke-linejoin="round">and documents</text>
<path d="M 212.5 428 L 213 1236 L 213 1351 L 201 1351 L 201 1396" fill="none" stroke="#444444" stroke-width="1.3" marker-end="url(#arr)"/>
<text x="157" y="1310.5" font-size="10.5" text-anchor="middle" fill="#333" font-style="italic" stroke="white" stroke-width="2.5" paint-order="stroke" stroke-linejoin="round">Archive documents</text>
<path d="M 375 428 L 375 717.5 L 450.99999999999994 717.5 L 450.99999999999994 727.5" fill="none" stroke="#444444" stroke-width="1.3" marker-end="url(#arr)"/>
<text x="317" y="476.5" font-size="10.5" text-anchor="middle" fill="#333" font-style="italic" stroke="white" stroke-width="2.5" paint-order="stroke" stroke-linejoin="round">Open the case file</text>
<rect x="285" y="484.5" width="64" height="15" rx="7.5" fill="#fdf3d8" stroke="#c9a227" stroke-width="1"/>
<text x="317" y="495.5" font-size="9.5" text-anchor="middle" fill="#7a6216" font-weight="bold">Case file</text>
<path d="M 535 428 L 535 455 L 386 455 L 386 707.5 L 474.3333333333333 707.5 L 474.3333333333333 727.5" fill="none" stroke="#444444" stroke-width="1.3" marker-end="url(#arr)"/>
<text x="445" y="479.25" font-size="10.5" text-anchor="middle" fill="#333" font-style="italic" stroke="white" stroke-width="2.5" paint-order="stroke" stroke-linejoin="round">Open the case file</text>
<text x="445" y="492.75" font-size="10.5" text-anchor="middle" fill="#333" font-style="italic" stroke="white" stroke-width="2.5" paint-order="stroke" stroke-linejoin="round">(phone channel)</text>
<path d="M 462.66666666666663 778.5 L 462.66666666666663 788.5 L 440.99999999999994 788.5 L 440.99999999999994 849.5" fill="none" stroke="#444444" stroke-width="1.3" marker-end="url(#arr)"/>
<text x="388.49999999999994" y="810" font-size="10.5" text-anchor="middle" fill="#333" font-style="italic" stroke="white" stroke-width="2.5" paint-order="stroke" stroke-linejoin="round">Systematic check</text>
<text x="388.49999999999994" y="823.5" font-size="10.5" text-anchor="middle" fill="#333" font-style="italic" stroke="white" stroke-width="2.5" paint-order="stroke" stroke-linejoin="round">at opening</text>
<path d="M 417.66666666666663 900.5 L 417.66666666666663 927.5 L 360.66666666666663 927.5 L 361 1236 L 361 1396" fill="none" stroke="#444444" stroke-width="1.3" marker-end="url(#arr)"/>
<text x="296" y="1291.5" font-size="10.5" text-anchor="middle" fill="#333" font-style="italic" stroke="white" stroke-width="2.5" paint-order="stroke" stroke-linejoin="round">Query claims-history</text>
<text x="296" y="1305" font-size="10.5" text-anchor="middle" fill="#333" font-style="italic" stroke="white" stroke-width="2.5" paint-order="stroke" stroke-linejoin="round">files</text>
<path d="M 361 1447 L 361 1474 L 92 1474 L 92 297 L 117 297 L 117 511.5 L 326.99999999999994 511.5 L 326.99999999999994 839.5 L 394.33333333333326 839.5 L 394.33333333333326 849.5" fill="none" stroke="#444444" stroke-width="1.3" marker-end="url(#arr)"/>
<text x="50.5" y="1372.5" font-size="10.5" text-anchor="middle" fill="#333" font-style="italic" stroke="white" stroke-width="2.5" paint-order="stroke" stroke-linejoin="round">Policyholder</text>
<text x="50.5" y="1386" font-size="10.5" text-anchor="middle" fill="#333" font-style="italic" stroke="white" stroke-width="2.5" paint-order="stroke" stroke-linejoin="round">history</text>
<path d="M 544.3333333333333 727.5 L 544.3333333333333 617.5" fill="none" stroke="#444444" stroke-width="1.3" marker-end="url(#arr)"/>
<text x="612.3333333333333" y="658.5" font-size="10.5" text-anchor="middle" fill="#333" font-style="italic" stroke="white" stroke-width="2.5" paint-order="stroke" stroke-linejoin="round">Assessment mission</text>
<text x="612.3333333333333" y="672" font-size="10.5" text-anchor="middle" fill="#333" font-style="italic" stroke="white" stroke-width="2.5" paint-order="stroke" stroke-linejoin="round">if damage &gt; threshold</text>
<path d="M 708.5 152 L 709 169 L 709 273 L 638 273 L 638 521.5 L 521 521.5 L 521 566.5" fill="none" stroke="#444444" stroke-width="1.3" marker-end="url(#arr)"/>
<text x="650.5" y="224.5" font-size="10.5" text-anchor="middle" fill="#333" font-style="italic" stroke="white" stroke-width="2.5" paint-order="stroke" stroke-linejoin="round">Submit assessment</text>
<text x="650.5" y="238" font-size="10.5" text-anchor="middle" fill="#333" font-style="italic" stroke="white" stroke-width="2.5" paint-order="stroke" stroke-linejoin="round">report</text>
<rect x="597" y="246" width="107" height="15" rx="7.5" fill="#fdf3d8" stroke="#c9a227" stroke-width="1"/>
<text x="650.5" y="257" font-size="9.5" text-anchor="middle" fill="#7a6216" font-weight="bold">Assessment report</text>
<path d="M 497.66666666666663 617.5 L 497.66666666666663 627.5 L 521 627.5 L 521 727.5" fill="none" stroke="#444444" stroke-width="1.3" marker-end="url(#arr)"/>
<text x="463.5" y="649" font-size="10.5" text-anchor="middle" fill="#333" font-style="italic" stroke="white" stroke-width="2.5" paint-order="stroke" stroke-linejoin="round">Assessment</text>
<text x="463.5" y="662.5" font-size="10.5" text-anchor="middle" fill="#333" font-style="italic" stroke="white" stroke-width="2.5" paint-order="stroke" stroke-linejoin="round">conclusions</text>
<rect x="410" y="670.5" width="107" height="15" rx="7.5" fill="#fdf3d8" stroke="#c9a227" stroke-width="1"/>
<text x="463.5" y="681.5" font-size="9.5" text-anchor="middle" fill="#7a6216" font-weight="bold">Assessment report</text>
<path d="M 624 152 L 624 203 L 583 203 L 583 273 L 627 273 L 627 511.5 L 397 511.5 L 397 697.5 L 497.66666666666663 697.5 L 497.66666666666663 727.5" fill="none" stroke="#444444" stroke-width="1.3" marker-end="url(#arr)"/>
<text x="518" y="237.5" font-size="10.5" text-anchor="middle" fill="#333" font-style="italic" stroke="white" stroke-width="2.5" paint-order="stroke" stroke-linejoin="round">Investigation and</text>
<text x="518" y="251" font-size="10.5" text-anchor="middle" fill="#333" font-style="italic" stroke="white" stroke-width="2.5" paint-order="stroke" stroke-linejoin="round">management decisions</text>
<path d="M 497.66666666666663 778.5 L 497.66666666666663 1023.5" fill="none" stroke="#444444" stroke-width="1.3" marker-end="url(#arr)"/>
<text x="451.16666666666663" y="949" font-size="10.5" text-anchor="middle" fill="#333" font-style="italic" stroke="white" stroke-width="2.5" paint-order="stroke" stroke-linejoin="round">Approved items</text>
<text x="451.16666666666663" y="962.5" font-size="10.5" text-anchor="middle" fill="#333" font-style="italic" stroke="white" stroke-width="2.5" paint-order="stroke" stroke-linejoin="round">for pricing</text>
<path d="M 544.3333333333333 1074.5 L 544.3333333333333 1084.5 L 577.6666666666666 1084.5 L 578 1236 L 578 1256 L 946 1256 L 946 40 L 797 40 L 796.5 50 L 796.5 85" fill="none" stroke="#444444" stroke-width="1.3" marker-end="url(#arr)"/>
<text x="890" y="318.5" font-size="10.5" text-anchor="middle" fill="#333" font-style="italic" stroke="white" stroke-width="2.5" paint-order="stroke" stroke-linejoin="round">Approval request</text>
<text x="890" y="332" font-size="10.5" text-anchor="middle" fill="#333" font-style="italic" stroke="white" stroke-width="2.5" paint-order="stroke" stroke-linejoin="round">beyond delegation</text>
<path d="M 796.5 152 L 797 169 L 797 179 L 825 179 L 825 283 L 699 283 L 699.3333333333333 307 L 699.3333333333333 978.5 L 618 978.5 A 5 5 0 0 0 608 978.5 L 544.3333333333333 978.5 L 544.3333333333333 1023.5" fill="none" stroke="#444444" stroke-width="1.3" marker-end="url(#arr)"/>
<text x="771.5" y="224.5" font-size="10.5" text-anchor="middle" fill="#333" font-style="italic" stroke="white" stroke-width="2.5" paint-order="stroke" stroke-linejoin="round">Approval or</text>
<text x="771.5" y="238" font-size="10.5" text-anchor="middle" fill="#333" font-style="italic" stroke="white" stroke-width="2.5" paint-order="stroke" stroke-linejoin="round">reasoned refusal</text>
<path d="M 497.66666666666663 1074.5 L 497.66666666666663 1151" fill="none" stroke="#444444" stroke-width="1.3" marker-end="url(#arr)"/>
<text x="439.66666666666663" y="1106" font-size="10.5" text-anchor="middle" fill="#333" font-style="italic" stroke="white" stroke-width="2.5" paint-order="stroke" stroke-linejoin="round">Compensation order</text>
<rect x="399.66666666666663" y="1114" width="80" height="15" rx="7.5" fill="#fdf3d8" stroke="#c9a227" stroke-width="1"/>
<text x="439.66666666666663" y="1125" font-size="9.5" text-anchor="middle" fill="#7a6216" font-weight="bold">Compensation</text>
<path d="M 497.66666666666663 1202 L 498 1236 L 498 1327 L 521 1327 L 521 1396" fill="none" stroke="#444444" stroke-width="1.3" marker-end="url(#arr)"/>
<text x="453" y="1291.5" font-size="10.5" text-anchor="middle" fill="#333" font-style="italic" stroke="white" stroke-width="2.5" paint-order="stroke" stroke-linejoin="round">SEPA transfer</text>
<rect x="413" y="1299.5" width="80" height="15" rx="7.5" fill="#fdf3d8" stroke="#c9a227" stroke-width="1"/>
<text x="453" y="1310.5" font-size="9.5" text-anchor="middle" fill="#7a6216" font-weight="bold">Compensation</text>
<path d="M 532.6666666666666 778.5 L 532.6666666666666 927.5 L 613 927.5 L 613 1246 L 941 1246 A 5 5 0 0 1 951 1246 L 1038 1246 L 1038 30 L 303 30 L 303 109" fill="none" stroke="#444444" stroke-width="1.3" marker-end="url(#arr)"/>
<text x="996.4999999999999" y="318.5" font-size="10.5" text-anchor="middle" fill="#333" font-style="italic" stroke="white" stroke-width="2.5" paint-order="stroke" stroke-linejoin="round">Notify steps</text>
<text x="996.4999999999999" y="332" font-size="10.5" text-anchor="middle" fill="#333" font-style="italic" stroke="white" stroke-width="2.5" paint-order="stroke" stroke-linejoin="round">and decision</text>
<line x1="20" y1="1496" x2="1031" y2="1496" stroke="#ddd" stroke-width="1"/>
<text x="20" y="1518" font-size="11" font-weight="bold" fill="#555">BUSINESS OBJECTS</text>
<rect x="150" y="1508" width="43" height="15" rx="7.5" fill="#fdf3d8" stroke="#c9a227"/>
<text x="171.5" y="1519" font-size="9.5" text-anchor="middle" fill="#7a6216" font-weight="bold">Claim</text>
<text x="203" y="1519" font-size="10" fill="#666">— damaging event reported by a policyholder</text>
<rect x="150" y="1532" width="64" height="15" rx="7.5" fill="#fdf3d8" stroke="#c9a227"/>
<text x="182" y="1543" font-size="9.5" text-anchor="middle" fill="#7a6216" font-weight="bold">Case file</text>
<text x="224" y="1543" font-size="10" fill="#666">— file opened to investigate a claim</text>
<rect x="150" y="1556" width="107" height="15" rx="7.5" fill="#fdf3d8" stroke="#c9a227"/>
<text x="203.5" y="1567" font-size="9.5" text-anchor="middle" fill="#7a6216" font-weight="bold">Assessment report</text>
<text x="267" y="1567" font-size="10" fill="#666">— quantified conclusions of the appointed expert</text>
<rect x="150" y="1580" width="80" height="15" rx="7.5" fill="#fdf3d8" stroke="#c9a227"/>
<text x="190" y="1591" font-size="9.5" text-anchor="middle" fill="#7a6216" font-weight="bold">Compensation</text>
<text x="240" y="1591" font-size="10" fill="#666">— amount approved and paid to the policyholder</text>
<line x1="20" y1="1618" x2="1031" y2="1618" stroke="#ddd" stroke-width="1"/>
<text x="20" y="1640" font-size="11" font-weight="bold" fill="#555">LEGEND</text>
<rect x="150" y="1630" width="26" height="14" rx="3" fill="#eef4fb" stroke="#7a9cc4" stroke-dasharray="5 3"/>
<text x="182" y="1641" font-size="10" fill="#444">Actor group</text>
<rect x="272" y="1630" width="26" height="14" rx="3" fill="#f6f2ea" stroke="#b09a6d"/>
<text x="304" y="1641" font-size="10" fill="#444">System</text>
<rect x="368" y="1630" width="26" height="14" rx="3" fill="#fdfbf6" stroke="#c4b258"/>
<text x="400" y="1641" font-size="10" fill="#444">Layer</text>
<rect x="458" y="1630" width="26" height="14" rx="3" fill="#ffffff" stroke="#666677"/>
<text x="490" y="1641" font-size="10" fill="#444">Functional block</text>
<rect x="606" y="1630" width="26" height="14" rx="3" fill="#f0eef5" stroke="#9187b3" stroke-dasharray="5 3"/>
<text x="638" y="1641" font-size="10" fill="#444">External system</text>
<line x1="150" y1="1660" x2="176" y2="1660" stroke="#444444" stroke-width="1.3" marker-end="url(#arr)"/>
<text x="182" y="1664" font-size="10" fill="#444">Functional flow (label = exchanged data)</text>
<rect x="480" y="1653" width="96" height="15" rx="7.5" fill="#fdf3d8" stroke="#c9a227"/>
<text x="528" y="1664" font-size="9.5" text-anchor="middle" fill="#7a6216" font-weight="bold">Business object</text>
<text x="584" y="1664" font-size="10" fill="#444">carried by the flow</text>
<text x="150" y="1688" font-size="10" fill="#444" font-style="italic">Claim files are retained for 10 years (legal obligation)</text>
</svg>
