<svg xmlns="http://www.w3.org/2000/svg" viewBox="0 0 542 1005" font-family="Helvetica,Arial,sans-serif">
<defs><marker id="arr" viewBox="0 0 10 10" refX="9" refY="5" markerWidth="7" markerHeight="7" orient="auto-start-reverse">
<path d="M0,0 L10,5 L0,10 z" fill="#5a6675"/></marker></defs>
<rect width="542" height="1005" fill="#ffffff"/>
<rect x="66" y="22" width="119" height="90" rx="6" fill="#e9f2fb" stroke="#1f77b4" stroke-width="1.2" stroke-dasharray="5 3"/>
<text x="76" y="40" font-size="13" font-weight="bold" fill="#17202c">Claims actors</text>
<rect x="10" y="126" width="521.1666666666666" height="623" rx="6" fill="#fbf4e9" stroke="#c17d1c" stroke-width="1.2"/>
<text x="20" y="144" font-size="13" font-weight="bold" fill="#17202c">Claims platform</text>
<rect x="63.16666666666663" y="178" width="336" height="181.5" rx="6" fill="#e9f3fa" stroke="#2f83b6" stroke-width="1.2"/>
<text x="73.16666666666663" y="196" font-size="13" font-weight="bold" fill="#17202c">Claim intake</text>
<rect x="87" y="544.5" width="137" height="84" rx="6" fill="#e9f3fa" stroke="#2f83b6" stroke-width="1.2"/>
<text x="97" y="562.5" font-size="13" font-weight="bold" fill="#17202c">Assessment</text>
<circle cx="125.5" cy="59" r="7" fill="none" stroke="#1f5e91" stroke-width="1.5"/>
<path d="M 114.5 81 q 11 -19 22 0" fill="none" stroke="#1f5e91" stroke-width="1.5"/>
<text x="125.5" y="93" font-size="11" text-anchor="middle" fill="#20364c">Claims handler</text>
<rect x="72.16666666666663" y="205" width="108" height="47" rx="4" fill="#ffffff" stroke="#48546a" stroke-width="1.3"/>
<text x="126.16666666666663" y="225.25" font-size="12.5" text-anchor="middle" fill="#17202c">Claim</text>
<text x="126.16666666666663" y="239.75" font-size="12.5" text-anchor="middle" fill="#17202c">form</text>
<rect x="260.16666666666663" y="311.5" width="108" height="38" rx="4" fill="#ffffff" stroke="#48546a" stroke-width="1.3"/>
<text x="314.16666666666663" y="334.5" font-size="12.5" text-anchor="middle" fill="#17202c">Triage</text>
<rect x="96" y="571.5" width="108" height="47" rx="4" fill="#ffffff" stroke="#48546a" stroke-width="1.3"/>
<text x="150" y="591.75" font-size="12.5" text-anchor="middle" fill="#17202c">Risk</text>
<text x="150" y="606.25" font-size="12.5" text-anchor="middle" fill="#17202c">scoring</text>
<path d="M 122.33333333333333 433 h 92 a 8 23.5 0 0 1 0 47 h -92 a 8 23.5 0 0 1 0 -47" fill="#f4edf8" stroke="#8a53a8" stroke-width="1.3"/>
<ellipse cx="122.33333333333333" cy="456.5" rx="8" ry="23.5" fill="#f4edf8" stroke="#8a53a8" stroke-width="1.3"/>
<text x="172.33333333333331" y="453.25" font-size="12.5" text-anchor="middle" fill="#17202c">Task</text>
<text x="172.33333333333331" y="467.75" font-size="12.5" text-anchor="middle" fill="#17202c">queue</text>
<path d="M 242.33333333333331 441 v 33 a 54 7 0 0 0 108 0 v -33" fill="#f4edf8" stroke="#8a53a8" stroke-width="1.3"/>
<ellipse cx="296.3333333333333" cy="441" rx="54" ry="7" fill="#f4edf8" stroke="#8a53a8" stroke-width="1.3"/>
<text x="296.3333333333333" y="457.75" font-size="12.5" text-anchor="middle" fill="#17202c">Claim</text>
<text x="296.3333333333333" y="472.25" font-size="12.5" text-anchor="middle" fill="#17202c">store</text>
<path d="M 30.33333333333333 700 v 33 a 54 7 0 0 0 108 0 v -33" fill="#f4edf8" stroke="#8a53a8" stroke-width="1.3"/>
<ellipse cx="84.33333333333333" cy="700" rx="54" ry="7" fill="#f4edf8" stroke="#8a53a8" stroke-width="1.3"/>
<text x="84.33333333333333" y="716.75" font-size="12.5" text-anchor="middle" fill="#17202c">Audit</text>
<text x="84.33333333333333" y="731.25" font-size="12.5" text-anchor="middle" fill="#17202c">log</text>
<rect x="114" y="778" width="108" height="47" rx="4" fill="#f4eff8" stroke="#8659a6" stroke-width="1.2" stroke-dasharray="5 3"/>
<text x="168" y="798.25" font-size="12.5" text-anchor="middle" fill="#17202c">Reinsurer</text>
<text x="168" y="812.75" font-size="12.5" text-anchor="middle" fill="#17202c">(external)</text>
<path d="M 176 94 L 204.16666666666663 94 L 204.16666666666663 211 L 180.16666666666663 211" fill="none" stroke="#5a6675" stroke-width="1.3" marker-end="url(#arr)"/>
<path d="M 180.16666666666663 228.5 L 220.16666666666663 228.5 L 220.16666666666663 343.5 L 260.16666666666663 343.5" fill="none" stroke="#5a6675" stroke-width="1.3" marker-end="url(#arr)"/>
<path d="M 296.3333333333333 350.5 L 296.3333333333333 433" fill="none" stroke="#5a6675" stroke-width="1.3" marker-end="url(#arr)"/>
<path d="M 332.5 349.5 L 332.5 384.5 L 380.3333333333333 384.5 L 380.3333333333333 491 L 186.16666666666669 491 L 186.16666666666669 481" fill="none" stroke="#5a6675" stroke-width="1.3" marker-end="url(#arr)"/>
<path d="M 120.33333333333333 480 L 120.33333333333333 525.75 L 197 525.75 L 197 571.5" fill="none" stroke="#5a6675" stroke-width="1.3" marker-end="url(#arr)"/>
<path d="M 132 618.5 L 132 642.5 L 132.33333333333331 693" fill="none" stroke="#5a6675" stroke-width="1.3" marker-end="url(#arr)"/>
<path d="M 150 618.5 L 150 698.25 L 150 778" fill="none" stroke="#5a6675" stroke-width="1.3" stroke-dasharray="5 3" marker-end="url(#arr)"/>
<path d="M 314.16666666666663 310.5 L 314.16666666666663 300.5 L 379.16666666666663 300.5 L 379.16666666666663 374.5 L 391.3333333333333 374.5 L 391 801.5 L 223 801.5" fill="none" stroke="#5a6675" stroke-width="1.3" stroke-dasharray="2 2.5" marker-end="url(#arr)"/>
<path d="M 126.16666666666663 252 L 126.16666666666663 374.5 L 66 374.5 L 66 693" fill="none" stroke="#5a6675" stroke-width="1.3" marker-end="url(#arr)"/>
<path d="M 205 595 L 215 595 L 215 643.5 L 386.3333333333333 643.5 A 5 5 0 0 1 396.3333333333333 643.5 L 409.16666666666663 643.5 L 409.16666666666663 163 L 389.16666666666663 163 L 389.16666666666663 330.5 L 384.16666666666663 330.5 A 5 5 0 0 0 374.16666666666663 330.5 L 369.16666666666663 330.5" fill="none" stroke="#5a6675" stroke-width="1.3" marker-end="url(#arr)"/>
<text x="204.16666666666663" y="139.25" font-size="11.5" text-anchor="middle" fill="#3a4553" font-style="italic" stroke="#ffffff" stroke-width="4" paint-order="stroke" stroke-linejoin="round">(API_REST, JSON)</text>
<text x="220.16666666666663" y="289.25" font-size="11.5" text-anchor="middle" fill="#3a4553" font-style="italic" stroke="#ffffff" stroke-width="4" paint-order="stroke" stroke-linejoin="round">(API_REST, JSON)</text>
<text x="296.3333333333333" y="395" font-size="11.5" text-anchor="middle" fill="#3a4553" font-style="italic" stroke="#ffffff" stroke-width="4" paint-order="stroke" stroke-linejoin="round">(JDBC)</text>
<text x="283.25" y="494.25" font-size="11.5" text-anchor="middle" fill="#3a4553" font-style="italic" stroke="#ffffff" stroke-width="4" paint-order="stroke" stroke-linejoin="round">(MQ, JSON)</text>
<text x="120.33333333333333" y="506.125" font-size="11.5" text-anchor="middle" fill="#3a4553" font-style="italic" stroke="#ffffff" stroke-width="4" paint-order="stroke" stroke-linejoin="round">(MQ, JSON)</text>
<text x="132" y="633.75" font-size="11.5" text-anchor="middle" fill="#3a4553" font-style="italic" stroke="#ffffff" stroke-width="4" paint-order="stroke" stroke-linejoin="round">(JDBC)</text>
<text x="150" y="756.6875" font-size="11.5" text-anchor="middle" fill="#3a4553" font-style="italic" stroke="#ffffff" stroke-width="4" paint-order="stroke" stroke-linejoin="round">(SFTP, CSV)</text>
<text x="391.16666666666663" y="693.375" font-size="11.5" text-anchor="middle" fill="#3a4553" font-style="italic" stroke="#ffffff" stroke-width="4" paint-order="stroke" stroke-linejoin="round">(API_REST, JSON)</text>
<text x="66" y="537" font-size="11.5" text-anchor="middle" fill="#3a4553" font-style="italic" stroke="#ffffff" stroke-width="4" paint-order="stroke" stroke-linejoin="round">(JDBC)</text>
<text x="409.16666666666663" y="291" font-size="11.5" text-anchor="middle" fill="#3a4553" font-style="italic" stroke="#ffffff" stroke-width="4" paint-order="stroke" stroke-linejoin="round">(API_REST, JSON)</text>
<line x1="20" y1="845" x2="522" y2="845" stroke="#e6e9ee" stroke-width="1"/>
<text x="20" y="867" font-size="11" font-weight="bold" fill="#3a4553">LEGEND</text>
<rect x="150" y="857" width="26" height="14" rx="3" fill="#e9f2fb" stroke="#1f77b4" stroke-dasharray="5 3"/>
<text x="182" y="868" font-size="10" fill="#17202c">Actor group</text>
<rect x="272" y="857" width="26" height="14" rx="3" fill="#fbf4e9" stroke="#c17d1c"/>
<text x="304" y="868" font-size="10" fill="#17202c">System</text>
<rect x="150" y="879" width="26" height="14" rx="3" fill="#e9f3fa" stroke="#2f83b6"/>
<text x="182" y="890" font-size="10" fill="#17202c">Application</text>
<rect x="272" y="879" width="26" height="14" rx="3" fill="#ffffff" stroke="#48546a"/>
<text x="304" y="890" font-size="10" fill="#17202c">Application module</text>
<rect x="150" y="901" width="26" height="14" rx="3" fill="#f4edf8" stroke="#8a53a8"/>
<text x="182" y="912" font-size="10" fill="#17202c">Message queue / broker</text>
<rect x="150" y="923" width="26" height="14" rx="3" fill="#f4edf8" stroke="#8a53a8"/>
<text x="182" y="934" font-size="10" fill="#17202c">Datastore / registry</text>
<rect x="318" y="923" width="26" height="14" rx="3" fill="#f4eff8" stroke="#8659a6" stroke-dasharray="5 3"/>
<text x="350" y="934" font-size="10" fill="#17202c">External system</text>
<line x1="150" y1="975" x2="176" y2="975" stroke="#5a6675" stroke-width="1.3" marker-end="url(#arr)"/>
<text x="182" y="979" font-size="10" fill="#17202c">Application flow — (protocol, format) under the label</text>
</svg>
