<svg xmlns="http://www.w3.org/2000/svg" viewBox="0 0 429 1044" font-family="Helvetica,Arial,sans-serif">
<defs><marker id="arr" viewBox="0 0 10 10" refX="9" refY="5" markerWidth="7" markerHeight="7" orient="auto-start-reverse">
<path d="M0,0 L10,5 L0,10 z" fill="#5a6675"/></marker></defs>
<rect width="429" height="1044" fill="#ffffff"/>
<rect x="106" y="22" width="82" height="90" rx="6" fill="#e9f2fb" stroke="#1f77b4" stroke-width="1.2" stroke-dasharray="5 3"/>
<text x="116" y="40" font-size="13" font-weight="bold" fill="#17202c">Users</text>
<rect x="266" y="22" width="137" height="90" rx="6" fill="#e9f2fb" stroke="#1f77b4" stroke-width="1.2" stroke-dasharray="5 3"/>
<text x="276" y="40" font-size="13" font-weight="bold" fill="#17202c">Staff</text>
<rect x="106" y="188" width="313" height="415" rx="6" fill="#fbf4e9" stroke="#c17d1c" stroke-width="1.2"/>
<text x="116" y="206" font-size="13" font-weight="bold" fill="#17202c">Appointment booking system</text>
<rect x="157" y="220" width="126" height="83" rx="6" fill="#fdfaf0" stroke="#cf9f2f" stroke-width="1"/>
<text x="167" y="238" font-size="13" font-weight="bold" fill="#17202c">Presentation layer</text>
<rect x="175" y="390.5" width="235" height="198.5" rx="6" fill="#fdfaf0" stroke="#cf9f2f" stroke-width="1"/>
<text x="185" y="408.5" font-size="13" font-weight="bold" fill="#17202c">Business layer</text>
<rect x="193" y="650" width="126" height="74" rx="6" fill="#f4eff8" stroke="#8659a6" stroke-width="1.2" stroke-dasharray="5 3"/>
<text x="203" y="668" font-size="13" font-weight="bold" fill="#17202c">External systems</text>
<circle cx="147" cy="59" r="7" fill="none" stroke="#1f5e91" stroke-width="1.5"/>
<path d="M 136 81 q 11 -19 22 0" fill="none" stroke="#1f5e91" stroke-width="1.5"/>
<text x="147" y="93" font-size="11" text-anchor="middle" fill="#20364c">Patient</text>
<circle cx="334.5" cy="59" r="7" fill="none" stroke="#1f5e91" stroke-width="1.5"/>
<path d="M 323.5 81 q 11 -19 22 0" fill="none" stroke="#1f5e91" stroke-width="1.5"/>
<text x="334.5" y="93" font-size="11" text-anchor="middle" fill="#20364c">Medical secretary</text>
<rect x="166" y="247" width="108" height="47" rx="4" fill="#ffffff" stroke="#48546a" stroke-width="1.3"/>
<text x="220" y="267.25" font-size="12.5" text-anchor="middle" fill="#17202c">Booking</text>
<text x="220" y="281.75" font-size="12.5" text-anchor="middle" fill="#17202c">portal</text>
<rect x="184" y="417.5" width="108" height="47" rx="4" fill="#ffffff" stroke="#48546a" stroke-width="1.3"/>
<text x="238" y="437.75" font-size="12.5" text-anchor="middle" fill="#17202c">Slot</text>
<text x="238" y="452.25" font-size="12.5" text-anchor="middle" fill="#17202c">management</text>
<rect x="201" y="542" width="110" height="38" rx="4" fill="#ffffff" stroke="#48546a" stroke-width="1.3"/>
<text x="256" y="565" font-size="12.5" text-anchor="middle" fill="#17202c">Notifications</text>
<rect x="202" y="677" width="108" height="38" rx="4" fill="#ffffff" stroke="#48546a" stroke-width="1.3"/>
<text x="256" y="700" font-size="12.5" text-anchor="middle" fill="#17202c">SMS gateway</text>
<path d="M 147 103 L 147 253 L 166 253" fill="none" stroke="#5a6675" stroke-width="1.3" marker-end="url(#arr)"/>
<path d="M 220 294 L 220 355.75 L 220 417.5" fill="none" stroke="#5a6675" stroke-width="1.3" marker-end="url(#arr)"/>
<path d="M 256 464.5 L 256 542" fill="none" stroke="#5a6675" stroke-width="1.3" marker-end="url(#arr)"/>
<path d="M 256 580 L 256 677" fill="none" stroke="#5a6675" stroke-width="1.3" marker-end="url(#arr)"/>
<path d="M 334.5 103 L 334.5 441 L 292 441" fill="none" stroke="#5a6675" stroke-width="1.3" marker-end="url(#arr)"/>
<path d="M 184 441 L 96 441 L 96 76 L 115 76" fill="none" stroke="#5a6675" stroke-width="1.3" marker-end="url(#arr)"/>
<text x="147" y="138.25" font-size="11.5" text-anchor="middle" fill="#3a4553" font-style="italic" stroke="#ffffff" stroke-width="4" paint-order="stroke" stroke-linejoin="round">Search a slot</text>
<text x="147" y="152.75" font-size="11.5" text-anchor="middle" fill="#3a4553" font-style="italic" stroke="#ffffff" stroke-width="4" paint-order="stroke" stroke-linejoin="round">and book</text>
<rect x="128" y="160.75" width="38" height="15" rx="7.5" fill="#fff2d4" stroke="#d3a01f" stroke-width="1"/>
<text x="147" y="171.75" font-size="9.5" text-anchor="middle" fill="#6a5111" font-weight="bold">Slot</text>
<text x="220" y="328.125" font-size="11.5" text-anchor="middle" fill="#3a4553" font-style="italic" stroke="#ffffff" stroke-width="4" paint-order="stroke" stroke-linejoin="round">Booking request</text>
<rect x="182.5" y="336.125" width="75" height="15" rx="7.5" fill="#fff2d4" stroke="#d3a01f" stroke-width="1"/>
<text x="220" y="347.125" font-size="9.5" text-anchor="middle" fill="#6a5111" font-weight="bold">Appointment</text>
<text x="256" y="506.5" font-size="11.5" text-anchor="middle" fill="#3a4553" font-style="italic" stroke="#ffffff" stroke-width="4" paint-order="stroke" stroke-linejoin="round">Appointment confirmed</text>
<rect x="218.5" y="514.5" width="75" height="15" rx="7.5" fill="#fff2d4" stroke="#d3a01f" stroke-width="1"/>
<text x="256" y="525.5" font-size="9.5" text-anchor="middle" fill="#6a5111" font-weight="bold">Appointment</text>
<text x="256" y="631.75" font-size="11.5" text-anchor="middle" fill="#3a4553" font-style="italic" stroke="#ffffff" stroke-width="4" paint-order="stroke" stroke-linejoin="round">Send SMS reminder</text>
<text x="334.5" y="260.5" font-size="11.5" text-anchor="middle" fill="#3a4553" font-style="italic" stroke="#ffffff" stroke-width="4" paint-order="stroke" stroke-linejoin="round">Open / block</text>
<text x="334.5" y="275" font-size="11.5" text-anchor="middle" fill="#3a4553" font-style="italic" stroke="#ffffff" stroke-width="4" paint-order="stroke" stroke-linejoin="round">slots</text>
<rect x="315.5" y="283" width="38" height="15" rx="7.5" fill="#fff2d4" stroke="#d3a01f" stroke-width="1"/>
<text x="334.5" y="294" font-size="9.5" text-anchor="middle" fill="#6a5111" font-weight="bold">Slot</text>
<text x="96" y="247" font-size="11.5" text-anchor="middle" fill="#3a4553" font-style="italic" stroke="#ffffff" stroke-width="4" paint-order="stroke" stroke-linejoin="round">Appointment</text>
<text x="96" y="261.5" font-size="11.5" text-anchor="middle" fill="#3a4553" font-style="italic" stroke="#ffffff" stroke-width="4" paint-order="stroke" stroke-linejoin="round">confirmation</text>
<rect x="58.5" y="269.5" width="75" height="15" rx="7.5" fill="#fff2d4" stroke="#d3a01f" stroke-width="1"/>
<text x="96" y="280.5" font-size="9.5" text-anchor="middle" fill="#6a5111" font-weight="bold">Appointment</text>
<line x1="20" y1="744" x2="409" y2="744" stroke="#e6e9ee" stroke-width="1"/>
<text x="20" y="766" font-size="11" font-weight="bold" fill="#3a4553">BUSINESS OBJECTS</text>
<rect x="150" y="756" width="75" height="15" rx="7.5" fill="#fff2d4" stroke="#d3a01f"/>
<text x="187.5" y="767" font-size="9.5" text-anchor="middle" fill="#6a5111" font-weight="bold">Appointment</text>
<text x="235" y="767" font-size="10" fill="#79828f">— slot booked by a patient with a practitioner</text>
<rect x="150" y="780" width="38" height="15" rx="7.5" fill="#fff2d4" stroke="#d3a01f"/>
<text x="169" y="791" font-size="9.5" text-anchor="middle" fill="#6a5111" font-weight="bold">Slot</text>
<text x="198" y="791" font-size="10" fill="#79828f">— time window open for booking</text>
<rect x="150" y="804" width="96" height="15" rx="7.5" fill="#fff2d4" stroke="#d3a01f"/>
<text x="198" y="815" font-size="9.5" text-anchor="middle" fill="#6a5111" font-weight="bold">Business object</text>
<text x="256" y="815" font-size="10" fill="#79828f">carried by the flow</text>
<line x1="20" y1="842" x2="409" y2="842" stroke="#e6e9ee" stroke-width="1"/>
<text x="20" y="864" font-size="11" font-weight="bold" fill="#3a4553">LEGEND</text>
<rect x="150" y="854" width="26" height="14" rx="3" fill="#e9f2fb" stroke="#1f77b4" stroke-dasharray="5 3"/>
<text x="182" y="865" font-size="10" fill="#17202c">Actor group</text>
<rect x="150" y="876" width="26" height="14" rx="3" fill="#fbf4e9" stroke="#c17d1c"/>
<text x="182" y="887" font-size="10" fill="#17202c">System</text>
<rect x="150" y="898" width="26" height="14" rx="3" fill="#fdfaf0" stroke="#cf9f2f"/>
<text x="182" y="909" font-size="10" fill="#17202c">Layer</text>
<rect x="150" y="920" width="26" height="14" rx="3" fill="#ffffff" stroke="#48546a"/>
<text x="182" y="931" font-size="10" fill="#17202c">Functional block</text>
<rect x="150" y="942" width="26" height="14" rx="3" fill="#f4eff8" stroke="#8659a6" stroke-dasharray="5 3"/>
<text x="182" y="953" font-size="10" fill="#17202c">External system</text>
<line x1="150" y1="994" x2="176" y2="994" stroke="#5a6675" stroke-width="1.3" marker-end="url(#arr)"/>
<text x="182" y="998" font-size="10" fill="#17202c">Functional flow (label = exchanged data)</text>
<text x="150" y="1022" font-size="10" fill="#17202c" font-style="italic">Health data is stored on certified health-data-hosting infrastructure</text>
</svg>
