<svg xmlns="http://www.w3.org/2000/svg" viewBox="0 0 1405 496" font-family="Helvetica,Arial,sans-serif">
<defs><marker id="arr" viewBox="0 0 10 10" refX="9" refY="5" markerWidth="7" markerHeight="7" orient="auto-start-reverse">
<path d="M0,0 L10,5 L0,10 z" fill="#444444"/></marker></defs>
<rect width="1405" height="496" fill="white"/>
<rect x="58" y="96" width="88" height="98" rx="6" fill="#eef4fb" stroke="#7a9cc4" stroke-width="1.2" stroke-dasharray="5 3"/>
<text x="68" y="114" font-size="12" font-weight="bold" fill="#333">Users</text>
<rect x="12" y="210" width="134" height="98" rx="6" fill="#eef4fb" stroke="#7a9cc4" stroke-width="1.2" stroke-dasharray="5 3"/>
<text x="22" y="228" font-size="12" font-weight="bold" fill="#333">Staff</text>
<rect x="327" y="96" width="750" height="180.5" rx="6" fill="#f6f2ea" stroke="#b09a6d" stroke-width="1.2"/>
<text x="337" y="114" font-size="12" font-weight="bold" fill="#333">Appointment booking system</text>
<rect x="344" y="126" width="164" height="93" rx="6" fill="#fdfbf6" stroke="#c4b258" stroke-width="1"/>
<text x="354" y="144" font-size="12" font-weight="bold" fill="#333">Presentation layer</text>
<rect x="637" y="134.5" width="423" height="130" rx="6" fill="#fdfbf6" stroke="#c4b258" stroke-width="1"/>
<text x="647" y="152.5" font-size="12" font-weight="bold" fill="#333">Business layer</text>
<rect x="1229" y="146" width="164" height="88" rx="6" fill="#f0eef5" stroke="#9187b3" stroke-width="1.2" stroke-dasharray="5 3"/>
<text x="1239" y="164" font-size="12" font-weight="bold" fill="#333">External systems</text>
<circle cx="102" cy="136" r="7" fill="none" stroke="#445566" stroke-width="1.5"/>
<path d="M 91 158 q 11 -19 22 0" fill="none" stroke="#445566" stroke-width="1.5"/>
<text x="102" y="170" font-size="10" text-anchor="middle" fill="#223344">Patient</text>
<circle cx="79" cy="250" r="7" fill="none" stroke="#445566" stroke-width="1.5"/>
<path d="M 68 272 q 11 -19 22 0" fill="none" stroke="#445566" stroke-width="1.5"/>
<text x="79" y="284" font-size="10" text-anchor="middle" fill="#223344">Medical secretary</text>
<rect x="356" y="156" width="140" height="51" rx="4" fill="#ffffff" stroke="#666677" stroke-width="1.3"/>
<text x="426" y="178.75" font-size="11.5" text-anchor="middle" fill="#222233">Booking</text>
<text x="426" y="192.25" font-size="11.5" text-anchor="middle" fill="#222233">portal</text>
<rect x="649" y="164.5" width="140" height="51" rx="4" fill="#ffffff" stroke="#666677" stroke-width="1.3"/>
<text x="719" y="187.25" font-size="11.5" text-anchor="middle" fill="#222233">Slot</text>
<text x="719" y="200.75" font-size="11.5" text-anchor="middle" fill="#222233">management</text>
<rect x="908" y="175.5" width="140" height="46" rx="4" fill="#ffffff" stroke="#666677" stroke-width="1.3"/>
<text x="978" y="202.5" font-size="11.5" text-anchor="middle" fill="#222233">Notifications</text>
<rect x="1241" y="176" width="140" height="46" rx="4" fill="#ffffff" stroke="#666677" stroke-width="1.3"/>
<text x="1311" y="203" font-size="11.5" text-anchor="middle" fill="#222233">SMS gateway</text>
<path d="M 134 154 L 312 154 L 312 182 L 322 181.5 L 356 181.5" fill="none" stroke="#444444" stroke-width="1.3" marker-end="url(#arr)"/>
<text x="236.5" y="169.5" font-size="10.5" text-anchor="middle" fill="#333" font-style="italic" stroke="white" stroke-width="2.5" paint-order="stroke" stroke-linejoin="round">Search a slot</text>
<text x="236.5" y="183" font-size="10.5" text-anchor="middle" fill="#333" font-style="italic" stroke="white" stroke-width="2.5" paint-order="stroke" stroke-linejoin="round">and book</text>
<rect x="217.5" y="191" width="38" height="15" rx="7.5" fill="#fdf3d8" stroke="#c9a227" stroke-width="1"/>
<text x="236.5" y="202" font-size="9.5" text-anchor="middle" fill="#7a6216" font-weight="bold">Slot</text>
<path d="M 496 181.5 L 649 181.5" fill="none" stroke="#444444" stroke-width="1.3" marker-end="url(#arr)"/>
<text x="572.5" y="140" font-size="10.5" text-anchor="middle" fill="#333" font-style="italic" stroke="white" stroke-width="2.5" paint-order="stroke" stroke-linejoin="round">Booking</text>
<text x="572.5" y="153.5" font-size="10.5" text-anchor="middle" fill="#333" font-style="italic" stroke="white" stroke-width="2.5" paint-order="stroke" stroke-linejoin="round">request</text>
<rect x="535" y="161.5" width="75" height="15" rx="7.5" fill="#fdf3d8" stroke="#c9a227" stroke-width="1"/>
<text x="572.5" y="172.5" font-size="9.5" text-anchor="middle" fill="#7a6216" font-weight="bold">Appointment</text>
<path d="M 789 198.5 L 908 198.5" fill="none" stroke="#444444" stroke-width="1.3" marker-end="url(#arr)"/>
<text x="848.5" y="213" font-size="10.5" text-anchor="middle" fill="#333" font-style="italic" stroke="white" stroke-width="2.5" paint-order="stroke" stroke-linejoin="round">Appointment</text>
<text x="848.5" y="226.5" font-size="10.5" text-anchor="middle" fill="#333" font-style="italic" stroke="white" stroke-width="2.5" paint-order="stroke" stroke-linejoin="round">confirmed</text>
<rect x="811" y="234.5" width="75" height="15" rx="7.5" fill="#fdf3d8" stroke="#c9a227" stroke-width="1"/>
<text x="848.5" y="245.5" font-size="9.5" text-anchor="middle" fill="#7a6216" font-weight="bold">Appointment</text>
<path d="M 1048 198.5 L 1082 199 L 1241 199" fill="none" stroke="#444444" stroke-width="1.3" marker-end="url(#arr)"/>
<text x="1153" y="214.5" font-size="10.5" text-anchor="middle" fill="#333" font-style="italic" stroke="white" stroke-width="2.5" paint-order="stroke" stroke-linejoin="round">Send SMS</text>
<text x="1153" y="228" font-size="10.5" text-anchor="middle" fill="#333" font-style="italic" stroke="white" stroke-width="2.5" paint-order="stroke" stroke-linejoin="round">reminder</text>
<path d="M 134 268 L 161 268 L 161 229 L 622 229 L 622 198.5 L 649 198.5" fill="none" stroke="#444444" stroke-width="1.3" marker-end="url(#arr)"/>
<text x="233.5" y="244.5" font-size="10.5" text-anchor="middle" fill="#333" font-style="italic" stroke="white" stroke-width="2.5" paint-order="stroke" stroke-linejoin="round">Open / block</text>
<text x="233.5" y="258" font-size="10.5" text-anchor="middle" fill="#333" font-style="italic" stroke="white" stroke-width="2.5" paint-order="stroke" stroke-linejoin="round">slots</text>
<rect x="214.5" y="266" width="38" height="15" rx="7.5" fill="#fdf3d8" stroke="#c9a227" stroke-width="1"/>
<text x="233.5" y="277" font-size="9.5" text-anchor="middle" fill="#7a6216" font-weight="bold">Slot</text>
<path d="M 789 181.5 L 799 181.5 L 799 164.5 L 1082 165 L 1092 165 L 1092 84 L 43 84 L 43 154 L 70 154" fill="none" stroke="#444444" stroke-width="1.3" marker-end="url(#arr)"/>
<text x="361.5" y="41.5" font-size="10.5" text-anchor="middle" fill="#333" font-style="italic" stroke="white" stroke-width="2.5" paint-order="stroke" stroke-linejoin="round">Appointment</text>
<text x="361.5" y="55" font-size="10.5" text-anchor="middle" fill="#333" font-style="italic" stroke="white" stroke-width="2.5" paint-order="stroke" stroke-linejoin="round">confirmation</text>
<rect x="324" y="63" width="75" height="15" rx="7.5" fill="#fdf3d8" stroke="#c9a227" stroke-width="1"/>
<text x="361.5" y="74" font-size="9.5" text-anchor="middle" fill="#7a6216" font-weight="bold">Appointment</text>
<line x1="20" y1="330" x2="1385" y2="330" stroke="#ddd" stroke-width="1"/>
<text x="20" y="352" font-size="11" font-weight="bold" fill="#555">BUSINESS OBJECTS</text>
<rect x="150" y="342" width="75" height="15" rx="7.5" fill="#fdf3d8" stroke="#c9a227"/>
<text x="187.5" y="353" font-size="9.5" text-anchor="middle" fill="#7a6216" font-weight="bold">Appointment</text>
<text x="235" y="353" font-size="10" fill="#666">— slot booked by a patient with a practitioner</text>
<rect x="150" y="366" width="38" height="15" rx="7.5" fill="#fdf3d8" stroke="#c9a227"/>
<text x="169" y="377" font-size="9.5" text-anchor="middle" fill="#7a6216" font-weight="bold">Slot</text>
<text x="198" y="377" font-size="10" fill="#666">— time window open for booking</text>
<line x1="20" y1="404" x2="1385" y2="404" stroke="#ddd" stroke-width="1"/>
<text x="20" y="426" font-size="11" font-weight="bold" fill="#555">LEGEND</text>
<rect x="150" y="416" width="26" height="14" rx="3" fill="#eef4fb" stroke="#7a9cc4" stroke-dasharray="5 3"/>
<text x="182" y="427" font-size="10" fill="#444">Actor group</text>
<rect x="272" y="416" width="26" height="14" rx="3" fill="#f6f2ea" stroke="#b09a6d"/>
<text x="304" y="427" font-size="10" fill="#444">System</text>
<rect x="368" y="416" width="26" height="14" rx="3" fill="#fdfbf6" stroke="#c4b258"/>
<text x="400" y="427" font-size="10" fill="#444">Layer</text>
<rect x="458" y="416" width="26" height="14" rx="3" fill="#ffffff" stroke="#666677"/>
<text x="490" y="427" font-size="10" fill="#444">Functional block</text>
<rect x="606" y="416" width="26" height="14" rx="3" fill="#f0eef5" stroke="#9187b3" stroke-dasharray="5 3"/>
<text x="638" y="427" font-size="10" fill="#444">External system</text>
<line x1="150" y1="446" x2="176" y2="446" stroke="#444444" stroke-width="1.3" marker-end="url(#arr)"/>
<text x="182" y="450" font-size="10" fill="#444">Functional flow (label = exchanged data)</text>
<rect x="480" y="439" width="96" height="15" rx="7.5" fill="#fdf3d8" stroke="#c9a227"/>
<text x="528" y="450" font-size="9.5" text-anchor="middle" fill="#7a6216" font-weight="bold">Business object</text>
<text x="584" y="450" font-size="10" fill="#444">carried by the flow</text>
<text x="150" y="474" font-size="10" fill="#444" font-style="italic">Health data is stored on certified health-data-hosting infrastructure</text>
</svg>
