<svg xmlns="http://www.w3.org/2000/svg" viewBox="0 0 429 1075" font-family="Helvetica,Arial,sans-serif">
<defs><marker id="arr" viewBox="0 0 10 10" refX="9" refY="5" markerWidth="7" markerHeight="7" orient="auto-start-reverse">
<path d="M0,0 L10,5 L0,10 z" fill="#444444"/></marker></defs>
<rect width="429" height="1075" fill="white"/>
<rect x="106" y="37" width="82" height="90" rx="6" fill="#eef4fb" stroke="#7a9cc4" stroke-width="1.2" stroke-dasharray="5 3"/>
<text x="116" y="55" font-size="13" font-weight="bold" fill="#333">Users</text>
<rect x="266" y="37" width="137" height="90" rx="6" fill="#eef4fb" stroke="#7a9cc4" stroke-width="1.2" stroke-dasharray="5 3"/>
<text x="276" y="55" font-size="13" font-weight="bold" fill="#333">Staff</text>
<rect x="106" y="225" width="313" height="415" rx="6" fill="#f6f2ea" stroke="#b09a6d" stroke-width="1.2"/>
<text x="116" y="243" font-size="13" font-weight="bold" fill="#333">Appointment booking system</text>
<rect x="157" y="257" width="126" height="83" rx="6" fill="#fdfbf6" stroke="#c4b258" stroke-width="1"/>
<text x="167" y="275" font-size="13" font-weight="bold" fill="#333">Presentation layer</text>
<rect x="175" y="427.5" width="235" height="198.5" rx="6" fill="#fdfbf6" stroke="#c4b258" stroke-width="1"/>
<text x="185" y="445.5" font-size="13" font-weight="bold" fill="#333">Business layer</text>
<rect x="193" y="705" width="126" height="74" rx="6" fill="#f0eef5" stroke="#9187b3" stroke-width="1.2" stroke-dasharray="5 3"/>
<text x="203" y="723" font-size="13" font-weight="bold" fill="#333">External systems</text>
<circle cx="147" cy="74" r="7" fill="none" stroke="#445566" stroke-width="1.5"/>
<path d="M 136 96 q 11 -19 22 0" fill="none" stroke="#445566" stroke-width="1.5"/>
<text x="147" y="108" font-size="11" text-anchor="middle" fill="#223344">Patient</text>
<circle cx="334.5" cy="74" r="7" fill="none" stroke="#445566" stroke-width="1.5"/>
<path d="M 323.5 96 q 11 -19 22 0" fill="none" stroke="#445566" stroke-width="1.5"/>
<text x="334.5" y="108" font-size="11" text-anchor="middle" fill="#223344">Medical secretary</text>
<rect x="166" y="284" width="108" height="47" rx="4" fill="#ffffff" stroke="#666677" stroke-width="1.3"/>
<text x="220" y="304.25" font-size="12.5" text-anchor="middle" fill="#222233">Booking</text>
<text x="220" y="318.75" font-size="12.5" text-anchor="middle" fill="#222233">portal</text>
<rect x="184" y="454.5" width="108" height="47" rx="4" fill="#ffffff" stroke="#666677" stroke-width="1.3"/>
<text x="238" y="474.75" font-size="12.5" text-anchor="middle" fill="#222233">Slot</text>
<text x="238" y="489.25" font-size="12.5" text-anchor="middle" fill="#222233">management</text>
<rect x="201" y="579" width="110" height="38" rx="4" fill="#ffffff" stroke="#666677" stroke-width="1.3"/>
<text x="256" y="602" font-size="12.5" text-anchor="middle" fill="#222233">Notifications</text>
<rect x="202" y="732" width="108" height="38" rx="4" fill="#ffffff" stroke="#666677" stroke-width="1.3"/>
<text x="256" y="755" font-size="12.5" text-anchor="middle" fill="#222233">SMS gateway</text>
<path d="M 147 118 L 147 210 L 220 210 L 220 284" fill="none" stroke="#444444" stroke-width="1.3" marker-end="url(#arr)"/>
<text x="195" y="160.5" font-size="11.5" text-anchor="middle" fill="#333" font-style="italic" stroke="white" stroke-width="2.5" paint-order="stroke" stroke-linejoin="round">Search a slot</text>
<text x="195" y="175" font-size="11.5" text-anchor="middle" fill="#333" font-style="italic" stroke="white" stroke-width="2.5" paint-order="stroke" stroke-linejoin="round">and book</text>
<rect x="176" y="183" width="38" height="15" rx="7.5" fill="#fdf3d8" stroke="#c9a227" stroke-width="1"/>
<text x="195" y="194" font-size="9.5" text-anchor="middle" fill="#7a6216" font-weight="bold">Slot</text>
<path d="M 220 331 L 220 454.5" fill="none" stroke="#444444" stroke-width="1.3" marker-end="url(#arr)"/>
<text x="166.5" y="377.5" font-size="11.5" text-anchor="middle" fill="#333" font-style="italic" stroke="white" stroke-width="2.5" paint-order="stroke" stroke-linejoin="round">Booking request</text>
<rect x="129" y="385.5" width="75" height="15" rx="7.5" fill="#fdf3d8" stroke="#c9a227" stroke-width="1"/>
<text x="166.5" y="396.5" font-size="9.5" text-anchor="middle" fill="#7a6216" font-weight="bold">Appointment</text>
<path d="M 256 501.5 L 256 579" fill="none" stroke="#444444" stroke-width="1.3" marker-end="url(#arr)"/>
<text x="330" y="534" font-size="11.5" text-anchor="middle" fill="#333" font-style="italic" stroke="white" stroke-width="2.5" paint-order="stroke" stroke-linejoin="round">Appointment confirmed</text>
<rect x="292.5" y="542" width="75" height="15" rx="7.5" fill="#fdf3d8" stroke="#c9a227" stroke-width="1"/>
<text x="330" y="553" font-size="9.5" text-anchor="middle" fill="#7a6216" font-weight="bold">Appointment</text>
<path d="M 256 617 L 256 732" fill="none" stroke="#444444" stroke-width="1.3" marker-end="url(#arr)"/>
<text x="196" y="677.5" font-size="11.5" text-anchor="middle" fill="#333" font-style="italic" stroke="white" stroke-width="2.5" paint-order="stroke" stroke-linejoin="round">Send SMS reminder</text>
<path d="M 334.5 118 L 335 132 L 335 210 L 305 210 L 305 412.5 L 256 412.5 L 256 454.5" fill="none" stroke="#444444" stroke-width="1.3" marker-end="url(#arr)"/>
<text x="291" y="160.5" font-size="11.5" text-anchor="middle" fill="#333" font-style="italic" stroke="white" stroke-width="2.5" paint-order="stroke" stroke-linejoin="round">Open / block</text>
<text x="291" y="175" font-size="11.5" text-anchor="middle" fill="#333" font-style="italic" stroke="white" stroke-width="2.5" paint-order="stroke" stroke-linejoin="round">slots</text>
<rect x="272" y="183" width="38" height="15" rx="7.5" fill="#fdf3d8" stroke="#c9a227" stroke-width="1"/>
<text x="291" y="194" font-size="9.5" text-anchor="middle" fill="#7a6216" font-weight="bold">Slot</text>
<path d="M 220 501.5 L 220 511.5 L 190 511.5 L 190 655 L 96 655 L 96 22 L 147 22 L 147 64" fill="none" stroke="#444444" stroke-width="1.3" marker-end="url(#arr)"/>
<text x="52" y="232.5" font-size="11.5" text-anchor="middle" fill="#333" font-style="italic" stroke="white" stroke-width="2.5" paint-order="stroke" stroke-linejoin="round">Appointment</text>
<text x="52" y="247" font-size="11.5" text-anchor="middle" fill="#333" font-style="italic" stroke="white" stroke-width="2.5" paint-order="stroke" stroke-linejoin="round">confirmation</text>
<rect x="14.5" y="255" width="75" height="15" rx="7.5" fill="#fdf3d8" stroke="#c9a227" stroke-width="1"/>
<text x="52" y="266" font-size="9.5" text-anchor="middle" fill="#7a6216" font-weight="bold">Appointment</text>
<line x1="20" y1="799" x2="409" y2="799" stroke="#ddd" stroke-width="1"/>
<text x="20" y="821" font-size="11" font-weight="bold" fill="#555">BUSINESS OBJECTS</text>
<rect x="150" y="811" width="75" height="15" rx="7.5" fill="#fdf3d8" stroke="#c9a227"/>
<text x="187.5" y="822" font-size="9.5" text-anchor="middle" fill="#7a6216" font-weight="bold">Appointment</text>
<text x="235" y="822" font-size="10" fill="#666">— slot booked by a patient with a practitioner</text>
<rect x="150" y="835" width="38" height="15" rx="7.5" fill="#fdf3d8" stroke="#c9a227"/>
<text x="169" y="846" font-size="9.5" text-anchor="middle" fill="#7a6216" font-weight="bold">Slot</text>
<text x="198" y="846" font-size="10" fill="#666">— time window open for booking</text>
<line x1="20" y1="873" x2="409" y2="873" stroke="#ddd" stroke-width="1"/>
<text x="20" y="895" font-size="11" font-weight="bold" fill="#555">LEGEND</text>
<rect x="150" y="885" width="26" height="14" rx="3" fill="#eef4fb" stroke="#7a9cc4" stroke-dasharray="5 3"/>
<text x="182" y="896" font-size="10" fill="#444">Actor group</text>
<rect x="150" y="907" width="26" height="14" rx="3" fill="#f6f2ea" stroke="#b09a6d"/>
<text x="182" y="918" font-size="10" fill="#444">System</text>
<rect x="150" y="929" width="26" height="14" rx="3" fill="#fdfbf6" stroke="#c4b258"/>
<text x="182" y="940" font-size="10" fill="#444">Layer</text>
<rect x="150" y="951" width="26" height="14" rx="3" fill="#ffffff" stroke="#666677"/>
<text x="182" y="962" font-size="10" fill="#444">Functional block</text>
<rect x="150" y="973" width="26" height="14" rx="3" fill="#f0eef5" stroke="#9187b3" stroke-dasharray="5 3"/>
<text x="182" y="984" font-size="10" fill="#444">External system</text>
<line x1="150" y1="1025" x2="176" y2="1025" stroke="#444444" stroke-width="1.3" marker-end="url(#arr)"/>
<text x="182" y="1029" font-size="10" fill="#444">Functional flow (label = exchanged data)</text>
<rect x="480" y="1018" width="96" height="15" rx="7.5" fill="#fdf3d8" stroke="#c9a227"/>
<text x="528" y="1029" font-size="9.5" text-anchor="middle" fill="#7a6216" font-weight="bold">Business object</text>
<text x="584" y="1029" font-size="10" fill="#444">carried by the flow</text>
<text x="150" y="1053" font-size="10" fill="#444" font-style="italic">Health data is stored on certified health-data-hosting infrastructure</text>
</svg>
