<svg xmlns="http://www.w3.org/2000/svg" viewBox="0 0 1164 464" font-family="Helvetica,Arial,sans-serif">
<defs><marker id="arr" viewBox="0 0 10 10" refX="9" refY="5" markerWidth="7" markerHeight="7" orient="auto-start-reverse">
<path d="M0,0 L10,5 L0,10 z" fill="#5a6675"/></marker></defs>
<rect width="1164" height="464" fill="#ffffff"/>
<rect x="65" y="87" width="82" height="90" rx="6" fill="#e9f2fb" stroke="#1f77b4" stroke-width="1.2" stroke-dasharray="5 3"/>
<text x="75" y="105" font-size="13" font-weight="bold" fill="#17202c">Users</text>
<rect x="10" y="188" width="137" height="90" rx="6" fill="#e9f2fb" stroke="#1f77b4" stroke-width="1.2" stroke-dasharray="5 3"/>
<text x="20" y="206" font-size="13" font-weight="bold" fill="#17202c">Staff</text>
<rect x="283" y="87" width="645" height="171.66666666666669" rx="6" fill="#fbf4e9" stroke="#c17d1c" stroke-width="1.2"/>
<text x="293" y="105" font-size="13" font-weight="bold" fill="#17202c">Appointment booking system</text>
<rect x="297" y="118.5" width="126" height="83" rx="6" fill="#fdfaf0" stroke="#cf9f2f" stroke-width="1"/>
<text x="307" y="136.5" font-size="13" font-weight="bold" fill="#17202c">Presentation layer</text>
<rect x="559" y="126.33333333333333" width="355" height="123.33333333333334" rx="6" fill="#fdfaf0" stroke="#cf9f2f" stroke-width="1"/>
<text x="569" y="144.33333333333331" font-size="13" font-weight="bold" fill="#17202c">Business layer</text>
<rect x="1028" y="139" width="126" height="74" rx="6" fill="#f4eff8" stroke="#8659a6" stroke-width="1.2" stroke-dasharray="5 3"/>
<text x="1038" y="157" font-size="13" font-weight="bold" fill="#17202c">External systems</text>
<circle cx="106" cy="124" r="7" fill="none" stroke="#1f5e91" stroke-width="1.5"/>
<path d="M 95 146 q 11 -19 22 0" fill="none" stroke="#1f5e91" stroke-width="1.5"/>
<text x="106" y="158" font-size="11" text-anchor="middle" fill="#20364c">Patient</text>
<circle cx="78.5" cy="225" r="7" fill="none" stroke="#1f5e91" stroke-width="1.5"/>
<path d="M 67.5 247 q 11 -19 22 0" fill="none" stroke="#1f5e91" stroke-width="1.5"/>
<text x="78.5" y="259" font-size="11" text-anchor="middle" fill="#20364c">Medical secretary</text>
<rect x="306" y="145.5" width="108" height="47" rx="4" fill="#ffffff" stroke="#48546a" stroke-width="1.3"/>
<text x="360" y="165.75" font-size="12.5" text-anchor="middle" fill="#17202c">Booking</text>
<text x="360" y="180.25" font-size="12.5" text-anchor="middle" fill="#17202c">portal</text>
<rect x="568" y="153.33333333333331" width="108" height="47" rx="4" fill="#ffffff" stroke="#48546a" stroke-width="1.3"/>
<text x="622" y="173.58333333333331" font-size="12.5" text-anchor="middle" fill="#17202c">Slot</text>
<text x="622" y="188.08333333333331" font-size="12.5" text-anchor="middle" fill="#17202c">management</text>
<rect x="795" y="165.66666666666666" width="110" height="38" rx="4" fill="#ffffff" stroke="#48546a" stroke-width="1.3"/>
<text x="850" y="188.66666666666666" font-size="12.5" text-anchor="middle" fill="#17202c">Notifications</text>
<rect x="1037" y="166" width="108" height="38" rx="4" fill="#ffffff" stroke="#48546a" stroke-width="1.3"/>
<text x="1091" y="189" font-size="12.5" text-anchor="middle" fill="#17202c">SMS gateway</text>
<path d="M 138 141 L 268 141 L 268 169 L 306 169" fill="none" stroke="#5a6675" stroke-width="1.3" marker-end="url(#arr)"/>
<text x="213" y="156.5" font-size="11.5" text-anchor="middle" fill="#3a4553" font-style="italic" stroke="#ffffff" stroke-width="2.5" paint-order="stroke" stroke-linejoin="round">Search a slot</text>
<text x="213" y="171" font-size="11.5" text-anchor="middle" fill="#3a4553" font-style="italic" stroke="#ffffff" stroke-width="2.5" paint-order="stroke" stroke-linejoin="round">and book</text>
<rect x="194" y="179" width="38" height="15" rx="7.5" fill="#fff2d4" stroke="#d3a01f" stroke-width="1"/>
<text x="213" y="190" font-size="9.5" text-anchor="middle" fill="#6a5111" font-weight="bold">Slot</text>
<path d="M 414 169 L 568 169" fill="none" stroke="#5a6675" stroke-width="1.3" marker-end="url(#arr)"/>
<text x="494.5" y="126.5" font-size="11.5" text-anchor="middle" fill="#3a4553" font-style="italic" stroke="#ffffff" stroke-width="2.5" paint-order="stroke" stroke-linejoin="round">Booking</text>
<text x="494.5" y="141" font-size="11.5" text-anchor="middle" fill="#3a4553" font-style="italic" stroke="#ffffff" stroke-width="2.5" paint-order="stroke" stroke-linejoin="round">request</text>
<rect x="457" y="149" width="75" height="15" rx="7.5" fill="#fff2d4" stroke="#d3a01f" stroke-width="1"/>
<text x="494.5" y="160" font-size="9.5" text-anchor="middle" fill="#6a5111" font-weight="bold">Appointment</text>
<path d="M 676 184.66666666666666 L 795 184.66666666666666" fill="none" stroke="#5a6675" stroke-width="1.3" marker-end="url(#arr)"/>
<text x="735.5" y="200.16666666666666" font-size="11.5" text-anchor="middle" fill="#3a4553" font-style="italic" stroke="#ffffff" stroke-width="2.5" paint-order="stroke" stroke-linejoin="round">Appointment</text>
<text x="735.5" y="214.66666666666666" font-size="11.5" text-anchor="middle" fill="#3a4553" font-style="italic" stroke="#ffffff" stroke-width="2.5" paint-order="stroke" stroke-linejoin="round">confirmed</text>
<rect x="698" y="222.66666666666666" width="75" height="15" rx="7.5" fill="#fff2d4" stroke="#d3a01f" stroke-width="1"/>
<text x="735.5" y="233.66666666666666" font-size="9.5" text-anchor="middle" fill="#6a5111" font-weight="bold">Appointment</text>
<path d="M 905 184.66666666666666 L 933 185 L 1037 185" fill="none" stroke="#5a6675" stroke-width="1.3" marker-end="url(#arr)"/>
<text x="978" y="200.5" font-size="11.5" text-anchor="middle" fill="#3a4553" font-style="italic" stroke="#ffffff" stroke-width="2.5" paint-order="stroke" stroke-linejoin="round">Send SMS</text>
<text x="978" y="215" font-size="11.5" text-anchor="middle" fill="#3a4553" font-style="italic" stroke="#ffffff" stroke-width="2.5" paint-order="stroke" stroke-linejoin="round">reminder</text>
<path d="M 138 242 L 162 242 L 162 212 L 278 211.5 L 544 211.5 L 544 184.66666666666666 L 568 184.66666666666666" fill="none" stroke="#5a6675" stroke-width="1.3" marker-end="url(#arr)"/>
<text x="214" y="227.5" font-size="11.5" text-anchor="middle" fill="#3a4553" font-style="italic" stroke="#ffffff" stroke-width="2.5" paint-order="stroke" stroke-linejoin="round">Open / block</text>
<text x="214" y="242" font-size="11.5" text-anchor="middle" fill="#3a4553" font-style="italic" stroke="#ffffff" stroke-width="2.5" paint-order="stroke" stroke-linejoin="round">slots</text>
<rect x="195" y="250" width="38" height="15" rx="7.5" fill="#fff2d4" stroke="#d3a01f" stroke-width="1"/>
<text x="214" y="261" font-size="9.5" text-anchor="middle" fill="#6a5111" font-weight="bold">Slot</text>
<path d="M 676 168.99999999999997 L 686 168.99999999999997 L 686 154.66666666666666 L 933 155 L 943 155 L 943 77 L 50 77 L 50 141 L 74 141" fill="none" stroke="#5a6675" stroke-width="1.3" marker-end="url(#arr)"/>
<text x="320" y="34.5" font-size="11.5" text-anchor="middle" fill="#3a4553" font-style="italic" stroke="#ffffff" stroke-width="2.5" paint-order="stroke" stroke-linejoin="round">Appointment</text>
<text x="320" y="49" font-size="11.5" text-anchor="middle" fill="#3a4553" font-style="italic" stroke="#ffffff" stroke-width="2.5" paint-order="stroke" stroke-linejoin="round">confirmation</text>
<rect x="282.5" y="57" width="75" height="15" rx="7.5" fill="#fff2d4" stroke="#d3a01f" stroke-width="1"/>
<text x="320" y="68" font-size="9.5" text-anchor="middle" fill="#6a5111" font-weight="bold">Appointment</text>
<line x1="20" y1="298" x2="1144" y2="298" stroke="#e6e9ee" stroke-width="1"/>
<text x="20" y="320" font-size="11" font-weight="bold" fill="#3a4553">BUSINESS OBJECTS</text>
<rect x="150" y="310" width="75" height="15" rx="7.5" fill="#fff2d4" stroke="#d3a01f"/>
<text x="187.5" y="321" font-size="9.5" text-anchor="middle" fill="#6a5111" font-weight="bold">Appointment</text>
<text x="235" y="321" font-size="10" fill="#79828f">— slot booked by a patient with a practitioner</text>
<rect x="150" y="334" width="38" height="15" rx="7.5" fill="#fff2d4" stroke="#d3a01f"/>
<text x="169" y="345" font-size="9.5" text-anchor="middle" fill="#6a5111" font-weight="bold">Slot</text>
<text x="198" y="345" font-size="10" fill="#79828f">— time window open for booking</text>
<line x1="20" y1="372" x2="1144" y2="372" stroke="#e6e9ee" stroke-width="1"/>
<text x="20" y="394" font-size="11" font-weight="bold" fill="#3a4553">LEGEND</text>
<rect x="150" y="384" width="26" height="14" rx="3" fill="#e9f2fb" stroke="#1f77b4" stroke-dasharray="5 3"/>
<text x="182" y="395" font-size="10" fill="#17202c">Actor group</text>
<rect x="272" y="384" width="26" height="14" rx="3" fill="#fbf4e9" stroke="#c17d1c"/>
<text x="304" y="395" font-size="10" fill="#17202c">System</text>
<rect x="368" y="384" width="26" height="14" rx="3" fill="#fdfaf0" stroke="#cf9f2f"/>
<text x="400" y="395" font-size="10" fill="#17202c">Layer</text>
<rect x="458" y="384" width="26" height="14" rx="3" fill="#ffffff" stroke="#48546a"/>
<text x="490" y="395" font-size="10" fill="#17202c">Functional block</text>
<rect x="606" y="384" width="26" height="14" rx="3" fill="#f4eff8" stroke="#8659a6" stroke-dasharray="5 3"/>
<text x="638" y="395" font-size="10" fill="#17202c">External system</text>
<line x1="150" y1="414" x2="176" y2="414" stroke="#5a6675" stroke-width="1.3" marker-end="url(#arr)"/>
<text x="182" y="418" font-size="10" fill="#17202c">Functional flow (label = exchanged data)</text>
<rect x="480" y="407" width="96" height="15" rx="7.5" fill="#fff2d4" stroke="#d3a01f"/>
<text x="528" y="418" font-size="9.5" text-anchor="middle" fill="#6a5111" font-weight="bold">Business object</text>
<text x="584" y="418" font-size="10" fill="#17202c">carried by the flow</text>
<text x="150" y="442" font-size="10" fill="#17202c" font-style="italic">Health data is stored on certified health-data-hosting infrastructure</text>
</svg>
