<svg xmlns="http://www.w3.org/2000/svg" viewBox="0 0 1164 464" font-family="Helvetica,Arial,sans-serif">
<defs><marker id="arr" viewBox="0 0 10 10" refX="9" refY="5" markerWidth="7" markerHeight="7" orient="auto-start-reverse">
<path d="M0,0 L10,5 L0,10 z" fill="#444444"/></marker></defs>
<rect width="1164" height="464" fill="white"/>
<rect x="65" y="87" width="82" height="90" rx="6" fill="#eef4fb" stroke="#7a9cc4" stroke-width="1.2" stroke-dasharray="5 3"/>
<text x="75" y="105" font-size="13" font-weight="bold" fill="#333">Users</text>
<rect x="10" y="188" width="137" height="90" rx="6" fill="#eef4fb" stroke="#7a9cc4" stroke-width="1.2" stroke-dasharray="5 3"/>
<text x="20" y="206" font-size="13" font-weight="bold" fill="#333">Staff</text>
<rect x="283" y="87" width="645" height="171.66666666666669" rx="6" fill="#f6f2ea" stroke="#b09a6d" stroke-width="1.2"/>
<text x="293" y="105" font-size="13" font-weight="bold" fill="#333">Appointment booking system</text>
<rect x="297" y="118.5" width="126" height="83" rx="6" fill="#fdfbf6" stroke="#c4b258" stroke-width="1"/>
<text x="307" y="136.5" font-size="13" font-weight="bold" fill="#333">Presentation layer</text>
<rect x="559" y="126.33333333333333" width="355" height="123.33333333333334" rx="6" fill="#fdfbf6" stroke="#c4b258" stroke-width="1"/>
<text x="569" y="144.33333333333331" font-size="13" font-weight="bold" fill="#333">Business layer</text>
<rect x="1028" y="139" width="126" height="74" rx="6" fill="#f0eef5" stroke="#9187b3" stroke-width="1.2" stroke-dasharray="5 3"/>
<text x="1038" y="157" font-size="13" font-weight="bold" fill="#333">External systems</text>
<circle cx="106" cy="124" r="7" fill="none" stroke="#445566" stroke-width="1.5"/>
<path d="M 95 146 q 11 -19 22 0" fill="none" stroke="#445566" stroke-width="1.5"/>
<text x="106" y="158" font-size="11" text-anchor="middle" fill="#223344">Patient</text>
<circle cx="78.5" cy="225" r="7" fill="none" stroke="#445566" stroke-width="1.5"/>
<path d="M 67.5 247 q 11 -19 22 0" fill="none" stroke="#445566" stroke-width="1.5"/>
<text x="78.5" y="259" font-size="11" text-anchor="middle" fill="#223344">Medical secretary</text>
<rect x="306" y="145.5" width="108" height="47" rx="4" fill="#ffffff" stroke="#666677" stroke-width="1.3"/>
<text x="360" y="165.75" font-size="12.5" text-anchor="middle" fill="#222233">Booking</text>
<text x="360" y="180.25" font-size="12.5" text-anchor="middle" fill="#222233">portal</text>
<rect x="568" y="153.33333333333331" width="108" height="47" rx="4" fill="#ffffff" stroke="#666677" stroke-width="1.3"/>
<text x="622" y="173.58333333333331" font-size="12.5" text-anchor="middle" fill="#222233">Slot</text>
<text x="622" y="188.08333333333331" font-size="12.5" text-anchor="middle" fill="#222233">management</text>
<rect x="795" y="165.66666666666666" width="110" height="38" rx="4" fill="#ffffff" stroke="#666677" stroke-width="1.3"/>
<text x="850" y="188.66666666666666" font-size="12.5" text-anchor="middle" fill="#222233">Notifications</text>
<rect x="1037" y="166" width="108" height="38" rx="4" fill="#ffffff" stroke="#666677" stroke-width="1.3"/>
<text x="1091" y="189" font-size="12.5" text-anchor="middle" fill="#222233">SMS gateway</text>
<path d="M 138 141 L 268 141 L 268 169 L 306 169" fill="none" stroke="#444444" stroke-width="1.3" marker-end="url(#arr)"/>
<text x="213" y="156.5" font-size="11.5" text-anchor="middle" fill="#333" font-style="italic" stroke="white" stroke-width="2.5" paint-order="stroke" stroke-linejoin="round">Search a slot</text>
<text x="213" y="171" font-size="11.5" text-anchor="middle" fill="#333" font-style="italic" stroke="white" stroke-width="2.5" paint-order="stroke" stroke-linejoin="round">and book</text>
<rect x="194" y="179" width="38" height="15" rx="7.5" fill="#fdf3d8" stroke="#c9a227" stroke-width="1"/>
<text x="213" y="190" font-size="9.5" text-anchor="middle" fill="#7a6216" font-weight="bold">Slot</text>
<path d="M 414 169 L 568 169" fill="none" stroke="#444444" stroke-width="1.3" marker-end="url(#arr)"/>
<text x="494.5" y="126.5" font-size="11.5" text-anchor="middle" fill="#333" font-style="italic" stroke="white" stroke-width="2.5" paint-order="stroke" stroke-linejoin="round">Booking</text>
<text x="494.5" y="141" font-size="11.5" text-anchor="middle" fill="#333" font-style="italic" stroke="white" stroke-width="2.5" paint-order="stroke" stroke-linejoin="round">request</text>
<rect x="457" y="149" width="75" height="15" rx="7.5" fill="#fdf3d8" stroke="#c9a227" stroke-width="1"/>
<text x="494.5" y="160" font-size="9.5" text-anchor="middle" fill="#7a6216" font-weight="bold">Appointment</text>
<path d="M 676 184.66666666666666 L 795 184.66666666666666" fill="none" stroke="#444444" stroke-width="1.3" marker-end="url(#arr)"/>
<text x="735.5" y="200.16666666666666" font-size="11.5" text-anchor="middle" fill="#333" font-style="italic" stroke="white" stroke-width="2.5" paint-order="stroke" stroke-linejoin="round">Appointment</text>
<text x="735.5" y="214.66666666666666" font-size="11.5" text-anchor="middle" fill="#333" font-style="italic" stroke="white" stroke-width="2.5" paint-order="stroke" stroke-linejoin="round">confirmed</text>
<rect x="698" y="222.66666666666666" width="75" height="15" rx="7.5" fill="#fdf3d8" stroke="#c9a227" stroke-width="1"/>
<text x="735.5" y="233.66666666666666" font-size="9.5" text-anchor="middle" fill="#7a6216" font-weight="bold">Appointment</text>
<path d="M 905 184.66666666666666 L 933 185 L 1037 185" fill="none" stroke="#444444" stroke-width="1.3" marker-end="url(#arr)"/>
<text x="978" y="200.5" font-size="11.5" text-anchor="middle" fill="#333" font-style="italic" stroke="white" stroke-width="2.5" paint-order="stroke" stroke-linejoin="round">Send SMS</text>
<text x="978" y="215" font-size="11.5" text-anchor="middle" fill="#333" font-style="italic" stroke="white" stroke-width="2.5" paint-order="stroke" stroke-linejoin="round">reminder</text>
<path d="M 138 242 L 162 242 L 162 212 L 278 211.5 L 544 211.5 L 544 184.66666666666666 L 568 184.66666666666666" fill="none" stroke="#444444" stroke-width="1.3" marker-end="url(#arr)"/>
<text x="214" y="227.5" font-size="11.5" text-anchor="middle" fill="#333" font-style="italic" stroke="white" stroke-width="2.5" paint-order="stroke" stroke-linejoin="round">Open / block</text>
<text x="214" y="242" font-size="11.5" text-anchor="middle" fill="#333" font-style="italic" stroke="white" stroke-width="2.5" paint-order="stroke" stroke-linejoin="round">slots</text>
<rect x="195" y="250" width="38" height="15" rx="7.5" fill="#fdf3d8" stroke="#c9a227" stroke-width="1"/>
<text x="214" y="261" font-size="9.5" text-anchor="middle" fill="#7a6216" font-weight="bold">Slot</text>
<path d="M 676 168.99999999999997 L 686 168.99999999999997 L 686 154.66666666666666 L 933 155 L 943 155 L 943 77 L 50 77 L 50 141 L 74 141" fill="none" stroke="#444444" stroke-width="1.3" marker-end="url(#arr)"/>
<text x="320" y="34.5" font-size="11.5" text-anchor="middle" fill="#333" font-style="italic" stroke="white" stroke-width="2.5" paint-order="stroke" stroke-linejoin="round">Appointment</text>
<text x="320" y="49" font-size="11.5" text-anchor="middle" fill="#333" font-style="italic" stroke="white" stroke-width="2.5" paint-order="stroke" stroke-linejoin="round">confirmation</text>
<rect x="282.5" y="57" width="75" height="15" rx="7.5" fill="#fdf3d8" stroke="#c9a227" stroke-width="1"/>
<text x="320" y="68" font-size="9.5" text-anchor="middle" fill="#7a6216" font-weight="bold">Appointment</text>
<line x1="20" y1="298" x2="1144" y2="298" stroke="#ddd" stroke-width="1"/>
<text x="20" y="320" font-size="11" font-weight="bold" fill="#555">BUSINESS OBJECTS</text>
<rect x="150" y="310" width="75" height="15" rx="7.5" fill="#fdf3d8" stroke="#c9a227"/>
<text x="187.5" y="321" font-size="9.5" text-anchor="middle" fill="#7a6216" font-weight="bold">Appointment</text>
<text x="235" y="321" font-size="10" fill="#666">— slot booked by a patient with a practitioner</text>
<rect x="150" y="334" width="38" height="15" rx="7.5" fill="#fdf3d8" stroke="#c9a227"/>
<text x="169" y="345" font-size="9.5" text-anchor="middle" fill="#7a6216" font-weight="bold">Slot</text>
<text x="198" y="345" font-size="10" fill="#666">— time window open for booking</text>
<line x1="20" y1="372" x2="1144" y2="372" stroke="#ddd" stroke-width="1"/>
<text x="20" y="394" font-size="11" font-weight="bold" fill="#555">LEGEND</text>
<rect x="150" y="384" width="26" height="14" rx="3" fill="#eef4fb" stroke="#7a9cc4" stroke-dasharray="5 3"/>
<text x="182" y="395" font-size="10" fill="#444">Actor group</text>
<rect x="272" y="384" width="26" height="14" rx="3" fill="#f6f2ea" stroke="#b09a6d"/>
<text x="304" y="395" font-size="10" fill="#444">System</text>
<rect x="368" y="384" width="26" height="14" rx="3" fill="#fdfbf6" stroke="#c4b258"/>
<text x="400" y="395" font-size="10" fill="#444">Layer</text>
<rect x="458" y="384" width="26" height="14" rx="3" fill="#ffffff" stroke="#666677"/>
<text x="490" y="395" font-size="10" fill="#444">Functional block</text>
<rect x="606" y="384" width="26" height="14" rx="3" fill="#f0eef5" stroke="#9187b3" stroke-dasharray="5 3"/>
<text x="638" y="395" font-size="10" fill="#444">External system</text>
<line x1="150" y1="414" x2="176" y2="414" stroke="#444444" stroke-width="1.3" marker-end="url(#arr)"/>
<text x="182" y="418" font-size="10" fill="#444">Functional flow (label = exchanged data)</text>
<rect x="480" y="407" width="96" height="15" rx="7.5" fill="#fdf3d8" stroke="#c9a227"/>
<text x="528" y="418" font-size="9.5" text-anchor="middle" fill="#7a6216" font-weight="bold">Business object</text>
<text x="584" y="418" font-size="10" fill="#444">carried by the flow</text>
<text x="150" y="442" font-size="10" fill="#444" font-style="italic">Health data is stored on certified health-data-hosting infrastructure</text>
</svg>
