<svg xmlns="http://www.w3.org/2000/svg" viewBox="0 0 1161 470" font-family="Helvetica,Arial,sans-serif">
<defs><marker id="arr" viewBox="0 0 10 10" refX="9" refY="5" markerWidth="7" markerHeight="7" orient="auto-start-reverse">
<path d="M0,0 L10,5 L0,10 z" fill="#444444"/></marker></defs>
<rect width="1161" height="470" fill="white"/>
<rect x="56" y="85" width="84" height="94" rx="6" fill="#eef4fb" stroke="#7a9cc4" stroke-width="1.2" stroke-dasharray="5 3"/>
<text x="66" y="103" font-size="12" font-weight="bold" fill="#333">Users</text>
<rect x="10" y="190" width="130" height="94" rx="6" fill="#eef4fb" stroke="#7a9cc4" stroke-width="1.2" stroke-dasharray="5 3"/>
<text x="20" y="208" font-size="12" font-weight="bold" fill="#333">Staff</text>
<rect x="269" y="85" width="654" height="171" rx="6" fill="#f6f2ea" stroke="#b09a6d" stroke-width="1.2"/>
<text x="279" y="103" font-size="12" font-weight="bold" fill="#333">Appointment booking system</text>
<rect x="284" y="114" width="132" height="86" rx="6" fill="#fdfbf6" stroke="#c4b258" stroke-width="1"/>
<text x="294" y="132" font-size="12" font-weight="bold" fill="#333">Presentation layer</text>
<rect x="545" y="122" width="363" height="124" rx="6" fill="#fdfbf6" stroke="#c4b258" stroke-width="1"/>
<text x="555" y="140" font-size="12" font-weight="bold" fill="#333">Business layer</text>
<rect x="1019" y="134" width="132" height="78" rx="6" fill="#f0eef5" stroke="#9187b3" stroke-width="1.2" stroke-dasharray="5 3"/>
<text x="1029" y="152" font-size="12" font-weight="bold" fill="#333">External systems</text>
<circle cx="98" cy="123" r="7" fill="none" stroke="#445566" stroke-width="1.5"/>
<path d="M 87 145 q 11 -19 22 0" fill="none" stroke="#445566" stroke-width="1.5"/>
<text x="98" y="157" font-size="10" text-anchor="middle" fill="#223344">Patient</text>
<circle cx="75" cy="228" r="7" fill="none" stroke="#445566" stroke-width="1.5"/>
<path d="M 64 250 q 11 -19 22 0" fill="none" stroke="#445566" stroke-width="1.5"/>
<text x="75" y="262" font-size="10" text-anchor="middle" fill="#223344">Medical secretary</text>
<rect x="294" y="142" width="112" height="48" rx="4" fill="#ffffff" stroke="#666677" stroke-width="1.3"/>
<text x="350" y="163.25" font-size="11.5" text-anchor="middle" fill="#222233">Booking</text>
<text x="350" y="176.75" font-size="11.5" text-anchor="middle" fill="#222233">portal</text>
<rect x="555" y="150" width="112" height="48" rx="4" fill="#ffffff" stroke="#666677" stroke-width="1.3"/>
<text x="611" y="171.25" font-size="11.5" text-anchor="middle" fill="#222233">Slot</text>
<text x="611" y="184.75" font-size="11.5" text-anchor="middle" fill="#222233">management</text>
<rect x="786" y="162" width="112" height="40" rx="4" fill="#ffffff" stroke="#666677" stroke-width="1.3"/>
<text x="842" y="186" font-size="11.5" text-anchor="middle" fill="#222233">Notifications</text>
<rect x="1029" y="162" width="112" height="40" rx="4" fill="#ffffff" stroke="#666677" stroke-width="1.3"/>
<text x="1085" y="186" font-size="11.5" text-anchor="middle" fill="#222233">SMS gateway</text>
<path d="M 130 141 L 254 141 L 254 166 L 294 166" fill="none" stroke="#444444" stroke-width="1.3" marker-end="url(#arr)"/>
<text x="202.5" y="155.5" font-size="10.5" text-anchor="middle" fill="#333" font-style="italic" stroke="white" stroke-width="2.5" paint-order="stroke" stroke-linejoin="round">Search a slot</text>
<text x="202.5" y="169" font-size="10.5" text-anchor="middle" fill="#333" font-style="italic" stroke="white" stroke-width="2.5" paint-order="stroke" stroke-linejoin="round">and book</text>
<rect x="183.5" y="177" width="38" height="15" rx="7.5" fill="#fdf3d8" stroke="#c9a227" stroke-width="1"/>
<text x="202.5" y="188" font-size="9.5" text-anchor="middle" fill="#7a6216" font-weight="bold">Slot</text>
<path d="M 406 166 L 555 166" fill="none" stroke="#444444" stroke-width="1.3" marker-end="url(#arr)"/>
<text x="480.5" y="124.5" font-size="10.5" text-anchor="middle" fill="#333" font-style="italic" stroke="white" stroke-width="2.5" paint-order="stroke" stroke-linejoin="round">Booking</text>
<text x="480.5" y="138" font-size="10.5" text-anchor="middle" fill="#333" font-style="italic" stroke="white" stroke-width="2.5" paint-order="stroke" stroke-linejoin="round">request</text>
<rect x="443" y="146" width="75" height="15" rx="7.5" fill="#fdf3d8" stroke="#c9a227" stroke-width="1"/>
<text x="480.5" y="157" font-size="9.5" text-anchor="middle" fill="#7a6216" font-weight="bold">Appointment</text>
<path d="M 667 182 L 786 182" fill="none" stroke="#444444" stroke-width="1.3" marker-end="url(#arr)"/>
<text x="726.5" y="196.5" font-size="10.5" text-anchor="middle" fill="#333" font-style="italic" stroke="white" stroke-width="2.5" paint-order="stroke" stroke-linejoin="round">Appointment</text>
<text x="726.5" y="210" font-size="10.5" text-anchor="middle" fill="#333" font-style="italic" stroke="white" stroke-width="2.5" paint-order="stroke" stroke-linejoin="round">confirmed</text>
<rect x="689" y="218" width="75" height="15" rx="7.5" fill="#fdf3d8" stroke="#c9a227" stroke-width="1"/>
<text x="726.5" y="229" font-size="9.5" text-anchor="middle" fill="#7a6216" font-weight="bold">Appointment</text>
<path d="M 898 182 L 1029 182" fill="none" stroke="#444444" stroke-width="1.3" marker-end="url(#arr)"/>
<text x="971" y="196.5" font-size="10.5" text-anchor="middle" fill="#333" font-style="italic" stroke="white" stroke-width="2.5" paint-order="stroke" stroke-linejoin="round">Send SMS</text>
<text x="971" y="210" font-size="10.5" text-anchor="middle" fill="#333" font-style="italic" stroke="white" stroke-width="2.5" paint-order="stroke" stroke-linejoin="round">reminder</text>
<path d="M 130 246 L 155 246 L 155 210 L 530 210 L 530 182 L 555 182" fill="none" stroke="#444444" stroke-width="1.3" marker-end="url(#arr)"/>
<text x="203.5" y="224.5" font-size="10.5" text-anchor="middle" fill="#333" font-style="italic" stroke="white" stroke-width="2.5" paint-order="stroke" stroke-linejoin="round">Open / block</text>
<text x="203.5" y="238" font-size="10.5" text-anchor="middle" fill="#333" font-style="italic" stroke="white" stroke-width="2.5" paint-order="stroke" stroke-linejoin="round">slots</text>
<rect x="184.5" y="246" width="38" height="15" rx="7.5" fill="#fdf3d8" stroke="#c9a227" stroke-width="1"/>
<text x="203.5" y="257" font-size="9.5" text-anchor="middle" fill="#7a6216" font-weight="bold">Slot</text>
<path d="M 667 166 L 677 166 L 677 151 L 938 151 L 938 75 L 41 75 L 41 141 L 66 141" fill="none" stroke="#444444" stroke-width="1.3" marker-end="url(#arr)"/>
<text x="303.5" y="33.5" font-size="10.5" text-anchor="middle" fill="#333" font-style="italic" stroke="white" stroke-width="2.5" paint-order="stroke" stroke-linejoin="round">Appointment</text>
<text x="303.5" y="47" font-size="10.5" text-anchor="middle" fill="#333" font-style="italic" stroke="white" stroke-width="2.5" paint-order="stroke" stroke-linejoin="round">confirmation</text>
<rect x="266" y="55" width="75" height="15" rx="7.5" fill="#fdf3d8" stroke="#c9a227" stroke-width="1"/>
<text x="303.5" y="66" font-size="9.5" text-anchor="middle" fill="#7a6216" font-weight="bold">Appointment</text>
<line x1="20" y1="304" x2="1141" y2="304" stroke="#ddd" stroke-width="1"/>
<text x="20" y="326" font-size="11" font-weight="bold" fill="#555">BUSINESS OBJECTS</text>
<rect x="150" y="316" width="75" height="15" rx="7.5" fill="#fdf3d8" stroke="#c9a227"/>
<text x="187.5" y="327" font-size="9.5" text-anchor="middle" fill="#7a6216" font-weight="bold">Appointment</text>
<text x="235" y="327" font-size="10" fill="#666">— slot booked by a patient with a practitioner</text>
<rect x="150" y="340" width="38" height="15" rx="7.5" fill="#fdf3d8" stroke="#c9a227"/>
<text x="169" y="351" font-size="9.5" text-anchor="middle" fill="#7a6216" font-weight="bold">Slot</text>
<text x="198" y="351" font-size="10" fill="#666">— time window open for booking</text>
<line x1="20" y1="378" x2="1141" y2="378" stroke="#ddd" stroke-width="1"/>
<text x="20" y="400" font-size="11" font-weight="bold" fill="#555">LEGEND</text>
<rect x="150" y="390" width="26" height="14" rx="3" fill="#eef4fb" stroke="#7a9cc4" stroke-dasharray="5 3"/>
<text x="182" y="401" font-size="10" fill="#444">Actor group</text>
<rect x="272" y="390" width="26" height="14" rx="3" fill="#f6f2ea" stroke="#b09a6d"/>
<text x="304" y="401" font-size="10" fill="#444">System</text>
<rect x="368" y="390" width="26" height="14" rx="3" fill="#fdfbf6" stroke="#c4b258"/>
<text x="400" y="401" font-size="10" fill="#444">Layer</text>
<rect x="458" y="390" width="26" height="14" rx="3" fill="#ffffff" stroke="#666677"/>
<text x="490" y="401" font-size="10" fill="#444">Functional block</text>
<rect x="606" y="390" width="26" height="14" rx="3" fill="#f0eef5" stroke="#9187b3" stroke-dasharray="5 3"/>
<text x="638" y="401" font-size="10" fill="#444">External system</text>
<line x1="150" y1="420" x2="176" y2="420" stroke="#444444" stroke-width="1.3" marker-end="url(#arr)"/>
<text x="182" y="424" font-size="10" fill="#444">Functional flow (label = exchanged data)</text>
<rect x="480" y="413" width="96" height="15" rx="7.5" fill="#fdf3d8" stroke="#c9a227"/>
<text x="528" y="424" font-size="9.5" text-anchor="middle" fill="#7a6216" font-weight="bold">Business object</text>
<text x="584" y="424" font-size="10" fill="#444">carried by the flow</text>
<text x="150" y="448" font-size="10" fill="#444" font-style="italic">Health data is stored on certified health-data-hosting infrastructure</text>
</svg>
