<svg xmlns="http://www.w3.org/2000/svg" viewBox="0 0 409 1088" font-family="Helvetica,Arial,sans-serif">
<defs><marker id="arr" viewBox="0 0 10 10" refX="9" refY="5" markerWidth="7" markerHeight="7" orient="auto-start-reverse">
<path d="M0,0 L10,5 L0,10 z" fill="#444444"/></marker></defs>
<rect width="409" height="1088" fill="white"/>
<rect x="101" y="37" width="84" height="94" rx="6" fill="#eef4fb" stroke="#7a9cc4" stroke-width="1.2" stroke-dasharray="5 3"/>
<text x="111" y="55" font-size="12" font-weight="bold" fill="#333">Users</text>
<rect x="252" y="37" width="130" height="94" rx="6" fill="#eef4fb" stroke="#7a9cc4" stroke-width="1.2" stroke-dasharray="5 3"/>
<text x="262" y="55" font-size="12" font-weight="bold" fill="#333">Staff</text>
<rect x="101" y="227" width="297.3333333333333" height="423" rx="6" fill="#f6f2ea" stroke="#b09a6d" stroke-width="1.2"/>
<text x="111" y="245" font-size="12" font-weight="bold" fill="#333">Appointment booking system</text>
<rect x="142" y="260" width="132" height="86" rx="6" fill="#fdfbf6" stroke="#c4b258" stroke-width="1"/>
<text x="152" y="278" font-size="12" font-weight="bold" fill="#333">Presentation layer</text>
<rect x="160.66666666666669" y="432.5" width="227.66666666666666" height="202.5" rx="6" fill="#fdfbf6" stroke="#c4b258" stroke-width="1"/>
<text x="170.66666666666669" y="450.5" font-size="12" font-weight="bold" fill="#333">Business layer</text>
<rect x="179" y="714" width="132" height="78" rx="6" fill="#f0eef5" stroke="#9187b3" stroke-width="1.2" stroke-dasharray="5 3"/>
<text x="189" y="732" font-size="12" font-weight="bold" fill="#333">External systems</text>
<circle cx="143" cy="75" r="7" fill="none" stroke="#445566" stroke-width="1.5"/>
<path d="M 132 97 q 11 -19 22 0" fill="none" stroke="#445566" stroke-width="1.5"/>
<text x="143" y="109" font-size="10" text-anchor="middle" fill="#223344">Patient</text>
<circle cx="317" cy="75" r="7" fill="none" stroke="#445566" stroke-width="1.5"/>
<path d="M 306 97 q 11 -19 22 0" fill="none" stroke="#445566" stroke-width="1.5"/>
<text x="317" y="109" font-size="10" text-anchor="middle" fill="#223344">Medical secretary</text>
<rect x="152" y="288" width="112" height="48" rx="4" fill="#ffffff" stroke="#666677" stroke-width="1.3"/>
<text x="208" y="309.25" font-size="11.5" text-anchor="middle" fill="#222233">Booking</text>
<text x="208" y="322.75" font-size="11.5" text-anchor="middle" fill="#222233">portal</text>
<rect x="170.66666666666669" y="460.5" width="112" height="48" rx="4" fill="#ffffff" stroke="#666677" stroke-width="1.3"/>
<text x="226.66666666666669" y="481.75" font-size="11.5" text-anchor="middle" fill="#222233">Slot</text>
<text x="226.66666666666669" y="495.25" font-size="11.5" text-anchor="middle" fill="#222233">management</text>
<rect x="189.33333333333334" y="585" width="112" height="40" rx="4" fill="#ffffff" stroke="#666677" stroke-width="1.3"/>
<text x="245.33333333333334" y="609" font-size="11.5" text-anchor="middle" fill="#222233">Notifications</text>
<rect x="189" y="742" width="112" height="40" rx="4" fill="#ffffff" stroke="#666677" stroke-width="1.3"/>
<text x="245" y="766" font-size="11.5" text-anchor="middle" fill="#222233">SMS gateway</text>
<path d="M 143 121 L 143 212 L 208 212 L 208 288" fill="none" stroke="#444444" stroke-width="1.3" marker-end="url(#arr)"/>
<text x="187.5" y="163.5" font-size="10.5" text-anchor="middle" fill="#333" font-style="italic" stroke="white" stroke-width="2.5" paint-order="stroke" stroke-linejoin="round">Search a slot</text>
<text x="187.5" y="177" font-size="10.5" text-anchor="middle" fill="#333" font-style="italic" stroke="white" stroke-width="2.5" paint-order="stroke" stroke-linejoin="round">and book</text>
<rect x="168.5" y="185" width="38" height="15" rx="7.5" fill="#fdf3d8" stroke="#c9a227" stroke-width="1"/>
<text x="187.5" y="196" font-size="9.5" text-anchor="middle" fill="#7a6216" font-weight="bold">Slot</text>
<path d="M 208 336 L 208 460.5" fill="none" stroke="#444444" stroke-width="1.3" marker-end="url(#arr)"/>
<text x="158.5" y="382.5" font-size="10.5" text-anchor="middle" fill="#333" font-style="italic" stroke="white" stroke-width="2.5" paint-order="stroke" stroke-linejoin="round">Booking request</text>
<rect x="121" y="390.5" width="75" height="15" rx="7.5" fill="#fdf3d8" stroke="#c9a227" stroke-width="1"/>
<text x="158.5" y="401.5" font-size="9.5" text-anchor="middle" fill="#7a6216" font-weight="bold">Appointment</text>
<path d="M 245.33333333333334 508.5 L 245.33333333333334 585" fill="none" stroke="#444444" stroke-width="1.3" marker-end="url(#arr)"/>
<text x="313.33333333333337" y="540" font-size="10.5" text-anchor="middle" fill="#333" font-style="italic" stroke="white" stroke-width="2.5" paint-order="stroke" stroke-linejoin="round">Appointment confirmed</text>
<rect x="275.83333333333337" y="548" width="75" height="15" rx="7.5" fill="#fdf3d8" stroke="#c9a227" stroke-width="1"/>
<text x="313.33333333333337" y="559" font-size="9.5" text-anchor="middle" fill="#7a6216" font-weight="bold">Appointment</text>
<path d="M 245.33333333333334 625 L 245 655 L 245 742" fill="none" stroke="#444444" stroke-width="1.3" marker-end="url(#arr)"/>
<text x="190" y="686.5" font-size="10.5" text-anchor="middle" fill="#333" font-style="italic" stroke="white" stroke-width="2.5" paint-order="stroke" stroke-linejoin="round">Send SMS reminder</text>
<path d="M 317 121 L 317 212 L 284 212 L 284 417.5 L 245.33333333333331 417.5 L 245.33333333333334 460.5" fill="none" stroke="#444444" stroke-width="1.3" marker-end="url(#arr)"/>
<text x="276.5" y="163.5" font-size="10.5" text-anchor="middle" fill="#333" font-style="italic" stroke="white" stroke-width="2.5" paint-order="stroke" stroke-linejoin="round">Open / block</text>
<text x="276.5" y="177" font-size="10.5" text-anchor="middle" fill="#333" font-style="italic" stroke="white" stroke-width="2.5" paint-order="stroke" stroke-linejoin="round">slots</text>
<rect x="257.5" y="185" width="38" height="15" rx="7.5" fill="#fdf3d8" stroke="#c9a227" stroke-width="1"/>
<text x="276.5" y="196" font-size="9.5" text-anchor="middle" fill="#7a6216" font-weight="bold">Slot</text>
<path d="M 208 508.5 L 208 518.5 L 178.33333333333334 518.5 L 178 655 L 178 665 L 91 665 L 91 22 L 143 22 L 143 65" fill="none" stroke="#444444" stroke-width="1.3" marker-end="url(#arr)"/>
<text x="49.5" y="233.5" font-size="10.5" text-anchor="middle" fill="#333" font-style="italic" stroke="white" stroke-width="2.5" paint-order="stroke" stroke-linejoin="round">Appointment</text>
<text x="49.5" y="247" font-size="10.5" text-anchor="middle" fill="#333" font-style="italic" stroke="white" stroke-width="2.5" paint-order="stroke" stroke-linejoin="round">confirmation</text>
<rect x="12" y="255" width="75" height="15" rx="7.5" fill="#fdf3d8" stroke="#c9a227" stroke-width="1"/>
<text x="49.5" y="266" font-size="9.5" text-anchor="middle" fill="#7a6216" font-weight="bold">Appointment</text>
<line x1="20" y1="812" x2="389" y2="812" stroke="#ddd" stroke-width="1"/>
<text x="20" y="834" font-size="11" font-weight="bold" fill="#555">BUSINESS OBJECTS</text>
<rect x="150" y="824" width="75" height="15" rx="7.5" fill="#fdf3d8" stroke="#c9a227"/>
<text x="187.5" y="835" font-size="9.5" text-anchor="middle" fill="#7a6216" font-weight="bold">Appointment</text>
<text x="235" y="835" font-size="10" fill="#666">— slot booked by a patient with a practitioner</text>
<rect x="150" y="848" width="38" height="15" rx="7.5" fill="#fdf3d8" stroke="#c9a227"/>
<text x="169" y="859" font-size="9.5" text-anchor="middle" fill="#7a6216" font-weight="bold">Slot</text>
<text x="198" y="859" font-size="10" fill="#666">— time window open for booking</text>
<line x1="20" y1="886" x2="389" y2="886" stroke="#ddd" stroke-width="1"/>
<text x="20" y="908" font-size="11" font-weight="bold" fill="#555">LEGEND</text>
<rect x="150" y="898" width="26" height="14" rx="3" fill="#eef4fb" stroke="#7a9cc4" stroke-dasharray="5 3"/>
<text x="182" y="909" font-size="10" fill="#444">Actor group</text>
<rect x="150" y="920" width="26" height="14" rx="3" fill="#f6f2ea" stroke="#b09a6d"/>
<text x="182" y="931" font-size="10" fill="#444">System</text>
<rect x="150" y="942" width="26" height="14" rx="3" fill="#fdfbf6" stroke="#c4b258"/>
<text x="182" y="953" font-size="10" fill="#444">Layer</text>
<rect x="150" y="964" width="26" height="14" rx="3" fill="#ffffff" stroke="#666677"/>
<text x="182" y="975" font-size="10" fill="#444">Functional block</text>
<rect x="150" y="986" width="26" height="14" rx="3" fill="#f0eef5" stroke="#9187b3" stroke-dasharray="5 3"/>
<text x="182" y="997" font-size="10" fill="#444">External system</text>
<line x1="150" y1="1038" x2="176" y2="1038" stroke="#444444" stroke-width="1.3" marker-end="url(#arr)"/>
<text x="182" y="1042" font-size="10" fill="#444">Functional flow (label = exchanged data)</text>
<rect x="480" y="1031" width="96" height="15" rx="7.5" fill="#fdf3d8" stroke="#c9a227"/>
<text x="528" y="1042" font-size="9.5" text-anchor="middle" fill="#7a6216" font-weight="bold">Business object</text>
<text x="584" y="1042" font-size="10" fill="#444">carried by the flow</text>
<text x="150" y="1066" font-size="10" fill="#444" font-style="italic">Health data is stored on certified health-data-hosting infrastructure</text>
</svg>
