<svg xmlns="http://www.w3.org/2000/svg" viewBox="0 0 431 1240" font-family="Helvetica,Arial,sans-serif">
<defs><marker id="arr" viewBox="0 0 10 10" refX="9" refY="5" markerWidth="7" markerHeight="7" orient="auto-start-reverse">
<path d="M0,0 L10,5 L0,10 z" fill="#444444"/></marker></defs>
<rect width="431" height="1240" fill="white"/>
<rect x="106" y="45" width="88" height="98" rx="6" fill="#eef4fb" stroke="#7a9cc4" stroke-width="1.2" stroke-dasharray="5 3"/>
<text x="116" y="63" font-size="12" font-weight="bold" fill="#333">Users</text>
<rect x="261" y="45" width="134" height="98" rx="6" fill="#eef4fb" stroke="#7a9cc4" stroke-width="1.2" stroke-dasharray="5 3"/>
<text x="271" y="63" font-size="12" font-weight="bold" fill="#333">Staff</text>
<rect x="106" y="291" width="312.66666666666663" height="447" rx="6" fill="#f6f2ea" stroke="#b09a6d" stroke-width="1.2"/>
<text x="116" y="309" font-size="12" font-weight="bold" fill="#333">Appointment booking system</text>
<rect x="133" y="326" width="164" height="93" rx="6" fill="#fdfbf6" stroke="#c4b258" stroke-width="1"/>
<text x="143" y="344" font-size="12" font-weight="bold" fill="#333">Presentation layer</text>
<rect x="156.33333333333334" y="505.5" width="250.33333333333331" height="215.5" rx="6" fill="#fdfbf6" stroke="#c4b258" stroke-width="1"/>
<text x="166.33333333333334" y="523.5" font-size="12" font-weight="bold" fill="#333">Business layer</text>
<rect x="180" y="854" width="164" height="88" rx="6" fill="#f0eef5" stroke="#9187b3" stroke-width="1.2" stroke-dasharray="5 3"/>
<text x="190" y="872" font-size="12" font-weight="bold" fill="#333">External systems</text>
<circle cx="150" cy="85" r="7" fill="none" stroke="#445566" stroke-width="1.5"/>
<path d="M 139 107 q 11 -19 22 0" fill="none" stroke="#445566" stroke-width="1.5"/>
<text x="150" y="119" font-size="10" text-anchor="middle" fill="#223344">Patient</text>
<circle cx="328" cy="85" r="7" fill="none" stroke="#445566" stroke-width="1.5"/>
<path d="M 317 107 q 11 -19 22 0" fill="none" stroke="#445566" stroke-width="1.5"/>
<text x="328" y="119" font-size="10" text-anchor="middle" fill="#223344">Medical secretary</text>
<rect x="145" y="356" width="140" height="51" rx="4" fill="#ffffff" stroke="#666677" stroke-width="1.3"/>
<text x="215" y="378.75" font-size="11.5" text-anchor="middle" fill="#222233">Booking</text>
<text x="215" y="392.25" font-size="11.5" text-anchor="middle" fill="#222233">portal</text>
<rect x="168.33333333333334" y="535.5" width="140" height="51" rx="4" fill="#ffffff" stroke="#666677" stroke-width="1.3"/>
<text x="238.33333333333334" y="558.25" font-size="11.5" text-anchor="middle" fill="#222233">Slot</text>
<text x="238.33333333333334" y="571.75" font-size="11.5" text-anchor="middle" fill="#222233">management</text>
<rect x="191.66666666666669" y="663" width="140" height="46" rx="4" fill="#ffffff" stroke="#666677" stroke-width="1.3"/>
<text x="261.6666666666667" y="690" font-size="11.5" text-anchor="middle" fill="#222233">Notifications</text>
<rect x="192" y="884" width="140" height="46" rx="4" fill="#ffffff" stroke="#666677" stroke-width="1.3"/>
<text x="262" y="911" font-size="11.5" text-anchor="middle" fill="#222233">SMS gateway</text>
<path d="M 150 131 L 150 276 L 215 276 L 215 356" fill="none" stroke="#444444" stroke-width="1.3" marker-end="url(#arr)"/>
<text x="195.5" y="203.5" font-size="10.5" text-anchor="middle" fill="#333" font-style="italic" stroke="white" stroke-width="2.5" paint-order="stroke" stroke-linejoin="round">Search a slot</text>
<text x="195.5" y="217" font-size="10.5" text-anchor="middle" fill="#333" font-style="italic" stroke="white" stroke-width="2.5" paint-order="stroke" stroke-linejoin="round">and book</text>
<rect x="176.5" y="225" width="38" height="15" rx="7.5" fill="#fdf3d8" stroke="#c9a227" stroke-width="1"/>
<text x="195.5" y="236" font-size="9.5" text-anchor="middle" fill="#7a6216" font-weight="bold">Slot</text>
<path d="M 215 407 L 215 535.5" fill="none" stroke="#444444" stroke-width="1.3" marker-end="url(#arr)"/>
<text x="165.5" y="455.5" font-size="10.5" text-anchor="middle" fill="#333" font-style="italic" stroke="white" stroke-width="2.5" paint-order="stroke" stroke-linejoin="round">Booking request</text>
<rect x="128" y="463.5" width="75" height="15" rx="7.5" fill="#fdf3d8" stroke="#c9a227" stroke-width="1"/>
<text x="165.5" y="474.5" font-size="9.5" text-anchor="middle" fill="#7a6216" font-weight="bold">Appointment</text>
<path d="M 261.6666666666667 586.5 L 261.6666666666667 663" fill="none" stroke="#444444" stroke-width="1.3" marker-end="url(#arr)"/>
<text x="329.6666666666667" y="618" font-size="10.5" text-anchor="middle" fill="#333" font-style="italic" stroke="white" stroke-width="2.5" paint-order="stroke" stroke-linejoin="round">Appointment confirmed</text>
<rect x="292.1666666666667" y="626" width="75" height="15" rx="7.5" fill="#fdf3d8" stroke="#c9a227" stroke-width="1"/>
<text x="329.6666666666667" y="637" font-size="9.5" text-anchor="middle" fill="#7a6216" font-weight="bold">Appointment</text>
<path d="M 261.6666666666667 709 L 262 743 L 262 884" fill="none" stroke="#444444" stroke-width="1.3" marker-end="url(#arr)"/>
<text x="206" y="798.5" font-size="10.5" text-anchor="middle" fill="#333" font-style="italic" stroke="white" stroke-width="2.5" paint-order="stroke" stroke-linejoin="round">Send SMS reminder</text>
<path d="M 328 131 L 328 252 L 307 252 L 307 490.5 L 261.66666666666663 490.5 L 261.6666666666667 535.5" fill="none" stroke="#444444" stroke-width="1.3" marker-end="url(#arr)"/>
<text x="286.5" y="203.5" font-size="10.5" text-anchor="middle" fill="#333" font-style="italic" stroke="white" stroke-width="2.5" paint-order="stroke" stroke-linejoin="round">Open / block</text>
<text x="286.5" y="217" font-size="10.5" text-anchor="middle" fill="#333" font-style="italic" stroke="white" stroke-width="2.5" paint-order="stroke" stroke-linejoin="round">slots</text>
<rect x="267.5" y="225" width="38" height="15" rx="7.5" fill="#fdf3d8" stroke="#c9a227" stroke-width="1"/>
<text x="286.5" y="236" font-size="9.5" text-anchor="middle" fill="#7a6216" font-weight="bold">Slot</text>
<path d="M 215 586.5 L 215 596.5 L 180.66666666666669 596.5 L 181 743 L 181 753 L 94 753 L 94 30 L 150 30 L 150 75" fill="none" stroke="#444444" stroke-width="1.3" marker-end="url(#arr)"/>
<text x="51.5" y="297.5" font-size="10.5" text-anchor="middle" fill="#333" font-style="italic" stroke="white" stroke-width="2.5" paint-order="stroke" stroke-linejoin="round">Appointment</text>
<text x="51.5" y="311" font-size="10.5" text-anchor="middle" fill="#333" font-style="italic" stroke="white" stroke-width="2.5" paint-order="stroke" stroke-linejoin="round">confirmation</text>
<rect x="14" y="319" width="75" height="15" rx="7.5" fill="#fdf3d8" stroke="#c9a227" stroke-width="1"/>
<text x="51.5" y="330" font-size="9.5" text-anchor="middle" fill="#7a6216" font-weight="bold">Appointment</text>
<line x1="20" y1="964" x2="411" y2="964" stroke="#ddd" stroke-width="1"/>
<text x="20" y="986" font-size="11" font-weight="bold" fill="#555">BUSINESS OBJECTS</text>
<rect x="150" y="976" width="75" height="15" rx="7.5" fill="#fdf3d8" stroke="#c9a227"/>
<text x="187.5" y="987" font-size="9.5" text-anchor="middle" fill="#7a6216" font-weight="bold">Appointment</text>
<text x="235" y="987" font-size="10" fill="#666">— slot booked by a patient with a practitioner</text>
<rect x="150" y="1000" width="38" height="15" rx="7.5" fill="#fdf3d8" stroke="#c9a227"/>
<text x="169" y="1011" font-size="9.5" text-anchor="middle" fill="#7a6216" font-weight="bold">Slot</text>
<text x="198" y="1011" font-size="10" fill="#666">— time window open for booking</text>
<line x1="20" y1="1038" x2="411" y2="1038" stroke="#ddd" stroke-width="1"/>
<text x="20" y="1060" font-size="11" font-weight="bold" fill="#555">LEGEND</text>
<rect x="150" y="1050" width="26" height="14" rx="3" fill="#eef4fb" stroke="#7a9cc4" stroke-dasharray="5 3"/>
<text x="182" y="1061" font-size="10" fill="#444">Actor group</text>
<rect x="150" y="1072" width="26" height="14" rx="3" fill="#f6f2ea" stroke="#b09a6d"/>
<text x="182" y="1083" font-size="10" fill="#444">System</text>
<rect x="150" y="1094" width="26" height="14" rx="3" fill="#fdfbf6" stroke="#c4b258"/>
<text x="182" y="1105" font-size="10" fill="#444">Layer</text>
<rect x="150" y="1116" width="26" height="14" rx="3" fill="#ffffff" stroke="#666677"/>
<text x="182" y="1127" font-size="10" fill="#444">Functional block</text>
<rect x="150" y="1138" width="26" height="14" rx="3" fill="#f0eef5" stroke="#9187b3" stroke-dasharray="5 3"/>
<text x="182" y="1149" font-size="10" fill="#444">External system</text>
<line x1="150" y1="1190" x2="176" y2="1190" stroke="#444444" stroke-width="1.3" marker-end="url(#arr)"/>
<text x="182" y="1194" font-size="10" fill="#444">Functional flow (label = exchanged data)</text>
<rect x="480" y="1183" width="96" height="15" rx="7.5" fill="#fdf3d8" stroke="#c9a227"/>
<text x="528" y="1194" font-size="9.5" text-anchor="middle" fill="#7a6216" font-weight="bold">Business object</text>
<text x="584" y="1194" font-size="10" fill="#444">carried by the flow</text>
<text x="150" y="1218" font-size="10" fill="#444" font-style="italic">Health data is stored on certified health-data-hosting infrastructure</text>
</svg>
