<svg xmlns="http://www.w3.org/2000/svg" viewBox="0 0 1122 532" font-family="Helvetica,Arial,sans-serif">
<defs><marker id="arr" viewBox="0 0 10 10" refX="9" refY="5" markerWidth="7" markerHeight="7" orient="auto-start-reverse">
<path d="M0,0 L10,5 L0,10 z" fill="#5a6675"/></marker></defs>
<rect width="1122" height="532" fill="#ffffff"/>
<rect x="10" y="22" width="115" height="171" rx="6" fill="#e9f2fb" stroke="#1f77b4" stroke-width="1.2" stroke-dasharray="5 3"/>
<text x="20" y="40" font-size="13" font-weight="bold" fill="#17202c">Managers</text>
<rect x="614" y="32" width="143" height="142" rx="6" fill="#e9f3fa" stroke="#2f83b6" stroke-width="1.2"/>
<text x="624" y="50" font-size="13" font-weight="bold" fill="#17202c">CRM</text>
<rect x="318" y="97" width="156" height="207" rx="6" fill="#e9f3fa" stroke="#2f83b6" stroke-width="1.2"/>
<text x="328" y="115" font-size="13" font-weight="bold" fill="#17202c">Billing</text>
<rect x="585" y="310" width="351" height="88" rx="6" fill="#e9f3fa" stroke="#2f83b6" stroke-width="1.2"/>
<text x="595" y="328" font-size="13" font-weight="bold" fill="#17202c">Accounting</text>
<circle cx="80" cy="142" r="7" fill="none" stroke="#1f5e91" stroke-width="1.5"/>
<path d="M 69 164 q 11 -19 22 0" fill="none" stroke="#1f5e91" stroke-width="1.5"/>
<text x="80" y="176" font-size="11" text-anchor="middle" fill="#20364c">Accountant</text>
<circle cx="67.5" cy="57" r="7" fill="none" stroke="#1f5e91" stroke-width="1.5"/>
<path d="M 56.5 79 q 11 -19 22 0" fill="none" stroke="#1f5e91" stroke-width="1.5"/>
<text x="67.5" y="91" font-size="11" text-anchor="middle" fill="#20364c">Sales</text>
<text x="67.5" y="102" font-size="11" text-anchor="middle" fill="#20364c">administration</text>
<rect x="621" y="122" width="129" height="45" rx="4" fill="#ffffff" stroke="#48546a" stroke-width="1.3"/>
<text x="685.5" y="141.25" font-size="12.5" text-anchor="middle" fill="#17202c">Customer-account</text>
<text x="685.5" y="155.75" font-size="12.5" text-anchor="middle" fill="#17202c">management</text>
<rect x="636.5" y="57" width="98" height="45" rx="4" fill="#ffffff" stroke="#48546a" stroke-width="1.3"/>
<text x="685.5" y="76.25" font-size="12.5" text-anchor="middle" fill="#17202c">Contract</text>
<text x="685.5" y="90.75" font-size="12.5" text-anchor="middle" fill="#17202c">management</text>
<rect x="333" y="187" width="98" height="45" rx="4" fill="#ffffff" stroke="#48546a" stroke-width="1.3"/>
<text x="382" y="206.25" font-size="12.5" text-anchor="middle" fill="#17202c">Billing</text>
<text x="382" y="220.75" font-size="12.5" text-anchor="middle" fill="#17202c">engine</text>
<rect x="325" y="252" width="122" height="45" rx="4" fill="#ffffff" stroke="#48546a" stroke-width="1.3"/>
<text x="386" y="271.25" font-size="12.5" text-anchor="middle" fill="#17202c">Invoice issuing</text>
<text x="386" y="285.75" font-size="12.5" text-anchor="middle" fill="#17202c">and sending</text>
<rect x="337" y="122" width="98" height="45" rx="4" fill="#ffffff" stroke="#48546a" stroke-width="1.3"/>
<text x="386" y="141.25" font-size="12.5" text-anchor="middle" fill="#17202c">Dunning and</text>
<text x="386" y="155.75" font-size="12.5" text-anchor="middle" fill="#17202c">collection</text>
<rect x="814" y="345.5" width="115" height="36" rx="4" fill="#ffffff" stroke="#48546a" stroke-width="1.3"/>
<text x="871.5" y="367.5" font-size="12.5" text-anchor="middle" fill="#17202c">General ledger</text>
<rect x="592" y="335" width="98" height="45" rx="4" fill="#ffffff" stroke="#48546a" stroke-width="1.3"/>
<text x="641" y="354.25" font-size="12.5" text-anchor="middle" fill="#17202c">Accounts</text>
<text x="641" y="368.75" font-size="12.5" text-anchor="middle" fill="#17202c">receivable</text>
<path d="M 588 195 h 82 a 8 22.5 0 0 1 0 45 h -82 a 8 22.5 0 0 1 0 -45" fill="#f4edf8" stroke="#8a53a8" stroke-width="1.3"/>
<ellipse cx="588" cy="217.5" rx="8" ry="22.5" fill="#f4edf8" stroke="#8a53a8" stroke-width="1.3"/>
<text x="633" y="214.25" font-size="12.5" text-anchor="middle" fill="#17202c">Billing</text>
<text x="633" y="228.75" font-size="12.5" text-anchor="middle" fill="#17202c">event bus</text>
<path d="M 892 129 v 31 a 49 7 0 0 0 98 0 v -31" fill="#f4edf8" stroke="#8a53a8" stroke-width="1.3"/>
<ellipse cx="941" cy="129" rx="49" ry="7" fill="#f4edf8" stroke="#8a53a8" stroke-width="1.3"/>
<text x="941" y="144.75" font-size="12.5" text-anchor="middle" fill="#17202c">Customer</text>
<text x="941" y="159.25" font-size="12.5" text-anchor="middle" fill="#17202c">repository</text>
<path d="M 150 201 v 31 a 49 7 0 0 0 98 0 v -31" fill="#f4edf8" stroke="#8a53a8" stroke-width="1.3"/>
<ellipse cx="199" cy="201" rx="49" ry="7" fill="#f4edf8" stroke="#8a53a8" stroke-width="1.3"/>
<text x="199" y="216.75" font-size="12.5" text-anchor="middle" fill="#17202c">Offer</text>
<text x="199" y="231.25" font-size="12.5" text-anchor="middle" fill="#17202c">catalog</text>
<rect x="956" y="248" width="98" height="45" rx="4" fill="#f4eff8" stroke="#8659a6" stroke-width="1.2" stroke-dasharray="5 3"/>
<text x="1005" y="267.25" font-size="12.5" text-anchor="middle" fill="#17202c">Partner EDI</text>
<text x="1005" y="281.75" font-size="12.5" text-anchor="middle" fill="#17202c">platform</text>
<rect x="956" y="301" width="156" height="45" rx="4" fill="#f4eff8" stroke="#8659a6" stroke-width="1.2" stroke-dasharray="5 3"/>
<text x="1034" y="320.25" font-size="12.5" text-anchor="middle" fill="#17202c">Electronic-invoicing</text>
<text x="1034" y="334.75" font-size="12.5" text-anchor="middle" fill="#17202c">portal (PPF)</text>
<path d="M 118 79.5 L 130 80 L 609 79.5 L 636.5 79.5" fill="none" stroke="#5a6675" stroke-width="1.3" marker-end="url(#arr)"/>
<path d="M 750 144.5 L 762 145 L 892 145" fill="none" stroke="#5a6675" stroke-width="1.3" marker-end="url(#arr)"/>
<text x="827" y="135.5" font-size="11.5" text-anchor="middle" fill="#3a4553" font-style="italic" stroke="#ffffff" stroke-width="2.5" paint-order="stroke" stroke-linejoin="round">(API_REST, JSON)</text>
<path d="M 734.5 79.5 L 762 80 L 772 80 L 772 24 L 293 24 L 293 202 L 333 202" fill="none" stroke="#5a6675" stroke-width="1.3" marker-end="url(#arr)"/>
<text x="563.5" y="39.5" font-size="11.5" text-anchor="middle" fill="#3a4553" font-style="italic" stroke="#ffffff" stroke-width="2.5" paint-order="stroke" stroke-linejoin="round">(MQ, JSON)</text>
<path d="M 248 217 L 333 217" fill="none" stroke="#5a6675" stroke-width="1.3" marker-end="url(#arr)"/>
<text x="280.5" y="232.5" font-size="11.5" text-anchor="middle" fill="#3a4553" font-style="italic" stroke="#ffffff" stroke-width="2.5" paint-order="stroke" stroke-linejoin="round">(JDBC)</text>
<path d="M 431 209.5 L 479 210 L 580 210" fill="none" stroke="#5a6675" stroke-width="1.3" marker-end="url(#arr)"/>
<text x="524.5" y="200.5" font-size="11.5" text-anchor="middle" fill="#3a4553" font-style="italic" stroke="#ffffff" stroke-width="2.5" paint-order="stroke" stroke-linejoin="round">(MQ, JSON)</text>
<path d="M 447 261 L 489 261 L 489 225 L 580 225" fill="none" stroke="#5a6675" stroke-width="1.3" marker-end="url(#arr)"/>
<text x="534.5" y="240.5" font-size="11.5" text-anchor="middle" fill="#3a4553" font-style="italic" stroke="#ffffff" stroke-width="2.5" paint-order="stroke" stroke-linejoin="round">(MQ, JSON)</text>
<path d="M 447 270 L 457 270 L 457 271 L 956 271" fill="none" stroke="#5a6675" stroke-width="1.3" marker-end="url(#arr)"/>
<text x="612.5" y="261.5" font-size="11.5" text-anchor="middle" fill="#3a4553" font-style="italic" stroke="#ffffff" stroke-width="2.5" paint-order="stroke" stroke-linejoin="round">(AS4, UBL)</text>
<path d="M 447 279 L 457 279 L 457 281 L 489 281 L 489 279 L 946 279 L 946 324 L 956 324" fill="none" stroke="#5a6675" stroke-width="1.3" marker-end="url(#arr)"/>
<text x="644.5" y="294.5" font-size="11.5" text-anchor="middle" fill="#3a4553" font-style="italic" stroke="#ffffff" stroke-width="2.5" paint-order="stroke" stroke-linejoin="round">(API_REST, FacturX)</text>
<path d="M 447 288 L 457 288 L 457 291 L 570 291 L 570 358 L 580 357.5 L 592 357.5" fill="none" stroke="#5a6675" stroke-width="1.3" marker-end="url(#arr)"/>
<text x="524.5" y="306.5" font-size="11.5" text-anchor="middle" fill="#3a4553" font-style="italic" stroke="#ffffff" stroke-width="2.5" paint-order="stroke" stroke-linejoin="round">(MQ, JSON)</text>
<path d="M 435 144.5 L 479 145 L 609 144.5 L 621 144.5" fill="none" stroke="#5a6675" stroke-width="1.3" marker-end="url(#arr)"/>
<text x="544" y="160.5" font-size="11.5" text-anchor="middle" fill="#3a4553" font-style="italic" stroke="#ffffff" stroke-width="2.5" paint-order="stroke" stroke-linejoin="round">(API_REST, JSON)</text>
<path d="M 690 357.5 L 814 357.5" fill="none" stroke="#5a6675" stroke-width="1.3" marker-end="url(#arr)"/>
<text x="752" y="348.5" font-size="11.5" text-anchor="middle" fill="#3a4553" font-style="italic" stroke="#ffffff" stroke-width="2.5" paint-order="stroke" stroke-linejoin="round">(batch, CSV)</text>
<path d="M 118 168 L 140 168 L 140 322 L 140 322 L 140 390 L 804 390 L 804 369.5 L 814 369.5" fill="none" stroke="#5a6675" stroke-width="1.3" marker-end="url(#arr)"/>
<path d="M 118 150 L 288 150 A 5 5 0 0 1 298 150 L 303 150 L 303 145 L 313 144.5 L 337 144.5" fill="none" stroke="#5a6675" stroke-width="1.3" marker-end="url(#arr)"/>
<line x1="20" y1="418" x2="1102" y2="418" stroke="#e6e9ee" stroke-width="1"/>
<text x="20" y="440" font-size="11" font-weight="bold" fill="#3a4553">LEGEND</text>
<rect x="150" y="430" width="26" height="14" rx="3" fill="#e9f2fb" stroke="#1f77b4" stroke-dasharray="5 3"/>
<text x="182" y="441" font-size="10" fill="#17202c">Actor group</text>
<rect x="272" y="430" width="26" height="14" rx="3" fill="#e9f3fa" stroke="#2f83b6"/>
<text x="304" y="441" font-size="10" fill="#17202c">Application</text>
<rect x="394" y="430" width="26" height="14" rx="3" fill="#ffffff" stroke="#48546a"/>
<text x="426" y="441" font-size="10" fill="#17202c">Application module</text>
<rect x="552" y="430" width="26" height="14" rx="3" fill="#f4edf8" stroke="#8a53a8"/>
<text x="584" y="441" font-size="10" fill="#17202c">Message queue / broker</text>
<rect x="731" y="430" width="26" height="14" rx="3" fill="#f4edf8" stroke="#8a53a8"/>
<text x="763" y="441" font-size="10" fill="#17202c">Datastore / registry</text>
<rect x="899" y="430" width="26" height="14" rx="3" fill="#f4eff8" stroke="#8659a6" stroke-dasharray="5 3"/>
<text x="931" y="441" font-size="10" fill="#17202c">External system</text>
<line x1="150" y1="482" x2="176" y2="482" stroke="#5a6675" stroke-width="1.3" marker-end="url(#arr)"/>
<text x="182" y="486" font-size="10" fill="#17202c">Application flow — (protocol, format) under the label</text>
<text x="150" y="510" font-size="10" fill="#17202c" font-style="italic">Factur-X mandatory since the electronic-invoicing reform</text>
</svg>
