<svg xmlns="http://www.w3.org/2000/svg" viewBox="0 0 2278 640" font-family="Helvetica,Arial,sans-serif">
<defs><marker id="arr" viewBox="0 0 10 10" refX="9" refY="5" markerWidth="7" markerHeight="7" orient="auto-start-reverse">
<path d="M0,0 L10,5 L0,10 z" fill="#5a6675"/></marker></defs>
<rect width="2278" height="640" fill="#ffffff"/>
<rect x="10" y="197" width="150" height="260" rx="6" fill="#e9f2fb" stroke="#1f77b4" stroke-width="1.2" stroke-dasharray="5 3"/>
<text x="20" y="215" font-size="13" font-weight="bold" fill="#17202c">Équipes internes</text>
<rect x="515" y="84" width="384" height="167.83333333333334" rx="6" fill="#e9f3fa" stroke="#2f83b6" stroke-width="1.2"/>
<text x="525" y="102" font-size="13" font-weight="bold" fill="#17202c">Front de vente</text>
<rect x="1059" y="129" width="384" height="172" rx="6" fill="#e9f3fa" stroke="#2f83b6" stroke-width="1.2"/>
<text x="1069" y="147" font-size="13" font-weight="bold" fill="#17202c">Gestion des commandes</text>
<rect x="202" y="84" width="126" height="150" rx="6" fill="#e9f3fa" stroke="#2f83b6" stroke-width="1.2"/>
<text x="212" y="102" font-size="13" font-weight="bold" fill="#17202c">Référentiel produits</text>
<rect x="200" y="245" width="149" height="83" rx="6" fill="#e9f3fa" stroke="#2f83b6" stroke-width="1.2"/>
<text x="210" y="263" font-size="13" font-weight="bold" fill="#17202c">Tarification</text>
<rect x="1584" y="288" width="405" height="105" rx="6" fill="#e9f3fa" stroke="#2f83b6" stroke-width="1.2"/>
<text x="1594" y="306" font-size="13" font-weight="bold" fill="#17202c">Hub de paiement</text>
<rect x="761" y="365" width="128" height="150" rx="6" fill="#e9f3fa" stroke="#2f83b6" stroke-width="1.2"/>
<text x="771" y="383" font-size="13" font-weight="bold" fill="#17202c">Relation client</text>
<circle cx="103.5" cy="234" r="7" fill="none" stroke="#1f5e91" stroke-width="1.5"/>
<path d="M 92.5 256 q 11 -19 22 0" fill="none" stroke="#1f5e91" stroke-width="1.5"/>
<text x="103.5" y="268" font-size="11" text-anchor="middle" fill="#20364c">Responsable</text>
<text x="103.5" y="279" font-size="11" text-anchor="middle" fill="#20364c">merchandising</text>
<circle cx="85" cy="393" r="7" fill="none" stroke="#1f5e91" stroke-width="1.5"/>
<path d="M 74 415 q 11 -19 22 0" fill="none" stroke="#1f5e91" stroke-width="1.5"/>
<text x="85" y="427" font-size="11" text-anchor="middle" fill="#20364c">Conseiller relation</text>
<text x="85" y="438" font-size="11" text-anchor="middle" fill="#20364c">client</text>
<circle cx="116" cy="319" r="7" fill="none" stroke="#1f5e91" stroke-width="1.5"/>
<path d="M 105 341 q 11 -19 22 0" fill="none" stroke="#1f5e91" stroke-width="1.5"/>
<text x="116" y="353" font-size="11" text-anchor="middle" fill="#20364c">Comptable</text>
<rect x="524" y="178" width="108" height="47" rx="4" fill="#ffffff" stroke="#48546a" stroke-width="1.3"/>
<text x="578" y="198.25" font-size="12.5" text-anchor="middle" fill="#17202c">Site</text>
<text x="578" y="212.75" font-size="12.5" text-anchor="middle" fill="#17202c">e-commerce</text>
<rect x="524" y="111" width="108" height="47" rx="4" fill="#ffffff" stroke="#48546a" stroke-width="1.3"/>
<text x="578" y="131.25" font-size="12.5" text-anchor="middle" fill="#17202c">Application</text>
<text x="578" y="145.75" font-size="12.5" text-anchor="middle" fill="#17202c">mobile</text>
<rect x="782" y="185.83333333333334" width="108" height="47" rx="4" fill="#ffffff" stroke="#48546a" stroke-width="1.3"/>
<text x="836" y="206.08333333333334" font-size="12.5" text-anchor="middle" fill="#17202c">Tunnel</text>
<text x="836" y="220.58333333333334" font-size="12.5" text-anchor="middle" fill="#17202c">d'achat</text>
<rect x="1070.8" y="178" width="110" height="47" rx="4" fill="#ffffff" stroke="#48546a" stroke-width="1.3"/>
<text x="1125.8" y="198.25" font-size="12.5" text-anchor="middle" fill="#17202c">Cycle de vie</text>
<text x="1125.8" y="212.75" font-size="12.5" text-anchor="middle" fill="#17202c">des commandes</text>
<rect x="1296" y="178" width="138" height="47" rx="4" fill="#ffffff" stroke="#48546a" stroke-width="1.3"/>
<text x="1365" y="198.25" font-size="12.5" text-anchor="middle" fill="#17202c">Orchestration des</text>
<text x="1365" y="212.75" font-size="12.5" text-anchor="middle" fill="#17202c">expéditions</text>
<rect x="1068" y="245" width="117" height="47" rx="4" fill="#ffffff" stroke="#48546a" stroke-width="1.3"/>
<text x="1126.5" y="265.25" font-size="12.5" text-anchor="middle" fill="#17202c">Retours et</text>
<text x="1126.5" y="279.75" font-size="12.5" text-anchor="middle" fill="#17202c">remboursements</text>
<rect x="211" y="178" width="108" height="47" rx="4" fill="#ffffff" stroke="#48546a" stroke-width="1.3"/>
<text x="265" y="198.25" font-size="12.5" text-anchor="middle" fill="#17202c">Gestion du</text>
<text x="265" y="212.75" font-size="12.5" text-anchor="middle" fill="#17202c">catalogue</text>
<rect x="211" y="111" width="108" height="47" rx="4" fill="#ffffff" stroke="#48546a" stroke-width="1.3"/>
<text x="265" y="131.25" font-size="12.5" text-anchor="middle" fill="#17202c">Gestion des</text>
<text x="265" y="145.75" font-size="12.5" text-anchor="middle" fill="#17202c">médias</text>
<rect x="209" y="272" width="131" height="47" rx="4" fill="#ffffff" stroke="#48546a" stroke-width="1.3"/>
<text x="274.5" y="292.25" font-size="12.5" text-anchor="middle" fill="#17202c">Moteur de règles</text>
<text x="274.5" y="306.75" font-size="12.5" text-anchor="middle" fill="#17202c">de prix</text>
<rect x="1613" y="326.75" width="138" height="47" rx="4" fill="#ffffff" stroke="#48546a" stroke-width="1.3"/>
<text x="1682" y="347" font-size="12.5" text-anchor="middle" fill="#17202c">Orchestration des</text>
<text x="1682" y="361.5" font-size="12.5" text-anchor="middle" fill="#17202c">paiements</text>
<rect x="1872" y="315" width="108" height="47" rx="4" fill="#ffffff" stroke="#48546a" stroke-width="1.3"/>
<text x="1926" y="335.25" font-size="12.5" text-anchor="middle" fill="#17202c">Scoring</text>
<text x="1926" y="349.75" font-size="12.5" text-anchor="middle" fill="#17202c">anti-fraude</text>
<rect x="771" y="392" width="108" height="47" rx="4" fill="#ffffff" stroke="#48546a" stroke-width="1.3"/>
<text x="825" y="412.25" font-size="12.5" text-anchor="middle" fill="#17202c">Gestion des</text>
<text x="825" y="426.75" font-size="12.5" text-anchor="middle" fill="#17202c">tickets</text>
<rect x="770" y="459" width="110" height="47" rx="4" fill="#ffffff" stroke="#48546a" stroke-width="1.3"/>
<text x="825" y="479.25" font-size="12.5" text-anchor="middle" fill="#17202c">Espace client</text>
<text x="825" y="493.75" font-size="12.5" text-anchor="middle" fill="#17202c">autonome</text>
<path d="M 1602 185 h 115 a 8 23.5 0 0 1 0 47 h -115 a 8 23.5 0 0 1 0 -47" fill="#f4edf8" stroke="#8a53a8" stroke-width="1.3"/>
<ellipse cx="1602" cy="208.5" rx="8" ry="23.5" fill="#f4edf8" stroke="#8a53a8" stroke-width="1.3"/>
<text x="1663.5" y="205.25" font-size="12.5" text-anchor="middle" fill="#17202c">Bus d'événements</text>
<text x="1663.5" y="219.75" font-size="12.5" text-anchor="middle" fill="#17202c">commandes</text>
<path d="M 1604 73 v 33 a 54 7 0 0 0 108 0 v -33" fill="#f4edf8" stroke="#8a53a8" stroke-width="1.3"/>
<ellipse cx="1658" cy="73" rx="54" ry="7" fill="#f4edf8" stroke="#8a53a8" stroke-width="1.3"/>
<text x="1658" y="89.75" font-size="12.5" text-anchor="middle" fill="#17202c">Entrepôt de</text>
<text x="1658" y="104.25" font-size="12.5" text-anchor="middle" fill="#17202c">données</text>
<path d="M 971 466 v 33 a 54 7 0 0 0 108 0 v -33" fill="#f4edf8" stroke="#8a53a8" stroke-width="1.3"/>
<ellipse cx="1025" cy="466" rx="54" ry="7" fill="#f4edf8" stroke="#8a53a8" stroke-width="1.3"/>
<text x="1025" y="482.75" font-size="12.5" text-anchor="middle" fill="#17202c">Référentiel</text>
<text x="1025" y="497.25" font-size="12.5" text-anchor="middle" fill="#17202c">clients</text>
<rect x="2160" y="254" width="108" height="38" rx="4" fill="#f4eff8" stroke="#8659a6" stroke-width="1.2" stroke-dasharray="5 3"/>
<text x="2214" y="277" font-size="12.5" text-anchor="middle" fill="#17202c">PSP</text>
<rect x="1741" y="135" width="110" height="47" rx="4" fill="#f4eff8" stroke="#8659a6" stroke-width="1.2" stroke-dasharray="5 3"/>
<text x="1796" y="155.25" font-size="12.5" text-anchor="middle" fill="#17202c">Plateformes</text>
<text x="1796" y="169.75" font-size="12.5" text-anchor="middle" fill="#17202c">transporteurs</text>
<rect x="1728" y="22" width="108" height="47" rx="4" fill="#f4eff8" stroke="#8659a6" stroke-width="1.2" stroke-dasharray="5 3"/>
<text x="1782" y="42.25" font-size="12.5" text-anchor="middle" fill="#17202c">ERP</text>
<text x="1782" y="56.75" font-size="12.5" text-anchor="middle" fill="#17202c">groupe</text>
<path d="M 151 256.5 L 165 257 L 170 257 A 5 5 0 0 1 180 257 L 185 257 L 185 202 L 197 201.5 L 211 201.5" fill="none" stroke="#5a6675" stroke-width="1.3" marker-end="url(#arr)"/>
<path d="M 319 201.5 L 333 202 L 510 201.5 L 524 201.5" fill="none" stroke="#5a6675" stroke-width="1.3" marker-end="url(#arr)"/>
<text x="425" y="217.5" font-size="11.5" text-anchor="middle" fill="#3a4553" font-style="italic" stroke="#ffffff" stroke-width="2.5" paint-order="stroke" stroke-linejoin="round">(API_REST, JSON)</text>
<path d="M 319 134.5 L 333 135 L 500 135 L 500 190 L 510 189.75 L 524 189.75" fill="none" stroke="#5a6675" stroke-width="1.3" marker-end="url(#arr)"/>
<text x="448" y="125.5" font-size="11.5" text-anchor="middle" fill="#3a4553" font-style="italic" stroke="#ffffff" stroke-width="2.5" paint-order="stroke" stroke-linejoin="round">(CDN, HTTPS)</text>
<path d="M 340 287.6666666666667 L 354 288 L 490 288 L 490 213 L 510 213.25 L 524 213.25" fill="none" stroke="#5a6675" stroke-width="1.3" marker-end="url(#arr)"/>
<text x="425" y="278.5" font-size="11.5" text-anchor="middle" fill="#3a4553" font-style="italic" stroke="#ffffff" stroke-width="2.5" paint-order="stroke" stroke-linejoin="round">(API_REST, JSON)</text>
<path d="M 340 303.3333333333333 L 354 303 L 500 303 L 500 242 L 510 241.83333333333334 L 772 241.83333333333334 L 772 221.08333333333334 L 782 221.08333333333334" fill="none" stroke="#5a6675" stroke-width="1.3" marker-end="url(#arr)"/>
<text x="435" y="318.5" font-size="11.5" text-anchor="middle" fill="#3a4553" font-style="italic" stroke="#ffffff" stroke-width="2.5" paint-order="stroke" stroke-linejoin="round">(API_REST, JSON)</text>
<path d="M 1728 38 L 175 38 L 175 296 L 195 295.5 L 209 295.5" fill="none" stroke="#5a6675" stroke-width="1.3" marker-end="url(#arr)"/>
<text x="985.5" y="53.5" font-size="11.5" text-anchor="middle" fill="#3a4553" font-style="italic" stroke="#ffffff" stroke-width="2.5" paint-order="stroke" stroke-linejoin="round">(SFTP, CSV)</text>
<path d="M 632 209.33333333333334 L 782 209.33333333333334" fill="none" stroke="#5a6675" stroke-width="1.3" marker-end="url(#arr)"/>
<text x="707" y="224.83333333333334" font-size="11.5" text-anchor="middle" fill="#3a4553" font-style="italic" stroke="#ffffff" stroke-width="2.5" paint-order="stroke" stroke-linejoin="round">(internal)</text>
<path d="M 632 134.5 L 637 134.5 A 5 5 0 0 1 647 134.5 L 772 134.5 L 772 197.58333333333334 L 782 197.58333333333334" fill="none" stroke="#5a6675" stroke-width="1.3" marker-end="url(#arr)"/>
<text x="707" y="150" font-size="11.5" text-anchor="middle" fill="#3a4553" font-style="italic" stroke="#ffffff" stroke-width="2.5" paint-order="stroke" stroke-linejoin="round">(API_REST, JSON)</text>
<path d="M 890 201.5 L 904 202 L 1054 201.5 L 1070.8 201.5" fill="none" stroke="#5a6675" stroke-width="1.3" marker-end="url(#arr)"/>
<text x="959.5" y="217.5" font-size="11.5" text-anchor="middle" fill="#3a4553" font-style="italic" stroke="#ffffff" stroke-width="2.5" paint-order="stroke" stroke-linejoin="round">(MQ, JSON)</text>
<path d="M 890 217.16666666666669 L 904 217 L 914 217 L 914 321 L 1044 321 L 1044 356 L 1579 355.55 L 1603 355.55 L 1603 354.95000000000005 L 1613 354.95000000000005" fill="none" stroke="#5a6675" stroke-width="1.3" marker-end="url(#arr)"/>
<text x="979" y="336.5" font-size="11.5" text-anchor="middle" fill="#3a4553" font-style="italic" stroke="#ffffff" stroke-width="2.5" paint-order="stroke" stroke-linejoin="round">(API_REST, JSON)</text>
<path d="M 1751 338.5 L 1872 338.5" fill="none" stroke="#5a6675" stroke-width="1.3" marker-end="url(#arr)"/>
<text x="1816.5" y="329.5" font-size="11.5" text-anchor="middle" fill="#3a4553" font-style="italic" stroke="#ffffff" stroke-width="2.5" paint-order="stroke" stroke-linejoin="round">(internal)</text>
<path d="M 1751 362 L 1761 362 L 1761 383 L 2009 383 A 5 5 0 0 1 2019 383 L 2024 383 L 2024 279 L 2160 279" fill="none" stroke="#5a6675" stroke-width="1.3" marker-end="url(#arr)"/>
<text x="2089" y="294.5" font-size="11.5" text-anchor="middle" fill="#3a4553" font-style="italic" stroke="#ffffff" stroke-width="2.5" paint-order="stroke" stroke-linejoin="round">(API_REST, JSON)</text>
<path d="M 2160 267 L 2019 267 A 5 5 0 0 0 2009 267 L 1569 267 L 1569 336 L 1579 335.55 L 1603 335.55 L 1603 336.15000000000003 L 1613 336.15000000000003" fill="none" stroke="#5a6675" stroke-width="1.3" marker-end="url(#arr)"/>
<text x="1630.5" y="257.5" font-size="11.5" text-anchor="middle" fill="#3a4553" font-style="italic" stroke="#ffffff" stroke-width="2.5" paint-order="stroke" stroke-linejoin="round">(webhook, JSON)</text>
<path d="M 1751 350.25 L 1771 350.25 L 1771 372 L 2004 372 L 2004 278 L 1574 278 A 5 5 0 0 0 1564 278 L 1473 278 A 5 5 0 0 0 1463 278 L 1458 278 L 1458 311 L 1044 311 L 1044 213 L 1054 213.25 L 1070.8 213.25" fill="none" stroke="#5a6675" stroke-width="1.3" marker-end="url(#arr)"/>
<text x="1523.5" y="268.5" font-size="11.5" text-anchor="middle" fill="#3a4553" font-style="italic" stroke="#ffffff" stroke-width="2.5" paint-order="stroke" stroke-linejoin="round">(MQ, JSON)</text>
<path d="M 1180.8 209.33333333333334 L 1296 209.33333333333334" fill="none" stroke="#5a6675" stroke-width="1.3" marker-end="url(#arr)"/>
<text x="1240.5" y="224.83333333333334" font-size="11.5" text-anchor="middle" fill="#3a4553" font-style="italic" stroke="#ffffff" stroke-width="2.5" paint-order="stroke" stroke-linejoin="round">(internal)</text>
<path d="M 1434 193.66666666666669 L 1448 194 L 1458 194 L 1458 166 L 1741 166" fill="none" stroke="#5a6675" stroke-width="1.3" marker-end="url(#arr)"/>
<text x="1523" y="181.5" font-size="11.5" text-anchor="middle" fill="#3a4553" font-style="italic" stroke="#ffffff" stroke-width="2.5" paint-order="stroke" stroke-linejoin="round">(API_REST, JSON)</text>
<path d="M 1741 151 L 1468 151 L 1468 119 L 1463 119 A 5 5 0 0 0 1453 119 L 1044 119 L 1044 167 L 1190 167 A 5 5 0 0 1 1200 167 L 1286 167 L 1286 193.66666666666669 L 1296 193.66666666666669" fill="none" stroke="#5a6675" stroke-width="1.3" marker-end="url(#arr)"/>
<text x="1529.5" y="141.5" font-size="11.5" text-anchor="middle" fill="#3a4553" font-style="italic" stroke="#ffffff" stroke-width="2.5" paint-order="stroke" stroke-linejoin="round">(webhook, JSON)</text>
<path d="M 1434 209.33333333333334 L 1448 209 L 1594 209" fill="none" stroke="#5a6675" stroke-width="1.3" marker-end="url(#arr)"/>
<text x="1499.5" y="224.5" font-size="11.5" text-anchor="middle" fill="#3a4553" font-style="italic" stroke="#ffffff" stroke-width="2.5" paint-order="stroke" stroke-linejoin="round">(MQ, JSON)</text>
<path d="M 1725 209 L 2014 209 L 2014 525 L 746 525 L 746 483 L 756 482.5 L 770 482.5" fill="none" stroke="#5a6675" stroke-width="1.3" marker-end="url(#arr)"/>
<text x="1629.5" y="540.5" font-size="11.5" text-anchor="middle" fill="#3a4553" font-style="italic" stroke="#ffffff" stroke-width="2.5" paint-order="stroke" stroke-linejoin="round">(MQ, JSON)</text>
<path d="M 151 415.5 L 165 416 L 756 415.5 L 771 415.5" fill="none" stroke="#5a6675" stroke-width="1.3" marker-end="url(#arr)"/>
<path d="M 879 415.5 L 894 416 L 904 416 L 904 269 L 1054 268.5 L 1068 268.5" fill="none" stroke="#5a6675" stroke-width="1.3" marker-end="url(#arr)"/>
<text x="979" y="284.5" font-size="11.5" text-anchor="middle" fill="#3a4553" font-style="italic" stroke="#ffffff" stroke-width="2.5" paint-order="stroke" stroke-linejoin="round">(API_REST, JSON)</text>
<path d="M 1185 268.5 L 1448 269 L 1468 269 L 1468 288 L 1559 288 L 1559 346 L 1579 345.55 L 1613 345.55" fill="none" stroke="#5a6675" stroke-width="1.3" marker-end="url(#arr)"/>
<text x="1513.5" y="303.5" font-size="11.5" text-anchor="middle" fill="#3a4553" font-style="italic" stroke="#ffffff" stroke-width="2.5" paint-order="stroke" stroke-linejoin="round">(MQ, JSON)</text>
<path d="M 880 482.5 L 894 483 L 971 483" fill="none" stroke="#5a6675" stroke-width="1.3" marker-end="url(#arr)"/>
<text x="932.5" y="498.5" font-size="11.5" text-anchor="middle" fill="#3a4553" font-style="italic" stroke="#ffffff" stroke-width="2.5" paint-order="stroke" stroke-linejoin="round">(JDBC)</text>
<path d="M 1180.8 193.66666666666669 L 1195 193.66666666666669 L 1195 156 L 1458 156 L 1458 97 L 1604 97" fill="none" stroke="#5a6675" stroke-width="1.3" marker-end="url(#arr)"/>
<text x="1533" y="112.5" font-size="11.5" text-anchor="middle" fill="#3a4553" font-style="italic" stroke="#ffffff" stroke-width="2.5" paint-order="stroke" stroke-linejoin="round">(batch, parquet)</text>
<path d="M 632 193.66666666666669 L 642 193.66666666666669 L 642 123.5 L 904 124 L 914 124 L 914 86 L 1029 86 A 5 5 0 0 1 1039 86 L 1458 86 L 1458 82 L 1604 82" fill="none" stroke="#5a6675" stroke-width="1.3" marker-end="url(#arr)"/>
<text x="1390" y="101.5" font-size="11.5" text-anchor="middle" fill="#3a4553" font-style="italic" stroke="#ffffff" stroke-width="2.5" paint-order="stroke" stroke-linejoin="round">(streaming, avro)</text>
<path d="M 151 336 L 175 336 L 175 354 L 899 354 A 5 5 0 0 1 909 354 L 914 354 L 914 366 L 1579 365.55 L 1603 365.55 L 1603 364.35 L 1613 364.35" fill="none" stroke="#5a6675" stroke-width="1.3" marker-end="url(#arr)"/>
<path d="M 1728 53 L 1034 53 L 1034 190 L 1054 189.75 L 1070.8 189.75" fill="none" stroke="#5a6675" stroke-width="1.3" marker-end="url(#arr)"/>
<text x="1089.5" y="68.5" font-size="11.5" text-anchor="middle" fill="#3a4553" font-style="italic" stroke="#ffffff" stroke-width="2.5" paint-order="stroke" stroke-linejoin="round">(MQ, JSON)</text>
<line x1="20" y1="568" x2="2258" y2="568" stroke="#e6e9ee" stroke-width="1"/>
<text x="20" y="590" font-size="11" font-weight="bold" fill="#3a4553">LÉGENDE</text>
<rect x="150" y="580" width="26" height="14" rx="3" fill="#e9f2fb" stroke="#1f77b4" stroke-dasharray="5 3"/>
<text x="182" y="591" font-size="10" fill="#17202c">Groupe d'acteurs</text>
<rect x="298" y="580" width="26" height="14" rx="3" fill="#e9f3fa" stroke="#2f83b6"/>
<text x="330" y="591" font-size="10" fill="#17202c">Application</text>
<rect x="420" y="580" width="26" height="14" rx="3" fill="#ffffff" stroke="#48546a"/>
<text x="452" y="591" font-size="10" fill="#17202c">Module applicatif</text>
<rect x="573" y="580" width="26" height="14" rx="3" fill="#f4edf8" stroke="#8a53a8"/>
<text x="605" y="591" font-size="10" fill="#17202c">File de messages / broker</text>
<rect x="767" y="580" width="26" height="14" rx="3" fill="#f4edf8" stroke="#8a53a8"/>
<text x="799" y="591" font-size="10" fill="#17202c">Entrepôt / référentiel</text>
<rect x="946" y="580" width="26" height="14" rx="3" fill="#f4eff8" stroke="#8659a6" stroke-dasharray="5 3"/>
<text x="978" y="591" font-size="10" fill="#17202c">Système externe</text>
<line x1="150" y1="610" x2="176" y2="610" stroke="#5a6675" stroke-width="1.3" marker-end="url(#arr)"/>
<text x="182" y="614" font-size="10" fill="#17202c">Flux applicatif — (protocole, format) sous le libellé</text>
</svg>
