<svg xmlns="http://www.w3.org/2000/svg" viewBox="0 0 979 351" font-family="Helvetica,Arial,sans-serif">
<defs><marker id="arr" viewBox="0 0 10 10" refX="9" refY="5" markerWidth="7" markerHeight="7" orient="auto-start-reverse">
<path d="M0,0 L10,5 L0,10 z" fill="#444444"/></marker></defs>
<rect width="979" height="351" fill="white"/>
<rect x="10" y="22" width="82" height="164" rx="6" fill="#eef4fb" stroke="#7a9cc4" stroke-width="1.2" stroke-dasharray="5 3"/>
<text x="20" y="40" font-size="13" font-weight="bold" fill="#333">HR actors</text>
<rect x="248" y="22" width="364" height="137.5" rx="6" fill="#e8f1f8" stroke="#5b8db8" stroke-width="1.2"/>
<text x="258" y="40" font-size="13" font-weight="bold" fill="#333">HR portal</text>
<circle cx="51" cy="59" r="7" fill="none" stroke="#445566" stroke-width="1.5"/>
<path d="M 40 81 q 11 -19 22 0" fill="none" stroke="#445566" stroke-width="1.5"/>
<text x="51" y="93" font-size="11" text-anchor="middle" fill="#223344">Employee</text>
<circle cx="51" cy="133" r="7" fill="none" stroke="#445566" stroke-width="1.5"/>
<path d="M 40 155 q 11 -19 22 0" fill="none" stroke="#445566" stroke-width="1.5"/>
<text x="51" y="167" font-size="11" text-anchor="middle" fill="#223344">Manager</text>
<rect x="257" y="92.5" width="108" height="47" rx="4" fill="#ffffff" stroke="#5b7a99" stroke-width="1.3"/>
<text x="311" y="112.75" font-size="12.5" text-anchor="middle" fill="#222233">Leave</text>
<text x="311" y="127.25" font-size="12.5" text-anchor="middle" fill="#222233">requests</text>
<rect x="495" y="100.33333333333333" width="108" height="47" rx="4" fill="#ffffff" stroke="#5b7a99" stroke-width="1.3"/>
<text x="549" y="120.58333333333333" font-size="12.5" text-anchor="middle" fill="#222233">Approval</text>
<text x="549" y="135.08333333333331" font-size="12.5" text-anchor="middle" fill="#222233">workflow</text>
<path d="M 737 82 v 33 a 54 7 0 0 0 108 0 v -33" fill="#f3eef8" stroke="#8a6fae" stroke-width="1.3"/>
<ellipse cx="791" cy="82" rx="54" ry="7" fill="#f3eef8" stroke="#8a6fae" stroke-width="1.3"/>
<text x="791" y="98.75" font-size="12.5" text-anchor="middle" fill="#222233">HR</text>
<text x="791" y="113.25" font-size="12.5" text-anchor="middle" fill="#222233">repository</text>
<rect x="861" y="108" width="108" height="47" rx="4" fill="#f0eef5" stroke="#9187b3" stroke-width="1.2" stroke-dasharray="5 3"/>
<text x="915" y="128.25" font-size="12.5" text-anchor="middle" fill="#222233">Payroll HRIS</text>
<text x="915" y="142.75" font-size="12.5" text-anchor="middle" fill="#222233">(outsourced)</text>
<path d="M 83 76 L 233 76 L 233 116 L 257 116" fill="none" stroke="#444444" stroke-width="1.3" marker-end="url(#arr)"/>
<text x="168" y="47.5" font-size="11.5" text-anchor="middle" fill="#333" font-style="italic" stroke="white" stroke-width="2.5" paint-order="stroke" stroke-linejoin="round">Submit a request</text>
<rect x="125" y="55.5" width="86" height="15" rx="7.5" fill="#fdf3d8" stroke="#c9a227" stroke-width="1"/>
<text x="168" y="66.5" font-size="9.5" text-anchor="middle" fill="#7a6216" font-weight="bold">Leave request</text>
<path d="M 365 116 L 495 116" fill="none" stroke="#444444" stroke-width="1.3" marker-end="url(#arr)"/>
<text x="430" y="61.5" font-size="11.5" text-anchor="middle" fill="#333" font-style="italic" stroke="white" stroke-width="2.5" paint-order="stroke" stroke-linejoin="round">Submit to the</text>
<text x="430" y="76" font-size="11.5" text-anchor="middle" fill="#333" font-style="italic" stroke="white" stroke-width="2.5" paint-order="stroke" stroke-linejoin="round">workflow</text>
<text x="430" y="90.5" font-size="9" text-anchor="middle" fill="#777" stroke="white" stroke-width="2.5" paint-order="stroke" stroke-linejoin="round">(internal)</text>
<rect x="387" y="96" width="86" height="15" rx="7.5" fill="#fdf3d8" stroke="#c9a227" stroke-width="1"/>
<text x="430" y="107" font-size="9.5" text-anchor="middle" fill="#7a6216" font-weight="bold">Leave request</text>
<path d="M 83 150 L 243 149.5 L 485 149.5 L 485 131.66666666666666 L 495 131.66666666666666" fill="none" stroke="#444444" stroke-width="1.3" marker-end="url(#arr)"/>
<text x="148.5" y="165.5" font-size="11.5" text-anchor="middle" fill="#333" font-style="italic" stroke="white" stroke-width="2.5" paint-order="stroke" stroke-linejoin="round">Approve or</text>
<text x="148.5" y="180" font-size="11.5" text-anchor="middle" fill="#333" font-style="italic" stroke="white" stroke-width="2.5" paint-order="stroke" stroke-linejoin="round">reject</text>
<path d="M 603 116 L 627 116 L 627 99 L 737 99" fill="none" stroke="#444444" stroke-width="1.3" marker-end="url(#arr)"/>
<text x="679" y="63.5" font-size="11.5" text-anchor="middle" fill="#333" font-style="italic" stroke="white" stroke-width="2.5" paint-order="stroke" stroke-linejoin="round">Update leave</text>
<text x="679" y="78" font-size="11.5" text-anchor="middle" fill="#333" font-style="italic" stroke="white" stroke-width="2.5" paint-order="stroke" stroke-linejoin="round">balances</text>
<text x="679" y="92.5" font-size="9" text-anchor="middle" fill="#777" stroke="white" stroke-width="2.5" paint-order="stroke" stroke-linejoin="round">(JDBC)</text>
<path d="M 603 131.66666666666666 L 617 132 L 861 132" fill="none" stroke="#444444" stroke-width="1.3" marker-end="url(#arr)"/>
<text x="691" y="147.5" font-size="11.5" text-anchor="middle" fill="#333" font-style="italic" stroke="white" stroke-width="2.5" paint-order="stroke" stroke-linejoin="round">Approved variable</text>
<text x="691" y="162" font-size="11.5" text-anchor="middle" fill="#333" font-style="italic" stroke="white" stroke-width="2.5" paint-order="stroke" stroke-linejoin="round">items</text>
<text x="691" y="176.5" font-size="9" text-anchor="middle" fill="#777" stroke="white" stroke-width="2.5" paint-order="stroke" stroke-linejoin="round">(SFTP, CSV)</text>
<line x1="20" y1="207" x2="959" y2="207" stroke="#ddd" stroke-width="1"/>
<text x="20" y="229" font-size="11" font-weight="bold" fill="#555">BUSINESS OBJECTS</text>
<rect x="150" y="219" width="86" height="15" rx="7.5" fill="#fdf3d8" stroke="#c9a227"/>
<text x="193" y="230" font-size="9.5" text-anchor="middle" fill="#7a6216" font-weight="bold">Leave request</text>
<text x="246" y="230" font-size="10" fill="#666">— request submitted by an employee, subject to approval</text>
<line x1="20" y1="257" x2="959" y2="257" stroke="#ddd" stroke-width="1"/>
<text x="20" y="279" font-size="11" font-weight="bold" fill="#555">LEGEND</text>
<rect x="150" y="269" width="26" height="14" rx="3" fill="#eef4fb" stroke="#7a9cc4" stroke-dasharray="5 3"/>
<text x="182" y="280" font-size="10" fill="#444">Actor group</text>
<rect x="272" y="269" width="26" height="14" rx="3" fill="#e8f1f8" stroke="#5b8db8"/>
<text x="304" y="280" font-size="10" fill="#444">Application</text>
<rect x="394" y="269" width="26" height="14" rx="3" fill="#ffffff" stroke="#5b7a99"/>
<text x="426" y="280" font-size="10" fill="#444">Application module</text>
<rect x="552" y="269" width="26" height="14" rx="3" fill="#f3eef8" stroke="#8a6fae"/>
<text x="584" y="280" font-size="10" fill="#444">Datastore / registry</text>
<rect x="720" y="269" width="26" height="14" rx="3" fill="#f0eef5" stroke="#9187b3" stroke-dasharray="5 3"/>
<text x="752" y="280" font-size="10" fill="#444">External system</text>
<line x1="150" y1="321" x2="176" y2="321" stroke="#444444" stroke-width="1.3" marker-end="url(#arr)"/>
<text x="182" y="325" font-size="10" fill="#444">Application flow — (protocol, format) under the label</text>
<rect x="480" y="314" width="96" height="15" rx="7.5" fill="#fdf3d8" stroke="#c9a227"/>
<text x="528" y="325" font-size="9.5" text-anchor="middle" fill="#7a6216" font-weight="bold">Business object</text>
<text x="584" y="325" font-size="10" fill="#444">carried by the flow</text>
</svg>
