<svg xmlns="http://www.w3.org/2000/svg" viewBox="0 0 1160 726" font-family="Helvetica,Arial,sans-serif">
<defs><marker id="arr" viewBox="0 0 10 10" refX="9" refY="5" markerWidth="7" markerHeight="7" orient="auto-start-reverse">
<path d="M0,0 L10,5 L0,10 z" fill="#444444"/></marker></defs>
<rect width="1160" height="726" fill="white"/>
<rect x="10" y="213" width="109" height="177" rx="6" fill="#eef4fb" stroke="#7a9cc4" stroke-width="1.2" stroke-dasharray="5 3"/>
<text x="20" y="231" font-size="12" font-weight="bold" fill="#333">Managers</text>
<rect x="800" y="306" width="138" height="146" rx="6" fill="#e8f1f8" stroke="#5b8db8" stroke-width="1.2"/>
<text x="810" y="324" font-size="12" font-weight="bold" fill="#333">CRM</text>
<rect x="344" y="119" width="329" height="188" rx="6" fill="#e8f1f8" stroke="#5b8db8" stroke-width="1.2"/>
<text x="354" y="137" font-size="12" font-weight="bold" fill="#333">Billing</text>
<rect x="770" y="22" width="332" height="115" rx="6" fill="#e8f1f8" stroke="#5b8db8" stroke-width="1.2"/>
<text x="780" y="40" font-size="12" font-weight="bold" fill="#333">Accounting</text>
<circle cx="75.5" cy="249" r="7" fill="none" stroke="#445566" stroke-width="1.5"/>
<path d="M 64.5 271 q 11 -19 22 0" fill="none" stroke="#445566" stroke-width="1.5"/>
<text x="75.5" y="283" font-size="10" text-anchor="middle" fill="#223344">Accountant</text>
<circle cx="64.5" cy="325" r="7" fill="none" stroke="#445566" stroke-width="1.5"/>
<path d="M 53.5 347 q 11 -19 22 0" fill="none" stroke="#445566" stroke-width="1.5"/>
<text x="64.5" y="359" font-size="10" text-anchor="middle" fill="#223344">Sales</text>
<text x="64.5" y="370" font-size="10" text-anchor="middle" fill="#223344">administration</text>
<rect x="808" y="332" width="122" height="46" rx="4" fill="#ffffff" stroke="#5b7a99" stroke-width="1.3"/>
<text x="869" y="352.25" font-size="11.5" text-anchor="middle" fill="#222233">Customer-account</text>
<text x="869" y="365.75" font-size="11.5" text-anchor="middle" fill="#222233">management</text>
<rect x="819" y="398" width="100" height="46" rx="4" fill="#ffffff" stroke="#5b7a99" stroke-width="1.3"/>
<text x="869" y="418.25" font-size="11.5" text-anchor="middle" fill="#222233">Contract</text>
<text x="869" y="431.75" font-size="11.5" text-anchor="middle" fill="#222233">management</text>
<rect x="352" y="187" width="100" height="46" rx="4" fill="#ffffff" stroke="#5b7a99" stroke-width="1.3"/>
<text x="402" y="207.25" font-size="11.5" text-anchor="middle" fill="#222233">Billing</text>
<text x="402" y="220.75" font-size="11.5" text-anchor="middle" fill="#222233">engine</text>
<rect x="550" y="187" width="115" height="46" rx="4" fill="#ffffff" stroke="#5b7a99" stroke-width="1.3"/>
<text x="607.5" y="207.25" font-size="11.5" text-anchor="middle" fill="#222233">Invoice issuing</text>
<text x="607.5" y="220.75" font-size="11.5" text-anchor="middle" fill="#222233">and sending</text>
<rect x="352" y="253" width="100" height="46" rx="4" fill="#ffffff" stroke="#5b7a99" stroke-width="1.3"/>
<text x="402" y="273.25" font-size="11.5" text-anchor="middle" fill="#222233">Dunning and</text>
<text x="402" y="286.75" font-size="11.5" text-anchor="middle" fill="#222233">collection</text>
<rect x="985" y="56.66666666666667" width="109" height="38" rx="4" fill="#ffffff" stroke="#5b7a99" stroke-width="1.3"/>
<text x="1039.5" y="79.66666666666667" font-size="11.5" text-anchor="middle" fill="#222233">General ledger</text>
<rect x="778" y="59" width="100" height="46" rx="4" fill="#ffffff" stroke="#5b7a99" stroke-width="1.3"/>
<text x="828" y="79.25" font-size="11.5" text-anchor="middle" fill="#222233">Accounts</text>
<text x="828" y="92.75" font-size="11.5" text-anchor="middle" fill="#222233">receivable</text>
<path d="M 1050 339 v 32 a 50 7 0 0 0 100 0 v -32" fill="#f3eef8" stroke="#8a6fae" stroke-width="1.3"/>
<ellipse cx="1100" cy="339" rx="50" ry="7" fill="#f3eef8" stroke="#8a6fae" stroke-width="1.3"/>
<text x="1100" y="355.75" font-size="11.5" text-anchor="middle" fill="#222233">Customer</text>
<text x="1100" y="369.25" font-size="11.5" text-anchor="middle" fill="#222233">repository</text>
<path d="M 144 186 v 32 a 50 7 0 0 0 100 0 v -32" fill="#f3eef8" stroke="#8a6fae" stroke-width="1.3"/>
<ellipse cx="194" cy="186" rx="50" ry="7" fill="#f3eef8" stroke="#8a6fae" stroke-width="1.3"/>
<text x="194" y="202.75" font-size="11.5" text-anchor="middle" fill="#222233">Offer</text>
<text x="194" y="216.25" font-size="11.5" text-anchor="middle" fill="#222233">catalog</text>
<rect x="874" y="241" width="100" height="46" rx="4" fill="#f0eef5" stroke="#9187b3" stroke-width="1.2" stroke-dasharray="5 3"/>
<text x="924" y="261.25" font-size="11.5" text-anchor="middle" fill="#222233">Partner EDI</text>
<text x="924" y="274.75" font-size="11.5" text-anchor="middle" fill="#222233">platform</text>
<rect x="874" y="187" width="147" height="46" rx="4" fill="#f0eef5" stroke="#9187b3" stroke-width="1.2" stroke-dasharray="5 3"/>
<text x="947.5" y="207.25" font-size="11.5" text-anchor="middle" fill="#222233">Electronic-invoicing</text>
<text x="947.5" y="220.75" font-size="11.5" text-anchor="middle" fill="#222233">portal (PPF)</text>
<path d="M 111 348.5 L 124 349 L 246 349 L 246 421 L 324 421 A 5 5 0 0 1 334 421 L 819 421" fill="none" stroke="#444444" stroke-width="1.3" marker-end="url(#arr)"/>
<text x="287.5" y="435.5" font-size="10.5" text-anchor="middle" fill="#333" font-style="italic" stroke="white" stroke-width="2.5" paint-order="stroke" stroke-linejoin="round">Enter and</text>
<text x="287.5" y="449" font-size="10.5" text-anchor="middle" fill="#333" font-style="italic" stroke="white" stroke-width="2.5" paint-order="stroke" stroke-linejoin="round">update</text>
<text x="287.5" y="462.5" font-size="10.5" text-anchor="middle" fill="#333" font-style="italic" stroke="white" stroke-width="2.5" paint-order="stroke" stroke-linejoin="round">contracts</text>
<rect x="258" y="470.5" width="59" height="15" rx="7.5" fill="#fdf3d8" stroke="#c9a227" stroke-width="1"/>
<text x="287.5" y="481.5" font-size="9.5" text-anchor="middle" fill="#7a6216" font-weight="bold">Contract</text>
<path d="M 930 355 L 1050 355" fill="none" stroke="#444444" stroke-width="1.3" marker-end="url(#arr)"/>
<text x="996.5" y="369.5" font-size="10.5" text-anchor="middle" fill="#333" font-style="italic" stroke="white" stroke-width="2.5" paint-order="stroke" stroke-linejoin="round">Sync</text>
<text x="996.5" y="383" font-size="10.5" text-anchor="middle" fill="#333" font-style="italic" stroke="white" stroke-width="2.5" paint-order="stroke" stroke-linejoin="round">customer</text>
<text x="996.5" y="396.5" font-size="10.5" text-anchor="middle" fill="#333" font-style="italic" stroke="white" stroke-width="2.5" paint-order="stroke" stroke-linejoin="round">accounts</text>
<text x="996.5" y="410" font-size="9" text-anchor="middle" fill="#777" stroke="white" stroke-width="2.5" paint-order="stroke" stroke-linejoin="round">(API_REST, JSON)</text>
<path d="M 919 421 L 953 421 L 953 460 L 329 460 L 329 218 L 339 217.66666666666666 L 352 217.66666666666666" fill="none" stroke="#444444" stroke-width="1.3" marker-end="url(#arr)"/>
<text x="830.5" y="474.5" font-size="10.5" text-anchor="middle" fill="#333" font-style="italic" stroke="white" stroke-width="2.5" paint-order="stroke" stroke-linejoin="round">Contractual</text>
<text x="830.5" y="488" font-size="10.5" text-anchor="middle" fill="#333" font-style="italic" stroke="white" stroke-width="2.5" paint-order="stroke" stroke-linejoin="round">items to</text>
<text x="830.5" y="501.5" font-size="10.5" text-anchor="middle" fill="#333" font-style="italic" stroke="white" stroke-width="2.5" paint-order="stroke" stroke-linejoin="round">bill</text>
<text x="830.5" y="515" font-size="9" text-anchor="middle" fill="#777" stroke="white" stroke-width="2.5" paint-order="stroke" stroke-linejoin="round">(MQ, JSON)</text>
<rect x="801" y="521.5" width="59" height="15" rx="7.5" fill="#fdf3d8" stroke="#c9a227" stroke-width="1"/>
<text x="830.5" y="532.5" font-size="9.5" text-anchor="middle" fill="#7a6216" font-weight="bold">Contract</text>
<path d="M 244 202 L 339 202.33333333333331 L 352 202.33333333333331" fill="none" stroke="#444444" stroke-width="1.3" marker-end="url(#arr)"/>
<text x="286.5" y="216.5" font-size="10.5" text-anchor="middle" fill="#333" font-style="italic" stroke="white" stroke-width="2.5" paint-order="stroke" stroke-linejoin="round">Prices and</text>
<text x="286.5" y="230" font-size="10.5" text-anchor="middle" fill="#333" font-style="italic" stroke="white" stroke-width="2.5" paint-order="stroke" stroke-linejoin="round">terms</text>
<text x="286.5" y="243.5" font-size="9" text-anchor="middle" fill="#777" stroke="white" stroke-width="2.5" paint-order="stroke" stroke-linejoin="round">(JDBC)</text>
<path d="M 452 210 L 550 210" fill="none" stroke="#444444" stroke-width="1.3" marker-end="url(#arr)"/>
<text x="501" y="156.5" font-size="10.5" text-anchor="middle" fill="#333" font-style="italic" stroke="white" stroke-width="2.5" paint-order="stroke" stroke-linejoin="round">Computed</text>
<text x="501" y="170" font-size="10.5" text-anchor="middle" fill="#333" font-style="italic" stroke="white" stroke-width="2.5" paint-order="stroke" stroke-linejoin="round">invoices</text>
<text x="501" y="183.5" font-size="9" text-anchor="middle" fill="#777" stroke="white" stroke-width="2.5" paint-order="stroke" stroke-linejoin="round">(MQ, JSON)</text>
<rect x="474" y="190" width="54" height="15" rx="7.5" fill="#fdf3d8" stroke="#c9a227" stroke-width="1"/>
<text x="501" y="201" font-size="9.5" text-anchor="middle" fill="#7a6216" font-weight="bold">Invoice</text>
<path d="M 665 221.5 L 678 222 L 688 222 L 688 218 L 864 218 L 864 264 L 874 264" fill="none" stroke="#444444" stroke-width="1.3" marker-end="url(#arr)"/>
<text x="824.5" y="232.5" font-size="10.5" text-anchor="middle" fill="#333" font-style="italic" stroke="white" stroke-width="2.5" paint-order="stroke" stroke-linejoin="round">Submit</text>
<text x="824.5" y="246" font-size="10.5" text-anchor="middle" fill="#333" font-style="italic" stroke="white" stroke-width="2.5" paint-order="stroke" stroke-linejoin="round">paperless</text>
<text x="824.5" y="259.5" font-size="10.5" text-anchor="middle" fill="#333" font-style="italic" stroke="white" stroke-width="2.5" paint-order="stroke" stroke-linejoin="round">invoices</text>
<text x="824.5" y="273" font-size="9" text-anchor="middle" fill="#777" stroke="white" stroke-width="2.5" paint-order="stroke" stroke-linejoin="round">(AS4, UBL)</text>
<rect x="797.5" y="279.5" width="54" height="15" rx="7.5" fill="#fdf3d8" stroke="#c9a227" stroke-width="1"/>
<text x="824.5" y="290.5" font-size="9.5" text-anchor="middle" fill="#7a6216" font-weight="bold">Invoice</text>
<path d="M 665 210 L 874 210" fill="none" stroke="#444444" stroke-width="1.3" marker-end="url(#arr)"/>
<text x="749" y="156.5" font-size="10.5" text-anchor="middle" fill="#333" font-style="italic" stroke="white" stroke-width="2.5" paint-order="stroke" stroke-linejoin="round">Regulatory</text>
<text x="749" y="170" font-size="10.5" text-anchor="middle" fill="#333" font-style="italic" stroke="white" stroke-width="2.5" paint-order="stroke" stroke-linejoin="round">transmission</text>
<text x="749" y="183.5" font-size="9" text-anchor="middle" fill="#777" stroke="white" stroke-width="2.5" paint-order="stroke" stroke-linejoin="round">(API_REST, FacturX)</text>
<rect x="722" y="190" width="54" height="15" rx="7.5" fill="#fdf3d8" stroke="#c9a227" stroke-width="1"/>
<text x="749" y="201" font-size="9.5" text-anchor="middle" fill="#7a6216" font-weight="bold">Invoice</text>
<path d="M 665 198.5 L 678 199 L 688 199 L 688 82 L 778 82" fill="none" stroke="#444444" stroke-width="1.3" marker-end="url(#arr)"/>
<text x="726.5" y="96.5" font-size="10.5" text-anchor="middle" fill="#333" font-style="italic" stroke="white" stroke-width="2.5" paint-order="stroke" stroke-linejoin="round">Sales</text>
<text x="726.5" y="110" font-size="10.5" text-anchor="middle" fill="#333" font-style="italic" stroke="white" stroke-width="2.5" paint-order="stroke" stroke-linejoin="round">entries</text>
<text x="726.5" y="123.5" font-size="9" text-anchor="middle" fill="#777" stroke="white" stroke-width="2.5" paint-order="stroke" stroke-linejoin="round">(MQ, JSON)</text>
<path d="M 452 276 L 785 276 L 785 355 L 808 355" fill="none" stroke="#444444" stroke-width="1.3" marker-end="url(#arr)"/>
<text x="731.5" y="290.5" font-size="10.5" text-anchor="middle" fill="#333" font-style="italic" stroke="white" stroke-width="2.5" paint-order="stroke" stroke-linejoin="round">Customer</text>
<text x="731.5" y="304" font-size="10.5" text-anchor="middle" fill="#333" font-style="italic" stroke="white" stroke-width="2.5" paint-order="stroke" stroke-linejoin="round">dunning</text>
<text x="731.5" y="317.5" font-size="10.5" text-anchor="middle" fill="#333" font-style="italic" stroke="white" stroke-width="2.5" paint-order="stroke" stroke-linejoin="round">status</text>
<text x="731.5" y="331" font-size="9" text-anchor="middle" fill="#777" stroke="white" stroke-width="2.5" paint-order="stroke" stroke-linejoin="round">(API_REST, JSON)</text>
<path d="M 878 82 L 985 82" fill="none" stroke="#444444" stroke-width="1.3" marker-end="url(#arr)"/>
<text x="931.5" y="96.5" font-size="10.5" text-anchor="middle" fill="#333" font-style="italic" stroke="white" stroke-width="2.5" paint-order="stroke" stroke-linejoin="round">Accounting</text>
<text x="931.5" y="110" font-size="10.5" text-anchor="middle" fill="#333" font-style="italic" stroke="white" stroke-width="2.5" paint-order="stroke" stroke-linejoin="round">posting</text>
<text x="931.5" y="123.5" font-size="9" text-anchor="middle" fill="#777" stroke="white" stroke-width="2.5" paint-order="stroke" stroke-linejoin="round">(batch, CSV)</text>
<path d="M 111 257.6666666666667 L 124 258 L 134 258 L 134 48 L 975 48.00000000000003 L 975 69.33333333333334 L 985 69.33333333333334" fill="none" stroke="#444444" stroke-width="1.3" marker-end="url(#arr)"/>
<text x="651" y="62.5" font-size="10.5" text-anchor="middle" fill="#333" font-style="italic" stroke="white" stroke-width="2.5" paint-order="stroke" stroke-linejoin="round">Controls</text>
<text x="651" y="76" font-size="10.5" text-anchor="middle" fill="#333" font-style="italic" stroke="white" stroke-width="2.5" paint-order="stroke" stroke-linejoin="round">and</text>
<text x="651" y="89.5" font-size="10.5" text-anchor="middle" fill="#333" font-style="italic" stroke="white" stroke-width="2.5" paint-order="stroke" stroke-linejoin="round">closings</text>
<path d="M 111 276.3333333333333 L 124 276 L 324 276 A 5 5 0 0 1 334 276 L 352 276" fill="none" stroke="#444444" stroke-width="1.3" marker-end="url(#arr)"/>
<text x="176.5" y="253.5" font-size="10.5" text-anchor="middle" fill="#333" font-style="italic" stroke="white" stroke-width="2.5" paint-order="stroke" stroke-linejoin="round">Steer</text>
<text x="176.5" y="267" font-size="10.5" text-anchor="middle" fill="#333" font-style="italic" stroke="white" stroke-width="2.5" paint-order="stroke" stroke-linejoin="round">collection</text>
<line x1="20" y1="560" x2="1140" y2="560" stroke="#ddd" stroke-width="1"/>
<text x="20" y="582" font-size="11" font-weight="bold" fill="#555">BUSINESS OBJECTS</text>
<rect x="150" y="572" width="54" height="15" rx="7.5" fill="#fdf3d8" stroke="#c9a227"/>
<text x="177" y="583" font-size="9.5" text-anchor="middle" fill="#7a6216" font-weight="bold">Invoice</text>
<text x="214" y="583" font-size="10" fill="#666">— billing document issued to a customer</text>
<rect x="150" y="596" width="59" height="15" rx="7.5" fill="#fdf3d8" stroke="#c9a227"/>
<text x="179.5" y="607" font-size="9.5" text-anchor="middle" fill="#7a6216" font-weight="bold">Contract</text>
<text x="219" y="607" font-size="10" fill="#666">— active commercial commitment of a customer</text>
<line x1="20" y1="634" x2="1140" y2="634" stroke="#ddd" stroke-width="1"/>
<text x="20" y="656" font-size="11" font-weight="bold" fill="#555">LEGEND</text>
<rect x="150" y="646" width="26" height="14" rx="3" fill="#eef4fb" stroke="#7a9cc4" stroke-dasharray="5 3"/>
<text x="182" y="657" font-size="10" fill="#444">Actor group</text>
<rect x="272" y="646" width="26" height="14" rx="3" fill="#e8f1f8" stroke="#5b8db8"/>
<text x="304" y="657" font-size="10" fill="#444">Application</text>
<rect x="394" y="646" width="26" height="14" rx="3" fill="#ffffff" stroke="#5b7a99"/>
<text x="426" y="657" font-size="10" fill="#444">Application module</text>
<rect x="552" y="646" width="26" height="14" rx="3" fill="#f3eef8" stroke="#8a6fae"/>
<text x="584" y="657" font-size="10" fill="#444">Datastore / registry</text>
<rect x="720" y="646" width="26" height="14" rx="3" fill="#f0eef5" stroke="#9187b3" stroke-dasharray="5 3"/>
<text x="752" y="657" font-size="10" fill="#444">External system</text>
<line x1="150" y1="676" x2="176" y2="676" stroke="#444444" stroke-width="1.3" marker-end="url(#arr)"/>
<text x="182" y="680" font-size="10" fill="#444">Application flow — (protocol, format) under the label</text>
<rect x="480" y="669" width="96" height="15" rx="7.5" fill="#fdf3d8" stroke="#c9a227"/>
<text x="528" y="680" font-size="9.5" text-anchor="middle" fill="#7a6216" font-weight="bold">Business object</text>
<text x="584" y="680" font-size="10" fill="#444">carried by the flow</text>
<text x="150" y="704" font-size="10" fill="#444" font-style="italic">Factur-X mandatory since the electronic-invoicing reform</text>
</svg>
