<svg xmlns="http://www.w3.org/2000/svg" viewBox="0 0 2655 995" font-family="Helvetica,Arial,sans-serif">
<defs><marker id="arr" viewBox="0 0 10 10" refX="9" refY="5" markerWidth="7" markerHeight="7" orient="auto-start-reverse">
<path d="M0,0 L10,5 L0,10 z" fill="#444444"/></marker></defs>
<rect width="2655" height="995" fill="white"/>
<rect x="12" y="412" width="139" height="272" rx="6" fill="#eef4fb" stroke="#7a9cc4" stroke-width="1.2" stroke-dasharray="5 3"/>
<text x="22" y="430" font-size="12" font-weight="bold" fill="#333">Internal teams</text>
<rect x="687" y="415" width="431" height="209.5" rx="6" fill="#e8f1f8" stroke="#5b8db8" stroke-width="1.2"/>
<text x="697" y="433" font-size="12" font-weight="bold" fill="#333">Sales front</text>
<rect x="1281" y="388" width="403" height="199.5" rx="6" fill="#e8f1f8" stroke="#5b8db8" stroke-width="1.2"/>
<text x="1291" y="406" font-size="12" font-weight="bold" fill="#333">Order management</text>
<rect x="338" y="507" width="164" height="164" rx="6" fill="#e8f1f8" stroke="#5b8db8" stroke-width="1.2"/>
<text x="348" y="525" font-size="12" font-weight="bold" fill="#333">Product repository</text>
<rect x="319" y="398" width="164" height="93" rx="6" fill="#e8f1f8" stroke="#5b8db8" stroke-width="1.2"/>
<text x="329" y="416" font-size="12" font-weight="bold" fill="#333">Pricing</text>
<rect x="1869" y="535" width="425" height="135.5" rx="6" fill="#e8f1f8" stroke="#5b8db8" stroke-width="1.2"/>
<text x="1879" y="553" font-size="12" font-weight="bold" fill="#333">Payment hub</text>
<rect x="1847" y="90" width="164" height="164" rx="6" fill="#e8f1f8" stroke="#5b8db8" stroke-width="1.2"/>
<text x="1857" y="108" font-size="12" font-weight="bold" fill="#333">Customer care</text>
<circle cx="95.5" cy="539" r="7" fill="none" stroke="#445566" stroke-width="1.5"/>
<path d="M 84.5 561 q 11 -19 22 0" fill="none" stroke="#445566" stroke-width="1.5"/>
<text x="95.5" y="573" font-size="10" text-anchor="middle" fill="#223344">Merchandising</text>
<text x="95.5" y="584" font-size="10" text-anchor="middle" fill="#223344">manager</text>
<circle cx="81.5" cy="452" r="7" fill="none" stroke="#445566" stroke-width="1.5"/>
<path d="M 70.5 474 q 11 -19 22 0" fill="none" stroke="#445566" stroke-width="1.5"/>
<text x="81.5" y="486" font-size="10" text-anchor="middle" fill="#223344">Customer-relations</text>
<text x="81.5" y="497" font-size="10" text-anchor="middle" fill="#223344">advisor</text>
<circle cx="103.5" cy="626" r="7" fill="none" stroke="#445566" stroke-width="1.5"/>
<path d="M 92.5 648 q 11 -19 22 0" fill="none" stroke="#445566" stroke-width="1.5"/>
<text x="103.5" y="660" font-size="10" text-anchor="middle" fill="#223344">Accountant</text>
<rect x="699" y="561.5" width="140" height="51" rx="4" fill="#ffffff" stroke="#5b7a99" stroke-width="1.3"/>
<text x="769" y="584.25" font-size="11.5" text-anchor="middle" fill="#222233">E-commerce</text>
<text x="769" y="597.75" font-size="11.5" text-anchor="middle" fill="#222233">site</text>
<rect x="699" y="445" width="140" height="51" rx="4" fill="#ffffff" stroke="#5b7a99" stroke-width="1.3"/>
<text x="769" y="467.75" font-size="11.5" text-anchor="middle" fill="#222233">Mobile</text>
<text x="769" y="481.25" font-size="11.5" text-anchor="middle" fill="#222233">app</text>
<rect x="966" y="502" width="140" height="51" rx="4" fill="#ffffff" stroke="#5b7a99" stroke-width="1.3"/>
<text x="1036" y="524.75" font-size="11.5" text-anchor="middle" fill="#222233">Checkout</text>
<text x="1036" y="538.25" font-size="11.5" text-anchor="middle" fill="#222233">funnel</text>
<rect x="1293" y="446" width="140" height="51" rx="4" fill="#ffffff" stroke="#5b7a99" stroke-width="1.3"/>
<text x="1363" y="468.75" font-size="11.5" text-anchor="middle" fill="#222233">Order</text>
<text x="1363" y="482.25" font-size="11.5" text-anchor="middle" fill="#222233">lifecycle</text>
<rect x="1532" y="418" width="140" height="51" rx="4" fill="#ffffff" stroke="#5b7a99" stroke-width="1.3"/>
<text x="1602" y="440.75" font-size="11.5" text-anchor="middle" fill="#222233">Shipment</text>
<text x="1602" y="454.25" font-size="11.5" text-anchor="middle" fill="#222233">orchestration</text>
<rect x="1293" y="524.5" width="140" height="51" rx="4" fill="#ffffff" stroke="#5b7a99" stroke-width="1.3"/>
<text x="1363" y="547.25" font-size="11.5" text-anchor="middle" fill="#222233">Returns and</text>
<text x="1363" y="560.75" font-size="11.5" text-anchor="middle" fill="#222233">refunds</text>
<rect x="350" y="537" width="140" height="51" rx="4" fill="#ffffff" stroke="#5b7a99" stroke-width="1.3"/>
<text x="420" y="559.75" font-size="11.5" text-anchor="middle" fill="#222233">Catalog</text>
<text x="420" y="573.25" font-size="11.5" text-anchor="middle" fill="#222233">management</text>
<rect x="350" y="608" width="140" height="51" rx="4" fill="#ffffff" stroke="#5b7a99" stroke-width="1.3"/>
<text x="420" y="630.75" font-size="11.5" text-anchor="middle" fill="#222233">Media</text>
<text x="420" y="644.25" font-size="11.5" text-anchor="middle" fill="#222233">management</text>
<rect x="331" y="428" width="140" height="51" rx="4" fill="#ffffff" stroke="#5b7a99" stroke-width="1.3"/>
<text x="401" y="450.75" font-size="11.5" text-anchor="middle" fill="#222233">Pricing-rule</text>
<text x="401" y="464.25" font-size="11.5" text-anchor="middle" fill="#222233">engine</text>
<rect x="1881" y="598.25" width="140" height="51" rx="4" fill="#ffffff" stroke="#5b7a99" stroke-width="1.3"/>
<text x="1951" y="621" font-size="11.5" text-anchor="middle" fill="#222233">Payment</text>
<text x="1951" y="634.5" font-size="11.5" text-anchor="middle" fill="#222233">orchestration</text>
<rect x="2142" y="585.5" width="140" height="51" rx="4" fill="#ffffff" stroke="#5b7a99" stroke-width="1.3"/>
<text x="2212" y="608.25" font-size="11.5" text-anchor="middle" fill="#222233">Anti-fraud</text>
<text x="2212" y="621.75" font-size="11.5" text-anchor="middle" fill="#222233">scoring</text>
<rect x="1859" y="191" width="140" height="51" rx="4" fill="#ffffff" stroke="#5b7a99" stroke-width="1.3"/>
<text x="1929" y="213.75" font-size="11.5" text-anchor="middle" fill="#222233">Ticket</text>
<text x="1929" y="227.25" font-size="11.5" text-anchor="middle" fill="#222233">management</text>
<rect x="1859" y="120" width="140" height="51" rx="4" fill="#ffffff" stroke="#5b7a99" stroke-width="1.3"/>
<text x="1929" y="142.75" font-size="11.5" text-anchor="middle" fill="#222233">Customer</text>
<text x="1929" y="156.25" font-size="11.5" text-anchor="middle" fill="#222233">self-care</text>
<path d="M 2343 532 v 37 a 70 7 0 0 0 140 0 v -37" fill="#f3eef8" stroke="#8a6fae" stroke-width="1.3"/>
<ellipse cx="2413" cy="532" rx="70" ry="7" fill="#f3eef8" stroke="#8a6fae" stroke-width="1.3"/>
<text x="2413" y="551.25" font-size="11.5" text-anchor="middle" fill="#222233">Data</text>
<text x="2413" y="564.75" font-size="11.5" text-anchor="middle" fill="#222233">warehouse</text>
<path d="M 2199 127 v 37 a 70 7 0 0 0 140 0 v -37" fill="#f3eef8" stroke="#8a6fae" stroke-width="1.3"/>
<ellipse cx="2269" cy="127" rx="70" ry="7" fill="#f3eef8" stroke="#8a6fae" stroke-width="1.3"/>
<text x="2269" y="146.25" font-size="11.5" text-anchor="middle" fill="#222233">Customer</text>
<text x="2269" y="159.75" font-size="11.5" text-anchor="middle" fill="#222233">repository</text>
<rect x="2503" y="446" width="140" height="46" rx="4" fill="#f0eef5" stroke="#9187b3" stroke-width="1.2" stroke-dasharray="5 3"/>
<text x="2573" y="473" font-size="11.5" text-anchor="middle" fill="#222233">PSP</text>
<rect x="1864" y="367" width="140" height="51" rx="4" fill="#f0eef5" stroke="#9187b3" stroke-width="1.2" stroke-dasharray="5 3"/>
<text x="1934" y="389.75" font-size="11.5" text-anchor="middle" fill="#222233">Carrier</text>
<text x="1934" y="403.25" font-size="11.5" text-anchor="middle" fill="#222233">platforms</text>
<rect x="2359" y="244" width="140" height="51" rx="4" fill="#f0eef5" stroke="#9187b3" stroke-width="1.2" stroke-dasharray="5 3"/>
<text x="2429" y="266.75" font-size="11.5" text-anchor="middle" fill="#222233">Group</text>
<text x="2429" y="280.25" font-size="11.5" text-anchor="middle" fill="#222233">ERP</text>
<path d="M 139 562.5 L 156 563 L 333 562.5 L 350 562.5" fill="none" stroke="#444444" stroke-width="1.3" marker-end="url(#arr)"/>
<text x="244.5" y="578.5" font-size="10.5" text-anchor="middle" fill="#333" font-style="italic" stroke="white" stroke-width="2.5" paint-order="stroke" stroke-linejoin="round">Enrich product</text>
<text x="244.5" y="592" font-size="10.5" text-anchor="middle" fill="#333" font-style="italic" stroke="white" stroke-width="2.5" paint-order="stroke" stroke-linejoin="round">pages</text>
<path d="M 490 562.5 L 507 563 L 541 563 L 541 587 L 699 587" fill="none" stroke="#444444" stroke-width="1.3" marker-end="url(#arr)"/>
<text x="594.5" y="532.5" font-size="10.5" text-anchor="middle" fill="#333" font-style="italic" stroke="white" stroke-width="2.5" paint-order="stroke" stroke-linejoin="round">Publish the</text>
<text x="594.5" y="546" font-size="10.5" text-anchor="middle" fill="#333" font-style="italic" stroke="white" stroke-width="2.5" paint-order="stroke" stroke-linejoin="round">catalog</text>
<text x="594.5" y="559.5" font-size="9" text-anchor="middle" fill="#777" stroke="white" stroke-width="2.5" paint-order="stroke" stroke-linejoin="round">(API_REST, JSON)</text>
<rect x="567.5" y="566" width="54" height="15" rx="7.5" fill="#fdf3d8" stroke="#c9a227" stroke-width="1"/>
<text x="594.5" y="577" font-size="9.5" text-anchor="middle" fill="#7a6216" font-weight="bold">Product</text>
<path d="M 490 633.5 L 507 634 L 541 634 L 541 600 L 682 599.75 L 699 599.75" fill="none" stroke="#444444" stroke-width="1.3" marker-end="url(#arr)"/>
<text x="584.5" y="615.5" font-size="10.5" text-anchor="middle" fill="#333" font-style="italic" stroke="white" stroke-width="2.5" paint-order="stroke" stroke-linejoin="round">Product</text>
<text x="584.5" y="629" font-size="10.5" text-anchor="middle" fill="#333" font-style="italic" stroke="white" stroke-width="2.5" paint-order="stroke" stroke-linejoin="round">visuals</text>
<text x="584.5" y="642.5" font-size="9" text-anchor="middle" fill="#777" stroke="white" stroke-width="2.5" paint-order="stroke" stroke-linejoin="round">(CDN, HTTPS)</text>
<path d="M 471 462 L 648 462 L 648 574 L 682 574.25 L 699 574.25" fill="none" stroke="#444444" stroke-width="1.3" marker-end="url(#arr)"/>
<text x="594.5" y="477.5" font-size="10.5" text-anchor="middle" fill="#333" font-style="italic" stroke="white" stroke-width="2.5" paint-order="stroke" stroke-linejoin="round">Current</text>
<text x="594.5" y="491" font-size="10.5" text-anchor="middle" fill="#333" font-style="italic" stroke="white" stroke-width="2.5" paint-order="stroke" stroke-linejoin="round">prices</text>
<text x="594.5" y="504.5" font-size="9" text-anchor="middle" fill="#777" stroke="white" stroke-width="2.5" paint-order="stroke" stroke-linejoin="round">(API_REST, JSON)</text>
<path d="M 471 445 L 658 445 L 658 528 L 682 527.5 L 966 527.5" fill="none" stroke="#444444" stroke-width="1.3" marker-end="url(#arr)"/>
<text x="585" y="409.5" font-size="10.5" text-anchor="middle" fill="#333" font-style="italic" stroke="white" stroke-width="2.5" paint-order="stroke" stroke-linejoin="round">Prices guaranteed</text>
<text x="585" y="423" font-size="10.5" text-anchor="middle" fill="#333" font-style="italic" stroke="white" stroke-width="2.5" paint-order="stroke" stroke-linejoin="round">at cart</text>
<text x="585" y="436.5" font-size="9" text-anchor="middle" fill="#777" stroke="white" stroke-width="2.5" paint-order="stroke" stroke-linejoin="round">(API_REST, JSON)</text>
<path d="M 2359 261 L 2349 261 L 2349 77 L 304 77 L 304 454 L 314 453.5 L 331 453.5" fill="none" stroke="#444444" stroke-width="1.3" marker-end="url(#arr)"/>
<text x="370" y="41.5" font-size="10.5" text-anchor="middle" fill="#333" font-style="italic" stroke="white" stroke-width="2.5" paint-order="stroke" stroke-linejoin="round">Reference purchase</text>
<text x="370" y="55" font-size="10.5" text-anchor="middle" fill="#333" font-style="italic" stroke="white" stroke-width="2.5" paint-order="stroke" stroke-linejoin="round">costs</text>
<text x="370" y="68.5" font-size="9" text-anchor="middle" fill="#777" stroke="white" stroke-width="2.5" paint-order="stroke" stroke-linejoin="round">(SFTP, CSV)</text>
<path d="M 839 578.5 L 849 578.5 L 849 538.5 L 956 538.5 L 956 540.25 L 966 540.25" fill="none" stroke="#444444" stroke-width="1.3" marker-end="url(#arr)"/>
<text x="902.5" y="553" font-size="10.5" text-anchor="middle" fill="#333" font-style="italic" stroke="white" stroke-width="2.5" paint-order="stroke" stroke-linejoin="round">Go to</text>
<text x="902.5" y="566.5" font-size="10.5" text-anchor="middle" fill="#333" font-style="italic" stroke="white" stroke-width="2.5" paint-order="stroke" stroke-linejoin="round">checkout</text>
<text x="902.5" y="580" font-size="9" text-anchor="middle" fill="#777" stroke="white" stroke-width="2.5" paint-order="stroke" stroke-linejoin="round">(internal)</text>
<path d="M 839 470.5 L 956 470.5 L 956 514.75 L 966 514.75" fill="none" stroke="#444444" stroke-width="1.3" marker-end="url(#arr)"/>
<text x="902.5" y="485" font-size="10.5" text-anchor="middle" fill="#333" font-style="italic" stroke="white" stroke-width="2.5" paint-order="stroke" stroke-linejoin="round">Mobile</text>
<text x="902.5" y="498.5" font-size="10.5" text-anchor="middle" fill="#333" font-style="italic" stroke="white" stroke-width="2.5" paint-order="stroke" stroke-linejoin="round">cart</text>
<text x="902.5" y="512" font-size="9" text-anchor="middle" fill="#777" stroke="white" stroke-width="2.5" paint-order="stroke" stroke-linejoin="round">(API_REST, JSON)</text>
<path d="M 1106 519 L 1133 519 L 1133 472 L 1276 471.5 L 1293 471.5" fill="none" stroke="#444444" stroke-width="1.3" marker-end="url(#arr)"/>
<text x="1199.5" y="487.5" font-size="10.5" text-anchor="middle" fill="#333" font-style="italic" stroke="white" stroke-width="2.5" paint-order="stroke" stroke-linejoin="round">Create the</text>
<text x="1199.5" y="501" font-size="10.5" text-anchor="middle" fill="#333" font-style="italic" stroke="white" stroke-width="2.5" paint-order="stroke" stroke-linejoin="round">order</text>
<text x="1199.5" y="514.5" font-size="9" text-anchor="middle" fill="#777" stroke="white" stroke-width="2.5" paint-order="stroke" stroke-linejoin="round">(MQ, JSON)</text>
<rect x="1178" y="521" width="43" height="15" rx="7.5" fill="#fdf3d8" stroke="#c9a227" stroke-width="1"/>
<text x="1199.5" y="532" font-size="9.5" text-anchor="middle" fill="#7a6216" font-weight="bold">Order</text>
<path d="M 1106 536 L 1143 536 L 1143 604 L 1261 604 A 5 5 0 0 1 1271 604 L 1723 604 L 1723 629 L 1864 628.85 L 1881 628.85" fill="none" stroke="#444444" stroke-width="1.3" marker-end="url(#arr)"/>
<text x="1669.5" y="619.5" font-size="10.5" text-anchor="middle" fill="#333" font-style="italic" stroke="white" stroke-width="2.5" paint-order="stroke" stroke-linejoin="round">Payment</text>
<text x="1669.5" y="633" font-size="10.5" text-anchor="middle" fill="#333" font-style="italic" stroke="white" stroke-width="2.5" paint-order="stroke" stroke-linejoin="round">request</text>
<text x="1669.5" y="646.5" font-size="9" text-anchor="middle" fill="#777" stroke="white" stroke-width="2.5" paint-order="stroke" stroke-linejoin="round">(API_REST, JSON)</text>
<rect x="1642.5" y="653" width="54" height="15" rx="7.5" fill="#fdf3d8" stroke="#c9a227" stroke-width="1"/>
<text x="1669.5" y="664" font-size="9.5" text-anchor="middle" fill="#7a6216" font-weight="bold">Payment</text>
<path d="M 2021 611 L 2142 611" fill="none" stroke="#444444" stroke-width="1.3" marker-end="url(#arr)"/>
<text x="2086.5" y="576.5" font-size="10.5" text-anchor="middle" fill="#333" font-style="italic" stroke="white" stroke-width="2.5" paint-order="stroke" stroke-linejoin="round">Score the</text>
<text x="2086.5" y="590" font-size="10.5" text-anchor="middle" fill="#333" font-style="italic" stroke="white" stroke-width="2.5" paint-order="stroke" stroke-linejoin="round">transaction</text>
<text x="2086.5" y="603.5" font-size="9" text-anchor="middle" fill="#777" stroke="white" stroke-width="2.5" paint-order="stroke" stroke-linejoin="round">(internal)</text>
<path d="M 2021 623.75 L 2041 623.75 L 2041 646.5 L 2299 647 L 2314 647 A 5 5 0 0 1 2324 647 L 2329 647 L 2329 592 L 2493 592 L 2493 477 L 2503 477" fill="none" stroke="#444444" stroke-width="1.3" marker-end="url(#arr)"/>
<text x="2396" y="607.5" font-size="10.5" text-anchor="middle" fill="#333" font-style="italic" stroke="white" stroke-width="2.5" paint-order="stroke" stroke-linejoin="round">Authorization and</text>
<text x="2396" y="621" font-size="10.5" text-anchor="middle" fill="#333" font-style="italic" stroke="white" stroke-width="2.5" paint-order="stroke" stroke-linejoin="round">capture</text>
<text x="2396" y="634.5" font-size="9" text-anchor="middle" fill="#777" stroke="white" stroke-width="2.5" paint-order="stroke" stroke-linejoin="round">(API_REST, JSON)</text>
<rect x="2369" y="641" width="54" height="15" rx="7.5" fill="#fdf3d8" stroke="#c9a227" stroke-width="1"/>
<text x="2396" y="652" font-size="9.5" text-anchor="middle" fill="#7a6216" font-weight="bold">Payment</text>
<path d="M 2503 461 L 1854 461 L 1854 608 L 1864 608.4499999999999 L 1881 608.4499999999999" fill="none" stroke="#444444" stroke-width="1.3" marker-end="url(#arr)"/>
<text x="2384" y="476.5" font-size="10.5" text-anchor="middle" fill="#333" font-style="italic" stroke="white" stroke-width="2.5" paint-order="stroke" stroke-linejoin="round">Transaction</text>
<text x="2384" y="490" font-size="10.5" text-anchor="middle" fill="#333" font-style="italic" stroke="white" stroke-width="2.5" paint-order="stroke" stroke-linejoin="round">status</text>
<text x="2384" y="503.5" font-size="9" text-anchor="middle" fill="#777" stroke="white" stroke-width="2.5" paint-order="stroke" stroke-linejoin="round">(webhook, JSON)</text>
<path d="M 2021 636.5 L 2031 636.5 L 2031 657.5 L 2299 658 L 2309 658 L 2309 695 L 1266 695 L 1266 484 L 1276 484.25 L 1293 484.25" fill="none" stroke="#444444" stroke-width="1.3" marker-end="url(#arr)"/>
<text x="1893.5" y="710.5" font-size="10.5" text-anchor="middle" fill="#333" font-style="italic" stroke="white" stroke-width="2.5" paint-order="stroke" stroke-linejoin="round">Payment</text>
<text x="1893.5" y="724" font-size="10.5" text-anchor="middle" fill="#333" font-style="italic" stroke="white" stroke-width="2.5" paint-order="stroke" stroke-linejoin="round">confirmed</text>
<text x="1893.5" y="737.5" font-size="9" text-anchor="middle" fill="#777" stroke="white" stroke-width="2.5" paint-order="stroke" stroke-linejoin="round">(MQ, JSON)</text>
<path d="M 1433 463 L 1522 463 L 1522 452 L 1532 452" fill="none" stroke="#444444" stroke-width="1.3" marker-end="url(#arr)"/>
<text x="1482.5" y="477.5" font-size="10.5" text-anchor="middle" fill="#333" font-style="italic" stroke="white" stroke-width="2.5" paint-order="stroke" stroke-linejoin="round">Orders to</text>
<text x="1482.5" y="491" font-size="10.5" text-anchor="middle" fill="#333" font-style="italic" stroke="white" stroke-width="2.5" paint-order="stroke" stroke-linejoin="round">ship</text>
<text x="1482.5" y="504.5" font-size="9" text-anchor="middle" fill="#777" stroke="white" stroke-width="2.5" paint-order="stroke" stroke-linejoin="round">(internal)</text>
<rect x="1461" y="511" width="43" height="15" rx="7.5" fill="#fdf3d8" stroke="#c9a227" stroke-width="1"/>
<text x="1482.5" y="522" font-size="9.5" text-anchor="middle" fill="#7a6216" font-weight="bold">Order</text>
<path d="M 1672 452 L 1709 452 L 1709 401 L 1864 401" fill="none" stroke="#444444" stroke-width="1.3" marker-end="url(#arr)"/>
<text x="1776.5" y="416.5" font-size="10.5" text-anchor="middle" fill="#333" font-style="italic" stroke="white" stroke-width="2.5" paint-order="stroke" stroke-linejoin="round">Labels and</text>
<text x="1776.5" y="430" font-size="10.5" text-anchor="middle" fill="#333" font-style="italic" stroke="white" stroke-width="2.5" paint-order="stroke" stroke-linejoin="round">pickups</text>
<text x="1776.5" y="443.5" font-size="9" text-anchor="middle" fill="#777" stroke="white" stroke-width="2.5" paint-order="stroke" stroke-linejoin="round">(API_REST, JSON)</text>
<path d="M 1864 384 L 1709 384 L 1709 376 L 1704 376 A 5 5 0 0 0 1694 376 L 1266 376 L 1266 435 L 1532 435" fill="none" stroke="#444444" stroke-width="1.3" marker-end="url(#arr)"/>
<text x="1774" y="348.5" font-size="10.5" text-anchor="middle" fill="#333" font-style="italic" stroke="white" stroke-width="2.5" paint-order="stroke" stroke-linejoin="round">Parcel</text>
<text x="1774" y="362" font-size="10.5" text-anchor="middle" fill="#333" font-style="italic" stroke="white" stroke-width="2.5" paint-order="stroke" stroke-linejoin="round">tracking</text>
<text x="1774" y="375.5" font-size="9" text-anchor="middle" fill="#777" stroke="white" stroke-width="2.5" paint-order="stroke" stroke-linejoin="round">(webhook, JSON)</text>
<path d="M 1672 435 L 1699 435 L 1699 146 L 1842 145.5 L 1859 145.5" fill="none" stroke="#444444" stroke-width="1.3" marker-end="url(#arr)"/>
<text x="1753.5" y="161.5" font-size="10.5" text-anchor="middle" fill="#333" font-style="italic" stroke="white" stroke-width="2.5" paint-order="stroke" stroke-linejoin="round">Customer order</text>
<text x="1753.5" y="175" font-size="10.5" text-anchor="middle" fill="#333" font-style="italic" stroke="white" stroke-width="2.5" paint-order="stroke" stroke-linejoin="round">tracking</text>
<text x="1753.5" y="188.5" font-size="9" text-anchor="middle" fill="#777" stroke="white" stroke-width="2.5" paint-order="stroke" stroke-linejoin="round">(MQ, JSON)</text>
<path d="M 139 475.5 L 156 476 L 294 476 L 294 217 L 1842 216.5 L 1859 216.5" fill="none" stroke="#444444" stroke-width="1.3" marker-end="url(#arr)"/>
<text x="1656.5" y="232.5" font-size="10.5" text-anchor="middle" fill="#333" font-style="italic" stroke="white" stroke-width="2.5" paint-order="stroke" stroke-linejoin="round">Handle</text>
<text x="1656.5" y="246" font-size="10.5" text-anchor="middle" fill="#333" font-style="italic" stroke="white" stroke-width="2.5" paint-order="stroke" stroke-linejoin="round">complaints</text>
<path d="M 1999 216.5 L 2016 217 L 2026 217 L 2026 266 L 1704 266 A 5 5 0 0 0 1694 266 L 1246 266 L 1246 550 L 1261 550 A 5 5 0 0 1 1271 550 L 1293 550" fill="none" stroke="#444444" stroke-width="1.3" marker-end="url(#arr)"/>
<text x="1889.5" y="281.5" font-size="10.5" text-anchor="middle" fill="#333" font-style="italic" stroke="white" stroke-width="2.5" paint-order="stroke" stroke-linejoin="round">Approved return</text>
<text x="1889.5" y="295" font-size="10.5" text-anchor="middle" fill="#333" font-style="italic" stroke="white" stroke-width="2.5" paint-order="stroke" stroke-linejoin="round">requests</text>
<text x="1889.5" y="308.5" font-size="9" text-anchor="middle" fill="#777" stroke="white" stroke-width="2.5" paint-order="stroke" stroke-linejoin="round">(API_REST, JSON)</text>
<path d="M 1433 550 L 1801 550 L 1801 619 L 1864 618.65 L 1881 618.65" fill="none" stroke="#444444" stroke-width="1.3" marker-end="url(#arr)"/>
<text x="1762" y="565.5" font-size="10.5" text-anchor="middle" fill="#333" font-style="italic" stroke="white" stroke-width="2.5" paint-order="stroke" stroke-linejoin="round">Refund</text>
<text x="1762" y="579" font-size="10.5" text-anchor="middle" fill="#333" font-style="italic" stroke="white" stroke-width="2.5" paint-order="stroke" stroke-linejoin="round">orders</text>
<text x="1762" y="592.5" font-size="9" text-anchor="middle" fill="#777" stroke="white" stroke-width="2.5" paint-order="stroke" stroke-linejoin="round">(MQ, JSON)</text>
<rect x="1735" y="599" width="54" height="15" rx="7.5" fill="#fdf3d8" stroke="#c9a227" stroke-width="1"/>
<text x="1762" y="610" font-size="9.5" text-anchor="middle" fill="#7a6216" font-weight="bold">Payment</text>
<path d="M 1999 145.5 L 2016 146 L 2199 146" fill="none" stroke="#444444" stroke-width="1.3" marker-end="url(#arr)"/>
<text x="2107.5" y="161.5" font-size="10.5" text-anchor="middle" fill="#333" font-style="italic" stroke="white" stroke-width="2.5" paint-order="stroke" stroke-linejoin="round">Update customer</text>
<text x="2107.5" y="175" font-size="10.5" text-anchor="middle" fill="#333" font-style="italic" stroke="white" stroke-width="2.5" paint-order="stroke" stroke-linejoin="round">profile</text>
<text x="2107.5" y="188.5" font-size="9" text-anchor="middle" fill="#777" stroke="white" stroke-width="2.5" paint-order="stroke" stroke-linejoin="round">(JDBC)</text>
<path d="M 1433 480 L 1443 480 L 1443 539 L 1699 539 L 1699 472 L 1849 472 A 5 5 0 0 1 1859 472 L 2333 472 L 2333 542 L 2343 542" fill="none" stroke="#444444" stroke-width="1.3" marker-end="url(#arr)"/>
<text x="1776.5" y="487.5" font-size="10.5" text-anchor="middle" fill="#333" font-style="italic" stroke="white" stroke-width="2.5" paint-order="stroke" stroke-linejoin="round">Archive</text>
<text x="1776.5" y="501" font-size="10.5" text-anchor="middle" fill="#333" font-style="italic" stroke="white" stroke-width="2.5" paint-order="stroke" stroke-linejoin="round">orders</text>
<text x="1776.5" y="514.5" font-size="9" text-anchor="middle" fill="#777" stroke="white" stroke-width="2.5" paint-order="stroke" stroke-linejoin="round">(batch, parquet)</text>
<rect x="1755" y="521" width="43" height="15" rx="7.5" fill="#fdf3d8" stroke="#c9a227" stroke-width="1"/>
<text x="1776.5" y="532" font-size="9.5" text-anchor="middle" fill="#7a6216" font-weight="bold">Order</text>
<path d="M 839 595.5 L 1123 596 L 1133 596 L 1133 755 L 2319 755 L 2319 559 L 2343 559" fill="none" stroke="#444444" stroke-width="1.3" marker-end="url(#arr)"/>
<text x="1189" y="770.5" font-size="10.5" text-anchor="middle" fill="#333" font-style="italic" stroke="white" stroke-width="2.5" paint-order="stroke" stroke-linejoin="round">Browsing</text>
<text x="1189" y="784" font-size="10.5" text-anchor="middle" fill="#333" font-style="italic" stroke="white" stroke-width="2.5" paint-order="stroke" stroke-linejoin="round">events</text>
<text x="1189" y="797.5" font-size="9" text-anchor="middle" fill="#777" stroke="white" stroke-width="2.5" paint-order="stroke" stroke-linejoin="round">(streaming, avro)</text>
<path d="M 139 644 L 323 644 L 323 683 L 1128 683 A 5 5 0 0 1 1138 683 L 1261 683 A 5 5 0 0 1 1271 683 L 1276 683 L 1276 682 L 1723 682 L 1723 639 L 1864 639.05 L 1881 639.05" fill="none" stroke="#444444" stroke-width="1.3" marker-end="url(#arr)"/>
<text x="368.5" y="698.5" font-size="10.5" text-anchor="middle" fill="#333" font-style="italic" stroke="white" stroke-width="2.5" paint-order="stroke" stroke-linejoin="round">Reconcile</text>
<text x="368.5" y="712" font-size="10.5" text-anchor="middle" fill="#333" font-style="italic" stroke="white" stroke-width="2.5" paint-order="stroke" stroke-linejoin="round">collections</text>
<path d="M 2359 278 L 1947 278 L 1947 326 L 1704 326 A 5 5 0 0 0 1694 326 L 1256 326 L 1256 459 L 1276 458.75 L 1293 458.75" fill="none" stroke="#444444" stroke-width="1.3" marker-end="url(#arr)"/>
<text x="2019" y="293.5" font-size="10.5" text-anchor="middle" fill="#333" font-style="italic" stroke="white" stroke-width="2.5" paint-order="stroke" stroke-linejoin="round">Accounting logistics</text>
<text x="2019" y="307" font-size="10.5" text-anchor="middle" fill="#333" font-style="italic" stroke="white" stroke-width="2.5" paint-order="stroke" stroke-linejoin="round">statuses</text>
<text x="2019" y="320.5" font-size="9" text-anchor="middle" fill="#777" stroke="white" stroke-width="2.5" paint-order="stroke" stroke-linejoin="round">(MQ, JSON)</text>
<line x1="20" y1="825" x2="2635" y2="825" stroke="#ddd" stroke-width="1"/>
<text x="20" y="847" font-size="11" font-weight="bold" fill="#555">BUSINESS OBJECTS</text>
<rect x="150" y="837" width="43" height="15" rx="7.5" fill="#fdf3d8" stroke="#c9a227"/>
<text x="171.5" y="848" font-size="9.5" text-anchor="middle" fill="#7a6216" font-weight="bold">Order</text>
<text x="203" y="848" font-size="10" fill="#666">— validated cart, tracked until delivery</text>
<rect x="150" y="861" width="54" height="15" rx="7.5" fill="#fdf3d8" stroke="#c9a227"/>
<text x="177" y="872" font-size="9.5" text-anchor="middle" fill="#7a6216" font-weight="bold">Payment</text>
<text x="214" y="872" font-size="10" fill="#666">— financial transaction tied to an order</text>
<rect x="150" y="885" width="54" height="15" rx="7.5" fill="#fdf3d8" stroke="#c9a227"/>
<text x="177" y="896" font-size="9.5" text-anchor="middle" fill="#7a6216" font-weight="bold">Product</text>
<text x="214" y="896" font-size="10" fill="#666">— item published to the catalog</text>
<line x1="20" y1="923" x2="2635" y2="923" stroke="#ddd" stroke-width="1"/>
<text x="20" y="945" font-size="11" font-weight="bold" fill="#555">LEGEND</text>
<rect x="150" y="935" width="26" height="14" rx="3" fill="#eef4fb" stroke="#7a9cc4" stroke-dasharray="5 3"/>
<text x="182" y="946" font-size="10" fill="#444">Actor group</text>
<rect x="272" y="935" width="26" height="14" rx="3" fill="#e8f1f8" stroke="#5b8db8"/>
<text x="304" y="946" font-size="10" fill="#444">Application</text>
<rect x="394" y="935" width="26" height="14" rx="3" fill="#ffffff" stroke="#5b7a99"/>
<text x="426" y="946" font-size="10" fill="#444">Application module</text>
<rect x="552" y="935" width="26" height="14" rx="3" fill="#f3eef8" stroke="#8a6fae"/>
<text x="584" y="946" font-size="10" fill="#444">Datastore / registry</text>
<rect x="720" y="935" width="26" height="14" rx="3" fill="#f0eef5" stroke="#9187b3" stroke-dasharray="5 3"/>
<text x="752" y="946" font-size="10" fill="#444">External system</text>
<line x1="150" y1="965" x2="176" y2="965" stroke="#444444" stroke-width="1.3" marker-end="url(#arr)"/>
<text x="182" y="969" font-size="10" fill="#444">Application flow — (protocol, format) under the label</text>
<rect x="480" y="958" width="96" height="15" rx="7.5" fill="#fdf3d8" stroke="#c9a227"/>
<text x="528" y="969" font-size="9.5" text-anchor="middle" fill="#7a6216" font-weight="bold">Business object</text>
<text x="584" y="969" font-size="10" fill="#444">carried by the flow</text>
</svg>
