<svg xmlns="http://www.w3.org/2000/svg" viewBox="0 0 983 356" font-family="Helvetica,Arial,sans-serif">
<defs><marker id="arr" viewBox="0 0 10 10" refX="9" refY="5" markerWidth="7" markerHeight="7" orient="auto-start-reverse">
<path d="M0,0 L10,5 L0,10 z" fill="#444444"/></marker></defs>
<rect width="983" height="356" fill="white"/>
<rect x="10" y="22" width="84" height="170" rx="6" fill="#eef4fb" stroke="#7a9cc4" stroke-width="1.2" stroke-dasharray="5 3"/>
<text x="20" y="40" font-size="12" font-weight="bold" fill="#333">HR actors</text>
<rect x="241" y="27" width="374" height="138" rx="6" fill="#e8f1f8" stroke="#5b8db8" stroke-width="1.2"/>
<text x="251" y="45" font-size="12" font-weight="bold" fill="#333">HR portal</text>
<circle cx="52" cy="60" r="7" fill="none" stroke="#445566" stroke-width="1.5"/>
<path d="M 41 82 q 11 -19 22 0" fill="none" stroke="#445566" stroke-width="1.5"/>
<text x="52" y="94" font-size="10" text-anchor="middle" fill="#223344">Employee</text>
<circle cx="52" cy="136" r="7" fill="none" stroke="#445566" stroke-width="1.5"/>
<path d="M 41 158 q 11 -19 22 0" fill="none" stroke="#445566" stroke-width="1.5"/>
<text x="52" y="170" font-size="10" text-anchor="middle" fill="#223344">Manager</text>
<rect x="251" y="96" width="112" height="48" rx="4" fill="#ffffff" stroke="#5b7a99" stroke-width="1.3"/>
<text x="307" y="117.25" font-size="11.5" text-anchor="middle" fill="#222233">Leave</text>
<text x="307" y="130.75" font-size="11.5" text-anchor="middle" fill="#222233">requests</text>
<rect x="493" y="104" width="112" height="48" rx="4" fill="#ffffff" stroke="#5b7a99" stroke-width="1.3"/>
<text x="549" y="125.25" font-size="11.5" text-anchor="middle" fill="#222233">Approval</text>
<text x="549" y="138.75" font-size="11.5" text-anchor="middle" fill="#222233">workflow</text>
<path d="M 733 85 v 34 a 56 7 0 0 0 112 0 v -34" fill="#f3eef8" stroke="#8a6fae" stroke-width="1.3"/>
<ellipse cx="789" cy="85" rx="56" ry="7" fill="#f3eef8" stroke="#8a6fae" stroke-width="1.3"/>
<text x="789" y="102.75" font-size="11.5" text-anchor="middle" fill="#222233">HR</text>
<text x="789" y="116.25" font-size="11.5" text-anchor="middle" fill="#222233">repository</text>
<rect x="861" y="112" width="112" height="48" rx="4" fill="#f0eef5" stroke="#9187b3" stroke-width="1.2" stroke-dasharray="5 3"/>
<text x="917" y="133.25" font-size="11.5" text-anchor="middle" fill="#222233">Payroll HRIS</text>
<text x="917" y="146.75" font-size="11.5" text-anchor="middle" fill="#222233">(outsourced)</text>
<path d="M 84 78 L 226 78 L 226 120 L 251 120" fill="none" stroke="#444444" stroke-width="1.3" marker-end="url(#arr)"/>
<text x="165.5" y="49.5" font-size="10.5" text-anchor="middle" fill="#333" font-style="italic" stroke="white" stroke-width="2.5" paint-order="stroke" stroke-linejoin="round">Submit a request</text>
<rect x="122.5" y="57.5" width="86" height="15" rx="7.5" fill="#fdf3d8" stroke="#c9a227" stroke-width="1"/>
<text x="165.5" y="68.5" font-size="9.5" text-anchor="middle" fill="#7a6216" font-weight="bold">Leave request</text>
<path d="M 363 120 L 493 120" fill="none" stroke="#444444" stroke-width="1.3" marker-end="url(#arr)"/>
<text x="428" y="66.5" font-size="10.5" text-anchor="middle" fill="#333" font-style="italic" stroke="white" stroke-width="2.5" paint-order="stroke" stroke-linejoin="round">Submit to the</text>
<text x="428" y="80" font-size="10.5" text-anchor="middle" fill="#333" font-style="italic" stroke="white" stroke-width="2.5" paint-order="stroke" stroke-linejoin="round">workflow</text>
<text x="428" y="93.5" font-size="9" text-anchor="middle" fill="#777" stroke="white" stroke-width="2.5" paint-order="stroke" stroke-linejoin="round">(internal)</text>
<rect x="385" y="100" width="86" height="15" rx="7.5" fill="#fdf3d8" stroke="#c9a227" stroke-width="1"/>
<text x="428" y="111" font-size="9.5" text-anchor="middle" fill="#7a6216" font-weight="bold">Leave request</text>
<path d="M 84 154 L 483 154 L 483 136 L 493 136" fill="none" stroke="#444444" stroke-width="1.3" marker-end="url(#arr)"/>
<text x="147.5" y="168.5" font-size="10.5" text-anchor="middle" fill="#333" font-style="italic" stroke="white" stroke-width="2.5" paint-order="stroke" stroke-linejoin="round">Approve or</text>
<text x="147.5" y="182" font-size="10.5" text-anchor="middle" fill="#333" font-style="italic" stroke="white" stroke-width="2.5" paint-order="stroke" stroke-linejoin="round">reject</text>
<path d="M 605 120 L 630 120 L 630 102 L 733 102" fill="none" stroke="#444444" stroke-width="1.3" marker-end="url(#arr)"/>
<text x="678.5" y="67.5" font-size="10.5" text-anchor="middle" fill="#333" font-style="italic" stroke="white" stroke-width="2.5" paint-order="stroke" stroke-linejoin="round">Update leave</text>
<text x="678.5" y="81" font-size="10.5" text-anchor="middle" fill="#333" font-style="italic" stroke="white" stroke-width="2.5" paint-order="stroke" stroke-linejoin="round">balances</text>
<text x="678.5" y="94.5" font-size="9" text-anchor="middle" fill="#777" stroke="white" stroke-width="2.5" paint-order="stroke" stroke-linejoin="round">(JDBC)</text>
<path d="M 605 136 L 861 136" fill="none" stroke="#444444" stroke-width="1.3" marker-end="url(#arr)"/>
<text x="689" y="150.5" font-size="10.5" text-anchor="middle" fill="#333" font-style="italic" stroke="white" stroke-width="2.5" paint-order="stroke" stroke-linejoin="round">Approved variable</text>
<text x="689" y="164" font-size="10.5" text-anchor="middle" fill="#333" font-style="italic" stroke="white" stroke-width="2.5" paint-order="stroke" stroke-linejoin="round">items</text>
<text x="689" y="177.5" font-size="9" text-anchor="middle" fill="#777" stroke="white" stroke-width="2.5" paint-order="stroke" stroke-linejoin="round">(SFTP, CSV)</text>
<line x1="20" y1="212" x2="963" y2="212" stroke="#ddd" stroke-width="1"/>
<text x="20" y="234" font-size="11" font-weight="bold" fill="#555">BUSINESS OBJECTS</text>
<rect x="150" y="224" width="86" height="15" rx="7.5" fill="#fdf3d8" stroke="#c9a227"/>
<text x="193" y="235" font-size="9.5" text-anchor="middle" fill="#7a6216" font-weight="bold">Leave request</text>
<text x="246" y="235" font-size="10" fill="#666">— request submitted by an employee, subject to approval</text>
<line x1="20" y1="262" x2="963" y2="262" stroke="#ddd" stroke-width="1"/>
<text x="20" y="284" font-size="11" font-weight="bold" fill="#555">LEGEND</text>
<rect x="150" y="274" width="26" height="14" rx="3" fill="#eef4fb" stroke="#7a9cc4" stroke-dasharray="5 3"/>
<text x="182" y="285" font-size="10" fill="#444">Actor group</text>
<rect x="272" y="274" width="26" height="14" rx="3" fill="#e8f1f8" stroke="#5b8db8"/>
<text x="304" y="285" font-size="10" fill="#444">Application</text>
<rect x="394" y="274" width="26" height="14" rx="3" fill="#ffffff" stroke="#5b7a99"/>
<text x="426" y="285" font-size="10" fill="#444">Application module</text>
<rect x="552" y="274" width="26" height="14" rx="3" fill="#f3eef8" stroke="#8a6fae"/>
<text x="584" y="285" font-size="10" fill="#444">Datastore / registry</text>
<rect x="720" y="274" width="26" height="14" rx="3" fill="#f0eef5" stroke="#9187b3" stroke-dasharray="5 3"/>
<text x="752" y="285" font-size="10" fill="#444">External system</text>
<line x1="150" y1="326" x2="176" y2="326" stroke="#444444" stroke-width="1.3" marker-end="url(#arr)"/>
<text x="182" y="330" font-size="10" fill="#444">Application flow — (protocol, format) under the label</text>
<rect x="480" y="319" width="96" height="15" rx="7.5" fill="#fdf3d8" stroke="#c9a227"/>
<text x="528" y="330" font-size="9.5" text-anchor="middle" fill="#7a6216" font-weight="bold">Business object</text>
<text x="584" y="330" font-size="10" fill="#444">carried by the flow</text>
</svg>
