<svg xmlns="http://www.w3.org/2000/svg" viewBox="0 0 836 332" font-family="Helvetica,Arial,sans-serif">
<defs><marker id="arr" viewBox="0 0 10 10" refX="9" refY="5" markerWidth="7" markerHeight="7" orient="auto-start-reverse">
<path d="M0,0 L10,5 L0,10 z" fill="#5a6675"/></marker></defs>
<rect width="836" height="332" fill="#ffffff"/>
<rect x="25" y="54" width="82" height="164" rx="6" fill="#e9f2fb" stroke="#1f77b4" stroke-width="1.2" stroke-dasharray="5 3"/>
<text x="35" y="72" font-size="13" font-weight="bold" fill="#17202c">HR actors</text>
<rect x="137" y="57" width="345" height="94" rx="6" fill="#e9f3fa" stroke="#2f83b6" stroke-width="1.2"/>
<text x="147" y="75" font-size="13" font-weight="bold" fill="#17202c">HR portal</text>
<circle cx="66" cy="91" r="7" fill="none" stroke="#1f5e91" stroke-width="1.5"/>
<path d="M 55 113 q 11 -19 22 0" fill="none" stroke="#1f5e91" stroke-width="1.5"/>
<text x="66" y="125" font-size="11" text-anchor="middle" fill="#20364c">Employee</text>
<circle cx="66" cy="165" r="7" fill="none" stroke="#1f5e91" stroke-width="1.5"/>
<path d="M 55 187 q 11 -19 22 0" fill="none" stroke="#1f5e91" stroke-width="1.5"/>
<text x="66" y="199" font-size="11" text-anchor="middle" fill="#20364c">Manager</text>
<rect x="146" y="84" width="108" height="47" rx="4" fill="#ffffff" stroke="#48546a" stroke-width="1.3"/>
<text x="200" y="104.25" font-size="12.5" text-anchor="middle" fill="#17202c">Leave</text>
<text x="200" y="118.75" font-size="12.5" text-anchor="middle" fill="#17202c">requests</text>
<rect x="365" y="91.83333333333333" width="108" height="47" rx="4" fill="#ffffff" stroke="#48546a" stroke-width="1.3"/>
<text x="419" y="112.08333333333333" font-size="12.5" text-anchor="middle" fill="#17202c">Approval</text>
<text x="419" y="126.58333333333333" font-size="12.5" text-anchor="middle" fill="#17202c">workflow</text>
<path d="M 602 28 h 92 a 8 23.5 0 0 1 0 47 h -92 a 8 23.5 0 0 1 0 -47" fill="#f4edf8" stroke="#8a53a8" stroke-width="1.3"/>
<ellipse cx="602" cy="51.5" rx="8" ry="23.5" fill="#f4edf8" stroke="#8a53a8" stroke-width="1.3"/>
<text x="652" y="48.25" font-size="12.5" text-anchor="middle" fill="#17202c">Notification</text>
<text x="652" y="62.75" font-size="12.5" text-anchor="middle" fill="#17202c">bus</text>
<path d="M 594 93 v 33 a 54 7 0 0 0 108 0 v -33" fill="#f4edf8" stroke="#8a53a8" stroke-width="1.3"/>
<ellipse cx="648" cy="93" rx="54" ry="7" fill="#f4edf8" stroke="#8a53a8" stroke-width="1.3"/>
<text x="648" y="109.75" font-size="12.5" text-anchor="middle" fill="#17202c">HR</text>
<text x="648" y="124.25" font-size="12.5" text-anchor="middle" fill="#17202c">repository</text>
<rect x="718" y="119" width="108" height="47" rx="4" fill="#f4eff8" stroke="#8659a6" stroke-width="1.2" stroke-dasharray="5 3"/>
<text x="772" y="139.25" font-size="12.5" text-anchor="middle" fill="#17202c">Payroll HRIS</text>
<text x="772" y="153.75" font-size="12.5" text-anchor="middle" fill="#17202c">(outsourced)</text>
<path d="M 98 108 L 132 107.5 L 146 107.5" fill="none" stroke="#5a6675" stroke-width="1.3" marker-end="url(#arr)"/>
<path d="M 254 107.5 L 365 107.5" fill="none" stroke="#5a6675" stroke-width="1.3" marker-end="url(#arr)"/>
<text x="309.5" y="98.5" font-size="11.5" text-anchor="middle" fill="#3a4553" font-style="italic" stroke="#ffffff" stroke-width="2.5" paint-order="stroke" stroke-linejoin="round">(internal)</text>
<path d="M 98 182 L 122 182 L 122 141 L 355 141 L 355 123.16666666666667 L 365 123.16666666666667" fill="none" stroke="#5a6675" stroke-width="1.3" marker-end="url(#arr)"/>
<path d="M 473 115.33333333333333 L 487 115 L 497 115 L 497 110 L 594 110" fill="none" stroke="#5a6675" stroke-width="1.3" marker-end="url(#arr)"/>
<text x="529.5" y="125.5" font-size="11.5" text-anchor="middle" fill="#3a4553" font-style="italic" stroke="#ffffff" stroke-width="2.5" paint-order="stroke" stroke-linejoin="round">(JDBC)</text>
<path d="M 473 103.58333333333333 L 487 104 L 497 104 L 497 59 L 594 59" fill="none" stroke="#5a6675" stroke-width="1.3" marker-end="url(#arr)"/>
<text x="542.5" y="74.5" font-size="11.5" text-anchor="middle" fill="#3a4553" font-style="italic" stroke="#ffffff" stroke-width="2.5" paint-order="stroke" stroke-linejoin="round">(MQ, JSON)</text>
<path d="M 594 44 L 10 44 L 10 108 L 34 108" fill="none" stroke="#5a6675" stroke-width="1.3" marker-end="url(#arr)"/>
<text x="71.5" y="34.5" font-size="11.5" text-anchor="middle" fill="#3a4553" font-style="italic" stroke="#ffffff" stroke-width="2.5" paint-order="stroke" stroke-linejoin="round">(webhook, JSON)</text>
<path d="M 473 127.08333333333333 L 487 127 L 497 127 L 497 143 L 718 143" fill="none" stroke="#5a6675" stroke-width="1.3" marker-end="url(#arr)"/>
<text x="545.5" y="158.5" font-size="11.5" text-anchor="middle" fill="#3a4553" font-style="italic" stroke="#ffffff" stroke-width="2.5" paint-order="stroke" stroke-linejoin="round">(SFTP, CSV)</text>
<line x1="20" y1="238" x2="816" y2="238" stroke="#e6e9ee" stroke-width="1"/>
<text x="20" y="260" font-size="11" font-weight="bold" fill="#3a4553">LEGEND</text>
<rect x="150" y="250" width="26" height="14" rx="3" fill="#e9f2fb" stroke="#1f77b4" stroke-dasharray="5 3"/>
<text x="182" y="261" font-size="10" fill="#17202c">Actor group</text>
<rect x="272" y="250" width="26" height="14" rx="3" fill="#e9f3fa" stroke="#2f83b6"/>
<text x="304" y="261" font-size="10" fill="#17202c">Application</text>
<rect x="394" y="250" width="26" height="14" rx="3" fill="#ffffff" stroke="#48546a"/>
<text x="426" y="261" font-size="10" fill="#17202c">Application module</text>
<rect x="552" y="250" width="26" height="14" rx="3" fill="#f4edf8" stroke="#8a53a8"/>
<text x="584" y="261" font-size="10" fill="#17202c">Message queue / broker</text>
<rect x="150" y="272" width="26" height="14" rx="3" fill="#f4edf8" stroke="#8a53a8"/>
<text x="182" y="283" font-size="10" fill="#17202c">Datastore / registry</text>
<rect x="318" y="272" width="26" height="14" rx="3" fill="#f4eff8" stroke="#8659a6" stroke-dasharray="5 3"/>
<text x="350" y="283" font-size="10" fill="#17202c">External system</text>
<line x1="150" y1="302" x2="176" y2="302" stroke="#5a6675" stroke-width="1.3" marker-end="url(#arr)"/>
<text x="182" y="306" font-size="10" fill="#17202c">Application flow — (protocol, format) under the label</text>
</svg>
