<svg xmlns="http://www.w3.org/2000/svg" viewBox="0 0 1573 764" font-family="Helvetica,Arial,sans-serif">
<defs><marker id="arr" viewBox="0 0 10 10" refX="9" refY="5" markerWidth="7" markerHeight="7" orient="auto-start-reverse">
<path d="M0,0 L10,5 L0,10 z" fill="#444444"/></marker></defs>
<rect width="1573" height="764" fill="white"/>
<rect x="12" y="242" width="117" height="185" rx="6" fill="#eef4fb" stroke="#7a9cc4" stroke-width="1.2" stroke-dasharray="5 3"/>
<text x="22" y="260" font-size="12" font-weight="bold" fill="#333">Managers</text>
<rect x="1077" y="333" width="164" height="164" rx="6" fill="#e8f1f8" stroke="#5b8db8" stroke-width="1.2"/>
<text x="1087" y="351" font-size="12" font-weight="bold" fill="#333">CRM</text>
<rect x="476" y="143" width="402" height="203.5" rx="6" fill="#e8f1f8" stroke="#5b8db8" stroke-width="1.2"/>
<text x="486" y="161" font-size="12" font-weight="bold" fill="#333">Billing</text>
<rect x="1033" y="30" width="411" height="125.5" rx="6" fill="#e8f1f8" stroke="#5b8db8" stroke-width="1.2"/>
<text x="1043" y="48" font-size="12" font-weight="bold" fill="#333">Accounting</text>
<circle cx="81.5" cy="282" r="7" fill="none" stroke="#445566" stroke-width="1.5"/>
<path d="M 70.5 304 q 11 -19 22 0" fill="none" stroke="#445566" stroke-width="1.5"/>
<text x="81.5" y="316" font-size="10" text-anchor="middle" fill="#223344">Accountant</text>
<circle cx="70.5" cy="358" r="7" fill="none" stroke="#445566" stroke-width="1.5"/>
<path d="M 59.5 380 q 11 -19 22 0" fill="none" stroke="#445566" stroke-width="1.5"/>
<text x="70.5" y="392" font-size="10" text-anchor="middle" fill="#223344">Sales</text>
<text x="70.5" y="403" font-size="10" text-anchor="middle" fill="#223344">administration</text>
<rect x="1089" y="363" width="140" height="51" rx="4" fill="#ffffff" stroke="#5b7a99" stroke-width="1.3"/>
<text x="1159" y="385.75" font-size="11.5" text-anchor="middle" fill="#222233">Customer-account</text>
<text x="1159" y="399.25" font-size="11.5" text-anchor="middle" fill="#222233">management</text>
<rect x="1089" y="434" width="140" height="51" rx="4" fill="#ffffff" stroke="#5b7a99" stroke-width="1.3"/>
<text x="1159" y="456.75" font-size="11.5" text-anchor="middle" fill="#222233">Contract</text>
<text x="1159" y="470.25" font-size="11.5" text-anchor="middle" fill="#222233">management</text>
<rect x="488" y="212.5" width="140" height="51" rx="4" fill="#ffffff" stroke="#5b7a99" stroke-width="1.3"/>
<text x="558" y="235.25" font-size="11.5" text-anchor="middle" fill="#222233">Billing</text>
<text x="558" y="248.75" font-size="11.5" text-anchor="middle" fill="#222233">engine</text>
<rect x="726" y="212.5" width="140" height="51" rx="4" fill="#ffffff" stroke="#5b7a99" stroke-width="1.3"/>
<text x="796" y="235.25" font-size="11.5" text-anchor="middle" fill="#222233">Invoice issuing</text>
<text x="796" y="248.75" font-size="11.5" text-anchor="middle" fill="#222233">and sending</text>
<rect x="488" y="283.5" width="140" height="51" rx="4" fill="#ffffff" stroke="#5b7a99" stroke-width="1.3"/>
<text x="558" y="306.25" font-size="11.5" text-anchor="middle" fill="#222233">Dunning and</text>
<text x="558" y="319.75" font-size="11.5" text-anchor="middle" fill="#222233">collection</text>
<rect x="1292" y="65.83333333333334" width="140" height="46" rx="4" fill="#ffffff" stroke="#5b7a99" stroke-width="1.3"/>
<text x="1362" y="92.83333333333334" font-size="11.5" text-anchor="middle" fill="#222233">General ledger</text>
<rect x="1045" y="71" width="140" height="51" rx="4" fill="#ffffff" stroke="#5b7a99" stroke-width="1.3"/>
<text x="1115" y="93.75" font-size="11.5" text-anchor="middle" fill="#222233">Accounts</text>
<text x="1115" y="107.25" font-size="11.5" text-anchor="middle" fill="#222233">receivable</text>
<path d="M 1421 370 v 37 a 70 7 0 0 0 140 0 v -37" fill="#f3eef8" stroke="#8a6fae" stroke-width="1.3"/>
<ellipse cx="1491" cy="370" rx="70" ry="7" fill="#f3eef8" stroke="#8a6fae" stroke-width="1.3"/>
<text x="1491" y="389.25" font-size="11.5" text-anchor="middle" fill="#222233">Customer</text>
<text x="1491" y="402.75" font-size="11.5" text-anchor="middle" fill="#222233">repository</text>
<path d="M 178 211 v 37 a 70 7 0 0 0 140 0 v -37" fill="#f3eef8" stroke="#8a6fae" stroke-width="1.3"/>
<ellipse cx="248" cy="211" rx="70" ry="7" fill="#f3eef8" stroke="#8a6fae" stroke-width="1.3"/>
<text x="248" y="230.25" font-size="11.5" text-anchor="middle" fill="#222233">Offer</text>
<text x="248" y="243.75" font-size="11.5" text-anchor="middle" fill="#222233">catalog</text>
<rect x="1290" y="279" width="140" height="51" rx="4" fill="#f0eef5" stroke="#9187b3" stroke-width="1.2" stroke-dasharray="5 3"/>
<text x="1360" y="301.75" font-size="11.5" text-anchor="middle" fill="#222233">Partner EDI</text>
<text x="1360" y="315.25" font-size="11.5" text-anchor="middle" fill="#222233">platform</text>
<rect x="1193" y="212" width="151" height="51" rx="4" fill="#f0eef5" stroke="#9187b3" stroke-width="1.2" stroke-dasharray="5 3"/>
<text x="1268.5" y="234.75" font-size="11.5" text-anchor="middle" fill="#222233">Electronic-invoicing</text>
<text x="1268.5" y="248.25" font-size="11.5" text-anchor="middle" fill="#222233">portal (PPF)</text>
<path d="M 117 381.5 L 134 382 L 340 382 L 340 460 L 1072 459.5 L 1089 459.5" fill="none" stroke="#444444" stroke-width="1.3" marker-end="url(#arr)"/>
<text x="400.5" y="475.5" font-size="10.5" text-anchor="middle" fill="#333" font-style="italic" stroke="white" stroke-width="2.5" paint-order="stroke" stroke-linejoin="round">Enter and update</text>
<text x="400.5" y="489" font-size="10.5" text-anchor="middle" fill="#333" font-style="italic" stroke="white" stroke-width="2.5" paint-order="stroke" stroke-linejoin="round">contracts</text>
<rect x="371" y="497" width="59" height="15" rx="7.5" fill="#fdf3d8" stroke="#c9a227" stroke-width="1"/>
<text x="400.5" y="508" font-size="9.5" text-anchor="middle" fill="#7a6216" font-weight="bold">Contract</text>
<path d="M 1229 388.5 L 1246 389 L 1421 389" fill="none" stroke="#444444" stroke-width="1.3" marker-end="url(#arr)"/>
<text x="1333.5" y="404.5" font-size="10.5" text-anchor="middle" fill="#333" font-style="italic" stroke="white" stroke-width="2.5" paint-order="stroke" stroke-linejoin="round">Sync customer</text>
<text x="1333.5" y="418" font-size="10.5" text-anchor="middle" fill="#333" font-style="italic" stroke="white" stroke-width="2.5" paint-order="stroke" stroke-linejoin="round">accounts</text>
<text x="1333.5" y="431.5" font-size="9" text-anchor="middle" fill="#777" stroke="white" stroke-width="2.5" paint-order="stroke" stroke-linejoin="round">(API_REST, JSON)</text>
<path d="M 1229 459.5 L 1246 460 L 1256 460 L 1256 509 L 461 509 L 461 247 L 471 246.5 L 488 246.5" fill="none" stroke="#444444" stroke-width="1.3" marker-end="url(#arr)"/>
<text x="1125" y="524.5" font-size="10.5" text-anchor="middle" fill="#333" font-style="italic" stroke="white" stroke-width="2.5" paint-order="stroke" stroke-linejoin="round">Contractual items</text>
<text x="1125" y="538" font-size="10.5" text-anchor="middle" fill="#333" font-style="italic" stroke="white" stroke-width="2.5" paint-order="stroke" stroke-linejoin="round">to bill</text>
<text x="1125" y="551.5" font-size="9" text-anchor="middle" fill="#777" stroke="white" stroke-width="2.5" paint-order="stroke" stroke-linejoin="round">(MQ, JSON)</text>
<rect x="1095.5" y="558" width="59" height="15" rx="7.5" fill="#fdf3d8" stroke="#c9a227" stroke-width="1"/>
<text x="1125" y="569" font-size="9.5" text-anchor="middle" fill="#7a6216" font-weight="bold">Contract</text>
<path d="M 318 230 L 471 229.5 L 488 229.5" fill="none" stroke="#444444" stroke-width="1.3" marker-end="url(#arr)"/>
<text x="394.5" y="245.5" font-size="10.5" text-anchor="middle" fill="#333" font-style="italic" stroke="white" stroke-width="2.5" paint-order="stroke" stroke-linejoin="round">Prices and</text>
<text x="394.5" y="259" font-size="10.5" text-anchor="middle" fill="#333" font-style="italic" stroke="white" stroke-width="2.5" paint-order="stroke" stroke-linejoin="round">terms</text>
<text x="394.5" y="272.5" font-size="9" text-anchor="middle" fill="#777" stroke="white" stroke-width="2.5" paint-order="stroke" stroke-linejoin="round">(JDBC)</text>
<path d="M 628 238 L 726 238" fill="none" stroke="#444444" stroke-width="1.3" marker-end="url(#arr)"/>
<text x="677" y="184.5" font-size="10.5" text-anchor="middle" fill="#333" font-style="italic" stroke="white" stroke-width="2.5" paint-order="stroke" stroke-linejoin="round">Computed</text>
<text x="677" y="198" font-size="10.5" text-anchor="middle" fill="#333" font-style="italic" stroke="white" stroke-width="2.5" paint-order="stroke" stroke-linejoin="round">invoices</text>
<text x="677" y="211.5" font-size="9" text-anchor="middle" fill="#777" stroke="white" stroke-width="2.5" paint-order="stroke" stroke-linejoin="round">(MQ, JSON)</text>
<rect x="650" y="218" width="54" height="15" rx="7.5" fill="#fdf3d8" stroke="#c9a227" stroke-width="1"/>
<text x="677" y="229" font-size="9.5" text-anchor="middle" fill="#7a6216" font-weight="bold">Invoice</text>
<path d="M 866 250.75 L 883 251 L 893 251 L 893 250 L 1183 250 L 1183 305 L 1290 305" fill="none" stroke="#444444" stroke-width="1.3" marker-end="url(#arr)"/>
<text x="1098.5" y="265.5" font-size="10.5" text-anchor="middle" fill="#333" font-style="italic" stroke="white" stroke-width="2.5" paint-order="stroke" stroke-linejoin="round">Submit paperless</text>
<text x="1098.5" y="279" font-size="10.5" text-anchor="middle" fill="#333" font-style="italic" stroke="white" stroke-width="2.5" paint-order="stroke" stroke-linejoin="round">invoices</text>
<text x="1098.5" y="292.5" font-size="9" text-anchor="middle" fill="#777" stroke="white" stroke-width="2.5" paint-order="stroke" stroke-linejoin="round">(AS4, UBL)</text>
<rect x="1071.5" y="299" width="54" height="15" rx="7.5" fill="#fdf3d8" stroke="#c9a227" stroke-width="1"/>
<text x="1098.5" y="310" font-size="9.5" text-anchor="middle" fill="#7a6216" font-weight="bold">Invoice</text>
<path d="M 866 238 L 1193 238" fill="none" stroke="#444444" stroke-width="1.3" marker-end="url(#arr)"/>
<text x="978" y="183.5" font-size="10.5" text-anchor="middle" fill="#333" font-style="italic" stroke="white" stroke-width="2.5" paint-order="stroke" stroke-linejoin="round">Regulatory</text>
<text x="978" y="197" font-size="10.5" text-anchor="middle" fill="#333" font-style="italic" stroke="white" stroke-width="2.5" paint-order="stroke" stroke-linejoin="round">transmission</text>
<text x="978" y="210.5" font-size="9" text-anchor="middle" fill="#777" stroke="white" stroke-width="2.5" paint-order="stroke" stroke-linejoin="round">(API_REST, FacturX)</text>
<rect x="951" y="217" width="54" height="15" rx="7.5" fill="#fdf3d8" stroke="#c9a227" stroke-width="1"/>
<text x="978" y="228" font-size="9.5" text-anchor="middle" fill="#7a6216" font-weight="bold">Invoice</text>
<path d="M 866 225.25 L 883 225 L 893 225 L 893 97 L 1028 96.5 L 1045 96.5" fill="none" stroke="#444444" stroke-width="1.3" marker-end="url(#arr)"/>
<text x="955.5" y="112.5" font-size="10.5" text-anchor="middle" fill="#333" font-style="italic" stroke="white" stroke-width="2.5" paint-order="stroke" stroke-linejoin="round">Sales</text>
<text x="955.5" y="126" font-size="10.5" text-anchor="middle" fill="#333" font-style="italic" stroke="white" stroke-width="2.5" paint-order="stroke" stroke-linejoin="round">entries</text>
<text x="955.5" y="139.5" font-size="9" text-anchor="middle" fill="#777" stroke="white" stroke-width="2.5" paint-order="stroke" stroke-linejoin="round">(MQ, JSON)</text>
<path d="M 628 309 L 1038 309 L 1038 389 L 1072 388.5 L 1089 388.5" fill="none" stroke="#444444" stroke-width="1.3" marker-end="url(#arr)"/>
<text x="977.5" y="324.5" font-size="10.5" text-anchor="middle" fill="#333" font-style="italic" stroke="white" stroke-width="2.5" paint-order="stroke" stroke-linejoin="round">Customer dunning</text>
<text x="977.5" y="338" font-size="10.5" text-anchor="middle" fill="#333" font-style="italic" stroke="white" stroke-width="2.5" paint-order="stroke" stroke-linejoin="round">status</text>
<text x="977.5" y="351.5" font-size="9" text-anchor="middle" fill="#777" stroke="white" stroke-width="2.5" paint-order="stroke" stroke-linejoin="round">(API_REST, JSON)</text>
<path d="M 1185 96.5 L 1292 96.5" fill="none" stroke="#444444" stroke-width="1.3" marker-end="url(#arr)"/>
<text x="1238.5" y="111" font-size="10.5" text-anchor="middle" fill="#333" font-style="italic" stroke="white" stroke-width="2.5" paint-order="stroke" stroke-linejoin="round">Accounting</text>
<text x="1238.5" y="124.5" font-size="10.5" text-anchor="middle" fill="#333" font-style="italic" stroke="white" stroke-width="2.5" paint-order="stroke" stroke-linejoin="round">posting</text>
<text x="1238.5" y="138" font-size="9" text-anchor="middle" fill="#777" stroke="white" stroke-width="2.5" paint-order="stroke" stroke-linejoin="round">(batch, CSV)</text>
<path d="M 117 290.6666666666667 L 134 291 L 168 291 L 168 60 L 1282 60 L 1282 81.16666666666669 L 1292 81.16666666666669" fill="none" stroke="#444444" stroke-width="1.3" marker-end="url(#arr)"/>
<text x="844.5" y="75.5" font-size="10.5" text-anchor="middle" fill="#333" font-style="italic" stroke="white" stroke-width="2.5" paint-order="stroke" stroke-linejoin="round">Controls and</text>
<text x="844.5" y="89" font-size="10.5" text-anchor="middle" fill="#333" font-style="italic" stroke="white" stroke-width="2.5" paint-order="stroke" stroke-linejoin="round">closings</text>
<path d="M 117 309.3333333333333 L 134 309 L 456 309 A 5 5 0 0 1 466 309 L 488 309" fill="none" stroke="#444444" stroke-width="1.3" marker-end="url(#arr)"/>
<text x="210.5" y="285.5" font-size="10.5" text-anchor="middle" fill="#333" font-style="italic" stroke="white" stroke-width="2.5" paint-order="stroke" stroke-linejoin="round">Steer</text>
<text x="210.5" y="299" font-size="10.5" text-anchor="middle" fill="#333" font-style="italic" stroke="white" stroke-width="2.5" paint-order="stroke" stroke-linejoin="round">collection</text>
<line x1="20" y1="598" x2="1553" y2="598" stroke="#ddd" stroke-width="1"/>
<text x="20" y="620" font-size="11" font-weight="bold" fill="#555">BUSINESS OBJECTS</text>
<rect x="150" y="610" width="54" height="15" rx="7.5" fill="#fdf3d8" stroke="#c9a227"/>
<text x="177" y="621" font-size="9.5" text-anchor="middle" fill="#7a6216" font-weight="bold">Invoice</text>
<text x="214" y="621" font-size="10" fill="#666">— billing document issued to a customer</text>
<rect x="150" y="634" width="59" height="15" rx="7.5" fill="#fdf3d8" stroke="#c9a227"/>
<text x="179.5" y="645" font-size="9.5" text-anchor="middle" fill="#7a6216" font-weight="bold">Contract</text>
<text x="219" y="645" font-size="10" fill="#666">— active commercial commitment of a customer</text>
<line x1="20" y1="672" x2="1553" y2="672" stroke="#ddd" stroke-width="1"/>
<text x="20" y="694" font-size="11" font-weight="bold" fill="#555">LEGEND</text>
<rect x="150" y="684" width="26" height="14" rx="3" fill="#eef4fb" stroke="#7a9cc4" stroke-dasharray="5 3"/>
<text x="182" y="695" font-size="10" fill="#444">Actor group</text>
<rect x="272" y="684" width="26" height="14" rx="3" fill="#e8f1f8" stroke="#5b8db8"/>
<text x="304" y="695" font-size="10" fill="#444">Application</text>
<rect x="394" y="684" width="26" height="14" rx="3" fill="#ffffff" stroke="#5b7a99"/>
<text x="426" y="695" font-size="10" fill="#444">Application module</text>
<rect x="552" y="684" width="26" height="14" rx="3" fill="#f3eef8" stroke="#8a6fae"/>
<text x="584" y="695" font-size="10" fill="#444">Datastore / registry</text>
<rect x="720" y="684" width="26" height="14" rx="3" fill="#f0eef5" stroke="#9187b3" stroke-dasharray="5 3"/>
<text x="752" y="695" font-size="10" fill="#444">External system</text>
<line x1="150" y1="714" x2="176" y2="714" stroke="#444444" stroke-width="1.3" marker-end="url(#arr)"/>
<text x="182" y="718" font-size="10" fill="#444">Application flow — (protocol, format) under the label</text>
<rect x="480" y="707" width="96" height="15" rx="7.5" fill="#fdf3d8" stroke="#c9a227"/>
<text x="528" y="718" font-size="9.5" text-anchor="middle" fill="#7a6216" font-weight="bold">Business object</text>
<text x="584" y="718" font-size="10" fill="#444">carried by the flow</text>
<text x="150" y="742" font-size="10" fill="#444" font-style="italic">Factur-X mandatory since the electronic-invoicing reform</text>
</svg>
