<svg xmlns="http://www.w3.org/2000/svg" viewBox="0 0 1155 531" font-family="Helvetica,Arial,sans-serif">
<defs><marker id="arr" viewBox="0 0 10 10" refX="9" refY="5" markerWidth="7" markerHeight="7" orient="auto-start-reverse">
<path d="M0,0 L10,5 L0,10 z" fill="#5a6675"/></marker></defs>
<rect width="1155" height="531" fill="#ffffff"/>
<rect x="10" y="140" width="115" height="171" rx="6" fill="#e9f2fb" stroke="#1f77b4" stroke-width="1.2" stroke-dasharray="5 3"/>
<text x="20" y="158" font-size="13" font-weight="bold" fill="#17202c">Managers</text>
<rect x="145" y="224" width="143" height="142" rx="6" fill="#e9f3fa" stroke="#2f83b6" stroke-width="1.2"/>
<text x="155" y="242" font-size="13" font-weight="bold" fill="#17202c">CRM</text>
<rect x="409" y="64" width="156" height="207" rx="6" fill="#e9f3fa" stroke="#2f83b6" stroke-width="1.2"/>
<text x="419" y="82" font-size="13" font-weight="bold" fill="#17202c">Billing</text>
<rect x="676" y="30" width="351" height="88" rx="6" fill="#e9f3fa" stroke="#2f83b6" stroke-width="1.2"/>
<text x="686" y="48" font-size="13" font-weight="bold" fill="#17202c">Accounting</text>
<circle cx="80" cy="175" r="7" fill="none" stroke="#1f5e91" stroke-width="1.5"/>
<path d="M 69 197 q 11 -19 22 0" fill="none" stroke="#1f5e91" stroke-width="1.5"/>
<text x="80" y="209" font-size="11" text-anchor="middle" fill="#20364c">Accountant</text>
<circle cx="67.5" cy="249" r="7" fill="none" stroke="#1f5e91" stroke-width="1.5"/>
<path d="M 56.5 271 q 11 -19 22 0" fill="none" stroke="#1f5e91" stroke-width="1.5"/>
<text x="67.5" y="283" font-size="11" text-anchor="middle" fill="#20364c">Sales</text>
<text x="67.5" y="294" font-size="11" text-anchor="middle" fill="#20364c">administration</text>
<rect x="152" y="314" width="129" height="45" rx="4" fill="#ffffff" stroke="#48546a" stroke-width="1.3"/>
<text x="216.5" y="333.25" font-size="12.5" text-anchor="middle" fill="#17202c">Customer-account</text>
<text x="216.5" y="347.75" font-size="12.5" text-anchor="middle" fill="#17202c">management</text>
<rect x="167.5" y="249" width="98" height="45" rx="4" fill="#ffffff" stroke="#48546a" stroke-width="1.3"/>
<text x="216.5" y="268.25" font-size="12.5" text-anchor="middle" fill="#17202c">Contract</text>
<text x="216.5" y="282.75" font-size="12.5" text-anchor="middle" fill="#17202c">management</text>
<rect x="424" y="154" width="98" height="45" rx="4" fill="#ffffff" stroke="#48546a" stroke-width="1.3"/>
<text x="473" y="173.25" font-size="12.5" text-anchor="middle" fill="#17202c">Billing</text>
<text x="473" y="187.75" font-size="12.5" text-anchor="middle" fill="#17202c">engine</text>
<rect x="416" y="89" width="122" height="45" rx="4" fill="#ffffff" stroke="#48546a" stroke-width="1.3"/>
<text x="477" y="108.25" font-size="12.5" text-anchor="middle" fill="#17202c">Invoice issuing</text>
<text x="477" y="122.75" font-size="12.5" text-anchor="middle" fill="#17202c">and sending</text>
<rect x="428" y="219" width="98" height="45" rx="4" fill="#ffffff" stroke="#48546a" stroke-width="1.3"/>
<text x="477" y="238.25" font-size="12.5" text-anchor="middle" fill="#17202c">Dunning and</text>
<text x="477" y="252.75" font-size="12.5" text-anchor="middle" fill="#17202c">collection</text>
<rect x="905" y="64.5" width="115" height="36" rx="4" fill="#ffffff" stroke="#48546a" stroke-width="1.3"/>
<text x="962.5" y="86.5" font-size="12.5" text-anchor="middle" fill="#17202c">General ledger</text>
<rect x="683" y="66" width="98" height="45" rx="4" fill="#ffffff" stroke="#48546a" stroke-width="1.3"/>
<text x="732" y="85.25" font-size="12.5" text-anchor="middle" fill="#17202c">Accounts</text>
<text x="732" y="99.75" font-size="12.5" text-anchor="middle" fill="#17202c">receivable</text>
<path d="M 679 135 h 82 a 8 22.5 0 0 1 0 45 h -82 a 8 22.5 0 0 1 0 -45" fill="#f4edf8" stroke="#8a53a8" stroke-width="1.3"/>
<ellipse cx="679" cy="157.5" rx="8" ry="22.5" fill="#f4edf8" stroke="#8a53a8" stroke-width="1.3"/>
<text x="724" y="154.25" font-size="12.5" text-anchor="middle" fill="#17202c">Billing</text>
<text x="724" y="168.75" font-size="12.5" text-anchor="middle" fill="#17202c">event bus</text>
<path d="M 423 321 v 31 a 49 7 0 0 0 98 0 v -31" fill="#f4edf8" stroke="#8a53a8" stroke-width="1.3"/>
<ellipse cx="472" cy="321" rx="49" ry="7" fill="#f4edf8" stroke="#8a53a8" stroke-width="1.3"/>
<text x="472" y="336.75" font-size="12.5" text-anchor="middle" fill="#17202c">Customer</text>
<text x="472" y="351.25" font-size="12.5" text-anchor="middle" fill="#17202c">repository</text>
<path d="M 231 138 v 31 a 49 7 0 0 0 98 0 v -31" fill="#f4edf8" stroke="#8a53a8" stroke-width="1.3"/>
<ellipse cx="280" cy="138" rx="49" ry="7" fill="#f4edf8" stroke="#8a53a8" stroke-width="1.3"/>
<text x="280" y="153.75" font-size="12.5" text-anchor="middle" fill="#17202c">Offer</text>
<text x="280" y="168.25" font-size="12.5" text-anchor="middle" fill="#17202c">catalog</text>
<rect x="1047" y="103" width="98" height="45" rx="4" fill="#f4eff8" stroke="#8659a6" stroke-width="1.2" stroke-dasharray="5 3"/>
<text x="1096" y="122.25" font-size="12.5" text-anchor="middle" fill="#17202c">Partner EDI</text>
<text x="1096" y="136.75" font-size="12.5" text-anchor="middle" fill="#17202c">platform</text>
<rect x="779" y="165" width="156" height="45" rx="4" fill="#f4eff8" stroke="#8659a6" stroke-width="1.2" stroke-dasharray="5 3"/>
<text x="857" y="184.25" font-size="12.5" text-anchor="middle" fill="#17202c">Electronic-invoicing</text>
<text x="857" y="198.75" font-size="12.5" text-anchor="middle" fill="#17202c">portal (PPF)</text>
<path d="M 118 271.5 L 130 272 L 140 271.5 L 167.5 271.5" fill="none" stroke="#5a6675" stroke-width="1.3" marker-end="url(#arr)"/>
<path d="M 281 336.5 L 293 337 L 423 337" fill="none" stroke="#5a6675" stroke-width="1.3" marker-end="url(#arr)"/>
<text x="358" y="352.5" font-size="11.5" text-anchor="middle" fill="#3a4553" font-style="italic" stroke="#ffffff" stroke-width="2.5" paint-order="stroke" stroke-linejoin="round">(API_REST, JSON)</text>
<path d="M 265.5 271.5 L 293 272 L 303 272 L 303 184 L 424 184" fill="none" stroke="#5a6675" stroke-width="1.3" marker-end="url(#arr)"/>
<text x="358.5" y="199.5" font-size="11.5" text-anchor="middle" fill="#3a4553" font-style="italic" stroke="#ffffff" stroke-width="2.5" paint-order="stroke" stroke-linejoin="round">(MQ, JSON)</text>
<path d="M 329 154 L 394 154 L 394 169 L 424 169" fill="none" stroke="#5a6675" stroke-width="1.3" marker-end="url(#arr)"/>
<text x="361.5" y="169.5" font-size="11.5" text-anchor="middle" fill="#3a4553" font-style="italic" stroke="#ffffff" stroke-width="2.5" paint-order="stroke" stroke-linejoin="round">(JDBC)</text>
<path d="M 522 176.5 L 570 177 L 580 177 L 580 158 L 671 158" fill="none" stroke="#5a6675" stroke-width="1.3" marker-end="url(#arr)"/>
<text x="625.5" y="173.5" font-size="11.5" text-anchor="middle" fill="#3a4553" font-style="italic" stroke="#ffffff" stroke-width="2.5" paint-order="stroke" stroke-linejoin="round">(MQ, JSON)</text>
<path d="M 769 158 L 1037 158 L 1037 22 L 394 22 L 394 112 L 404 111.5 L 416 111.5" fill="none" stroke="#5a6675" stroke-width="1.3" marker-end="url(#arr)"/>
<text x="625.5" y="37.5" font-size="11.5" text-anchor="middle" fill="#3a4553" font-style="italic" stroke="#ffffff" stroke-width="2.5" paint-order="stroke" stroke-linejoin="round">(MQ, JSON)</text>
<path d="M 538 111.5 L 570 112 L 580 112 L 580 126 L 1032 126 A 5 5 0 0 1 1042 126 L 1047 126" fill="none" stroke="#5a6675" stroke-width="1.3" marker-end="url(#arr)"/>
<text x="625.5" y="141.5" font-size="11.5" text-anchor="middle" fill="#3a4553" font-style="italic" stroke="#ffffff" stroke-width="2.5" paint-order="stroke" stroke-linejoin="round">(AS4, UBL)</text>
<path d="M 538 122.75 L 548 122.75 L 548 186.5 L 570 187 L 580 187 L 580 188 L 779 188" fill="none" stroke="#5a6675" stroke-width="1.3" marker-end="url(#arr)"/>
<text x="654.5" y="203.5" font-size="11.5" text-anchor="middle" fill="#3a4553" font-style="italic" stroke="#ffffff" stroke-width="2.5" paint-order="stroke" stroke-linejoin="round">(API_REST, FacturX)</text>
<path d="M 538 100.25 L 570 100 L 580 100 L 580 89 L 671 88.5 L 683 88.5" fill="none" stroke="#5a6675" stroke-width="1.3" marker-end="url(#arr)"/>
<text x="625.5" y="104.5" font-size="11.5" text-anchor="middle" fill="#3a4553" font-style="italic" stroke="#ffffff" stroke-width="2.5" paint-order="stroke" stroke-linejoin="round">(MQ, JSON)</text>
<path d="M 526 241.5 L 570 242 L 580 242 L 580 374 L 130 374 L 130 337 L 140 336.5 L 152 336.5" fill="none" stroke="#5a6675" stroke-width="1.3" marker-end="url(#arr)"/>
<text x="459" y="389.5" font-size="11.5" text-anchor="middle" fill="#3a4553" font-style="italic" stroke="#ffffff" stroke-width="2.5" paint-order="stroke" stroke-linejoin="round">(API_REST, JSON)</text>
<path d="M 781 88.5 L 905 88.5" fill="none" stroke="#5a6675" stroke-width="1.3" marker-end="url(#arr)"/>
<text x="843" y="104" font-size="11.5" text-anchor="middle" fill="#3a4553" font-style="italic" stroke="#ffffff" stroke-width="2.5" paint-order="stroke" stroke-linejoin="round">(batch, CSV)</text>
<path d="M 118 183 L 221 183 L 221 55 L 389 55 A 5 5 0 0 1 399 55 L 895 55 L 895 76.5 L 905 76.5" fill="none" stroke="#5a6675" stroke-width="1.3" marker-end="url(#arr)"/>
<path d="M 118 201 L 298 201 A 5 5 0 0 1 308 201 L 313 201 L 313 215 L 313 215 L 313 242 L 404 241.5 L 428 241.5" fill="none" stroke="#5a6675" stroke-width="1.3" marker-end="url(#arr)"/>
<line x1="20" y1="417" x2="1135" y2="417" stroke="#e6e9ee" stroke-width="1"/>
<text x="20" y="439" font-size="11" font-weight="bold" fill="#3a4553">LEGEND</text>
<rect x="150" y="429" width="26" height="14" rx="3" fill="#e9f2fb" stroke="#1f77b4" stroke-dasharray="5 3"/>
<text x="182" y="440" font-size="10" fill="#17202c">Actor group</text>
<rect x="272" y="429" width="26" height="14" rx="3" fill="#e9f3fa" stroke="#2f83b6"/>
<text x="304" y="440" font-size="10" fill="#17202c">Application</text>
<rect x="394" y="429" width="26" height="14" rx="3" fill="#ffffff" stroke="#48546a"/>
<text x="426" y="440" font-size="10" fill="#17202c">Application module</text>
<rect x="552" y="429" width="26" height="14" rx="3" fill="#f4edf8" stroke="#8a53a8"/>
<text x="584" y="440" font-size="10" fill="#17202c">Message queue / broker</text>
<rect x="731" y="429" width="26" height="14" rx="3" fill="#f4edf8" stroke="#8a53a8"/>
<text x="763" y="440" font-size="10" fill="#17202c">Datastore / registry</text>
<rect x="899" y="429" width="26" height="14" rx="3" fill="#f4eff8" stroke="#8659a6" stroke-dasharray="5 3"/>
<text x="931" y="440" font-size="10" fill="#17202c">External system</text>
<line x1="150" y1="481" x2="176" y2="481" stroke="#5a6675" stroke-width="1.3" marker-end="url(#arr)"/>
<text x="182" y="485" font-size="10" fill="#17202c">Application flow — (protocol, format) under the label</text>
<text x="150" y="509" font-size="10" fill="#17202c" font-style="italic">Factur-X mandatory since the electronic-invoicing reform</text>
</svg>
