<svg xmlns="http://www.w3.org/2000/svg" viewBox="0 0 1593 764" font-family="Helvetica,Arial,sans-serif">
<defs><marker id="arr" viewBox="0 0 10 10" refX="9" refY="5" markerWidth="7" markerHeight="7" orient="auto-start-reverse">
<path d="M0,0 L10,5 L0,10 z" fill="#444444"/></marker></defs>
<rect width="1593" height="764" fill="white"/>
<rect x="12" y="242" width="117" height="185" rx="6" fill="#eef4fb" stroke="#7a9cc4" stroke-width="1.2" stroke-dasharray="5 3"/>
<text x="22" y="260" font-size="12" font-weight="bold" fill="#333">Responsables</text>
<rect x="1083" y="333" width="164" height="164" rx="6" fill="#e8f1f8" stroke="#5b8db8" stroke-width="1.2"/>
<text x="1093" y="351" font-size="12" font-weight="bold" fill="#333">CRM</text>
<rect x="476" y="143" width="403" height="203.5" rx="6" fill="#e8f1f8" stroke="#5b8db8" stroke-width="1.2"/>
<text x="486" y="161" font-size="12" font-weight="bold" fill="#333">Facturation</text>
<rect x="1054" y="30" width="411" height="125.5" rx="6" fill="#e8f1f8" stroke="#5b8db8" stroke-width="1.2"/>
<text x="1064" y="48" font-size="12" font-weight="bold" fill="#333">Comptabilité</text>
<circle cx="84.5" cy="282" r="7" fill="none" stroke="#445566" stroke-width="1.5"/>
<path d="M 73.5 304 q 11 -19 22 0" fill="none" stroke="#445566" stroke-width="1.5"/>
<text x="84.5" y="316" font-size="10" text-anchor="middle" fill="#223344">Comptable</text>
<circle cx="70.5" cy="358" r="7" fill="none" stroke="#445566" stroke-width="1.5"/>
<path d="M 59.5 380 q 11 -19 22 0" fill="none" stroke="#445566" stroke-width="1.5"/>
<text x="70.5" y="392" font-size="10" text-anchor="middle" fill="#223344">Administration</text>
<text x="70.5" y="403" font-size="10" text-anchor="middle" fill="#223344">des ventes</text>
<rect x="1095" y="363" width="140" height="51" rx="4" fill="#ffffff" stroke="#5b7a99" stroke-width="1.3"/>
<text x="1165" y="385.75" font-size="11.5" text-anchor="middle" fill="#222233">Gestion des</text>
<text x="1165" y="399.25" font-size="11.5" text-anchor="middle" fill="#222233">comptes clients</text>
<rect x="1095" y="434" width="140" height="51" rx="4" fill="#ffffff" stroke="#5b7a99" stroke-width="1.3"/>
<text x="1165" y="456.75" font-size="11.5" text-anchor="middle" fill="#222233">Gestion des</text>
<text x="1165" y="470.25" font-size="11.5" text-anchor="middle" fill="#222233">contrats</text>
<rect x="488" y="212.5" width="140" height="51" rx="4" fill="#ffffff" stroke="#5b7a99" stroke-width="1.3"/>
<text x="558" y="235.25" font-size="11.5" text-anchor="middle" fill="#222233">Moteur de</text>
<text x="558" y="248.75" font-size="11.5" text-anchor="middle" fill="#222233">facturation</text>
<rect x="727" y="212.5" width="140" height="51" rx="4" fill="#ffffff" stroke="#5b7a99" stroke-width="1.3"/>
<text x="797" y="235.25" font-size="11.5" text-anchor="middle" fill="#222233">Émission et envoi</text>
<text x="797" y="248.75" font-size="11.5" text-anchor="middle" fill="#222233">des factures</text>
<rect x="488" y="283.5" width="140" height="51" rx="4" fill="#ffffff" stroke="#5b7a99" stroke-width="1.3"/>
<text x="558" y="306.25" font-size="11.5" text-anchor="middle" fill="#222233">Relance et</text>
<text x="558" y="319.75" font-size="11.5" text-anchor="middle" fill="#222233">recouvrement</text>
<rect x="1313" y="65.83333333333334" width="140" height="46" rx="4" fill="#ffffff" stroke="#5b7a99" stroke-width="1.3"/>
<text x="1383" y="92.83333333333334" font-size="11.5" text-anchor="middle" fill="#222233">Grand livre</text>
<rect x="1066" y="71" width="140" height="51" rx="4" fill="#ffffff" stroke="#5b7a99" stroke-width="1.3"/>
<text x="1136" y="93.75" font-size="11.5" text-anchor="middle" fill="#222233">Comptes</text>
<text x="1136" y="107.25" font-size="11.5" text-anchor="middle" fill="#222233">clients</text>
<path d="M 1441 370 v 37 a 70 7 0 0 0 140 0 v -37" fill="#f3eef8" stroke="#8a6fae" stroke-width="1.3"/>
<ellipse cx="1511" cy="370" rx="70" ry="7" fill="#f3eef8" stroke="#8a6fae" stroke-width="1.3"/>
<text x="1511" y="389.25" font-size="11.5" text-anchor="middle" fill="#222233">Référentiel</text>
<text x="1511" y="402.75" font-size="11.5" text-anchor="middle" fill="#222233">clients</text>
<path d="M 178 211 v 37 a 70 7 0 0 0 140 0 v -37" fill="#f3eef8" stroke="#8a6fae" stroke-width="1.3"/>
<ellipse cx="248" cy="211" rx="70" ry="7" fill="#f3eef8" stroke="#8a6fae" stroke-width="1.3"/>
<text x="248" y="230.25" font-size="11.5" text-anchor="middle" fill="#222233">Catalogue</text>
<text x="248" y="243.75" font-size="11.5" text-anchor="middle" fill="#222233">d'offres</text>
<rect x="1296" y="279" width="140" height="51" rx="4" fill="#f0eef5" stroke="#9187b3" stroke-width="1.2" stroke-dasharray="5 3"/>
<text x="1366" y="301.75" font-size="11.5" text-anchor="middle" fill="#222233">Plateforme EDI</text>
<text x="1366" y="315.25" font-size="11.5" text-anchor="middle" fill="#222233">partenaire</text>
<rect x="1222" y="212" width="164" height="51" rx="4" fill="#f0eef5" stroke="#9187b3" stroke-width="1.2" stroke-dasharray="5 3"/>
<text x="1304" y="234.75" font-size="11.5" text-anchor="middle" fill="#222233">Portail de facturation</text>
<text x="1304" y="248.25" font-size="11.5" text-anchor="middle" fill="#222233">électronique (PPF)</text>
<path d="M 117 381.5 L 134 382 L 323 382 L 323 460 L 1078 459.5 L 1095 459.5" fill="none" stroke="#444444" stroke-width="1.3" marker-end="url(#arr)"/>
<text x="392" y="475.5" font-size="10.5" text-anchor="middle" fill="#333" font-style="italic" stroke="white" stroke-width="2.5" paint-order="stroke" stroke-linejoin="round">Saisir et mettre</text>
<text x="392" y="489" font-size="10.5" text-anchor="middle" fill="#333" font-style="italic" stroke="white" stroke-width="2.5" paint-order="stroke" stroke-linejoin="round">à jour les contrats</text>
<rect x="365" y="497" width="54" height="15" rx="7.5" fill="#fdf3d8" stroke="#c9a227" stroke-width="1"/>
<text x="392" y="508" font-size="9.5" text-anchor="middle" fill="#7a6216" font-weight="bold">Contrat</text>
<path d="M 1235 388.5 L 1252 389 L 1441 389" fill="none" stroke="#444444" stroke-width="1.3" marker-end="url(#arr)"/>
<text x="1346.5" y="404.5" font-size="10.5" text-anchor="middle" fill="#333" font-style="italic" stroke="white" stroke-width="2.5" paint-order="stroke" stroke-linejoin="round">Synchroniser les</text>
<text x="1346.5" y="418" font-size="10.5" text-anchor="middle" fill="#333" font-style="italic" stroke="white" stroke-width="2.5" paint-order="stroke" stroke-linejoin="round">comptes clients</text>
<text x="1346.5" y="431.5" font-size="9" text-anchor="middle" fill="#777" stroke="white" stroke-width="2.5" paint-order="stroke" stroke-linejoin="round">(API_REST, JSON)</text>
<path d="M 1235 459.5 L 1252 460 L 1262 460 L 1262 509 L 461 509 L 461 247 L 471 246.5 L 488 246.5" fill="none" stroke="#444444" stroke-width="1.3" marker-end="url(#arr)"/>
<text x="1143" y="524.5" font-size="10.5" text-anchor="middle" fill="#333" font-style="italic" stroke="white" stroke-width="2.5" paint-order="stroke" stroke-linejoin="round">Éléments contractuels</text>
<text x="1143" y="538" font-size="10.5" text-anchor="middle" fill="#333" font-style="italic" stroke="white" stroke-width="2.5" paint-order="stroke" stroke-linejoin="round">à facturer</text>
<text x="1143" y="551.5" font-size="9" text-anchor="middle" fill="#777" stroke="white" stroke-width="2.5" paint-order="stroke" stroke-linejoin="round">(MQ, JSON)</text>
<rect x="1116" y="558" width="54" height="15" rx="7.5" fill="#fdf3d8" stroke="#c9a227" stroke-width="1"/>
<text x="1143" y="569" font-size="9.5" text-anchor="middle" fill="#7a6216" font-weight="bold">Contrat</text>
<path d="M 318 230 L 471 229.5 L 488 229.5" fill="none" stroke="#444444" stroke-width="1.3" marker-end="url(#arr)"/>
<text x="394.5" y="245.5" font-size="10.5" text-anchor="middle" fill="#333" font-style="italic" stroke="white" stroke-width="2.5" paint-order="stroke" stroke-linejoin="round">Tarifs et</text>
<text x="394.5" y="259" font-size="10.5" text-anchor="middle" fill="#333" font-style="italic" stroke="white" stroke-width="2.5" paint-order="stroke" stroke-linejoin="round">conditions</text>
<text x="394.5" y="272.5" font-size="9" text-anchor="middle" fill="#777" stroke="white" stroke-width="2.5" paint-order="stroke" stroke-linejoin="round">(JDBC)</text>
<path d="M 628 238 L 727 238" fill="none" stroke="#444444" stroke-width="1.3" marker-end="url(#arr)"/>
<text x="677.5" y="184.5" font-size="10.5" text-anchor="middle" fill="#333" font-style="italic" stroke="white" stroke-width="2.5" paint-order="stroke" stroke-linejoin="round">Factures</text>
<text x="677.5" y="198" font-size="10.5" text-anchor="middle" fill="#333" font-style="italic" stroke="white" stroke-width="2.5" paint-order="stroke" stroke-linejoin="round">calculées</text>
<text x="677.5" y="211.5" font-size="9" text-anchor="middle" fill="#777" stroke="white" stroke-width="2.5" paint-order="stroke" stroke-linejoin="round">(MQ, JSON)</text>
<rect x="650.5" y="218" width="54" height="15" rx="7.5" fill="#fdf3d8" stroke="#c9a227" stroke-width="1"/>
<text x="677.5" y="229" font-size="9.5" text-anchor="middle" fill="#7a6216" font-weight="bold">Facture</text>
<path d="M 867 250.75 L 884 251 L 894 251 L 894 250 L 1212 250 L 1212 305 L 1296 305" fill="none" stroke="#444444" stroke-width="1.3" marker-end="url(#arr)"/>
<text x="1116" y="265.5" font-size="10.5" text-anchor="middle" fill="#333" font-style="italic" stroke="white" stroke-width="2.5" paint-order="stroke" stroke-linejoin="round">Émettre les factures</text>
<text x="1116" y="279" font-size="10.5" text-anchor="middle" fill="#333" font-style="italic" stroke="white" stroke-width="2.5" paint-order="stroke" stroke-linejoin="round">dématérialisées</text>
<text x="1116" y="292.5" font-size="9" text-anchor="middle" fill="#777" stroke="white" stroke-width="2.5" paint-order="stroke" stroke-linejoin="round">(AS4, UBL)</text>
<rect x="1089" y="299" width="54" height="15" rx="7.5" fill="#fdf3d8" stroke="#c9a227" stroke-width="1"/>
<text x="1116" y="310" font-size="9.5" text-anchor="middle" fill="#7a6216" font-weight="bold">Facture</text>
<path d="M 867 238 L 1222 238" fill="none" stroke="#444444" stroke-width="1.3" marker-end="url(#arr)"/>
<text x="979" y="183.5" font-size="10.5" text-anchor="middle" fill="#333" font-style="italic" stroke="white" stroke-width="2.5" paint-order="stroke" stroke-linejoin="round">Transmission</text>
<text x="979" y="197" font-size="10.5" text-anchor="middle" fill="#333" font-style="italic" stroke="white" stroke-width="2.5" paint-order="stroke" stroke-linejoin="round">réglementaire</text>
<text x="979" y="210.5" font-size="9" text-anchor="middle" fill="#777" stroke="white" stroke-width="2.5" paint-order="stroke" stroke-linejoin="round">(API_REST, FacturX)</text>
<rect x="952" y="217" width="54" height="15" rx="7.5" fill="#fdf3d8" stroke="#c9a227" stroke-width="1"/>
<text x="979" y="228" font-size="9.5" text-anchor="middle" fill="#7a6216" font-weight="bold">Facture</text>
<path d="M 867 225.25 L 884 225 L 894 225 L 894 97 L 1049 96.5 L 1066 96.5" fill="none" stroke="#444444" stroke-width="1.3" marker-end="url(#arr)"/>
<text x="966.5" y="112.5" font-size="10.5" text-anchor="middle" fill="#333" font-style="italic" stroke="white" stroke-width="2.5" paint-order="stroke" stroke-linejoin="round">Écritures de</text>
<text x="966.5" y="126" font-size="10.5" text-anchor="middle" fill="#333" font-style="italic" stroke="white" stroke-width="2.5" paint-order="stroke" stroke-linejoin="round">ventes</text>
<text x="966.5" y="139.5" font-size="9" text-anchor="middle" fill="#777" stroke="white" stroke-width="2.5" paint-order="stroke" stroke-linejoin="round">(MQ, JSON)</text>
<path d="M 628 309 L 1044 309 L 1044 389 L 1078 388.5 L 1095 388.5" fill="none" stroke="#444444" stroke-width="1.3" marker-end="url(#arr)"/>
<text x="981" y="324.5" font-size="10.5" text-anchor="middle" fill="#333" font-style="italic" stroke="white" stroke-width="2.5" paint-order="stroke" stroke-linejoin="round">Statut de relance</text>
<text x="981" y="338" font-size="10.5" text-anchor="middle" fill="#333" font-style="italic" stroke="white" stroke-width="2.5" paint-order="stroke" stroke-linejoin="round">client</text>
<text x="981" y="351.5" font-size="9" text-anchor="middle" fill="#777" stroke="white" stroke-width="2.5" paint-order="stroke" stroke-linejoin="round">(API_REST, JSON)</text>
<path d="M 1206 96.5 L 1313 96.5" fill="none" stroke="#444444" stroke-width="1.3" marker-end="url(#arr)"/>
<text x="1259.5" y="111" font-size="10.5" text-anchor="middle" fill="#333" font-style="italic" stroke="white" stroke-width="2.5" paint-order="stroke" stroke-linejoin="round">Imputation</text>
<text x="1259.5" y="124.5" font-size="10.5" text-anchor="middle" fill="#333" font-style="italic" stroke="white" stroke-width="2.5" paint-order="stroke" stroke-linejoin="round">comptable</text>
<text x="1259.5" y="138" font-size="9" text-anchor="middle" fill="#777" stroke="white" stroke-width="2.5" paint-order="stroke" stroke-linejoin="round">(batch, CSV)</text>
<path d="M 117 290.6666666666667 L 134 291 L 168 291 L 168 60 L 1303 60 L 1303 81.16666666666669 L 1313 81.16666666666669" fill="none" stroke="#444444" stroke-width="1.3" marker-end="url(#arr)"/>
<text x="845.5" y="75.5" font-size="10.5" text-anchor="middle" fill="#333" font-style="italic" stroke="white" stroke-width="2.5" paint-order="stroke" stroke-linejoin="round">Contrôles et</text>
<text x="845.5" y="89" font-size="10.5" text-anchor="middle" fill="#333" font-style="italic" stroke="white" stroke-width="2.5" paint-order="stroke" stroke-linejoin="round">clôtures</text>
<path d="M 117 309.3333333333333 L 134 309 L 456 309 A 5 5 0 0 1 466 309 L 488 309" fill="none" stroke="#444444" stroke-width="1.3" marker-end="url(#arr)"/>
<text x="216.5" y="285.5" font-size="10.5" text-anchor="middle" fill="#333" font-style="italic" stroke="white" stroke-width="2.5" paint-order="stroke" stroke-linejoin="round">Piloter le</text>
<text x="216.5" y="299" font-size="10.5" text-anchor="middle" fill="#333" font-style="italic" stroke="white" stroke-width="2.5" paint-order="stroke" stroke-linejoin="round">recouvrement</text>
<line x1="20" y1="598" x2="1573" y2="598" stroke="#ddd" stroke-width="1"/>
<text x="20" y="620" font-size="11" font-weight="bold" fill="#555">OBJETS MÉTIER</text>
<rect x="150" y="610" width="54" height="15" rx="7.5" fill="#fdf3d8" stroke="#c9a227"/>
<text x="177" y="621" font-size="9.5" text-anchor="middle" fill="#7a6216" font-weight="bold">Facture</text>
<text x="214" y="621" font-size="10" fill="#666">— document de facturation émis vers un client</text>
<rect x="150" y="634" width="54" height="15" rx="7.5" fill="#fdf3d8" stroke="#c9a227"/>
<text x="177" y="645" font-size="9.5" text-anchor="middle" fill="#7a6216" font-weight="bold">Contrat</text>
<text x="214" y="645" font-size="10" fill="#666">— engagement commercial actif d'un client</text>
<line x1="20" y1="672" x2="1573" y2="672" stroke="#ddd" stroke-width="1"/>
<text x="20" y="694" font-size="11" font-weight="bold" fill="#555">LÉGENDE</text>
<rect x="150" y="684" width="26" height="14" rx="3" fill="#eef4fb" stroke="#7a9cc4" stroke-dasharray="5 3"/>
<text x="182" y="695" font-size="10" fill="#444">Groupe d'acteurs</text>
<rect x="298" y="684" width="26" height="14" rx="3" fill="#e8f1f8" stroke="#5b8db8"/>
<text x="330" y="695" font-size="10" fill="#444">Application</text>
<rect x="420" y="684" width="26" height="14" rx="3" fill="#ffffff" stroke="#5b7a99"/>
<text x="452" y="695" font-size="10" fill="#444">Module applicatif</text>
<rect x="573" y="684" width="26" height="14" rx="3" fill="#f3eef8" stroke="#8a6fae"/>
<text x="605" y="695" font-size="10" fill="#444">Entrepôt / référentiel</text>
<rect x="752" y="684" width="26" height="14" rx="3" fill="#f0eef5" stroke="#9187b3" stroke-dasharray="5 3"/>
<text x="784" y="695" font-size="10" fill="#444">Système externe</text>
<line x1="150" y1="714" x2="176" y2="714" stroke="#444444" stroke-width="1.3" marker-end="url(#arr)"/>
<text x="182" y="718" font-size="10" fill="#444">Flux applicatif — (protocole, format) sous le libellé</text>
<rect x="480" y="707" width="80" height="15" rx="7.5" fill="#fdf3d8" stroke="#c9a227"/>
<text x="520" y="718" font-size="9.5" text-anchor="middle" fill="#7a6216" font-weight="bold">Objet métier</text>
<text x="568" y="718" font-size="10" fill="#444">porté par le flux</text>
<text x="150" y="742" font-size="10" fill="#444" font-style="italic">Factur-X obligatoire depuis la réforme de la facturation électronique</text>
</svg>
