<svg xmlns="http://www.w3.org/2000/svg" viewBox="0 0 1276 721" font-family="Helvetica,Arial,sans-serif">
<defs><marker id="arr" viewBox="0 0 10 10" refX="9" refY="5" markerWidth="7" markerHeight="7" orient="auto-start-reverse">
<path d="M0,0 L10,5 L0,10 z" fill="#444444"/></marker></defs>
<rect width="1276" height="721" fill="white"/>
<rect x="10" y="221" width="113" height="181" rx="6" fill="#eef4fb" stroke="#7a9cc4" stroke-width="1.2" stroke-dasharray="5 3"/>
<text x="20" y="239" font-size="12" font-weight="bold" fill="#333">Responsables</text>
<rect x="879" y="305" width="137" height="154" rx="6" fill="#e8f1f8" stroke="#5b8db8" stroke-width="1.2"/>
<text x="889" y="323" font-size="12" font-weight="bold" fill="#333">CRM</text>
<rect x="366" y="125" width="361" height="195" rx="6" fill="#e8f1f8" stroke="#5b8db8" stroke-width="1.2"/>
<text x="376" y="143" font-size="12" font-weight="bold" fill="#333">Facturation</text>
<rect x="850" y="22" width="351" height="120" rx="6" fill="#e8f1f8" stroke="#5b8db8" stroke-width="1.2"/>
<text x="860" y="40" font-size="12" font-weight="bold" fill="#333">Comptabilité</text>
<circle cx="80.5" cy="259" r="7" fill="none" stroke="#445566" stroke-width="1.5"/>
<path d="M 69.5 281 q 11 -19 22 0" fill="none" stroke="#445566" stroke-width="1.5"/>
<text x="80.5" y="293" font-size="10" text-anchor="middle" fill="#223344">Comptable</text>
<circle cx="66.5" cy="335" r="7" fill="none" stroke="#445566" stroke-width="1.5"/>
<path d="M 55.5 357 q 11 -19 22 0" fill="none" stroke="#445566" stroke-width="1.5"/>
<text x="66.5" y="369" font-size="10" text-anchor="middle" fill="#223344">Administration</text>
<text x="66.5" y="380" font-size="10" text-anchor="middle" fill="#223344">des ventes</text>
<rect x="889" y="333" width="117" height="48" rx="4" fill="#ffffff" stroke="#5b7a99" stroke-width="1.3"/>
<text x="947.5" y="354.25" font-size="11.5" text-anchor="middle" fill="#222233">Gestion des</text>
<text x="947.5" y="367.75" font-size="11.5" text-anchor="middle" fill="#222233">comptes clients</text>
<rect x="891.5" y="401" width="112" height="48" rx="4" fill="#ffffff" stroke="#5b7a99" stroke-width="1.3"/>
<text x="947.5" y="422.25" font-size="11.5" text-anchor="middle" fill="#222233">Gestion des</text>
<text x="947.5" y="435.75" font-size="11.5" text-anchor="middle" fill="#222233">contrats</text>
<rect x="376" y="194" width="112" height="48" rx="4" fill="#ffffff" stroke="#5b7a99" stroke-width="1.3"/>
<text x="432" y="215.25" font-size="11.5" text-anchor="middle" fill="#222233">Moteur de</text>
<text x="432" y="228.75" font-size="11.5" text-anchor="middle" fill="#222233">facturation</text>
<rect x="587" y="194" width="130" height="48" rx="4" fill="#ffffff" stroke="#5b7a99" stroke-width="1.3"/>
<text x="652" y="215.25" font-size="11.5" text-anchor="middle" fill="#222233">Émission et envoi</text>
<text x="652" y="228.75" font-size="11.5" text-anchor="middle" fill="#222233">des factures</text>
<rect x="376" y="262" width="112" height="48" rx="4" fill="#ffffff" stroke="#5b7a99" stroke-width="1.3"/>
<text x="432" y="283.25" font-size="11.5" text-anchor="middle" fill="#222233">Relance et</text>
<text x="432" y="296.75" font-size="11.5" text-anchor="middle" fill="#222233">recouvrement</text>
<rect x="1079" y="58.33333333333333" width="112" height="40" rx="4" fill="#ffffff" stroke="#5b7a99" stroke-width="1.3"/>
<text x="1135" y="82.33333333333333" font-size="11.5" text-anchor="middle" fill="#222233">Grand livre</text>
<rect x="860" y="61" width="112" height="48" rx="4" fill="#ffffff" stroke="#5b7a99" stroke-width="1.3"/>
<text x="916" y="82.25" font-size="11.5" text-anchor="middle" fill="#222233">Comptes</text>
<text x="916" y="95.75" font-size="11.5" text-anchor="middle" fill="#222233">clients</text>
<path d="M 1154 340 v 34 a 56 7 0 0 0 112 0 v -34" fill="#f3eef8" stroke="#8a6fae" stroke-width="1.3"/>
<ellipse cx="1210" cy="340" rx="56" ry="7" fill="#f3eef8" stroke="#8a6fae" stroke-width="1.3"/>
<text x="1210" y="357.75" font-size="11.5" text-anchor="middle" fill="#222233">Référentiel</text>
<text x="1210" y="371.25" font-size="11.5" text-anchor="middle" fill="#222233">clients</text>
<path d="M 148 193 v 34 a 56 7 0 0 0 112 0 v -34" fill="#f3eef8" stroke="#8a6fae" stroke-width="1.3"/>
<ellipse cx="204" cy="193" rx="56" ry="7" fill="#f3eef8" stroke="#8a6fae" stroke-width="1.3"/>
<text x="204" y="210.75" font-size="11.5" text-anchor="middle" fill="#222233">Catalogue</text>
<text x="204" y="224.25" font-size="11.5" text-anchor="middle" fill="#222233">d'offres</text>
<rect x="1037" y="253" width="112" height="48" rx="4" fill="#f0eef5" stroke="#9187b3" stroke-width="1.2" stroke-dasharray="5 3"/>
<text x="1093" y="274.25" font-size="11.5" text-anchor="middle" fill="#222233">Plateforme EDI</text>
<text x="1093" y="287.75" font-size="11.5" text-anchor="middle" fill="#222233">partenaire</text>
<rect x="1018" y="194" width="162" height="48" rx="4" fill="#f0eef5" stroke="#9187b3" stroke-width="1.2" stroke-dasharray="5 3"/>
<text x="1099" y="215.25" font-size="11.5" text-anchor="middle" fill="#222233">Portail de facturation</text>
<text x="1099" y="228.75" font-size="11.5" text-anchor="middle" fill="#222233">électronique (PPF)</text>
<path d="M 113 358.5 L 128 359 L 213 359 L 213 425 L 346 425 A 5 5 0 0 1 356 425 L 891.5 425" fill="none" stroke="#444444" stroke-width="1.3" marker-end="url(#arr)"/>
<text x="282" y="439.5" font-size="10.5" text-anchor="middle" fill="#333" font-style="italic" stroke="white" stroke-width="2.5" paint-order="stroke" stroke-linejoin="round">Saisir et mettre</text>
<text x="282" y="453" font-size="10.5" text-anchor="middle" fill="#333" font-style="italic" stroke="white" stroke-width="2.5" paint-order="stroke" stroke-linejoin="round">à jour les contrats</text>
<rect x="255" y="461" width="54" height="15" rx="7.5" fill="#fdf3d8" stroke="#c9a227" stroke-width="1"/>
<text x="282" y="472" font-size="9.5" text-anchor="middle" fill="#7a6216" font-weight="bold">Contrat</text>
<path d="M 1006 357 L 1154 357" fill="none" stroke="#444444" stroke-width="1.3" marker-end="url(#arr)"/>
<text x="1087.5" y="371.5" font-size="10.5" text-anchor="middle" fill="#333" font-style="italic" stroke="white" stroke-width="2.5" paint-order="stroke" stroke-linejoin="round">Synchroniser les</text>
<text x="1087.5" y="385" font-size="10.5" text-anchor="middle" fill="#333" font-style="italic" stroke="white" stroke-width="2.5" paint-order="stroke" stroke-linejoin="round">comptes clients</text>
<text x="1087.5" y="398.5" font-size="9" text-anchor="middle" fill="#777" stroke="white" stroke-width="2.5" paint-order="stroke" stroke-linejoin="round">(API_REST, JSON)</text>
<path d="M 1003.5 425 L 1031 425 L 1031 469 L 351 469 L 351 226 L 376 226" fill="none" stroke="#444444" stroke-width="1.3" marker-end="url(#arr)"/>
<text x="939" y="483.5" font-size="10.5" text-anchor="middle" fill="#333" font-style="italic" stroke="white" stroke-width="2.5" paint-order="stroke" stroke-linejoin="round">Éléments contractuels</text>
<text x="939" y="497" font-size="10.5" text-anchor="middle" fill="#333" font-style="italic" stroke="white" stroke-width="2.5" paint-order="stroke" stroke-linejoin="round">à facturer</text>
<text x="939" y="510.5" font-size="9" text-anchor="middle" fill="#777" stroke="white" stroke-width="2.5" paint-order="stroke" stroke-linejoin="round">(MQ, JSON)</text>
<rect x="912" y="517" width="54" height="15" rx="7.5" fill="#fdf3d8" stroke="#c9a227" stroke-width="1"/>
<text x="939" y="528" font-size="9.5" text-anchor="middle" fill="#7a6216" font-weight="bold">Contrat</text>
<path d="M 260 210 L 376 210" fill="none" stroke="#444444" stroke-width="1.3" marker-end="url(#arr)"/>
<text x="308.5" y="224.5" font-size="10.5" text-anchor="middle" fill="#333" font-style="italic" stroke="white" stroke-width="2.5" paint-order="stroke" stroke-linejoin="round">Tarifs et</text>
<text x="308.5" y="238" font-size="10.5" text-anchor="middle" fill="#333" font-style="italic" stroke="white" stroke-width="2.5" paint-order="stroke" stroke-linejoin="round">conditions</text>
<text x="308.5" y="251.5" font-size="9" text-anchor="middle" fill="#777" stroke="white" stroke-width="2.5" paint-order="stroke" stroke-linejoin="round">(JDBC)</text>
<path d="M 488 218 L 587 218" fill="none" stroke="#444444" stroke-width="1.3" marker-end="url(#arr)"/>
<text x="537.5" y="164.5" font-size="10.5" text-anchor="middle" fill="#333" font-style="italic" stroke="white" stroke-width="2.5" paint-order="stroke" stroke-linejoin="round">Factures</text>
<text x="537.5" y="178" font-size="10.5" text-anchor="middle" fill="#333" font-style="italic" stroke="white" stroke-width="2.5" paint-order="stroke" stroke-linejoin="round">calculées</text>
<text x="537.5" y="191.5" font-size="9" text-anchor="middle" fill="#777" stroke="white" stroke-width="2.5" paint-order="stroke" stroke-linejoin="round">(MQ, JSON)</text>
<rect x="510.5" y="198" width="54" height="15" rx="7.5" fill="#fdf3d8" stroke="#c9a227" stroke-width="1"/>
<text x="537.5" y="209" font-size="9.5" text-anchor="middle" fill="#7a6216" font-weight="bold">Facture</text>
<path d="M 717 230 L 742 230 L 742 228 L 1008 228 L 1008 277 L 1037 277" fill="none" stroke="#444444" stroke-width="1.3" marker-end="url(#arr)"/>
<text x="936" y="242.5" font-size="10.5" text-anchor="middle" fill="#333" font-style="italic" stroke="white" stroke-width="2.5" paint-order="stroke" stroke-linejoin="round">Émettre les factures</text>
<text x="936" y="256" font-size="10.5" text-anchor="middle" fill="#333" font-style="italic" stroke="white" stroke-width="2.5" paint-order="stroke" stroke-linejoin="round">dématérialisées</text>
<text x="936" y="269.5" font-size="9" text-anchor="middle" fill="#777" stroke="white" stroke-width="2.5" paint-order="stroke" stroke-linejoin="round">(AS4, UBL)</text>
<rect x="909" y="276" width="54" height="15" rx="7.5" fill="#fdf3d8" stroke="#c9a227" stroke-width="1"/>
<text x="936" y="287" font-size="9.5" text-anchor="middle" fill="#7a6216" font-weight="bold">Facture</text>
<path d="M 717 218 L 1018 218" fill="none" stroke="#444444" stroke-width="1.3" marker-end="url(#arr)"/>
<text x="803" y="164.5" font-size="10.5" text-anchor="middle" fill="#333" font-style="italic" stroke="white" stroke-width="2.5" paint-order="stroke" stroke-linejoin="round">Transmission</text>
<text x="803" y="178" font-size="10.5" text-anchor="middle" fill="#333" font-style="italic" stroke="white" stroke-width="2.5" paint-order="stroke" stroke-linejoin="round">réglementaire</text>
<text x="803" y="191.5" font-size="9" text-anchor="middle" fill="#777" stroke="white" stroke-width="2.5" paint-order="stroke" stroke-linejoin="round">(API_REST, FacturX)</text>
<rect x="776" y="198" width="54" height="15" rx="7.5" fill="#fdf3d8" stroke="#c9a227" stroke-width="1"/>
<text x="803" y="209" font-size="9.5" text-anchor="middle" fill="#7a6216" font-weight="bold">Facture</text>
<path d="M 717 206 L 742 206 L 742 85 L 860 85" fill="none" stroke="#444444" stroke-width="1.3" marker-end="url(#arr)"/>
<text x="790.5" y="99.5" font-size="10.5" text-anchor="middle" fill="#333" font-style="italic" stroke="white" stroke-width="2.5" paint-order="stroke" stroke-linejoin="round">Écritures de</text>
<text x="790.5" y="113" font-size="10.5" text-anchor="middle" fill="#333" font-style="italic" stroke="white" stroke-width="2.5" paint-order="stroke" stroke-linejoin="round">ventes</text>
<text x="790.5" y="126.5" font-size="9" text-anchor="middle" fill="#777" stroke="white" stroke-width="2.5" paint-order="stroke" stroke-linejoin="round">(MQ, JSON)</text>
<path d="M 488 286 L 864 286 L 864 357 L 889 357" fill="none" stroke="#444444" stroke-width="1.3" marker-end="url(#arr)"/>
<text x="801" y="300.5" font-size="10.5" text-anchor="middle" fill="#333" font-style="italic" stroke="white" stroke-width="2.5" paint-order="stroke" stroke-linejoin="round">Statut de relance</text>
<text x="801" y="314" font-size="10.5" text-anchor="middle" fill="#333" font-style="italic" stroke="white" stroke-width="2.5" paint-order="stroke" stroke-linejoin="round">client</text>
<text x="801" y="327.5" font-size="9" text-anchor="middle" fill="#777" stroke="white" stroke-width="2.5" paint-order="stroke" stroke-linejoin="round">(API_REST, JSON)</text>
<path d="M 972 85 L 1079 85" fill="none" stroke="#444444" stroke-width="1.3" marker-end="url(#arr)"/>
<text x="1025.5" y="99.5" font-size="10.5" text-anchor="middle" fill="#333" font-style="italic" stroke="white" stroke-width="2.5" paint-order="stroke" stroke-linejoin="round">Imputation</text>
<text x="1025.5" y="113" font-size="10.5" text-anchor="middle" fill="#333" font-style="italic" stroke="white" stroke-width="2.5" paint-order="stroke" stroke-linejoin="round">comptable</text>
<text x="1025.5" y="126.5" font-size="9" text-anchor="middle" fill="#777" stroke="white" stroke-width="2.5" paint-order="stroke" stroke-linejoin="round">(batch, CSV)</text>
<path d="M 113 267.6666666666667 L 128 268 L 138 268 L 138 50 L 1069 49.99999999999997 L 1069 71.66666666666666 L 1079 71.66666666666666" fill="none" stroke="#444444" stroke-width="1.3" marker-end="url(#arr)"/>
<text x="693.5" y="64.5" font-size="10.5" text-anchor="middle" fill="#333" font-style="italic" stroke="white" stroke-width="2.5" paint-order="stroke" stroke-linejoin="round">Contrôles et</text>
<text x="693.5" y="78" font-size="10.5" text-anchor="middle" fill="#333" font-style="italic" stroke="white" stroke-width="2.5" paint-order="stroke" stroke-linejoin="round">clôtures</text>
<path d="M 113 286.3333333333333 L 128 286 L 346 286 A 5 5 0 0 1 356 286 L 376 286" fill="none" stroke="#444444" stroke-width="1.3" marker-end="url(#arr)"/>
<text x="186.5" y="263.5" font-size="10.5" text-anchor="middle" fill="#333" font-style="italic" stroke="white" stroke-width="2.5" paint-order="stroke" stroke-linejoin="round">Piloter le</text>
<text x="186.5" y="277" font-size="10.5" text-anchor="middle" fill="#333" font-style="italic" stroke="white" stroke-width="2.5" paint-order="stroke" stroke-linejoin="round">recouvrement</text>
<line x1="20" y1="555" x2="1256" y2="555" stroke="#ddd" stroke-width="1"/>
<text x="20" y="577" font-size="11" font-weight="bold" fill="#555">OBJETS MÉTIER</text>
<rect x="150" y="567" width="54" height="15" rx="7.5" fill="#fdf3d8" stroke="#c9a227"/>
<text x="177" y="578" font-size="9.5" text-anchor="middle" fill="#7a6216" font-weight="bold">Facture</text>
<text x="214" y="578" font-size="10" fill="#666">— document de facturation émis vers un client</text>
<rect x="150" y="591" width="54" height="15" rx="7.5" fill="#fdf3d8" stroke="#c9a227"/>
<text x="177" y="602" font-size="9.5" text-anchor="middle" fill="#7a6216" font-weight="bold">Contrat</text>
<text x="214" y="602" font-size="10" fill="#666">— engagement commercial actif d'un client</text>
<line x1="20" y1="629" x2="1256" y2="629" stroke="#ddd" stroke-width="1"/>
<text x="20" y="651" font-size="11" font-weight="bold" fill="#555">LÉGENDE</text>
<rect x="150" y="641" width="26" height="14" rx="3" fill="#eef4fb" stroke="#7a9cc4" stroke-dasharray="5 3"/>
<text x="182" y="652" font-size="10" fill="#444">Groupe d'acteurs</text>
<rect x="298" y="641" width="26" height="14" rx="3" fill="#e8f1f8" stroke="#5b8db8"/>
<text x="330" y="652" font-size="10" fill="#444">Application</text>
<rect x="420" y="641" width="26" height="14" rx="3" fill="#ffffff" stroke="#5b7a99"/>
<text x="452" y="652" font-size="10" fill="#444">Module applicatif</text>
<rect x="573" y="641" width="26" height="14" rx="3" fill="#f3eef8" stroke="#8a6fae"/>
<text x="605" y="652" font-size="10" fill="#444">Entrepôt / référentiel</text>
<rect x="752" y="641" width="26" height="14" rx="3" fill="#f0eef5" stroke="#9187b3" stroke-dasharray="5 3"/>
<text x="784" y="652" font-size="10" fill="#444">Système externe</text>
<line x1="150" y1="671" x2="176" y2="671" stroke="#444444" stroke-width="1.3" marker-end="url(#arr)"/>
<text x="182" y="675" font-size="10" fill="#444">Flux applicatif — (protocole, format) sous le libellé</text>
<rect x="480" y="664" width="80" height="15" rx="7.5" fill="#fdf3d8" stroke="#c9a227"/>
<text x="520" y="675" font-size="9.5" text-anchor="middle" fill="#7a6216" font-weight="bold">Objet métier</text>
<text x="568" y="675" font-size="10" fill="#444">porté par le flux</text>
<text x="150" y="699" font-size="10" fill="#444" font-style="italic">Factur-X obligatoire depuis la réforme de la facturation électronique</text>
</svg>
