<svg xmlns="http://www.w3.org/2000/svg" viewBox="0 0 1058 254" font-family="Helvetica,Arial,sans-serif">
<defs><marker id="arr" viewBox="0 0 10 10" refX="9" refY="5" markerWidth="7" markerHeight="7" orient="auto-start-reverse">
<path d="M0,0 L10,5 L0,10 z" fill="#444444"/></marker></defs>
<rect width="1058" height="254" fill="#fffdf5"/>
<rect x="12" y="55" width="88" height="98" rx="6" fill="#eef4fb" stroke="#7a9cc4" stroke-width="1.2" stroke-dasharray="5 3"/>
<text x="22" y="73" font-size="12" font-weight="bold" fill="#333">Users</text>
<rect x="246" y="30" width="455" height="130" rx="6" fill="#f6f2ea" stroke="#b3541e" stroke-width="1.4"/>
<text x="256" y="48" font-size="12" font-weight="bold" fill="#333">Core system</text>
<rect x="263" y="60" width="421" height="88" rx="6" fill="#fdfbf6" stroke="#c4b258" stroke-width="1"/>
<text x="273" y="78" font-size="12" font-weight="bold" fill="#333">Services</text>
<rect x="882" y="60" width="164" height="88" rx="6" fill="#f0eef5" stroke="#9187b3" stroke-width="1.2" stroke-dasharray="5 3"/>
<text x="892" y="78" font-size="12" font-weight="bold" fill="#333">External systems</text>
<circle cx="56" cy="95" r="7" fill="none" stroke="#445566" stroke-width="1.5"/>
<path d="M 45 117 q 11 -19 22 0" fill="none" stroke="#445566" stroke-width="1.5"/>
<text x="56" y="129" font-size="10" text-anchor="middle" fill="#223344">User</text>
<rect x="275" y="90" width="140" height="46" rx="4" fill="#e8f5e9" stroke="#2e7d32" stroke-width="1.3"/>
<text x="345" y="117" font-size="11.5" text-anchor="middle" fill="#333333">API gateway</text>
<rect x="532" y="90" width="140" height="46" rx="4" fill="#e3f2fd" stroke="#1565c0" stroke-width="1.3"/>
<text x="602" y="117" font-size="11.5" text-anchor="middle" fill="#333333">Worker</text>
<rect x="894" y="90" width="140" height="46" rx="4" fill="#ffffff" stroke="#666677" stroke-width="1.3"/>
<text x="964" y="117" font-size="11.5" text-anchor="middle" fill="#333333">Message queue</text>
<path d="M 88 113 L 275 113" fill="none" stroke="#444444" stroke-width="1.3" marker-end="url(#arr)"/>
<text x="173" y="128.5" font-size="10.5" text-anchor="middle" fill="#333" font-style="italic" stroke="white" stroke-width="2.5" paint-order="stroke" stroke-linejoin="round">Request</text>
<path d="M 415 113 L 532 113" fill="none" stroke="#444444" stroke-width="1.3" marker-end="url(#arr)"/>
<text x="473.5" y="127.5" font-size="10.5" text-anchor="middle" fill="#333" font-style="italic" stroke="white" stroke-width="2.5" paint-order="stroke" stroke-linejoin="round">Dispatch job</text>
<path d="M 672 113 L 894 113" fill="none" stroke="#444444" stroke-width="1.3" marker-end="url(#arr)"/>
<text x="791.5" y="128.5" font-size="10.5" text-anchor="middle" fill="#333" font-style="italic" stroke="white" stroke-width="2.5" paint-order="stroke" stroke-linejoin="round">Publish event</text>
<line x1="20" y1="182" x2="1038" y2="182" stroke="#ddd" stroke-width="1"/>
<text x="20" y="204" font-size="11" font-weight="bold" fill="#555">LEGEND</text>
<rect x="150" y="194" width="26" height="14" rx="3" fill="#eef4fb" stroke="#7a9cc4" stroke-dasharray="5 3"/>
<text x="182" y="205" font-size="10" fill="#444">Actor group</text>
<rect x="272" y="194" width="26" height="14" rx="3" fill="#f6f2ea" stroke="#b3541e"/>
<text x="304" y="205" font-size="10" fill="#444">System</text>
<rect x="368" y="194" width="26" height="14" rx="3" fill="#fdfbf6" stroke="#c4b258"/>
<text x="400" y="205" font-size="10" fill="#444">Layer</text>
<rect x="458" y="194" width="26" height="14" rx="3" fill="#ffffff" stroke="#666677"/>
<text x="490" y="205" font-size="10" fill="#444">Functional block</text>
<rect x="606" y="194" width="26" height="14" rx="3" fill="#f0eef5" stroke="#9187b3" stroke-dasharray="5 3"/>
<text x="638" y="205" font-size="10" fill="#444">External system</text>
<line x1="150" y1="224" x2="176" y2="224" stroke="#444444" stroke-width="1.3" marker-end="url(#arr)"/>
<text x="182" y="228" font-size="10" fill="#444">Functional flow (label = exchanged data)</text>
</svg>
