<svg xmlns="http://www.w3.org/2000/svg" viewBox="0 0 842 254" font-family="Helvetica,Arial,sans-serif">
<defs><marker id="arr" viewBox="0 0 10 10" refX="9" refY="5" markerWidth="7" markerHeight="7" orient="auto-start-reverse">
<path d="M0,0 L10,5 L0,10 z" fill="#444444"/></marker></defs>
<rect width="842" height="254" fill="#fffdf5"/>
<rect x="10" y="42" width="84" height="94" rx="6" fill="#eef4fb" stroke="#7a9cc4" stroke-width="1.2" stroke-dasharray="5 3"/>
<text x="20" y="60" font-size="12" font-weight="bold" fill="#333">Users</text>
<rect x="184" y="22" width="391" height="117.5" rx="6" fill="#f6f2ea" stroke="#b3541e" stroke-width="1.4"/>
<text x="194" y="40" font-size="12" font-weight="bold" fill="#333">Core system</text>
<rect x="199" y="50" width="361" height="79.5" rx="6" fill="#fdfbf6" stroke="#c4b258" stroke-width="1"/>
<text x="209" y="68" font-size="12" font-weight="bold" fill="#333">Services</text>
<rect x="700" y="50" width="132" height="78" rx="6" fill="#f0eef5" stroke="#9187b3" stroke-width="1.2" stroke-dasharray="5 3"/>
<text x="710" y="68" font-size="12" font-weight="bold" fill="#333">External systems</text>
<circle cx="52" cy="80" r="7" fill="none" stroke="#445566" stroke-width="1.5"/>
<path d="M 41 102 q 11 -19 22 0" fill="none" stroke="#445566" stroke-width="1.5"/>
<text x="52" y="114" font-size="10" text-anchor="middle" fill="#223344">User</text>
<rect x="209" y="78" width="112" height="40" rx="4" fill="#e8f5e9" stroke="#2e7d32" stroke-width="1.3"/>
<text x="265" y="102" font-size="11.5" text-anchor="middle" fill="#333333">API gateway</text>
<rect x="438" y="78" width="112" height="40" rx="4" fill="#e3f2fd" stroke="#1565c0" stroke-width="1.3"/>
<text x="494" y="102" font-size="11.5" text-anchor="middle" fill="#333333">Worker</text>
<rect x="710" y="78" width="112" height="40" rx="4" fill="#ffffff" stroke="#666677" stroke-width="1.3"/>
<text x="766" y="102" font-size="11.5" text-anchor="middle" fill="#333333">Message queue</text>
<path d="M 84 98 L 209 98" fill="none" stroke="#444444" stroke-width="1.3" marker-end="url(#arr)"/>
<text x="139" y="112.5" font-size="10.5" text-anchor="middle" fill="#333" font-style="italic" stroke="white" stroke-width="2.5" paint-order="stroke" stroke-linejoin="round">Request</text>
<path d="M 321 98 L 438 98" fill="none" stroke="#444444" stroke-width="1.3" marker-end="url(#arr)"/>
<text x="379.5" y="112.5" font-size="10.5" text-anchor="middle" fill="#333" font-style="italic" stroke="white" stroke-width="2.5" paint-order="stroke" stroke-linejoin="round">Dispatch job</text>
<path d="M 550 98 L 710 98" fill="none" stroke="#444444" stroke-width="1.3" marker-end="url(#arr)"/>
<text x="637.5" y="112.5" font-size="10.5" text-anchor="middle" fill="#333" font-style="italic" stroke="white" stroke-width="2.5" paint-order="stroke" stroke-linejoin="round">Publish event</text>
<line x1="20" y1="160" x2="822" y2="160" stroke="#ddd" stroke-width="1"/>
<text x="20" y="182" font-size="11" font-weight="bold" fill="#555">LEGEND</text>
<rect x="150" y="172" width="26" height="14" rx="3" fill="#eef4fb" stroke="#7a9cc4" stroke-dasharray="5 3"/>
<text x="182" y="183" font-size="10" fill="#444">Actor group</text>
<rect x="272" y="172" width="26" height="14" rx="3" fill="#f6f2ea" stroke="#b3541e"/>
<text x="304" y="183" font-size="10" fill="#444">System</text>
<rect x="368" y="172" width="26" height="14" rx="3" fill="#fdfbf6" stroke="#c4b258"/>
<text x="400" y="183" font-size="10" fill="#444">Layer</text>
<rect x="458" y="172" width="26" height="14" rx="3" fill="#ffffff" stroke="#666677"/>
<text x="490" y="183" font-size="10" fill="#444">Functional block</text>
<rect x="606" y="172" width="26" height="14" rx="3" fill="#f0eef5" stroke="#9187b3" stroke-dasharray="5 3"/>
<text x="638" y="183" font-size="10" fill="#444">External system</text>
<line x1="150" y1="224" x2="176" y2="224" stroke="#444444" stroke-width="1.3" marker-end="url(#arr)"/>
<text x="182" y="228" font-size="10" fill="#444">Functional flow (label = exchanged data)</text>
</svg>
