<svg xmlns="http://www.w3.org/2000/svg" viewBox="0 0 1710 628" font-family="Helvetica,Arial,sans-serif">
<defs><marker id="arr" viewBox="0 0 10 10" refX="9" refY="5" markerWidth="7" markerHeight="7" orient="auto-start-reverse">
<path d="M0,0 L10,5 L0,10 z" fill="#5a6675"/></marker></defs>
<rect width="1710" height="628" fill="#ffffff"/>
<rect x="238" y="22" width="1253" height="471.3333333333333" rx="6" fill="#f3f5f6" stroke="#7c8794" stroke-width="1.4"/>
<text x="248" y="40" font-size="13" font-weight="bold" fill="#17202c">Main data center</text>
<rect x="1156.75" y="248.83333333333331" width="154" height="191" rx="6" fill="#eaf5ef" stroke="#1a8f66" stroke-width="1.2" stroke-dasharray="5 3"/>
<text x="1166.75" y="266.8333333333333" font-size="13" font-weight="bold" fill="#17202c">DMZ</text>
<rect x="1170.75" y="342.8333333333333" width="126" height="88" rx="6" fill="#ffffff" stroke="#48546a" stroke-width="1.5"/>
<text x="1180.75" y="360.8333333333333" font-size="13" font-weight="bold" fill="#17202c">Reverse proxy</text>
<text x="1180.75" y="374.8333333333333" font-size="13" font-weight="bold" fill="#17202c">(HA pair)</text>
<rect x="272" y="49" width="666" height="287.5" rx="6" fill="#eaf5ef" stroke="#1a8f66" stroke-width="1.2" stroke-dasharray="5 3"/>
<text x="282" y="67" font-size="13" font-weight="bold" fill="#17202c">Application zone</text>
<rect x="534" y="247" width="126" height="74" rx="6" fill="#ffffff" stroke="#48546a" stroke-width="1.5"/>
<text x="544" y="265" font-size="13" font-weight="bold" fill="#17202c">Billing VM</text>
<rect x="534" y="153" width="126" height="74" rx="6" fill="#ffffff" stroke="#48546a" stroke-width="1.5"/>
<text x="544" y="171" font-size="13" font-weight="bold" fill="#17202c">CRM VM</text>
<rect x="1108" y="102.83333333333331" width="354" height="126" rx="6" fill="#eaf5ef" stroke="#1a8f66" stroke-width="1.2" stroke-dasharray="5 3"/>
<text x="1118" y="120.83333333333331" font-size="13" font-weight="bold" fill="#17202c">Data zone</text>
<rect x="1122" y="129.83333333333331" width="126" height="88" rx="6" fill="#ffffff" stroke="#48546a" stroke-width="1.5"/>
<text x="1132" y="147.83333333333331" font-size="13" font-weight="bold" fill="#17202c">Database</text>
<text x="1132" y="161.83333333333331" font-size="13" font-weight="bold" fill="#17202c">server</text>
<rect x="1179.75" y="383.8333333333333" width="108" height="38" rx="4" fill="#fdf4e3" stroke="#c88a2e" stroke-width="1.2"/>
<text x="1233.75" y="406.8333333333333" font-size="12.5" text-anchor="middle" fill="#17202c">WAF</text>
<rect x="1179.75" y="275.8333333333333" width="108" height="47" rx="4" fill="#ffffff" stroke="#48546a" stroke-width="1.5"/>
<text x="1233.75" y="296.0833333333333" font-size="12.5" text-anchor="middle" fill="#17202c">Transfer</text>
<text x="1233.75" y="310.5833333333333" font-size="12.5" text-anchor="middle" fill="#17202c">gateway</text>
<rect x="281" y="100" width="108" height="38" rx="4" fill="#f5e6dd" stroke="#b85a30" stroke-width="1.3"/>
<path d="M 289 108 L 303 108 Q 305 113 296 120 Q 287 113 289 108" fill="none" stroke="#b85a30" stroke-width="1.3"/>
<text x="345" y="123" font-size="12.5" text-anchor="middle" fill="#17202c">Gateway</text>
<rect x="543" y="86" width="108" height="47" rx="4" fill="#fdefe3" stroke="#d1600f" stroke-width="1.3"/>
<rect x="549" y="92" width="18" height="14" rx="3" fill="none" stroke="#d1600f" stroke-width="1.3"/>
<path d="M 553 95 v -4 a 5 5 0 0 1 10 0 v 4" fill="none" stroke="#d1600f" stroke-width="1.3"/>
<circle cx="558" cy="102" r="2.5" fill="#d1600f"/>
<text x="607" y="106.25" font-size="12.5" text-anchor="middle" fill="#17202c">OAuth2</text>
<text x="607" y="120.75" font-size="12.5" text-anchor="middle" fill="#17202c">proxy</text>
<rect x="821" y="90.5" width="108" height="38" rx="4" fill="#e0f0f0" stroke="#3a8f8f" stroke-width="1.3"/>
<text x="875" y="113.5" font-size="12.5" text-anchor="middle" fill="#17202c">LDAP / IdP</text>
<rect x="543" y="274" width="108" height="38" rx="4" fill="#fdf4e3" stroke="#c88a2e" stroke-width="1.2"/>
<text x="597" y="297" font-size="12.5" text-anchor="middle" fill="#17202c">Billing</text>
<rect x="543" y="180" width="108" height="38" rx="4" fill="#fdf4e3" stroke="#c88a2e" stroke-width="1.2"/>
<text x="597" y="203" font-size="12.5" text-anchor="middle" fill="#17202c">CRM</text>
<rect x="1131" y="170.83333333333331" width="108" height="38" rx="4" fill="#fdf4e3" stroke="#c88a2e" stroke-width="1.2"/>
<text x="1185" y="193.83333333333331" font-size="12.5" text-anchor="middle" fill="#17202c">PostgreSQL</text>
<rect x="1345" y="147.33333333333331" width="108" height="47" rx="4" fill="#ffffff" stroke="#48546a" stroke-width="1.5"/>
<text x="1399" y="167.58333333333331" font-size="12.5" text-anchor="middle" fill="#17202c">Backup</text>
<text x="1399" y="182.08333333333331" font-size="12.5" text-anchor="middle" fill="#17202c">server</text>
<circle cx="54" cy="380" r="7" fill="none" stroke="#1f5e91" stroke-width="1.5"/>
<path d="M 43 402 q 11 -19 22 0" fill="none" stroke="#1f5e91" stroke-width="1.5"/>
<text x="54" y="414" font-size="11" text-anchor="middle" fill="#20364c">User</text>
<text x="54" y="425" font-size="11" text-anchor="middle" fill="#20364c">workstations</text>
<rect x="1592" y="275" width="108" height="47" rx="4" fill="#f4eff8" stroke="#8659a6" stroke-width="1.2" stroke-dasharray="5 3"/>
<text x="1646" y="295.25" font-size="12.5" text-anchor="middle" fill="#17202c">Partner EDI</text>
<text x="1646" y="309.75" font-size="12.5" text-anchor="middle" fill="#17202c">platform</text>
<path d="M 98 403 L 233 402.8333333333333 L 252 402.8333333333333 A 5 5 0 0 1 262 402.8333333333333 L 1179.75 402.8333333333333" fill="none" stroke="#5a6675" stroke-width="1.3" marker-end="url(#arr)"/>
<text x="165.5" y="418.5" font-size="11.5" text-anchor="middle" fill="#3a4553" font-style="italic" stroke="#ffffff" stroke-width="2.5" paint-order="stroke" stroke-linejoin="round">Web application</text>
<text x="165.5" y="433" font-size="11.5" text-anchor="middle" fill="#3a4553" font-style="italic" stroke="#ffffff" stroke-width="2.5" paint-order="stroke" stroke-linejoin="round">access</text>
<text x="165.5" y="447.5" font-size="9" text-anchor="middle" fill="#79828f" stroke="#ffffff" stroke-width="2.5" paint-order="stroke" stroke-linejoin="round">(HTTPS/443)</text>
<path d="M 1287.75 402.8333333333333 L 1472 402.8333333333333 L 1472 449.8333333333333 L 257 449.8333333333333 L 257 119 L 281 119" fill="none" stroke="#5a6675" stroke-width="1.3" marker-end="url(#arr)"/>
<text x="1028" y="465.3333333333333" font-size="11.5" text-anchor="middle" fill="#3a4553" font-style="italic" stroke="#ffffff" stroke-width="2.5" paint-order="stroke" stroke-linejoin="round">Route to backend</text>
<text x="1028" y="479.8333333333333" font-size="9" text-anchor="middle" fill="#79828f" stroke="#ffffff" stroke-width="2.5" paint-order="stroke" stroke-linejoin="round">(HTTPS/443)</text>
<path d="M 389 109.5 L 543 109.5" fill="none" stroke="#5a6675" stroke-width="1.3" marker-end="url(#arr)"/>
<text x="464" y="125" font-size="11.5" text-anchor="middle" fill="#3a4553" font-style="italic" stroke="#ffffff" stroke-width="2.5" paint-order="stroke" stroke-linejoin="round">Verify tokens</text>
<text x="464" y="139.5" font-size="9" text-anchor="middle" fill="#79828f" stroke="#ffffff" stroke-width="2.5" paint-order="stroke" stroke-linejoin="round">(HTTP/80)</text>
<path d="M 651 109.5 L 821 109.5" fill="none" stroke="#5a6675" stroke-width="1.3" marker-end="url(#arr)"/>
<text x="743" y="88.5" font-size="11.5" text-anchor="middle" fill="#3a4553" font-style="italic" stroke="#ffffff" stroke-width="2.5" paint-order="stroke" stroke-linejoin="round">Validate identity</text>
<text x="743" y="103" font-size="9" text-anchor="middle" fill="#79828f" stroke="#ffffff" stroke-width="2.5" paint-order="stroke" stroke-linejoin="round">(LDAPS/636)</text>
<path d="M 389 128.5 L 399 128.5 L 399 293 L 543 292.99999999999994" fill="none" stroke="#5a6675" stroke-width="1.3" marker-end="url(#arr)"/>
<text x="464" y="308.5" font-size="11.5" text-anchor="middle" fill="#3a4553" font-style="italic" stroke="#ffffff" stroke-width="2.5" paint-order="stroke" stroke-linejoin="round">Billing API</text>
<text x="464" y="323" font-size="9" text-anchor="middle" fill="#79828f" stroke="#ffffff" stroke-width="2.5" paint-order="stroke" stroke-linejoin="round">(HTTPS/8443)</text>
<path d="M 389 119 L 409 119 L 409 199 L 543 198.99999999999994" fill="none" stroke="#5a6675" stroke-width="1.3" marker-end="url(#arr)"/>
<text x="464" y="214.5" font-size="11.5" text-anchor="middle" fill="#3a4553" font-style="italic" stroke="#ffffff" stroke-width="2.5" paint-order="stroke" stroke-linejoin="round">CRM API</text>
<text x="464" y="229" font-size="9" text-anchor="middle" fill="#79828f" stroke="#ffffff" stroke-width="2.5" paint-order="stroke" stroke-linejoin="round">(HTTPS/8444)</text>
<path d="M 651 286.6666666666667 L 963 286.66666666666663 L 963 196.16666666666663 L 1131 196.16666666666663" fill="none" stroke="#5a6675" stroke-width="1.3" marker-end="url(#arr)"/>
<text x="1028" y="211.66666666666663" font-size="11.5" text-anchor="middle" fill="#3a4553" font-style="italic" stroke="#ffffff" stroke-width="2.5" paint-order="stroke" stroke-linejoin="round">Read/write</text>
<text x="1028" y="226.16666666666663" font-size="11.5" text-anchor="middle" fill="#3a4553" font-style="italic" stroke="#ffffff" stroke-width="2.5" paint-order="stroke" stroke-linejoin="round">billing data</text>
<text x="1028" y="240.66666666666663" font-size="9" text-anchor="middle" fill="#79828f" stroke="#ffffff" stroke-width="2.5" paint-order="stroke" stroke-linejoin="round">(TCP/5432)</text>
<path d="M 651 199 L 953 199 L 953 185.16666666666663 L 1093 185.16666666666663 L 1093 183.49999999999994 L 1131 183.49999999999997" fill="none" stroke="#5a6675" stroke-width="1.3" marker-end="url(#arr)"/>
<text x="1028" y="149.66666666666663" font-size="11.5" text-anchor="middle" fill="#3a4553" font-style="italic" stroke="#ffffff" stroke-width="2.5" paint-order="stroke" stroke-linejoin="round">Read/write</text>
<text x="1028" y="164.16666666666663" font-size="11.5" text-anchor="middle" fill="#3a4553" font-style="italic" stroke="#ffffff" stroke-width="2.5" paint-order="stroke" stroke-linejoin="round">customer data</text>
<text x="1028" y="178.66666666666663" font-size="9" text-anchor="middle" fill="#79828f" stroke="#ffffff" stroke-width="2.5" paint-order="stroke" stroke-linejoin="round">(TCP/5432)</text>
<path d="M 651 299.3333333333333 L 1179.75 299.3333333333333" fill="none" stroke="#5a6675" stroke-width="1.3" marker-end="url(#arr)"/>
<text x="1028" y="314.8333333333333" font-size="11.5" text-anchor="middle" fill="#3a4553" font-style="italic" stroke="#ffffff" stroke-width="2.5" paint-order="stroke" stroke-linejoin="round">Drop invoices</text>
<text x="1028" y="329.3333333333333" font-size="11.5" text-anchor="middle" fill="#3a4553" font-style="italic" stroke="#ffffff" stroke-width="2.5" paint-order="stroke" stroke-linejoin="round">to transmit</text>
<text x="1028" y="343.8333333333333" font-size="9" text-anchor="middle" fill="#79828f" stroke="#ffffff" stroke-width="2.5" paint-order="stroke" stroke-linejoin="round">(SFTP/22)</text>
<path d="M 1287.75 299.3333333333333 L 1496 299 L 1592 299" fill="none" stroke="#5a6675" stroke-width="1.3" marker-end="url(#arr)"/>
<text x="1544" y="314.5" font-size="11.5" text-anchor="middle" fill="#3a4553" font-style="italic" stroke="#ffffff" stroke-width="2.5" paint-order="stroke" stroke-linejoin="round">Partner</text>
<text x="1544" y="329" font-size="11.5" text-anchor="middle" fill="#3a4553" font-style="italic" stroke="#ffffff" stroke-width="2.5" paint-order="stroke" stroke-linejoin="round">transfers</text>
<text x="1544" y="343.5" font-size="9" text-anchor="middle" fill="#79828f" stroke="#ffffff" stroke-width="2.5" paint-order="stroke" stroke-linejoin="round">(AS4/443)</text>
<path d="M 1248 170.83333333333331 L 1345 170.83333333333331" fill="none" stroke="#5a6675" stroke-width="1.3" marker-end="url(#arr)"/>
<text x="1296.5" y="186.33333333333331" font-size="11.5" text-anchor="middle" fill="#3a4553" font-style="italic" stroke="#ffffff" stroke-width="2.5" paint-order="stroke" stroke-linejoin="round">Daily</text>
<text x="1296.5" y="200.83333333333331" font-size="11.5" text-anchor="middle" fill="#3a4553" font-style="italic" stroke="#ffffff" stroke-width="2.5" paint-order="stroke" stroke-linejoin="round">backups</text>
<text x="1296.5" y="215.33333333333331" font-size="9" text-anchor="middle" fill="#79828f" stroke="#ffffff" stroke-width="2.5" paint-order="stroke" stroke-linejoin="round">(TCP/9092)</text>
<line x1="20" y1="514" x2="1690" y2="514" stroke="#e6e9ee" stroke-width="1"/>
<text x="20" y="536" font-size="11" font-weight="bold" fill="#3a4553">LEGEND</text>
<rect x="150" y="526" width="26" height="14" rx="3" fill="#f3f5f6" stroke="#7c8794"/>
<text x="182" y="537" font-size="10" fill="#17202c">Site / data center</text>
<rect x="308" y="526" width="26" height="14" rx="3" fill="#eaf5ef" stroke="#1a8f66" stroke-dasharray="5 3"/>
<text x="340" y="537" font-size="10" fill="#17202c">Network zone</text>
<rect x="435" y="526" width="26" height="14" rx="3" fill="#ffffff" stroke="#48546a"/>
<text x="467" y="537" font-size="10" fill="#17202c">Server / VM</text>
<rect x="557" y="526" width="26" height="14" rx="3" fill="#fdf4e3" stroke="#c88a2e"/>
<text x="589" y="537" font-size="10" fill="#17202c">Deployed application</text>
<rect x="725" y="526" width="26" height="14" rx="3" fill="#f5e6dd" stroke="#b85a30"/>
<text x="757" y="537" font-size="10" fill="#17202c">Gateway / reverse proxy</text>
<rect x="909" y="526" width="26" height="14" rx="3" fill="#fdefe3" stroke="#d1600f"/>
<text x="941" y="537" font-size="10" fill="#17202c">Auth middleware</text>
<rect x="1051" y="526" width="26" height="14" rx="3" fill="#e0f0f0" stroke="#3a8f8f"/>
<text x="1083" y="537" font-size="10" fill="#17202c">Identity provider (IdP)</text>
<circle cx="1248" cy="529" r="3" fill="none" stroke="#1f5e91" stroke-width="1.2"/>
<path d="M 1243 539 q 5 -7 10 0" fill="none" stroke="#1f5e91" stroke-width="1.2"/>
<text x="1267" y="537" font-size="10" fill="#17202c">User / consumer</text>
<rect x="1377" y="526" width="26" height="14" rx="3" fill="#f4eff8" stroke="#8659a6" stroke-dasharray="5 3"/>
<text x="1409" y="537" font-size="10" fill="#17202c">External system</text>
<line x1="150" y1="578" x2="176" y2="578" stroke="#5a6675" stroke-width="1.3" marker-end="url(#arr)"/>
<text x="182" y="582" font-size="10" fill="#17202c">Technical flow (protocol, port)</text>
<text x="150" y="606" font-size="10" fill="#17202c" font-style="italic">Inter-zone flows filtered by firewall (flow matrix attached to the architecture dossier)</text>
</svg>
