<svg xmlns="http://www.w3.org/2000/svg" viewBox="0 0 1810 642" font-family="Helvetica,Arial,sans-serif">
<defs><marker id="arr" viewBox="0 0 10 10" refX="9" refY="5" markerWidth="7" markerHeight="7" orient="auto-start-reverse">
<path d="M0,0 L10,5 L0,10 z" fill="#5a6675"/></marker></defs>
<rect width="1810" height="642" fill="#ffffff"/>
<rect x="251" y="22" width="1318" height="485.8333333333333" rx="6" fill="#f3f5f6" stroke="#7c8794" stroke-width="1.4"/>
<text x="261" y="40" font-size="13" font-weight="bold" fill="#17202c">Centre de données principal</text>
<rect x="1214.5" y="248.83333333333331" width="154" height="191" rx="6" fill="#eaf5ef" stroke="#1a8f66" stroke-width="1.2" stroke-dasharray="5 3"/>
<text x="1224.5" y="266.8333333333333" font-size="13" font-weight="bold" fill="#17202c">DMZ</text>
<rect x="1228.5" y="342.8333333333333" width="126" height="88" rx="6" fill="#ffffff" stroke="#48546a" stroke-width="1.5"/>
<text x="1238.5" y="360.8333333333333" font-size="13" font-weight="bold" fill="#17202c">Reverse proxy</text>
<text x="1238.5" y="374.8333333333333" font-size="13" font-weight="bold" fill="#17202c">(paire HA)</text>
<rect x="285" y="49" width="685" height="287.5" rx="6" fill="#eaf5ef" stroke="#1a8f66" stroke-width="1.2" stroke-dasharray="5 3"/>
<text x="295" y="67" font-size="13" font-weight="bold" fill="#17202c">Zone applicative</text>
<rect x="560" y="247" width="126" height="74" rx="6" fill="#ffffff" stroke="#48546a" stroke-width="1.5"/>
<text x="570" y="265" font-size="13" font-weight="bold" fill="#17202c">VM Facturation</text>
<rect x="560" y="153" width="126" height="74" rx="6" fill="#ffffff" stroke="#48546a" stroke-width="1.5"/>
<text x="570" y="171" font-size="13" font-weight="bold" fill="#17202c">VM CRM</text>
<rect x="1159" y="102.83333333333331" width="381" height="126" rx="6" fill="#eaf5ef" stroke="#1a8f66" stroke-width="1.2" stroke-dasharray="5 3"/>
<text x="1169" y="120.83333333333331" font-size="13" font-weight="bold" fill="#17202c">Zone de données</text>
<rect x="1173" y="129.83333333333331" width="126" height="88" rx="6" fill="#ffffff" stroke="#48546a" stroke-width="1.5"/>
<text x="1183" y="147.83333333333331" font-size="13" font-weight="bold" fill="#17202c">Serveur de</text>
<text x="1183" y="161.83333333333331" font-size="13" font-weight="bold" fill="#17202c">base de données</text>
<rect x="1237.5" y="383.8333333333333" width="108" height="38" rx="4" fill="#fdf4e3" stroke="#c88a2e" stroke-width="1.2"/>
<text x="1291.5" y="406.8333333333333" font-size="12.5" text-anchor="middle" fill="#17202c">WAF</text>
<rect x="1237.5" y="275.8333333333333" width="108" height="47" rx="4" fill="#ffffff" stroke="#48546a" stroke-width="1.5"/>
<text x="1291.5" y="296.0833333333333" font-size="12.5" text-anchor="middle" fill="#17202c">Passerelle</text>
<text x="1291.5" y="310.5833333333333" font-size="12.5" text-anchor="middle" fill="#17202c">de transfert</text>
<rect x="294" y="100" width="108" height="38" rx="4" fill="#f5e6dd" stroke="#b85a30" stroke-width="1.3"/>
<path d="M 302 108 L 316 108 Q 318 113 309 120 Q 300 113 302 108" fill="none" stroke="#b85a30" stroke-width="1.3"/>
<text x="358" y="123" font-size="12.5" text-anchor="middle" fill="#17202c">Gateway</text>
<rect x="569" y="86" width="108" height="47" rx="4" fill="#fdefe3" stroke="#d1600f" stroke-width="1.3"/>
<rect x="575" y="92" width="18" height="14" rx="3" fill="none" stroke="#d1600f" stroke-width="1.3"/>
<path d="M 579 95 v -4 a 5 5 0 0 1 10 0 v 4" fill="none" stroke="#d1600f" stroke-width="1.3"/>
<circle cx="584" cy="102" r="2.5" fill="#d1600f"/>
<text x="633" y="106.25" font-size="12.5" text-anchor="middle" fill="#17202c">OAuth2</text>
<text x="633" y="120.75" font-size="12.5" text-anchor="middle" fill="#17202c">proxy</text>
<rect x="853" y="90.5" width="108" height="38" rx="4" fill="#e0f0f0" stroke="#3a8f8f" stroke-width="1.3"/>
<text x="907" y="113.5" font-size="12.5" text-anchor="middle" fill="#17202c">LDAP / IdP</text>
<rect x="569" y="274" width="108" height="38" rx="4" fill="#fdf4e3" stroke="#c88a2e" stroke-width="1.2"/>
<text x="623" y="297" font-size="12.5" text-anchor="middle" fill="#17202c">Facturation</text>
<rect x="569" y="180" width="108" height="38" rx="4" fill="#fdf4e3" stroke="#c88a2e" stroke-width="1.2"/>
<text x="623" y="203" font-size="12.5" text-anchor="middle" fill="#17202c">CRM</text>
<rect x="1182" y="170.83333333333331" width="108" height="38" rx="4" fill="#fdf4e3" stroke="#c88a2e" stroke-width="1.2"/>
<text x="1236" y="193.83333333333331" font-size="12.5" text-anchor="middle" fill="#17202c">PostgreSQL</text>
<rect x="1423" y="147.33333333333331" width="108" height="47" rx="4" fill="#ffffff" stroke="#48546a" stroke-width="1.5"/>
<text x="1477" y="167.58333333333331" font-size="12.5" text-anchor="middle" fill="#17202c">Serveur de</text>
<text x="1477" y="182.08333333333331" font-size="12.5" text-anchor="middle" fill="#17202c">sauvegarde</text>
<circle cx="54" cy="380" r="7" fill="none" stroke="#1f5e91" stroke-width="1.5"/>
<path d="M 43 402 q 11 -19 22 0" fill="none" stroke="#1f5e91" stroke-width="1.5"/>
<text x="54" y="414" font-size="11" text-anchor="middle" fill="#20364c">Postes</text>
<text x="54" y="425" font-size="11" text-anchor="middle" fill="#20364c">utilisateurs</text>
<rect x="1683" y="275" width="117" height="47" rx="4" fill="#f4eff8" stroke="#8659a6" stroke-width="1.2" stroke-dasharray="5 3"/>
<text x="1741.5" y="295.25" font-size="12.5" text-anchor="middle" fill="#17202c">Plateforme EDI</text>
<text x="1741.5" y="309.75" font-size="12.5" text-anchor="middle" fill="#17202c">partenaire</text>
<path d="M 98 403 L 246 402.8333333333333 L 265 402.8333333333333 A 5 5 0 0 1 275 402.8333333333333 L 1237.5 402.8333333333333" fill="none" stroke="#5a6675" stroke-width="1.3" marker-end="url(#arr)"/>
<text x="172" y="418.5" font-size="11.5" text-anchor="middle" fill="#3a4553" font-style="italic" stroke="#ffffff" stroke-width="2.5" paint-order="stroke" stroke-linejoin="round">Accès application</text>
<text x="172" y="433" font-size="11.5" text-anchor="middle" fill="#3a4553" font-style="italic" stroke="#ffffff" stroke-width="2.5" paint-order="stroke" stroke-linejoin="round">web</text>
<text x="172" y="447.5" font-size="9" text-anchor="middle" fill="#79828f" stroke="#ffffff" stroke-width="2.5" paint-order="stroke" stroke-linejoin="round">(HTTPS/443)</text>
<path d="M 1345.5 402.8333333333333 L 1550 402.8333333333333 L 1550 449.8333333333333 L 270 449.8333333333333 L 270 119 L 294 119" fill="none" stroke="#5a6675" stroke-width="1.3" marker-end="url(#arr)"/>
<text x="1069.5" y="465.3333333333333" font-size="11.5" text-anchor="middle" fill="#3a4553" font-style="italic" stroke="#ffffff" stroke-width="2.5" paint-order="stroke" stroke-linejoin="round">Routage vers</text>
<text x="1069.5" y="479.8333333333333" font-size="11.5" text-anchor="middle" fill="#3a4553" font-style="italic" stroke="#ffffff" stroke-width="2.5" paint-order="stroke" stroke-linejoin="round">le backend</text>
<text x="1069.5" y="494.3333333333333" font-size="9" text-anchor="middle" fill="#79828f" stroke="#ffffff" stroke-width="2.5" paint-order="stroke" stroke-linejoin="round">(HTTPS/443)</text>
<path d="M 402 109.5 L 569 109.5" fill="none" stroke="#5a6675" stroke-width="1.3" marker-end="url(#arr)"/>
<text x="483.5" y="125" font-size="11.5" text-anchor="middle" fill="#3a4553" font-style="italic" stroke="#ffffff" stroke-width="2.5" paint-order="stroke" stroke-linejoin="round">Vérifier tokens</text>
<text x="483.5" y="139.5" font-size="9" text-anchor="middle" fill="#79828f" stroke="#ffffff" stroke-width="2.5" paint-order="stroke" stroke-linejoin="round">(HTTP/80)</text>
<path d="M 677 109.5 L 853 109.5" fill="none" stroke="#5a6675" stroke-width="1.3" marker-end="url(#arr)"/>
<text x="772" y="88.5" font-size="11.5" text-anchor="middle" fill="#3a4553" font-style="italic" stroke="#ffffff" stroke-width="2.5" paint-order="stroke" stroke-linejoin="round">Valider l'identité</text>
<text x="772" y="103" font-size="9" text-anchor="middle" fill="#79828f" stroke="#ffffff" stroke-width="2.5" paint-order="stroke" stroke-linejoin="round">(LDAPS/636)</text>
<path d="M 402 128.5 L 412 128.5 L 412 293 L 569 292.99999999999994" fill="none" stroke="#5a6675" stroke-width="1.3" marker-end="url(#arr)"/>
<text x="483.5" y="308.5" font-size="11.5" text-anchor="middle" fill="#3a4553" font-style="italic" stroke="#ffffff" stroke-width="2.5" paint-order="stroke" stroke-linejoin="round">API facturation</text>
<text x="483.5" y="323" font-size="9" text-anchor="middle" fill="#79828f" stroke="#ffffff" stroke-width="2.5" paint-order="stroke" stroke-linejoin="round">(HTTPS/8443)</text>
<path d="M 402 119 L 422 119 L 422 199 L 569 198.99999999999994" fill="none" stroke="#5a6675" stroke-width="1.3" marker-end="url(#arr)"/>
<text x="483.5" y="214.5" font-size="11.5" text-anchor="middle" fill="#3a4553" font-style="italic" stroke="#ffffff" stroke-width="2.5" paint-order="stroke" stroke-linejoin="round">API CRM</text>
<text x="483.5" y="229" font-size="9" text-anchor="middle" fill="#79828f" stroke="#ffffff" stroke-width="2.5" paint-order="stroke" stroke-linejoin="round">(HTTPS/8444)</text>
<path d="M 677 286.6666666666667 L 995 286.66666666666663 L 995 196.16666666666663 L 1182 196.16666666666663" fill="none" stroke="#5a6675" stroke-width="1.3" marker-end="url(#arr)"/>
<text x="1069.5" y="211.66666666666663" font-size="11.5" text-anchor="middle" fill="#3a4553" font-style="italic" stroke="#ffffff" stroke-width="2.5" paint-order="stroke" stroke-linejoin="round">Lecture/écriture</text>
<text x="1069.5" y="226.16666666666663" font-size="11.5" text-anchor="middle" fill="#3a4553" font-style="italic" stroke="#ffffff" stroke-width="2.5" paint-order="stroke" stroke-linejoin="round">données facturation</text>
<text x="1069.5" y="240.66666666666663" font-size="9" text-anchor="middle" fill="#79828f" stroke="#ffffff" stroke-width="2.5" paint-order="stroke" stroke-linejoin="round">(TCP/5432)</text>
<path d="M 677 199 L 985 199 L 985 185.16666666666663 L 1144 185.16666666666663 L 1144 183.49999999999994 L 1182 183.49999999999997" fill="none" stroke="#5a6675" stroke-width="1.3" marker-end="url(#arr)"/>
<text x="1069.5" y="149.66666666666663" font-size="11.5" text-anchor="middle" fill="#3a4553" font-style="italic" stroke="#ffffff" stroke-width="2.5" paint-order="stroke" stroke-linejoin="round">Lecture/écriture</text>
<text x="1069.5" y="164.16666666666663" font-size="11.5" text-anchor="middle" fill="#3a4553" font-style="italic" stroke="#ffffff" stroke-width="2.5" paint-order="stroke" stroke-linejoin="round">données clients</text>
<text x="1069.5" y="178.66666666666663" font-size="9" text-anchor="middle" fill="#79828f" stroke="#ffffff" stroke-width="2.5" paint-order="stroke" stroke-linejoin="round">(TCP/5432)</text>
<path d="M 677 299.3333333333333 L 1237.5 299.3333333333333" fill="none" stroke="#5a6675" stroke-width="1.3" marker-end="url(#arr)"/>
<text x="1069.5" y="314.8333333333333" font-size="11.5" text-anchor="middle" fill="#3a4553" font-style="italic" stroke="#ffffff" stroke-width="2.5" paint-order="stroke" stroke-linejoin="round">Dépôt des factures</text>
<text x="1069.5" y="329.3333333333333" font-size="11.5" text-anchor="middle" fill="#3a4553" font-style="italic" stroke="#ffffff" stroke-width="2.5" paint-order="stroke" stroke-linejoin="round">à transmettre</text>
<text x="1069.5" y="343.8333333333333" font-size="9" text-anchor="middle" fill="#79828f" stroke="#ffffff" stroke-width="2.5" paint-order="stroke" stroke-linejoin="round">(SFTP/22)</text>
<path d="M 1345.5 299.3333333333333 L 1574 299 L 1683 299" fill="none" stroke="#5a6675" stroke-width="1.3" marker-end="url(#arr)"/>
<text x="1628.5" y="314.5" font-size="11.5" text-anchor="middle" fill="#3a4553" font-style="italic" stroke="#ffffff" stroke-width="2.5" paint-order="stroke" stroke-linejoin="round">Transferts</text>
<text x="1628.5" y="329" font-size="11.5" text-anchor="middle" fill="#3a4553" font-style="italic" stroke="#ffffff" stroke-width="2.5" paint-order="stroke" stroke-linejoin="round">partenaires</text>
<text x="1628.5" y="343.5" font-size="9" text-anchor="middle" fill="#79828f" stroke="#ffffff" stroke-width="2.5" paint-order="stroke" stroke-linejoin="round">(AS4/443)</text>
<path d="M 1299 170.83333333333331 L 1423 170.83333333333331" fill="none" stroke="#5a6675" stroke-width="1.3" marker-end="url(#arr)"/>
<text x="1361" y="186.33333333333331" font-size="11.5" text-anchor="middle" fill="#3a4553" font-style="italic" stroke="#ffffff" stroke-width="2.5" paint-order="stroke" stroke-linejoin="round">Sauvegardes</text>
<text x="1361" y="200.83333333333331" font-size="11.5" text-anchor="middle" fill="#3a4553" font-style="italic" stroke="#ffffff" stroke-width="2.5" paint-order="stroke" stroke-linejoin="round">quotidiennes</text>
<text x="1361" y="215.33333333333331" font-size="9" text-anchor="middle" fill="#79828f" stroke="#ffffff" stroke-width="2.5" paint-order="stroke" stroke-linejoin="round">(TCP/9092)</text>
<line x1="20" y1="528" x2="1790" y2="528" stroke="#e6e9ee" stroke-width="1"/>
<text x="20" y="550" font-size="11" font-weight="bold" fill="#3a4553">LÉGENDE</text>
<rect x="150" y="540" width="26" height="14" rx="3" fill="#f3f5f6" stroke="#7c8794"/>
<text x="182" y="551" font-size="10" fill="#17202c">Site / centre de données</text>
<rect x="339" y="540" width="26" height="14" rx="3" fill="#eaf5ef" stroke="#1a8f66" stroke-dasharray="5 3"/>
<text x="371" y="551" font-size="10" fill="#17202c">Zone réseau</text>
<rect x="461" y="540" width="26" height="14" rx="3" fill="#ffffff" stroke="#48546a"/>
<text x="493" y="551" font-size="10" fill="#17202c">Serveur / VM</text>
<rect x="588" y="540" width="26" height="14" rx="3" fill="#fdf4e3" stroke="#c88a2e"/>
<text x="620" y="551" font-size="10" fill="#17202c">Application déployée</text>
<rect x="756" y="540" width="26" height="14" rx="3" fill="#f5e6dd" stroke="#b85a30"/>
<text x="788" y="551" font-size="10" fill="#17202c">Passerelle / proxy</text>
<rect x="914" y="540" width="26" height="14" rx="3" fill="#fdefe3" stroke="#d1600f"/>
<text x="946" y="551" font-size="10" fill="#17202c">Middleware d'authentification</text>
<rect x="1129" y="540" width="26" height="14" rx="3" fill="#e0f0f0" stroke="#3a8f8f"/>
<text x="1161" y="551" font-size="10" fill="#17202c">Fournisseur d'identité (IdP)</text>
<circle cx="1352" cy="543" r="3" fill="none" stroke="#1f5e91" stroke-width="1.2"/>
<path d="M 1347 553 q 5 -7 10 0" fill="none" stroke="#1f5e91" stroke-width="1.2"/>
<text x="1371" y="551" font-size="10" fill="#17202c">Utilisateur / consommateur</text>
<rect x="1539" y="540" width="26" height="14" rx="3" fill="#f4eff8" stroke="#8659a6" stroke-dasharray="5 3"/>
<text x="1571" y="551" font-size="10" fill="#17202c">Système externe</text>
<line x1="150" y1="592" x2="176" y2="592" stroke="#5a6675" stroke-width="1.3" marker-end="url(#arr)"/>
<text x="182" y="596" font-size="10" fill="#17202c">Flux technique (protocole, port)</text>
<text x="150" y="620" font-size="10" fill="#17202c" font-style="italic">Flux inter-zones filtrés par pare-feu (matrice des flux jointe au dossier d'architecture)</text>
</svg>
