<svg xmlns="http://www.w3.org/2000/svg" viewBox="0 0 1834 492" font-family="Helvetica,Arial,sans-serif">
<defs><marker id="arr" viewBox="0 0 10 10" refX="9" refY="5" markerWidth="7" markerHeight="7" orient="auto-start-reverse">
<path d="M0,0 L10,5 L0,10 z" fill="#444444"/></marker></defs>
<rect width="1834" height="492" fill="white"/>
<rect x="293" y="30" width="1225" height="348" rx="6" fill="#f5f5f4" stroke="#8a8a85" stroke-width="1.4"/>
<text x="303" y="48" font-size="12" font-weight="bold" fill="#333">Centre de données principal</text>
<rect x="330" y="144.33333333333334" width="198" height="214" rx="6" fill="#ecf3ec" stroke="#6d9a6d" stroke-width="1.2" stroke-dasharray="5 3"/>
<text x="340" y="162.33333333333334" font-size="12" font-weight="bold" fill="#333">DMZ</text>
<rect x="347" y="245.33333333333334" width="164" height="101" rx="6" fill="#ffffff" stroke="#55606b" stroke-width="1.5"/>
<text x="357" y="263.33333333333337" font-size="12" font-weight="bold" fill="#333">Reverse proxy</text>
<text x="357" y="276.33333333333337" font-size="12" font-weight="bold" fill="#333">(paire HA)</text>
<rect x="690" y="128" width="198" height="238" rx="6" fill="#ecf3ec" stroke="#6d9a6d" stroke-width="1.2" stroke-dasharray="5 3"/>
<text x="700" y="146" font-size="12" font-weight="bold" fill="#333">Zone applicative</text>
<rect x="707" y="158" width="164" height="88" rx="6" fill="#ffffff" stroke="#55606b" stroke-width="1.5"/>
<text x="717" y="176" font-size="12" font-weight="bold" fill="#333">VM Facturation</text>
<rect x="707" y="266" width="164" height="88" rx="6" fill="#ffffff" stroke="#55606b" stroke-width="1.5"/>
<text x="717" y="284" font-size="12" font-weight="bold" fill="#333">VM CRM</text>
<rect x="1056" y="215.33333333333334" width="450" height="143" rx="6" fill="#ecf3ec" stroke="#6d9a6d" stroke-width="1.2" stroke-dasharray="5 3"/>
<text x="1066" y="233.33333333333334" font-size="12" font-weight="bold" fill="#333">Zone de données</text>
<rect x="1073" y="245.33333333333334" width="164" height="101" rx="6" fill="#ffffff" stroke="#55606b" stroke-width="1.5"/>
<text x="1083" y="263.33333333333337" font-size="12" font-weight="bold" fill="#333">Serveur de</text>
<text x="1083" y="276.33333333333337" font-size="12" font-weight="bold" fill="#333">base de données</text>
<rect x="359" y="288.33333333333337" width="140" height="46" rx="4" fill="#fff7e6" stroke="#b08d2a" stroke-width="1.2"/>
<text x="429" y="315.33333333333337" font-size="11.5" text-anchor="middle" fill="#222233">WAF</text>
<rect x="359" y="174.33333333333334" width="140" height="51" rx="4" fill="#ffffff" stroke="#55606b" stroke-width="1.5"/>
<text x="429" y="197.08333333333334" font-size="11.5" text-anchor="middle" fill="#222233">Passerelle</text>
<text x="429" y="210.58333333333334" font-size="11.5" text-anchor="middle" fill="#222233">de transfert</text>
<rect x="719" y="188" width="140" height="46" rx="4" fill="#fff7e6" stroke="#b08d2a" stroke-width="1.2"/>
<text x="789" y="215" font-size="11.5" text-anchor="middle" fill="#222233">Facturation</text>
<rect x="719" y="296" width="140" height="46" rx="4" fill="#fff7e6" stroke="#b08d2a" stroke-width="1.2"/>
<text x="789" y="323" font-size="11.5" text-anchor="middle" fill="#222233">CRM</text>
<rect x="1085" y="288.33333333333337" width="140" height="46" rx="4" fill="#fff7e6" stroke="#b08d2a" stroke-width="1.2"/>
<text x="1155" y="315.33333333333337" font-size="11.5" text-anchor="middle" fill="#222233">PostgreSQL</text>
<rect x="1354" y="262.83333333333337" width="140" height="51" rx="4" fill="#ffffff" stroke="#55606b" stroke-width="1.5"/>
<text x="1424" y="285.58333333333337" font-size="11.5" text-anchor="middle" fill="#222233">Serveur de</text>
<text x="1424" y="299.08333333333337" font-size="11.5" text-anchor="middle" fill="#222233">sauvegarde</text>
<circle cx="53" cy="287" r="7" fill="none" stroke="#445566" stroke-width="1.5"/>
<path d="M 42 309 q 11 -19 22 0" fill="none" stroke="#445566" stroke-width="1.5"/>
<text x="53" y="321" font-size="10" text-anchor="middle" fill="#223344">Postes</text>
<text x="53" y="332" font-size="10" text-anchor="middle" fill="#223344">utilisateurs</text>
<rect x="1682" y="91" width="140" height="51" rx="4" fill="#f0eef5" stroke="#9187b3" stroke-width="1.2" stroke-dasharray="5 3"/>
<text x="1752" y="113.75" font-size="11.5" text-anchor="middle" fill="#222233">Plateforme EDI</text>
<text x="1752" y="127.25" font-size="11.5" text-anchor="middle" fill="#222233">partenaire</text>
<path d="M 94 311 L 288 311.33333333333337 L 359 311.33333333333337" fill="none" stroke="#444444" stroke-width="1.3" marker-end="url(#arr)"/>
<text x="191" y="326.5" font-size="10.5" text-anchor="middle" fill="#333" font-style="italic" stroke="white" stroke-width="2.5" paint-order="stroke" stroke-linejoin="round">Accès application</text>
<text x="191" y="340" font-size="10.5" text-anchor="middle" fill="#333" font-style="italic" stroke="white" stroke-width="2.5" paint-order="stroke" stroke-linejoin="round">web</text>
<text x="191" y="353.5" font-size="9" text-anchor="middle" fill="#777" stroke="white" stroke-width="2.5" paint-order="stroke" stroke-linejoin="round">(HTTPS/443)</text>
<path d="M 499 303.6666666666667 L 675 303.6666666666667 L 675 211.00000000000003 L 719 211.00000000000003" fill="none" stroke="#444444" stroke-width="1.3" marker-end="url(#arr)"/>
<text x="609" y="269.1666666666667" font-size="10.5" text-anchor="middle" fill="#333" font-style="italic" stroke="white" stroke-width="2.5" paint-order="stroke" stroke-linejoin="round">Trafic facturation</text>
<text x="609" y="282.6666666666667" font-size="10.5" text-anchor="middle" fill="#333" font-style="italic" stroke="white" stroke-width="2.5" paint-order="stroke" stroke-linejoin="round">filtré</text>
<text x="609" y="296.1666666666667" font-size="9" text-anchor="middle" fill="#777" stroke="white" stroke-width="2.5" paint-order="stroke" stroke-linejoin="round">(HTTPS/8443)</text>
<path d="M 499 319.00000000000006 L 719 319" fill="none" stroke="#444444" stroke-width="1.3" marker-end="url(#arr)"/>
<text x="609" y="333.5" font-size="10.5" text-anchor="middle" fill="#333" font-style="italic" stroke="white" stroke-width="2.5" paint-order="stroke" stroke-linejoin="round">Trafic CRM</text>
<text x="609" y="347" font-size="10.5" text-anchor="middle" fill="#333" font-style="italic" stroke="white" stroke-width="2.5" paint-order="stroke" stroke-linejoin="round">filtré</text>
<text x="609" y="360.5" font-size="9" text-anchor="middle" fill="#777" stroke="white" stroke-width="2.5" paint-order="stroke" stroke-linejoin="round">(HTTPS/8444)</text>
<path d="M 859 218.66666666666666 L 1041 218.66666666666666 L 1041 303.6666666666667 L 1085 303.6666666666667" fill="none" stroke="#444444" stroke-width="1.3" marker-end="url(#arr)"/>
<text x="972" y="184.16666666666666" font-size="10.5" text-anchor="middle" fill="#333" font-style="italic" stroke="white" stroke-width="2.5" paint-order="stroke" stroke-linejoin="round">Lecture/écriture</text>
<text x="972" y="197.66666666666666" font-size="10.5" text-anchor="middle" fill="#333" font-style="italic" stroke="white" stroke-width="2.5" paint-order="stroke" stroke-linejoin="round">données facturation</text>
<text x="972" y="211.16666666666666" font-size="9" text-anchor="middle" fill="#777" stroke="white" stroke-width="2.5" paint-order="stroke" stroke-linejoin="round">(TCP/5432)</text>
<path d="M 859 319 L 1085 319.00000000000006" fill="none" stroke="#444444" stroke-width="1.3" marker-end="url(#arr)"/>
<text x="972" y="333.5" font-size="10.5" text-anchor="middle" fill="#333" font-style="italic" stroke="white" stroke-width="2.5" paint-order="stroke" stroke-linejoin="round">Lecture/écriture</text>
<text x="972" y="347" font-size="10.5" text-anchor="middle" fill="#333" font-style="italic" stroke="white" stroke-width="2.5" paint-order="stroke" stroke-linejoin="round">données clients</text>
<text x="972" y="360.5" font-size="9" text-anchor="middle" fill="#777" stroke="white" stroke-width="2.5" paint-order="stroke" stroke-linejoin="round">(TCP/5432)</text>
<path d="M 859 203.33333333333334 L 903 203.33333333333331 L 903 60 L 315 60 L 315 199.83333333333334 L 359 199.83333333333334" fill="none" stroke="#444444" stroke-width="1.3" marker-end="url(#arr)"/>
<text x="609" y="74.5" font-size="10.5" text-anchor="middle" fill="#333" font-style="italic" stroke="white" stroke-width="2.5" paint-order="stroke" stroke-linejoin="round">Dépôt des factures</text>
<text x="609" y="88" font-size="10.5" text-anchor="middle" fill="#333" font-style="italic" stroke="white" stroke-width="2.5" paint-order="stroke" stroke-linejoin="round">à transmettre</text>
<text x="609" y="101.5" font-size="9" text-anchor="middle" fill="#777" stroke="white" stroke-width="2.5" paint-order="stroke" stroke-linejoin="round">(SFTP/22)</text>
<path d="M 499 199.83333333333334 L 543 199.83333333333334 L 543 117 L 898 117 A 5 5 0 0 1 908 117 L 1682 117" fill="none" stroke="#444444" stroke-width="1.3" marker-end="url(#arr)"/>
<text x="1602.5" y="132.5" font-size="10.5" text-anchor="middle" fill="#333" font-style="italic" stroke="white" stroke-width="2.5" paint-order="stroke" stroke-linejoin="round">Transferts</text>
<text x="1602.5" y="146" font-size="10.5" text-anchor="middle" fill="#333" font-style="italic" stroke="white" stroke-width="2.5" paint-order="stroke" stroke-linejoin="round">partenaires</text>
<text x="1602.5" y="159.5" font-size="9" text-anchor="middle" fill="#777" stroke="white" stroke-width="2.5" paint-order="stroke" stroke-linejoin="round">(AS4/443)</text>
<path d="M 1237 288.33333333333337 L 1354 288.33333333333337" fill="none" stroke="#444444" stroke-width="1.3" marker-end="url(#arr)"/>
<text x="1295.5" y="302.83333333333337" font-size="10.5" text-anchor="middle" fill="#333" font-style="italic" stroke="white" stroke-width="2.5" paint-order="stroke" stroke-linejoin="round">Sauvegardes</text>
<text x="1295.5" y="316.33333333333337" font-size="10.5" text-anchor="middle" fill="#333" font-style="italic" stroke="white" stroke-width="2.5" paint-order="stroke" stroke-linejoin="round">quotidiennes</text>
<text x="1295.5" y="329.83333333333337" font-size="9" text-anchor="middle" fill="#777" stroke="white" stroke-width="2.5" paint-order="stroke" stroke-linejoin="round">(TCP/9092)</text>
<line x1="20" y1="400" x2="1814" y2="400" stroke="#ddd" stroke-width="1"/>
<text x="20" y="422" font-size="11" font-weight="bold" fill="#555">LÉGENDE</text>
<rect x="150" y="412" width="26" height="14" rx="3" fill="#f5f5f4" stroke="#8a8a85"/>
<text x="182" y="423" font-size="10" fill="#444">Site / centre de données</text>
<rect x="339" y="412" width="26" height="14" rx="3" fill="#ecf3ec" stroke="#6d9a6d" stroke-dasharray="5 3"/>
<text x="371" y="423" font-size="10" fill="#444">Zone réseau</text>
<rect x="461" y="412" width="26" height="14" rx="3" fill="#ffffff" stroke="#55606b"/>
<text x="493" y="423" font-size="10" fill="#444">Serveur / VM</text>
<rect x="588" y="412" width="26" height="14" rx="3" fill="#fff7e6" stroke="#b08d2a"/>
<text x="620" y="423" font-size="10" fill="#444">Application déployée</text>
<circle cx="769" cy="415" r="3" fill="none" stroke="#445566" stroke-width="1.2"/>
<path d="M 764 425 q 5 -7 10 0" fill="none" stroke="#445566" stroke-width="1.2"/>
<text x="788" y="423" font-size="10" fill="#444">Utilisateur / consommateur</text>
<rect x="956" y="412" width="26" height="14" rx="3" fill="#f0eef5" stroke="#9187b3" stroke-dasharray="5 3"/>
<text x="988" y="423" font-size="10" fill="#444">Système externe</text>
<line x1="150" y1="442" x2="176" y2="442" stroke="#444444" stroke-width="1.3" marker-end="url(#arr)"/>
<text x="182" y="446" font-size="10" fill="#444">Flux technique (protocole, port)</text>
<text x="150" y="470" font-size="10" fill="#444" font-style="italic">Flux inter-zones filtrés par pare-feu (matrice des flux jointe au dossier d'architecture)</text>
</svg>
