<svg xmlns="http://www.w3.org/2000/svg" viewBox="0 0 1462 456" font-family="Helvetica,Arial,sans-serif">
<defs><marker id="arr" viewBox="0 0 10 10" refX="9" refY="5" markerWidth="7" markerHeight="7" orient="auto-start-reverse">
<path d="M0,0 L10,5 L0,10 z" fill="#444444"/></marker></defs>
<rect width="1462" height="456" fill="white"/>
<rect x="238" y="22" width="1005" height="322" rx="6" fill="#f5f5f4" stroke="#8a8a85" stroke-width="1.4"/>
<text x="248" y="40" font-size="13" font-weight="bold" fill="#333">Main data center</text>
<rect x="272" y="125.66666666666669" width="154" height="191" rx="6" fill="#ecf3ec" stroke="#6d9a6d" stroke-width="1.2" stroke-dasharray="5 3"/>
<text x="282" y="143.66666666666669" font-size="13" font-weight="bold" fill="#333">DMZ</text>
<rect x="286" y="219.66666666666669" width="126" height="88" rx="6" fill="#ffffff" stroke="#55606b" stroke-width="1.5"/>
<text x="296" y="237.66666666666669" font-size="13" font-weight="bold" fill="#333">Reverse proxy</text>
<text x="296" y="251.66666666666669" font-size="13" font-weight="bold" fill="#333">(HA pair)</text>
<rect x="586" y="119" width="154" height="204" rx="6" fill="#ecf3ec" stroke="#6d9a6d" stroke-width="1.2" stroke-dasharray="5 3"/>
<text x="596" y="137" font-size="13" font-weight="bold" fill="#333">Application zone</text>
<rect x="600" y="146" width="126" height="74" rx="6" fill="#ffffff" stroke="#55606b" stroke-width="1.5"/>
<text x="610" y="164" font-size="13" font-weight="bold" fill="#333">Billing VM</text>
<rect x="600" y="240" width="126" height="74" rx="6" fill="#ffffff" stroke="#55606b" stroke-width="1.5"/>
<text x="610" y="258" font-size="13" font-weight="bold" fill="#333">CRM VM</text>
<rect x="880" y="192.66666666666669" width="354" height="126" rx="6" fill="#ecf3ec" stroke="#6d9a6d" stroke-width="1.2" stroke-dasharray="5 3"/>
<text x="890" y="210.66666666666669" font-size="13" font-weight="bold" fill="#333">Data zone</text>
<rect x="894" y="219.66666666666669" width="126" height="88" rx="6" fill="#ffffff" stroke="#55606b" stroke-width="1.5"/>
<text x="904" y="237.66666666666669" font-size="13" font-weight="bold" fill="#333">Database</text>
<text x="904" y="251.66666666666669" font-size="13" font-weight="bold" fill="#333">server</text>
<rect x="295" y="260.6666666666667" width="108" height="38" rx="4" fill="#fff7e6" stroke="#b08d2a" stroke-width="1.2"/>
<text x="349" y="283.6666666666667" font-size="12.5" text-anchor="middle" fill="#222233">WAF</text>
<rect x="295" y="152.66666666666669" width="108" height="47" rx="4" fill="#ffffff" stroke="#55606b" stroke-width="1.5"/>
<text x="349" y="172.91666666666669" font-size="12.5" text-anchor="middle" fill="#222233">Transfer</text>
<text x="349" y="187.41666666666669" font-size="12.5" text-anchor="middle" fill="#222233">gateway</text>
<rect x="609" y="173" width="108" height="38" rx="4" fill="#fff7e6" stroke="#b08d2a" stroke-width="1.2"/>
<text x="663" y="196" font-size="12.5" text-anchor="middle" fill="#222233">Billing</text>
<rect x="609" y="267" width="108" height="38" rx="4" fill="#fff7e6" stroke="#b08d2a" stroke-width="1.2"/>
<text x="663" y="290" font-size="12.5" text-anchor="middle" fill="#222233">CRM</text>
<rect x="903" y="260.6666666666667" width="108" height="38" rx="4" fill="#fff7e6" stroke="#b08d2a" stroke-width="1.2"/>
<text x="957" y="283.6666666666667" font-size="12.5" text-anchor="middle" fill="#222233">PostgreSQL</text>
<rect x="1117" y="237.16666666666669" width="108" height="47" rx="4" fill="#ffffff" stroke="#55606b" stroke-width="1.5"/>
<text x="1171" y="257.4166666666667" font-size="12.5" text-anchor="middle" fill="#222233">Backup</text>
<text x="1171" y="271.9166666666667" font-size="12.5" text-anchor="middle" fill="#222233">server</text>
<circle cx="54" cy="257" r="7" fill="none" stroke="#445566" stroke-width="1.5"/>
<path d="M 43 279 q 11 -19 22 0" fill="none" stroke="#445566" stroke-width="1.5"/>
<text x="54" y="291" font-size="11" text-anchor="middle" fill="#223344">User</text>
<text x="54" y="302" font-size="11" text-anchor="middle" fill="#223344">workstations</text>
<rect x="1344" y="84" width="108" height="47" rx="4" fill="#f0eef5" stroke="#9187b3" stroke-width="1.2" stroke-dasharray="5 3"/>
<text x="1398" y="104.25" font-size="12.5" text-anchor="middle" fill="#222233">Partner EDI</text>
<text x="1398" y="118.75" font-size="12.5" text-anchor="middle" fill="#222233">platform</text>
<path d="M 98 280 L 233 279.6666666666667 L 295 279.6666666666667" fill="none" stroke="#444444" stroke-width="1.3" marker-end="url(#arr)"/>
<text x="165.5" y="295.5" font-size="11.5" text-anchor="middle" fill="#333" font-style="italic" stroke="white" stroke-width="2.5" paint-order="stroke" stroke-linejoin="round">Web application</text>
<text x="165.5" y="310" font-size="11.5" text-anchor="middle" fill="#333" font-style="italic" stroke="white" stroke-width="2.5" paint-order="stroke" stroke-linejoin="round">access</text>
<text x="165.5" y="324.5" font-size="9" text-anchor="middle" fill="#777" stroke="white" stroke-width="2.5" paint-order="stroke" stroke-linejoin="round">(HTTPS/443)</text>
<path d="M 403 273.33333333333337 L 571 273.33333333333337 L 571 192 L 609 192" fill="none" stroke="#444444" stroke-width="1.3" marker-end="url(#arr)"/>
<text x="506" y="237.83333333333334" font-size="11.5" text-anchor="middle" fill="#333" font-style="italic" stroke="white" stroke-width="2.5" paint-order="stroke" stroke-linejoin="round">Filtered billing</text>
<text x="506" y="252.33333333333334" font-size="11.5" text-anchor="middle" fill="#333" font-style="italic" stroke="white" stroke-width="2.5" paint-order="stroke" stroke-linejoin="round">traffic</text>
<text x="506" y="266.83333333333337" font-size="9" text-anchor="middle" fill="#777" stroke="white" stroke-width="2.5" paint-order="stroke" stroke-linejoin="round">(HTTPS/8443)</text>
<path d="M 403 286 L 609 286" fill="none" stroke="#444444" stroke-width="1.3" marker-end="url(#arr)"/>
<text x="506" y="301.5" font-size="11.5" text-anchor="middle" fill="#333" font-style="italic" stroke="white" stroke-width="2.5" paint-order="stroke" stroke-linejoin="round">Filtered CRM</text>
<text x="506" y="316" font-size="11.5" text-anchor="middle" fill="#333" font-style="italic" stroke="white" stroke-width="2.5" paint-order="stroke" stroke-linejoin="round">traffic</text>
<text x="506" y="330.5" font-size="9" text-anchor="middle" fill="#777" stroke="white" stroke-width="2.5" paint-order="stroke" stroke-linejoin="round">(HTTPS/8444)</text>
<path d="M 717 198.33333333333334 L 865 198.33333333333331 L 865 273.3333333333333 L 903 273.33333333333337" fill="none" stroke="#444444" stroke-width="1.3" marker-end="url(#arr)"/>
<text x="810" y="162.83333333333331" font-size="11.5" text-anchor="middle" fill="#333" font-style="italic" stroke="white" stroke-width="2.5" paint-order="stroke" stroke-linejoin="round">Read/write</text>
<text x="810" y="177.33333333333331" font-size="11.5" text-anchor="middle" fill="#333" font-style="italic" stroke="white" stroke-width="2.5" paint-order="stroke" stroke-linejoin="round">billing data</text>
<text x="810" y="191.83333333333331" font-size="9" text-anchor="middle" fill="#777" stroke="white" stroke-width="2.5" paint-order="stroke" stroke-linejoin="round">(TCP/5432)</text>
<path d="M 717 286 L 903 286" fill="none" stroke="#444444" stroke-width="1.3" marker-end="url(#arr)"/>
<text x="810" y="301.5" font-size="11.5" text-anchor="middle" fill="#333" font-style="italic" stroke="white" stroke-width="2.5" paint-order="stroke" stroke-linejoin="round">Read/write</text>
<text x="810" y="316" font-size="11.5" text-anchor="middle" fill="#333" font-style="italic" stroke="white" stroke-width="2.5" paint-order="stroke" stroke-linejoin="round">customer data</text>
<text x="810" y="330.5" font-size="9" text-anchor="middle" fill="#777" stroke="white" stroke-width="2.5" paint-order="stroke" stroke-linejoin="round">(TCP/5432)</text>
<path d="M 717 185.66666666666666 L 755 185.66666666666666 L 755 49 L 257 49 L 257 176.16666666666669 L 295 176.16666666666669" fill="none" stroke="#444444" stroke-width="1.3" marker-end="url(#arr)"/>
<text x="506" y="64.5" font-size="11.5" text-anchor="middle" fill="#333" font-style="italic" stroke="white" stroke-width="2.5" paint-order="stroke" stroke-linejoin="round">Drop invoices</text>
<text x="506" y="79" font-size="11.5" text-anchor="middle" fill="#333" font-style="italic" stroke="white" stroke-width="2.5" paint-order="stroke" stroke-linejoin="round">to transmit</text>
<text x="506" y="93.5" font-size="9" text-anchor="middle" fill="#777" stroke="white" stroke-width="2.5" paint-order="stroke" stroke-linejoin="round">(SFTP/22)</text>
<path d="M 403 176.16666666666669 L 441 176.16666666666669 L 441 108 L 750 108 A 5 5 0 0 1 760 108 L 1344 108" fill="none" stroke="#444444" stroke-width="1.3" marker-end="url(#arr)"/>
<text x="1296" y="123.5" font-size="11.5" text-anchor="middle" fill="#333" font-style="italic" stroke="white" stroke-width="2.5" paint-order="stroke" stroke-linejoin="round">Partner</text>
<text x="1296" y="138" font-size="11.5" text-anchor="middle" fill="#333" font-style="italic" stroke="white" stroke-width="2.5" paint-order="stroke" stroke-linejoin="round">transfers</text>
<text x="1296" y="152.5" font-size="9" text-anchor="middle" fill="#777" stroke="white" stroke-width="2.5" paint-order="stroke" stroke-linejoin="round">(AS4/443)</text>
<path d="M 1020 260.6666666666667 L 1117 260.6666666666667" fill="none" stroke="#444444" stroke-width="1.3" marker-end="url(#arr)"/>
<text x="1068.5" y="276.1666666666667" font-size="11.5" text-anchor="middle" fill="#333" font-style="italic" stroke="white" stroke-width="2.5" paint-order="stroke" stroke-linejoin="round">Daily</text>
<text x="1068.5" y="290.6666666666667" font-size="11.5" text-anchor="middle" fill="#333" font-style="italic" stroke="white" stroke-width="2.5" paint-order="stroke" stroke-linejoin="round">backups</text>
<text x="1068.5" y="305.1666666666667" font-size="9" text-anchor="middle" fill="#777" stroke="white" stroke-width="2.5" paint-order="stroke" stroke-linejoin="round">(TCP/9092)</text>
<line x1="20" y1="364" x2="1442" y2="364" stroke="#ddd" stroke-width="1"/>
<text x="20" y="386" font-size="11" font-weight="bold" fill="#555">LEGEND</text>
<rect x="150" y="376" width="26" height="14" rx="3" fill="#f5f5f4" stroke="#8a8a85"/>
<text x="182" y="387" font-size="10" fill="#444">Site / data center</text>
<rect x="308" y="376" width="26" height="14" rx="3" fill="#ecf3ec" stroke="#6d9a6d" stroke-dasharray="5 3"/>
<text x="340" y="387" font-size="10" fill="#444">Network zone</text>
<rect x="435" y="376" width="26" height="14" rx="3" fill="#ffffff" stroke="#55606b"/>
<text x="467" y="387" font-size="10" fill="#444">Server / VM</text>
<rect x="557" y="376" width="26" height="14" rx="3" fill="#fff7e6" stroke="#b08d2a"/>
<text x="589" y="387" font-size="10" fill="#444">Deployed application</text>
<circle cx="738" cy="379" r="3" fill="none" stroke="#445566" stroke-width="1.2"/>
<path d="M 733 389 q 5 -7 10 0" fill="none" stroke="#445566" stroke-width="1.2"/>
<text x="757" y="387" font-size="10" fill="#444">User / consumer</text>
<rect x="867" y="376" width="26" height="14" rx="3" fill="#f0eef5" stroke="#9187b3" stroke-dasharray="5 3"/>
<text x="899" y="387" font-size="10" fill="#444">External system</text>
<line x1="150" y1="406" x2="176" y2="406" stroke="#444444" stroke-width="1.3" marker-end="url(#arr)"/>
<text x="182" y="410" font-size="10" fill="#444">Technical flow (protocol, port)</text>
<text x="150" y="434" font-size="10" fill="#444" font-style="italic">Inter-zone flows filtered by firewall (flow matrix attached to the architecture dossier)</text>
</svg>
