<svg xmlns="http://www.w3.org/2000/svg" viewBox="0 0 865 320" font-family="Helvetica,Arial,sans-serif">
<defs><marker id="arr" viewBox="0 0 10 10" refX="9" refY="5" markerWidth="7" markerHeight="7" orient="auto-start-reverse">
<path d="M0,0 L10,5 L0,10 z" fill="#444444"/></marker></defs>
<rect width="865" height="320" fill="white"/>
<rect x="182" y="22" width="673" height="184" rx="6" fill="#f5f5f4" stroke="#8a8a85" stroke-width="1.4"/>
<text x="192" y="40" font-size="12" font-weight="bold" fill="#333">Cloud host</text>
<rect x="197" y="87" width="132" height="86" rx="6" fill="#ecf3ec" stroke="#6d9a6d" stroke-width="1.2" stroke-dasharray="5 3"/>
<text x="207" y="105" font-size="12" font-weight="bold" fill="#333">Public zone</text>
<rect x="441" y="50" width="404" height="146" rx="6" fill="#ecf3ec" stroke="#6d9a6d" stroke-width="1.2" stroke-dasharray="5 3"/>
<text x="451" y="68" font-size="12" font-weight="bold" fill="#333">Private zone</text>
<rect x="456" y="91" width="132" height="78" rx="6" fill="#ffffff" stroke="#55606b" stroke-width="1.5"/>
<text x="466" y="109" font-size="12" font-weight="bold" fill="#333">Web VM</text>
<rect x="703" y="78" width="132" height="91" rx="6" fill="#ffffff" stroke="#55606b" stroke-width="1.5"/>
<text x="713" y="96" font-size="12" font-weight="bold" fill="#333">Database</text>
<text x="713" y="109" font-size="12" font-weight="bold" fill="#333">VM</text>
<rect x="207" y="115" width="112" height="48" rx="4" fill="#ffffff" stroke="#55606b" stroke-width="1.5"/>
<text x="263" y="136.25" font-size="11.5" text-anchor="middle" fill="#222233">Load</text>
<text x="263" y="149.75" font-size="11.5" text-anchor="middle" fill="#222233">balancer</text>
<rect x="466" y="119" width="112" height="40" rx="4" fill="#fff7e6" stroke="#b08d2a" stroke-width="1.2"/>
<text x="522" y="143" font-size="11.5" text-anchor="middle" fill="#222233">CMS</text>
<rect x="713" y="119" width="112" height="40" rx="4" fill="#fff7e6" stroke="#b08d2a" stroke-width="1.2"/>
<text x="769" y="143" font-size="11.5" text-anchor="middle" fill="#222233">MySQL</text>
<circle cx="42" cy="115" r="7" fill="none" stroke="#445566" stroke-width="1.5"/>
<path d="M 31 137 q 11 -19 22 0" fill="none" stroke="#445566" stroke-width="1.5"/>
<text x="42" y="149" font-size="10" text-anchor="middle" fill="#223344">Internet</text>
<text x="42" y="160" font-size="10" text-anchor="middle" fill="#223344">visitors</text>
<path d="M 74 139 L 207 139" fill="none" stroke="#444444" stroke-width="1.3" marker-end="url(#arr)"/>
<text x="125.5" y="153.5" font-size="10.5" text-anchor="middle" fill="#333" font-style="italic" stroke="white" stroke-width="2.5" paint-order="stroke" stroke-linejoin="round">Site access</text>
<text x="125.5" y="167" font-size="9" text-anchor="middle" fill="#777" stroke="white" stroke-width="2.5" paint-order="stroke" stroke-linejoin="round">(HTTPS/443)</text>
<path d="M 319 139 L 466 139" fill="none" stroke="#444444" stroke-width="1.3" marker-end="url(#arr)"/>
<text x="385" y="153.5" font-size="10.5" text-anchor="middle" fill="#333" font-style="italic" stroke="white" stroke-width="2.5" paint-order="stroke" stroke-linejoin="round">Balanced</text>
<text x="385" y="167" font-size="10.5" text-anchor="middle" fill="#333" font-style="italic" stroke="white" stroke-width="2.5" paint-order="stroke" stroke-linejoin="round">traffic</text>
<text x="385" y="180.5" font-size="9" text-anchor="middle" fill="#777" stroke="white" stroke-width="2.5" paint-order="stroke" stroke-linejoin="round">(HTTP/8080)</text>
<path d="M 578 139 L 713 139" fill="none" stroke="#444444" stroke-width="1.3" marker-end="url(#arr)"/>
<text x="645.5" y="153.5" font-size="10.5" text-anchor="middle" fill="#333" font-style="italic" stroke="white" stroke-width="2.5" paint-order="stroke" stroke-linejoin="round">Read/write</text>
<text x="645.5" y="167" font-size="10.5" text-anchor="middle" fill="#333" font-style="italic" stroke="white" stroke-width="2.5" paint-order="stroke" stroke-linejoin="round">content</text>
<text x="645.5" y="180.5" font-size="9" text-anchor="middle" fill="#777" stroke="white" stroke-width="2.5" paint-order="stroke" stroke-linejoin="round">(TCP/3306)</text>
<line x1="20" y1="226" x2="845" y2="226" stroke="#ddd" stroke-width="1"/>
<text x="20" y="248" font-size="11" font-weight="bold" fill="#555">LEGEND</text>
<rect x="150" y="238" width="26" height="14" rx="3" fill="#f5f5f4" stroke="#8a8a85"/>
<text x="182" y="249" font-size="10" fill="#444">Site / data center</text>
<rect x="308" y="238" width="26" height="14" rx="3" fill="#ecf3ec" stroke="#6d9a6d" stroke-dasharray="5 3"/>
<text x="340" y="249" font-size="10" fill="#444">Network zone</text>
<rect x="435" y="238" width="26" height="14" rx="3" fill="#ffffff" stroke="#55606b"/>
<text x="467" y="249" font-size="10" fill="#444">Server / VM</text>
<rect x="557" y="238" width="26" height="14" rx="3" fill="#fff7e6" stroke="#b08d2a"/>
<text x="589" y="249" font-size="10" fill="#444">Deployed application</text>
<circle cx="163" cy="263" r="3" fill="none" stroke="#445566" stroke-width="1.2"/>
<path d="M 158 273 q 5 -7 10 0" fill="none" stroke="#445566" stroke-width="1.2"/>
<text x="182" y="271" font-size="10" fill="#444">User / consumer</text>
<line x1="150" y1="290" x2="176" y2="290" stroke="#444444" stroke-width="1.3" marker-end="url(#arr)"/>
<text x="182" y="294" font-size="10" fill="#444">Technical flow (protocol, port)</text>
</svg>
