<svg xmlns="http://www.w3.org/2000/svg" viewBox="0 0 1575 456" font-family="Helvetica,Arial,sans-serif">
<defs><marker id="arr" viewBox="0 0 10 10" refX="9" refY="5" markerWidth="7" markerHeight="7" orient="auto-start-reverse">
<path d="M0,0 L10,5 L0,10 z" fill="#444444"/></marker></defs>
<rect width="1575" height="456" fill="white"/>
<rect x="251" y="22" width="1083" height="322" rx="6" fill="#f5f5f4" stroke="#8a8a85" stroke-width="1.4"/>
<text x="261" y="40" font-size="13" font-weight="bold" fill="#333">Centre de données principal</text>
<rect x="285" y="125.66666666666669" width="154" height="191" rx="6" fill="#ecf3ec" stroke="#6d9a6d" stroke-width="1.2" stroke-dasharray="5 3"/>
<text x="295" y="143.66666666666669" font-size="13" font-weight="bold" fill="#333">DMZ</text>
<rect x="299" y="219.66666666666669" width="126" height="88" rx="6" fill="#ffffff" stroke="#55606b" stroke-width="1.5"/>
<text x="309" y="237.66666666666669" font-size="13" font-weight="bold" fill="#333">Reverse proxy</text>
<text x="309" y="251.66666666666669" font-size="13" font-weight="bold" fill="#333">(paire HA)</text>
<rect x="611" y="119" width="154" height="204" rx="6" fill="#ecf3ec" stroke="#6d9a6d" stroke-width="1.2" stroke-dasharray="5 3"/>
<text x="621" y="137" font-size="13" font-weight="bold" fill="#333">Zone applicative</text>
<rect x="625" y="146" width="126" height="74" rx="6" fill="#ffffff" stroke="#55606b" stroke-width="1.5"/>
<text x="635" y="164" font-size="13" font-weight="bold" fill="#333">VM Facturation</text>
<rect x="625" y="240" width="126" height="74" rx="6" fill="#ffffff" stroke="#55606b" stroke-width="1.5"/>
<text x="635" y="258" font-size="13" font-weight="bold" fill="#333">VM CRM</text>
<rect x="944" y="192.66666666666669" width="381" height="126" rx="6" fill="#ecf3ec" stroke="#6d9a6d" stroke-width="1.2" stroke-dasharray="5 3"/>
<text x="954" y="210.66666666666669" font-size="13" font-weight="bold" fill="#333">Zone de données</text>
<rect x="958" y="219.66666666666669" width="126" height="88" rx="6" fill="#ffffff" stroke="#55606b" stroke-width="1.5"/>
<text x="968" y="237.66666666666669" font-size="13" font-weight="bold" fill="#333">Serveur de</text>
<text x="968" y="251.66666666666669" font-size="13" font-weight="bold" fill="#333">base de données</text>
<rect x="308" y="260.6666666666667" width="108" height="38" rx="4" fill="#fff7e6" stroke="#b08d2a" stroke-width="1.2"/>
<text x="362" y="283.6666666666667" font-size="12.5" text-anchor="middle" fill="#222233">WAF</text>
<rect x="308" y="152.66666666666669" width="108" height="47" rx="4" fill="#ffffff" stroke="#55606b" stroke-width="1.5"/>
<text x="362" y="172.91666666666669" font-size="12.5" text-anchor="middle" fill="#222233">Passerelle</text>
<text x="362" y="187.41666666666669" font-size="12.5" text-anchor="middle" fill="#222233">de transfert</text>
<rect x="634" y="173" width="108" height="38" rx="4" fill="#fff7e6" stroke="#b08d2a" stroke-width="1.2"/>
<text x="688" y="196" font-size="12.5" text-anchor="middle" fill="#222233">Facturation</text>
<rect x="634" y="267" width="108" height="38" rx="4" fill="#fff7e6" stroke="#b08d2a" stroke-width="1.2"/>
<text x="688" y="290" font-size="12.5" text-anchor="middle" fill="#222233">CRM</text>
<rect x="967" y="260.6666666666667" width="108" height="38" rx="4" fill="#fff7e6" stroke="#b08d2a" stroke-width="1.2"/>
<text x="1021" y="283.6666666666667" font-size="12.5" text-anchor="middle" fill="#222233">PostgreSQL</text>
<rect x="1208" y="237.16666666666669" width="108" height="47" rx="4" fill="#ffffff" stroke="#55606b" stroke-width="1.5"/>
<text x="1262" y="257.4166666666667" font-size="12.5" text-anchor="middle" fill="#222233">Serveur de</text>
<text x="1262" y="271.9166666666667" font-size="12.5" text-anchor="middle" fill="#222233">sauvegarde</text>
<circle cx="54" cy="257" r="7" fill="none" stroke="#445566" stroke-width="1.5"/>
<path d="M 43 279 q 11 -19 22 0" fill="none" stroke="#445566" stroke-width="1.5"/>
<text x="54" y="291" font-size="11" text-anchor="middle" fill="#223344">Postes</text>
<text x="54" y="302" font-size="11" text-anchor="middle" fill="#223344">utilisateurs</text>
<rect x="1448" y="84" width="117" height="47" rx="4" fill="#f0eef5" stroke="#9187b3" stroke-width="1.2" stroke-dasharray="5 3"/>
<text x="1506.5" y="104.25" font-size="12.5" text-anchor="middle" fill="#222233">Plateforme EDI</text>
<text x="1506.5" y="118.75" font-size="12.5" text-anchor="middle" fill="#222233">partenaire</text>
<path d="M 98 280 L 246 279.6666666666667 L 308 279.6666666666667" fill="none" stroke="#444444" stroke-width="1.3" marker-end="url(#arr)"/>
<text x="172" y="295.5" font-size="11.5" text-anchor="middle" fill="#333" font-style="italic" stroke="white" stroke-width="2.5" paint-order="stroke" stroke-linejoin="round">Accès application</text>
<text x="172" y="310" font-size="11.5" text-anchor="middle" fill="#333" font-style="italic" stroke="white" stroke-width="2.5" paint-order="stroke" stroke-linejoin="round">web</text>
<text x="172" y="324.5" font-size="9" text-anchor="middle" fill="#777" stroke="white" stroke-width="2.5" paint-order="stroke" stroke-linejoin="round">(HTTPS/443)</text>
<path d="M 416 273.33333333333337 L 596 273.33333333333337 L 596 192 L 634 192" fill="none" stroke="#444444" stroke-width="1.3" marker-end="url(#arr)"/>
<text x="525" y="237.83333333333334" font-size="11.5" text-anchor="middle" fill="#333" font-style="italic" stroke="white" stroke-width="2.5" paint-order="stroke" stroke-linejoin="round">Trafic facturation</text>
<text x="525" y="252.33333333333334" font-size="11.5" text-anchor="middle" fill="#333" font-style="italic" stroke="white" stroke-width="2.5" paint-order="stroke" stroke-linejoin="round">filtré</text>
<text x="525" y="266.83333333333337" font-size="9" text-anchor="middle" fill="#777" stroke="white" stroke-width="2.5" paint-order="stroke" stroke-linejoin="round">(HTTPS/8443)</text>
<path d="M 416 286 L 634 286" fill="none" stroke="#444444" stroke-width="1.3" marker-end="url(#arr)"/>
<text x="525" y="301.5" font-size="11.5" text-anchor="middle" fill="#333" font-style="italic" stroke="white" stroke-width="2.5" paint-order="stroke" stroke-linejoin="round">Trafic CRM</text>
<text x="525" y="316" font-size="11.5" text-anchor="middle" fill="#333" font-style="italic" stroke="white" stroke-width="2.5" paint-order="stroke" stroke-linejoin="round">filtré</text>
<text x="525" y="330.5" font-size="9" text-anchor="middle" fill="#777" stroke="white" stroke-width="2.5" paint-order="stroke" stroke-linejoin="round">(HTTPS/8444)</text>
<path d="M 742 198.33333333333334 L 929 198.33333333333331 L 929 273.3333333333333 L 967 273.33333333333337" fill="none" stroke="#444444" stroke-width="1.3" marker-end="url(#arr)"/>
<text x="854.5" y="162.83333333333331" font-size="11.5" text-anchor="middle" fill="#333" font-style="italic" stroke="white" stroke-width="2.5" paint-order="stroke" stroke-linejoin="round">Lecture/écriture</text>
<text x="854.5" y="177.33333333333331" font-size="11.5" text-anchor="middle" fill="#333" font-style="italic" stroke="white" stroke-width="2.5" paint-order="stroke" stroke-linejoin="round">données facturation</text>
<text x="854.5" y="191.83333333333331" font-size="9" text-anchor="middle" fill="#777" stroke="white" stroke-width="2.5" paint-order="stroke" stroke-linejoin="round">(TCP/5432)</text>
<path d="M 742 286 L 967 286" fill="none" stroke="#444444" stroke-width="1.3" marker-end="url(#arr)"/>
<text x="854.5" y="301.5" font-size="11.5" text-anchor="middle" fill="#333" font-style="italic" stroke="white" stroke-width="2.5" paint-order="stroke" stroke-linejoin="round">Lecture/écriture</text>
<text x="854.5" y="316" font-size="11.5" text-anchor="middle" fill="#333" font-style="italic" stroke="white" stroke-width="2.5" paint-order="stroke" stroke-linejoin="round">données clients</text>
<text x="854.5" y="330.5" font-size="9" text-anchor="middle" fill="#777" stroke="white" stroke-width="2.5" paint-order="stroke" stroke-linejoin="round">(TCP/5432)</text>
<path d="M 742 185.66666666666666 L 780 185.66666666666666 L 780 49 L 270 49 L 270 176.16666666666669 L 308 176.16666666666669" fill="none" stroke="#444444" stroke-width="1.3" marker-end="url(#arr)"/>
<text x="525" y="64.5" font-size="11.5" text-anchor="middle" fill="#333" font-style="italic" stroke="white" stroke-width="2.5" paint-order="stroke" stroke-linejoin="round">Dépôt des factures</text>
<text x="525" y="79" font-size="11.5" text-anchor="middle" fill="#333" font-style="italic" stroke="white" stroke-width="2.5" paint-order="stroke" stroke-linejoin="round">à transmettre</text>
<text x="525" y="93.5" font-size="9" text-anchor="middle" fill="#777" stroke="white" stroke-width="2.5" paint-order="stroke" stroke-linejoin="round">(SFTP/22)</text>
<path d="M 416 176.16666666666669 L 454 176.16666666666669 L 454 108 L 775 108 A 5 5 0 0 1 785 108 L 1448 108" fill="none" stroke="#444444" stroke-width="1.3" marker-end="url(#arr)"/>
<text x="1393.5" y="123.5" font-size="11.5" text-anchor="middle" fill="#333" font-style="italic" stroke="white" stroke-width="2.5" paint-order="stroke" stroke-linejoin="round">Transferts</text>
<text x="1393.5" y="138" font-size="11.5" text-anchor="middle" fill="#333" font-style="italic" stroke="white" stroke-width="2.5" paint-order="stroke" stroke-linejoin="round">partenaires</text>
<text x="1393.5" y="152.5" font-size="9" text-anchor="middle" fill="#777" stroke="white" stroke-width="2.5" paint-order="stroke" stroke-linejoin="round">(AS4/443)</text>
<path d="M 1084 260.6666666666667 L 1208 260.6666666666667" fill="none" stroke="#444444" stroke-width="1.3" marker-end="url(#arr)"/>
<text x="1146" y="276.1666666666667" font-size="11.5" text-anchor="middle" fill="#333" font-style="italic" stroke="white" stroke-width="2.5" paint-order="stroke" stroke-linejoin="round">Sauvegardes</text>
<text x="1146" y="290.6666666666667" font-size="11.5" text-anchor="middle" fill="#333" font-style="italic" stroke="white" stroke-width="2.5" paint-order="stroke" stroke-linejoin="round">quotidiennes</text>
<text x="1146" y="305.1666666666667" font-size="9" text-anchor="middle" fill="#777" stroke="white" stroke-width="2.5" paint-order="stroke" stroke-linejoin="round">(TCP/9092)</text>
<line x1="20" y1="364" x2="1555" y2="364" stroke="#ddd" stroke-width="1"/>
<text x="20" y="386" font-size="11" font-weight="bold" fill="#555">LÉGENDE</text>
<rect x="150" y="376" width="26" height="14" rx="3" fill="#f5f5f4" stroke="#8a8a85"/>
<text x="182" y="387" font-size="10" fill="#444">Site / centre de données</text>
<rect x="339" y="376" width="26" height="14" rx="3" fill="#ecf3ec" stroke="#6d9a6d" stroke-dasharray="5 3"/>
<text x="371" y="387" font-size="10" fill="#444">Zone réseau</text>
<rect x="461" y="376" width="26" height="14" rx="3" fill="#ffffff" stroke="#55606b"/>
<text x="493" y="387" font-size="10" fill="#444">Serveur / VM</text>
<rect x="588" y="376" width="26" height="14" rx="3" fill="#fff7e6" stroke="#b08d2a"/>
<text x="620" y="387" font-size="10" fill="#444">Application déployée</text>
<circle cx="769" cy="379" r="3" fill="none" stroke="#445566" stroke-width="1.2"/>
<path d="M 764 389 q 5 -7 10 0" fill="none" stroke="#445566" stroke-width="1.2"/>
<text x="788" y="387" font-size="10" fill="#444">Utilisateur / consommateur</text>
<rect x="956" y="376" width="26" height="14" rx="3" fill="#f0eef5" stroke="#9187b3" stroke-dasharray="5 3"/>
<text x="988" y="387" font-size="10" fill="#444">Système externe</text>
<line x1="150" y1="406" x2="176" y2="406" stroke="#444444" stroke-width="1.3" marker-end="url(#arr)"/>
<text x="182" y="410" font-size="10" fill="#444">Flux technique (protocole, port)</text>
<text x="150" y="434" font-size="10" fill="#444" font-style="italic">Flux inter-zones filtrés par pare-feu (matrice des flux jointe au dossier d'architecture)</text>
</svg>
