<svg xmlns="http://www.w3.org/2000/svg" viewBox="0 0 2085 693" font-family="Helvetica,Arial,sans-serif">
<defs><marker id="arr" viewBox="0 0 10 10" refX="9" refY="5" markerWidth="7" markerHeight="7" orient="auto-start-reverse">
<path d="M0,0 L10,5 L0,10 z" fill="#5a6675"/></marker></defs>
<rect width="2085" height="693" fill="#ffffff"/>
<rect x="182" y="22" width="1357" height="519.8333333333334" rx="6" fill="#f3f5f6" stroke="#7c8794" stroke-width="1.4"/>
<text x="192" y="40" font-size="13" font-weight="bold" fill="#17202c">Centre de données principal</text>
<rect x="1118" y="59" width="387" height="186.5" rx="6" fill="#eaf5ef" stroke="#1a8f66" stroke-width="1.2" stroke-dasharray="5 3"/>
<text x="1128" y="77" font-size="13" font-weight="bold" fill="#17202c">DMZ</text>
<rect x="1365" y="86" width="126" height="88" rx="6" fill="#ffffff" stroke="#48546a" stroke-width="1.5"/>
<text x="1375" y="104" font-size="13" font-weight="bold" fill="#17202c">Reverse proxies</text>
<text x="1375" y="118" font-size="13" font-weight="bold" fill="#17202c">(HA)</text>
<rect x="216" y="231.58333333333337" width="732" height="295.5" rx="6" fill="#eaf5ef" stroke="#1a8f66" stroke-width="1.2" stroke-dasharray="5 3"/>
<text x="226" y="249.58333333333337" font-size="13" font-weight="bold" fill="#17202c">Zone applicative</text>
<rect x="481" y="351.08333333333337" width="135" height="146" rx="6" fill="#ffffff" stroke="#48546a" stroke-width="1.5"/>
<text x="491" y="369.08333333333337" font-size="13" font-weight="bold" fill="#17202c">Cluster K8s</text>
<text x="491" y="383.08333333333337" font-size="13" font-weight="bold" fill="#17202c">front</text>
<rect x="788" y="337.58333333333337" width="126" height="164" rx="6" fill="#ffffff" stroke="#48546a" stroke-width="1.5"/>
<text x="798" y="355.58333333333337" font-size="13" font-weight="bold" fill="#17202c">Cluster K8s</text>
<text x="798" y="369.58333333333337" font-size="13" font-weight="bold" fill="#17202c">métier</text>
<rect x="1195.6666666666665" y="265.5" width="154" height="241" rx="6" fill="#eaf5ef" stroke="#1a8f66" stroke-width="1.2" stroke-dasharray="5 3"/>
<text x="1205.6666666666665" y="283.5" font-size="13" font-weight="bold" fill="#17202c">Zone de données</text>
<rect x="1209.6666666666665" y="400.5" width="126" height="97" rx="6" fill="#ffffff" stroke="#48546a" stroke-width="1.5"/>
<text x="1219.6666666666665" y="418.5" font-size="13" font-weight="bold" fill="#17202c">Cluster</text>
<text x="1219.6666666666665" y="432.5" font-size="13" font-weight="bold" fill="#17202c">PostgreSQL</text>
<rect x="1209.6666666666665" y="292.5" width="126" height="88" rx="6" fill="#ffffff" stroke="#48546a" stroke-width="1.5"/>
<text x="1219.6666666666665" y="310.5" font-size="13" font-weight="bold" fill="#17202c">Cluster</text>
<text x="1219.6666666666665" y="324.5" font-size="13" font-weight="bold" fill="#17202c">Kafka</text>
<rect x="1671" y="299" width="404" height="180" rx="6" fill="#f3f5f6" stroke="#7c8794" stroke-width="1.4"/>
<text x="1681" y="317" font-size="13" font-weight="bold" fill="#17202c">Site de secours</text>
<rect x="1685" y="326" width="381" height="144" rx="6" fill="#eaf5ef" stroke="#1a8f66" stroke-width="1.2" stroke-dasharray="5 3"/>
<text x="1695" y="344" font-size="13" font-weight="bold" fill="#17202c">Zone de données PRA</text>
<rect x="1699" y="364" width="126" height="97" rx="6" fill="#ffffff" stroke="#48546a" stroke-width="1.5"/>
<text x="1709" y="382" font-size="13" font-weight="bold" fill="#17202c">PostgreSQL</text>
<text x="1709" y="396" font-size="13" font-weight="bold" fill="#17202c">standby</text>
<rect x="1127" y="122.5" width="131" height="47" rx="4" fill="#ffffff" stroke="#48546a" stroke-width="1.5"/>
<text x="1192.5" y="142.75" font-size="12.5" text-anchor="middle" fill="#17202c">Pare-feu</text>
<text x="1192.5" y="157.25" font-size="12.5" text-anchor="middle" fill="#17202c">applicatif (WAF)</text>
<rect x="1374" y="127" width="108" height="38" rx="4" fill="#fdf4e3" stroke="#c88a2e" stroke-width="1.2"/>
<text x="1428" y="150" font-size="12.5" text-anchor="middle" fill="#17202c">Nginx</text>
<rect x="1138.5" y="189.5" width="108" height="47" rx="4" fill="#ffffff" stroke="#48546a" stroke-width="1.5"/>
<text x="1192.5" y="209.75" font-size="12.5" text-anchor="middle" fill="#17202c">Passerelle</text>
<text x="1192.5" y="224.25" font-size="12.5" text-anchor="middle" fill="#17202c">de transfert</text>
<rect x="225" y="440.58333333333337" width="108" height="38" rx="4" fill="#f5e6dd" stroke="#b85a30" stroke-width="1.3"/>
<path d="M 233 448.6 L 247 448.6 Q 249 453.6 240 460.6 Q 231 453.6 233 448.6" fill="none" stroke="#b85a30" stroke-width="1.3"/>
<text x="289" y="463.58333333333337" font-size="12.5" text-anchor="middle" fill="#17202c">Gateway</text>
<rect x="494.5" y="258.58333333333337" width="108" height="47" rx="4" fill="#fdefe3" stroke="#d1600f" stroke-width="1.3"/>
<rect x="500.5" y="264.58333333333337" width="18" height="14" rx="3" fill="none" stroke="#d1600f" stroke-width="1.3"/>
<path d="M 504.5 267.58333333333337 v -4 a 5 5 0 0 1 10 0 v 4" fill="none" stroke="#d1600f" stroke-width="1.3"/>
<circle cx="509.5" cy="274.58333333333337" r="2.5" fill="#d1600f"/>
<text x="558.5" y="278.83333333333337" font-size="12.5" text-anchor="middle" fill="#17202c">OAuth2</text>
<text x="558.5" y="293.33333333333337" font-size="12.5" text-anchor="middle" fill="#17202c">proxy</text>
<rect x="788" y="263.08333333333337" width="108" height="38" rx="4" fill="#e0f0f0" stroke="#3a8f8f" stroke-width="1.3"/>
<text x="842" y="286.08333333333337" font-size="12.5" text-anchor="middle" fill="#17202c">LDAP / IdP</text>
<rect x="490" y="392.08333333333337" width="117" height="38" rx="4" fill="#fdf4e3" stroke="#c88a2e" stroke-width="1.2"/>
<text x="548.5" y="415.08333333333337" font-size="12.5" text-anchor="middle" fill="#17202c">Front de vente</text>
<rect x="490" y="450.08333333333337" width="117" height="38" rx="4" fill="#fdf4e3" stroke="#c88a2e" stroke-width="1.2"/>
<text x="548.5" y="473.08333333333337" font-size="12.5" text-anchor="middle" fill="#17202c">Tunnel d'achat</text>
<rect x="797" y="378.58333333333337" width="108" height="47" rx="4" fill="#fdf4e3" stroke="#c88a2e" stroke-width="1.2"/>
<text x="851" y="398.83333333333337" font-size="12.5" text-anchor="middle" fill="#17202c">Gestion des</text>
<text x="851" y="413.33333333333337" font-size="12.5" text-anchor="middle" fill="#17202c">commandes</text>
<rect x="797" y="445.58333333333337" width="108" height="47" rx="4" fill="#fdf4e3" stroke="#c88a2e" stroke-width="1.2"/>
<text x="851" y="465.83333333333337" font-size="12.5" text-anchor="middle" fill="#17202c">Hub de</text>
<text x="851" y="480.33333333333337" font-size="12.5" text-anchor="middle" fill="#17202c">paiement</text>
<rect x="1218.6666666666665" y="441.5" width="108" height="47" rx="4" fill="#fdf4e3" stroke="#c88a2e" stroke-width="1.2"/>
<text x="1272.6666666666665" y="461.75" font-size="12.5" text-anchor="middle" fill="#17202c">PostgreSQL</text>
<text x="1272.6666666666665" y="476.25" font-size="12.5" text-anchor="middle" fill="#17202c">primaire</text>
<rect x="1218.6666666666665" y="333.5" width="108" height="38" rx="4" fill="#fdf4e3" stroke="#c88a2e" stroke-width="1.2"/>
<text x="1272.6666666666665" y="356.5" font-size="12.5" text-anchor="middle" fill="#17202c">Kafka</text>
<rect x="1708" y="405" width="108" height="47" rx="4" fill="#fdf4e3" stroke="#c88a2e" stroke-width="1.2"/>
<text x="1762" y="425.25" font-size="12.5" text-anchor="middle" fill="#17202c">Réplique</text>
<text x="1762" y="439.75" font-size="12.5" text-anchor="middle" fill="#17202c">PostgreSQL</text>
<rect x="1949" y="373.6666666666667" width="108" height="47" rx="4" fill="#ffffff" stroke="#48546a" stroke-width="1.5"/>
<text x="2003" y="393.9166666666667" font-size="12.5" text-anchor="middle" fill="#17202c">Serveur de</text>
<text x="2003" y="408.4166666666667" font-size="12.5" text-anchor="middle" fill="#17202c">sauvegarde</text>
<circle cx="42" cy="123" r="7" fill="none" stroke="#1f5e91" stroke-width="1.5"/>
<path d="M 31 145 q 11 -19 22 0" fill="none" stroke="#1f5e91" stroke-width="1.5"/>
<text x="42" y="157" font-size="11" text-anchor="middle" fill="#20364c">Clients</text>
<text x="42" y="168" font-size="11" text-anchor="middle" fill="#20364c">internet</text>
<rect x="1679" y="513" width="108" height="38" rx="4" fill="#f4eff8" stroke="#8659a6" stroke-width="1.2" stroke-dasharray="5 3"/>
<text x="1733" y="536" font-size="12.5" text-anchor="middle" fill="#17202c">PSP</text>
<rect x="1653" y="189" width="110" height="47" rx="4" fill="#f4eff8" stroke="#8659a6" stroke-width="1.2" stroke-dasharray="5 3"/>
<text x="1708" y="209.25" font-size="12.5" text-anchor="middle" fill="#17202c">Plateformes</text>
<text x="1708" y="223.75" font-size="12.5" text-anchor="middle" fill="#17202c">transporteurs</text>
<path d="M 74 146 L 196 146 A 5 5 0 0 1 206 146 L 1127 146" fill="none" stroke="#5a6675" stroke-width="1.3" marker-end="url(#arr)"/>
<text x="125.5" y="161.5" font-size="11.5" text-anchor="middle" fill="#3a4553" font-style="italic" stroke="#ffffff" stroke-width="2.5" paint-order="stroke" stroke-linejoin="round">Trafic web</text>
<text x="125.5" y="176" font-size="11.5" text-anchor="middle" fill="#3a4553" font-style="italic" stroke="#ffffff" stroke-width="2.5" paint-order="stroke" stroke-linejoin="round">client</text>
<text x="125.5" y="190.5" font-size="9" text-anchor="middle" fill="#79828f" stroke="#ffffff" stroke-width="2.5" paint-order="stroke" stroke-linejoin="round">(HTTPS/443)</text>
<path d="M 1258 146 L 1374 146" fill="none" stroke="#5a6675" stroke-width="1.3" marker-end="url(#arr)"/>
<text x="1309" y="110.5" font-size="11.5" text-anchor="middle" fill="#3a4553" font-style="italic" stroke="#ffffff" stroke-width="2.5" paint-order="stroke" stroke-linejoin="round">Trafic</text>
<text x="1309" y="125" font-size="11.5" text-anchor="middle" fill="#3a4553" font-style="italic" stroke="#ffffff" stroke-width="2.5" paint-order="stroke" stroke-linejoin="round">filtré</text>
<text x="1309" y="139.5" font-size="9" text-anchor="middle" fill="#79828f" stroke="#ffffff" stroke-width="2.5" paint-order="stroke" stroke-linejoin="round">(HTTPS/443)</text>
<path d="M 1482 146 L 1520 146 L 1520 49 L 201 49 L 201 459.58333333333337 L 225 459.58333333333337" fill="none" stroke="#5a6675" stroke-width="1.3" marker-end="url(#arr)"/>
<text x="1038" y="64.5" font-size="11.5" text-anchor="middle" fill="#3a4553" font-style="italic" stroke="#ffffff" stroke-width="2.5" paint-order="stroke" stroke-linejoin="round">Routage vers</text>
<text x="1038" y="79" font-size="11.5" text-anchor="middle" fill="#3a4553" font-style="italic" stroke="#ffffff" stroke-width="2.5" paint-order="stroke" stroke-linejoin="round">le backend</text>
<text x="1038" y="93.5" font-size="9" text-anchor="middle" fill="#79828f" stroke="#ffffff" stroke-width="2.5" paint-order="stroke" stroke-linejoin="round">(HTTPS/443)</text>
<path d="M 333 450.08333333333337 L 343 450.08333333333337 L 343 282.08333333333337 L 494.5 282.08333333333337" fill="none" stroke="#5a6675" stroke-width="1.3" marker-end="url(#arr)"/>
<text x="404.5" y="297.58333333333337" font-size="11.5" text-anchor="middle" fill="#3a4553" font-style="italic" stroke="#ffffff" stroke-width="2.5" paint-order="stroke" stroke-linejoin="round">Vérifier tokens</text>
<text x="404.5" y="312.08333333333337" font-size="9" text-anchor="middle" fill="#79828f" stroke="#ffffff" stroke-width="2.5" paint-order="stroke" stroke-linejoin="round">(HTTP/80)</text>
<path d="M 602.5 282.08333333333337 L 788 282.08333333333337" fill="none" stroke="#5a6675" stroke-width="1.3" marker-end="url(#arr)"/>
<text x="702" y="297.58333333333337" font-size="11.5" text-anchor="middle" fill="#3a4553" font-style="italic" stroke="#ffffff" stroke-width="2.5" paint-order="stroke" stroke-linejoin="round">Valider l'identité</text>
<text x="702" y="312.08333333333337" font-size="9" text-anchor="middle" fill="#79828f" stroke="#ffffff" stroke-width="2.5" paint-order="stroke" stroke-linejoin="round">(LDAPS/636)</text>
<path d="M 333 459.58333333333337 L 343 459.58333333333337 L 343 458.08333333333337 L 466 458.08333333333337 L 466 411.08333333333337 L 490 411.08333333333337" fill="none" stroke="#5a6675" stroke-width="1.3" marker-end="url(#arr)"/>
<text x="404.5" y="437.08333333333337" font-size="11.5" text-anchor="middle" fill="#3a4553" font-style="italic" stroke="#ffffff" stroke-width="2.5" paint-order="stroke" stroke-linejoin="round">Front de vente</text>
<text x="404.5" y="451.58333333333337" font-size="9" text-anchor="middle" fill="#79828f" stroke="#ffffff" stroke-width="2.5" paint-order="stroke" stroke-linejoin="round">(HTTPS/8443)</text>
<path d="M 333 469.08333333333337 L 490 469.08333333333337" fill="none" stroke="#5a6675" stroke-width="1.3" marker-end="url(#arr)"/>
<text x="404.5" y="484.58333333333337" font-size="11.5" text-anchor="middle" fill="#3a4553" font-style="italic" stroke="#ffffff" stroke-width="2.5" paint-order="stroke" stroke-linejoin="round">Tunnel d'achat</text>
<text x="404.5" y="499.08333333333337" font-size="9" text-anchor="middle" fill="#79828f" stroke="#ffffff" stroke-width="2.5" paint-order="stroke" stroke-linejoin="round">(HTTPS/8444)</text>
<path d="M 607 417.41666666666674 L 773 417.4166666666667 L 773 402.08333333333337 L 797 402.08333333333337" fill="none" stroke="#5a6675" stroke-width="1.3" marker-end="url(#arr)"/>
<text x="702" y="381.9166666666667" font-size="11.5" text-anchor="middle" fill="#3a4553" font-style="italic" stroke="#ffffff" stroke-width="2.5" paint-order="stroke" stroke-linejoin="round">API</text>
<text x="702" y="396.4166666666667" font-size="11.5" text-anchor="middle" fill="#3a4553" font-style="italic" stroke="#ffffff" stroke-width="2.5" paint-order="stroke" stroke-linejoin="round">commandes</text>
<text x="702" y="410.9166666666667" font-size="9" text-anchor="middle" fill="#79828f" stroke="#ffffff" stroke-width="2.5" paint-order="stroke" stroke-linejoin="round">(HTTPS/8443)</text>
<path d="M 607 469.08333333333337 L 797 469.08333333333337" fill="none" stroke="#5a6675" stroke-width="1.3" marker-end="url(#arr)"/>
<text x="702" y="484.58333333333337" font-size="11.5" text-anchor="middle" fill="#3a4553" font-style="italic" stroke="#ffffff" stroke-width="2.5" paint-order="stroke" stroke-linejoin="round">API</text>
<text x="702" y="499.08333333333337" font-size="11.5" text-anchor="middle" fill="#3a4553" font-style="italic" stroke="#ffffff" stroke-width="2.5" paint-order="stroke" stroke-linejoin="round">paiement</text>
<text x="702" y="513.5833333333334" font-size="9" text-anchor="middle" fill="#79828f" stroke="#ffffff" stroke-width="2.5" paint-order="stroke" stroke-linejoin="round">(HTTPS/8445)</text>
<path d="M 905 476.91666666666674 L 963 476.91666666666674 L 963 531.8333333333334 L 1544 532 L 1679 532" fill="none" stroke="#5a6675" stroke-width="1.3" marker-end="url(#arr)"/>
<text x="1611.5" y="547.5" font-size="11.5" text-anchor="middle" fill="#3a4553" font-style="italic" stroke="#ffffff" stroke-width="2.5" paint-order="stroke" stroke-linejoin="round">Autorisation et</text>
<text x="1611.5" y="562" font-size="11.5" text-anchor="middle" fill="#3a4553" font-style="italic" stroke="#ffffff" stroke-width="2.5" paint-order="stroke" stroke-linejoin="round">capture</text>
<text x="1611.5" y="576.5" font-size="9" text-anchor="middle" fill="#79828f" stroke="#ffffff" stroke-width="2.5" paint-order="stroke" stroke-linejoin="round">(HTTPS/443)</text>
<path d="M 905 413.83333333333337 L 1103 413.83333333333337 L 1103 457.1666666666667 L 1218.6666666666665 457.1666666666667" fill="none" stroke="#5a6675" stroke-width="1.3" marker-end="url(#arr)"/>
<text x="1038" y="429.33333333333337" font-size="11.5" text-anchor="middle" fill="#3a4553" font-style="italic" stroke="#ffffff" stroke-width="2.5" paint-order="stroke" stroke-linejoin="round">Lecture/écriture</text>
<text x="1038" y="443.83333333333337" font-size="11.5" text-anchor="middle" fill="#3a4553" font-style="italic" stroke="#ffffff" stroke-width="2.5" paint-order="stroke" stroke-linejoin="round">commandes</text>
<text x="1038" y="458.33333333333337" font-size="9" text-anchor="middle" fill="#79828f" stroke="#ffffff" stroke-width="2.5" paint-order="stroke" stroke-linejoin="round">(TCP/5432)</text>
<path d="M 905 461.25000000000006 L 973 461.25000000000006 L 973 472.83333333333337 L 1218.6666666666665 472.83333333333337" fill="none" stroke="#5a6675" stroke-width="1.3" marker-end="url(#arr)"/>
<text x="1038" y="488.33333333333337" font-size="11.5" text-anchor="middle" fill="#3a4553" font-style="italic" stroke="#ffffff" stroke-width="2.5" paint-order="stroke" stroke-linejoin="round">Lecture/écriture</text>
<text x="1038" y="502.83333333333337" font-size="11.5" text-anchor="middle" fill="#3a4553" font-style="italic" stroke="#ffffff" stroke-width="2.5" paint-order="stroke" stroke-linejoin="round">transactions</text>
<text x="1038" y="517.3333333333334" font-size="9" text-anchor="middle" fill="#79828f" stroke="#ffffff" stroke-width="2.5" paint-order="stroke" stroke-linejoin="round">(TCP/5432)</text>
<path d="M 905 402.08333333333337 L 963 402.08333333333337 L 963 354.83333333333337 L 1103 354.83333333333337 L 1103 358.8333333333333 L 1218.6666666666665 358.8333333333333" fill="none" stroke="#5a6675" stroke-width="1.3" marker-end="url(#arr)"/>
<text x="1038" y="370.33333333333337" font-size="11.5" text-anchor="middle" fill="#3a4553" font-style="italic" stroke="#ffffff" stroke-width="2.5" paint-order="stroke" stroke-linejoin="round">Événements de</text>
<text x="1038" y="384.83333333333337" font-size="11.5" text-anchor="middle" fill="#3a4553" font-style="italic" stroke="#ffffff" stroke-width="2.5" paint-order="stroke" stroke-linejoin="round">commande</text>
<text x="1038" y="399.33333333333337" font-size="9" text-anchor="middle" fill="#79828f" stroke="#ffffff" stroke-width="2.5" paint-order="stroke" stroke-linejoin="round">(TCP/9092)</text>
<path d="M 607 404.75000000000006 L 631 404.75 L 631 326.58333333333337 L 924 326.58333333333337 A 5 5 0 0 1 934 326.58333333333337 L 973 326.58333333333337 L 973 295.83333333333337 L 1103 295.83333333333337 L 1103 346.16666666666663 L 1218.6666666666665 346.1666666666667" fill="none" stroke="#5a6675" stroke-width="1.3" marker-end="url(#arr)"/>
<text x="1038" y="311.33333333333337" font-size="11.5" text-anchor="middle" fill="#3a4553" font-style="italic" stroke="#ffffff" stroke-width="2.5" paint-order="stroke" stroke-linejoin="round">Événements de</text>
<text x="1038" y="325.83333333333337" font-size="11.5" text-anchor="middle" fill="#3a4553" font-style="italic" stroke="#ffffff" stroke-width="2.5" paint-order="stroke" stroke-linejoin="round">navigation</text>
<text x="1038" y="340.33333333333337" font-size="9" text-anchor="middle" fill="#79828f" stroke="#ffffff" stroke-width="2.5" paint-order="stroke" stroke-linejoin="round">(TCP/9092)</text>
<path d="M 905 390.33333333333337 L 929 390.33333333333337 L 929 316.58333333333337 L 963 316.58333333333337 L 963 213 L 1138.5 213" fill="none" stroke="#5a6675" stroke-width="1.3" marker-end="url(#arr)"/>
<text x="1038" y="228.5" font-size="11.5" text-anchor="middle" fill="#3a4553" font-style="italic" stroke="#ffffff" stroke-width="2.5" paint-order="stroke" stroke-linejoin="round">Fichiers</text>
<text x="1038" y="243" font-size="11.5" text-anchor="middle" fill="#3a4553" font-style="italic" stroke="#ffffff" stroke-width="2.5" paint-order="stroke" stroke-linejoin="round">transporteur</text>
<text x="1038" y="257.5" font-size="9" text-anchor="middle" fill="#79828f" stroke="#ffffff" stroke-width="2.5" paint-order="stroke" stroke-linejoin="round">(SFTP/22)</text>
<path d="M 1246.5 213 L 1653 213" fill="none" stroke="#5a6675" stroke-width="1.3" marker-end="url(#arr)"/>
<text x="1598.5" y="228.5" font-size="11.5" text-anchor="middle" fill="#3a4553" font-style="italic" stroke="#ffffff" stroke-width="2.5" paint-order="stroke" stroke-linejoin="round">Échanges</text>
<text x="1598.5" y="243" font-size="11.5" text-anchor="middle" fill="#3a4553" font-style="italic" stroke="#ffffff" stroke-width="2.5" paint-order="stroke" stroke-linejoin="round">logistiques</text>
<text x="1598.5" y="257.5" font-size="9" text-anchor="middle" fill="#79828f" stroke="#ffffff" stroke-width="2.5" paint-order="stroke" stroke-linejoin="round">(AS4/443)</text>
<path d="M 1326.6666666666665 465 L 1554 465 L 1554 429 L 1666 428.5 L 1708 428.5" fill="none" stroke="#5a6675" stroke-width="1.3" marker-end="url(#arr)"/>
<text x="1602.5" y="444.5" font-size="11.5" text-anchor="middle" fill="#3a4553" font-style="italic" stroke="#ffffff" stroke-width="2.5" paint-order="stroke" stroke-linejoin="round">Réplication</text>
<text x="1602.5" y="459" font-size="11.5" text-anchor="middle" fill="#3a4553" font-style="italic" stroke="#ffffff" stroke-width="2.5" paint-order="stroke" stroke-linejoin="round">asynchrone</text>
<text x="1602.5" y="473.5" font-size="9" text-anchor="middle" fill="#79828f" stroke="#ffffff" stroke-width="2.5" paint-order="stroke" stroke-linejoin="round">(TCP/5432)</text>
<path d="M 1825 405 L 1949 405" fill="none" stroke="#5a6675" stroke-width="1.3" marker-end="url(#arr)"/>
<text x="1887" y="420.5" font-size="11.5" text-anchor="middle" fill="#3a4553" font-style="italic" stroke="#ffffff" stroke-width="2.5" paint-order="stroke" stroke-linejoin="round">Sauvegardes</text>
<text x="1887" y="435" font-size="11.5" text-anchor="middle" fill="#3a4553" font-style="italic" stroke="#ffffff" stroke-width="2.5" paint-order="stroke" stroke-linejoin="round">quotidiennes</text>
<text x="1887" y="449.5" font-size="9" text-anchor="middle" fill="#79828f" stroke="#ffffff" stroke-width="2.5" paint-order="stroke" stroke-linejoin="round">(TCP/9095)</text>
<path d="M 1326.6666666666665 352.5 L 1544 353 L 1939 353 L 1939 389.3333333333333 L 1949 389.3333333333333" fill="none" stroke="#5a6675" stroke-width="1.3" marker-end="url(#arr)"/>
<text x="1605" y="317.5" font-size="11.5" text-anchor="middle" fill="#3a4553" font-style="italic" stroke="#ffffff" stroke-width="2.5" paint-order="stroke" stroke-linejoin="round">Archivage des</text>
<text x="1605" y="332" font-size="11.5" text-anchor="middle" fill="#3a4553" font-style="italic" stroke="#ffffff" stroke-width="2.5" paint-order="stroke" stroke-linejoin="round">topics</text>
<text x="1605" y="346.5" font-size="9" text-anchor="middle" fill="#79828f" stroke="#ffffff" stroke-width="2.5" paint-order="stroke" stroke-linejoin="round">(TCP/9095)</text>
<line x1="20" y1="601" x2="2065" y2="601" stroke="#e6e9ee" stroke-width="1"/>
<text x="20" y="623" font-size="11" font-weight="bold" fill="#3a4553">LÉGENDE</text>
<rect x="150" y="613" width="26" height="14" rx="3" fill="#f3f5f6" stroke="#7c8794"/>
<text x="182" y="624" font-size="10" fill="#17202c">Site / centre de données</text>
<rect x="339" y="613" width="26" height="14" rx="3" fill="#eaf5ef" stroke="#1a8f66" stroke-dasharray="5 3"/>
<text x="371" y="624" font-size="10" fill="#17202c">Zone réseau</text>
<rect x="461" y="613" width="26" height="14" rx="3" fill="#ffffff" stroke="#48546a"/>
<text x="493" y="624" font-size="10" fill="#17202c">Serveur / VM</text>
<rect x="588" y="613" width="26" height="14" rx="3" fill="#fdf4e3" stroke="#c88a2e"/>
<text x="620" y="624" font-size="10" fill="#17202c">Application déployée</text>
<rect x="756" y="613" width="26" height="14" rx="3" fill="#f5e6dd" stroke="#b85a30"/>
<text x="788" y="624" font-size="10" fill="#17202c">Passerelle / proxy</text>
<rect x="914" y="613" width="26" height="14" rx="3" fill="#fdefe3" stroke="#d1600f"/>
<text x="946" y="624" font-size="10" fill="#17202c">Middleware d'authentification</text>
<rect x="1129" y="613" width="26" height="14" rx="3" fill="#e0f0f0" stroke="#3a8f8f"/>
<text x="1161" y="624" font-size="10" fill="#17202c">Fournisseur d'identité (IdP)</text>
<circle cx="1352" cy="616" r="3" fill="none" stroke="#1f5e91" stroke-width="1.2"/>
<path d="M 1347 626 q 5 -7 10 0" fill="none" stroke="#1f5e91" stroke-width="1.2"/>
<text x="1371" y="624" font-size="10" fill="#17202c">Utilisateur / consommateur</text>
<rect x="1539" y="613" width="26" height="14" rx="3" fill="#f4eff8" stroke="#8659a6" stroke-dasharray="5 3"/>
<text x="1571" y="624" font-size="10" fill="#17202c">Système externe</text>
<line x1="150" y1="643" x2="176" y2="643" stroke="#5a6675" stroke-width="1.3" marker-end="url(#arr)"/>
<text x="182" y="647" font-size="10" fill="#17202c">Flux technique (protocole, port)</text>
<text x="150" y="671" font-size="10" fill="#17202c" font-style="italic">Flux inter-zones et inter-sites filtrés par pare-feu (matrice des flux jointe au dossier d'architecture)</text>
</svg>
