<svg xmlns="http://www.w3.org/2000/svg" viewBox="0 0 1490 556" font-family="Helvetica,Arial,sans-serif">
<defs><marker id="arr" viewBox="0 0 10 10" refX="9" refY="5" markerWidth="7" markerHeight="7" orient="auto-start-reverse">
<path d="M0,0 L10,5 L0,10 z" fill="#444444"/></marker></defs>
<rect width="1490" height="556" fill="white"/>
<rect x="27" y="94" width="1159" height="348" rx="6" fill="#f5f5f4" stroke="#8a8a85" stroke-width="1.4"/>
<text x="37" y="112" font-size="12" font-weight="bold" fill="#333">Main data center</text>
<rect x="64" y="208.33333333333334" width="198" height="214" rx="6" fill="#ecf3ec" stroke="#6d9a6d" stroke-width="1.2" stroke-dasharray="5 3"/>
<text x="74" y="226.33333333333334" font-size="12" font-weight="bold" fill="#333">DMZ</text>
<rect x="81" y="309.33333333333337" width="164" height="101" rx="6" fill="#ffffff" stroke="#55606b" stroke-width="1.5"/>
<text x="91" y="327.33333333333337" font-size="12" font-weight="bold" fill="#333">Reverse proxy</text>
<text x="91" y="340.33333333333337" font-size="12" font-weight="bold" fill="#333">(HA pair)</text>
<rect x="413" y="192" width="198" height="238" rx="6" fill="#ecf3ec" stroke="#6d9a6d" stroke-width="1.2" stroke-dasharray="5 3"/>
<text x="423" y="210" font-size="12" font-weight="bold" fill="#333">Application zone</text>
<rect x="430" y="222" width="164" height="88" rx="6" fill="#ffffff" stroke="#55606b" stroke-width="1.5"/>
<text x="440" y="240" font-size="12" font-weight="bold" fill="#333">Billing VM</text>
<rect x="430" y="330" width="164" height="88" rx="6" fill="#ffffff" stroke="#55606b" stroke-width="1.5"/>
<text x="440" y="348" font-size="12" font-weight="bold" fill="#333">CRM VM</text>
<rect x="744" y="279.33333333333337" width="430" height="143" rx="6" fill="#ecf3ec" stroke="#6d9a6d" stroke-width="1.2" stroke-dasharray="5 3"/>
<text x="754" y="297.33333333333337" font-size="12" font-weight="bold" fill="#333">Data zone</text>
<rect x="761" y="309.33333333333337" width="164" height="101" rx="6" fill="#ffffff" stroke="#55606b" stroke-width="1.5"/>
<text x="771" y="327.33333333333337" font-size="12" font-weight="bold" fill="#333">Database</text>
<text x="771" y="340.33333333333337" font-size="12" font-weight="bold" fill="#333">server</text>
<rect x="93" y="352.33333333333337" width="140" height="46" rx="4" fill="#fff7e6" stroke="#b08d2a" stroke-width="1.2"/>
<text x="163" y="379.33333333333337" font-size="11.5" text-anchor="middle" fill="#222233">WAF</text>
<rect x="93" y="238.33333333333334" width="140" height="51" rx="4" fill="#ffffff" stroke="#55606b" stroke-width="1.5"/>
<text x="163" y="261.08333333333337" font-size="11.5" text-anchor="middle" fill="#222233">Transfer</text>
<text x="163" y="274.58333333333337" font-size="11.5" text-anchor="middle" fill="#222233">gateway</text>
<rect x="442" y="252" width="140" height="46" rx="4" fill="#fff7e6" stroke="#b08d2a" stroke-width="1.2"/>
<text x="512" y="279" font-size="11.5" text-anchor="middle" fill="#222233">Billing</text>
<rect x="442" y="360" width="140" height="46" rx="4" fill="#fff7e6" stroke="#b08d2a" stroke-width="1.2"/>
<text x="512" y="387" font-size="11.5" text-anchor="middle" fill="#222233">CRM</text>
<rect x="773" y="352.33333333333337" width="140" height="46" rx="4" fill="#fff7e6" stroke="#b08d2a" stroke-width="1.2"/>
<text x="843" y="379.33333333333337" font-size="11.5" text-anchor="middle" fill="#222233">PostgreSQL</text>
<rect x="1022" y="326.83333333333337" width="140" height="51" rx="4" fill="#ffffff" stroke="#55606b" stroke-width="1.5"/>
<text x="1092" y="349.58333333333337" font-size="11.5" text-anchor="middle" fill="#222233">Backup</text>
<text x="1092" y="363.08333333333337" font-size="11.5" text-anchor="middle" fill="#222233">server</text>
<rect x="1235" y="51" width="140" height="51" rx="4" fill="#f0eef5" stroke="#9187b3" stroke-width="1.2" stroke-dasharray="5 3"/>
<text x="1305" y="73.75" font-size="11.5" text-anchor="middle" fill="#222233">User</text>
<text x="1305" y="87.25" font-size="11.5" text-anchor="middle" fill="#222233">workstations</text>
<rect x="1338" y="155" width="140" height="51" rx="4" fill="#f0eef5" stroke="#9187b3" stroke-width="1.2" stroke-dasharray="5 3"/>
<text x="1408" y="177.75" font-size="11.5" text-anchor="middle" fill="#222233">Partner EDI</text>
<text x="1408" y="191.25" font-size="11.5" text-anchor="middle" fill="#222233">platform</text>
<path d="M 1235 77 L 12 77 L 12 375 L 22 375.33333333333337 L 93 375.33333333333337" fill="none" stroke="#444444" stroke-width="1.3" marker-end="url(#arr)"/>
<text x="69.5" y="41.5" font-size="10.5" text-anchor="middle" fill="#333" font-style="italic" stroke="white" stroke-width="2.5" paint-order="stroke" stroke-linejoin="round">Web application</text>
<text x="69.5" y="55" font-size="10.5" text-anchor="middle" fill="#333" font-style="italic" stroke="white" stroke-width="2.5" paint-order="stroke" stroke-linejoin="round">access</text>
<text x="69.5" y="68.5" font-size="9" text-anchor="middle" fill="#777" stroke="white" stroke-width="2.5" paint-order="stroke" stroke-linejoin="round">(HTTPS/443)</text>
<path d="M 233 367.6666666666667 L 398 367.6666666666667 L 398 275 L 442 275" fill="none" stroke="#444444" stroke-width="1.3" marker-end="url(#arr)"/>
<text x="337.5" y="333.16666666666663" font-size="10.5" text-anchor="middle" fill="#333" font-style="italic" stroke="white" stroke-width="2.5" paint-order="stroke" stroke-linejoin="round">Filtered billing</text>
<text x="337.5" y="346.66666666666663" font-size="10.5" text-anchor="middle" fill="#333" font-style="italic" stroke="white" stroke-width="2.5" paint-order="stroke" stroke-linejoin="round">traffic</text>
<text x="337.5" y="360.16666666666663" font-size="9" text-anchor="middle" fill="#777" stroke="white" stroke-width="2.5" paint-order="stroke" stroke-linejoin="round">(HTTPS/8443)</text>
<path d="M 233 383.00000000000006 L 442 383" fill="none" stroke="#444444" stroke-width="1.3" marker-end="url(#arr)"/>
<text x="337.5" y="397.5" font-size="10.5" text-anchor="middle" fill="#333" font-style="italic" stroke="white" stroke-width="2.5" paint-order="stroke" stroke-linejoin="round">Filtered CRM</text>
<text x="337.5" y="411" font-size="10.5" text-anchor="middle" fill="#333" font-style="italic" stroke="white" stroke-width="2.5" paint-order="stroke" stroke-linejoin="round">traffic</text>
<text x="337.5" y="424.5" font-size="9" text-anchor="middle" fill="#777" stroke="white" stroke-width="2.5" paint-order="stroke" stroke-linejoin="round">(HTTPS/8444)</text>
<path d="M 582 282.66666666666663 L 729 282.66666666666663 L 729 367.6666666666667 L 773 367.6666666666667" fill="none" stroke="#444444" stroke-width="1.3" marker-end="url(#arr)"/>
<text x="677.5" y="248.16666666666666" font-size="10.5" text-anchor="middle" fill="#333" font-style="italic" stroke="white" stroke-width="2.5" paint-order="stroke" stroke-linejoin="round">Read/write</text>
<text x="677.5" y="261.66666666666663" font-size="10.5" text-anchor="middle" fill="#333" font-style="italic" stroke="white" stroke-width="2.5" paint-order="stroke" stroke-linejoin="round">billing data</text>
<text x="677.5" y="275.16666666666663" font-size="9" text-anchor="middle" fill="#777" stroke="white" stroke-width="2.5" paint-order="stroke" stroke-linejoin="round">(TCP/5432)</text>
<path d="M 582 383 L 773 383.00000000000006" fill="none" stroke="#444444" stroke-width="1.3" marker-end="url(#arr)"/>
<text x="677.5" y="397.5" font-size="10.5" text-anchor="middle" fill="#333" font-style="italic" stroke="white" stroke-width="2.5" paint-order="stroke" stroke-linejoin="round">Read/write</text>
<text x="677.5" y="411" font-size="10.5" text-anchor="middle" fill="#333" font-style="italic" stroke="white" stroke-width="2.5" paint-order="stroke" stroke-linejoin="round">customer data</text>
<text x="677.5" y="424.5" font-size="9" text-anchor="middle" fill="#777" stroke="white" stroke-width="2.5" paint-order="stroke" stroke-linejoin="round">(TCP/5432)</text>
<path d="M 582 267.33333333333337 L 626 267.3333333333333 L 626 124 L 49 124 L 49 263.83333333333337 L 93 263.83333333333337" fill="none" stroke="#444444" stroke-width="1.3" marker-end="url(#arr)"/>
<text x="337.5" y="138.5" font-size="10.5" text-anchor="middle" fill="#333" font-style="italic" stroke="white" stroke-width="2.5" paint-order="stroke" stroke-linejoin="round">Drop invoices</text>
<text x="337.5" y="152" font-size="10.5" text-anchor="middle" fill="#333" font-style="italic" stroke="white" stroke-width="2.5" paint-order="stroke" stroke-linejoin="round">to transmit</text>
<text x="337.5" y="165.5" font-size="9" text-anchor="middle" fill="#777" stroke="white" stroke-width="2.5" paint-order="stroke" stroke-linejoin="round">(SFTP/22)</text>
<path d="M 233 263.83333333333337 L 277 263.83333333333337 L 277 181 L 621 181 A 5 5 0 0 1 631 181 L 1338 181" fill="none" stroke="#444444" stroke-width="1.3" marker-end="url(#arr)"/>
<text x="1264.5" y="196.5" font-size="10.5" text-anchor="middle" fill="#333" font-style="italic" stroke="white" stroke-width="2.5" paint-order="stroke" stroke-linejoin="round">Partner</text>
<text x="1264.5" y="210" font-size="10.5" text-anchor="middle" fill="#333" font-style="italic" stroke="white" stroke-width="2.5" paint-order="stroke" stroke-linejoin="round">transfers</text>
<text x="1264.5" y="223.5" font-size="9" text-anchor="middle" fill="#777" stroke="white" stroke-width="2.5" paint-order="stroke" stroke-linejoin="round">(AS4/443)</text>
<path d="M 925 352.33333333333337 L 1022 352.33333333333337" fill="none" stroke="#444444" stroke-width="1.3" marker-end="url(#arr)"/>
<text x="973.5" y="366.83333333333337" font-size="10.5" text-anchor="middle" fill="#333" font-style="italic" stroke="white" stroke-width="2.5" paint-order="stroke" stroke-linejoin="round">Daily</text>
<text x="973.5" y="380.33333333333337" font-size="10.5" text-anchor="middle" fill="#333" font-style="italic" stroke="white" stroke-width="2.5" paint-order="stroke" stroke-linejoin="round">backups</text>
<text x="973.5" y="393.83333333333337" font-size="9" text-anchor="middle" fill="#777" stroke="white" stroke-width="2.5" paint-order="stroke" stroke-linejoin="round">(TCP/9092)</text>
<line x1="20" y1="464" x2="1470" y2="464" stroke="#ddd" stroke-width="1"/>
<text x="20" y="486" font-size="11" font-weight="bold" fill="#555">LEGEND</text>
<rect x="150" y="476" width="26" height="14" rx="3" fill="#f5f5f4" stroke="#8a8a85"/>
<text x="182" y="487" font-size="10" fill="#444">Site / data center</text>
<rect x="308" y="476" width="26" height="14" rx="3" fill="#ecf3ec" stroke="#6d9a6d" stroke-dasharray="5 3"/>
<text x="340" y="487" font-size="10" fill="#444">Network zone</text>
<rect x="435" y="476" width="26" height="14" rx="3" fill="#ffffff" stroke="#55606b"/>
<text x="467" y="487" font-size="10" fill="#444">Server / VM</text>
<rect x="557" y="476" width="26" height="14" rx="3" fill="#fff7e6" stroke="#b08d2a"/>
<text x="589" y="487" font-size="10" fill="#444">Deployed application</text>
<rect x="725" y="476" width="26" height="14" rx="3" fill="#f0eef5" stroke="#9187b3" stroke-dasharray="5 3"/>
<text x="757" y="487" font-size="10" fill="#444">External system</text>
<line x1="150" y1="506" x2="176" y2="506" stroke="#444444" stroke-width="1.3" marker-end="url(#arr)"/>
<text x="182" y="510" font-size="10" fill="#444">Technical flow (protocol, port)</text>
<text x="150" y="534" font-size="10" fill="#444" font-style="italic">Inter-zone flows filtered by firewall (flow matrix attached to the architecture dossier)</text>
</svg>
