<svg xmlns="http://www.w3.org/2000/svg" viewBox="0 0 1568 556" font-family="Helvetica,Arial,sans-serif">
<defs><marker id="arr" viewBox="0 0 10 10" refX="9" refY="5" markerWidth="7" markerHeight="7" orient="auto-start-reverse">
<path d="M0,0 L10,5 L0,10 z" fill="#444444"/></marker></defs>
<rect width="1568" height="556" fill="white"/>
<rect x="27" y="94" width="1225" height="348" rx="6" fill="#f5f5f4" stroke="#8a8a85" stroke-width="1.4"/>
<text x="37" y="112" font-size="12" font-weight="bold" fill="#333">Centre de données principal</text>
<rect x="64" y="208.33333333333334" width="198" height="214" rx="6" fill="#ecf3ec" stroke="#6d9a6d" stroke-width="1.2" stroke-dasharray="5 3"/>
<text x="74" y="226.33333333333334" font-size="12" font-weight="bold" fill="#333">DMZ</text>
<rect x="81" y="309.33333333333337" width="164" height="101" rx="6" fill="#ffffff" stroke="#55606b" stroke-width="1.5"/>
<text x="91" y="327.33333333333337" font-size="12" font-weight="bold" fill="#333">Reverse proxy</text>
<text x="91" y="340.33333333333337" font-size="12" font-weight="bold" fill="#333">(paire HA)</text>
<rect x="424" y="192" width="198" height="238" rx="6" fill="#ecf3ec" stroke="#6d9a6d" stroke-width="1.2" stroke-dasharray="5 3"/>
<text x="434" y="210" font-size="12" font-weight="bold" fill="#333">Zone applicative</text>
<rect x="441" y="222" width="164" height="88" rx="6" fill="#ffffff" stroke="#55606b" stroke-width="1.5"/>
<text x="451" y="240" font-size="12" font-weight="bold" fill="#333">VM Facturation</text>
<rect x="441" y="330" width="164" height="88" rx="6" fill="#ffffff" stroke="#55606b" stroke-width="1.5"/>
<text x="451" y="348" font-size="12" font-weight="bold" fill="#333">VM CRM</text>
<rect x="790" y="279.33333333333337" width="450" height="143" rx="6" fill="#ecf3ec" stroke="#6d9a6d" stroke-width="1.2" stroke-dasharray="5 3"/>
<text x="800" y="297.33333333333337" font-size="12" font-weight="bold" fill="#333">Zone de données</text>
<rect x="807" y="309.33333333333337" width="164" height="101" rx="6" fill="#ffffff" stroke="#55606b" stroke-width="1.5"/>
<text x="817" y="327.33333333333337" font-size="12" font-weight="bold" fill="#333">Serveur de</text>
<text x="817" y="340.33333333333337" font-size="12" font-weight="bold" fill="#333">base de données</text>
<rect x="93" y="352.33333333333337" width="140" height="46" rx="4" fill="#fff7e6" stroke="#b08d2a" stroke-width="1.2"/>
<text x="163" y="379.33333333333337" font-size="11.5" text-anchor="middle" fill="#222233">WAF</text>
<rect x="93" y="238.33333333333334" width="140" height="51" rx="4" fill="#ffffff" stroke="#55606b" stroke-width="1.5"/>
<text x="163" y="261.08333333333337" font-size="11.5" text-anchor="middle" fill="#222233">Passerelle</text>
<text x="163" y="274.58333333333337" font-size="11.5" text-anchor="middle" fill="#222233">de transfert</text>
<rect x="453" y="252" width="140" height="46" rx="4" fill="#fff7e6" stroke="#b08d2a" stroke-width="1.2"/>
<text x="523" y="279" font-size="11.5" text-anchor="middle" fill="#222233">Facturation</text>
<rect x="453" y="360" width="140" height="46" rx="4" fill="#fff7e6" stroke="#b08d2a" stroke-width="1.2"/>
<text x="523" y="387" font-size="11.5" text-anchor="middle" fill="#222233">CRM</text>
<rect x="819" y="352.33333333333337" width="140" height="46" rx="4" fill="#fff7e6" stroke="#b08d2a" stroke-width="1.2"/>
<text x="889" y="379.33333333333337" font-size="11.5" text-anchor="middle" fill="#222233">PostgreSQL</text>
<rect x="1088" y="326.83333333333337" width="140" height="51" rx="4" fill="#ffffff" stroke="#55606b" stroke-width="1.5"/>
<text x="1158" y="349.58333333333337" font-size="11.5" text-anchor="middle" fill="#222233">Serveur de</text>
<text x="1158" y="363.08333333333337" font-size="11.5" text-anchor="middle" fill="#222233">sauvegarde</text>
<rect x="1301" y="51" width="140" height="51" rx="4" fill="#f0eef5" stroke="#9187b3" stroke-width="1.2" stroke-dasharray="5 3"/>
<text x="1371" y="73.75" font-size="11.5" text-anchor="middle" fill="#222233">Postes</text>
<text x="1371" y="87.25" font-size="11.5" text-anchor="middle" fill="#222233">utilisateurs</text>
<rect x="1416" y="155" width="140" height="51" rx="4" fill="#f0eef5" stroke="#9187b3" stroke-width="1.2" stroke-dasharray="5 3"/>
<text x="1486" y="177.75" font-size="11.5" text-anchor="middle" fill="#222233">Plateforme EDI</text>
<text x="1486" y="191.25" font-size="11.5" text-anchor="middle" fill="#222233">partenaire</text>
<path d="M 1301 77 L 12 77 L 12 375 L 22 375.33333333333337 L 93 375.33333333333337" fill="none" stroke="#444444" stroke-width="1.3" marker-end="url(#arr)"/>
<text x="75" y="41.5" font-size="10.5" text-anchor="middle" fill="#333" font-style="italic" stroke="white" stroke-width="2.5" paint-order="stroke" stroke-linejoin="round">Accès application</text>
<text x="75" y="55" font-size="10.5" text-anchor="middle" fill="#333" font-style="italic" stroke="white" stroke-width="2.5" paint-order="stroke" stroke-linejoin="round">web</text>
<text x="75" y="68.5" font-size="9" text-anchor="middle" fill="#777" stroke="white" stroke-width="2.5" paint-order="stroke" stroke-linejoin="round">(HTTPS/443)</text>
<path d="M 233 367.6666666666667 L 409 367.6666666666667 L 409 275 L 453 275" fill="none" stroke="#444444" stroke-width="1.3" marker-end="url(#arr)"/>
<text x="343" y="333.16666666666663" font-size="10.5" text-anchor="middle" fill="#333" font-style="italic" stroke="white" stroke-width="2.5" paint-order="stroke" stroke-linejoin="round">Trafic facturation</text>
<text x="343" y="346.66666666666663" font-size="10.5" text-anchor="middle" fill="#333" font-style="italic" stroke="white" stroke-width="2.5" paint-order="stroke" stroke-linejoin="round">filtré</text>
<text x="343" y="360.16666666666663" font-size="9" text-anchor="middle" fill="#777" stroke="white" stroke-width="2.5" paint-order="stroke" stroke-linejoin="round">(HTTPS/8443)</text>
<path d="M 233 383.00000000000006 L 453 383" fill="none" stroke="#444444" stroke-width="1.3" marker-end="url(#arr)"/>
<text x="343" y="397.5" font-size="10.5" text-anchor="middle" fill="#333" font-style="italic" stroke="white" stroke-width="2.5" paint-order="stroke" stroke-linejoin="round">Trafic CRM</text>
<text x="343" y="411" font-size="10.5" text-anchor="middle" fill="#333" font-style="italic" stroke="white" stroke-width="2.5" paint-order="stroke" stroke-linejoin="round">filtré</text>
<text x="343" y="424.5" font-size="9" text-anchor="middle" fill="#777" stroke="white" stroke-width="2.5" paint-order="stroke" stroke-linejoin="round">(HTTPS/8444)</text>
<path d="M 593 282.66666666666663 L 775 282.66666666666663 L 775 367.6666666666667 L 819 367.6666666666667" fill="none" stroke="#444444" stroke-width="1.3" marker-end="url(#arr)"/>
<text x="706" y="248.16666666666666" font-size="10.5" text-anchor="middle" fill="#333" font-style="italic" stroke="white" stroke-width="2.5" paint-order="stroke" stroke-linejoin="round">Lecture/écriture</text>
<text x="706" y="261.66666666666663" font-size="10.5" text-anchor="middle" fill="#333" font-style="italic" stroke="white" stroke-width="2.5" paint-order="stroke" stroke-linejoin="round">données facturation</text>
<text x="706" y="275.16666666666663" font-size="9" text-anchor="middle" fill="#777" stroke="white" stroke-width="2.5" paint-order="stroke" stroke-linejoin="round">(TCP/5432)</text>
<path d="M 593 383 L 819 383.00000000000006" fill="none" stroke="#444444" stroke-width="1.3" marker-end="url(#arr)"/>
<text x="706" y="397.5" font-size="10.5" text-anchor="middle" fill="#333" font-style="italic" stroke="white" stroke-width="2.5" paint-order="stroke" stroke-linejoin="round">Lecture/écriture</text>
<text x="706" y="411" font-size="10.5" text-anchor="middle" fill="#333" font-style="italic" stroke="white" stroke-width="2.5" paint-order="stroke" stroke-linejoin="round">données clients</text>
<text x="706" y="424.5" font-size="9" text-anchor="middle" fill="#777" stroke="white" stroke-width="2.5" paint-order="stroke" stroke-linejoin="round">(TCP/5432)</text>
<path d="M 593 267.33333333333337 L 637 267.3333333333333 L 637 124 L 49 124 L 49 263.83333333333337 L 93 263.83333333333337" fill="none" stroke="#444444" stroke-width="1.3" marker-end="url(#arr)"/>
<text x="343" y="138.5" font-size="10.5" text-anchor="middle" fill="#333" font-style="italic" stroke="white" stroke-width="2.5" paint-order="stroke" stroke-linejoin="round">Dépôt des factures</text>
<text x="343" y="152" font-size="10.5" text-anchor="middle" fill="#333" font-style="italic" stroke="white" stroke-width="2.5" paint-order="stroke" stroke-linejoin="round">à transmettre</text>
<text x="343" y="165.5" font-size="9" text-anchor="middle" fill="#777" stroke="white" stroke-width="2.5" paint-order="stroke" stroke-linejoin="round">(SFTP/22)</text>
<path d="M 233 263.83333333333337 L 277 263.83333333333337 L 277 181 L 632 181 A 5 5 0 0 1 642 181 L 1416 181" fill="none" stroke="#444444" stroke-width="1.3" marker-end="url(#arr)"/>
<text x="1336.5" y="196.5" font-size="10.5" text-anchor="middle" fill="#333" font-style="italic" stroke="white" stroke-width="2.5" paint-order="stroke" stroke-linejoin="round">Transferts</text>
<text x="1336.5" y="210" font-size="10.5" text-anchor="middle" fill="#333" font-style="italic" stroke="white" stroke-width="2.5" paint-order="stroke" stroke-linejoin="round">partenaires</text>
<text x="1336.5" y="223.5" font-size="9" text-anchor="middle" fill="#777" stroke="white" stroke-width="2.5" paint-order="stroke" stroke-linejoin="round">(AS4/443)</text>
<path d="M 971 352.33333333333337 L 1088 352.33333333333337" fill="none" stroke="#444444" stroke-width="1.3" marker-end="url(#arr)"/>
<text x="1029.5" y="366.83333333333337" font-size="10.5" text-anchor="middle" fill="#333" font-style="italic" stroke="white" stroke-width="2.5" paint-order="stroke" stroke-linejoin="round">Sauvegardes</text>
<text x="1029.5" y="380.33333333333337" font-size="10.5" text-anchor="middle" fill="#333" font-style="italic" stroke="white" stroke-width="2.5" paint-order="stroke" stroke-linejoin="round">quotidiennes</text>
<text x="1029.5" y="393.83333333333337" font-size="9" text-anchor="middle" fill="#777" stroke="white" stroke-width="2.5" paint-order="stroke" stroke-linejoin="round">(TCP/9092)</text>
<line x1="20" y1="464" x2="1548" y2="464" stroke="#ddd" stroke-width="1"/>
<text x="20" y="486" font-size="11" font-weight="bold" fill="#555">LÉGENDE</text>
<rect x="150" y="476" width="26" height="14" rx="3" fill="#f5f5f4" stroke="#8a8a85"/>
<text x="182" y="487" font-size="10" fill="#444">Site / centre de données</text>
<rect x="339" y="476" width="26" height="14" rx="3" fill="#ecf3ec" stroke="#6d9a6d" stroke-dasharray="5 3"/>
<text x="371" y="487" font-size="10" fill="#444">Zone réseau</text>
<rect x="461" y="476" width="26" height="14" rx="3" fill="#ffffff" stroke="#55606b"/>
<text x="493" y="487" font-size="10" fill="#444">Serveur / VM</text>
<rect x="588" y="476" width="26" height="14" rx="3" fill="#fff7e6" stroke="#b08d2a"/>
<text x="620" y="487" font-size="10" fill="#444">Application déployée</text>
<rect x="756" y="476" width="26" height="14" rx="3" fill="#f0eef5" stroke="#9187b3" stroke-dasharray="5 3"/>
<text x="788" y="487" font-size="10" fill="#444">Système externe</text>
<line x1="150" y1="506" x2="176" y2="506" stroke="#444444" stroke-width="1.3" marker-end="url(#arr)"/>
<text x="182" y="510" font-size="10" fill="#444">Flux technique (protocole, port)</text>
<text x="150" y="534" font-size="10" fill="#444" font-style="italic">Flux inter-zones filtrés par pare-feu (matrice des flux jointe au dossier d'architecture)</text>
</svg>
