<svg xmlns="http://www.w3.org/2000/svg" viewBox="0 0 1272 485" font-family="Helvetica,Arial,sans-serif">
<defs><marker id="arr" viewBox="0 0 10 10" refX="9" refY="5" markerWidth="7" markerHeight="7" orient="auto-start-reverse">
<path d="M0,0 L10,5 L0,10 z" fill="#444444"/></marker></defs>
<rect width="1272" height="485" fill="white"/>
<rect x="200" y="22" width="875" height="350.5" rx="6" fill="#f5f5f4" stroke="#8a8a85" stroke-width="1.4"/>
<text x="210" y="40" font-size="13" font-weight="bold" fill="#333">Main data center</text>
<rect x="232" y="149" width="136" height="179" rx="6" fill="#ecf3ec" stroke="#6d9a6d" stroke-width="1.2" stroke-dasharray="5 3"/>
<text x="242" y="167" font-size="13" font-weight="bold" fill="#333">DMZ</text>
<rect x="244" y="239" width="112" height="82" rx="6" fill="#ffffff" stroke="#55606b" stroke-width="1.5"/>
<text x="254" y="257" font-size="13" font-weight="bold" fill="#333">Reverse proxy</text>
<text x="254" y="271" font-size="13" font-weight="bold" fill="#333">(HA pair)</text>
<rect x="485" y="146" width="136" height="188" rx="6" fill="#ecf3ec" stroke="#6d9a6d" stroke-width="1.2" stroke-dasharray="5 3"/>
<text x="495" y="164" font-size="13" font-weight="bold" fill="#333">Application zone</text>
<rect x="497" y="171" width="112" height="68" rx="6" fill="#ffffff" stroke="#55606b" stroke-width="1.5"/>
<text x="507" y="189" font-size="13" font-weight="bold" fill="#333">Billing VM</text>
<rect x="497" y="259" width="112" height="68" rx="6" fill="#ffffff" stroke="#55606b" stroke-width="1.5"/>
<text x="507" y="277" font-size="13" font-weight="bold" fill="#333">CRM VM</text>
<rect x="742" y="214" width="326" height="120" rx="6" fill="#ecf3ec" stroke="#6d9a6d" stroke-width="1.2" stroke-dasharray="5 3"/>
<text x="752" y="232" font-size="13" font-weight="bold" fill="#333">Data zone</text>
<rect x="754" y="239" width="112" height="82" rx="6" fill="#ffffff" stroke="#55606b" stroke-width="1.5"/>
<text x="764" y="257" font-size="13" font-weight="bold" fill="#333">Database</text>
<text x="764" y="271" font-size="13" font-weight="bold" fill="#333">server</text>
<rect x="251" y="278" width="98" height="36" rx="4" fill="#fff7e6" stroke="#b08d2a" stroke-width="1.2"/>
<text x="300" y="300" font-size="12.5" text-anchor="middle" fill="#222233">WAF</text>
<rect x="251" y="174" width="98" height="45" rx="4" fill="#ffffff" stroke="#55606b" stroke-width="1.5"/>
<text x="300" y="193.25" font-size="12.5" text-anchor="middle" fill="#222233">Transfer</text>
<text x="300" y="207.75" font-size="12.5" text-anchor="middle" fill="#222233">gateway</text>
<rect x="504" y="196" width="98" height="36" rx="4" fill="#fff7e6" stroke="#b08d2a" stroke-width="1.2"/>
<text x="553" y="218" font-size="12.5" text-anchor="middle" fill="#222233">Billing</text>
<rect x="504" y="284" width="98" height="36" rx="4" fill="#fff7e6" stroke="#b08d2a" stroke-width="1.2"/>
<text x="553" y="306" font-size="12.5" text-anchor="middle" fill="#222233">CRM</text>
<rect x="761" y="278" width="98" height="36" rx="4" fill="#fff7e6" stroke="#b08d2a" stroke-width="1.2"/>
<text x="810" y="300" font-size="12.5" text-anchor="middle" fill="#222233">PostgreSQL</text>
<rect x="963" y="255.5" width="98" height="45" rx="4" fill="#ffffff" stroke="#55606b" stroke-width="1.5"/>
<text x="1012" y="274.75" font-size="12.5" text-anchor="middle" fill="#222233">Backup</text>
<text x="1012" y="289.25" font-size="12.5" text-anchor="middle" fill="#222233">server</text>
<circle cx="54" cy="273" r="7" fill="none" stroke="#445566" stroke-width="1.5"/>
<path d="M 43 295 q 11 -19 22 0" fill="none" stroke="#445566" stroke-width="1.5"/>
<text x="54" y="307" font-size="11" text-anchor="middle" fill="#223344">User</text>
<text x="54" y="318" font-size="11" text-anchor="middle" fill="#223344">workstations</text>
<rect x="1164" y="112" width="98" height="45" rx="4" fill="#f0eef5" stroke="#9187b3" stroke-width="1.2" stroke-dasharray="5 3"/>
<text x="1213" y="131.25" font-size="12.5" text-anchor="middle" fill="#222233">Partner EDI</text>
<text x="1213" y="145.75" font-size="12.5" text-anchor="middle" fill="#222233">platform</text>
<path d="M 98 296 L 251 296" fill="none" stroke="#444444" stroke-width="1.3" marker-end="url(#arr)"/>
<text x="146.5" y="311.5" font-size="11.5" text-anchor="middle" fill="#333" font-style="italic" stroke="white" stroke-width="2.5" paint-order="stroke" stroke-linejoin="round">Web</text>
<text x="146.5" y="326" font-size="11.5" text-anchor="middle" fill="#333" font-style="italic" stroke="white" stroke-width="2.5" paint-order="stroke" stroke-linejoin="round">application</text>
<text x="146.5" y="340.5" font-size="11.5" text-anchor="middle" fill="#333" font-style="italic" stroke="white" stroke-width="2.5" paint-order="stroke" stroke-linejoin="round">access</text>
<text x="146.5" y="355" font-size="9" text-anchor="middle" fill="#777" stroke="white" stroke-width="2.5" paint-order="stroke" stroke-linejoin="round">(HTTPS/443)</text>
<path d="M 349 290 L 470 290 L 470 214 L 504 214" fill="none" stroke="#444444" stroke-width="1.3" marker-end="url(#arr)"/>
<text x="426.5" y="240" font-size="11.5" text-anchor="middle" fill="#333" font-style="italic" stroke="white" stroke-width="2.5" paint-order="stroke" stroke-linejoin="round">Filtered</text>
<text x="426.5" y="254.5" font-size="11.5" text-anchor="middle" fill="#333" font-style="italic" stroke="white" stroke-width="2.5" paint-order="stroke" stroke-linejoin="round">billing</text>
<text x="426.5" y="269" font-size="11.5" text-anchor="middle" fill="#333" font-style="italic" stroke="white" stroke-width="2.5" paint-order="stroke" stroke-linejoin="round">traffic</text>
<text x="426.5" y="283.5" font-size="9" text-anchor="middle" fill="#777" stroke="white" stroke-width="2.5" paint-order="stroke" stroke-linejoin="round">(HTTPS/8443)</text>
<path d="M 349 302 L 504 302" fill="none" stroke="#444444" stroke-width="1.3" marker-end="url(#arr)"/>
<text x="426.5" y="317.5" font-size="11.5" text-anchor="middle" fill="#333" font-style="italic" stroke="white" stroke-width="2.5" paint-order="stroke" stroke-linejoin="round">Filtered</text>
<text x="426.5" y="332" font-size="11.5" text-anchor="middle" fill="#333" font-style="italic" stroke="white" stroke-width="2.5" paint-order="stroke" stroke-linejoin="round">CRM</text>
<text x="426.5" y="346.5" font-size="11.5" text-anchor="middle" fill="#333" font-style="italic" stroke="white" stroke-width="2.5" paint-order="stroke" stroke-linejoin="round">traffic</text>
<text x="426.5" y="361" font-size="9" text-anchor="middle" fill="#777" stroke="white" stroke-width="2.5" paint-order="stroke" stroke-linejoin="round">(HTTPS/8444)</text>
<path d="M 602 220 L 727 220 L 727 290 L 761 290" fill="none" stroke="#444444" stroke-width="1.3" marker-end="url(#arr)"/>
<text x="681.5" y="170" font-size="11.5" text-anchor="middle" fill="#333" font-style="italic" stroke="white" stroke-width="2.5" paint-order="stroke" stroke-linejoin="round">Read/write</text>
<text x="681.5" y="184.5" font-size="11.5" text-anchor="middle" fill="#333" font-style="italic" stroke="white" stroke-width="2.5" paint-order="stroke" stroke-linejoin="round">billing</text>
<text x="681.5" y="199" font-size="11.5" text-anchor="middle" fill="#333" font-style="italic" stroke="white" stroke-width="2.5" paint-order="stroke" stroke-linejoin="round">data</text>
<text x="681.5" y="213.5" font-size="9" text-anchor="middle" fill="#777" stroke="white" stroke-width="2.5" paint-order="stroke" stroke-linejoin="round">(TCP/5432)</text>
<path d="M 602 302 L 761 302" fill="none" stroke="#444444" stroke-width="1.3" marker-end="url(#arr)"/>
<text x="681.5" y="317.5" font-size="11.5" text-anchor="middle" fill="#333" font-style="italic" stroke="white" stroke-width="2.5" paint-order="stroke" stroke-linejoin="round">Read/write</text>
<text x="681.5" y="332" font-size="11.5" text-anchor="middle" fill="#333" font-style="italic" stroke="white" stroke-width="2.5" paint-order="stroke" stroke-linejoin="round">customer</text>
<text x="681.5" y="346.5" font-size="11.5" text-anchor="middle" fill="#333" font-style="italic" stroke="white" stroke-width="2.5" paint-order="stroke" stroke-linejoin="round">data</text>
<text x="681.5" y="361" font-size="9" text-anchor="middle" fill="#777" stroke="white" stroke-width="2.5" paint-order="stroke" stroke-linejoin="round">(TCP/5432)</text>
<path d="M 602 208 L 636 208 L 636 47 L 217 47 L 217 196.5 L 251 196.5" fill="none" stroke="#444444" stroke-width="1.3" marker-end="url(#arr)"/>
<text x="426.5" y="62.5" font-size="11.5" text-anchor="middle" fill="#333" font-style="italic" stroke="white" stroke-width="2.5" paint-order="stroke" stroke-linejoin="round">Drop</text>
<text x="426.5" y="77" font-size="11.5" text-anchor="middle" fill="#333" font-style="italic" stroke="white" stroke-width="2.5" paint-order="stroke" stroke-linejoin="round">invoices</text>
<text x="426.5" y="91.5" font-size="11.5" text-anchor="middle" fill="#333" font-style="italic" stroke="white" stroke-width="2.5" paint-order="stroke" stroke-linejoin="round">to</text>
<text x="426.5" y="106" font-size="11.5" text-anchor="middle" fill="#333" font-style="italic" stroke="white" stroke-width="2.5" paint-order="stroke" stroke-linejoin="round">transmit</text>
<text x="426.5" y="120.5" font-size="9" text-anchor="middle" fill="#777" stroke="white" stroke-width="2.5" paint-order="stroke" stroke-linejoin="round">(SFTP/22)</text>
<path d="M 349 196.5 L 383 196.5 L 383 135 L 631 135 A 5 5 0 0 1 641 135 L 1164 135" fill="none" stroke="#444444" stroke-width="1.3" marker-end="url(#arr)"/>
<text x="1122" y="150.5" font-size="11.5" text-anchor="middle" fill="#333" font-style="italic" stroke="white" stroke-width="2.5" paint-order="stroke" stroke-linejoin="round">Partner</text>
<text x="1122" y="165" font-size="11.5" text-anchor="middle" fill="#333" font-style="italic" stroke="white" stroke-width="2.5" paint-order="stroke" stroke-linejoin="round">transfers</text>
<text x="1122" y="179.5" font-size="9" text-anchor="middle" fill="#777" stroke="white" stroke-width="2.5" paint-order="stroke" stroke-linejoin="round">(AS4/443)</text>
<path d="M 866 278 L 963 278" fill="none" stroke="#444444" stroke-width="1.3" marker-end="url(#arr)"/>
<text x="914.5" y="293.5" font-size="11.5" text-anchor="middle" fill="#333" font-style="italic" stroke="white" stroke-width="2.5" paint-order="stroke" stroke-linejoin="round">Daily</text>
<text x="914.5" y="308" font-size="11.5" text-anchor="middle" fill="#333" font-style="italic" stroke="white" stroke-width="2.5" paint-order="stroke" stroke-linejoin="round">backups</text>
<text x="914.5" y="322.5" font-size="9" text-anchor="middle" fill="#777" stroke="white" stroke-width="2.5" paint-order="stroke" stroke-linejoin="round">(TCP/9092)</text>
<line x1="20" y1="393" x2="1252" y2="393" stroke="#ddd" stroke-width="1"/>
<text x="20" y="415" font-size="11" font-weight="bold" fill="#555">LEGEND</text>
<rect x="150" y="405" width="26" height="14" rx="3" fill="#f5f5f4" stroke="#8a8a85"/>
<text x="182" y="416" font-size="10" fill="#444">Site / data center</text>
<rect x="308" y="405" width="26" height="14" rx="3" fill="#ecf3ec" stroke="#6d9a6d" stroke-dasharray="5 3"/>
<text x="340" y="416" font-size="10" fill="#444">Network zone</text>
<rect x="435" y="405" width="26" height="14" rx="3" fill="#ffffff" stroke="#55606b"/>
<text x="467" y="416" font-size="10" fill="#444">Server / VM</text>
<rect x="557" y="405" width="26" height="14" rx="3" fill="#fff7e6" stroke="#b08d2a"/>
<text x="589" y="416" font-size="10" fill="#444">Deployed application</text>
<circle cx="738" cy="408" r="3" fill="none" stroke="#445566" stroke-width="1.2"/>
<path d="M 733 418 q 5 -7 10 0" fill="none" stroke="#445566" stroke-width="1.2"/>
<text x="757" y="416" font-size="10" fill="#444">User / consumer</text>
<rect x="867" y="405" width="26" height="14" rx="3" fill="#f0eef5" stroke="#9187b3" stroke-dasharray="5 3"/>
<text x="899" y="416" font-size="10" fill="#444">External system</text>
<line x1="150" y1="435" x2="176" y2="435" stroke="#444444" stroke-width="1.3" marker-end="url(#arr)"/>
<text x="182" y="439" font-size="10" fill="#444">Technical flow (protocol, port)</text>
<text x="150" y="463" font-size="10" fill="#444" font-style="italic">Inter-zone flows filtered by firewall (flow matrix attached to the architecture dossier)</text>
</svg>
