<svg xmlns="http://www.w3.org/2000/svg" viewBox="0 0 1550 461" font-family="Helvetica,Arial,sans-serif">
<defs><marker id="arr" viewBox="0 0 10 10" refX="9" refY="5" markerWidth="7" markerHeight="7" orient="auto-start-reverse">
<path d="M0,0 L10,5 L0,10 z" fill="#444444"/></marker></defs>
<rect width="1550" height="461" fill="white"/>
<rect x="235" y="22" width="1085" height="327" rx="6" fill="#f5f5f4" stroke="#8a8a85" stroke-width="1.4"/>
<text x="245" y="40" font-size="12" font-weight="bold" fill="#333">Centre de données principal</text>
<rect x="270" y="128.33333333333331" width="162" height="197" rx="6" fill="#ecf3ec" stroke="#6d9a6d" stroke-width="1.2" stroke-dasharray="5 3"/>
<text x="280" y="146.33333333333331" font-size="12" font-weight="bold" fill="#333">DMZ</text>
<rect x="285" y="224.33333333333331" width="132" height="91" rx="6" fill="#ffffff" stroke="#55606b" stroke-width="1.5"/>
<text x="295" y="242.33333333333331" font-size="12" font-weight="bold" fill="#333">Reverse proxy</text>
<text x="295" y="255.33333333333331" font-size="12" font-weight="bold" fill="#333">(paire HA)</text>
<rect x="594" y="118" width="162" height="214" rx="6" fill="#ecf3ec" stroke="#6d9a6d" stroke-width="1.2" stroke-dasharray="5 3"/>
<text x="604" y="136" font-size="12" font-weight="bold" fill="#333">Zone applicative</text>
<rect x="609" y="146" width="132" height="78" rx="6" fill="#ffffff" stroke="#55606b" stroke-width="1.5"/>
<text x="619" y="164" font-size="12" font-weight="bold" fill="#333">VM Facturation</text>
<rect x="609" y="244" width="132" height="78" rx="6" fill="#ffffff" stroke="#55606b" stroke-width="1.5"/>
<text x="619" y="262" font-size="12" font-weight="bold" fill="#333">VM CRM</text>
<rect x="924" y="196.33333333333331" width="386" height="129" rx="6" fill="#ecf3ec" stroke="#6d9a6d" stroke-width="1.2" stroke-dasharray="5 3"/>
<text x="934" y="214.33333333333331" font-size="12" font-weight="bold" fill="#333">Zone de données</text>
<rect x="939" y="224.33333333333331" width="132" height="91" rx="6" fill="#ffffff" stroke="#55606b" stroke-width="1.5"/>
<text x="949" y="242.33333333333331" font-size="12" font-weight="bold" fill="#333">Serveur de</text>
<text x="949" y="255.33333333333331" font-size="12" font-weight="bold" fill="#333">base de données</text>
<rect x="295" y="265.3333333333333" width="112" height="40" rx="4" fill="#fff7e6" stroke="#b08d2a" stroke-width="1.2"/>
<text x="351" y="289.3333333333333" font-size="11.5" text-anchor="middle" fill="#222233">WAF</text>
<rect x="295" y="156.33333333333331" width="112" height="48" rx="4" fill="#ffffff" stroke="#55606b" stroke-width="1.5"/>
<text x="351" y="177.58333333333331" font-size="11.5" text-anchor="middle" fill="#222233">Passerelle</text>
<text x="351" y="191.08333333333331" font-size="11.5" text-anchor="middle" fill="#222233">de transfert</text>
<rect x="619" y="174" width="112" height="40" rx="4" fill="#fff7e6" stroke="#b08d2a" stroke-width="1.2"/>
<text x="675" y="198" font-size="11.5" text-anchor="middle" fill="#222233">Facturation</text>
<rect x="619" y="272" width="112" height="40" rx="4" fill="#fff7e6" stroke="#b08d2a" stroke-width="1.2"/>
<text x="675" y="296" font-size="11.5" text-anchor="middle" fill="#222233">CRM</text>
<rect x="949" y="265.3333333333333" width="112" height="40" rx="4" fill="#fff7e6" stroke="#b08d2a" stroke-width="1.2"/>
<text x="1005" y="289.3333333333333" font-size="11.5" text-anchor="middle" fill="#222233">PostgreSQL</text>
<rect x="1188" y="241.33333333333331" width="112" height="48" rx="4" fill="#ffffff" stroke="#55606b" stroke-width="1.5"/>
<text x="1244" y="262.5833333333333" font-size="11.5" text-anchor="middle" fill="#222233">Serveur de</text>
<text x="1244" y="276.0833333333333" font-size="11.5" text-anchor="middle" fill="#222233">sauvegarde</text>
<circle cx="51" cy="261" r="7" fill="none" stroke="#445566" stroke-width="1.5"/>
<path d="M 40 283 q 11 -19 22 0" fill="none" stroke="#445566" stroke-width="1.5"/>
<text x="51" y="295" font-size="10" text-anchor="middle" fill="#223344">Postes</text>
<text x="51" y="306" font-size="10" text-anchor="middle" fill="#223344">utilisateurs</text>
<rect x="1428" y="83" width="112" height="48" rx="4" fill="#f0eef5" stroke="#9187b3" stroke-width="1.2" stroke-dasharray="5 3"/>
<text x="1484" y="104.25" font-size="11.5" text-anchor="middle" fill="#222233">Plateforme EDI</text>
<text x="1484" y="117.75" font-size="11.5" text-anchor="middle" fill="#222233">partenaire</text>
<path d="M 92 285 L 230 285.3333333333333 L 295 285.3333333333333" fill="none" stroke="#444444" stroke-width="1.3" marker-end="url(#arr)"/>
<text x="161" y="299.5" font-size="10.5" text-anchor="middle" fill="#333" font-style="italic" stroke="white" stroke-width="2.5" paint-order="stroke" stroke-linejoin="round">Accès application</text>
<text x="161" y="313" font-size="10.5" text-anchor="middle" fill="#333" font-style="italic" stroke="white" stroke-width="2.5" paint-order="stroke" stroke-linejoin="round">web</text>
<text x="161" y="326.5" font-size="9" text-anchor="middle" fill="#777" stroke="white" stroke-width="2.5" paint-order="stroke" stroke-linejoin="round">(HTTPS/443)</text>
<path d="M 407 278.66666666666663 L 579 278.66666666666663 L 579 194 L 619 194" fill="none" stroke="#444444" stroke-width="1.3" marker-end="url(#arr)"/>
<text x="513" y="244.16666666666666" font-size="10.5" text-anchor="middle" fill="#333" font-style="italic" stroke="white" stroke-width="2.5" paint-order="stroke" stroke-linejoin="round">Trafic facturation</text>
<text x="513" y="257.66666666666663" font-size="10.5" text-anchor="middle" fill="#333" font-style="italic" stroke="white" stroke-width="2.5" paint-order="stroke" stroke-linejoin="round">filtré</text>
<text x="513" y="271.16666666666663" font-size="9" text-anchor="middle" fill="#777" stroke="white" stroke-width="2.5" paint-order="stroke" stroke-linejoin="round">(HTTPS/8443)</text>
<path d="M 407 292 L 619 292" fill="none" stroke="#444444" stroke-width="1.3" marker-end="url(#arr)"/>
<text x="513" y="306.5" font-size="10.5" text-anchor="middle" fill="#333" font-style="italic" stroke="white" stroke-width="2.5" paint-order="stroke" stroke-linejoin="round">Trafic CRM</text>
<text x="513" y="320" font-size="10.5" text-anchor="middle" fill="#333" font-style="italic" stroke="white" stroke-width="2.5" paint-order="stroke" stroke-linejoin="round">filtré</text>
<text x="513" y="333.5" font-size="9" text-anchor="middle" fill="#777" stroke="white" stroke-width="2.5" paint-order="stroke" stroke-linejoin="round">(HTTPS/8444)</text>
<path d="M 731 200.66666666666666 L 909 200.66666666666669 L 909 278.6666666666667 L 949 278.66666666666663" fill="none" stroke="#444444" stroke-width="1.3" marker-end="url(#arr)"/>
<text x="840" y="166.16666666666669" font-size="10.5" text-anchor="middle" fill="#333" font-style="italic" stroke="white" stroke-width="2.5" paint-order="stroke" stroke-linejoin="round">Lecture/écriture</text>
<text x="840" y="179.66666666666669" font-size="10.5" text-anchor="middle" fill="#333" font-style="italic" stroke="white" stroke-width="2.5" paint-order="stroke" stroke-linejoin="round">données facturation</text>
<text x="840" y="193.16666666666669" font-size="9" text-anchor="middle" fill="#777" stroke="white" stroke-width="2.5" paint-order="stroke" stroke-linejoin="round">(TCP/5432)</text>
<path d="M 731 292 L 949 292" fill="none" stroke="#444444" stroke-width="1.3" marker-end="url(#arr)"/>
<text x="840" y="306.5" font-size="10.5" text-anchor="middle" fill="#333" font-style="italic" stroke="white" stroke-width="2.5" paint-order="stroke" stroke-linejoin="round">Lecture/écriture</text>
<text x="840" y="320" font-size="10.5" text-anchor="middle" fill="#333" font-style="italic" stroke="white" stroke-width="2.5" paint-order="stroke" stroke-linejoin="round">données clients</text>
<text x="840" y="333.5" font-size="9" text-anchor="middle" fill="#777" stroke="white" stroke-width="2.5" paint-order="stroke" stroke-linejoin="round">(TCP/5432)</text>
<path d="M 731 187.33333333333334 L 771 187.33333333333334 L 771 50 L 255 50 L 255 180.33333333333331 L 295 180.33333333333331" fill="none" stroke="#444444" stroke-width="1.3" marker-end="url(#arr)"/>
<text x="513" y="64.5" font-size="10.5" text-anchor="middle" fill="#333" font-style="italic" stroke="white" stroke-width="2.5" paint-order="stroke" stroke-linejoin="round">Dépôt des factures</text>
<text x="513" y="78" font-size="10.5" text-anchor="middle" fill="#333" font-style="italic" stroke="white" stroke-width="2.5" paint-order="stroke" stroke-linejoin="round">à transmettre</text>
<text x="513" y="91.5" font-size="9" text-anchor="middle" fill="#777" stroke="white" stroke-width="2.5" paint-order="stroke" stroke-linejoin="round">(SFTP/22)</text>
<path d="M 407 180.33333333333331 L 447 180.33333333333331 L 447 107 L 766 107 A 5 5 0 0 1 776 107 L 1428 107" fill="none" stroke="#444444" stroke-width="1.3" marker-end="url(#arr)"/>
<text x="1376.5" y="121.5" font-size="10.5" text-anchor="middle" fill="#333" font-style="italic" stroke="white" stroke-width="2.5" paint-order="stroke" stroke-linejoin="round">Transferts</text>
<text x="1376.5" y="135" font-size="10.5" text-anchor="middle" fill="#333" font-style="italic" stroke="white" stroke-width="2.5" paint-order="stroke" stroke-linejoin="round">partenaires</text>
<text x="1376.5" y="148.5" font-size="9" text-anchor="middle" fill="#777" stroke="white" stroke-width="2.5" paint-order="stroke" stroke-linejoin="round">(AS4/443)</text>
<path d="M 1071 265.3333333333333 L 1188 265.3333333333333" fill="none" stroke="#444444" stroke-width="1.3" marker-end="url(#arr)"/>
<text x="1129.5" y="279.8333333333333" font-size="10.5" text-anchor="middle" fill="#333" font-style="italic" stroke="white" stroke-width="2.5" paint-order="stroke" stroke-linejoin="round">Sauvegardes</text>
<text x="1129.5" y="293.3333333333333" font-size="10.5" text-anchor="middle" fill="#333" font-style="italic" stroke="white" stroke-width="2.5" paint-order="stroke" stroke-linejoin="round">quotidiennes</text>
<text x="1129.5" y="306.8333333333333" font-size="9" text-anchor="middle" fill="#777" stroke="white" stroke-width="2.5" paint-order="stroke" stroke-linejoin="round">(TCP/9092)</text>
<line x1="20" y1="369" x2="1530" y2="369" stroke="#ddd" stroke-width="1"/>
<text x="20" y="391" font-size="11" font-weight="bold" fill="#555">LÉGENDE</text>
<rect x="150" y="381" width="26" height="14" rx="3" fill="#f5f5f4" stroke="#8a8a85"/>
<text x="182" y="392" font-size="10" fill="#444">Site / centre de données</text>
<rect x="339" y="381" width="26" height="14" rx="3" fill="#ecf3ec" stroke="#6d9a6d" stroke-dasharray="5 3"/>
<text x="371" y="392" font-size="10" fill="#444">Zone réseau</text>
<rect x="461" y="381" width="26" height="14" rx="3" fill="#ffffff" stroke="#55606b"/>
<text x="493" y="392" font-size="10" fill="#444">Serveur / VM</text>
<rect x="588" y="381" width="26" height="14" rx="3" fill="#fff7e6" stroke="#b08d2a"/>
<text x="620" y="392" font-size="10" fill="#444">Application déployée</text>
<circle cx="769" cy="384" r="3" fill="none" stroke="#445566" stroke-width="1.2"/>
<path d="M 764 394 q 5 -7 10 0" fill="none" stroke="#445566" stroke-width="1.2"/>
<text x="788" y="392" font-size="10" fill="#444">Utilisateur / consommateur</text>
<rect x="956" y="381" width="26" height="14" rx="3" fill="#f0eef5" stroke="#9187b3" stroke-dasharray="5 3"/>
<text x="988" y="392" font-size="10" fill="#444">Système externe</text>
<line x1="150" y1="411" x2="176" y2="411" stroke="#444444" stroke-width="1.3" marker-end="url(#arr)"/>
<text x="182" y="415" font-size="10" fill="#444">Flux technique (protocole, port)</text>
<text x="150" y="439" font-size="10" fill="#444" font-style="italic">Flux inter-zones filtrés par pare-feu (matrice des flux jointe au dossier d'architecture)</text>
</svg>
