<svg xmlns="http://www.w3.org/2000/svg" viewBox="0 0 2549 539" font-family="Helvetica,Arial,sans-serif">
<defs><marker id="arr" viewBox="0 0 10 10" refX="9" refY="5" markerWidth="7" markerHeight="7" orient="auto-start-reverse">
<path d="M0,0 L10,5 L0,10 z" fill="#444444"/></marker></defs>
<rect width="2549" height="539" fill="white"/>
<rect x="235" y="30" width="1455" height="394.74999999999994" rx="6" fill="#f5f5f4" stroke="#8a8a85" stroke-width="1.4"/>
<text x="245" y="48" font-size="12" font-weight="bold" fill="#333">Main data center</text>
<rect x="272" y="60" width="440" height="191.5" rx="6" fill="#ecf3ec" stroke="#6d9a6d" stroke-width="1.2" stroke-dasharray="5 3"/>
<text x="282" y="78" font-size="12" font-weight="bold" fill="#333">DMZ</text>
<rect x="531" y="126.5" width="164" height="101" rx="6" fill="#ffffff" stroke="#55606b" stroke-width="1.5"/>
<text x="541" y="144.5" font-size="12" font-weight="bold" fill="#333">Reverse proxies</text>
<text x="541" y="157.5" font-size="12" font-weight="bold" fill="#333">(HA)</text>
<rect x="829" y="86.33333333333333" width="499" height="239" rx="6" fill="#ecf3ec" stroke="#6d9a6d" stroke-width="1.2" stroke-dasharray="5 3"/>
<text x="839" y="104.33333333333333" font-size="12" font-weight="bold" fill="#333">Application zone</text>
<rect x="846" y="118.83333333333333" width="164" height="167" rx="6" fill="#ffffff" stroke="#55606b" stroke-width="1.5"/>
<text x="856" y="136.83333333333331" font-size="12" font-weight="bold" fill="#333">K8s cluster</text>
<text x="856" y="149.83333333333331" font-size="12" font-weight="bold" fill="#333">front</text>
<rect x="1127" y="116.33333333333333" width="164" height="177" rx="6" fill="#ffffff" stroke="#55606b" stroke-width="1.5"/>
<text x="1137" y="134.33333333333331" font-size="12" font-weight="bold" fill="#333">K8s cluster</text>
<text x="1137" y="147.33333333333331" font-size="12" font-weight="bold" fill="#333">business</text>
<rect x="1475" y="136.08333333333331" width="198" height="269" rx="6" fill="#ecf3ec" stroke="#6d9a6d" stroke-width="1.2" stroke-dasharray="5 3"/>
<text x="1485" y="154.08333333333331" font-size="12" font-weight="bold" fill="#333">Data zone</text>
<rect x="1492" y="166.08333333333331" width="164" height="106" rx="6" fill="#ffffff" stroke="#55606b" stroke-width="1.5"/>
<text x="1502" y="184.08333333333331" font-size="12" font-weight="bold" fill="#333">PostgreSQL</text>
<text x="1502" y="197.08333333333331" font-size="12" font-weight="bold" fill="#333">cluster</text>
<rect x="1492" y="292.0833333333333" width="164" height="101" rx="6" fill="#ffffff" stroke="#55606b" stroke-width="1.5"/>
<text x="1502" y="310.0833333333333" font-size="12" font-weight="bold" fill="#333">Kafka</text>
<text x="1502" y="323.0833333333333" font-size="12" font-weight="bold" fill="#333">cluster</text>
<rect x="1894" y="147" width="459" height="204" rx="6" fill="#f5f5f4" stroke="#8a8a85" stroke-width="1.4"/>
<text x="1904" y="165" font-size="12" font-weight="bold" fill="#333">Disaster-recovery site</text>
<rect x="1911" y="177" width="430" height="162" rx="6" fill="#ecf3ec" stroke="#6d9a6d" stroke-width="1.2" stroke-dasharray="5 3"/>
<text x="1921" y="195" font-size="12" font-weight="bold" fill="#333">DR data zone</text>
<rect x="1928" y="210" width="164" height="106" rx="6" fill="#ffffff" stroke="#55606b" stroke-width="1.5"/>
<text x="1938" y="228" font-size="12" font-weight="bold" fill="#333">PostgreSQL</text>
<text x="1938" y="241" font-size="12" font-weight="bold" fill="#333">standby</text>
<rect x="284" y="167" width="140" height="51" rx="4" fill="#ffffff" stroke="#55606b" stroke-width="1.5"/>
<text x="354" y="189.75" font-size="11.5" text-anchor="middle" fill="#222233">Application</text>
<text x="354" y="203.25" font-size="11.5" text-anchor="middle" fill="#222233">firewall (WAF)</text>
<rect x="543" y="169.5" width="140" height="46" rx="4" fill="#fff7e6" stroke="#b08d2a" stroke-width="1.2"/>
<text x="613" y="196.5" font-size="11.5" text-anchor="middle" fill="#222233">Nginx</text>
<rect x="284" y="90" width="140" height="51" rx="4" fill="#ffffff" stroke="#55606b" stroke-width="1.5"/>
<text x="354" y="112.75" font-size="11.5" text-anchor="middle" fill="#222233">Transfer</text>
<text x="354" y="126.25" font-size="11.5" text-anchor="middle" fill="#222233">gateway</text>
<rect x="858" y="227.83333333333331" width="140" height="46" rx="4" fill="#fff7e6" stroke="#b08d2a" stroke-width="1.2"/>
<text x="928" y="254.83333333333331" font-size="11.5" text-anchor="middle" fill="#222233">Sales front</text>
<rect x="858" y="161.83333333333331" width="140" height="46" rx="4" fill="#fff7e6" stroke="#b08d2a" stroke-width="1.2"/>
<text x="928" y="188.83333333333331" font-size="11.5" text-anchor="middle" fill="#222233">Checkout funnel</text>
<rect x="1139" y="230.33333333333331" width="140" height="51" rx="4" fill="#fff7e6" stroke="#b08d2a" stroke-width="1.2"/>
<text x="1209" y="253.08333333333331" font-size="11.5" text-anchor="middle" fill="#222233">Order</text>
<text x="1209" y="266.5833333333333" font-size="11.5" text-anchor="middle" fill="#222233">management</text>
<rect x="1139" y="159.33333333333331" width="140" height="51" rx="4" fill="#fff7e6" stroke="#b08d2a" stroke-width="1.2"/>
<text x="1209" y="182.08333333333331" font-size="11.5" text-anchor="middle" fill="#222233">Payment</text>
<text x="1209" y="195.58333333333331" font-size="11.5" text-anchor="middle" fill="#222233">hub</text>
<rect x="1504" y="209.08333333333331" width="140" height="51" rx="4" fill="#fff7e6" stroke="#b08d2a" stroke-width="1.2"/>
<text x="1574" y="231.83333333333331" font-size="11.5" text-anchor="middle" fill="#222233">PostgreSQL</text>
<text x="1574" y="245.33333333333331" font-size="11.5" text-anchor="middle" fill="#222233">primary</text>
<rect x="1504" y="335.0833333333333" width="140" height="46" rx="4" fill="#fff7e6" stroke="#b08d2a" stroke-width="1.2"/>
<text x="1574" y="362.0833333333333" font-size="11.5" text-anchor="middle" fill="#222233">Kafka</text>
<rect x="1940" y="253" width="140" height="51" rx="4" fill="#fff7e6" stroke="#b08d2a" stroke-width="1.2"/>
<text x="2010" y="275.75" font-size="11.5" text-anchor="middle" fill="#222233">PostgreSQL</text>
<text x="2010" y="289.25" font-size="11.5" text-anchor="middle" fill="#222233">replica</text>
<rect x="2189" y="236" width="140" height="51" rx="4" fill="#ffffff" stroke="#55606b" stroke-width="1.5"/>
<text x="2259" y="258.75" font-size="11.5" text-anchor="middle" fill="#222233">Backup</text>
<text x="2259" y="272.25" font-size="11.5" text-anchor="middle" fill="#222233">server</text>
<circle cx="44.5" cy="169" r="7" fill="none" stroke="#445566" stroke-width="1.5"/>
<path d="M 33.5 191 q 11 -19 22 0" fill="none" stroke="#445566" stroke-width="1.5"/>
<text x="44.5" y="203" font-size="10" text-anchor="middle" fill="#223344">Internet</text>
<text x="44.5" y="214" font-size="10" text-anchor="middle" fill="#223344">customers</text>
<rect x="2397" y="116" width="140" height="46" rx="4" fill="#f0eef5" stroke="#9187b3" stroke-width="1.2" stroke-dasharray="5 3"/>
<text x="2467" y="143" font-size="11.5" text-anchor="middle" fill="#222233">PSP</text>
<rect x="1842" y="49" width="140" height="51" rx="4" fill="#f0eef5" stroke="#9187b3" stroke-width="1.2" stroke-dasharray="5 3"/>
<text x="1912" y="71.75" font-size="11.5" text-anchor="middle" fill="#222233">Carrier</text>
<text x="1912" y="85.25" font-size="11.5" text-anchor="middle" fill="#222233">platforms</text>
<path d="M 77 193 L 230 192.5 L 252 192.5 A 5 5 0 0 1 262 192.5 L 284 192.5" fill="none" stroke="#444444" stroke-width="1.3" marker-end="url(#arr)"/>
<text x="153.5" y="208.5" font-size="10.5" text-anchor="middle" fill="#333" font-style="italic" stroke="white" stroke-width="2.5" paint-order="stroke" stroke-linejoin="round">Client web</text>
<text x="153.5" y="222" font-size="10.5" text-anchor="middle" fill="#333" font-style="italic" stroke="white" stroke-width="2.5" paint-order="stroke" stroke-linejoin="round">traffic</text>
<text x="153.5" y="235.5" font-size="9" text-anchor="middle" fill="#777" stroke="white" stroke-width="2.5" paint-order="stroke" stroke-linejoin="round">(HTTPS/443)</text>
<path d="M 424 192.5 L 543 192.5" fill="none" stroke="#444444" stroke-width="1.3" marker-end="url(#arr)"/>
<text x="475" y="207" font-size="10.5" text-anchor="middle" fill="#333" font-style="italic" stroke="white" stroke-width="2.5" paint-order="stroke" stroke-linejoin="round">Filtered</text>
<text x="475" y="220.5" font-size="10.5" text-anchor="middle" fill="#333" font-style="italic" stroke="white" stroke-width="2.5" paint-order="stroke" stroke-linejoin="round">traffic</text>
<text x="475" y="234" font-size="9" text-anchor="middle" fill="#777" stroke="white" stroke-width="2.5" paint-order="stroke" stroke-linejoin="round">(HTTPS/443)</text>
<path d="M 683 200.16666666666666 L 727 200.16666666666666 L 727 250.83333333333331 L 858 250.83333333333331" fill="none" stroke="#444444" stroke-width="1.3" marker-end="url(#arr)"/>
<text x="770.5" y="265.3333333333333" font-size="10.5" text-anchor="middle" fill="#333" font-style="italic" stroke="white" stroke-width="2.5" paint-order="stroke" stroke-linejoin="round">Front</text>
<text x="770.5" y="278.8333333333333" font-size="10.5" text-anchor="middle" fill="#333" font-style="italic" stroke="white" stroke-width="2.5" paint-order="stroke" stroke-linejoin="round">routing</text>
<text x="770.5" y="292.3333333333333" font-size="9" text-anchor="middle" fill="#777" stroke="white" stroke-width="2.5" paint-order="stroke" stroke-linejoin="round">(HTTPS/8443)</text>
<path d="M 683 184.83333333333334 L 858 184.83333333333331" fill="none" stroke="#444444" stroke-width="1.3" marker-end="url(#arr)"/>
<text x="770.5" y="199.33333333333331" font-size="10.5" text-anchor="middle" fill="#333" font-style="italic" stroke="white" stroke-width="2.5" paint-order="stroke" stroke-linejoin="round">Checkout</text>
<text x="770.5" y="212.83333333333331" font-size="10.5" text-anchor="middle" fill="#333" font-style="italic" stroke="white" stroke-width="2.5" paint-order="stroke" stroke-linejoin="round">routing</text>
<text x="770.5" y="226.33333333333331" font-size="9" text-anchor="middle" fill="#777" stroke="white" stroke-width="2.5" paint-order="stroke" stroke-linejoin="round">(HTTPS/8444)</text>
<path d="M 998 243.16666666666663 L 1112 243.16666666666663 L 1112 255.83333333333331 L 1139 255.83333333333331" fill="none" stroke="#444444" stroke-width="1.3" marker-end="url(#arr)"/>
<text x="1068.5" y="257.66666666666663" font-size="10.5" text-anchor="middle" fill="#333" font-style="italic" stroke="white" stroke-width="2.5" paint-order="stroke" stroke-linejoin="round">Orders</text>
<text x="1068.5" y="271.16666666666663" font-size="10.5" text-anchor="middle" fill="#333" font-style="italic" stroke="white" stroke-width="2.5" paint-order="stroke" stroke-linejoin="round">API</text>
<text x="1068.5" y="284.66666666666663" font-size="9" text-anchor="middle" fill="#777" stroke="white" stroke-width="2.5" paint-order="stroke" stroke-linejoin="round">(HTTPS/8443)</text>
<path d="M 998 184.83333333333331 L 1139 184.83333333333331" fill="none" stroke="#444444" stroke-width="1.3" marker-end="url(#arr)"/>
<text x="1068.5" y="150.33333333333331" font-size="10.5" text-anchor="middle" fill="#333" font-style="italic" stroke="white" stroke-width="2.5" paint-order="stroke" stroke-linejoin="round">Payment</text>
<text x="1068.5" y="163.83333333333331" font-size="10.5" text-anchor="middle" fill="#333" font-style="italic" stroke="white" stroke-width="2.5" paint-order="stroke" stroke-linejoin="round">API</text>
<text x="1068.5" y="177.33333333333331" font-size="9" text-anchor="middle" fill="#777" stroke="white" stroke-width="2.5" paint-order="stroke" stroke-linejoin="round">(HTTPS/8445)</text>
<path d="M 1279 176.33333333333331 L 1343 176.33333333333331 L 1343 125.08333333333331 L 1695 125 L 1729 125 L 1729 134 L 1855 134 L 1855 139 L 2397 139" fill="none" stroke="#444444" stroke-width="1.3" marker-end="url(#arr)"/>
<text x="1792" y="149.5" font-size="10.5" text-anchor="middle" fill="#333" font-style="italic" stroke="white" stroke-width="2.5" paint-order="stroke" stroke-linejoin="round">Authorization and</text>
<text x="1792" y="163" font-size="10.5" text-anchor="middle" fill="#333" font-style="italic" stroke="white" stroke-width="2.5" paint-order="stroke" stroke-linejoin="round">capture</text>
<text x="1792" y="176.5" font-size="9" text-anchor="middle" fill="#777" stroke="white" stroke-width="2.5" paint-order="stroke" stroke-linejoin="round">(HTTPS/443)</text>
<path d="M 1279 243.08333333333331 L 1504 243.08333333333331" fill="none" stroke="#444444" stroke-width="1.3" marker-end="url(#arr)"/>
<text x="1411.5" y="257.5833333333333" font-size="10.5" text-anchor="middle" fill="#333" font-style="italic" stroke="white" stroke-width="2.5" paint-order="stroke" stroke-linejoin="round">Read/write</text>
<text x="1411.5" y="271.0833333333333" font-size="10.5" text-anchor="middle" fill="#333" font-style="italic" stroke="white" stroke-width="2.5" paint-order="stroke" stroke-linejoin="round">orders</text>
<text x="1411.5" y="284.5833333333333" font-size="9" text-anchor="middle" fill="#777" stroke="white" stroke-width="2.5" paint-order="stroke" stroke-linejoin="round">(TCP/5432)</text>
<path d="M 1279 193.33333333333331 L 1343 193.33333333333331 L 1343 186.08333333333331 L 1460 186.08333333333331 L 1460 226.08333333333331 L 1504 226.08333333333331" fill="none" stroke="#444444" stroke-width="1.3" marker-end="url(#arr)"/>
<text x="1411.5" y="200.58333333333331" font-size="10.5" text-anchor="middle" fill="#333" font-style="italic" stroke="white" stroke-width="2.5" paint-order="stroke" stroke-linejoin="round">Read/write</text>
<text x="1411.5" y="214.08333333333331" font-size="10.5" text-anchor="middle" fill="#333" font-style="italic" stroke="white" stroke-width="2.5" paint-order="stroke" stroke-linejoin="round">transactions</text>
<text x="1411.5" y="227.58333333333331" font-size="9" text-anchor="middle" fill="#777" stroke="white" stroke-width="2.5" paint-order="stroke" stroke-linejoin="round">(TCP/5432)</text>
<path d="M 1279 255.83333333333331 L 1363 255.83333333333331 L 1363 308.75 L 1460 308.75 L 1460 350.41666666666663 L 1504 350.41666666666663" fill="none" stroke="#444444" stroke-width="1.3" marker-end="url(#arr)"/>
<text x="1411.5" y="323.25" font-size="10.5" text-anchor="middle" fill="#333" font-style="italic" stroke="white" stroke-width="2.5" paint-order="stroke" stroke-linejoin="round">Order</text>
<text x="1411.5" y="336.75" font-size="10.5" text-anchor="middle" fill="#333" font-style="italic" stroke="white" stroke-width="2.5" paint-order="stroke" stroke-linejoin="round">events</text>
<text x="1411.5" y="350.25" font-size="9" text-anchor="middle" fill="#777" stroke="white" stroke-width="2.5" paint-order="stroke" stroke-linejoin="round">(TCP/9092)</text>
<path d="M 998 258.5 L 1025 258.5 L 1025 303.3333333333333 L 1301 303.3333333333333 A 5 5 0 0 1 1311 303.3333333333333 L 1353 303.3333333333333 L 1353 365.75 L 1504 365.75" fill="none" stroke="#444444" stroke-width="1.3" marker-end="url(#arr)"/>
<text x="1411.5" y="380.25" font-size="10.5" text-anchor="middle" fill="#333" font-style="italic" stroke="white" stroke-width="2.5" paint-order="stroke" stroke-linejoin="round">Browsing</text>
<text x="1411.5" y="393.75" font-size="10.5" text-anchor="middle" fill="#333" font-style="italic" stroke="white" stroke-width="2.5" paint-order="stroke" stroke-linejoin="round">events</text>
<text x="1411.5" y="407.25" font-size="9" text-anchor="middle" fill="#777" stroke="white" stroke-width="2.5" paint-order="stroke" stroke-linejoin="round">(TCP/9092)</text>
<path d="M 1279 268.5833333333333 L 1306 268.5833333333333 L 1306 313.3333333333333 L 1343 313.3333333333333 L 1343 345.3333333333333 L 257 345.3333333333333 L 257 115.49999999999999 L 284 115.49999999999999" fill="none" stroke="#444444" stroke-width="1.3" marker-end="url(#arr)"/>
<text x="770.5" y="359.8333333333333" font-size="10.5" text-anchor="middle" fill="#333" font-style="italic" stroke="white" stroke-width="2.5" paint-order="stroke" stroke-linejoin="round">Carrier</text>
<text x="770.5" y="373.3333333333333" font-size="10.5" text-anchor="middle" fill="#333" font-style="italic" stroke="white" stroke-width="2.5" paint-order="stroke" stroke-linejoin="round">files</text>
<text x="770.5" y="386.8333333333333" font-size="9" text-anchor="middle" fill="#777" stroke="white" stroke-width="2.5" paint-order="stroke" stroke-linejoin="round">(SFTP/22)</text>
<path d="M 424 115.5 L 727 115.5 L 727 75.33333333333333 L 1695 75 L 1842 75" fill="none" stroke="#444444" stroke-width="1.3" marker-end="url(#arr)"/>
<text x="1768.5" y="90.5" font-size="10.5" text-anchor="middle" fill="#333" font-style="italic" stroke="white" stroke-width="2.5" paint-order="stroke" stroke-linejoin="round">Logistics</text>
<text x="1768.5" y="104" font-size="10.5" text-anchor="middle" fill="#333" font-style="italic" stroke="white" stroke-width="2.5" paint-order="stroke" stroke-linejoin="round">exchanges</text>
<text x="1768.5" y="117.5" font-size="9" text-anchor="middle" fill="#777" stroke="white" stroke-width="2.5" paint-order="stroke" stroke-linejoin="round">(AS4/443)</text>
<path d="M 1644 234.58333333333331 L 1695 235 L 1705 235 L 1705 279 L 1889 278.5 L 1940 278.5" fill="none" stroke="#444444" stroke-width="1.3" marker-end="url(#arr)"/>
<text x="1774.5" y="243.5" font-size="10.5" text-anchor="middle" fill="#333" font-style="italic" stroke="white" stroke-width="2.5" paint-order="stroke" stroke-linejoin="round">Async</text>
<text x="1774.5" y="257" font-size="10.5" text-anchor="middle" fill="#333" font-style="italic" stroke="white" stroke-width="2.5" paint-order="stroke" stroke-linejoin="round">replication</text>
<text x="1774.5" y="270.5" font-size="9" text-anchor="middle" fill="#777" stroke="white" stroke-width="2.5" paint-order="stroke" stroke-linejoin="round">(TCP/5432)</text>
<path d="M 2092 253 L 2189 253" fill="none" stroke="#444444" stroke-width="1.3" marker-end="url(#arr)"/>
<text x="2140.5" y="218.5" font-size="10.5" text-anchor="middle" fill="#333" font-style="italic" stroke="white" stroke-width="2.5" paint-order="stroke" stroke-linejoin="round">Daily</text>
<text x="2140.5" y="232" font-size="10.5" text-anchor="middle" fill="#333" font-style="italic" stroke="white" stroke-width="2.5" paint-order="stroke" stroke-linejoin="round">backups</text>
<text x="2140.5" y="245.5" font-size="9" text-anchor="middle" fill="#777" stroke="white" stroke-width="2.5" paint-order="stroke" stroke-linejoin="round">(TCP/9095)</text>
<path d="M 1644 358.0833333333333 L 1695 358 L 1705 358 L 1705 326 L 2179 326 L 2179 270 L 2189 270" fill="none" stroke="#444444" stroke-width="1.3" marker-end="url(#arr)"/>
<text x="1768.5" y="341.5" font-size="10.5" text-anchor="middle" fill="#333" font-style="italic" stroke="white" stroke-width="2.5" paint-order="stroke" stroke-linejoin="round">Topic</text>
<text x="1768.5" y="355" font-size="10.5" text-anchor="middle" fill="#333" font-style="italic" stroke="white" stroke-width="2.5" paint-order="stroke" stroke-linejoin="round">archiving</text>
<text x="1768.5" y="368.5" font-size="9" text-anchor="middle" fill="#777" stroke="white" stroke-width="2.5" paint-order="stroke" stroke-linejoin="round">(TCP/9095)</text>
<line x1="20" y1="447" x2="2529" y2="447" stroke="#ddd" stroke-width="1"/>
<text x="20" y="469" font-size="11" font-weight="bold" fill="#555">LEGEND</text>
<rect x="150" y="459" width="26" height="14" rx="3" fill="#f5f5f4" stroke="#8a8a85"/>
<text x="182" y="470" font-size="10" fill="#444">Site / data center</text>
<rect x="308" y="459" width="26" height="14" rx="3" fill="#ecf3ec" stroke="#6d9a6d" stroke-dasharray="5 3"/>
<text x="340" y="470" font-size="10" fill="#444">Network zone</text>
<rect x="435" y="459" width="26" height="14" rx="3" fill="#ffffff" stroke="#55606b"/>
<text x="467" y="470" font-size="10" fill="#444">Server / VM</text>
<rect x="557" y="459" width="26" height="14" rx="3" fill="#fff7e6" stroke="#b08d2a"/>
<text x="589" y="470" font-size="10" fill="#444">Deployed application</text>
<circle cx="738" cy="462" r="3" fill="none" stroke="#445566" stroke-width="1.2"/>
<path d="M 733 472 q 5 -7 10 0" fill="none" stroke="#445566" stroke-width="1.2"/>
<text x="757" y="470" font-size="10" fill="#444">User / consumer</text>
<rect x="867" y="459" width="26" height="14" rx="3" fill="#f0eef5" stroke="#9187b3" stroke-dasharray="5 3"/>
<text x="899" y="470" font-size="10" fill="#444">External system</text>
<line x1="150" y1="489" x2="176" y2="489" stroke="#444444" stroke-width="1.3" marker-end="url(#arr)"/>
<text x="182" y="493" font-size="10" fill="#444">Technical flow (protocol, port)</text>
<text x="150" y="517" font-size="10" fill="#444" font-style="italic">Inter-zone and inter-site flows filtered by firewall (flow matrix in the architecture dossier)</text>
</svg>
