<svg xmlns="http://www.w3.org/2000/svg" viewBox="0 0 1874 560" font-family="Helvetica,Arial,sans-serif">
<defs><marker id="arr" viewBox="0 0 10 10" refX="9" refY="5" markerWidth="7" markerHeight="7" orient="auto-start-reverse">
<path d="M0,0 L10,5 L0,10 z" fill="#5a6675"/></marker></defs>
<rect width="1874" height="560" fill="#ffffff"/>
<rect x="212" y="22" width="1443" height="403.5" rx="6" fill="#f3f5f6" stroke="#7c8794" stroke-width="1.4"/>
<text x="222" y="40" font-size="13" font-weight="bold" fill="#17202c">Main data center</text>
<rect x="1310.25" y="193" width="154" height="191" rx="6" fill="#eaf5ef" stroke="#1a8f66" stroke-width="1.2" stroke-dasharray="5 3"/>
<text x="1320.25" y="211" font-size="13" font-weight="bold" fill="#17202c">DMZ</text>
<rect x="1324.25" y="287" width="126" height="88" rx="6" fill="#ffffff" stroke="#48546a" stroke-width="1.5"/>
<text x="1334.25" y="305" font-size="13" font-weight="bold" fill="#17202c">Reverse proxy</text>
<text x="1334.25" y="319" font-size="13" font-weight="bold" fill="#17202c">(HA pair)</text>
<rect x="246" y="56.66666666666666" width="885" height="216.33333333333331" rx="6" fill="#eaf5ef" stroke="#1a8f66" stroke-width="1.2" stroke-dasharray="5 3"/>
<text x="256" y="74.66666666666666" font-size="13" font-weight="bold" fill="#17202c">Application zone</text>
<rect x="492" y="122.99999999999997" width="146" height="74" rx="6" fill="#ffffff" stroke="#48546a" stroke-width="1.5"/>
<text x="502" y="140.99999999999997" font-size="13" font-weight="bold" fill="#17202c">Billing VM</text>
<rect x="991" y="83.66666666666666" width="126" height="74" rx="6" fill="#ffffff" stroke="#48546a" stroke-width="1.5"/>
<text x="1001" y="101.66666666666666" font-size="13" font-weight="bold" fill="#17202c">CRM VM</text>
<rect x="1258" y="49" width="368" height="124" rx="6" fill="#eaf5ef" stroke="#1a8f66" stroke-width="1.2" stroke-dasharray="5 3"/>
<text x="1268" y="67" font-size="13" font-weight="bold" fill="#17202c">Data zone</text>
<rect x="1272" y="76" width="126" height="88" rx="6" fill="#ffffff" stroke="#48546a" stroke-width="1.5"/>
<text x="1282" y="94" font-size="13" font-weight="bold" fill="#17202c">Database</text>
<text x="1282" y="108" font-size="13" font-weight="bold" fill="#17202c">server</text>
<rect x="1333.25" y="328" width="108" height="38" rx="4" fill="#fdf4e3" stroke="#c88a2e" stroke-width="1.2"/>
<text x="1387.25" y="351" font-size="12.5" text-anchor="middle" fill="#17202c">WAF</text>
<rect x="1333.25" y="220" width="108" height="47" rx="4" fill="#ffffff" stroke="#48546a" stroke-width="1.5"/>
<text x="1387.25" y="240.25" font-size="12.5" text-anchor="middle" fill="#17202c">Transfer</text>
<text x="1387.25" y="254.75" font-size="12.5" text-anchor="middle" fill="#17202c">gateway</text>
<rect x="255" y="149.99999999999997" width="108" height="38" rx="4" fill="#f5e6dd" stroke="#b85a30" stroke-width="1.3"/>
<path d="M 263 158 L 277 158 Q 279 163 270 170 Q 261 163 263 158" fill="none" stroke="#b85a30" stroke-width="1.3"/>
<text x="319" y="172.99999999999997" font-size="12.5" text-anchor="middle" fill="#17202c">Gateway</text>
<rect x="511" y="216.99999999999997" width="108" height="47" rx="4" fill="#fdefe3" stroke="#d1600f" stroke-width="1.3"/>
<rect x="517" y="222.99999999999997" width="18" height="14" rx="3" fill="none" stroke="#d1600f" stroke-width="1.3"/>
<path d="M 521 225.99999999999997 v -4 a 5 5 0 0 1 10 0 v 4" fill="none" stroke="#d1600f" stroke-width="1.3"/>
<circle cx="526" cy="232.99999999999997" r="2.5" fill="#d1600f"/>
<text x="575" y="237.24999999999997" font-size="12.5" text-anchor="middle" fill="#17202c">OAuth2</text>
<text x="575" y="251.74999999999997" font-size="12.5" text-anchor="middle" fill="#17202c">proxy</text>
<rect x="767" y="221.49999999999997" width="108" height="38" rx="4" fill="#e0f0f0" stroke="#3a8f8f" stroke-width="1.3"/>
<text x="821" y="244.49999999999997" font-size="12.5" text-anchor="middle" fill="#17202c">LDAP / IdP</text>
<rect x="501" y="149.99999999999997" width="108" height="38" rx="4" fill="#fdf4e3" stroke="#c88a2e" stroke-width="1.2"/>
<text x="555" y="172.99999999999997" font-size="12.5" text-anchor="middle" fill="#17202c">Billing</text>
<rect x="1000" y="110.66666666666666" width="108" height="38" rx="4" fill="#fdf4e3" stroke="#c88a2e" stroke-width="1.2"/>
<text x="1054" y="133.66666666666666" font-size="12.5" text-anchor="middle" fill="#17202c">CRM</text>
<path d="M 775 112.49999999999999 h 92 a 8 23.5 0 0 1 0 47 h -92 a 8 23.5 0 0 1 0 -47" fill="#f4edf8" stroke="#8a53a8" stroke-width="1.3"/>
<ellipse cx="775" cy="136" rx="8" ry="23.5" fill="#f4edf8" stroke="#8a53a8" stroke-width="1.3"/>
<text x="825" y="132.75" font-size="12.5" text-anchor="middle" fill="#17202c">Message</text>
<text x="825" y="147.25" font-size="12.5" text-anchor="middle" fill="#17202c">broker</text>
<rect x="1281" y="117" width="108" height="38" rx="4" fill="#fdf4e3" stroke="#c88a2e" stroke-width="1.2"/>
<text x="1335" y="140" font-size="12.5" text-anchor="middle" fill="#17202c">PostgreSQL</text>
<rect x="1509" y="93.5" width="108" height="47" rx="4" fill="#ffffff" stroke="#48546a" stroke-width="1.5"/>
<text x="1563" y="113.75" font-size="12.5" text-anchor="middle" fill="#17202c">Backup</text>
<text x="1563" y="128.25" font-size="12.5" text-anchor="middle" fill="#17202c">server</text>
<circle cx="54" cy="324" r="7" fill="none" stroke="#1f5e91" stroke-width="1.5"/>
<path d="M 43 346 q 11 -19 22 0" fill="none" stroke="#1f5e91" stroke-width="1.5"/>
<text x="54" y="358" font-size="11" text-anchor="middle" fill="#20364c">User</text>
<text x="54" y="369" font-size="11" text-anchor="middle" fill="#20364c">workstations</text>
<rect x="1756" y="220" width="108" height="47" rx="4" fill="#f4eff8" stroke="#8659a6" stroke-width="1.2" stroke-dasharray="5 3"/>
<text x="1810" y="240.25" font-size="12.5" text-anchor="middle" fill="#17202c">Partner EDI</text>
<text x="1810" y="254.75" font-size="12.5" text-anchor="middle" fill="#17202c">platform</text>
<path d="M 98 347 L 226 347 A 5 5 0 0 1 236 347 L 1333.25 347" fill="none" stroke="#5a6675" stroke-width="1.3" marker-end="url(#arr)"/>
<text x="152.5" y="362.5" font-size="11.5" text-anchor="middle" fill="#3a4553" font-style="italic" stroke="#ffffff" stroke-width="2.5" paint-order="stroke" stroke-linejoin="round">(HTTPS/443)</text>
<path d="M 1441.25 347 L 1636 347 L 1636 394 L 231 394 L 231 168.99999999999997 L 255 168.99999999999997" fill="none" stroke="#5a6675" stroke-width="1.3" marker-end="url(#arr)"/>
<text x="1194.5" y="409.5" font-size="11.5" text-anchor="middle" fill="#3a4553" font-style="italic" stroke="#ffffff" stroke-width="2.5" paint-order="stroke" stroke-linejoin="round">(HTTPS/443)</text>
<path d="M 363 178.49999999999997 L 373 178.49999999999997 L 373 240.49999999999997 L 511 240.49999999999997" fill="none" stroke="#5a6675" stroke-width="1.3" marker-end="url(#arr)"/>
<text x="425" y="255.99999999999997" font-size="11.5" text-anchor="middle" fill="#3a4553" font-style="italic" stroke="#ffffff" stroke-width="2.5" paint-order="stroke" stroke-linejoin="round">(HTTPS/8443)</text>
<path d="M 619 240.49999999999997 L 767 240.49999999999997" fill="none" stroke="#5a6675" stroke-width="1.3" marker-end="url(#arr)"/>
<text x="705" y="255.99999999999997" font-size="11.5" text-anchor="middle" fill="#3a4553" font-style="italic" stroke="#ffffff" stroke-width="2.5" paint-order="stroke" stroke-linejoin="round">(LDAPS/636)</text>
<path d="M 363 168.99999999999997 L 501 168.99999999999997" fill="none" stroke="#5a6675" stroke-width="1.3" marker-end="url(#arr)"/>
<text x="425" y="184.49999999999997" font-size="11.5" text-anchor="middle" fill="#3a4553" font-style="italic" stroke="#ffffff" stroke-width="2.5" paint-order="stroke" stroke-linejoin="round">(HTTPS/8443)</text>
<path d="M 363 159.49999999999997 L 373 159.49999999999997 L 373 101.49999999999999 L 976 101.49999999999999 L 976 123.33333333333331 L 1000 123.33333333333333" fill="none" stroke="#5a6675" stroke-width="1.3" marker-end="url(#arr)"/>
<text x="705" y="116.99999999999999" font-size="11.5" text-anchor="middle" fill="#3a4553" font-style="italic" stroke="#ffffff" stroke-width="2.5" paint-order="stroke" stroke-linejoin="round">(HTTPS/8444)</text>
<path d="M 609 168.99999999999997 L 619 168.99999999999997 L 619 169.49999999999997 L 1243 169.49999999999997 L 1243 142.33333333333331 L 1281 142.33333333333331" fill="none" stroke="#5a6675" stroke-width="1.3" marker-end="url(#arr)"/>
<text x="1194.5" y="184.99999999999997" font-size="11.5" text-anchor="middle" fill="#3a4553" font-style="italic" stroke="#ffffff" stroke-width="2.5" paint-order="stroke" stroke-linejoin="round">(TCP/5432)</text>
<path d="M 1108 129.66666666666666 L 1281 129.66666666666666" fill="none" stroke="#5a6675" stroke-width="1.3" marker-end="url(#arr)"/>
<text x="1194.5" y="120.66666666666666" font-size="11.5" text-anchor="middle" fill="#3a4553" font-style="italic" stroke="#ffffff" stroke-width="2.5" paint-order="stroke" stroke-linejoin="round">(TCP/5432)</text>
<path d="M 609 159.49999999999997 L 653 159.5 L 653 136 L 767 136" fill="none" stroke="#5a6675" stroke-width="1.3" marker-end="url(#arr)"/>
<text x="705" y="151.5" font-size="11.5" text-anchor="middle" fill="#3a4553" font-style="italic" stroke="#ffffff" stroke-width="2.5" paint-order="stroke" stroke-linejoin="round">(TCP/9092)</text>
<path d="M 875 136 L 1000 136" fill="none" stroke="#5a6675" stroke-width="1.3" marker-end="url(#arr)"/>
<text x="930.5" y="151.5" font-size="11.5" text-anchor="middle" fill="#3a4553" font-style="italic" stroke="#ffffff" stroke-width="2.5" paint-order="stroke" stroke-linejoin="round">(TCP/9092)</text>
<path d="M 609 178.49999999999997 L 619 178.49999999999997 L 619 179.49999999999997 L 653 179.5 L 653 180.5 L 1146 180.49999999999997 L 1146 243.5 L 1333.25 243.5" fill="none" stroke="#5a6675" stroke-width="1.3" marker-end="url(#arr)"/>
<text x="1194.5" y="259" font-size="11.5" text-anchor="middle" fill="#3a4553" font-style="italic" stroke="#ffffff" stroke-width="2.5" paint-order="stroke" stroke-linejoin="round">(SFTP/22)</text>
<path d="M 1441.25 243.5 L 1660 244 L 1756 244" fill="none" stroke="#5a6675" stroke-width="1.3" marker-end="url(#arr)"/>
<text x="1708" y="259.5" font-size="11.5" text-anchor="middle" fill="#3a4553" font-style="italic" stroke="#ffffff" stroke-width="2.5" paint-order="stroke" stroke-linejoin="round">(AS4/443)</text>
<path d="M 1398 117 L 1509 117" fill="none" stroke="#5a6675" stroke-width="1.3" marker-end="url(#arr)"/>
<text x="1453.5" y="132.5" font-size="11.5" text-anchor="middle" fill="#3a4553" font-style="italic" stroke="#ffffff" stroke-width="2.5" paint-order="stroke" stroke-linejoin="round">(TCP/9092)</text>
<line x1="20" y1="446" x2="1854" y2="446" stroke="#e6e9ee" stroke-width="1"/>
<text x="20" y="468" font-size="11" font-weight="bold" fill="#3a4553">LEGEND</text>
<rect x="150" y="458" width="26" height="14" rx="3" fill="#f3f5f6" stroke="#7c8794"/>
<text x="182" y="469" font-size="10" fill="#17202c">Site / data center</text>
<rect x="308" y="458" width="26" height="14" rx="3" fill="#eaf5ef" stroke="#1a8f66" stroke-dasharray="5 3"/>
<text x="340" y="469" font-size="10" fill="#17202c">Network zone</text>
<rect x="435" y="458" width="26" height="14" rx="3" fill="#ffffff" stroke="#48546a"/>
<text x="467" y="469" font-size="10" fill="#17202c">Server / VM</text>
<rect x="557" y="458" width="26" height="14" rx="3" fill="#fdf4e3" stroke="#c88a2e"/>
<text x="589" y="469" font-size="10" fill="#17202c">Deployed application</text>
<rect x="725" y="458" width="26" height="14" rx="3" fill="#f5e6dd" stroke="#b85a30"/>
<text x="757" y="469" font-size="10" fill="#17202c">Gateway / reverse proxy</text>
<rect x="909" y="458" width="26" height="14" rx="3" fill="#fdefe3" stroke="#d1600f"/>
<text x="941" y="469" font-size="10" fill="#17202c">Auth middleware</text>
<rect x="1051" y="458" width="26" height="14" rx="3" fill="#e0f0f0" stroke="#3a8f8f"/>
<text x="1083" y="469" font-size="10" fill="#17202c">Identity provider (IdP)</text>
<rect x="1235" y="458" width="26" height="14" rx="3" fill="#f4edf8" stroke="#8a53a8"/>
<text x="1267" y="469" font-size="10" fill="#17202c">Message queue / broker</text>
<circle cx="1427" cy="461" r="3" fill="none" stroke="#1f5e91" stroke-width="1.2"/>
<path d="M 1422 471 q 5 -7 10 0" fill="none" stroke="#1f5e91" stroke-width="1.2"/>
<text x="1446" y="469" font-size="10" fill="#17202c">User / consumer</text>
<rect x="1556" y="458" width="26" height="14" rx="3" fill="#f4eff8" stroke="#8659a6" stroke-dasharray="5 3"/>
<text x="1588" y="469" font-size="10" fill="#17202c">External system</text>
<line x1="150" y1="510" x2="176" y2="510" stroke="#5a6675" stroke-width="1.3" marker-end="url(#arr)"/>
<text x="182" y="514" font-size="10" fill="#17202c">Technical flow (protocol, port)</text>
<text x="150" y="538" font-size="10" fill="#17202c" font-style="italic">Inter-zone flows filtered by firewall (flow matrix attached to the architecture dossier)</text>
</svg>
