<svg xmlns="http://www.w3.org/2000/svg" viewBox="0 0 2146 507" font-family="Helvetica,Arial,sans-serif">
<defs><marker id="arr" viewBox="0 0 10 10" refX="9" refY="5" markerWidth="7" markerHeight="7" orient="auto-start-reverse">
<path d="M0,0 L10,5 L0,10 z" fill="#444444"/></marker></defs>
<rect width="2146" height="507" fill="white"/>
<rect x="177" y="22" width="1288" height="372.33333333333337" rx="6" fill="#f5f5f4" stroke="#8a8a85" stroke-width="1.4"/>
<text x="187" y="40" font-size="12" font-weight="bold" fill="#333">Main data center</text>
<rect x="212" y="50" width="376" height="181" rx="6" fill="#ecf3ec" stroke="#6d9a6d" stroke-width="1.2" stroke-dasharray="5 3"/>
<text x="222" y="68" font-size="12" font-weight="bold" fill="#333">DMZ</text>
<rect x="441" y="113" width="132" height="91" rx="6" fill="#ffffff" stroke="#55606b" stroke-width="1.5"/>
<text x="451" y="131" font-size="12" font-weight="bold" fill="#333">Reverse proxies</text>
<text x="451" y="144" font-size="12" font-weight="bold" fill="#333">(HA)</text>
<rect x="705" y="74.33333333333334" width="436" height="225" rx="6" fill="#ecf3ec" stroke="#6d9a6d" stroke-width="1.2" stroke-dasharray="5 3"/>
<text x="715" y="92.33333333333334" font-size="12" font-weight="bold" fill="#333">Application zone</text>
<rect x="720" y="106.33333333333334" width="137" height="151" rx="6" fill="#ffffff" stroke="#55606b" stroke-width="1.5"/>
<text x="730" y="124.33333333333334" font-size="12" font-weight="bold" fill="#333">K8s cluster</text>
<text x="730" y="137.33333333333334" font-size="12" font-weight="bold" fill="#333">front</text>
<rect x="974" y="102.33333333333334" width="132" height="167" rx="6" fill="#ffffff" stroke="#55606b" stroke-width="1.5"/>
<text x="984" y="120.33333333333334" font-size="12" font-weight="bold" fill="#333">K8s cluster</text>
<text x="984" y="133.33333333333334" font-size="12" font-weight="bold" fill="#333">business</text>
<rect x="1288" y="122.66666666666666" width="162" height="248" rx="6" fill="#ecf3ec" stroke="#6d9a6d" stroke-width="1.2" stroke-dasharray="5 3"/>
<text x="1298" y="140.66666666666666" font-size="12" font-weight="bold" fill="#333">Data zone</text>
<rect x="1303" y="150.66666666666666" width="132" height="99" rx="6" fill="#ffffff" stroke="#55606b" stroke-width="1.5"/>
<text x="1313" y="168.66666666666666" font-size="12" font-weight="bold" fill="#333">PostgreSQL</text>
<text x="1313" y="181.66666666666666" font-size="12" font-weight="bold" fill="#333">cluster</text>
<rect x="1303" y="269.66666666666663" width="132" height="91" rx="6" fill="#ffffff" stroke="#55606b" stroke-width="1.5"/>
<text x="1313" y="287.66666666666663" font-size="12" font-weight="bold" fill="#333">Kafka</text>
<text x="1313" y="300.66666666666663" font-size="12" font-weight="bold" fill="#333">cluster</text>
<rect x="1617" y="130" width="391" height="191" rx="6" fill="#f5f5f4" stroke="#8a8a85" stroke-width="1.4"/>
<text x="1627" y="148" font-size="12" font-weight="bold" fill="#333">Disaster-recovery site</text>
<rect x="1632" y="158" width="366" height="153" rx="6" fill="#ecf3ec" stroke="#6d9a6d" stroke-width="1.2" stroke-dasharray="5 3"/>
<text x="1642" y="176" font-size="12" font-weight="bold" fill="#333">DR data zone</text>
<rect x="1647" y="191" width="132" height="99" rx="6" fill="#ffffff" stroke="#55606b" stroke-width="1.5"/>
<text x="1657" y="209" font-size="12" font-weight="bold" fill="#333">PostgreSQL</text>
<text x="1657" y="222" font-size="12" font-weight="bold" fill="#333">standby</text>
<rect x="222" y="150" width="112" height="48" rx="4" fill="#ffffff" stroke="#55606b" stroke-width="1.5"/>
<text x="278" y="171.25" font-size="11.5" text-anchor="middle" fill="#222233">Application</text>
<text x="278" y="184.75" font-size="11.5" text-anchor="middle" fill="#222233">firewall (WAF)</text>
<rect x="451" y="154" width="112" height="40" rx="4" fill="#fff7e6" stroke="#b08d2a" stroke-width="1.2"/>
<text x="507" y="178" font-size="11.5" text-anchor="middle" fill="#222233">Nginx</text>
<rect x="222" y="78" width="112" height="48" rx="4" fill="#ffffff" stroke="#55606b" stroke-width="1.5"/>
<text x="278" y="99.25" font-size="11.5" text-anchor="middle" fill="#222233">Transfer</text>
<text x="278" y="112.75" font-size="11.5" text-anchor="middle" fill="#222233">gateway</text>
<rect x="733.3333333333334" y="207.33333333333334" width="112" height="40" rx="4" fill="#fff7e6" stroke="#b08d2a" stroke-width="1.2"/>
<text x="789.3333333333334" y="231.33333333333334" font-size="11.5" text-anchor="middle" fill="#222233">Sales front</text>
<rect x="730" y="147.33333333333334" width="117" height="40" rx="4" fill="#fff7e6" stroke="#b08d2a" stroke-width="1.2"/>
<text x="788.5" y="171.33333333333334" font-size="11.5" text-anchor="middle" fill="#222233">Checkout funnel</text>
<rect x="984" y="211.33333333333334" width="112" height="48" rx="4" fill="#fff7e6" stroke="#b08d2a" stroke-width="1.2"/>
<text x="1040" y="232.58333333333334" font-size="11.5" text-anchor="middle" fill="#222233">Order</text>
<text x="1040" y="246.08333333333334" font-size="11.5" text-anchor="middle" fill="#222233">management</text>
<rect x="984" y="143.33333333333334" width="112" height="48" rx="4" fill="#fff7e6" stroke="#b08d2a" stroke-width="1.2"/>
<text x="1040" y="164.58333333333334" font-size="11.5" text-anchor="middle" fill="#222233">Payment</text>
<text x="1040" y="178.08333333333334" font-size="11.5" text-anchor="middle" fill="#222233">hub</text>
<rect x="1313" y="191.66666666666666" width="112" height="48" rx="4" fill="#fff7e6" stroke="#b08d2a" stroke-width="1.2"/>
<text x="1369" y="212.91666666666666" font-size="11.5" text-anchor="middle" fill="#222233">PostgreSQL</text>
<text x="1369" y="226.41666666666666" font-size="11.5" text-anchor="middle" fill="#222233">primary</text>
<rect x="1313" y="310.66666666666663" width="112" height="40" rx="4" fill="#fff7e6" stroke="#b08d2a" stroke-width="1.2"/>
<text x="1369" y="334.66666666666663" font-size="11.5" text-anchor="middle" fill="#222233">Kafka</text>
<rect x="1657" y="232" width="112" height="48" rx="4" fill="#fff7e6" stroke="#b08d2a" stroke-width="1.2"/>
<text x="1713" y="253.25" font-size="11.5" text-anchor="middle" fill="#222233">PostgreSQL</text>
<text x="1713" y="266.75" font-size="11.5" text-anchor="middle" fill="#222233">replica</text>
<rect x="1876" y="216" width="112" height="48" rx="4" fill="#ffffff" stroke="#55606b" stroke-width="1.5"/>
<text x="1932" y="237.25" font-size="11.5" text-anchor="middle" fill="#222233">Backup</text>
<text x="1932" y="250.75" font-size="11.5" text-anchor="middle" fill="#222233">server</text>
<circle cx="42.5" cy="150" r="7" fill="none" stroke="#445566" stroke-width="1.5"/>
<path d="M 31.5 172 q 11 -19 22 0" fill="none" stroke="#445566" stroke-width="1.5"/>
<text x="42.5" y="184" font-size="10" text-anchor="middle" fill="#223344">Internet</text>
<text x="42.5" y="195" font-size="10" text-anchor="middle" fill="#223344">customers</text>
<rect x="2024" y="99" width="112" height="40" rx="4" fill="#f0eef5" stroke="#9187b3" stroke-width="1.2" stroke-dasharray="5 3"/>
<text x="2080" y="123" font-size="11.5" text-anchor="middle" fill="#222233">PSP</text>
<rect x="1565" y="39" width="112" height="48" rx="4" fill="#f0eef5" stroke="#9187b3" stroke-width="1.2" stroke-dasharray="5 3"/>
<text x="1621" y="60.25" font-size="11.5" text-anchor="middle" fill="#222233">Carrier</text>
<text x="1621" y="73.75" font-size="11.5" text-anchor="middle" fill="#222233">platforms</text>
<path d="M 75 174 L 192 174 A 5 5 0 0 1 202 174 L 222 174" fill="none" stroke="#444444" stroke-width="1.3" marker-end="url(#arr)"/>
<text x="123.5" y="188.5" font-size="10.5" text-anchor="middle" fill="#333" font-style="italic" stroke="white" stroke-width="2.5" paint-order="stroke" stroke-linejoin="round">Client web</text>
<text x="123.5" y="202" font-size="10.5" text-anchor="middle" fill="#333" font-style="italic" stroke="white" stroke-width="2.5" paint-order="stroke" stroke-linejoin="round">traffic</text>
<text x="123.5" y="215.5" font-size="9" text-anchor="middle" fill="#777" stroke="white" stroke-width="2.5" paint-order="stroke" stroke-linejoin="round">(HTTPS/443)</text>
<path d="M 334 174 L 451 174" fill="none" stroke="#444444" stroke-width="1.3" marker-end="url(#arr)"/>
<text x="385" y="188.5" font-size="10.5" text-anchor="middle" fill="#333" font-style="italic" stroke="white" stroke-width="2.5" paint-order="stroke" stroke-linejoin="round">Filtered</text>
<text x="385" y="202" font-size="10.5" text-anchor="middle" fill="#333" font-style="italic" stroke="white" stroke-width="2.5" paint-order="stroke" stroke-linejoin="round">traffic</text>
<text x="385" y="215.5" font-size="9" text-anchor="middle" fill="#777" stroke="white" stroke-width="2.5" paint-order="stroke" stroke-linejoin="round">(HTTPS/443)</text>
<path d="M 563 180.66666666666666 L 603 180.66666666666669 L 603 227.33333333333334 L 733.3333333333333 227.33333333333334" fill="none" stroke="#444444" stroke-width="1.3" marker-end="url(#arr)"/>
<text x="646.5" y="241.83333333333334" font-size="10.5" text-anchor="middle" fill="#333" font-style="italic" stroke="white" stroke-width="2.5" paint-order="stroke" stroke-linejoin="round">Front</text>
<text x="646.5" y="255.33333333333334" font-size="10.5" text-anchor="middle" fill="#333" font-style="italic" stroke="white" stroke-width="2.5" paint-order="stroke" stroke-linejoin="round">routing</text>
<text x="646.5" y="268.83333333333337" font-size="9" text-anchor="middle" fill="#777" stroke="white" stroke-width="2.5" paint-order="stroke" stroke-linejoin="round">(HTTPS/8443)</text>
<path d="M 563 167.33333333333334 L 730 167.33333333333334" fill="none" stroke="#444444" stroke-width="1.3" marker-end="url(#arr)"/>
<text x="646.5" y="181.83333333333334" font-size="10.5" text-anchor="middle" fill="#333" font-style="italic" stroke="white" stroke-width="2.5" paint-order="stroke" stroke-linejoin="round">Checkout</text>
<text x="646.5" y="195.33333333333334" font-size="10.5" text-anchor="middle" fill="#333" font-style="italic" stroke="white" stroke-width="2.5" paint-order="stroke" stroke-linejoin="round">routing</text>
<text x="646.5" y="208.83333333333334" font-size="9" text-anchor="middle" fill="#777" stroke="white" stroke-width="2.5" paint-order="stroke" stroke-linejoin="round">(HTTPS/8444)</text>
<path d="M 845.3333333333333 220.66666666666666 L 959 220.66666666666666 L 959 235.33333333333334 L 984 235.33333333333334" fill="none" stroke="#444444" stroke-width="1.3" marker-end="url(#arr)"/>
<text x="915.5" y="235.16666666666666" font-size="10.5" text-anchor="middle" fill="#333" font-style="italic" stroke="white" stroke-width="2.5" paint-order="stroke" stroke-linejoin="round">Orders</text>
<text x="915.5" y="248.66666666666666" font-size="10.5" text-anchor="middle" fill="#333" font-style="italic" stroke="white" stroke-width="2.5" paint-order="stroke" stroke-linejoin="round">API</text>
<text x="915.5" y="262.16666666666663" font-size="9" text-anchor="middle" fill="#777" stroke="white" stroke-width="2.5" paint-order="stroke" stroke-linejoin="round">(HTTPS/8443)</text>
<path d="M 847 167.33333333333334 L 984 167.33333333333334" fill="none" stroke="#444444" stroke-width="1.3" marker-end="url(#arr)"/>
<text x="915.5" y="132.83333333333334" font-size="10.5" text-anchor="middle" fill="#333" font-style="italic" stroke="white" stroke-width="2.5" paint-order="stroke" stroke-linejoin="round">Payment</text>
<text x="915.5" y="146.33333333333334" font-size="10.5" text-anchor="middle" fill="#333" font-style="italic" stroke="white" stroke-width="2.5" paint-order="stroke" stroke-linejoin="round">API</text>
<text x="915.5" y="159.83333333333334" font-size="9" text-anchor="middle" fill="#777" stroke="white" stroke-width="2.5" paint-order="stroke" stroke-linejoin="round">(HTTPS/8445)</text>
<path d="M 1096 159.33333333333334 L 1156 159.33333333333334 L 1156 111.66666666666666 L 1470 112 L 1480 112 L 1480 119 L 2024 119" fill="none" stroke="#444444" stroke-width="1.3" marker-end="url(#arr)"/>
<text x="1543" y="133.5" font-size="10.5" text-anchor="middle" fill="#333" font-style="italic" stroke="white" stroke-width="2.5" paint-order="stroke" stroke-linejoin="round">Authorization and</text>
<text x="1543" y="147" font-size="10.5" text-anchor="middle" fill="#333" font-style="italic" stroke="white" stroke-width="2.5" paint-order="stroke" stroke-linejoin="round">capture</text>
<text x="1543" y="160.5" font-size="9" text-anchor="middle" fill="#777" stroke="white" stroke-width="2.5" paint-order="stroke" stroke-linejoin="round">(HTTPS/443)</text>
<path d="M 1096 223.33333333333334 L 1273 223.33333333333334 L 1273 223.66666666666666 L 1313 223.66666666666666" fill="none" stroke="#444444" stroke-width="1.3" marker-end="url(#arr)"/>
<text x="1224.5" y="237.83333333333334" font-size="10.5" text-anchor="middle" fill="#333" font-style="italic" stroke="white" stroke-width="2.5" paint-order="stroke" stroke-linejoin="round">Read/write</text>
<text x="1224.5" y="251.33333333333334" font-size="10.5" text-anchor="middle" fill="#333" font-style="italic" stroke="white" stroke-width="2.5" paint-order="stroke" stroke-linejoin="round">orders</text>
<text x="1224.5" y="264.83333333333337" font-size="9" text-anchor="middle" fill="#777" stroke="white" stroke-width="2.5" paint-order="stroke" stroke-linejoin="round">(TCP/5432)</text>
<path d="M 1096 175.33333333333334 L 1156 175.33333333333334 L 1156 166.33333333333334 L 1273 166.33333333333334 L 1273 207.66666666666666 L 1313 207.66666666666666" fill="none" stroke="#444444" stroke-width="1.3" marker-end="url(#arr)"/>
<text x="1224.5" y="180.83333333333334" font-size="10.5" text-anchor="middle" fill="#333" font-style="italic" stroke="white" stroke-width="2.5" paint-order="stroke" stroke-linejoin="round">Read/write</text>
<text x="1224.5" y="194.33333333333334" font-size="10.5" text-anchor="middle" fill="#333" font-style="italic" stroke="white" stroke-width="2.5" paint-order="stroke" stroke-linejoin="round">transactions</text>
<text x="1224.5" y="207.83333333333334" font-size="9" text-anchor="middle" fill="#777" stroke="white" stroke-width="2.5" paint-order="stroke" stroke-linejoin="round">(TCP/5432)</text>
<path d="M 1096 235.33333333333334 L 1176 235.33333333333334 L 1176 280.33333333333337 L 1273 280.33333333333337 L 1273 324 L 1313 324" fill="none" stroke="#444444" stroke-width="1.3" marker-end="url(#arr)"/>
<text x="1224.5" y="294.83333333333337" font-size="10.5" text-anchor="middle" fill="#333" font-style="italic" stroke="white" stroke-width="2.5" paint-order="stroke" stroke-linejoin="round">Order</text>
<text x="1224.5" y="308.33333333333337" font-size="10.5" text-anchor="middle" fill="#333" font-style="italic" stroke="white" stroke-width="2.5" paint-order="stroke" stroke-linejoin="round">events</text>
<text x="1224.5" y="321.83333333333337" font-size="9" text-anchor="middle" fill="#777" stroke="white" stroke-width="2.5" paint-order="stroke" stroke-linejoin="round">(TCP/9092)</text>
<path d="M 845.3333333333334 234 L 872 234.00000000000003 L 872 279.33333333333337 L 1116 279.33333333333337 A 5 5 0 0 1 1126 279.33333333333337 L 1166 279.33333333333337 L 1166 337.33333333333337 L 1313 337.33333333333326" fill="none" stroke="#444444" stroke-width="1.3" marker-end="url(#arr)"/>
<text x="1224.5" y="351.83333333333337" font-size="10.5" text-anchor="middle" fill="#333" font-style="italic" stroke="white" stroke-width="2.5" paint-order="stroke" stroke-linejoin="round">Browsing</text>
<text x="1224.5" y="365.33333333333337" font-size="10.5" text-anchor="middle" fill="#333" font-style="italic" stroke="white" stroke-width="2.5" paint-order="stroke" stroke-linejoin="round">events</text>
<text x="1224.5" y="378.83333333333337" font-size="9" text-anchor="middle" fill="#777" stroke="white" stroke-width="2.5" paint-order="stroke" stroke-linejoin="round">(TCP/9092)</text>
<path d="M 1096 247.33333333333334 L 1121 247.33333333333334 L 1121 289.33333333333337 L 1156 289.33333333333337 L 1156 319.33333333333337 L 197 319.33333333333337 L 197 102 L 222 102" fill="none" stroke="#444444" stroke-width="1.3" marker-end="url(#arr)"/>
<text x="646.5" y="333.83333333333337" font-size="10.5" text-anchor="middle" fill="#333" font-style="italic" stroke="white" stroke-width="2.5" paint-order="stroke" stroke-linejoin="round">Carrier</text>
<text x="646.5" y="347.33333333333337" font-size="10.5" text-anchor="middle" fill="#333" font-style="italic" stroke="white" stroke-width="2.5" paint-order="stroke" stroke-linejoin="round">files</text>
<text x="646.5" y="360.83333333333337" font-size="9" text-anchor="middle" fill="#777" stroke="white" stroke-width="2.5" paint-order="stroke" stroke-linejoin="round">(SFTP/22)</text>
<path d="M 334 102 L 603 102 L 603 63.33333333333334 L 1470 63 L 1565 63" fill="none" stroke="#444444" stroke-width="1.3" marker-end="url(#arr)"/>
<text x="1519.5" y="77.5" font-size="10.5" text-anchor="middle" fill="#333" font-style="italic" stroke="white" stroke-width="2.5" paint-order="stroke" stroke-linejoin="round">Logistics</text>
<text x="1519.5" y="91" font-size="10.5" text-anchor="middle" fill="#333" font-style="italic" stroke="white" stroke-width="2.5" paint-order="stroke" stroke-linejoin="round">exchanges</text>
<text x="1519.5" y="104.5" font-size="9" text-anchor="middle" fill="#777" stroke="white" stroke-width="2.5" paint-order="stroke" stroke-linejoin="round">(AS4/443)</text>
<path d="M 1425 215.66666666666666 L 1470 216 L 1480 216 L 1480 256 L 1657 256" fill="none" stroke="#444444" stroke-width="1.3" marker-end="url(#arr)"/>
<text x="1525.5" y="221.5" font-size="10.5" text-anchor="middle" fill="#333" font-style="italic" stroke="white" stroke-width="2.5" paint-order="stroke" stroke-linejoin="round">Async</text>
<text x="1525.5" y="235" font-size="10.5" text-anchor="middle" fill="#333" font-style="italic" stroke="white" stroke-width="2.5" paint-order="stroke" stroke-linejoin="round">replication</text>
<text x="1525.5" y="248.5" font-size="9" text-anchor="middle" fill="#777" stroke="white" stroke-width="2.5" paint-order="stroke" stroke-linejoin="round">(TCP/5432)</text>
<path d="M 1779 232 L 1876 232" fill="none" stroke="#444444" stroke-width="1.3" marker-end="url(#arr)"/>
<text x="1827.5" y="197.5" font-size="10.5" text-anchor="middle" fill="#333" font-style="italic" stroke="white" stroke-width="2.5" paint-order="stroke" stroke-linejoin="round">Daily</text>
<text x="1827.5" y="211" font-size="10.5" text-anchor="middle" fill="#333" font-style="italic" stroke="white" stroke-width="2.5" paint-order="stroke" stroke-linejoin="round">backups</text>
<text x="1827.5" y="224.5" font-size="9" text-anchor="middle" fill="#777" stroke="white" stroke-width="2.5" paint-order="stroke" stroke-linejoin="round">(TCP/9095)</text>
<path d="M 1425 330.66666666666663 L 1470 331 L 1480 331 L 1480 300 L 1866 300 L 1866 247.99999999999997 L 1876 247.99999999999997" fill="none" stroke="#444444" stroke-width="1.3" marker-end="url(#arr)"/>
<text x="1519.5" y="314.5" font-size="10.5" text-anchor="middle" fill="#333" font-style="italic" stroke="white" stroke-width="2.5" paint-order="stroke" stroke-linejoin="round">Topic</text>
<text x="1519.5" y="328" font-size="10.5" text-anchor="middle" fill="#333" font-style="italic" stroke="white" stroke-width="2.5" paint-order="stroke" stroke-linejoin="round">archiving</text>
<text x="1519.5" y="341.5" font-size="9" text-anchor="middle" fill="#777" stroke="white" stroke-width="2.5" paint-order="stroke" stroke-linejoin="round">(TCP/9095)</text>
<line x1="20" y1="415" x2="2126" y2="415" stroke="#ddd" stroke-width="1"/>
<text x="20" y="437" font-size="11" font-weight="bold" fill="#555">LEGEND</text>
<rect x="150" y="427" width="26" height="14" rx="3" fill="#f5f5f4" stroke="#8a8a85"/>
<text x="182" y="438" font-size="10" fill="#444">Site / data center</text>
<rect x="308" y="427" width="26" height="14" rx="3" fill="#ecf3ec" stroke="#6d9a6d" stroke-dasharray="5 3"/>
<text x="340" y="438" font-size="10" fill="#444">Network zone</text>
<rect x="435" y="427" width="26" height="14" rx="3" fill="#ffffff" stroke="#55606b"/>
<text x="467" y="438" font-size="10" fill="#444">Server / VM</text>
<rect x="557" y="427" width="26" height="14" rx="3" fill="#fff7e6" stroke="#b08d2a"/>
<text x="589" y="438" font-size="10" fill="#444">Deployed application</text>
<circle cx="738" cy="430" r="3" fill="none" stroke="#445566" stroke-width="1.2"/>
<path d="M 733 440 q 5 -7 10 0" fill="none" stroke="#445566" stroke-width="1.2"/>
<text x="757" y="438" font-size="10" fill="#444">User / consumer</text>
<rect x="867" y="427" width="26" height="14" rx="3" fill="#f0eef5" stroke="#9187b3" stroke-dasharray="5 3"/>
<text x="899" y="438" font-size="10" fill="#444">External system</text>
<line x1="150" y1="457" x2="176" y2="457" stroke="#444444" stroke-width="1.3" marker-end="url(#arr)"/>
<text x="182" y="461" font-size="10" fill="#444">Technical flow (protocol, port)</text>
<text x="150" y="485" font-size="10" fill="#444" font-style="italic">Inter-zone and inter-site flows filtered by firewall (flow matrix in the architecture dossier)</text>
</svg>
