<svg xmlns="http://www.w3.org/2000/svg" viewBox="0 0 735 274" font-family="Helvetica,Arial,sans-serif">
<rect width="735" height="274" fill="white"/>
<text x="1" y="22" font-size="13" font-weight="bold" fill="#555">TECHNICAL FLOW MATRIX — Billing platform — infrastructure view</text>
<rect x="0" y="34" width="733" height="30" fill="#f7f7f7" stroke="#ddd"/>
<text x="22.5" y="54" font-size="11" font-weight="bold" text-anchor="middle" fill="#555">No.</text>
<text x="55" y="54" font-size="11" font-weight="bold" text-anchor="start" fill="#555">Source</text>
<text x="248" y="54" font-size="11" font-weight="bold" text-anchor="start" fill="#555">Destination</text>
<text x="435" y="54" font-size="11" font-weight="bold" text-anchor="start" fill="#555">Protocol</text>
<text x="526.5" y="54" font-size="11" font-weight="bold" text-anchor="middle" fill="#555">Port</text>
<text x="562" y="54" font-size="11" font-weight="bold" text-anchor="start" fill="#555">Flow</text>
<text x="22.5" y="81" font-size="11" text-anchor="middle" fill="#444">1</text>
<text x="55" y="81" font-size="11" text-anchor="start" fill="#444">User workstations</text>
<text x="248" y="81" font-size="11" text-anchor="start" fill="#444">WAF (DMZ)</text>
<text x="435" y="81" font-size="11" text-anchor="start" fill="#444">HTTPS</text>
<text x="526.5" y="81" font-size="11" text-anchor="middle" fill="#444">443</text>
<text x="562" y="81" font-size="11" text-anchor="start" fill="#444">Web application access</text>
<rect x="0" y="90" width="733" height="26" fill="#ddd" opacity="0.18"/>
<text x="22.5" y="107" font-size="11" text-anchor="middle" fill="#444">2</text>
<text x="55" y="107" font-size="11" text-anchor="start" fill="#444">WAF (DMZ)</text>
<text x="248" y="107" font-size="11" text-anchor="start" fill="#444">Billing (Application zone)</text>
<text x="435" y="107" font-size="11" text-anchor="start" fill="#444">HTTPS</text>
<text x="526.5" y="107" font-size="11" text-anchor="middle" fill="#444">8443</text>
<text x="562" y="107" font-size="11" text-anchor="start" fill="#444">Filtered billing traffic</text>
<text x="22.5" y="133" font-size="11" text-anchor="middle" fill="#444">3</text>
<text x="55" y="133" font-size="11" text-anchor="start" fill="#444">WAF (DMZ)</text>
<text x="248" y="133" font-size="11" text-anchor="start" fill="#444">CRM (Application zone)</text>
<text x="435" y="133" font-size="11" text-anchor="start" fill="#444">HTTPS</text>
<text x="526.5" y="133" font-size="11" text-anchor="middle" fill="#444">8444</text>
<text x="562" y="133" font-size="11" text-anchor="start" fill="#444">Filtered CRM traffic</text>
<rect x="0" y="142" width="733" height="26" fill="#ddd" opacity="0.18"/>
<text x="22.5" y="159" font-size="11" text-anchor="middle" fill="#444">4</text>
<text x="55" y="159" font-size="11" text-anchor="start" fill="#444">Billing (Application zone)</text>
<text x="248" y="159" font-size="11" text-anchor="start" fill="#444">PostgreSQL (Data zone)</text>
<text x="435" y="159" font-size="11" text-anchor="start" fill="#444">TCP</text>
<text x="526.5" y="159" font-size="11" text-anchor="middle" fill="#444">5432</text>
<text x="562" y="159" font-size="11" text-anchor="start" fill="#444">Read/write billing data</text>
<text x="22.5" y="185" font-size="11" text-anchor="middle" fill="#444">5</text>
<text x="55" y="185" font-size="11" text-anchor="start" fill="#444">CRM (Application zone)</text>
<text x="248" y="185" font-size="11" text-anchor="start" fill="#444">PostgreSQL (Data zone)</text>
<text x="435" y="185" font-size="11" text-anchor="start" fill="#444">TCP</text>
<text x="526.5" y="185" font-size="11" text-anchor="middle" fill="#444">5432</text>
<text x="562" y="185" font-size="11" text-anchor="start" fill="#444">Read/write customer data</text>
<rect x="0" y="194" width="733" height="26" fill="#ddd" opacity="0.18"/>
<text x="22.5" y="211" font-size="11" text-anchor="middle" fill="#444">6</text>
<text x="55" y="211" font-size="11" text-anchor="start" fill="#444">Billing (Application zone)</text>
<text x="248" y="211" font-size="11" text-anchor="start" fill="#444">Transfer gateway (DMZ)</text>
<text x="435" y="211" font-size="11" text-anchor="start" fill="#444">SFTP</text>
<text x="526.5" y="211" font-size="11" text-anchor="middle" fill="#444">22</text>
<text x="562" y="211" font-size="11" text-anchor="start" fill="#444">Drop invoices to transmit</text>
<text x="22.5" y="237" font-size="11" text-anchor="middle" fill="#444">7</text>
<text x="55" y="237" font-size="11" text-anchor="start" fill="#444">Transfer gateway (DMZ)</text>
<text x="248" y="237" font-size="11" text-anchor="start" fill="#444">Partner EDI platform</text>
<text x="435" y="237" font-size="11" text-anchor="start" fill="#444">AS4</text>
<text x="526.5" y="237" font-size="11" text-anchor="middle" fill="#444">443</text>
<text x="562" y="237" font-size="11" text-anchor="start" fill="#444">Partner transfers</text>
<rect x="0" y="246" width="733" height="26" fill="#ddd" opacity="0.18"/>
<text x="22.5" y="263" font-size="11" text-anchor="middle" fill="#444">8</text>
<text x="55" y="263" font-size="11" text-anchor="start" fill="#444">Database server (Data zone)</text>
<text x="248" y="263" font-size="11" text-anchor="start" fill="#444">Backup server (Data zone)</text>
<text x="435" y="263" font-size="11" text-anchor="start" fill="#444">TCP</text>
<text x="526.5" y="263" font-size="11" text-anchor="middle" fill="#444">9092</text>
<text x="562" y="263" font-size="11" text-anchor="start" fill="#444">Daily backups</text>
<line x1="45" y1="34" x2="45" y2="272" stroke="#ddd" stroke-width="1"/>
<line x1="238" y1="34" x2="238" y2="272" stroke="#ddd" stroke-width="1"/>
<line x1="425" y1="34" x2="425" y2="272" stroke="#ddd" stroke-width="1"/>
<line x1="501" y1="34" x2="501" y2="272" stroke="#ddd" stroke-width="1"/>
<line x1="552" y1="34" x2="552" y2="272" stroke="#ddd" stroke-width="1"/>
<line x1="0" y1="272" x2="733" y2="272" stroke="#ddd"/>
<rect x="0" y="34" width="733" height="238" fill="none" stroke="#ddd"/>
</svg>
