<svg xmlns="http://www.w3.org/2000/svg" viewBox="0 0 3479 1209" font-family="Helvetica,Arial,sans-serif">
<defs><marker id="arr" viewBox="0 0 10 10" refX="9" refY="5" markerWidth="7" markerHeight="7" orient="auto-start-reverse">
<path d="M0,0 L10,5 L0,10 z" fill="#444444"/></marker></defs>
<rect width="3479" height="1209" fill="white"/>
<rect x="174" y="568" width="119" height="257" rx="6" fill="#eef4fb" stroke="#7a9cc4" stroke-width="1.2" stroke-dasharray="5 3"/>
<text x="184" y="586" font-size="12" font-weight="bold" fill="#333">Customers</text>
<rect x="10" y="97" width="135" height="442" rx="6" fill="#eef4fb" stroke="#7a9cc4" stroke-width="1.2" stroke-dasharray="5 3"/>
<text x="20" y="115" font-size="12" font-weight="bold" fill="#333">Internal teams</text>
<rect x="1505" y="383" width="880" height="492.5" rx="6" fill="#f6f2ea" stroke="#b09a6d" stroke-width="1.2"/>
<text x="1515" y="401" font-size="12" font-weight="bold" fill="#333">Commerce front</text>
<rect x="1540" y="553.5" width="162" height="222" rx="6" fill="#fdfbf6" stroke="#c4b258" stroke-width="1"/>
<text x="1550" y="571.5" font-size="12" font-weight="bold" fill="#333">Presentation layer</text>
<rect x="1957" y="561.5" width="383" height="239" rx="6" fill="#fdfbf6" stroke="#c4b258" stroke-width="1"/>
<text x="1967" y="579.5" font-size="12" font-weight="bold" fill="#333">Customer-journey layer</text>
<rect x="353" y="100" width="983" height="556" rx="6" fill="#f6f2ea" stroke="#b09a6d" stroke-width="1.2"/>
<text x="363" y="118" font-size="12" font-weight="bold" fill="#333">Commerce core</text>
<rect x="959" y="156" width="342" height="240" rx="6" fill="#fdfbf6" stroke="#c4b258" stroke-width="1"/>
<text x="969" y="174" font-size="12" font-weight="bold" fill="#333">Sales layer</text>
<rect x="522" y="432" width="132" height="214" rx="6" fill="#fdfbf6" stroke="#c4b258" stroke-width="1"/>
<text x="532" y="450" font-size="12" font-weight="bold" fill="#333">Offer layer</text>
<rect x="388" y="183" width="400" height="169" rx="6" fill="#fdfbf6" stroke="#c4b258" stroke-width="1"/>
<text x="398" y="201" font-size="12" font-weight="bold" fill="#333">Execution layer</text>
<rect x="2515" y="265" width="639" height="192" rx="6" fill="#f6f2ea" stroke="#b09a6d" stroke-width="1.2"/>
<text x="2525" y="283" font-size="12" font-weight="bold" fill="#333">Data platform</text>
<rect x="2530" y="293" width="132" height="154" rx="6" fill="#fdfbf6" stroke="#c4b258" stroke-width="1"/>
<text x="2540" y="311" font-size="12" font-weight="bold" fill="#333">Collection layer</text>
<rect x="2801" y="301" width="338" height="97" rx="6" fill="#fdfbf6" stroke="#c4b258" stroke-width="1"/>
<text x="2811" y="319" font-size="12" font-weight="bold" fill="#333">Analytics layer</text>
<rect x="3287" y="76" width="137" height="358" rx="6" fill="#f0eef5" stroke="#9187b3" stroke-width="1.2" stroke-dasharray="5 3"/>
<text x="3297" y="94" font-size="12" font-weight="bold" fill="#333">External systems</text>
<circle cx="242" cy="769" r="7" fill="none" stroke="#445566" stroke-width="1.5"/>
<path d="M 231 791 q 11 -19 22 0" fill="none" stroke="#445566" stroke-width="1.5"/>
<text x="242" y="803" font-size="10" text-anchor="middle" fill="#223344">Web customer</text>
<circle cx="233.5" cy="693" r="7" fill="none" stroke="#445566" stroke-width="1.5"/>
<path d="M 222.5 715 q 11 -19 22 0" fill="none" stroke="#445566" stroke-width="1.5"/>
<text x="233.5" y="727" font-size="10" text-anchor="middle" fill="#223344">Mobile customer</text>
<circle cx="251" cy="606" r="7" fill="none" stroke="#445566" stroke-width="1.5"/>
<path d="M 240 628 q 11 -19 22 0" fill="none" stroke="#445566" stroke-width="1.5"/>
<text x="251" y="640" font-size="10" text-anchor="middle" fill="#223344">In-store</text>
<text x="251" y="651" font-size="10" text-anchor="middle" fill="#223344">customer</text>
<circle cx="77.5" cy="211" r="7" fill="none" stroke="#445566" stroke-width="1.5"/>
<path d="M 66.5 233 q 11 -19 22 0" fill="none" stroke="#445566" stroke-width="1.5"/>
<text x="77.5" y="245" font-size="10" text-anchor="middle" fill="#223344">Customer-relations</text>
<text x="77.5" y="256" font-size="10" text-anchor="middle" fill="#223344">advisor</text>
<circle cx="91.5" cy="472" r="7" fill="none" stroke="#445566" stroke-width="1.5"/>
<path d="M 80.5 494 q 11 -19 22 0" fill="none" stroke="#445566" stroke-width="1.5"/>
<text x="91.5" y="506" font-size="10" text-anchor="middle" fill="#223344">Merchandising</text>
<text x="91.5" y="517" font-size="10" text-anchor="middle" fill="#223344">manager</text>
<circle cx="102.5" cy="298" r="7" fill="none" stroke="#445566" stroke-width="1.5"/>
<path d="M 91.5 320 q 11 -19 22 0" fill="none" stroke="#445566" stroke-width="1.5"/>
<text x="102.5" y="332" font-size="10" text-anchor="middle" fill="#223344">Warehouse</text>
<text x="102.5" y="343" font-size="10" text-anchor="middle" fill="#223344">operator</text>
<circle cx="99.5" cy="135" r="7" fill="none" stroke="#445566" stroke-width="1.5"/>
<path d="M 88.5 157 q 11 -19 22 0" fill="none" stroke="#445566" stroke-width="1.5"/>
<text x="99.5" y="169" font-size="10" text-anchor="middle" fill="#223344">Accountant</text>
<circle cx="91.5" cy="385" r="7" fill="none" stroke="#445566" stroke-width="1.5"/>
<path d="M 80.5 407 q 11 -19 22 0" fill="none" stroke="#445566" stroke-width="1.5"/>
<text x="91.5" y="419" font-size="10" text-anchor="middle" fill="#223344">Platform</text>
<text x="91.5" y="430" font-size="10" text-anchor="middle" fill="#223344">administrator</text>
<rect x="1550" y="717.5" width="112" height="48" rx="4" fill="#ffffff" stroke="#666677" stroke-width="1.3"/>
<text x="1606" y="738.75" font-size="11.5" text-anchor="middle" fill="#222233">E-commerce</text>
<text x="1606" y="752.25" font-size="11.5" text-anchor="middle" fill="#222233">site</text>
<rect x="1550" y="649.5" width="112" height="48" rx="4" fill="#ffffff" stroke="#666677" stroke-width="1.3"/>
<text x="1606" y="670.75" font-size="11.5" text-anchor="middle" fill="#222233">Mobile</text>
<text x="1606" y="684.25" font-size="11.5" text-anchor="middle" fill="#222233">app</text>
<rect x="1550" y="581.5" width="112" height="48" rx="4" fill="#ffffff" stroke="#666677" stroke-width="1.3"/>
<text x="1606" y="602.75" font-size="11.5" text-anchor="middle" fill="#222233">Store</text>
<text x="1606" y="616.25" font-size="11.5" text-anchor="middle" fill="#222233">kiosks</text>
<rect x="2007" y="731.5" width="112" height="48" rx="4" fill="#ffffff" stroke="#666677" stroke-width="1.3"/>
<text x="2063" y="752.75" font-size="11.5" text-anchor="middle" fill="#222233">Catalog</text>
<text x="2063" y="766.25" font-size="11.5" text-anchor="middle" fill="#222233">browsing</text>
<rect x="2007" y="657.5" width="112" height="48" rx="4" fill="#ffffff" stroke="#666677" stroke-width="1.3"/>
<text x="2063" y="678.75" font-size="11.5" text-anchor="middle" fill="#222233">Cart and</text>
<text x="2063" y="692.25" font-size="11.5" text-anchor="middle" fill="#222233">checkout</text>
<rect x="2007" y="589.5" width="112" height="48" rx="4" fill="#ffffff" stroke="#666677" stroke-width="1.3"/>
<text x="2063" y="610.75" font-size="11.5" text-anchor="middle" fill="#222233">Customer</text>
<text x="2063" y="624.25" font-size="11.5" text-anchor="middle" fill="#222233">account</text>
<rect x="2213" y="723.5" width="117" height="48" rx="4" fill="#ffffff" stroke="#666677" stroke-width="1.3"/>
<text x="2271.5" y="744.75" font-size="11.5" text-anchor="middle" fill="#222233">Personalized</text>
<text x="2271.5" y="758.25" font-size="11.5" text-anchor="middle" fill="#222233">recommendations</text>
<rect x="969" y="270" width="112" height="48" rx="4" fill="#ffffff" stroke="#666677" stroke-width="1.3"/>
<text x="1025" y="291.25" font-size="11.5" text-anchor="middle" fill="#222233">Order</text>
<text x="1025" y="304.75" font-size="11.5" text-anchor="middle" fill="#222233">management</text>
<rect x="1179" y="224" width="112" height="48" rx="4" fill="#ffffff" stroke="#666677" stroke-width="1.3"/>
<text x="1235" y="245.25" font-size="11.5" text-anchor="middle" fill="#222233">Payment</text>
<text x="1235" y="258.75" font-size="11.5" text-anchor="middle" fill="#222233">orchestration</text>
<rect x="969" y="338" width="112" height="48" rx="4" fill="#ffffff" stroke="#666677" stroke-width="1.3"/>
<text x="1025" y="359.25" font-size="11.5" text-anchor="middle" fill="#222233">Promotions</text>
<text x="1025" y="372.75" font-size="11.5" text-anchor="middle" fill="#222233">engine</text>
<rect x="969" y="190" width="112" height="48" rx="4" fill="#ffffff" stroke="#666677" stroke-width="1.3"/>
<text x="1025" y="211.25" font-size="11.5" text-anchor="middle" fill="#222233">Loyalty</text>
<text x="1025" y="224.75" font-size="11.5" text-anchor="middle" fill="#222233">program</text>
<rect x="532" y="460" width="112" height="48" rx="4" fill="#ffffff" stroke="#666677" stroke-width="1.3"/>
<text x="588" y="481.25" font-size="11.5" text-anchor="middle" fill="#222233">Product</text>
<text x="588" y="494.75" font-size="11.5" text-anchor="middle" fill="#222233">repository</text>
<rect x="532" y="596" width="112" height="40" rx="4" fill="#ffffff" stroke="#666677" stroke-width="1.3"/>
<text x="588" y="620" font-size="11.5" text-anchor="middle" fill="#222233">Pricing</text>
<rect x="532" y="528" width="112" height="48" rx="4" fill="#ffffff" stroke="#666677" stroke-width="1.3"/>
<text x="588" y="549.25" font-size="11.5" text-anchor="middle" fill="#222233">Unified stock</text>
<text x="588" y="562.75" font-size="11.5" text-anchor="middle" fill="#222233">view</text>
<rect x="398" y="294" width="112" height="48" rx="4" fill="#ffffff" stroke="#666677" stroke-width="1.3"/>
<text x="454" y="315.25" font-size="11.5" text-anchor="middle" fill="#222233">Shipment</text>
<text x="454" y="328.75" font-size="11.5" text-anchor="middle" fill="#222233">orchestration</text>
<rect x="666" y="253" width="112" height="48" rx="4" fill="#ffffff" stroke="#666677" stroke-width="1.3"/>
<text x="722" y="274.25" font-size="11.5" text-anchor="middle" fill="#222233">Warehouse</text>
<text x="722" y="287.75" font-size="11.5" text-anchor="middle" fill="#222233">control</text>
<rect x="398" y="211" width="112" height="48" rx="4" fill="#ffffff" stroke="#666677" stroke-width="1.3"/>
<text x="454" y="232.25" font-size="11.5" text-anchor="middle" fill="#222233">After-sales</text>
<text x="454" y="245.75" font-size="11.5" text-anchor="middle" fill="#222233">service</text>
<rect x="2540" y="389" width="112" height="48" rx="4" fill="#ffffff" stroke="#666677" stroke-width="1.3"/>
<text x="2596" y="410.25" font-size="11.5" text-anchor="middle" fill="#222233">Browsing-event</text>
<text x="2596" y="423.75" font-size="11.5" text-anchor="middle" fill="#222233">collection</text>
<rect x="2540" y="321" width="112" height="48" rx="4" fill="#ffffff" stroke="#666677" stroke-width="1.3"/>
<text x="2596" y="342.25" font-size="11.5" text-anchor="middle" fill="#222233">Reference-data</text>
<text x="2596" y="355.75" font-size="11.5" text-anchor="middle" fill="#222233">change capture</text>
<rect x="2811" y="329" width="112" height="48" rx="4" fill="#ffffff" stroke="#666677" stroke-width="1.3"/>
<text x="2867" y="350.25" font-size="11.5" text-anchor="middle" fill="#222233">Data</text>
<text x="2867" y="363.75" font-size="11.5" text-anchor="middle" fill="#222233">warehouse</text>
<rect x="3017" y="329" width="112" height="48" rx="4" fill="#ffffff" stroke="#666677" stroke-width="1.3"/>
<text x="3073" y="350.25" font-size="11.5" text-anchor="middle" fill="#222233">Customer</text>
<text x="3073" y="363.75" font-size="11.5" text-anchor="middle" fill="#222233">segmentation</text>
<rect x="3297" y="172" width="117" height="48" rx="4" fill="#ffffff" stroke="#666677" stroke-width="1.3"/>
<text x="3355.5" y="193.25" font-size="11.5" text-anchor="middle" fill="#222233">Payment service</text>
<text x="3355.5" y="206.75" font-size="11.5" text-anchor="middle" fill="#222233">provider (PSP)</text>
<rect x="3299.5" y="104" width="112" height="48" rx="4" fill="#ffffff" stroke="#666677" stroke-width="1.3"/>
<text x="3355.5" y="125.25" font-size="11.5" text-anchor="middle" fill="#222233">Carrier</text>
<text x="3355.5" y="138.75" font-size="11.5" text-anchor="middle" fill="#222233">platforms</text>
<rect x="3302" y="240" width="112" height="48" rx="4" fill="#ffffff" stroke="#666677" stroke-width="1.3"/>
<text x="3358" y="261.25" font-size="11.5" text-anchor="middle" fill="#222233">Group</text>
<text x="3358" y="274.75" font-size="11.5" text-anchor="middle" fill="#222233">ERP</text>
<rect x="3299.5" y="376" width="112" height="48" rx="4" fill="#ffffff" stroke="#666677" stroke-width="1.3"/>
<text x="3355.5" y="397.25" font-size="11.5" text-anchor="middle" fill="#222233">Group</text>
<text x="3355.5" y="410.75" font-size="11.5" text-anchor="middle" fill="#222233">CRM</text>
<rect x="3297" y="308" width="117" height="48" rx="4" fill="#ffffff" stroke="#666677" stroke-width="1.3"/>
<text x="3355.5" y="329.25" font-size="11.5" text-anchor="middle" fill="#222233">Customer-review</text>
<text x="3355.5" y="342.75" font-size="11.5" text-anchor="middle" fill="#222233">platform</text>
<path d="M 283 787 L 303 787 A 5 5 0 0 1 313 787 L 313 787 A 5 5 0 0 1 323 787 L 323 787 A 5 5 0 0 1 333 787 L 1365 787 L 1365 755 L 1475 755 A 5 5 0 0 1 1485 755 L 1490 755 L 1490 734 L 1500 733.5 L 1550 733.5" fill="none" stroke="#444444" stroke-width="1.3" marker-end="url(#arr)"/>
<text x="1422.5" y="769.5" font-size="10.5" text-anchor="middle" fill="#333" font-style="italic" stroke="white" stroke-width="2.5" paint-order="stroke" stroke-linejoin="round">Browse, search,</text>
<text x="1422.5" y="783" font-size="10.5" text-anchor="middle" fill="#333" font-style="italic" stroke="white" stroke-width="2.5" paint-order="stroke" stroke-linejoin="round">order</text>
<path d="M 283 711 L 303 711 A 5 5 0 0 1 313 711 L 313 711 A 5 5 0 0 1 323 711 L 323 711 A 5 5 0 0 1 333 711 L 1475 711 A 5 5 0 0 1 1485 711 L 1490 711 L 1490 674 L 1500 673.5 L 1550 673.5" fill="none" stroke="#444444" stroke-width="1.3" marker-end="url(#arr)"/>
<text x="385.5" y="725.5" font-size="10.5" text-anchor="middle" fill="#333" font-style="italic" stroke="white" stroke-width="2.5" paint-order="stroke" stroke-linejoin="round">Mobile purchase</text>
<text x="385.5" y="739" font-size="10.5" text-anchor="middle" fill="#333" font-style="italic" stroke="white" stroke-width="2.5" paint-order="stroke" stroke-linejoin="round">journey</text>
<path d="M 283 629.5 L 298 630 L 303 630 A 5 5 0 0 1 313 630 L 313 630 A 5 5 0 0 1 323 630 L 323 630 A 5 5 0 0 1 333 630 L 338 630 L 338 667 L 1475 667 A 5 5 0 0 1 1485 667 L 1490 667 L 1490 606 L 1500 605.5 L 1550 605.5" fill="none" stroke="#444444" stroke-width="1.3" marker-end="url(#arr)"/>
<text x="395.5" y="681.5" font-size="10.5" text-anchor="middle" fill="#333" font-style="italic" stroke="white" stroke-width="2.5" paint-order="stroke" stroke-linejoin="round">Check stock and</text>
<text x="395.5" y="695" font-size="10.5" text-anchor="middle" fill="#333" font-style="italic" stroke="white" stroke-width="2.5" paint-order="stroke" stroke-linejoin="round">order in store</text>
<path d="M 1662 741.5 L 1682 741.5 L 1682 671.5 L 1852 671.5 L 1852 765.5 L 1977 765.5 L 1977 761.5 L 2007 761.5" fill="none" stroke="#444444" stroke-width="1.3" marker-end="url(#arr)"/>
<text x="1784.5" y="686" font-size="10.5" text-anchor="middle" fill="#333" font-style="italic" stroke="white" stroke-width="2.5" paint-order="stroke" stroke-linejoin="round">Display product</text>
<text x="1784.5" y="699.5" font-size="10.5" text-anchor="middle" fill="#333" font-style="italic" stroke="white" stroke-width="2.5" paint-order="stroke" stroke-linejoin="round">pages</text>
<path d="M 1662 681.5 L 1667 681.5 A 5 5 0 0 1 1677 681.5 L 1677 681.5 A 5 5 0 0 1 1687 681.5 L 1717 681.5 L 1717 740.5 L 1842 740.5 L 1842 775.5 L 1987 775.5 L 1987 767.5 L 2007 767.5" fill="none" stroke="#444444" stroke-width="1.3" marker-end="url(#arr)"/>
<text x="1784.5" y="755" font-size="10.5" text-anchor="middle" fill="#333" font-style="italic" stroke="white" stroke-width="2.5" paint-order="stroke" stroke-linejoin="round">Display mobile</text>
<text x="1784.5" y="768.5" font-size="10.5" text-anchor="middle" fill="#333" font-style="italic" stroke="white" stroke-width="2.5" paint-order="stroke" stroke-linejoin="round">catalog</text>
<path d="M 1662 605.5 L 1667 605.5 A 5 5 0 0 1 1677 605.5 L 1677 605.5 A 5 5 0 0 1 1687 605.5 L 1717 605.5 L 1717 626.5 L 1862 626.5 L 1862 755.5 L 2007 755.5" fill="none" stroke="#444444" stroke-width="1.3" marker-end="url(#arr)"/>
<text x="1784.5" y="641" font-size="10.5" text-anchor="middle" fill="#333" font-style="italic" stroke="white" stroke-width="2.5" paint-order="stroke" stroke-linejoin="round">Browse the</text>
<text x="1784.5" y="654.5" font-size="10.5" text-anchor="middle" fill="#333" font-style="italic" stroke="white" stroke-width="2.5" paint-order="stroke" stroke-linejoin="round">store offer</text>
<path d="M 1662 729.5 L 1672 729.5 L 1672 585.5 L 1717 585.5 L 1717 453.5 L 1922 453.5 L 1922 673.5 L 2007 673.5" fill="none" stroke="#444444" stroke-width="1.3" marker-end="url(#arr)"/>
<text x="1784.5" y="444.5" font-size="10.5" text-anchor="middle" fill="#333" font-style="italic" stroke="white" stroke-width="2.5" paint-order="stroke" stroke-linejoin="round">Build the cart</text>
<path d="M 1662 665.5 L 1667 665.5 A 5 5 0 0 1 1677 665.5 L 1682 665.5 L 1682 595.5 L 1727 595.5 L 1727 464.5 L 1912 464.5 L 1912 689.5 L 2007 689.5" fill="none" stroke="#444444" stroke-width="1.3" marker-end="url(#arr)"/>
<text x="1784.5" y="479" font-size="10.5" text-anchor="middle" fill="#333" font-style="italic" stroke="white" stroke-width="2.5" paint-order="stroke" stroke-linejoin="round">Synchronized</text>
<text x="1784.5" y="492.5" font-size="10.5" text-anchor="middle" fill="#333" font-style="italic" stroke="white" stroke-width="2.5" paint-order="stroke" stroke-linejoin="round">mobile cart</text>
<path d="M 2119 689.5 L 2365 689.5 L 2365 865.5 L 2390 866 L 2400 866 L 2400 886 L 1495 886 A 5 5 0 0 0 1485 886 L 1485 886 A 5 5 0 0 0 1475 886 L 333 886 A 5 5 0 0 0 323 886 L 318 886 L 318 362 L 368 362 A 5 5 0 0 1 378 362 L 808 362 A 5 5 0 0 1 818 362 L 969 362" fill="none" stroke="#444444" stroke-width="1.3" marker-end="url(#arr)"/>
<text x="1428.5" y="900.5" font-size="10.5" text-anchor="middle" fill="#333" font-style="italic" stroke="white" stroke-width="2.5" paint-order="stroke" stroke-linejoin="round">Apply current</text>
<text x="1428.5" y="914" font-size="10.5" text-anchor="middle" fill="#333" font-style="italic" stroke="white" stroke-width="2.5" paint-order="stroke" stroke-linejoin="round">offers</text>
<path d="M 2119 755.5 L 2213 755.5" fill="none" stroke="#444444" stroke-width="1.3" marker-end="url(#arr)"/>
<text x="2166" y="770" font-size="10.5" text-anchor="middle" fill="#333" font-style="italic" stroke="white" stroke-width="2.5" paint-order="stroke" stroke-linejoin="round">Browsing</text>
<text x="2166" y="783.5" font-size="10.5" text-anchor="middle" fill="#333" font-style="italic" stroke="white" stroke-width="2.5" paint-order="stroke" stroke-linejoin="round">context</text>
<path d="M 2330 747.5 L 2355 747.5 L 2355 810.5 L 1722 810.5 A 5 5 0 0 0 1712 810.5 L 1525 810.5 L 1525 749.5 L 1550 749.5" fill="none" stroke="#444444" stroke-width="1.3" marker-end="url(#arr)"/>
<text x="1784.5" y="825" font-size="10.5" text-anchor="middle" fill="#333" font-style="italic" stroke="white" stroke-width="2.5" paint-order="stroke" stroke-linejoin="round">Personalized</text>
<text x="1784.5" y="838.5" font-size="10.5" text-anchor="middle" fill="#333" font-style="italic" stroke="white" stroke-width="2.5" paint-order="stroke" stroke-linejoin="round">suggestions</text>
<path d="M 2119 613.5 L 2390 614 L 2400 614 L 2400 373 L 1495 373 A 5 5 0 0 0 1485 373 L 1366 373 A 5 5 0 0 0 1356 373 L 1351 373 L 1351 90 L 338 90 L 338 139 L 798 139 A 5 5 0 0 1 808 139 L 944 139 L 944 214 L 969 214" fill="none" stroke="#444444" stroke-width="1.3" marker-end="url(#arr)"/>
<text x="1422.5" y="387.5" font-size="10.5" text-anchor="middle" fill="#333" font-style="italic" stroke="white" stroke-width="2.5" paint-order="stroke" stroke-linejoin="round">Loyalty balance</text>
<text x="1422.5" y="401" font-size="10.5" text-anchor="middle" fill="#333" font-style="italic" stroke="white" stroke-width="2.5" paint-order="stroke" stroke-linejoin="round">and benefits</text>
<path d="M 2119 673.5 L 2390 674 L 2410 674 L 2410 364 L 1500 364 L 1500 310 L 1405 310 L 1405 81 L 328 81 L 328 172 L 798 172 A 5 5 0 0 1 808 172 L 914 172 L 914 286 L 969 286" fill="none" stroke="#444444" stroke-width="1.3" marker-end="url(#arr)"/>
<text x="1447.5" y="324.5" font-size="10.5" text-anchor="middle" fill="#333" font-style="italic" stroke="white" stroke-width="2.5" paint-order="stroke" stroke-linejoin="round">Order</text>
<text x="1447.5" y="338" font-size="10.5" text-anchor="middle" fill="#333" font-style="italic" stroke="white" stroke-width="2.5" paint-order="stroke" stroke-linejoin="round">validation</text>
<rect x="1426" y="346" width="43" height="15" rx="7.5" fill="#fdf3d8" stroke="#c9a227" stroke-width="1"/>
<text x="1447.5" y="357" font-size="9.5" text-anchor="middle" fill="#7a6216" font-weight="bold">Order</text>
<path d="M 1081 282 L 1091 282 L 1091 237 L 1169 237 L 1169 236 L 1179 236" fill="none" stroke="#444444" stroke-width="1.3" marker-end="url(#arr)"/>
<text x="1130" y="195.5" font-size="10.5" text-anchor="middle" fill="#333" font-style="italic" stroke="white" stroke-width="2.5" paint-order="stroke" stroke-linejoin="round">Charge</text>
<text x="1130" y="209" font-size="10.5" text-anchor="middle" fill="#333" font-style="italic" stroke="white" stroke-width="2.5" paint-order="stroke" stroke-linejoin="round">request</text>
<rect x="1103" y="217" width="54" height="15" rx="7.5" fill="#fdf3d8" stroke="#c9a227" stroke-width="1"/>
<text x="1130" y="228" font-size="9.5" text-anchor="middle" fill="#7a6216" font-weight="bold">Payment</text>
<path d="M 1291 248 L 1346 248 A 5 5 0 0 1 1356 248 L 1395 248 L 1395 191 L 1400 191 A 5 5 0 0 1 1410 191 L 1555 191 L 1555 196 L 3297 196" fill="none" stroke="#444444" stroke-width="1.3" marker-end="url(#arr)"/>
<text x="1480" y="205.5" font-size="10.5" text-anchor="middle" fill="#333" font-style="italic" stroke="white" stroke-width="2.5" paint-order="stroke" stroke-linejoin="round">Payment authorization</text>
<text x="1480" y="219" font-size="10.5" text-anchor="middle" fill="#333" font-style="italic" stroke="white" stroke-width="2.5" paint-order="stroke" stroke-linejoin="round">and capture</text>
<rect x="1453" y="227" width="54" height="15" rx="7.5" fill="#fdf3d8" stroke="#c9a227" stroke-width="1"/>
<text x="1480" y="238" font-size="9.5" text-anchor="middle" fill="#7a6216" font-weight="bold">Payment</text>
<path d="M 3414 196 L 3449 196 L 3449 22 L 318 22 L 318 150 L 323 150 A 5 5 0 0 1 333 150 L 798 150 A 5 5 0 0 1 808 150 L 934 150 L 934 248 L 1086 248 A 5 5 0 0 1 1096 248 L 1179 248" fill="none" stroke="#444444" stroke-width="1.3" marker-end="url(#arr)"/>
<text x="3317.5" y="36.5" font-size="10.5" text-anchor="middle" fill="#333" font-style="italic" stroke="white" stroke-width="2.5" paint-order="stroke" stroke-linejoin="round">Transaction</text>
<text x="3317.5" y="50" font-size="10.5" text-anchor="middle" fill="#333" font-style="italic" stroke="white" stroke-width="2.5" paint-order="stroke" stroke-linejoin="round">status</text>
<path d="M 1081 306 L 1316 306 L 1316 406 L 818 406 A 5 5 0 0 0 808 406 L 373 406 L 373 326 L 398 326" fill="none" stroke="#444444" stroke-width="1.3" marker-end="url(#arr)"/>
<text x="858.5" y="420.5" font-size="10.5" text-anchor="middle" fill="#333" font-style="italic" stroke="white" stroke-width="2.5" paint-order="stroke" stroke-linejoin="round">Fulfilment</text>
<text x="858.5" y="434" font-size="10.5" text-anchor="middle" fill="#333" font-style="italic" stroke="white" stroke-width="2.5" paint-order="stroke" stroke-linejoin="round">order</text>
<rect x="837" y="442" width="43" height="15" rx="7.5" fill="#fdf3d8" stroke="#c9a227" stroke-width="1"/>
<text x="858.5" y="453" font-size="9.5" text-anchor="middle" fill="#7a6216" font-weight="bold">Order</text>
<path d="M 510 318 L 530 318 L 530 285 L 666 285" fill="none" stroke="#444444" stroke-width="1.3" marker-end="url(#arr)"/>
<text x="593" y="299.5" font-size="10.5" text-anchor="middle" fill="#333" font-style="italic" stroke="white" stroke-width="2.5" paint-order="stroke" stroke-linejoin="round">Warehouse picking</text>
<text x="593" y="313" font-size="10.5" text-anchor="middle" fill="#333" font-style="italic" stroke="white" stroke-width="2.5" paint-order="stroke" stroke-linejoin="round">waves</text>
<path d="M 135 321.5 L 150 322 L 318 322 L 318 269 L 515 269 A 5 5 0 0 1 525 269 L 666 269" fill="none" stroke="#444444" stroke-width="1.3" marker-end="url(#arr)"/>
<text x="266.5" y="336.5" font-size="10.5" text-anchor="middle" fill="#333" font-style="italic" stroke="white" stroke-width="2.5" paint-order="stroke" stroke-linejoin="round">Pick and ship</text>
<text x="266.5" y="350" font-size="10.5" text-anchor="middle" fill="#333" font-style="italic" stroke="white" stroke-width="2.5" paint-order="stroke" stroke-linejoin="round">parcels</text>
<path d="M 510 306 L 520 306 L 520 224 L 803 224 L 803 128 L 1346 128 A 5 5 0 0 1 1356 128 L 1400 128 A 5 5 0 0 1 1410 128 L 3299.5 128" fill="none" stroke="#444444" stroke-width="1.3" marker-end="url(#arr)"/>
<text x="1462.5" y="142.5" font-size="10.5" text-anchor="middle" fill="#333" font-style="italic" stroke="white" stroke-width="2.5" paint-order="stroke" stroke-linejoin="round">Pickup requests</text>
<text x="1462.5" y="156" font-size="10.5" text-anchor="middle" fill="#333" font-style="italic" stroke="white" stroke-width="2.5" paint-order="stroke" stroke-linejoin="round">and labels</text>
<rect x="1438.5" y="164" width="48" height="15" rx="7.5" fill="#fdf3d8" stroke="#c9a227" stroke-width="1"/>
<text x="1462.5" y="175" font-size="9.5" text-anchor="middle" fill="#7a6216" font-weight="bold">Parcel</text>
<path d="M 3411.5 128 L 3439 128 L 3439 66 L 323 66 A 5 5 0 0 0 313 66 L 308 66 L 308 310 L 313 310 A 5 5 0 0 1 323 310 L 398 310" fill="none" stroke="#444444" stroke-width="1.3" marker-end="url(#arr)"/>
<text x="3218.5" y="80.5" font-size="10.5" text-anchor="middle" fill="#333" font-style="italic" stroke="white" stroke-width="2.5" paint-order="stroke" stroke-linejoin="round">Parcel-tracking</text>
<text x="3218.5" y="94" font-size="10.5" text-anchor="middle" fill="#333" font-style="italic" stroke="white" stroke-width="2.5" paint-order="stroke" stroke-linejoin="round">events</text>
<path d="M 510 330 L 813 330 L 813 481 L 1371 481 L 1371 422 L 1475 422 A 5 5 0 0 1 1485 422 L 1485 422 A 5 5 0 0 1 1495 422 L 1932 422 L 1932 621.5 L 2007 621.5" fill="none" stroke="#444444" stroke-width="1.3" marker-end="url(#arr)"/>
<text x="1425.5" y="436.5" font-size="10.5" text-anchor="middle" fill="#333" font-style="italic" stroke="white" stroke-width="2.5" paint-order="stroke" stroke-linejoin="round">Customer order</text>
<text x="1425.5" y="450" font-size="10.5" text-anchor="middle" fill="#333" font-style="italic" stroke="white" stroke-width="2.5" paint-order="stroke" stroke-linejoin="round">tracking</text>
<path d="M 135 234.5 L 150 235 L 303 235 A 5 5 0 0 1 313 235 L 398 235" fill="none" stroke="#444444" stroke-width="1.3" marker-end="url(#arr)"/>
<text x="265.5" y="249.5" font-size="10.5" text-anchor="middle" fill="#333" font-style="italic" stroke="white" stroke-width="2.5" paint-order="stroke" stroke-linejoin="round">Handle</text>
<text x="265.5" y="263" font-size="10.5" text-anchor="middle" fill="#333" font-style="italic" stroke="white" stroke-width="2.5" paint-order="stroke" stroke-linejoin="round">complaints</text>
<path d="M 510 235 L 515 235 A 5 5 0 0 1 525 235 L 904 235 L 904 302 L 969 302" fill="none" stroke="#444444" stroke-width="1.3" marker-end="url(#arr)"/>
<text x="858.5" y="249.5" font-size="10.5" text-anchor="middle" fill="#333" font-style="italic" stroke="white" stroke-width="2.5" paint-order="stroke" stroke-linejoin="round">Returns and</text>
<text x="858.5" y="263" font-size="10.5" text-anchor="middle" fill="#333" font-style="italic" stroke="white" stroke-width="2.5" paint-order="stroke" stroke-linejoin="round">refunds</text>
<path d="M 135 495.5 L 150 496 L 209 496 L 209 492 L 313 492 A 5 5 0 0 1 323 492 L 532 492" fill="none" stroke="#444444" stroke-width="1.3" marker-end="url(#arr)"/>
<text x="263.5" y="506.5" font-size="10.5" text-anchor="middle" fill="#333" font-style="italic" stroke="white" stroke-width="2.5" paint-order="stroke" stroke-linejoin="round">Enrich product</text>
<text x="263.5" y="520" font-size="10.5" text-anchor="middle" fill="#333" font-style="italic" stroke="white" stroke-width="2.5" paint-order="stroke" stroke-linejoin="round">pages</text>
<path d="M 644 492 L 1357 492 L 1357 490 L 1448 490 L 1448 521 L 1500 520.5 L 1712 520.5 A 5 5 0 0 1 1722 520.5 L 1722 520.5 A 5 5 0 0 1 1732 520.5 L 1892 520.5 L 1892 725.5 L 1997 725.5 L 1997 737.5 L 2007 737.5" fill="none" stroke="#444444" stroke-width="1.3" marker-end="url(#arr)"/>
<text x="1402.5" y="504.5" font-size="10.5" text-anchor="middle" fill="#333" font-style="italic" stroke="white" stroke-width="2.5" paint-order="stroke" stroke-linejoin="round">Publish the</text>
<text x="1402.5" y="518" font-size="10.5" text-anchor="middle" fill="#333" font-style="italic" stroke="white" stroke-width="2.5" paint-order="stroke" stroke-linejoin="round">catalog</text>
<rect x="1375.5" y="526" width="54" height="15" rx="7.5" fill="#fdf3d8" stroke="#c9a227" stroke-width="1"/>
<text x="1402.5" y="537" font-size="9.5" text-anchor="middle" fill="#7a6216" font-weight="bold">Product</text>
<path d="M 644 616 L 1458 616 L 1458 543 L 1500 542.5 L 1712 542.5 A 5 5 0 0 1 1722 542.5 L 1722 542.5 A 5 5 0 0 1 1732 542.5 L 1872 542.5 L 1872 745.5 L 1977 745.5 L 1977 749.5 L 2007 749.5" fill="none" stroke="#444444" stroke-width="1.3" marker-end="url(#arr)"/>
<text x="1409.5" y="630.5" font-size="10.5" text-anchor="middle" fill="#333" font-style="italic" stroke="white" stroke-width="2.5" paint-order="stroke" stroke-linejoin="round">Current sale</text>
<text x="1409.5" y="644" font-size="10.5" text-anchor="middle" fill="#333" font-style="italic" stroke="white" stroke-width="2.5" paint-order="stroke" stroke-linejoin="round">prices</text>
<path d="M 3414 256 L 3469 256 L 3469 960 L 308 960 L 308 552 L 313 552 A 5 5 0 0 1 323 552 L 532 552" fill="none" stroke="#444444" stroke-width="1.3" marker-end="url(#arr)"/>
<text x="3332.5" y="974.5" font-size="10.5" text-anchor="middle" fill="#333" font-style="italic" stroke="white" stroke-width="2.5" paint-order="stroke" stroke-linejoin="round">Accounting stock</text>
<text x="3332.5" y="988" font-size="10.5" text-anchor="middle" fill="#333" font-style="italic" stroke="white" stroke-width="2.5" paint-order="stroke" stroke-linejoin="round">movements</text>
<path d="M 644 552 L 1351 552 L 1351 553 L 1448 553 L 1448 532 L 1500 531.5 L 1712 531.5 A 5 5 0 0 1 1722 531.5 L 1722 531.5 A 5 5 0 0 1 1732 531.5 L 1882 531.5 L 1882 735.5 L 1987 735.5 L 1987 743.5 L 2007 743.5" fill="none" stroke="#444444" stroke-width="1.3" marker-end="url(#arr)"/>
<text x="1399.5" y="567.5" font-size="10.5" text-anchor="middle" fill="#333" font-style="italic" stroke="white" stroke-width="2.5" paint-order="stroke" stroke-linejoin="round">Product</text>
<text x="1399.5" y="581" font-size="10.5" text-anchor="middle" fill="#333" font-style="italic" stroke="white" stroke-width="2.5" paint-order="stroke" stroke-linejoin="round">availability</text>
<rect x="1372.5" y="589" width="54" height="15" rx="7.5" fill="#fdf3d8" stroke="#c9a227" stroke-width="1"/>
<text x="1399.5" y="600" font-size="9.5" text-anchor="middle" fill="#7a6216" font-weight="bold">Product</text>
<path d="M 3414 272 L 3459 272 L 3459 950 L 328 950 L 328 616 L 532 616" fill="none" stroke="#444444" stroke-width="1.3" marker-end="url(#arr)"/>
<text x="3217" y="927.5" font-size="10.5" text-anchor="middle" fill="#333" font-style="italic" stroke="white" stroke-width="2.5" paint-order="stroke" stroke-linejoin="round">Reference purchase</text>
<text x="3217" y="941" font-size="10.5" text-anchor="middle" fill="#333" font-style="italic" stroke="white" stroke-width="2.5" paint-order="stroke" stroke-linejoin="round">costs</text>
<path d="M 1662 753.5 L 1717 753.5 L 1717 855.5 L 2390 856 L 2420 856 L 2420 413 L 2425 413 A 5 5 0 0 1 2435 413 L 2540 413" fill="none" stroke="#444444" stroke-width="1.3" marker-end="url(#arr)"/>
<text x="2467" y="390.5" font-size="10.5" text-anchor="middle" fill="#333" font-style="italic" stroke="white" stroke-width="2.5" paint-order="stroke" stroke-linejoin="round">Browsing</text>
<text x="2467" y="404" font-size="10.5" text-anchor="middle" fill="#333" font-style="italic" stroke="white" stroke-width="2.5" paint-order="stroke" stroke-linejoin="round">events</text>
<path d="M 644 476 L 803 476 L 803 470 L 808 470 A 5 5 0 0 1 818 470 L 1361 470 L 1361 299 L 1400 299 A 5 5 0 0 1 1410 299 L 1609 299 L 1609 345 L 2540 345" fill="none" stroke="#444444" stroke-width="1.3" marker-end="url(#arr)"/>
<text x="1554.5" y="313.5" font-size="10.5" text-anchor="middle" fill="#333" font-style="italic" stroke="white" stroke-width="2.5" paint-order="stroke" stroke-linejoin="round">Reference-data</text>
<text x="1554.5" y="327" font-size="10.5" text-anchor="middle" fill="#333" font-style="italic" stroke="white" stroke-width="2.5" paint-order="stroke" stroke-linejoin="round">changes</text>
<path d="M 2652 413 L 2677 413 L 2677 361 L 2811 361" fill="none" stroke="#444444" stroke-width="1.3" marker-end="url(#arr)"/>
<text x="2731.5" y="375.5" font-size="10.5" text-anchor="middle" fill="#333" font-style="italic" stroke="white" stroke-width="2.5" paint-order="stroke" stroke-linejoin="round">Feed the data</text>
<text x="2731.5" y="389" font-size="10.5" text-anchor="middle" fill="#333" font-style="italic" stroke="white" stroke-width="2.5" paint-order="stroke" stroke-linejoin="round">foundation</text>
<path d="M 2652 345 L 2811 345" fill="none" stroke="#444444" stroke-width="1.3" marker-end="url(#arr)"/>
<text x="2731.5" y="322.5" font-size="10.5" text-anchor="middle" fill="#333" font-style="italic" stroke="white" stroke-width="2.5" paint-order="stroke" stroke-linejoin="round">Reference-data</text>
<text x="2731.5" y="336" font-size="10.5" text-anchor="middle" fill="#333" font-style="italic" stroke="white" stroke-width="2.5" paint-order="stroke" stroke-linejoin="round">sync</text>
<path d="M 2923 353 L 3017 353" fill="none" stroke="#444444" stroke-width="1.3" marker-end="url(#arr)"/>
<text x="2970" y="367.5" font-size="10.5" text-anchor="middle" fill="#333" font-style="italic" stroke="white" stroke-width="2.5" paint-order="stroke" stroke-linejoin="round">Compute</text>
<text x="2970" y="381" font-size="10.5" text-anchor="middle" fill="#333" font-style="italic" stroke="white" stroke-width="2.5" paint-order="stroke" stroke-linejoin="round">segments</text>
<path d="M 3129 361 L 3169 361 L 3169 467 L 2430 467 L 2430 355 L 1505 355 A 5 5 0 0 0 1495 355 L 1490 355 L 1490 510 L 1500 509.5 L 1712 509.5 A 5 5 0 0 1 1722 509.5 L 1722 509.5 A 5 5 0 0 1 1732 509.5 L 1902 509.5 L 1902 715.5 L 2203 715.5 L 2203 739.5 L 2213 739.5" fill="none" stroke="#444444" stroke-width="1.3" marker-end="url(#arr)"/>
<text x="2569" y="481.5" font-size="10.5" text-anchor="middle" fill="#333" font-style="italic" stroke="white" stroke-width="2.5" paint-order="stroke" stroke-linejoin="round">Audience segments</text>
<text x="2569" y="495" font-size="10.5" text-anchor="middle" fill="#333" font-style="italic" stroke="white" stroke-width="2.5" paint-order="stroke" stroke-linejoin="round">for personalization</text>
<path d="M 3129 345 L 3272 345 L 3272 400 L 3299.5 400" fill="none" stroke="#444444" stroke-width="1.3" marker-end="url(#arr)"/>
<text x="3220.5" y="359.5" font-size="10.5" text-anchor="middle" fill="#333" font-style="italic" stroke="white" stroke-width="2.5" paint-order="stroke" stroke-linejoin="round">Audiences for</text>
<text x="3220.5" y="373" font-size="10.5" text-anchor="middle" fill="#333" font-style="italic" stroke="white" stroke-width="2.5" paint-order="stroke" stroke-linejoin="round">campaigns</text>
<path d="M 3411.5 400 L 3439 400 L 3439 895 L 1495 895 A 5 5 0 0 0 1485 895 L 1480 895 L 1480 411 L 1485 411 A 5 5 0 0 1 1495 411 L 1942 411 L 1942 605.5 L 2007 605.5" fill="none" stroke="#444444" stroke-width="1.3" marker-end="url(#arr)"/>
<text x="3320.5" y="872.5" font-size="10.5" text-anchor="middle" fill="#333" font-style="italic" stroke="white" stroke-width="2.5" paint-order="stroke" stroke-linejoin="round">Personalized</text>
<text x="3320.5" y="886" font-size="10.5" text-anchor="middle" fill="#333" font-style="italic" stroke="white" stroke-width="2.5" paint-order="stroke" stroke-linejoin="round">outreach</text>
<path d="M 135 153 L 298 153 L 298 161 L 303 161 A 5 5 0 0 1 313 161 L 323 161 A 5 5 0 0 1 333 161 L 798 161 A 5 5 0 0 1 808 161 L 924 161 L 924 259 L 1086 259 A 5 5 0 0 1 1096 259 L 1169 259 L 1169 260 L 1179 260" fill="none" stroke="#444444" stroke-width="1.3" marker-end="url(#arr)"/>
<text x="252.5" y="167.5" font-size="10.5" text-anchor="middle" fill="#333" font-style="italic" stroke="white" stroke-width="2.5" paint-order="stroke" stroke-linejoin="round">Reconcile</text>
<text x="252.5" y="181" font-size="10.5" text-anchor="middle" fill="#333" font-style="italic" stroke="white" stroke-width="2.5" paint-order="stroke" stroke-linejoin="round">collections</text>
<path d="M 135 408.5 L 150 409 L 313 409 A 5 5 0 0 1 323 409 L 338 409 L 338 476 L 532 476" fill="none" stroke="#444444" stroke-width="1.3" marker-end="url(#arr)"/>
<text x="237" y="423.5" font-size="10.5" text-anchor="middle" fill="#333" font-style="italic" stroke="white" stroke-width="2.5" paint-order="stroke" stroke-linejoin="round">Administer repositories</text>
<text x="237" y="437" font-size="10.5" text-anchor="middle" fill="#333" font-style="italic" stroke="white" stroke-width="2.5" paint-order="stroke" stroke-linejoin="round">and permissions</text>
<path d="M 1081 294 L 1346 294 A 5 5 0 0 1 1356 294 L 1395 294 L 1395 254 L 1400 254 A 5 5 0 0 1 1410 254 L 3169 254 L 3169 332 L 3297 332" fill="none" stroke="#444444" stroke-width="1.3" marker-end="url(#arr)"/>
<text x="1465.5" y="268.5" font-size="10.5" text-anchor="middle" fill="#333" font-style="italic" stroke="white" stroke-width="2.5" paint-order="stroke" stroke-linejoin="round">Request a review</text>
<text x="1465.5" y="282" font-size="10.5" text-anchor="middle" fill="#333" font-style="italic" stroke="white" stroke-width="2.5" paint-order="stroke" stroke-linejoin="round">after delivery</text>
<path d="M 3414 332 L 3449 332 L 3449 905 L 1490 905 L 1490 786 L 1500 785.5 L 1520 785.5 A 5 5 0 0 1 1530 785.5 L 1712 785.5 A 5 5 0 0 1 1722 785.5 L 1997 785.5 L 1997 773.5 L 2007 773.5" fill="none" stroke="#444444" stroke-width="1.3" marker-end="url(#arr)"/>
<text x="3329.5" y="919.5" font-size="10.5" text-anchor="middle" fill="#333" font-style="italic" stroke="white" stroke-width="2.5" paint-order="stroke" stroke-linejoin="round">Product ratings</text>
<text x="3329.5" y="933" font-size="10.5" text-anchor="middle" fill="#333" font-style="italic" stroke="white" stroke-width="2.5" paint-order="stroke" stroke-linejoin="round">and reviews</text>
<line x1="20" y1="1015" x2="3459" y2="1015" stroke="#ddd" stroke-width="1"/>
<text x="20" y="1037" font-size="11" font-weight="bold" fill="#555">BUSINESS OBJECTS</text>
<rect x="150" y="1027" width="43" height="15" rx="7.5" fill="#fdf3d8" stroke="#c9a227"/>
<text x="171.5" y="1038" font-size="9.5" text-anchor="middle" fill="#7a6216" font-weight="bold">Order</text>
<text x="203" y="1038" font-size="10" fill="#666">— cart validated by a customer, tracked until delivery</text>
<rect x="150" y="1051" width="54" height="15" rx="7.5" fill="#fdf3d8" stroke="#c9a227"/>
<text x="177" y="1062" font-size="9.5" text-anchor="middle" fill="#7a6216" font-weight="bold">Payment</text>
<text x="214" y="1062" font-size="10" fill="#666">— financial transaction tied to an order</text>
<rect x="150" y="1075" width="54" height="15" rx="7.5" fill="#fdf3d8" stroke="#c9a227"/>
<text x="177" y="1086" font-size="9.5" text-anchor="middle" fill="#7a6216" font-weight="bold">Product</text>
<text x="214" y="1086" font-size="10" fill="#666">— catalog item with price and availability</text>
<rect x="150" y="1099" width="48" height="15" rx="7.5" fill="#fdf3d8" stroke="#c9a227"/>
<text x="174" y="1110" font-size="9.5" text-anchor="middle" fill="#7a6216" font-weight="bold">Parcel</text>
<text x="208" y="1110" font-size="10" fill="#666">— shipping unit handed to the carrier</text>
<line x1="20" y1="1137" x2="3459" y2="1137" stroke="#ddd" stroke-width="1"/>
<text x="20" y="1159" font-size="11" font-weight="bold" fill="#555">LEGEND</text>
<rect x="150" y="1149" width="26" height="14" rx="3" fill="#eef4fb" stroke="#7a9cc4" stroke-dasharray="5 3"/>
<text x="182" y="1160" font-size="10" fill="#444">Actor group</text>
<rect x="272" y="1149" width="26" height="14" rx="3" fill="#f6f2ea" stroke="#b09a6d"/>
<text x="304" y="1160" font-size="10" fill="#444">System</text>
<rect x="368" y="1149" width="26" height="14" rx="3" fill="#fdfbf6" stroke="#c4b258"/>
<text x="400" y="1160" font-size="10" fill="#444">Layer</text>
<rect x="458" y="1149" width="26" height="14" rx="3" fill="#ffffff" stroke="#666677"/>
<text x="490" y="1160" font-size="10" fill="#444">Functional block</text>
<rect x="606" y="1149" width="26" height="14" rx="3" fill="#f0eef5" stroke="#9187b3" stroke-dasharray="5 3"/>
<text x="638" y="1160" font-size="10" fill="#444">External system</text>
<line x1="150" y1="1179" x2="176" y2="1179" stroke="#444444" stroke-width="1.3" marker-end="url(#arr)"/>
<text x="182" y="1183" font-size="10" fill="#444">Functional flow (label = exchanged data)</text>
<rect x="480" y="1172" width="96" height="15" rx="7.5" fill="#fdf3d8" stroke="#c9a227"/>
<text x="528" y="1183" font-size="9.5" text-anchor="middle" fill="#7a6216" font-weight="bold">Business object</text>
<text x="584" y="1183" font-size="10" fill="#444">carried by the flow</text>
</svg>
