<svg xmlns="http://www.w3.org/2000/svg" viewBox="0 0 2646 878" font-family="Helvetica,Arial,sans-serif">
<defs><marker id="arr" viewBox="0 0 10 10" refX="9" refY="5" markerWidth="7" markerHeight="7" orient="auto-start-reverse">
<path d="M0,0 L10,5 L0,10 z" fill="#444444"/></marker></defs>
<rect width="2646" height="878" fill="white"/>
<rect x="55" y="74" width="117" height="174" rx="6" fill="#eef4fb" stroke="#7a9cc4" stroke-width="1.2" stroke-dasharray="5 3"/>
<text x="65" y="92" font-size="12" font-weight="bold" fill="#333">Assurés</text>
<rect x="37" y="264" width="111" height="283" rx="6" fill="#eef4fb" stroke="#7a9cc4" stroke-width="1.2" stroke-dasharray="5 3"/>
<text x="47" y="282" font-size="12" font-weight="bold" fill="#333">Gestionnaires</text>
<rect x="394" y="42" width="1821" height="334.5" rx="6" fill="#f6f2ea" stroke="#b09a6d" stroke-width="1.2"/>
<text x="404" y="60" font-size="12" font-weight="bold" fill="#333">Système d'information sinistres</text>
<rect x="411" y="83" width="182" height="235" rx="6" fill="#fdfbf6" stroke="#c4b258" stroke-width="1"/>
<text x="421" y="101" font-size="12" font-weight="bold" fill="#333">Couche déclaration</text>
<rect x="777" y="168.5" width="796" height="185" rx="6" fill="#fdfbf6" stroke="#c4b258" stroke-width="1"/>
<text x="787" y="186.5" font-size="12" font-weight="bold" fill="#333">Couche instruction</text>
<rect x="1724" y="220" width="474" height="118" rx="6" fill="#fdfbf6" stroke="#c4b258" stroke-width="1"/>
<text x="1734" y="238" font-size="12" font-weight="bold" fill="#333">Couche indemnisation</text>
<rect x="2455" y="83" width="164" height="235" rx="6" fill="#f0eef5" stroke="#9187b3" stroke-width="1.2" stroke-dasharray="5 3"/>
<text x="2465" y="101" font-size="12" font-weight="bold" fill="#333">Systèmes externes</text>
<circle cx="118.33333333333333" cy="114" r="7" fill="none" stroke="#445566" stroke-width="1.5"/>
<path d="M 107.33333333333333 136 q 11 -19 22 0" fill="none" stroke="#445566" stroke-width="1.5"/>
<text x="118.33333333333333" y="148" font-size="10" text-anchor="middle" fill="#223344">Assuré</text>
<circle cx="113.5" cy="190" r="7" fill="none" stroke="#445566" stroke-width="1.5"/>
<path d="M 102.5 212 q 11 -19 22 0" fill="none" stroke="#445566" stroke-width="1.5"/>
<text x="113.5" y="224" font-size="10" text-anchor="middle" fill="#223344">Tiers impliqué</text>
<circle cx="95" cy="304" r="7" fill="none" stroke="#445566" stroke-width="1.5"/>
<path d="M 84 326 q 11 -19 22 0" fill="none" stroke="#445566" stroke-width="1.5"/>
<text x="95" y="338" font-size="10" text-anchor="middle" fill="#223344">Gestionnaire</text>
<text x="95" y="349" font-size="10" text-anchor="middle" fill="#223344">de sinistres</text>
<circle cx="104" cy="391" r="7" fill="none" stroke="#445566" stroke-width="1.5"/>
<path d="M 93 413 q 11 -19 22 0" fill="none" stroke="#445566" stroke-width="1.5"/>
<text x="104" y="425" font-size="10" text-anchor="middle" fill="#223344">Expert</text>
<text x="104" y="436" font-size="10" text-anchor="middle" fill="#223344">mandaté</text>
<circle cx="92.5" cy="478" r="7" fill="none" stroke="#445566" stroke-width="1.5"/>
<path d="M 81.5 500 q 11 -19 22 0" fill="none" stroke="#445566" stroke-width="1.5"/>
<text x="92.5" y="512" font-size="10" text-anchor="middle" fill="#223344">Responsable</text>
<text x="92.5" y="523" font-size="10" text-anchor="middle" fill="#223344">indemnisation</text>
<rect x="432" y="184" width="140" height="51" rx="4" fill="#ffffff" stroke="#666677" stroke-width="1.3"/>
<text x="502" y="206.75" font-size="11.5" text-anchor="middle" fill="#222233">Déclaration</text>
<text x="502" y="220.25" font-size="11.5" text-anchor="middle" fill="#222233">en ligne</text>
<rect x="432" y="255" width="140" height="51" rx="4" fill="#ffffff" stroke="#666677" stroke-width="1.3"/>
<text x="502" y="277.75" font-size="11.5" text-anchor="middle" fill="#222233">Déclaration</text>
<text x="502" y="291.25" font-size="11.5" text-anchor="middle" fill="#222233">téléphonique</text>
<rect x="423" y="113" width="158" height="51" rx="4" fill="#ffffff" stroke="#666677" stroke-width="1.3"/>
<text x="502" y="135.75" font-size="11.5" text-anchor="middle" fill="#222233">Collecte des</text>
<text x="502" y="149.25" font-size="11.5" text-anchor="middle" fill="#222233">pièces justificatives</text>
<rect x="1111" y="264" width="140" height="51" rx="4" fill="#ffffff" stroke="#666677" stroke-width="1.3"/>
<text x="1181" y="286.75" font-size="11.5" text-anchor="middle" fill="#222233">Gestion du</text>
<text x="1181" y="300.25" font-size="11.5" text-anchor="middle" fill="#222233">dossier sinistre</text>
<rect x="789" y="272.5" width="140" height="51" rx="4" fill="#ffffff" stroke="#666677" stroke-width="1.3"/>
<text x="859" y="295.25" font-size="11.5" text-anchor="middle" fill="#222233">Suivi</text>
<text x="859" y="308.75" font-size="11.5" text-anchor="middle" fill="#222233">d'expertise</text>
<rect x="1421" y="210.5" width="140" height="51" rx="4" fill="#ffffff" stroke="#666677" stroke-width="1.3"/>
<text x="1491" y="233.25" font-size="11.5" text-anchor="middle" fill="#222233">Détection</text>
<text x="1491" y="246.75" font-size="11.5" text-anchor="middle" fill="#222233">de fraude</text>
<rect x="1736" y="272.5" width="140" height="51" rx="4" fill="#ffffff" stroke="#666677" stroke-width="1.3"/>
<text x="1806" y="295.25" font-size="11.5" text-anchor="middle" fill="#222233">Calcul de</text>
<text x="1806" y="308.75" font-size="11.5" text-anchor="middle" fill="#222233">l'indemnité</text>
<rect x="2046" y="264" width="140" height="51" rx="4" fill="#ffffff" stroke="#666677" stroke-width="1.3"/>
<text x="2116" y="286.75" font-size="11.5" text-anchor="middle" fill="#222233">Ordonnancement</text>
<text x="2116" y="300.25" font-size="11.5" text-anchor="middle" fill="#222233">des paiements</text>
<rect x="2467" y="255" width="140" height="51" rx="4" fill="#ffffff" stroke="#666677" stroke-width="1.3"/>
<text x="2537" y="277.75" font-size="11.5" text-anchor="middle" fill="#222233">Système bancaire</text>
<text x="2537" y="291.25" font-size="11.5" text-anchor="middle" fill="#222233">(virements)</text>
<rect x="2467" y="184" width="140" height="51" rx="4" fill="#ffffff" stroke="#666677" stroke-width="1.3"/>
<text x="2537" y="206.75" font-size="11.5" text-anchor="middle" fill="#222233">Fichiers</text>
<text x="2537" y="220.25" font-size="11.5" text-anchor="middle" fill="#222233">inter-assureurs</text>
<rect x="2467" y="113" width="140" height="51" rx="4" fill="#ffffff" stroke="#666677" stroke-width="1.3"/>
<text x="2537" y="135.75" font-size="11.5" text-anchor="middle" fill="#222233">GED</text>
<text x="2537" y="149.25" font-size="11.5" text-anchor="middle" fill="#222233">du groupe</text>
<path d="M 150.33333333333331 141.33333333333331 L 177 141 L 211 141 L 211 210 L 389 209.5 L 432 209.5" fill="none" stroke="#444444" stroke-width="1.3" marker-end="url(#arr)"/>
<text x="283" y="225.5" font-size="10.5" text-anchor="middle" fill="#333" font-style="italic" stroke="white" stroke-width="2.5" paint-order="stroke" stroke-linejoin="round">Déclarer un sinistre</text>
<rect x="253.5" y="233.5" width="59" height="15" rx="7.5" fill="#fdf3d8" stroke="#c9a227" stroke-width="1"/>
<text x="283" y="244.5" font-size="9.5" text-anchor="middle" fill="#7a6216" font-weight="bold">Sinistre</text>
<path d="M 160 208 L 187 208 L 187 281 L 389 280.5 L 432 280.5" fill="none" stroke="#444444" stroke-width="1.3" marker-end="url(#arr)"/>
<text x="271" y="296.5" font-size="10.5" text-anchor="middle" fill="#333" font-style="italic" stroke="white" stroke-width="2.5" paint-order="stroke" stroke-linejoin="round">Déclarer son implication</text>
<path d="M 150.33333333333331 122.66666666666666 L 177 123 L 337 123 L 337 139 L 389 138.5 L 423 138.5" fill="none" stroke="#444444" stroke-width="1.3" marker-end="url(#arr)"/>
<text x="274" y="138.5" font-size="10.5" text-anchor="middle" fill="#333" font-style="italic" stroke="white" stroke-width="2.5" paint-order="stroke" stroke-linejoin="round">Téléverser photos</text>
<text x="274" y="152" font-size="10.5" text-anchor="middle" fill="#333" font-style="italic" stroke="white" stroke-width="2.5" paint-order="stroke" stroke-linejoin="round">et documents</text>
<path d="M 581 138.5 L 2220 139 L 2450 138.5 L 2467 138.5" fill="none" stroke="#444444" stroke-width="1.3" marker-end="url(#arr)"/>
<text x="2332" y="154.5" font-size="10.5" text-anchor="middle" fill="#333" font-style="italic" stroke="white" stroke-width="2.5" paint-order="stroke" stroke-linejoin="round">Archiver les documents</text>
<path d="M 572 209.5 L 1101 209.5 L 1101 272.5 L 1111 272.5" fill="none" stroke="#444444" stroke-width="1.3" marker-end="url(#arr)"/>
<text x="680" y="181.5" font-size="10.5" text-anchor="middle" fill="#333" font-style="italic" stroke="white" stroke-width="2.5" paint-order="stroke" stroke-linejoin="round">Ouvrir le dossier</text>
<rect x="653" y="189.5" width="54" height="15" rx="7.5" fill="#fdf3d8" stroke="#c9a227" stroke-width="1"/>
<text x="680" y="200.5" font-size="9.5" text-anchor="middle" fill="#7a6216" font-weight="bold">Dossier</text>
<path d="M 572 280.5 L 608 280.5 L 608 220.5 L 1091 220.5 L 1091 281 L 1111 281" fill="none" stroke="#444444" stroke-width="1.3" marker-end="url(#arr)"/>
<text x="680" y="235" font-size="10.5" text-anchor="middle" fill="#333" font-style="italic" stroke="white" stroke-width="2.5" paint-order="stroke" stroke-linejoin="round">Ouvrir le dossier</text>
<text x="680" y="248.5" font-size="10.5" text-anchor="middle" fill="#333" font-style="italic" stroke="white" stroke-width="2.5" paint-order="stroke" stroke-linejoin="round">(canal téléphonique)</text>
<path d="M 1251 276.75 L 1261 276.75 L 1261 244.5 L 1421 244.5" fill="none" stroke="#444444" stroke-width="1.3" marker-end="url(#arr)"/>
<text x="1336" y="259" font-size="10.5" text-anchor="middle" fill="#333" font-style="italic" stroke="white" stroke-width="2.5" paint-order="stroke" stroke-linejoin="round">Contrôle systématique</text>
<text x="1336" y="272.5" font-size="10.5" text-anchor="middle" fill="#333" font-style="italic" stroke="white" stroke-width="2.5" paint-order="stroke" stroke-linejoin="round">à l'ouverture</text>
<path d="M 1561 236 L 1588 236 L 1588 209 L 2416 209 L 2416 210 L 2450 209.5 L 2467 209.5" fill="none" stroke="#444444" stroke-width="1.3" marker-end="url(#arr)"/>
<text x="2335" y="224.5" font-size="10.5" text-anchor="middle" fill="#333" font-style="italic" stroke="white" stroke-width="2.5" paint-order="stroke" stroke-linejoin="round">Interroger les fichiers</text>
<text x="2335" y="238" font-size="10.5" text-anchor="middle" fill="#333" font-style="italic" stroke="white" stroke-width="2.5" paint-order="stroke" stroke-linejoin="round">d'antécédents</text>
<path d="M 2607 209.5 L 2624 210 L 2634 210 L 2634 30 L 379 30 L 379 72 L 752 72 L 752 198.5 L 1411 198.5 L 1411 227.5 L 1421 227.5" fill="none" stroke="#444444" stroke-width="1.3" marker-end="url(#arr)"/>
<text x="2485.5" y="45.5" font-size="10.5" text-anchor="middle" fill="#333" font-style="italic" stroke="white" stroke-width="2.5" paint-order="stroke" stroke-linejoin="round">Antécédents</text>
<text x="2485.5" y="59" font-size="10.5" text-anchor="middle" fill="#333" font-style="italic" stroke="white" stroke-width="2.5" paint-order="stroke" stroke-linejoin="round">de l'assuré</text>
<path d="M 1111 306.5 L 929 306.5" fill="none" stroke="#444444" stroke-width="1.3" marker-end="url(#arr)"/>
<text x="1010" y="321" font-size="10.5" text-anchor="middle" fill="#333" font-style="italic" stroke="white" stroke-width="2.5" paint-order="stroke" stroke-linejoin="round">Mission d'expertise</text>
<text x="1010" y="334.5" font-size="10.5" text-anchor="middle" fill="#333" font-style="italic" stroke="white" stroke-width="2.5" paint-order="stroke" stroke-linejoin="round">si dommage &gt; seuil</text>
<path d="M 136 414.5 L 153 415 L 331 415 L 331 339 L 762 339 L 762 298 L 789 298" fill="none" stroke="#444444" stroke-width="1.3" marker-end="url(#arr)"/>
<text x="258" y="430.5" font-size="10.5" text-anchor="middle" fill="#333" font-style="italic" stroke="white" stroke-width="2.5" paint-order="stroke" stroke-linejoin="round">Remettre le rapport</text>
<text x="258" y="444" font-size="10.5" text-anchor="middle" fill="#333" font-style="italic" stroke="white" stroke-width="2.5" paint-order="stroke" stroke-linejoin="round">d'expertise</text>
<rect x="199" y="452" width="118" height="15" rx="7.5" fill="#fdf3d8" stroke="#c9a227" stroke-width="1"/>
<text x="258" y="463" font-size="9.5" text-anchor="middle" fill="#7a6216" font-weight="bold">Rapport d'expertise</text>
<path d="M 929 289.5 L 939 289.5 L 939 295.5 L 1081 295.5 L 1081 298 L 1111 298" fill="none" stroke="#444444" stroke-width="1.3" marker-end="url(#arr)"/>
<text x="1010" y="254" font-size="10.5" text-anchor="middle" fill="#333" font-style="italic" stroke="white" stroke-width="2.5" paint-order="stroke" stroke-linejoin="round">Conclusions</text>
<text x="1010" y="267.5" font-size="10.5" text-anchor="middle" fill="#333" font-style="italic" stroke="white" stroke-width="2.5" paint-order="stroke" stroke-linejoin="round">d'expertise</text>
<rect x="951" y="275.5" width="118" height="15" rx="7.5" fill="#fdf3d8" stroke="#c9a227" stroke-width="1"/>
<text x="1010" y="286.5" font-size="9.5" text-anchor="middle" fill="#7a6216" font-weight="bold">Rapport d'expertise</text>
<path d="M 136 327.5 L 153 328 L 752 328 L 752 231.5 L 1081 231.5 L 1081 289.5 L 1111 289.5" fill="none" stroke="#444444" stroke-width="1.3" marker-end="url(#arr)"/>
<text x="259" y="343.5" font-size="10.5" text-anchor="middle" fill="#333" font-style="italic" stroke="white" stroke-width="2.5" paint-order="stroke" stroke-linejoin="round">Instruction et</text>
<text x="259" y="357" font-size="10.5" text-anchor="middle" fill="#333" font-style="italic" stroke="white" stroke-width="2.5" paint-order="stroke" stroke-linejoin="round">décisions de gestion</text>
<path d="M 1251 289.5 L 1736 289.5" fill="none" stroke="#444444" stroke-width="1.3" marker-end="url(#arr)"/>
<text x="1648.5" y="304" font-size="10.5" text-anchor="middle" fill="#333" font-style="italic" stroke="white" stroke-width="2.5" paint-order="stroke" stroke-linejoin="round">Éléments validés</text>
<text x="1648.5" y="317.5" font-size="10.5" text-anchor="middle" fill="#333" font-style="italic" stroke="white" stroke-width="2.5" paint-order="stroke" stroke-linejoin="round">pour chiffrage</text>
<path d="M 1876 306.5 L 1886 306.5 L 1886 325 L 2240 325 L 2240 559 L 2235 559 A 5 5 0 0 0 2225 559 L 22 559 L 22 502 L 32 501.5 L 49 501.5" fill="none" stroke="#444444" stroke-width="1.3" marker-end="url(#arr)"/>
<text x="439.5" y="574.5" font-size="10.5" text-anchor="middle" fill="#333" font-style="italic" stroke="white" stroke-width="2.5" paint-order="stroke" stroke-linejoin="round">Demande d'accord</text>
<text x="439.5" y="588" font-size="10.5" text-anchor="middle" fill="#333" font-style="italic" stroke="white" stroke-width="2.5" paint-order="stroke" stroke-linejoin="round">hors délégation</text>
<path d="M 136 501.5 L 153 502 L 341 502 L 341 364 L 389 363.5 L 1709 363.5 L 1709 306.5 L 1736 306.5" fill="none" stroke="#444444" stroke-width="1.3" marker-end="url(#arr)"/>
<text x="235.5" y="517.5" font-size="10.5" text-anchor="middle" fill="#333" font-style="italic" stroke="white" stroke-width="2.5" paint-order="stroke" stroke-linejoin="round">Accord ou</text>
<text x="235.5" y="531" font-size="10.5" text-anchor="middle" fill="#333" font-style="italic" stroke="white" stroke-width="2.5" paint-order="stroke" stroke-linejoin="round">refus motivé</text>
<path d="M 1876 289.5 L 2046 289.5" fill="none" stroke="#444444" stroke-width="1.3" marker-end="url(#arr)"/>
<text x="1961" y="261.5" font-size="10.5" text-anchor="middle" fill="#333" font-style="italic" stroke="white" stroke-width="2.5" paint-order="stroke" stroke-linejoin="round">Ordre d'indemnisation</text>
<rect x="1929" y="269.5" width="64" height="15" rx="7.5" fill="#fdf3d8" stroke="#c9a227" stroke-width="1"/>
<text x="1961" y="280.5" font-size="9.5" text-anchor="middle" fill="#7a6216" font-weight="bold">Indemnité</text>
<path d="M 2186 289.5 L 2220 290 L 2230 290 L 2230 281 L 2450 280.5 L 2467 280.5" fill="none" stroke="#444444" stroke-width="1.3" marker-end="url(#arr)"/>
<text x="2305.5" y="296.5" font-size="10.5" text-anchor="middle" fill="#333" font-style="italic" stroke="white" stroke-width="2.5" paint-order="stroke" stroke-linejoin="round">Virement SEPA</text>
<rect x="2273.5" y="304.5" width="64" height="15" rx="7.5" fill="#fdf3d8" stroke="#c9a227" stroke-width="1"/>
<text x="2305.5" y="315.5" font-size="9.5" text-anchor="middle" fill="#7a6216" font-weight="bold">Indemnité</text>
<path d="M 1251 302.25 L 1588 302.25 L 1588 348 L 1704 348 A 5 5 0 0 1 1714 348 L 2230 348 L 2230 606 L 12 606 L 12 132 L 86.33333333333337 132" fill="none" stroke="#444444" stroke-width="1.3" marker-end="url(#arr)"/>
<text x="436.5" y="621.5" font-size="10.5" text-anchor="middle" fill="#333" font-style="italic" stroke="white" stroke-width="2.5" paint-order="stroke" stroke-linejoin="round">Notifier étapes</text>
<text x="436.5" y="635" font-size="10.5" text-anchor="middle" fill="#333" font-style="italic" stroke="white" stroke-width="2.5" paint-order="stroke" stroke-linejoin="round">et décision</text>
<line x1="20" y1="664" x2="2626" y2="664" stroke="#ddd" stroke-width="1"/>
<text x="20" y="686" font-size="11" font-weight="bold" fill="#555">OBJETS MÉTIER</text>
<rect x="150" y="676" width="59" height="15" rx="7.5" fill="#fdf3d8" stroke="#c9a227"/>
<text x="179.5" y="687" font-size="9.5" text-anchor="middle" fill="#7a6216" font-weight="bold">Sinistre</text>
<text x="219" y="687" font-size="10" fill="#666">— événement dommageable déclaré par un assuré</text>
<rect x="150" y="700" width="54" height="15" rx="7.5" fill="#fdf3d8" stroke="#c9a227"/>
<text x="177" y="711" font-size="9.5" text-anchor="middle" fill="#7a6216" font-weight="bold">Dossier</text>
<text x="214" y="711" font-size="10" fill="#666">— dossier ouvert pour instruire un sinistre</text>
<rect x="150" y="724" width="118" height="15" rx="7.5" fill="#fdf3d8" stroke="#c9a227"/>
<text x="209" y="735" font-size="9.5" text-anchor="middle" fill="#7a6216" font-weight="bold">Rapport d'expertise</text>
<text x="278" y="735" font-size="10" fill="#666">— conclusions chiffrées de l'expert mandaté</text>
<rect x="150" y="748" width="64" height="15" rx="7.5" fill="#fdf3d8" stroke="#c9a227"/>
<text x="182" y="759" font-size="9.5" text-anchor="middle" fill="#7a6216" font-weight="bold">Indemnité</text>
<text x="224" y="759" font-size="10" fill="#666">— montant validé et versé à l'assuré</text>
<line x1="20" y1="786" x2="2626" y2="786" stroke="#ddd" stroke-width="1"/>
<text x="20" y="808" font-size="11" font-weight="bold" fill="#555">LÉGENDE</text>
<rect x="150" y="798" width="26" height="14" rx="3" fill="#eef4fb" stroke="#7a9cc4" stroke-dasharray="5 3"/>
<text x="182" y="809" font-size="10" fill="#444">Groupe d'acteurs</text>
<rect x="298" y="798" width="26" height="14" rx="3" fill="#f6f2ea" stroke="#b09a6d"/>
<text x="330" y="809" font-size="10" fill="#444">Système</text>
<rect x="399" y="798" width="26" height="14" rx="3" fill="#fdfbf6" stroke="#c4b258"/>
<text x="431" y="809" font-size="10" fill="#444">Couche</text>
<rect x="495" y="798" width="26" height="14" rx="3" fill="#ffffff" stroke="#666677"/>
<text x="527" y="809" font-size="10" fill="#444">Bloc fonctionnel</text>
<rect x="643" y="798" width="26" height="14" rx="3" fill="#f0eef5" stroke="#9187b3" stroke-dasharray="5 3"/>
<text x="675" y="809" font-size="10" fill="#444">Système externe</text>
<line x1="150" y1="828" x2="176" y2="828" stroke="#444444" stroke-width="1.3" marker-end="url(#arr)"/>
<text x="182" y="832" font-size="10" fill="#444">Flux fonctionnel (libellé = données échangées)</text>
<rect x="480" y="821" width="80" height="15" rx="7.5" fill="#fdf3d8" stroke="#c9a227"/>
<text x="520" y="832" font-size="9.5" text-anchor="middle" fill="#7a6216" font-weight="bold">Objet métier</text>
<text x="568" y="832" font-size="10" fill="#444">porté par le flux</text>
<text x="150" y="856" font-size="10" fill="#444" font-style="italic">Les dossiers sinistres sont conservés 10 ans (obligation légale)</text>
</svg>
