<svg xmlns="http://www.w3.org/2000/svg" viewBox="0 0 1615 980" font-family="Helvetica,Arial,sans-serif">
<defs><marker id="arr" viewBox="0 0 10 10" refX="9" refY="5" markerWidth="7" markerHeight="7" orient="auto-start-reverse">
<path d="M0,0 L10,5 L0,10 z" fill="#444444"/></marker></defs>
<rect width="1615" height="980" fill="white"/>
<rect x="25" y="513" width="147" height="279" rx="6" fill="#eef4fb" stroke="#7a9cc4" stroke-width="1.2" stroke-dasharray="5 3"/>
<text x="35" y="531" font-size="12" font-weight="bold" fill="#333">Role group - Central zone</text>
<rect x="70" y="129" width="113" height="105" rx="6" fill="#eef4fb" stroke="#7a9cc4" stroke-width="1.2" stroke-dasharray="5 3"/>
<text x="80" y="147" font-size="12" font-weight="bold" fill="#333">Role group - Remote site</text>
<rect x="75" y="245" width="163" height="257" rx="6" fill="#eef4fb" stroke="#7a9cc4" stroke-width="1.2" stroke-dasharray="5 3"/>
<text x="85" y="263" font-size="12" font-weight="bold" fill="#333">External targets</text>
<rect x="407" y="171" width="766" height="479" rx="6" fill="#f6f2ea" stroke="#b09a6d" stroke-width="1.2"/>
<text x="417" y="189" font-size="12" font-weight="bold" fill="#333">Main infrastructure</text>
<rect x="932" y="301" width="206" height="290" rx="6" fill="#fdfbf6" stroke="#c4b258" stroke-width="1"/>
<text x="942" y="319" font-size="12" font-weight="bold" fill="#333">Central control layer</text>
<rect x="442" y="275" width="189" height="290" rx="6" fill="#fdfbf6" stroke="#c4b258" stroke-width="1"/>
<text x="452" y="293" font-size="12" font-weight="bold" fill="#333">Remote site layer</text>
<rect x="1355" y="309" width="195" height="290" rx="6" fill="#f0eef5" stroke="#9187b3" stroke-width="1.2" stroke-dasharray="5 3"/>
<text x="1365" y="327" font-size="12" font-weight="bold" fill="#333">External resources</text>
<circle cx="98.5" cy="551" r="7" fill="none" stroke="#445566" stroke-width="1.5"/>
<path d="M 87.5 573 q 11 -19 22 0" fill="none" stroke="#445566" stroke-width="1.5"/>
<text x="98.5" y="585" font-size="10" text-anchor="middle" fill="#223344">Control agent</text>
<text x="98.5" y="596" font-size="10" text-anchor="middle" fill="#223344">Main zone</text>
<circle cx="107" cy="725" r="7" fill="none" stroke="#445566" stroke-width="1.5"/>
<path d="M 96 747 q 11 -19 22 0" fill="none" stroke="#445566" stroke-width="1.5"/>
<text x="107" y="759" font-size="10" text-anchor="middle" fill="#223344">Functional and</text>
<text x="107" y="770" font-size="10" text-anchor="middle" fill="#223344">technical manager</text>
<circle cx="98.5" cy="638" r="7" fill="none" stroke="#445566" stroke-width="1.5"/>
<path d="M 87.5 660 q 11 -19 22 0" fill="none" stroke="#445566" stroke-width="1.5"/>
<text x="98.5" y="672" font-size="10" text-anchor="middle" fill="#223344">Resource technicians</text>
<text x="98.5" y="683" font-size="10" text-anchor="middle" fill="#223344">Main zone</text>
<circle cx="126.5" cy="167" r="7" fill="none" stroke="#445566" stroke-width="1.5"/>
<path d="M 115.5 189 q 11 -19 22 0" fill="none" stroke="#445566" stroke-width="1.5"/>
<text x="126.5" y="201" font-size="10" text-anchor="middle" fill="#223344">Field operator</text>
<text x="126.5" y="212" font-size="10" text-anchor="middle" fill="#223344">Remote site</text>
<circle cx="156.5" cy="370" r="7" fill="none" stroke="#445566" stroke-width="1.5"/>
<path d="M 145.5 392 q 11 -19 22 0" fill="none" stroke="#445566" stroke-width="1.5"/>
<text x="156.5" y="404" font-size="10" text-anchor="middle" fill="#223344">Concerned person</text>
<circle cx="156.5" cy="446" r="7" fill="none" stroke="#445566" stroke-width="1.5"/>
<path d="M 145.5 468 q 11 -19 22 0" fill="none" stroke="#445566" stroke-width="1.5"/>
<text x="156.5" y="480" font-size="10" text-anchor="middle" fill="#223344">Passenger-service agent</text>
<circle cx="156.5" cy="283" r="7" fill="none" stroke="#445566" stroke-width="1.5"/>
<path d="M 145.5 305 q 11 -19 22 0" fill="none" stroke="#445566" stroke-width="1.5"/>
<text x="156.5" y="317" font-size="10" text-anchor="middle" fill="#223344">Remote-site</text>
<text x="156.5" y="328" font-size="10" text-anchor="middle" fill="#223344">manager</text>
<rect x="972" y="329" width="156" height="48" rx="4" fill="#ffffff" stroke="#666677" stroke-width="1.3"/>
<text x="1050" y="350.25" font-size="11.5" text-anchor="middle" fill="#222233">Central communication</text>
<text x="1050" y="363.75" font-size="11.5" text-anchor="middle" fill="#222233">module</text>
<rect x="1011" y="465" width="117" height="48" rx="4" fill="#ffffff" stroke="#666677" stroke-width="1.3"/>
<text x="1069.5" y="486.25" font-size="11.5" text-anchor="middle" fill="#222233">Data processing</text>
<text x="1069.5" y="499.75" font-size="11.5" text-anchor="middle" fill="#222233">module</text>
<rect x="972" y="397" width="149" height="48" rx="4" fill="#ffffff" stroke="#666677" stroke-width="1.3"/>
<text x="1046.5" y="418.25" font-size="11.5" text-anchor="middle" fill="#222233">System configuration</text>
<text x="1046.5" y="431.75" font-size="11.5" text-anchor="middle" fill="#222233">module</text>
<rect x="977" y="533" width="136" height="48" rx="4" fill="#ffffff" stroke="#666677" stroke-width="1.3"/>
<text x="1045" y="554.25" font-size="11.5" text-anchor="middle" fill="#222233">Real-time activity</text>
<text x="1045" y="567.75" font-size="11.5" text-anchor="middle" fill="#222233">tracking block</text>
<rect x="455.5" y="303" width="162" height="48" rx="4" fill="#ffffff" stroke="#666677" stroke-width="1.3"/>
<text x="536.5" y="324.25" font-size="11.5" text-anchor="middle" fill="#222233">Satellite coordination</text>
<text x="536.5" y="337.75" font-size="11.5" text-anchor="middle" fill="#222233">module</text>
<rect x="452" y="371" width="143" height="48" rx="4" fill="#ffffff" stroke="#666677" stroke-width="1.3"/>
<text x="523.5" y="392.25" font-size="11.5" text-anchor="middle" fill="#222233">Local communication</text>
<text x="523.5" y="405.75" font-size="11.5" text-anchor="middle" fill="#222233">module</text>
<rect x="452" y="507" width="169" height="48" rx="4" fill="#ffffff" stroke="#666677" stroke-width="1.3"/>
<text x="536.5" y="528.25" font-size="11.5" text-anchor="middle" fill="#222233">Satellite communication</text>
<text x="536.5" y="541.75" font-size="11.5" text-anchor="middle" fill="#222233">module</text>
<rect x="452" y="439" width="112" height="48" rx="4" fill="#ffffff" stroke="#666677" stroke-width="1.3"/>
<text x="508" y="460.25" font-size="11.5" text-anchor="middle" fill="#222233">Remote display</text>
<text x="508" y="473.75" font-size="11.5" text-anchor="middle" fill="#222233">channels</text>
<rect x="1416" y="405" width="124" height="48" rx="4" fill="#ffffff" stroke="#666677" stroke-width="1.3"/>
<text x="1478" y="426.25" font-size="11.5" text-anchor="middle" fill="#222233">External display</text>
<text x="1478" y="439.75" font-size="11.5" text-anchor="middle" fill="#222233">infrastructure</text>
<rect x="1387.5" y="337" width="130" height="48" rx="4" fill="#ffffff" stroke="#666677" stroke-width="1.3"/>
<text x="1452.5" y="358.25" font-size="11.5" text-anchor="middle" fill="#222233">Third-party</text>
<text x="1452.5" y="371.75" font-size="11.5" text-anchor="middle" fill="#222233">broadcast network</text>
<rect x="1396.5" y="541" width="112" height="48" rx="4" fill="#ffffff" stroke="#666677" stroke-width="1.3"/>
<text x="1452.5" y="562.25" font-size="11.5" text-anchor="middle" fill="#222233">Data export</text>
<text x="1452.5" y="575.75" font-size="11.5" text-anchor="middle" fill="#222233">service</text>
<rect x="1365" y="473" width="175" height="48" rx="4" fill="#ffffff" stroke="#666677" stroke-width="1.3"/>
<text x="1452.5" y="494.25" font-size="11.5" text-anchor="middle" fill="#222233">External data-collection</text>
<text x="1452.5" y="507.75" font-size="11.5" text-anchor="middle" fill="#222233">infrastructure</text>
<path d="M 142 574.5 L 177 575 L 422 575 A 5 5 0 0 1 432 575 L 867 575 L 867 355 L 932 355" fill="none" stroke="#444444" stroke-width="1.3" marker-end="url(#arr)"/>
<text x="284.5" y="589.5" font-size="10.5" text-anchor="middle" fill="#333" font-style="italic" stroke="white" stroke-width="2.5" paint-order="stroke" stroke-linejoin="round">Overall control</text>
<path d="M 162 748.5 L 177 749 L 352 749 L 352 597 L 422 597 A 5 5 0 0 1 432 597 L 887 597 L 887 429 L 947 429 A 5 5 0 0 1 957 429 L 957 429 A 5 5 0 0 1 967 429 L 972 429" fill="none" stroke="#444444" stroke-width="1.3" marker-end="url(#arr)"/>
<text x="280" y="763.5" font-size="10.5" text-anchor="middle" fill="#333" font-style="italic" stroke="white" stroke-width="2.5" paint-order="stroke" stroke-linejoin="round">Configure the system</text>
<path d="M 1128 345 L 1148 345 A 5 5 0 0 1 1158 345 L 1198 345 L 1198 22 L 10 22 L 10 575 L 20 574.5 L 55 574.5" fill="none" stroke="#444444" stroke-width="1.3" marker-end="url(#arr)"/>
<text x="481.5" y="36.5" font-size="10.5" text-anchor="middle" fill="#333" font-style="italic" stroke="white" stroke-width="2.5" paint-order="stroke" stroke-linejoin="round">Alerts, notifications and</text>
<text x="481.5" y="50" font-size="10.5" text-anchor="middle" fill="#333" font-style="italic" stroke="white" stroke-width="2.5" paint-order="stroke" stroke-linejoin="round">feeds from various sources</text>
<path d="M 162 661.5 L 177 662 L 210 662 L 210 606 L 342 606 L 342 586 L 422 586 A 5 5 0 0 1 432 586 L 877 586 L 877 413 L 947 413 A 5 5 0 0 1 957 413 L 957 413 A 5 5 0 0 1 967 413 L 972 413" fill="none" stroke="#444444" stroke-width="1.3" marker-end="url(#arr)"/>
<text x="276" y="620.5" font-size="10.5" text-anchor="middle" fill="#333" font-style="italic" stroke="white" stroke-width="2.5" paint-order="stroke" stroke-linejoin="round">Enable/disable</text>
<text x="276" y="634" font-size="10.5" text-anchor="middle" fill="#333" font-style="italic" stroke="white" stroke-width="2.5" paint-order="stroke" stroke-linejoin="round">a display terminal</text>
<path d="M 617.5 319 L 646 319 L 646 257.5 L 1178 258 L 1188 258 L 1188 119 L 55 119 L 55 191 L 65 190.5 L 80 190.5" fill="none" stroke="#444444" stroke-width="1.3" marker-end="url(#arr)"/>
<text x="490.5" y="77.5" font-size="10.5" text-anchor="middle" fill="#333" font-style="italic" stroke="white" stroke-width="2.5" paint-order="stroke" stroke-linejoin="round">Report of</text>
<text x="490.5" y="91" font-size="10.5" text-anchor="middle" fill="#333" font-style="italic" stroke="white" stroke-width="2.5" paint-order="stroke" stroke-linejoin="round">anomalies and inconsistencies</text>
<rect x="463.5" y="99" width="54" height="15" rx="7.5" fill="#fdf3d8" stroke="#c9a227" stroke-width="1"/>
<text x="490.5" y="110" font-size="9.5" text-anchor="middle" fill="#7a6216" font-weight="bold">Anomaly</text>
<path d="M 173 190.5 L 188 191 L 382 191 L 382 395 L 452 395" fill="none" stroke="#444444" stroke-width="1.3" marker-end="url(#arr)"/>
<text x="313" y="205.5" font-size="10.5" text-anchor="middle" fill="#333" font-style="italic" stroke="white" stroke-width="2.5" paint-order="stroke" stroke-linejoin="round">Write and broadcast</text>
<text x="313" y="219" font-size="10.5" text-anchor="middle" fill="#333" font-style="italic" stroke="white" stroke-width="2.5" paint-order="stroke" stroke-linejoin="round">messages to central</text>
<text x="313" y="232.5" font-size="10.5" text-anchor="middle" fill="#333" font-style="italic" stroke="white" stroke-width="2.5" paint-order="stroke" stroke-linejoin="round">control</text>
<rect x="286" y="240.5" width="54" height="15" rx="7.5" fill="#fdf3d8" stroke="#c9a227" stroke-width="1"/>
<text x="313" y="251.5" font-size="9.5" text-anchor="middle" fill="#7a6216" font-weight="bold">Message</text>
<path d="M 238 374 L 312 374 L 312 463 L 452 463" fill="none" stroke="#444444" stroke-width="1.3" marker-end="url(#arr)"/>
<text x="278" y="388.5" font-size="10.5" text-anchor="middle" fill="#333" font-style="italic" stroke="white" stroke-width="2.5" paint-order="stroke" stroke-linejoin="round">Consult</text>
<path d="M 1128 361 L 1148 361 A 5 5 0 0 1 1158 361 L 1387.5 361" fill="none" stroke="#444444" stroke-width="1.3" marker-end="url(#arr)"/>
<text x="1262" y="375.5" font-size="10.5" text-anchor="middle" fill="#333" font-style="italic" stroke="white" stroke-width="2.5" paint-order="stroke" stroke-linejoin="round">Real-time broadcast of</text>
<text x="1262" y="389" font-size="10.5" text-anchor="middle" fill="#333" font-style="italic" stroke="white" stroke-width="2.5" paint-order="stroke" stroke-linejoin="round">disruption information</text>
<text x="1262" y="402.5" font-size="10.5" text-anchor="middle" fill="#333" font-style="italic" stroke="white" stroke-width="2.5" paint-order="stroke" stroke-linejoin="round">to the relevant lines</text>
<path d="M 1128 489 L 1148 489 A 5 5 0 0 1 1158 489 L 1340 489 L 1340 565 L 1396.5 565" fill="none" stroke="#444444" stroke-width="1.3" marker-end="url(#arr)"/>
<text x="1262" y="503.5" font-size="10.5" text-anchor="middle" fill="#333" font-style="italic" stroke="white" stroke-width="2.5" paint-order="stroke" stroke-linejoin="round">Export of real-time</text>
<text x="1262" y="517" font-size="10.5" text-anchor="middle" fill="#333" font-style="italic" stroke="white" stroke-width="2.5" paint-order="stroke" stroke-linejoin="round">and configuration data</text>
<path d="M 1113 557 L 1153 557 L 1153 199 L 427 199 L 427 319 L 455.5 319" fill="none" stroke="#444444" stroke-width="1.3" marker-end="url(#arr)"/>
<text x="756.5" y="213.5" font-size="10.5" text-anchor="middle" fill="#333" font-style="italic" stroke="white" stroke-width="2.5" paint-order="stroke" stroke-linejoin="round">Broadcast of information</text>
<text x="756.5" y="227" font-size="10.5" text-anchor="middle" fill="#333" font-style="italic" stroke="white" stroke-width="2.5" paint-order="stroke" stroke-linejoin="round">and messages about upcoming flows</text>
<text x="756.5" y="240.5" font-size="10.5" text-anchor="middle" fill="#333" font-style="italic" stroke="white" stroke-width="2.5" paint-order="stroke" stroke-linejoin="round">entered by the central team</text>
<path d="M 617.5 335 L 962 335 L 962 545 L 977 545" fill="none" stroke="#444444" stroke-width="1.3" marker-end="url(#arr)"/>
<text x="756.5" y="280" font-size="10.5" text-anchor="middle" fill="#333" font-style="italic" stroke="white" stroke-width="2.5" paint-order="stroke" stroke-linejoin="round">Forward the</text>
<text x="756.5" y="293.5" font-size="10.5" text-anchor="middle" fill="#333" font-style="italic" stroke="white" stroke-width="2.5" paint-order="stroke" stroke-linejoin="round">messages entered by staff</text>
<text x="756.5" y="307" font-size="10.5" text-anchor="middle" fill="#333" font-style="italic" stroke="white" stroke-width="2.5" paint-order="stroke" stroke-linejoin="round">present on site</text>
<rect x="729.5" y="315" width="54" height="15" rx="7.5" fill="#fdf3d8" stroke="#c9a227" stroke-width="1"/>
<text x="756.5" y="326" font-size="9.5" text-anchor="middle" fill="#7a6216" font-weight="bold">Message</text>
<path d="M 621 531 L 646 531 L 646 346 L 867 346 L 867 345 L 957 345 A 5 5 0 0 1 967 345 L 972 345" fill="none" stroke="#444444" stroke-width="1.3" marker-end="url(#arr)"/>
<text x="756.5" y="360.5" font-size="10.5" text-anchor="middle" fill="#333" font-style="italic" stroke="white" stroke-width="2.5" paint-order="stroke" stroke-linejoin="round">Archive of</text>
<text x="756.5" y="374" font-size="10.5" text-anchor="middle" fill="#333" font-style="italic" stroke="white" stroke-width="2.5" paint-order="stroke" stroke-linejoin="round">the messaging broadcast</text>
<text x="756.5" y="387.5" font-size="10.5" text-anchor="middle" fill="#333" font-style="italic" stroke="white" stroke-width="2.5" paint-order="stroke" stroke-linejoin="round">locally at the remote site</text>
<path d="M 1540 505 L 1565 505 L 1565 660 L 392 660 L 392 639 L 917 639 L 917 569 L 977 569" fill="none" stroke="#444444" stroke-width="1.3" marker-end="url(#arr)"/>
<text x="1429.5" y="674.5" font-size="10.5" text-anchor="middle" fill="#333" font-style="italic" stroke="white" stroke-width="2.5" paint-order="stroke" stroke-linejoin="round">Forward external</text>
<text x="1429.5" y="688" font-size="10.5" text-anchor="middle" fill="#333" font-style="italic" stroke="white" stroke-width="2.5" paint-order="stroke" stroke-linejoin="round">collection data and events</text>
<path d="M 1517.5 361 L 1595 361 L 1595 779 L 362 779 L 362 608 L 422 608 A 5 5 0 0 1 432 608 L 897 608 L 897 439 L 952 439 L 952 361 L 957 361 A 5 5 0 0 1 967 361 L 972 361" fill="none" stroke="#444444" stroke-width="1.3" marker-end="url(#arr)"/>
<text x="1462" y="793.5" font-size="10.5" text-anchor="middle" fill="#333" font-style="italic" stroke="white" stroke-width="2.5" paint-order="stroke" stroke-linejoin="round">Forward disruption messages</text>
<text x="1462" y="807" font-size="10.5" text-anchor="middle" fill="#333" font-style="italic" stroke="white" stroke-width="2.5" paint-order="stroke" stroke-linejoin="round">from the requested transport networks</text>
<path d="M 1540 429 L 1590 429 A 5 5 0 0 1 1600 429 L 1605 429 L 1605 161 L 1203 161 A 5 5 0 0 0 1193 161 L 1193 161 A 5 5 0 0 0 1183 161 L 392 161 L 392 335 L 455.5 335" fill="none" stroke="#444444" stroke-width="1.3" marker-end="url(#arr)"/>
<text x="1456" y="175.5" font-size="10.5" text-anchor="middle" fill="#333" font-style="italic" stroke="white" stroke-width="2.5" paint-order="stroke" stroke-linejoin="round">Forward the list of upcoming</text>
<text x="1456" y="189" font-size="10.5" text-anchor="middle" fill="#333" font-style="italic" stroke="white" stroke-width="2.5" paint-order="stroke" stroke-linejoin="round">flows and the lead-vehicle identity</text>
<text x="1456" y="202.5" font-size="10.5" text-anchor="middle" fill="#333" font-style="italic" stroke="white" stroke-width="2.5" paint-order="stroke" stroke-linejoin="round">for periodic control</text>
<path d="M 1508.5 565 L 1560 565 A 5 5 0 0 1 1570 565 L 1575 565 L 1575 704 L 382 704 L 382 629 L 427 629 L 427 531 L 452 531" fill="none" stroke="#444444" stroke-width="1.3" marker-end="url(#arr)"/>
<text x="1415" y="718.5" font-size="10.5" text-anchor="middle" fill="#333" font-style="italic" stroke="white" stroke-width="2.5" paint-order="stroke" stroke-linejoin="round">Traffic notifications</text>
<text x="1415" y="732" font-size="10.5" text-anchor="middle" fill="#333" font-style="italic" stroke="white" stroke-width="2.5" paint-order="stroke" stroke-linejoin="round">and user messaging</text>
<path d="M 1540 489 L 1585 489 L 1585 748 L 372 748 L 372 619 L 422 619 A 5 5 0 0 1 432 619 L 907 619 L 907 557 L 977 557" fill="none" stroke="#444444" stroke-width="1.3" marker-end="url(#arr)"/>
<text x="1442.5" y="762.5" font-size="10.5" text-anchor="middle" fill="#333" font-style="italic" stroke="white" stroke-width="2.5" paint-order="stroke" stroke-linejoin="round">Forward the associated missions and services</text>
<line x1="20" y1="834" x2="1595" y2="834" stroke="#ddd" stroke-width="1"/>
<text x="20" y="856" font-size="11" font-weight="bold" fill="#555">BUSINESS OBJECTS</text>
<rect x="150" y="846" width="54" height="15" rx="7.5" fill="#fdf3d8" stroke="#c9a227"/>
<text x="177" y="857" font-size="9.5" text-anchor="middle" fill="#7a6216" font-weight="bold">Message</text>
<text x="214" y="857" font-size="10" fill="#666">— information message broadcast to sites and display channels</text>
<rect x="150" y="870" width="54" height="15" rx="7.5" fill="#fdf3d8" stroke="#c9a227"/>
<text x="177" y="881" font-size="9.5" text-anchor="middle" fill="#7a6216" font-weight="bold">Anomaly</text>
<text x="214" y="881" font-size="10" fill="#666">— incident or inconsistency reported on a site</text>
<line x1="20" y1="908" x2="1595" y2="908" stroke="#ddd" stroke-width="1"/>
<text x="20" y="930" font-size="11" font-weight="bold" fill="#555">LEGEND</text>
<rect x="150" y="920" width="26" height="14" rx="3" fill="#eef4fb" stroke="#7a9cc4" stroke-dasharray="5 3"/>
<text x="182" y="931" font-size="10" fill="#444">Actor group</text>
<rect x="272" y="920" width="26" height="14" rx="3" fill="#f6f2ea" stroke="#b09a6d"/>
<text x="304" y="931" font-size="10" fill="#444">System</text>
<rect x="368" y="920" width="26" height="14" rx="3" fill="#fdfbf6" stroke="#c4b258"/>
<text x="400" y="931" font-size="10" fill="#444">Layer</text>
<rect x="458" y="920" width="26" height="14" rx="3" fill="#ffffff" stroke="#666677"/>
<text x="490" y="931" font-size="10" fill="#444">Functional block</text>
<rect x="606" y="920" width="26" height="14" rx="3" fill="#f0eef5" stroke="#9187b3" stroke-dasharray="5 3"/>
<text x="638" y="931" font-size="10" fill="#444">External system</text>
<line x1="150" y1="950" x2="176" y2="950" stroke="#444444" stroke-width="1.3" marker-end="url(#arr)"/>
<text x="182" y="954" font-size="10" fill="#444">Functional flow (label = exchanged data)</text>
<rect x="480" y="943" width="96" height="15" rx="7.5" fill="#fdf3d8" stroke="#c9a227"/>
<text x="528" y="954" font-size="9.5" text-anchor="middle" fill="#7a6216" font-weight="bold">Business object</text>
<text x="584" y="954" font-size="10" fill="#444">carried by the flow</text>
</svg>
