<svg xmlns="http://www.w3.org/2000/svg" viewBox="0 0 2353 835" font-family="Helvetica,Arial,sans-serif">
<defs><marker id="arr" viewBox="0 0 10 10" refX="9" refY="5" markerWidth="7" markerHeight="7" orient="auto-start-reverse">
<path d="M0,0 L10,5 L0,10 z" fill="#5a6675"/></marker></defs>
<rect width="2353" height="835" fill="#ffffff"/>
<rect x="29" y="62" width="113" height="164" rx="6" fill="#e9f2fb" stroke="#1f77b4" stroke-width="1.2" stroke-dasharray="5 3"/>
<text x="39" y="80" font-size="13" font-weight="bold" fill="#17202c">Assurés</text>
<rect x="35" y="237" width="107" height="271" rx="6" fill="#e9f2fb" stroke="#1f77b4" stroke-width="1.2" stroke-dasharray="5 3"/>
<text x="45" y="255" font-size="13" font-weight="bold" fill="#17202c">Gestionnaires</text>
<rect x="338" y="32" width="1664" height="320.5" rx="6" fill="#fbf4e9" stroke="#c17d1c" stroke-width="1.2"/>
<text x="348" y="50" font-size="13" font-weight="bold" fill="#17202c">Système d'information sinistres</text>
<rect x="352" y="70" width="173" height="217" rx="6" fill="#fdfaf0" stroke="#cf9f2f" stroke-width="1"/>
<text x="362" y="88" font-size="13" font-weight="bold" fill="#17202c">Couche déclaration</text>
<rect x="711" y="149.5" width="718" height="183" rx="6" fill="#fdfaf0" stroke="#cf9f2f" stroke-width="1"/>
<text x="721" y="167.5" font-size="13" font-weight="bold" fill="#17202c">Couche instruction</text>
<rect x="1581" y="203.33333333333331" width="407" height="111" rx="6" fill="#fdfaf0" stroke="#cf9f2f" stroke-width="1"/>
<text x="1591" y="221.33333333333331" font-size="13" font-weight="bold" fill="#17202c">Couche indemnisation</text>
<rect x="2188" y="74" width="140" height="217" rx="6" fill="#f4eff8" stroke="#8659a6" stroke-width="1.2" stroke-dasharray="5 3"/>
<text x="2198" y="92" font-size="13" font-weight="bold" fill="#17202c">Systèmes externes</text>
<circle cx="90.66666666666666" cy="99" r="7" fill="none" stroke="#1f5e91" stroke-width="1.5"/>
<path d="M 79.66666666666666 121 q 11 -19 22 0" fill="none" stroke="#1f5e91" stroke-width="1.5"/>
<text x="90.66666666666666" y="133" font-size="11" text-anchor="middle" fill="#20364c">Assuré</text>
<circle cx="85.5" cy="173" r="7" fill="none" stroke="#1f5e91" stroke-width="1.5"/>
<path d="M 74.5 195 q 11 -19 22 0" fill="none" stroke="#1f5e91" stroke-width="1.5"/>
<text x="85.5" y="207" font-size="11" text-anchor="middle" fill="#20364c">Tiers impliqué</text>
<circle cx="91.5" cy="274" r="7" fill="none" stroke="#1f5e91" stroke-width="1.5"/>
<path d="M 80.5 296 q 11 -19 22 0" fill="none" stroke="#1f5e91" stroke-width="1.5"/>
<text x="91.5" y="308" font-size="11" text-anchor="middle" fill="#20364c">Gestionnaire</text>
<text x="91.5" y="319" font-size="11" text-anchor="middle" fill="#20364c">de sinistres</text>
<circle cx="101" cy="359" r="7" fill="none" stroke="#1f5e91" stroke-width="1.5"/>
<path d="M 90 381 q 11 -19 22 0" fill="none" stroke="#1f5e91" stroke-width="1.5"/>
<text x="101" y="393" font-size="11" text-anchor="middle" fill="#20364c">Expert</text>
<text x="101" y="404" font-size="11" text-anchor="middle" fill="#20364c">mandaté</text>
<circle cx="88.5" cy="444" r="7" fill="none" stroke="#1f5e91" stroke-width="1.5"/>
<path d="M 77.5 466 q 11 -19 22 0" fill="none" stroke="#1f5e91" stroke-width="1.5"/>
<text x="88.5" y="478" font-size="11" text-anchor="middle" fill="#20364c">Responsable</text>
<text x="88.5" y="489" font-size="11" text-anchor="middle" fill="#20364c">indemnisation</text>
<rect x="384.5" y="164" width="108" height="47" rx="4" fill="#ffffff" stroke="#48546a" stroke-width="1.3"/>
<text x="438.5" y="184.25" font-size="12.5" text-anchor="middle" fill="#17202c">Déclaration</text>
<text x="438.5" y="198.75" font-size="12.5" text-anchor="middle" fill="#17202c">en ligne</text>
<rect x="384.5" y="231" width="108" height="47" rx="4" fill="#ffffff" stroke="#48546a" stroke-width="1.3"/>
<text x="438.5" y="251.25" font-size="12.5" text-anchor="middle" fill="#17202c">Déclaration</text>
<text x="438.5" y="265.75" font-size="12.5" text-anchor="middle" fill="#17202c">téléphonique</text>
<rect x="361" y="97" width="155" height="47" rx="4" fill="#ffffff" stroke="#48546a" stroke-width="1.3"/>
<text x="438.5" y="117.25" font-size="12.5" text-anchor="middle" fill="#17202c">Collecte des</text>
<text x="438.5" y="131.75" font-size="12.5" text-anchor="middle" fill="#17202c">pièces justificatives</text>
<rect x="1018" y="247.33333333333331" width="122" height="47" rx="4" fill="#ffffff" stroke="#48546a" stroke-width="1.3"/>
<text x="1079" y="267.5833333333333" font-size="12.5" text-anchor="middle" fill="#17202c">Gestion du</text>
<text x="1079" y="282.0833333333333" font-size="12.5" text-anchor="middle" fill="#17202c">dossier sinistre</text>
<rect x="720" y="255.16666666666666" width="108" height="47" rx="4" fill="#ffffff" stroke="#48546a" stroke-width="1.3"/>
<text x="774" y="275.41666666666663" font-size="12.5" text-anchor="middle" fill="#17202c">Suivi</text>
<text x="774" y="289.91666666666663" font-size="12.5" text-anchor="middle" fill="#17202c">d'expertise</text>
<rect x="1312" y="192.49999999999997" width="108" height="47" rx="4" fill="#ffffff" stroke="#48546a" stroke-width="1.3"/>
<text x="1366" y="212.74999999999997" font-size="12.5" text-anchor="middle" fill="#17202c">Détection</text>
<text x="1366" y="227.24999999999997" font-size="12.5" text-anchor="middle" fill="#17202c">de fraude</text>
<rect x="1590" y="255.16666666666663" width="108" height="47" rx="4" fill="#ffffff" stroke="#48546a" stroke-width="1.3"/>
<text x="1644" y="275.41666666666663" font-size="12.5" text-anchor="middle" fill="#17202c">Calcul de</text>
<text x="1644" y="289.91666666666663" font-size="12.5" text-anchor="middle" fill="#17202c">l'indemnité</text>
<rect x="1870" y="247.33333333333331" width="109" height="47" rx="4" fill="#ffffff" stroke="#48546a" stroke-width="1.3"/>
<text x="1924.5" y="267.5833333333333" font-size="12.5" text-anchor="middle" fill="#17202c">Ordonnancement</text>
<text x="1924.5" y="282.0833333333333" font-size="12.5" text-anchor="middle" fill="#17202c">des paiements</text>
<rect x="2197" y="235" width="122" height="47" rx="4" fill="#ffffff" stroke="#48546a" stroke-width="1.3"/>
<text x="2258" y="255.25" font-size="12.5" text-anchor="middle" fill="#17202c">Système bancaire</text>
<text x="2258" y="269.75" font-size="12.5" text-anchor="middle" fill="#17202c">(virements)</text>
<rect x="2200" y="168" width="116" height="47" rx="4" fill="#ffffff" stroke="#48546a" stroke-width="1.3"/>
<text x="2258" y="188.25" font-size="12.5" text-anchor="middle" fill="#17202c">Fichiers</text>
<text x="2258" y="202.75" font-size="12.5" text-anchor="middle" fill="#17202c">inter-assureurs</text>
<rect x="2197" y="101" width="108" height="47" rx="4" fill="#ffffff" stroke="#48546a" stroke-width="1.3"/>
<text x="2251" y="121.25" font-size="12.5" text-anchor="middle" fill="#17202c">GED</text>
<text x="2251" y="135.75" font-size="12.5" text-anchor="middle" fill="#17202c">du groupe</text>
<path d="M 122.66666666666666 125 L 157 125 L 157 188 L 333 187.5 L 384.5 187.5" fill="none" stroke="#5a6675" stroke-width="1.3" marker-end="url(#arr)"/>
<text x="230" y="203.5" font-size="11.5" text-anchor="middle" fill="#3a4553" font-style="italic" stroke="#ffffff" stroke-width="2.5" paint-order="stroke" stroke-linejoin="round">Déclarer un sinistre</text>
<rect x="202" y="211.5" width="56" height="15" rx="7.5" fill="#fff2d4" stroke="#d3a01f" stroke-width="1"/>
<text x="230" y="222.5" font-size="9.5" text-anchor="middle" fill="#6a5111" font-weight="bold">Sinistre</text>
<path d="M 133 190 L 157 190 L 157 255 L 333 254.5 L 384.5 254.5" fill="none" stroke="#5a6675" stroke-width="1.3" marker-end="url(#arr)"/>
<text x="242" y="270.5" font-size="11.5" text-anchor="middle" fill="#3a4553" font-style="italic" stroke="#ffffff" stroke-width="2.5" paint-order="stroke" stroke-linejoin="round">Déclarer son implication</text>
<path d="M 122.66666666666666 107 L 285 107 L 285 121 L 333 120.5 L 361 120.5" fill="none" stroke="#5a6675" stroke-width="1.3" marker-end="url(#arr)"/>
<text x="221" y="122.5" font-size="11.5" text-anchor="middle" fill="#3a4553" font-style="italic" stroke="#ffffff" stroke-width="2.5" paint-order="stroke" stroke-linejoin="round">Téléverser photos</text>
<text x="221" y="137" font-size="11.5" text-anchor="middle" fill="#3a4553" font-style="italic" stroke="#ffffff" stroke-width="2.5" paint-order="stroke" stroke-linejoin="round">et documents</text>
<path d="M 516 120.5 L 2007 121 L 2173 121 L 2173 125 L 2183 124.5 L 2197 124.5" fill="none" stroke="#5a6675" stroke-width="1.3" marker-end="url(#arr)"/>
<text x="2094" y="136.5" font-size="11.5" text-anchor="middle" fill="#3a4553" font-style="italic" stroke="#ffffff" stroke-width="2.5" paint-order="stroke" stroke-linejoin="round">Archiver les documents</text>
<path d="M 492.5 187.5 L 1008 187.5 L 1008 255.16666666666666 L 1018 255.16666666666666" fill="none" stroke="#5a6675" stroke-width="1.3" marker-end="url(#arr)"/>
<text x="613" y="159.5" font-size="11.5" text-anchor="middle" fill="#3a4553" font-style="italic" stroke="#ffffff" stroke-width="2.5" paint-order="stroke" stroke-linejoin="round">Ouvrir le dossier</text>
<rect x="587.5" y="167.5" width="51" height="15" rx="7.5" fill="#fff2d4" stroke="#d3a01f" stroke-width="1"/>
<text x="613" y="178.5" font-size="9.5" text-anchor="middle" fill="#6a5111" font-weight="bold">Dossier</text>
<path d="M 492.5 254.5 L 540 254.5 L 540 198.5 L 998 198.5 L 998 263 L 1018 263" fill="none" stroke="#5a6675" stroke-width="1.3" marker-end="url(#arr)"/>
<text x="613" y="214" font-size="11.5" text-anchor="middle" fill="#3a4553" font-style="italic" stroke="#ffffff" stroke-width="2.5" paint-order="stroke" stroke-linejoin="round">Ouvrir le dossier</text>
<text x="613" y="228.5" font-size="11.5" text-anchor="middle" fill="#3a4553" font-style="italic" stroke="#ffffff" stroke-width="2.5" paint-order="stroke" stroke-linejoin="round">(canal téléphonique)</text>
<path d="M 1140 259.0833333333333 L 1150 259.0833333333333 L 1150 223.83333333333331 L 1312 223.83333333333331" fill="none" stroke="#5a6675" stroke-width="1.3" marker-end="url(#arr)"/>
<text x="1226" y="239.33333333333331" font-size="11.5" text-anchor="middle" fill="#3a4553" font-style="italic" stroke="#ffffff" stroke-width="2.5" paint-order="stroke" stroke-linejoin="round">Contrôle systématique</text>
<text x="1226" y="253.83333333333331" font-size="11.5" text-anchor="middle" fill="#3a4553" font-style="italic" stroke="#ffffff" stroke-width="2.5" paint-order="stroke" stroke-linejoin="round">à l'ouverture</text>
<path d="M 1420 215.99999999999997 L 1444 215.99999999999997 L 1444 192.33333333333331 L 2007 192 L 2183 191.5 L 2200 191.5" fill="none" stroke="#5a6675" stroke-width="1.3" marker-end="url(#arr)"/>
<text x="2095" y="207.5" font-size="11.5" text-anchor="middle" fill="#3a4553" font-style="italic" stroke="#ffffff" stroke-width="2.5" paint-order="stroke" stroke-linejoin="round">Interroger les fichiers</text>
<text x="2095" y="222" font-size="11.5" text-anchor="middle" fill="#3a4553" font-style="italic" stroke="#ffffff" stroke-width="2.5" paint-order="stroke" stroke-linejoin="round">d'antécédents</text>
<path d="M 2316 191.5 L 2333 192 L 2343 192 L 2343 22 L 323 22 L 323 59 L 686 59 L 686 176.5 L 1302 176.5 L 1302 208.16666666666663 L 1312 208.16666666666663" fill="none" stroke="#5a6675" stroke-width="1.3" marker-end="url(#arr)"/>
<text x="2219" y="37.5" font-size="11.5" text-anchor="middle" fill="#3a4553" font-style="italic" stroke="#ffffff" stroke-width="2.5" paint-order="stroke" stroke-linejoin="round">Antécédents</text>
<text x="2219" y="52" font-size="11.5" text-anchor="middle" fill="#3a4553" font-style="italic" stroke="#ffffff" stroke-width="2.5" paint-order="stroke" stroke-linejoin="round">de l'assuré</text>
<path d="M 1018 286.5 L 828 286.5" fill="none" stroke="#5a6675" stroke-width="1.3" marker-end="url(#arr)"/>
<text x="908" y="302" font-size="11.5" text-anchor="middle" fill="#3a4553" font-style="italic" stroke="#ffffff" stroke-width="2.5" paint-order="stroke" stroke-linejoin="round">Mission d'expertise</text>
<text x="908" y="316.5" font-size="11.5" text-anchor="middle" fill="#3a4553" font-style="italic" stroke="#ffffff" stroke-width="2.5" paint-order="stroke" stroke-linejoin="round">si dommage &gt; seuil</text>
<path d="M 133 381.5 L 147 382 L 299 382 L 299 308 L 696 308 L 696 278.66666666666663 L 720 278.66666666666663" fill="none" stroke="#5a6675" stroke-width="1.3" marker-end="url(#arr)"/>
<text x="223" y="397.5" font-size="11.5" text-anchor="middle" fill="#3a4553" font-style="italic" stroke="#ffffff" stroke-width="2.5" paint-order="stroke" stroke-linejoin="round">Remettre le rapport</text>
<text x="223" y="412" font-size="11.5" text-anchor="middle" fill="#3a4553" font-style="italic" stroke="#ffffff" stroke-width="2.5" paint-order="stroke" stroke-linejoin="round">d'expertise</text>
<rect x="168" y="420" width="110" height="15" rx="7.5" fill="#fff2d4" stroke="#d3a01f" stroke-width="1"/>
<text x="223" y="431" font-size="9.5" text-anchor="middle" fill="#6a5111" font-weight="bold">Rapport d'expertise</text>
<path d="M 828 270.8333333333333 L 838 270.8333333333333 L 838 275.5 L 978 275.5 L 978 278.66666666666663 L 1018 278.66666666666663" fill="none" stroke="#5a6675" stroke-width="1.3" marker-end="url(#arr)"/>
<text x="908" y="233" font-size="11.5" text-anchor="middle" fill="#3a4553" font-style="italic" stroke="#ffffff" stroke-width="2.5" paint-order="stroke" stroke-linejoin="round">Conclusions</text>
<text x="908" y="247.5" font-size="11.5" text-anchor="middle" fill="#3a4553" font-style="italic" stroke="#ffffff" stroke-width="2.5" paint-order="stroke" stroke-linejoin="round">d'expertise</text>
<rect x="853" y="255.5" width="110" height="15" rx="7.5" fill="#fff2d4" stroke="#d3a01f" stroke-width="1"/>
<text x="908" y="266.5" font-size="9.5" text-anchor="middle" fill="#6a5111" font-weight="bold">Rapport d'expertise</text>
<path d="M 133 296.5 L 147 297 L 686 297 L 686 209.5 L 988 209.5 L 988 270.8333333333333 L 1018 270.8333333333333" fill="none" stroke="#5a6675" stroke-width="1.3" marker-end="url(#arr)"/>
<text x="226" y="312.5" font-size="11.5" text-anchor="middle" fill="#3a4553" font-style="italic" stroke="#ffffff" stroke-width="2.5" paint-order="stroke" stroke-linejoin="round">Instruction et</text>
<text x="226" y="327" font-size="11.5" text-anchor="middle" fill="#3a4553" font-style="italic" stroke="#ffffff" stroke-width="2.5" paint-order="stroke" stroke-linejoin="round">décisions de gestion</text>
<path d="M 1140 270.8333333333333 L 1590 270.8333333333333" fill="none" stroke="#5a6675" stroke-width="1.3" marker-end="url(#arr)"/>
<text x="1505" y="286.3333333333333" font-size="11.5" text-anchor="middle" fill="#3a4553" font-style="italic" stroke="#ffffff" stroke-width="2.5" paint-order="stroke" stroke-linejoin="round">Éléments validés</text>
<text x="1505" y="300.8333333333333" font-size="11.5" text-anchor="middle" fill="#3a4553" font-style="italic" stroke="#ffffff" stroke-width="2.5" paint-order="stroke" stroke-linejoin="round">pour chiffrage</text>
<path d="M 1698 286.5 L 1708 286.5 L 1708 304.3333333333333 L 2007 304 L 2027 304 L 2027 518 L 2022 518 A 5 5 0 0 0 2012 518 L 20 518 L 20 467 L 30 466.5 L 44 466.5" fill="none" stroke="#5a6675" stroke-width="1.3" marker-end="url(#arr)"/>
<text x="384" y="533.5" font-size="11.5" text-anchor="middle" fill="#3a4553" font-style="italic" stroke="#ffffff" stroke-width="2.5" paint-order="stroke" stroke-linejoin="round">Demande d'accord</text>
<text x="384" y="548" font-size="11.5" text-anchor="middle" fill="#3a4553" font-style="italic" stroke="#ffffff" stroke-width="2.5" paint-order="stroke" stroke-linejoin="round">hors délégation</text>
<path d="M 133 466.5 L 147 467 L 309 467 L 309 343 L 333 342.5 L 1566 342.5 L 1566 286.5 L 1590 286.5" fill="none" stroke="#5a6675" stroke-width="1.3" marker-end="url(#arr)"/>
<text x="202" y="482.5" font-size="11.5" text-anchor="middle" fill="#3a4553" font-style="italic" stroke="#ffffff" stroke-width="2.5" paint-order="stroke" stroke-linejoin="round">Accord ou</text>
<text x="202" y="497" font-size="11.5" text-anchor="middle" fill="#3a4553" font-style="italic" stroke="#ffffff" stroke-width="2.5" paint-order="stroke" stroke-linejoin="round">refus motivé</text>
<path d="M 1698 270.8333333333333 L 1870 270.8333333333333" fill="none" stroke="#5a6675" stroke-width="1.3" marker-end="url(#arr)"/>
<text x="1784" y="242.83333333333331" font-size="11.5" text-anchor="middle" fill="#3a4553" font-style="italic" stroke="#ffffff" stroke-width="2.5" paint-order="stroke" stroke-linejoin="round">Ordre d'indemnisation</text>
<rect x="1753.5" y="250.83333333333331" width="61" height="15" rx="7.5" fill="#fff2d4" stroke="#d3a01f" stroke-width="1"/>
<text x="1784" y="261.8333333333333" font-size="9.5" text-anchor="middle" fill="#6a5111" font-weight="bold">Indemnité</text>
<path d="M 1979 270.8333333333333 L 2007 271 L 2017 271 L 2017 259 L 2183 258.5 L 2197 258.5" fill="none" stroke="#5a6675" stroke-width="1.3" marker-end="url(#arr)"/>
<text x="2079" y="274.5" font-size="11.5" text-anchor="middle" fill="#3a4553" font-style="italic" stroke="#ffffff" stroke-width="2.5" paint-order="stroke" stroke-linejoin="round">Virement SEPA</text>
<rect x="2048.5" y="282.5" width="61" height="15" rx="7.5" fill="#fff2d4" stroke="#d3a01f" stroke-width="1"/>
<text x="2079" y="293.5" font-size="9.5" text-anchor="middle" fill="#6a5111" font-weight="bold">Indemnité</text>
<path d="M 1140 282.5833333333333 L 1444 282.5833333333333 L 1444 324.3333333333333 L 1561 324.3333333333333 A 5 5 0 0 1 1571 324.3333333333333 L 2007 324 L 2017 324 L 2017 564 L 10 564 L 10 116 L 58.66666666666663 116" fill="none" stroke="#5a6675" stroke-width="1.3" marker-end="url(#arr)"/>
<text x="381" y="579.5" font-size="11.5" text-anchor="middle" fill="#3a4553" font-style="italic" stroke="#ffffff" stroke-width="2.5" paint-order="stroke" stroke-linejoin="round">Notifier étapes</text>
<text x="381" y="594" font-size="11.5" text-anchor="middle" fill="#3a4553" font-style="italic" stroke="#ffffff" stroke-width="2.5" paint-order="stroke" stroke-linejoin="round">et décision</text>
<line x1="20" y1="621" x2="2333" y2="621" stroke="#e6e9ee" stroke-width="1"/>
<text x="20" y="643" font-size="11" font-weight="bold" fill="#3a4553">OBJETS MÉTIER</text>
<rect x="150" y="633" width="56" height="15" rx="7.5" fill="#fff2d4" stroke="#d3a01f"/>
<text x="178" y="644" font-size="9.5" text-anchor="middle" fill="#6a5111" font-weight="bold">Sinistre</text>
<text x="216" y="644" font-size="10" fill="#79828f">— événement dommageable déclaré par un assuré</text>
<rect x="150" y="657" width="51" height="15" rx="7.5" fill="#fff2d4" stroke="#d3a01f"/>
<text x="175.5" y="668" font-size="9.5" text-anchor="middle" fill="#6a5111" font-weight="bold">Dossier</text>
<text x="211" y="668" font-size="10" fill="#79828f">— dossier ouvert pour instruire un sinistre</text>
<rect x="150" y="681" width="110" height="15" rx="7.5" fill="#fff2d4" stroke="#d3a01f"/>
<text x="205" y="692" font-size="9.5" text-anchor="middle" fill="#6a5111" font-weight="bold">Rapport d'expertise</text>
<text x="270" y="692" font-size="10" fill="#79828f">— conclusions chiffrées de l'expert mandaté</text>
<rect x="150" y="705" width="61" height="15" rx="7.5" fill="#fff2d4" stroke="#d3a01f"/>
<text x="180.5" y="716" font-size="9.5" text-anchor="middle" fill="#6a5111" font-weight="bold">Indemnité</text>
<text x="221" y="716" font-size="10" fill="#79828f">— montant validé et versé à l'assuré</text>
<line x1="20" y1="743" x2="2333" y2="743" stroke="#e6e9ee" stroke-width="1"/>
<text x="20" y="765" font-size="11" font-weight="bold" fill="#3a4553">LÉGENDE</text>
<rect x="150" y="755" width="26" height="14" rx="3" fill="#e9f2fb" stroke="#1f77b4" stroke-dasharray="5 3"/>
<text x="182" y="766" font-size="10" fill="#17202c">Groupe d'acteurs</text>
<rect x="298" y="755" width="26" height="14" rx="3" fill="#fbf4e9" stroke="#c17d1c"/>
<text x="330" y="766" font-size="10" fill="#17202c">Système</text>
<rect x="399" y="755" width="26" height="14" rx="3" fill="#fdfaf0" stroke="#cf9f2f"/>
<text x="431" y="766" font-size="10" fill="#17202c">Couche</text>
<rect x="495" y="755" width="26" height="14" rx="3" fill="#ffffff" stroke="#48546a"/>
<text x="527" y="766" font-size="10" fill="#17202c">Bloc fonctionnel</text>
<rect x="643" y="755" width="26" height="14" rx="3" fill="#f4eff8" stroke="#8659a6" stroke-dasharray="5 3"/>
<text x="675" y="766" font-size="10" fill="#17202c">Système externe</text>
<line x1="150" y1="785" x2="176" y2="785" stroke="#5a6675" stroke-width="1.3" marker-end="url(#arr)"/>
<text x="182" y="789" font-size="10" fill="#17202c">Flux fonctionnel (libellé = données échangées)</text>
<rect x="480" y="778" width="76" height="15" rx="7.5" fill="#fff2d4" stroke="#d3a01f"/>
<text x="518" y="789" font-size="9.5" text-anchor="middle" fill="#6a5111" font-weight="bold">Objet métier</text>
<text x="564" y="789" font-size="10" fill="#17202c">porté par le flux</text>
<text x="150" y="813" font-size="10" fill="#17202c" font-style="italic">Les dossiers sinistres sont conservés 10 ans (obligation légale)</text>
</svg>
