<svg xmlns="http://www.w3.org/2000/svg" viewBox="0 0 1693 976" font-family="Helvetica,Arial,sans-serif">
<defs><marker id="arr" viewBox="0 0 10 10" refX="9" refY="5" markerWidth="7" markerHeight="7" orient="auto-start-reverse">
<path d="M0,0 L10,5 L0,10 z" fill="#444444"/></marker></defs>
<rect width="1693" height="976" fill="white"/>
<rect x="25" y="505" width="156" height="271" rx="6" fill="#eef4fb" stroke="#7a9cc4" stroke-width="1.2" stroke-dasharray="5 3"/>
<text x="35" y="523" font-size="13" font-weight="bold" fill="#333">Role group - Central zone</text>
<rect x="70" y="133" width="119" height="101" rx="6" fill="#eef4fb" stroke="#7a9cc4" stroke-width="1.2" stroke-dasharray="5 3"/>
<text x="80" y="151" font-size="13" font-weight="bold" fill="#333">Role group - Remote site</text>
<rect x="77" y="245" width="174" height="249" rx="6" fill="#eef4fb" stroke="#7a9cc4" stroke-width="1.2" stroke-dasharray="5 3"/>
<text x="87" y="263" font-size="13" font-weight="bold" fill="#333">External targets</text>
<rect x="431" y="160" width="798" height="478.6666666666667" rx="6" fill="#f6f2ea" stroke="#b09a6d" stroke-width="1.2"/>
<text x="441" y="178" font-size="13" font-weight="bold" fill="#333">Main infrastructure</text>
<rect x="982" y="296.3333333333333" width="213" height="284" rx="6" fill="#fdfbf6" stroke="#c4b258" stroke-width="1"/>
<text x="992" y="314.3333333333333" font-size="13" font-weight="bold" fill="#333">Central control layer</text>
<rect x="465" y="270.6666666666667" width="198" height="284" rx="6" fill="#fdfbf6" stroke="#c4b258" stroke-width="1"/>
<text x="475" y="288.6666666666667" font-size="13" font-weight="bold" fill="#333">Remote site layer</text>
<rect x="1423" y="304" width="205" height="284" rx="6" fill="#f0eef5" stroke="#9187b3" stroke-width="1.2" stroke-dasharray="5 3"/>
<text x="1433" y="322" font-size="13" font-weight="bold" fill="#333">External resources</text>
<circle cx="103" cy="542" r="7" fill="none" stroke="#445566" stroke-width="1.5"/>
<path d="M 92 564 q 11 -19 22 0" fill="none" stroke="#445566" stroke-width="1.5"/>
<text x="103" y="576" font-size="11" text-anchor="middle" fill="#223344">Control agent</text>
<text x="103" y="587" font-size="11" text-anchor="middle" fill="#223344">Main zone</text>
<circle cx="112.5" cy="712" r="7" fill="none" stroke="#445566" stroke-width="1.5"/>
<path d="M 101.5 734 q 11 -19 22 0" fill="none" stroke="#445566" stroke-width="1.5"/>
<text x="112.5" y="746" font-size="11" text-anchor="middle" fill="#223344">Functional and</text>
<text x="112.5" y="757" font-size="11" text-anchor="middle" fill="#223344">technical manager</text>
<circle cx="103" cy="627" r="7" fill="none" stroke="#445566" stroke-width="1.5"/>
<path d="M 92 649 q 11 -19 22 0" fill="none" stroke="#445566" stroke-width="1.5"/>
<text x="103" y="661" font-size="11" text-anchor="middle" fill="#223344">Resource technicians</text>
<text x="103" y="672" font-size="11" text-anchor="middle" fill="#223344">Main zone</text>
<circle cx="129.5" cy="170" r="7" fill="none" stroke="#445566" stroke-width="1.5"/>
<path d="M 118.5 192 q 11 -19 22 0" fill="none" stroke="#445566" stroke-width="1.5"/>
<text x="129.5" y="204" font-size="11" text-anchor="middle" fill="#223344">Field operator</text>
<text x="129.5" y="215" font-size="11" text-anchor="middle" fill="#223344">Remote site</text>
<circle cx="164" cy="367" r="7" fill="none" stroke="#445566" stroke-width="1.5"/>
<path d="M 153 389 q 11 -19 22 0" fill="none" stroke="#445566" stroke-width="1.5"/>
<text x="164" y="401" font-size="11" text-anchor="middle" fill="#223344">Concerned person</text>
<circle cx="164" cy="441" r="7" fill="none" stroke="#445566" stroke-width="1.5"/>
<path d="M 153 463 q 11 -19 22 0" fill="none" stroke="#445566" stroke-width="1.5"/>
<text x="164" y="475" font-size="11" text-anchor="middle" fill="#223344">Passenger-service agent</text>
<circle cx="164" cy="282" r="7" fill="none" stroke="#445566" stroke-width="1.5"/>
<path d="M 153 304 q 11 -19 22 0" fill="none" stroke="#445566" stroke-width="1.5"/>
<text x="164" y="316" font-size="11" text-anchor="middle" fill="#223344">Remote-site</text>
<text x="164" y="327" font-size="11" text-anchor="middle" fill="#223344">manager</text>
<rect x="1021" y="323.3333333333333" width="165" height="47" rx="4" fill="#ffffff" stroke="#666677" stroke-width="1.3"/>
<text x="1103.5" y="343.5833333333333" font-size="12.5" text-anchor="middle" fill="#222233">Central communication</text>
<text x="1103.5" y="358.0833333333333" font-size="12.5" text-anchor="middle" fill="#222233">module</text>
<rect x="1062" y="457.3333333333333" width="124" height="47" rx="4" fill="#ffffff" stroke="#666677" stroke-width="1.3"/>
<text x="1124" y="477.5833333333333" font-size="12.5" text-anchor="middle" fill="#222233">Data processing</text>
<text x="1124" y="492.0833333333333" font-size="12.5" text-anchor="middle" fill="#222233">module</text>
<rect x="1021" y="390.3333333333333" width="158" height="47" rx="4" fill="#ffffff" stroke="#666677" stroke-width="1.3"/>
<text x="1100" y="410.5833333333333" font-size="12.5" text-anchor="middle" fill="#222233">System configuration</text>
<text x="1100" y="425.0833333333333" font-size="12.5" text-anchor="middle" fill="#222233">module</text>
<rect x="1026" y="524.3333333333333" width="145" height="47" rx="4" fill="#ffffff" stroke="#666677" stroke-width="1.3"/>
<text x="1098.5" y="544.5833333333333" font-size="12.5" text-anchor="middle" fill="#222233">Real-time activity</text>
<text x="1098.5" y="559.0833333333333" font-size="12.5" text-anchor="middle" fill="#222233">tracking block</text>
<rect x="477.5" y="297.6666666666667" width="173" height="47" rx="4" fill="#ffffff" stroke="#666677" stroke-width="1.3"/>
<text x="564" y="317.9166666666667" font-size="12.5" text-anchor="middle" fill="#222233">Satellite coordination</text>
<text x="564" y="332.4166666666667" font-size="12.5" text-anchor="middle" fill="#222233">module</text>
<rect x="474" y="364.6666666666667" width="151" height="47" rx="4" fill="#ffffff" stroke="#666677" stroke-width="1.3"/>
<text x="549.5" y="384.9166666666667" font-size="12.5" text-anchor="middle" fill="#222233">Local communication</text>
<text x="549.5" y="399.4166666666667" font-size="12.5" text-anchor="middle" fill="#222233">module</text>
<rect x="474" y="498.6666666666667" width="180" height="47" rx="4" fill="#ffffff" stroke="#666677" stroke-width="1.3"/>
<text x="564" y="518.9166666666667" font-size="12.5" text-anchor="middle" fill="#222233">Satellite communication</text>
<text x="564" y="533.4166666666667" font-size="12.5" text-anchor="middle" fill="#222233">module</text>
<rect x="474" y="431.6666666666667" width="117" height="47" rx="4" fill="#ffffff" stroke="#666677" stroke-width="1.3"/>
<text x="532.5" y="451.9166666666667" font-size="12.5" text-anchor="middle" fill="#222233">Remote display</text>
<text x="532.5" y="466.4166666666667" font-size="12.5" text-anchor="middle" fill="#222233">channels</text>
<rect x="1488" y="398" width="131" height="47" rx="4" fill="#ffffff" stroke="#666677" stroke-width="1.3"/>
<text x="1553.5" y="418.25" font-size="12.5" text-anchor="middle" fill="#222233">External display</text>
<text x="1553.5" y="432.75" font-size="12.5" text-anchor="middle" fill="#222233">infrastructure</text>
<rect x="1456.5" y="331" width="138" height="47" rx="4" fill="#ffffff" stroke="#666677" stroke-width="1.3"/>
<text x="1525.5" y="351.25" font-size="12.5" text-anchor="middle" fill="#222233">Third-party</text>
<text x="1525.5" y="365.75" font-size="12.5" text-anchor="middle" fill="#222233">broadcast network</text>
<rect x="1471.5" y="532" width="108" height="47" rx="4" fill="#ffffff" stroke="#666677" stroke-width="1.3"/>
<text x="1525.5" y="552.25" font-size="12.5" text-anchor="middle" fill="#222233">Data export</text>
<text x="1525.5" y="566.75" font-size="12.5" text-anchor="middle" fill="#222233">service</text>
<rect x="1432" y="465" width="187" height="47" rx="4" fill="#ffffff" stroke="#666677" stroke-width="1.3"/>
<text x="1525.5" y="485.25" font-size="12.5" text-anchor="middle" fill="#222233">External data-collection</text>
<text x="1525.5" y="499.75" font-size="12.5" text-anchor="middle" fill="#222233">infrastructure</text>
<path d="M 150.5 564.5 L 186 565 L 426 564.6666666666667 L 445 564.6666666666667 A 5 5 0 0 1 455 564.6666666666667 L 917 564.6666666666667 L 917 349 L 982 349" fill="none" stroke="#444444" stroke-width="1.3" marker-end="url(#arr)"/>
<text x="304.5" y="580.5" font-size="11.5" text-anchor="middle" fill="#333" font-style="italic" stroke="white" stroke-width="2.5" paint-order="stroke" stroke-linejoin="round">Overall control</text>
<path d="M 172 734.5 L 186 735 L 376 735 L 376 587 L 426 586.6666666666667 L 445 586.6666666666667 A 5 5 0 0 1 455 586.6666666666667 L 937 586.6666666666667 L 937 421.66666666666663 L 996 421.66666666666663 A 5 5 0 0 1 1006 421.66666666666663 L 1006 421.66666666666663 A 5 5 0 0 1 1016 421.66666666666663 L 1021 421.66666666666663" fill="none" stroke="#444444" stroke-width="1.3" marker-end="url(#arr)"/>
<text x="298.5" y="750.5" font-size="11.5" text-anchor="middle" fill="#333" font-style="italic" stroke="white" stroke-width="2.5" paint-order="stroke" stroke-linejoin="round">Configure the system</text>
<path d="M 1186 339 L 1205 339 A 5 5 0 0 1 1215 339 L 1254 339 L 1254 22 L 10 22 L 10 565 L 20 564.5 L 55.5 564.5" fill="none" stroke="#444444" stroke-width="1.3" marker-end="url(#arr)"/>
<text x="513" y="37.5" font-size="11.5" text-anchor="middle" fill="#333" font-style="italic" stroke="white" stroke-width="2.5" paint-order="stroke" stroke-linejoin="round">Alerts, notifications and</text>
<text x="513" y="52" font-size="11.5" text-anchor="middle" fill="#333" font-style="italic" stroke="white" stroke-width="2.5" paint-order="stroke" stroke-linejoin="round">feeds from various sources</text>
<path d="M 172 649.5 L 186 650 L 224 650 L 224 597 L 366 597 L 366 576 L 426 575.6666666666667 L 445 575.6666666666667 A 5 5 0 0 1 455 575.6666666666667 L 927 575.6666666666667 L 927 406 L 996 406 A 5 5 0 0 1 1006 406 L 1006 406 A 5 5 0 0 1 1016 406 L 1021 406" fill="none" stroke="#444444" stroke-width="1.3" marker-end="url(#arr)"/>
<text x="295" y="612.5" font-size="11.5" text-anchor="middle" fill="#333" font-style="italic" stroke="white" stroke-width="2.5" paint-order="stroke" stroke-linejoin="round">Enable/disable</text>
<text x="295" y="627" font-size="11.5" text-anchor="middle" fill="#333" font-style="italic" stroke="white" stroke-width="2.5" paint-order="stroke" stroke-linejoin="round">a display terminal</text>
<path d="M 650.5 313.33333333333337 L 678 313.33333333333337 L 678 248.5 L 1234 249 L 1244 249 L 1244 123 L 55 123 L 55 193 L 65 192.5 L 79 192.5" fill="none" stroke="#444444" stroke-width="1.3" marker-end="url(#arr)"/>
<text x="522.5" y="80.5" font-size="11.5" text-anchor="middle" fill="#333" font-style="italic" stroke="white" stroke-width="2.5" paint-order="stroke" stroke-linejoin="round">Report of</text>
<text x="522.5" y="95" font-size="11.5" text-anchor="middle" fill="#333" font-style="italic" stroke="white" stroke-width="2.5" paint-order="stroke" stroke-linejoin="round">anomalies and inconsistencies</text>
<rect x="495.5" y="103" width="54" height="15" rx="7.5" fill="#fdf3d8" stroke="#c9a227" stroke-width="1"/>
<text x="522.5" y="114" font-size="9.5" text-anchor="middle" fill="#7a6216" font-weight="bold">Anomaly</text>
<path d="M 180 192.5 L 194 193 L 406 193 L 406 388 L 426 388.1666666666667 L 474 388.1666666666667" fill="none" stroke="#444444" stroke-width="1.3" marker-end="url(#arr)"/>
<text x="331.5" y="208.5" font-size="11.5" text-anchor="middle" fill="#333" font-style="italic" stroke="white" stroke-width="2.5" paint-order="stroke" stroke-linejoin="round">Write and broadcast</text>
<text x="331.5" y="223" font-size="11.5" text-anchor="middle" fill="#333" font-style="italic" stroke="white" stroke-width="2.5" paint-order="stroke" stroke-linejoin="round">messages to central</text>
<text x="331.5" y="237.5" font-size="11.5" text-anchor="middle" fill="#333" font-style="italic" stroke="white" stroke-width="2.5" paint-order="stroke" stroke-linejoin="round">control</text>
<rect x="304.5" y="245.5" width="54" height="15" rx="7.5" fill="#fdf3d8" stroke="#c9a227" stroke-width="1"/>
<text x="331.5" y="256.5" font-size="9.5" text-anchor="middle" fill="#7a6216" font-weight="bold">Message</text>
<path d="M 251 370 L 329 370 L 329 455 L 426 455.1666666666667 L 474 455.1666666666667" fill="none" stroke="#444444" stroke-width="1.3" marker-end="url(#arr)"/>
<text x="293" y="385.5" font-size="11.5" text-anchor="middle" fill="#333" font-style="italic" stroke="white" stroke-width="2.5" paint-order="stroke" stroke-linejoin="round">Consult</text>
<path d="M 1186 354.6666666666667 L 1205 354.6666666666667 A 5 5 0 0 1 1215 354.6666666666667 L 1234 355 L 1418 354.5 L 1456.5 354.5" fill="none" stroke="#444444" stroke-width="1.3" marker-end="url(#arr)"/>
<text x="1324" y="370.5" font-size="11.5" text-anchor="middle" fill="#333" font-style="italic" stroke="white" stroke-width="2.5" paint-order="stroke" stroke-linejoin="round">Real-time broadcast of</text>
<text x="1324" y="385" font-size="11.5" text-anchor="middle" fill="#333" font-style="italic" stroke="white" stroke-width="2.5" paint-order="stroke" stroke-linejoin="round">disruption information</text>
<text x="1324" y="399.5" font-size="11.5" text-anchor="middle" fill="#333" font-style="italic" stroke="white" stroke-width="2.5" paint-order="stroke" stroke-linejoin="round">to the relevant lines</text>
<path d="M 1186 480.8333333333333 L 1205 480.8333333333333 A 5 5 0 0 1 1215 480.8333333333333 L 1234 481 L 1408 481 L 1408 556 L 1418 555.5 L 1471.5 555.5" fill="none" stroke="#444444" stroke-width="1.3" marker-end="url(#arr)"/>
<text x="1324" y="496.5" font-size="11.5" text-anchor="middle" fill="#333" font-style="italic" stroke="white" stroke-width="2.5" paint-order="stroke" stroke-linejoin="round">Export of real-time</text>
<text x="1324" y="511" font-size="11.5" text-anchor="middle" fill="#333" font-style="italic" stroke="white" stroke-width="2.5" paint-order="stroke" stroke-linejoin="round">and configuration data</text>
<path d="M 1171 547.8333333333333 L 1210 547.8333333333333 L 1210 187 L 450 187 L 450 313.33333333333337 L 477.5 313.33333333333337" fill="none" stroke="#444444" stroke-width="1.3" marker-end="url(#arr)"/>
<text x="797.5" y="202.5" font-size="11.5" text-anchor="middle" fill="#333" font-style="italic" stroke="white" stroke-width="2.5" paint-order="stroke" stroke-linejoin="round">Broadcast of information</text>
<text x="797.5" y="217" font-size="11.5" text-anchor="middle" fill="#333" font-style="italic" stroke="white" stroke-width="2.5" paint-order="stroke" stroke-linejoin="round">and messages about upcoming flows</text>
<text x="797.5" y="231.5" font-size="11.5" text-anchor="middle" fill="#333" font-style="italic" stroke="white" stroke-width="2.5" paint-order="stroke" stroke-linejoin="round">entered by the central team</text>
<path d="M 650.5 329 L 1011 329 L 1011 536.0833333333333 L 1026 536.0833333333333" fill="none" stroke="#444444" stroke-width="1.3" marker-end="url(#arr)"/>
<text x="797.5" y="272" font-size="11.5" text-anchor="middle" fill="#333" font-style="italic" stroke="white" stroke-width="2.5" paint-order="stroke" stroke-linejoin="round">Forward the</text>
<text x="797.5" y="286.5" font-size="11.5" text-anchor="middle" fill="#333" font-style="italic" stroke="white" stroke-width="2.5" paint-order="stroke" stroke-linejoin="round">messages entered by staff</text>
<text x="797.5" y="301" font-size="11.5" text-anchor="middle" fill="#333" font-style="italic" stroke="white" stroke-width="2.5" paint-order="stroke" stroke-linejoin="round">present on site</text>
<rect x="770.5" y="309" width="54" height="15" rx="7.5" fill="#fdf3d8" stroke="#c9a227" stroke-width="1"/>
<text x="797.5" y="320" font-size="9.5" text-anchor="middle" fill="#7a6216" font-weight="bold">Message</text>
<path d="M 654 522.1666666666667 L 678 522.1666666666667 L 678 340 L 917 340 L 917 339 L 1006 339 A 5 5 0 0 1 1016 339 L 1021 339" fill="none" stroke="#444444" stroke-width="1.3" marker-end="url(#arr)"/>
<text x="797.5" y="355.5" font-size="11.5" text-anchor="middle" fill="#333" font-style="italic" stroke="white" stroke-width="2.5" paint-order="stroke" stroke-linejoin="round">Archive of</text>
<text x="797.5" y="370" font-size="11.5" text-anchor="middle" fill="#333" font-style="italic" stroke="white" stroke-width="2.5" paint-order="stroke" stroke-linejoin="round">the messaging broadcast</text>
<text x="797.5" y="384.5" font-size="11.5" text-anchor="middle" fill="#333" font-style="italic" stroke="white" stroke-width="2.5" paint-order="stroke" stroke-linejoin="round">locally at the remote site</text>
<path d="M 1619 496.33333333333337 L 1633 496 L 1643 496 L 1643 649 L 416 649 L 416 629 L 426 628.6666666666667 L 967 628.6666666666667 L 967 559.5833333333333 L 1026 559.5833333333333" fill="none" stroke="#444444" stroke-width="1.3" marker-end="url(#arr)"/>
<text x="1505" y="664.5" font-size="11.5" text-anchor="middle" fill="#333" font-style="italic" stroke="white" stroke-width="2.5" paint-order="stroke" stroke-linejoin="round">Forward external</text>
<text x="1505" y="679" font-size="11.5" text-anchor="middle" fill="#333" font-style="italic" stroke="white" stroke-width="2.5" paint-order="stroke" stroke-linejoin="round">collection data and events</text>
<path d="M 1594.5 354.5 L 1633 355 L 1673 355 L 1673 773 L 386 773 L 386 598 L 426 597.6666666666667 L 445 597.6666666666667 A 5 5 0 0 1 455 597.6666666666667 L 947 597.6666666666667 L 947 431.66666666666663 L 1001 431.66666666666663 L 1001 354.6666666666667 L 1006 354.6666666666667 A 5 5 0 0 1 1016 354.6666666666667 L 1021 354.6666666666667" fill="none" stroke="#444444" stroke-width="1.3" marker-end="url(#arr)"/>
<text x="1540.5" y="788.5" font-size="11.5" text-anchor="middle" fill="#333" font-style="italic" stroke="white" stroke-width="2.5" paint-order="stroke" stroke-linejoin="round">Forward disruption messages</text>
<text x="1540.5" y="803" font-size="11.5" text-anchor="middle" fill="#333" font-style="italic" stroke="white" stroke-width="2.5" paint-order="stroke" stroke-linejoin="round">from the requested transport networks</text>
<path d="M 1619 421.5 L 1633 422 L 1668 422 A 5 5 0 0 1 1678 422 L 1683 422 L 1683 150 L 1259 150 A 5 5 0 0 0 1249 150 L 1249 150 A 5 5 0 0 0 1239 150 L 416 150 L 416 329 L 477.5 329" fill="none" stroke="#444444" stroke-width="1.3" marker-end="url(#arr)"/>
<text x="1534" y="165.5" font-size="11.5" text-anchor="middle" fill="#333" font-style="italic" stroke="white" stroke-width="2.5" paint-order="stroke" stroke-linejoin="round">Forward the list of upcoming</text>
<text x="1534" y="180" font-size="11.5" text-anchor="middle" fill="#333" font-style="italic" stroke="white" stroke-width="2.5" paint-order="stroke" stroke-linejoin="round">flows and the lead-vehicle identity</text>
<text x="1534" y="194.5" font-size="11.5" text-anchor="middle" fill="#333" font-style="italic" stroke="white" stroke-width="2.5" paint-order="stroke" stroke-linejoin="round">for periodic control</text>
<path d="M 1579.5 555.5 L 1633 556 L 1638 556 A 5 5 0 0 1 1648 556 L 1653 556 L 1653 695 L 406 695 L 406 619 L 426 618.6666666666667 L 450 618.6666666666667 L 450 522.1666666666667 L 474 522.1666666666667" fill="none" stroke="#444444" stroke-width="1.3" marker-end="url(#arr)"/>
<text x="1489" y="710.5" font-size="11.5" text-anchor="middle" fill="#333" font-style="italic" stroke="white" stroke-width="2.5" paint-order="stroke" stroke-linejoin="round">Traffic notifications</text>
<text x="1489" y="725" font-size="11.5" text-anchor="middle" fill="#333" font-style="italic" stroke="white" stroke-width="2.5" paint-order="stroke" stroke-linejoin="round">and user messaging</text>
<path d="M 1619 480.66666666666663 L 1633 481 L 1663 481 L 1663 741 L 396 741 L 396 609 L 426 608.6666666666667 L 445 608.6666666666667 A 5 5 0 0 1 455 608.6666666666667 L 957 608.6666666666667 L 957 547.8333333333333 L 1026 547.8333333333333" fill="none" stroke="#444444" stroke-width="1.3" marker-end="url(#arr)"/>
<text x="1508" y="756.5" font-size="11.5" text-anchor="middle" fill="#333" font-style="italic" stroke="white" stroke-width="2.5" paint-order="stroke" stroke-linejoin="round">Forward the associated missions and services</text>
<line x1="20" y1="830" x2="1673" y2="830" stroke="#ddd" stroke-width="1"/>
<text x="20" y="852" font-size="11" font-weight="bold" fill="#555">BUSINESS OBJECTS</text>
<rect x="150" y="842" width="54" height="15" rx="7.5" fill="#fdf3d8" stroke="#c9a227"/>
<text x="177" y="853" font-size="9.5" text-anchor="middle" fill="#7a6216" font-weight="bold">Message</text>
<text x="214" y="853" font-size="10" fill="#666">— information message broadcast to sites and display channels</text>
<rect x="150" y="866" width="54" height="15" rx="7.5" fill="#fdf3d8" stroke="#c9a227"/>
<text x="177" y="877" font-size="9.5" text-anchor="middle" fill="#7a6216" font-weight="bold">Anomaly</text>
<text x="214" y="877" font-size="10" fill="#666">— incident or inconsistency reported on a site</text>
<line x1="20" y1="904" x2="1673" y2="904" stroke="#ddd" stroke-width="1"/>
<text x="20" y="926" font-size="11" font-weight="bold" fill="#555">LEGEND</text>
<rect x="150" y="916" width="26" height="14" rx="3" fill="#eef4fb" stroke="#7a9cc4" stroke-dasharray="5 3"/>
<text x="182" y="927" font-size="10" fill="#444">Actor group</text>
<rect x="272" y="916" width="26" height="14" rx="3" fill="#f6f2ea" stroke="#b09a6d"/>
<text x="304" y="927" font-size="10" fill="#444">System</text>
<rect x="368" y="916" width="26" height="14" rx="3" fill="#fdfbf6" stroke="#c4b258"/>
<text x="400" y="927" font-size="10" fill="#444">Layer</text>
<rect x="458" y="916" width="26" height="14" rx="3" fill="#ffffff" stroke="#666677"/>
<text x="490" y="927" font-size="10" fill="#444">Functional block</text>
<rect x="606" y="916" width="26" height="14" rx="3" fill="#f0eef5" stroke="#9187b3" stroke-dasharray="5 3"/>
<text x="638" y="927" font-size="10" fill="#444">External system</text>
<line x1="150" y1="946" x2="176" y2="946" stroke="#444444" stroke-width="1.3" marker-end="url(#arr)"/>
<text x="182" y="950" font-size="10" fill="#444">Functional flow (label = exchanged data)</text>
<rect x="480" y="939" width="96" height="15" rx="7.5" fill="#fdf3d8" stroke="#c9a227"/>
<text x="528" y="950" font-size="9.5" text-anchor="middle" fill="#7a6216" font-weight="bold">Business object</text>
<text x="584" y="950" font-size="10" fill="#444">carried by the flow</text>
</svg>
