<svg xmlns="http://www.w3.org/2000/svg" viewBox="0 0 1719 1030" font-family="Helvetica,Arial,sans-serif">
<defs><marker id="arr" viewBox="0 0 10 10" refX="9" refY="5" markerWidth="7" markerHeight="7" orient="auto-start-reverse">
<path d="M0,0 L10,5 L0,10 z" fill="#444444"/></marker></defs>
<rect width="1719" height="1030" fill="white"/>
<rect x="27" y="545" width="151" height="283" rx="6" fill="#eef4fb" stroke="#7a9cc4" stroke-width="1.2" stroke-dasharray="5 3"/>
<text x="37" y="563" font-size="12" font-weight="bold" fill="#333">Role group - Central zone</text>
<rect x="56" y="143" width="117" height="109" rx="6" fill="#eef4fb" stroke="#7a9cc4" stroke-width="1.2" stroke-dasharray="5 3"/>
<text x="66" y="161" font-size="12" font-weight="bold" fill="#333">Role group - Remote site</text>
<rect x="57" y="268" width="167" height="261" rx="6" fill="#eef4fb" stroke="#7a9cc4" stroke-width="1.2" stroke-dasharray="5 3"/>
<text x="67" y="286" font-size="12" font-weight="bold" fill="#333">External targets</text>
<rect x="435" y="191" width="782" height="495" rx="6" fill="#f6f2ea" stroke="#b09a6d" stroke-width="1.2"/>
<text x="445" y="209" font-size="12" font-weight="bold" fill="#333">Main infrastructure</text>
<rect x="968" y="320" width="212" height="306" rx="6" fill="#fdfbf6" stroke="#c4b258" stroke-width="1"/>
<text x="978" y="338" font-size="12" font-weight="bold" fill="#333">Central control layer</text>
<rect x="472" y="293" width="195" height="306" rx="6" fill="#fdfbf6" stroke="#c4b258" stroke-width="1"/>
<text x="482" y="311" font-size="12" font-weight="bold" fill="#333">Remote site layer</text>
<rect x="1451" y="328" width="201" height="306" rx="6" fill="#f0eef5" stroke="#9187b3" stroke-width="1.2" stroke-dasharray="5 3"/>
<text x="1461" y="346" font-size="12" font-weight="bold" fill="#333">External resources</text>
<circle cx="102.5" cy="585" r="7" fill="none" stroke="#445566" stroke-width="1.5"/>
<path d="M 91.5 607 q 11 -19 22 0" fill="none" stroke="#445566" stroke-width="1.5"/>
<text x="102.5" y="619" font-size="10" text-anchor="middle" fill="#223344">Control agent</text>
<text x="102.5" y="630" font-size="10" text-anchor="middle" fill="#223344">Main zone</text>
<circle cx="111" cy="759" r="7" fill="none" stroke="#445566" stroke-width="1.5"/>
<path d="M 100 781 q 11 -19 22 0" fill="none" stroke="#445566" stroke-width="1.5"/>
<text x="111" y="793" font-size="10" text-anchor="middle" fill="#223344">Functional and</text>
<text x="111" y="804" font-size="10" text-anchor="middle" fill="#223344">technical manager</text>
<circle cx="102.5" cy="672" r="7" fill="none" stroke="#445566" stroke-width="1.5"/>
<path d="M 91.5 694 q 11 -19 22 0" fill="none" stroke="#445566" stroke-width="1.5"/>
<text x="102.5" y="706" font-size="10" text-anchor="middle" fill="#223344">Resource technicians</text>
<text x="102.5" y="717" font-size="10" text-anchor="middle" fill="#223344">Main zone</text>
<circle cx="114.5" cy="183" r="7" fill="none" stroke="#445566" stroke-width="1.5"/>
<path d="M 103.5 205 q 11 -19 22 0" fill="none" stroke="#445566" stroke-width="1.5"/>
<text x="114.5" y="217" font-size="10" text-anchor="middle" fill="#223344">Field operator</text>
<text x="114.5" y="228" font-size="10" text-anchor="middle" fill="#223344">Remote site</text>
<circle cx="140.5" cy="395" r="7" fill="none" stroke="#445566" stroke-width="1.5"/>
<path d="M 129.5 417 q 11 -19 22 0" fill="none" stroke="#445566" stroke-width="1.5"/>
<text x="140.5" y="429" font-size="10" text-anchor="middle" fill="#223344">Concerned person</text>
<circle cx="140.5" cy="471" r="7" fill="none" stroke="#445566" stroke-width="1.5"/>
<path d="M 129.5 493 q 11 -19 22 0" fill="none" stroke="#445566" stroke-width="1.5"/>
<text x="140.5" y="505" font-size="10" text-anchor="middle" fill="#223344">Passenger-service agent</text>
<circle cx="140.5" cy="308" r="7" fill="none" stroke="#445566" stroke-width="1.5"/>
<path d="M 129.5 330 q 11 -19 22 0" fill="none" stroke="#445566" stroke-width="1.5"/>
<text x="140.5" y="342" font-size="10" text-anchor="middle" fill="#223344">Remote-site</text>
<text x="140.5" y="353" font-size="10" text-anchor="middle" fill="#223344">manager</text>
<rect x="1010" y="350" width="158" height="51" rx="4" fill="#ffffff" stroke="#666677" stroke-width="1.3"/>
<text x="1089" y="372.75" font-size="11.5" text-anchor="middle" fill="#222233">Central communication</text>
<text x="1089" y="386.25" font-size="11.5" text-anchor="middle" fill="#222233">module</text>
<rect x="1028" y="492" width="140" height="51" rx="4" fill="#ffffff" stroke="#666677" stroke-width="1.3"/>
<text x="1098" y="514.75" font-size="11.5" text-anchor="middle" fill="#222233">Data processing</text>
<text x="1098" y="528.25" font-size="11.5" text-anchor="middle" fill="#222233">module</text>
<rect x="1010" y="421" width="151" height="51" rx="4" fill="#ffffff" stroke="#666677" stroke-width="1.3"/>
<text x="1085.5" y="443.75" font-size="11.5" text-anchor="middle" fill="#222233">System configuration</text>
<text x="1085.5" y="457.25" font-size="11.5" text-anchor="middle" fill="#222233">module</text>
<rect x="1014.5" y="563" width="140" height="51" rx="4" fill="#ffffff" stroke="#666677" stroke-width="1.3"/>
<text x="1084.5" y="585.75" font-size="11.5" text-anchor="middle" fill="#222233">Real-time activity</text>
<text x="1084.5" y="599.25" font-size="11.5" text-anchor="middle" fill="#222233">tracking block</text>
<rect x="487.5" y="323" width="164" height="51" rx="4" fill="#ffffff" stroke="#666677" stroke-width="1.3"/>
<text x="569.5" y="345.75" font-size="11.5" text-anchor="middle" fill="#222233">Satellite coordination</text>
<text x="569.5" y="359.25" font-size="11.5" text-anchor="middle" fill="#222233">module</text>
<rect x="484" y="394" width="145" height="51" rx="4" fill="#ffffff" stroke="#666677" stroke-width="1.3"/>
<text x="556.5" y="416.75" font-size="11.5" text-anchor="middle" fill="#222233">Local communication</text>
<text x="556.5" y="430.25" font-size="11.5" text-anchor="middle" fill="#222233">module</text>
<rect x="484" y="536" width="171" height="51" rx="4" fill="#ffffff" stroke="#666677" stroke-width="1.3"/>
<text x="569.5" y="558.75" font-size="11.5" text-anchor="middle" fill="#222233">Satellite communication</text>
<text x="569.5" y="572.25" font-size="11.5" text-anchor="middle" fill="#222233">module</text>
<rect x="484" y="465" width="140" height="51" rx="4" fill="#ffffff" stroke="#666677" stroke-width="1.3"/>
<text x="554" y="487.75" font-size="11.5" text-anchor="middle" fill="#222233">Remote display</text>
<text x="554" y="501.25" font-size="11.5" text-anchor="middle" fill="#222233">channels</text>
<rect x="1500" y="429" width="140" height="51" rx="4" fill="#ffffff" stroke="#666677" stroke-width="1.3"/>
<text x="1570" y="451.75" font-size="11.5" text-anchor="middle" fill="#222233">External display</text>
<text x="1570" y="465.25" font-size="11.5" text-anchor="middle" fill="#222233">infrastructure</text>
<rect x="1481.5" y="358" width="140" height="51" rx="4" fill="#ffffff" stroke="#666677" stroke-width="1.3"/>
<text x="1551.5" y="380.75" font-size="11.5" text-anchor="middle" fill="#222233">Third-party</text>
<text x="1551.5" y="394.25" font-size="11.5" text-anchor="middle" fill="#222233">broadcast network</text>
<rect x="1481.5" y="571" width="140" height="51" rx="4" fill="#ffffff" stroke="#666677" stroke-width="1.3"/>
<text x="1551.5" y="593.75" font-size="11.5" text-anchor="middle" fill="#222233">Data export</text>
<text x="1551.5" y="607.25" font-size="11.5" text-anchor="middle" fill="#222233">service</text>
<rect x="1463" y="500" width="177" height="51" rx="4" fill="#ffffff" stroke="#666677" stroke-width="1.3"/>
<text x="1551.5" y="522.75" font-size="11.5" text-anchor="middle" fill="#222233">External data-collection</text>
<text x="1551.5" y="536.25" font-size="11.5" text-anchor="middle" fill="#222233">infrastructure</text>
<path d="M 146 608.5 L 183 609 L 452 609 A 5 5 0 0 1 462 609 L 903 609 L 903 377 L 968 377" fill="none" stroke="#444444" stroke-width="1.3" marker-end="url(#arr)"/>
<text x="310.5" y="624.5" font-size="10.5" text-anchor="middle" fill="#333" font-style="italic" stroke="white" stroke-width="2.5" paint-order="stroke" stroke-linejoin="round">Overall control</text>
<path d="M 166 782.5 L 183 783 L 380 783 L 380 631 L 452 631 A 5 5 0 0 1 462 631 L 923 631 L 923 455 L 985 455 A 5 5 0 0 1 995 455 L 995 455 A 5 5 0 0 1 1005 455 L 1010 455" fill="none" stroke="#444444" stroke-width="1.3" marker-end="url(#arr)"/>
<text x="308" y="798.5" font-size="10.5" text-anchor="middle" fill="#333" font-style="italic" stroke="white" stroke-width="2.5" paint-order="stroke" stroke-linejoin="round">Configure the system</text>
<path d="M 1168 367 L 1190 367 A 5 5 0 0 1 1200 367 L 1242 367 L 1242 30 L 12 30 L 12 609 L 22 608.5 L 59 608.5" fill="none" stroke="#444444" stroke-width="1.3" marker-end="url(#arr)"/>
<text x="509.5" y="45.5" font-size="10.5" text-anchor="middle" fill="#333" font-style="italic" stroke="white" stroke-width="2.5" paint-order="stroke" stroke-linejoin="round">Alerts, notifications and</text>
<text x="509.5" y="59" font-size="10.5" text-anchor="middle" fill="#333" font-style="italic" stroke="white" stroke-width="2.5" paint-order="stroke" stroke-linejoin="round">feeds from various sources</text>
<path d="M 166 695.5 L 183 696 L 236 696 L 236 643 L 368 643 L 368 620 L 452 620 A 5 5 0 0 1 462 620 L 913 620 L 913 438 L 985 438 A 5 5 0 0 1 995 438 L 995 438 A 5 5 0 0 1 1005 438 L 1010 438" fill="none" stroke="#444444" stroke-width="1.3" marker-end="url(#arr)"/>
<text x="302" y="658.5" font-size="10.5" text-anchor="middle" fill="#333" font-style="italic" stroke="white" stroke-width="2.5" paint-order="stroke" stroke-linejoin="round">Enable/disable</text>
<text x="302" y="672" font-size="10.5" text-anchor="middle" fill="#333" font-style="italic" stroke="white" stroke-width="2.5" paint-order="stroke" stroke-linejoin="round">a display terminal</text>
<path d="M 651.5 340 L 682 340 L 682 279.5 L 1222 280 L 1232 280 L 1232 131 L 41 131 L 41 207 L 51 206.5 L 68 206.5" fill="none" stroke="#444444" stroke-width="1.3" marker-end="url(#arr)"/>
<text x="518.5" y="88.5" font-size="10.5" text-anchor="middle" fill="#333" font-style="italic" stroke="white" stroke-width="2.5" paint-order="stroke" stroke-linejoin="round">Report of</text>
<text x="518.5" y="102" font-size="10.5" text-anchor="middle" fill="#333" font-style="italic" stroke="white" stroke-width="2.5" paint-order="stroke" stroke-linejoin="round">anomalies and inconsistencies</text>
<rect x="491.5" y="110" width="54" height="15" rx="7.5" fill="#fdf3d8" stroke="#c9a227" stroke-width="1"/>
<text x="518.5" y="121" font-size="9.5" text-anchor="middle" fill="#7a6216" font-weight="bold">Anomaly</text>
<path d="M 161 206.5 L 178 207 L 396 207 L 396 420 L 430 419.5 L 484 419.5" fill="none" stroke="#444444" stroke-width="1.3" marker-end="url(#arr)"/>
<text x="327" y="222.5" font-size="10.5" text-anchor="middle" fill="#333" font-style="italic" stroke="white" stroke-width="2.5" paint-order="stroke" stroke-linejoin="round">Write and broadcast</text>
<text x="327" y="236" font-size="10.5" text-anchor="middle" fill="#333" font-style="italic" stroke="white" stroke-width="2.5" paint-order="stroke" stroke-linejoin="round">messages to central</text>
<text x="327" y="249.5" font-size="10.5" text-anchor="middle" fill="#333" font-style="italic" stroke="white" stroke-width="2.5" paint-order="stroke" stroke-linejoin="round">control</text>
<rect x="300" y="257.5" width="54" height="15" rx="7.5" fill="#fdf3d8" stroke="#c9a227" stroke-width="1"/>
<text x="327" y="268.5" font-size="9.5" text-anchor="middle" fill="#7a6216" font-weight="bold">Message</text>
<path d="M 224 399 L 326 399 L 326 491 L 430 490.5 L 484 490.5" fill="none" stroke="#444444" stroke-width="1.3" marker-end="url(#arr)"/>
<text x="292" y="414.5" font-size="10.5" text-anchor="middle" fill="#333" font-style="italic" stroke="white" stroke-width="2.5" paint-order="stroke" stroke-linejoin="round">Consult</text>
<path d="M 1168 384 L 1446 383.5 L 1481.5 383.5" fill="none" stroke="#444444" stroke-width="1.3" marker-end="url(#arr)"/>
<text x="1334" y="399.5" font-size="10.5" text-anchor="middle" fill="#333" font-style="italic" stroke="white" stroke-width="2.5" paint-order="stroke" stroke-linejoin="round">Real-time broadcast of</text>
<text x="1334" y="413" font-size="10.5" text-anchor="middle" fill="#333" font-style="italic" stroke="white" stroke-width="2.5" paint-order="stroke" stroke-linejoin="round">disruption information</text>
<text x="1334" y="426.5" font-size="10.5" text-anchor="middle" fill="#333" font-style="italic" stroke="white" stroke-width="2.5" paint-order="stroke" stroke-linejoin="round">to the relevant lines</text>
<path d="M 1168 517.5 L 1222 518 L 1412 518 L 1412 597 L 1446 596.5 L 1481.5 596.5" fill="none" stroke="#444444" stroke-width="1.3" marker-end="url(#arr)"/>
<text x="1334" y="533.5" font-size="10.5" text-anchor="middle" fill="#333" font-style="italic" stroke="white" stroke-width="2.5" paint-order="stroke" stroke-linejoin="round">Export of real-time</text>
<text x="1334" y="547" font-size="10.5" text-anchor="middle" fill="#333" font-style="italic" stroke="white" stroke-width="2.5" paint-order="stroke" stroke-linejoin="round">and configuration data</text>
<path d="M 1154.5 588.5 L 1195 588.5 L 1195 221 L 457 221 L 457 340 L 487.5 340" fill="none" stroke="#444444" stroke-width="1.3" marker-end="url(#arr)"/>
<text x="792.5" y="235.5" font-size="10.5" text-anchor="middle" fill="#333" font-style="italic" stroke="white" stroke-width="2.5" paint-order="stroke" stroke-linejoin="round">Broadcast of information</text>
<text x="792.5" y="249" font-size="10.5" text-anchor="middle" fill="#333" font-style="italic" stroke="white" stroke-width="2.5" paint-order="stroke" stroke-linejoin="round">and messages about upcoming flows</text>
<text x="792.5" y="262.5" font-size="10.5" text-anchor="middle" fill="#333" font-style="italic" stroke="white" stroke-width="2.5" paint-order="stroke" stroke-linejoin="round">entered by the central team</text>
<path d="M 651.5 357 L 1000 357 L 1000 575.75 L 1014.5 575.75" fill="none" stroke="#444444" stroke-width="1.3" marker-end="url(#arr)"/>
<text x="792.5" y="302" font-size="10.5" text-anchor="middle" fill="#333" font-style="italic" stroke="white" stroke-width="2.5" paint-order="stroke" stroke-linejoin="round">Forward the</text>
<text x="792.5" y="315.5" font-size="10.5" text-anchor="middle" fill="#333" font-style="italic" stroke="white" stroke-width="2.5" paint-order="stroke" stroke-linejoin="round">messages entered by staff</text>
<text x="792.5" y="329" font-size="10.5" text-anchor="middle" fill="#333" font-style="italic" stroke="white" stroke-width="2.5" paint-order="stroke" stroke-linejoin="round">present on site</text>
<rect x="765.5" y="337" width="54" height="15" rx="7.5" fill="#fdf3d8" stroke="#c9a227" stroke-width="1"/>
<text x="792.5" y="348" font-size="9.5" text-anchor="middle" fill="#7a6216" font-weight="bold">Message</text>
<path d="M 655 561.5 L 682 561.5 L 682 368 L 903 368 L 903 367 L 995 367 A 5 5 0 0 1 1005 367 L 1010 367" fill="none" stroke="#444444" stroke-width="1.3" marker-end="url(#arr)"/>
<text x="792.5" y="382.5" font-size="10.5" text-anchor="middle" fill="#333" font-style="italic" stroke="white" stroke-width="2.5" paint-order="stroke" stroke-linejoin="round">Archive of</text>
<text x="792.5" y="396" font-size="10.5" text-anchor="middle" fill="#333" font-style="italic" stroke="white" stroke-width="2.5" paint-order="stroke" stroke-linejoin="round">the messaging broadcast</text>
<text x="792.5" y="409.5" font-size="10.5" text-anchor="middle" fill="#333" font-style="italic" stroke="white" stroke-width="2.5" paint-order="stroke" stroke-linejoin="round">locally at the remote site</text>
<path d="M 1640 534 L 1667 534 L 1667 698 L 420 698 L 420 673 L 953 673 L 953 601.25 L 1014.5 601.25" fill="none" stroke="#444444" stroke-width="1.3" marker-end="url(#arr)"/>
<text x="1525.5" y="713.5" font-size="10.5" text-anchor="middle" fill="#333" font-style="italic" stroke="white" stroke-width="2.5" paint-order="stroke" stroke-linejoin="round">Forward external</text>
<text x="1525.5" y="727" font-size="10.5" text-anchor="middle" fill="#333" font-style="italic" stroke="white" stroke-width="2.5" paint-order="stroke" stroke-linejoin="round">collection data and events</text>
<path d="M 1621.5 383.5 L 1657 384 L 1697 384 L 1697 826 L 390 826 L 390 642 L 452 642 A 5 5 0 0 1 462 642 L 933 642 L 933 465 L 990 465 L 990 384 L 995 384 A 5 5 0 0 1 1005 384 L 1010 384" fill="none" stroke="#444444" stroke-width="1.3" marker-end="url(#arr)"/>
<text x="1558" y="841.5" font-size="10.5" text-anchor="middle" fill="#333" font-style="italic" stroke="white" stroke-width="2.5" paint-order="stroke" stroke-linejoin="round">Forward disruption messages</text>
<text x="1558" y="855" font-size="10.5" text-anchor="middle" fill="#333" font-style="italic" stroke="white" stroke-width="2.5" paint-order="stroke" stroke-linejoin="round">from the requested transport networks</text>
<path d="M 1640 454.5 L 1657 455 L 1692 455 A 5 5 0 0 1 1702 455 L 1707 455 L 1707 179 L 1247 179 A 5 5 0 0 0 1237 179 L 1237 179 A 5 5 0 0 0 1227 179 L 420 179 L 420 357 L 487.5 357" fill="none" stroke="#444444" stroke-width="1.3" marker-end="url(#arr)"/>
<text x="1552" y="194.5" font-size="10.5" text-anchor="middle" fill="#333" font-style="italic" stroke="white" stroke-width="2.5" paint-order="stroke" stroke-linejoin="round">Forward the list of upcoming</text>
<text x="1552" y="208" font-size="10.5" text-anchor="middle" fill="#333" font-style="italic" stroke="white" stroke-width="2.5" paint-order="stroke" stroke-linejoin="round">flows and the lead-vehicle identity</text>
<text x="1552" y="221.5" font-size="10.5" text-anchor="middle" fill="#333" font-style="italic" stroke="white" stroke-width="2.5" paint-order="stroke" stroke-linejoin="round">for periodic control</text>
<path d="M 1621.5 596.5 L 1657 597 L 1662 597 A 5 5 0 0 1 1672 597 L 1677 597 L 1677 745 L 410 745 L 410 663 L 457 663 L 457 561.5 L 484 561.5" fill="none" stroke="#444444" stroke-width="1.3" marker-end="url(#arr)"/>
<text x="1511" y="760.5" font-size="10.5" text-anchor="middle" fill="#333" font-style="italic" stroke="white" stroke-width="2.5" paint-order="stroke" stroke-linejoin="round">Traffic notifications</text>
<text x="1511" y="774" font-size="10.5" text-anchor="middle" fill="#333" font-style="italic" stroke="white" stroke-width="2.5" paint-order="stroke" stroke-linejoin="round">and user messaging</text>
<path d="M 1640 517 L 1687 517 L 1687 792 L 400 792 L 400 653 L 452 653 A 5 5 0 0 1 462 653 L 943 653 L 943 588.5 L 1014.5 588.5" fill="none" stroke="#444444" stroke-width="1.3" marker-end="url(#arr)"/>
<text x="1544.5" y="807.5" font-size="10.5" text-anchor="middle" fill="#333" font-style="italic" stroke="white" stroke-width="2.5" paint-order="stroke" stroke-linejoin="round">Forward the associated missions and services</text>
<line x1="20" y1="884" x2="1699" y2="884" stroke="#ddd" stroke-width="1"/>
<text x="20" y="906" font-size="11" font-weight="bold" fill="#555">BUSINESS OBJECTS</text>
<rect x="150" y="896" width="54" height="15" rx="7.5" fill="#fdf3d8" stroke="#c9a227"/>
<text x="177" y="907" font-size="9.5" text-anchor="middle" fill="#7a6216" font-weight="bold">Message</text>
<text x="214" y="907" font-size="10" fill="#666">— information message broadcast to sites and display channels</text>
<rect x="150" y="920" width="54" height="15" rx="7.5" fill="#fdf3d8" stroke="#c9a227"/>
<text x="177" y="931" font-size="9.5" text-anchor="middle" fill="#7a6216" font-weight="bold">Anomaly</text>
<text x="214" y="931" font-size="10" fill="#666">— incident or inconsistency reported on a site</text>
<line x1="20" y1="958" x2="1699" y2="958" stroke="#ddd" stroke-width="1"/>
<text x="20" y="980" font-size="11" font-weight="bold" fill="#555">LEGEND</text>
<rect x="150" y="970" width="26" height="14" rx="3" fill="#eef4fb" stroke="#7a9cc4" stroke-dasharray="5 3"/>
<text x="182" y="981" font-size="10" fill="#444">Actor group</text>
<rect x="272" y="970" width="26" height="14" rx="3" fill="#f6f2ea" stroke="#b09a6d"/>
<text x="304" y="981" font-size="10" fill="#444">System</text>
<rect x="368" y="970" width="26" height="14" rx="3" fill="#fdfbf6" stroke="#c4b258"/>
<text x="400" y="981" font-size="10" fill="#444">Layer</text>
<rect x="458" y="970" width="26" height="14" rx="3" fill="#ffffff" stroke="#666677"/>
<text x="490" y="981" font-size="10" fill="#444">Functional block</text>
<rect x="606" y="970" width="26" height="14" rx="3" fill="#f0eef5" stroke="#9187b3" stroke-dasharray="5 3"/>
<text x="638" y="981" font-size="10" fill="#444">External system</text>
<line x1="150" y1="1000" x2="176" y2="1000" stroke="#444444" stroke-width="1.3" marker-end="url(#arr)"/>
<text x="182" y="1004" font-size="10" fill="#444">Functional flow (label = exchanged data)</text>
<rect x="480" y="993" width="96" height="15" rx="7.5" fill="#fdf3d8" stroke="#c9a227"/>
<text x="528" y="1004" font-size="9.5" text-anchor="middle" fill="#7a6216" font-weight="bold">Business object</text>
<text x="584" y="1004" font-size="10" fill="#444">carried by the flow</text>
</svg>
