<svg xmlns="http://www.w3.org/2000/svg" viewBox="0 0 2240 843" font-family="Helvetica,Arial,sans-serif">
<defs><marker id="arr" viewBox="0 0 10 10" refX="9" refY="5" markerWidth="7" markerHeight="7" orient="auto-start-reverse">
<path d="M0,0 L10,5 L0,10 z" fill="#444444"/></marker></defs>
<rect width="2240" height="843" fill="white"/>
<rect x="25" y="60" width="147" height="170" rx="6" fill="#eef4fb" stroke="#7a9cc4" stroke-width="1.2" stroke-dasharray="5 3"/>
<text x="35" y="78" font-size="12" font-weight="bold" fill="#333">Policyholders</text>
<rect x="59" y="241" width="91" height="279" rx="6" fill="#eef4fb" stroke="#7a9cc4" stroke-width="1.2" stroke-dasharray="5 3"/>
<text x="69" y="259" font-size="12" font-weight="bold" fill="#333">Case handlers</text>
<rect x="330" y="32" width="1587" height="322" rx="6" fill="#f6f2ea" stroke="#b09a6d" stroke-width="1.2"/>
<text x="340" y="50" font-size="12" font-weight="bold" fill="#333">Claims information system</text>
<rect x="345" y="71" width="163" height="222" rx="6" fill="#fdfbf6" stroke="#c4b258" stroke-width="1"/>
<text x="355" y="89" font-size="12" font-weight="bold" fill="#333">Reporting layer</text>
<rect x="680" y="152" width="687" height="181" rx="6" fill="#fdfbf6" stroke="#c4b258" stroke-width="1"/>
<text x="690" y="170" font-size="12" font-weight="bold" fill="#333">Investigation layer</text>
<rect x="1506" y="204.5" width="396" height="112.5" rx="6" fill="#fdfbf6" stroke="#c4b258" stroke-width="1"/>
<text x="1516" y="222.5" font-size="12" font-weight="bold" fill="#333">Settlement layer</text>
<rect x="2083" y="74" width="132" height="222" rx="6" fill="#f0eef5" stroke="#9187b3" stroke-width="1.2" stroke-dasharray="5 3"/>
<text x="2093" y="92" font-size="12" font-weight="bold" fill="#333">External systems</text>
<circle cx="106" cy="98" r="7" fill="none" stroke="#445566" stroke-width="1.5"/>
<path d="M 95 120 q 11 -19 22 0" fill="none" stroke="#445566" stroke-width="1.5"/>
<text x="106" y="132" font-size="10" text-anchor="middle" fill="#223344">Policyholder</text>
<circle cx="98.5" cy="174" r="7" fill="none" stroke="#445566" stroke-width="1.5"/>
<path d="M 87.5 196 q 11 -19 22 0" fill="none" stroke="#445566" stroke-width="1.5"/>
<text x="98.5" y="208" font-size="10" text-anchor="middle" fill="#223344">Involved third party</text>
<circle cx="108" cy="279" r="7" fill="none" stroke="#445566" stroke-width="1.5"/>
<path d="M 97 301 q 11 -19 22 0" fill="none" stroke="#445566" stroke-width="1.5"/>
<text x="108" y="313" font-size="10" text-anchor="middle" fill="#223344">Claims</text>
<text x="108" y="324" font-size="10" text-anchor="middle" fill="#223344">handler</text>
<circle cx="107.5" cy="366" r="7" fill="none" stroke="#445566" stroke-width="1.5"/>
<path d="M 96.5 388 q 11 -19 22 0" fill="none" stroke="#445566" stroke-width="1.5"/>
<text x="107.5" y="400" font-size="10" text-anchor="middle" fill="#223344">Appointed</text>
<text x="107.5" y="411" font-size="10" text-anchor="middle" fill="#223344">expert</text>
<circle cx="104.5" cy="453" r="7" fill="none" stroke="#445566" stroke-width="1.5"/>
<path d="M 93.5 475 q 11 -19 22 0" fill="none" stroke="#445566" stroke-width="1.5"/>
<text x="104.5" y="487" font-size="10" text-anchor="middle" fill="#223344">Settlement</text>
<text x="104.5" y="498" font-size="10" text-anchor="middle" fill="#223344">supervisor</text>
<rect x="370.5" y="167" width="112" height="48" rx="4" fill="#ffffff" stroke="#666677" stroke-width="1.3"/>
<text x="426.5" y="188.25" font-size="11.5" text-anchor="middle" fill="#222233">Online</text>
<text x="426.5" y="201.75" font-size="11.5" text-anchor="middle" fill="#222233">reporting</text>
<rect x="370.5" y="235" width="112" height="48" rx="4" fill="#ffffff" stroke="#666677" stroke-width="1.3"/>
<text x="426.5" y="256.25" font-size="11.5" text-anchor="middle" fill="#222233">Phone</text>
<text x="426.5" y="269.75" font-size="11.5" text-anchor="middle" fill="#222233">reporting</text>
<rect x="355" y="99" width="143" height="48" rx="4" fill="#ffffff" stroke="#666677" stroke-width="1.3"/>
<text x="426.5" y="120.25" font-size="11.5" text-anchor="middle" fill="#222233">Supporting-document</text>
<text x="426.5" y="133.75" font-size="11.5" text-anchor="middle" fill="#222233">collection</text>
<rect x="992" y="248" width="112" height="48" rx="4" fill="#ffffff" stroke="#666677" stroke-width="1.3"/>
<text x="1048" y="269.25" font-size="11.5" text-anchor="middle" fill="#222233">Claim-file</text>
<text x="1048" y="282.75" font-size="11.5" text-anchor="middle" fill="#222233">management</text>
<rect x="690" y="256" width="112" height="48" rx="4" fill="#ffffff" stroke="#666677" stroke-width="1.3"/>
<text x="746" y="277.25" font-size="11.5" text-anchor="middle" fill="#222233">Assessment</text>
<text x="746" y="290.75" font-size="11.5" text-anchor="middle" fill="#222233">tracking</text>
<rect x="1245" y="195" width="112" height="48" rx="4" fill="#ffffff" stroke="#666677" stroke-width="1.3"/>
<text x="1301" y="216.25" font-size="11.5" text-anchor="middle" fill="#222233">Fraud</text>
<text x="1301" y="229.75" font-size="11.5" text-anchor="middle" fill="#222233">detection</text>
<rect x="1516" y="256" width="112" height="48" rx="4" fill="#ffffff" stroke="#666677" stroke-width="1.3"/>
<text x="1572" y="277.25" font-size="11.5" text-anchor="middle" fill="#222233">Compensation</text>
<text x="1572" y="290.75" font-size="11.5" text-anchor="middle" fill="#222233">calculation</text>
<rect x="1780" y="248" width="112" height="48" rx="4" fill="#ffffff" stroke="#666677" stroke-width="1.3"/>
<text x="1836" y="269.25" font-size="11.5" text-anchor="middle" fill="#222233">Payment</text>
<text x="1836" y="282.75" font-size="11.5" text-anchor="middle" fill="#222233">scheduling</text>
<rect x="2093" y="238" width="112" height="48" rx="4" fill="#ffffff" stroke="#666677" stroke-width="1.3"/>
<text x="2149" y="259.25" font-size="11.5" text-anchor="middle" fill="#222233">Banking system</text>
<text x="2149" y="272.75" font-size="11.5" text-anchor="middle" fill="#222233">(transfers)</text>
<rect x="2093" y="170" width="112" height="48" rx="4" fill="#ffffff" stroke="#666677" stroke-width="1.3"/>
<text x="2149" y="191.25" font-size="11.5" text-anchor="middle" fill="#222233">Inter-insurer</text>
<text x="2149" y="204.75" font-size="11.5" text-anchor="middle" fill="#222233">files</text>
<rect x="2093" y="102" width="112" height="48" rx="4" fill="#ffffff" stroke="#666677" stroke-width="1.3"/>
<text x="2149" y="123.25" font-size="11.5" text-anchor="middle" fill="#222233">Group</text>
<text x="2149" y="136.75" font-size="11.5" text-anchor="middle" fill="#222233">ECM</text>
<path d="M 147 125.33333333333333 L 177 125 L 187 125 L 187 191 L 370.5 191" fill="none" stroke="#444444" stroke-width="1.3" marker-end="url(#arr)"/>
<text x="241.5" y="205.5" font-size="10.5" text-anchor="middle" fill="#333" font-style="italic" stroke="white" stroke-width="2.5" paint-order="stroke" stroke-linejoin="round">Report a claim</text>
<rect x="220" y="213.5" width="43" height="15" rx="7.5" fill="#fdf3d8" stroke="#c9a227" stroke-width="1"/>
<text x="241.5" y="224.5" font-size="9.5" text-anchor="middle" fill="#7a6216" font-weight="bold">Claim</text>
<path d="M 162 192 L 187 192 L 187 259 L 370.5 259" fill="none" stroke="#444444" stroke-width="1.3" marker-end="url(#arr)"/>
<text x="253" y="273.5" font-size="10.5" text-anchor="middle" fill="#333" font-style="italic" stroke="white" stroke-width="2.5" paint-order="stroke" stroke-linejoin="round">Report involvement</text>
<path d="M 147 106.66666666666666 L 177 107 L 290 107 L 290 123 L 355 123" fill="none" stroke="#444444" stroke-width="1.3" marker-end="url(#arr)"/>
<text x="238.5" y="121.5" font-size="10.5" text-anchor="middle" fill="#333" font-style="italic" stroke="white" stroke-width="2.5" paint-order="stroke" stroke-linejoin="round">Upload photos</text>
<text x="238.5" y="135" font-size="10.5" text-anchor="middle" fill="#333" font-style="italic" stroke="white" stroke-width="2.5" paint-order="stroke" stroke-linejoin="round">and documents</text>
<path d="M 498 123 L 650 123 A 5 5 0 0 1 660 123 L 2068 123 L 2068 126 L 2093 126" fill="none" stroke="#444444" stroke-width="1.3" marker-end="url(#arr)"/>
<text x="2005" y="137.5" font-size="10.5" text-anchor="middle" fill="#333" font-style="italic" stroke="white" stroke-width="2.5" paint-order="stroke" stroke-linejoin="round">Archive documents</text>
<path d="M 482.5 191 L 982 191 L 982 256 L 992 256" fill="none" stroke="#444444" stroke-width="1.3" marker-end="url(#arr)"/>
<text x="589" y="163" font-size="10.5" text-anchor="middle" fill="#333" font-style="italic" stroke="white" stroke-width="2.5" paint-order="stroke" stroke-linejoin="round">Open the case file</text>
<rect x="557" y="171" width="64" height="15" rx="7.5" fill="#fdf3d8" stroke="#c9a227" stroke-width="1"/>
<text x="589" y="182" font-size="9.5" text-anchor="middle" fill="#7a6216" font-weight="bold">Case file</text>
<path d="M 482.5 259 L 523 259 L 523 202 L 972 202 L 972 264 L 992 264" fill="none" stroke="#444444" stroke-width="1.3" marker-end="url(#arr)"/>
<text x="589" y="216.5" font-size="10.5" text-anchor="middle" fill="#333" font-style="italic" stroke="white" stroke-width="2.5" paint-order="stroke" stroke-linejoin="round">Open the case file</text>
<text x="589" y="230" font-size="10.5" text-anchor="middle" fill="#333" font-style="italic" stroke="white" stroke-width="2.5" paint-order="stroke" stroke-linejoin="round">(phone channel)</text>
<path d="M 1104 260 L 1114 260 L 1114 227 L 1245 227" fill="none" stroke="#444444" stroke-width="1.3" marker-end="url(#arr)"/>
<text x="1174.5" y="241.5" font-size="10.5" text-anchor="middle" fill="#333" font-style="italic" stroke="white" stroke-width="2.5" paint-order="stroke" stroke-linejoin="round">Systematic check</text>
<text x="1174.5" y="255" font-size="10.5" text-anchor="middle" fill="#333" font-style="italic" stroke="white" stroke-width="2.5" paint-order="stroke" stroke-linejoin="round">at opening</text>
<path d="M 1357 219 L 1382 219 L 1382 193.5 L 1922 194 L 2093 194" fill="none" stroke="#444444" stroke-width="1.3" marker-end="url(#arr)"/>
<text x="2000" y="208.5" font-size="10.5" text-anchor="middle" fill="#333" font-style="italic" stroke="white" stroke-width="2.5" paint-order="stroke" stroke-linejoin="round">Query claims-history</text>
<text x="2000" y="222" font-size="10.5" text-anchor="middle" fill="#333" font-style="italic" stroke="white" stroke-width="2.5" paint-order="stroke" stroke-linejoin="round">files</text>
<path d="M 2205 194 L 2230 194 L 2230 22 L 315 22 L 315 60 L 655 60 L 655 180 L 1235 180 L 1235 211 L 1245 211" fill="none" stroke="#444444" stroke-width="1.3" marker-end="url(#arr)"/>
<text x="2116.5" y="36.5" font-size="10.5" text-anchor="middle" fill="#333" font-style="italic" stroke="white" stroke-width="2.5" paint-order="stroke" stroke-linejoin="round">Policyholder</text>
<text x="2116.5" y="50" font-size="10.5" text-anchor="middle" fill="#333" font-style="italic" stroke="white" stroke-width="2.5" paint-order="stroke" stroke-linejoin="round">history</text>
<path d="M 992 288 L 802 288" fill="none" stroke="#444444" stroke-width="1.3" marker-end="url(#arr)"/>
<text x="887" y="302.5" font-size="10.5" text-anchor="middle" fill="#333" font-style="italic" stroke="white" stroke-width="2.5" paint-order="stroke" stroke-linejoin="round">Assessment mission</text>
<text x="887" y="316" font-size="10.5" text-anchor="middle" fill="#333" font-style="italic" stroke="white" stroke-width="2.5" paint-order="stroke" stroke-linejoin="round">if damage &gt; threshold</text>
<path d="M 140 389.5 L 155 390 L 305 390 L 305 314 L 665 314 L 665 280 L 690 280" fill="none" stroke="#444444" stroke-width="1.3" marker-end="url(#arr)"/>
<text x="226.5" y="404.5" font-size="10.5" text-anchor="middle" fill="#333" font-style="italic" stroke="white" stroke-width="2.5" paint-order="stroke" stroke-linejoin="round">Submit assessment</text>
<text x="226.5" y="418" font-size="10.5" text-anchor="middle" fill="#333" font-style="italic" stroke="white" stroke-width="2.5" paint-order="stroke" stroke-linejoin="round">report</text>
<rect x="173" y="426" width="107" height="15" rx="7.5" fill="#fdf3d8" stroke="#c9a227" stroke-width="1"/>
<text x="226.5" y="437" font-size="9.5" text-anchor="middle" fill="#7a6216" font-weight="bold">Assessment report</text>
<path d="M 802 272 L 812 272 L 812 277 L 962 277 L 962 280 L 992 280" fill="none" stroke="#444444" stroke-width="1.3" marker-end="url(#arr)"/>
<text x="887" y="235.5" font-size="10.5" text-anchor="middle" fill="#333" font-style="italic" stroke="white" stroke-width="2.5" paint-order="stroke" stroke-linejoin="round">Assessment</text>
<text x="887" y="249" font-size="10.5" text-anchor="middle" fill="#333" font-style="italic" stroke="white" stroke-width="2.5" paint-order="stroke" stroke-linejoin="round">conclusions</text>
<rect x="833.5" y="257" width="107" height="15" rx="7.5" fill="#fdf3d8" stroke="#c9a227" stroke-width="1"/>
<text x="887" y="268" font-size="9.5" text-anchor="middle" fill="#7a6216" font-weight="bold">Assessment report</text>
<path d="M 140 302.5 L 155 303 L 655 303 L 655 213 L 962 213 L 962 272 L 992 272" fill="none" stroke="#444444" stroke-width="1.3" marker-end="url(#arr)"/>
<text x="233" y="317.5" font-size="10.5" text-anchor="middle" fill="#333" font-style="italic" stroke="white" stroke-width="2.5" paint-order="stroke" stroke-linejoin="round">Investigation and</text>
<text x="233" y="331" font-size="10.5" text-anchor="middle" fill="#333" font-style="italic" stroke="white" stroke-width="2.5" paint-order="stroke" stroke-linejoin="round">management decisions</text>
<path d="M 1104 272 L 1516 272" fill="none" stroke="#444444" stroke-width="1.3" marker-end="url(#arr)"/>
<text x="1436.5" y="286.5" font-size="10.5" text-anchor="middle" fill="#333" font-style="italic" stroke="white" stroke-width="2.5" paint-order="stroke" stroke-linejoin="round">Approved items</text>
<text x="1436.5" y="300" font-size="10.5" text-anchor="middle" fill="#333" font-style="italic" stroke="white" stroke-width="2.5" paint-order="stroke" stroke-linejoin="round">for pricing</text>
<path d="M 1628 288 L 1638 288 L 1638 306 L 1942 306 L 1942 530 L 1937 530 A 5 5 0 0 0 1927 530 L 44 530 L 44 477 L 54 476.5 L 69 476.5" fill="none" stroke="#444444" stroke-width="1.3" marker-end="url(#arr)"/>
<text x="378" y="544.5" font-size="10.5" text-anchor="middle" fill="#333" font-style="italic" stroke="white" stroke-width="2.5" paint-order="stroke" stroke-linejoin="round">Approval request</text>
<text x="378" y="558" font-size="10.5" text-anchor="middle" fill="#333" font-style="italic" stroke="white" stroke-width="2.5" paint-order="stroke" stroke-linejoin="round">beyond delegation</text>
<path d="M 140 476.5 L 155 477 L 315 477 L 315 343 L 1491 343 L 1491 288 L 1516 288" fill="none" stroke="#444444" stroke-width="1.3" marker-end="url(#arr)"/>
<text x="221.5" y="491.5" font-size="10.5" text-anchor="middle" fill="#333" font-style="italic" stroke="white" stroke-width="2.5" paint-order="stroke" stroke-linejoin="round">Approval or</text>
<text x="221.5" y="505" font-size="10.5" text-anchor="middle" fill="#333" font-style="italic" stroke="white" stroke-width="2.5" paint-order="stroke" stroke-linejoin="round">reasoned refusal</text>
<path d="M 1628 272 L 1780 272" fill="none" stroke="#444444" stroke-width="1.3" marker-end="url(#arr)"/>
<text x="1704" y="244" font-size="10.5" text-anchor="middle" fill="#333" font-style="italic" stroke="white" stroke-width="2.5" paint-order="stroke" stroke-linejoin="round">Compensation order</text>
<rect x="1664" y="252" width="80" height="15" rx="7.5" fill="#fdf3d8" stroke="#c9a227" stroke-width="1"/>
<text x="1704" y="263" font-size="9.5" text-anchor="middle" fill="#7a6216" font-weight="bold">Compensation</text>
<path d="M 1892 272 L 1932 272 L 1932 262 L 2093 262" fill="none" stroke="#444444" stroke-width="1.3" marker-end="url(#arr)"/>
<text x="1994" y="276.5" font-size="10.5" text-anchor="middle" fill="#333" font-style="italic" stroke="white" stroke-width="2.5" paint-order="stroke" stroke-linejoin="round">SEPA transfer</text>
<rect x="1954" y="284.5" width="80" height="15" rx="7.5" fill="#fdf3d8" stroke="#c9a227" stroke-width="1"/>
<text x="1994" y="295.5" font-size="9.5" text-anchor="middle" fill="#7a6216" font-weight="bold">Compensation</text>
<path d="M 1104 284 L 1382 284 L 1382 327 L 1486 327 A 5 5 0 0 1 1496 327 L 1932 327 L 1932 574 L 10 574 L 10 116 L 65 116" fill="none" stroke="#444444" stroke-width="1.3" marker-end="url(#arr)"/>
<text x="363.5" y="588.5" font-size="10.5" text-anchor="middle" fill="#333" font-style="italic" stroke="white" stroke-width="2.5" paint-order="stroke" stroke-linejoin="round">Notify steps</text>
<text x="363.5" y="602" font-size="10.5" text-anchor="middle" fill="#333" font-style="italic" stroke="white" stroke-width="2.5" paint-order="stroke" stroke-linejoin="round">and decision</text>
<line x1="20" y1="629" x2="2220" y2="629" stroke="#ddd" stroke-width="1"/>
<text x="20" y="651" font-size="11" font-weight="bold" fill="#555">BUSINESS OBJECTS</text>
<rect x="150" y="641" width="43" height="15" rx="7.5" fill="#fdf3d8" stroke="#c9a227"/>
<text x="171.5" y="652" font-size="9.5" text-anchor="middle" fill="#7a6216" font-weight="bold">Claim</text>
<text x="203" y="652" font-size="10" fill="#666">— damaging event reported by a policyholder</text>
<rect x="150" y="665" width="64" height="15" rx="7.5" fill="#fdf3d8" stroke="#c9a227"/>
<text x="182" y="676" font-size="9.5" text-anchor="middle" fill="#7a6216" font-weight="bold">Case file</text>
<text x="224" y="676" font-size="10" fill="#666">— file opened to investigate a claim</text>
<rect x="150" y="689" width="107" height="15" rx="7.5" fill="#fdf3d8" stroke="#c9a227"/>
<text x="203.5" y="700" font-size="9.5" text-anchor="middle" fill="#7a6216" font-weight="bold">Assessment report</text>
<text x="267" y="700" font-size="10" fill="#666">— quantified conclusions of the appointed expert</text>
<rect x="150" y="713" width="80" height="15" rx="7.5" fill="#fdf3d8" stroke="#c9a227"/>
<text x="190" y="724" font-size="9.5" text-anchor="middle" fill="#7a6216" font-weight="bold">Compensation</text>
<text x="240" y="724" font-size="10" fill="#666">— amount approved and paid to the policyholder</text>
<line x1="20" y1="751" x2="2220" y2="751" stroke="#ddd" stroke-width="1"/>
<text x="20" y="773" font-size="11" font-weight="bold" fill="#555">LEGEND</text>
<rect x="150" y="763" width="26" height="14" rx="3" fill="#eef4fb" stroke="#7a9cc4" stroke-dasharray="5 3"/>
<text x="182" y="774" font-size="10" fill="#444">Actor group</text>
<rect x="272" y="763" width="26" height="14" rx="3" fill="#f6f2ea" stroke="#b09a6d"/>
<text x="304" y="774" font-size="10" fill="#444">System</text>
<rect x="368" y="763" width="26" height="14" rx="3" fill="#fdfbf6" stroke="#c4b258"/>
<text x="400" y="774" font-size="10" fill="#444">Layer</text>
<rect x="458" y="763" width="26" height="14" rx="3" fill="#ffffff" stroke="#666677"/>
<text x="490" y="774" font-size="10" fill="#444">Functional block</text>
<rect x="606" y="763" width="26" height="14" rx="3" fill="#f0eef5" stroke="#9187b3" stroke-dasharray="5 3"/>
<text x="638" y="774" font-size="10" fill="#444">External system</text>
<line x1="150" y1="793" x2="176" y2="793" stroke="#444444" stroke-width="1.3" marker-end="url(#arr)"/>
<text x="182" y="797" font-size="10" fill="#444">Functional flow (label = exchanged data)</text>
<rect x="480" y="786" width="96" height="15" rx="7.5" fill="#fdf3d8" stroke="#c9a227"/>
<text x="528" y="797" font-size="9.5" text-anchor="middle" fill="#7a6216" font-weight="bold">Business object</text>
<text x="584" y="797" font-size="10" fill="#444">carried by the flow</text>
<text x="150" y="821" font-size="10" fill="#444" font-style="italic">Claim files are retained for 10 years (legal obligation)</text>
</svg>
