<svg xmlns="http://www.w3.org/2000/svg" viewBox="0 0 1148 403" font-family="Helvetica,Arial,sans-serif">
<defs><marker id="arr" viewBox="0 0 10 10" refX="9" refY="5" markerWidth="7" markerHeight="7" orient="auto-start-reverse">
<path d="M0,0 L10,5 L0,10 z" fill="#444444"/></marker></defs>
<rect width="1148" height="403" fill="white"/>
<rect x="219" y="82" width="128" height="150" rx="6" fill="#fdecea" stroke="#d9534f" stroke-width="1.4"/>
<text x="229" y="100" font-size="13" font-weight="bold" fill="#333">DMZ</text>
<text x="338" y="226" font-size="9.5" text-anchor="end" font-weight="bold" fill="#d9534f" letter-spacing="0.5">PUBLIC</text>
<rect x="511" y="141" width="135" height="150" rx="6" fill="#fff4e5" stroke="#e0a458" stroke-width="1.4"/>
<text x="521" y="159" font-size="13" font-weight="bold" fill="#333">Zone applicative</text>
<text x="637" y="285" font-size="9.5" text-anchor="end" font-weight="bold" fill="#e0a458" letter-spacing="0.5">INTERNE</text>
<rect x="782" y="156" width="356" height="108.5" rx="6" fill="#e8f1f8" stroke="#5b8db8" stroke-width="1.4"/>
<text x="792" y="174" font-size="13" font-weight="bold" fill="#333">Zone de données</text>
<text x="1129" y="258.5" font-size="9.5" text-anchor="end" font-weight="bold" fill="#5b8db8" letter-spacing="0.5">RESTREINT</text>
<rect x="228" y="176" width="110" height="47" rx="4" fill="#fff7e6" stroke="#c46b2a" stroke-width="1.6"/>
<text x="283" y="196.25" font-size="12.5" text-anchor="middle" fill="#222233">WAF /</text>
<text x="283" y="210.75" font-size="12.5" text-anchor="middle" fill="#222233">proxy inverse</text>
<rect x="229" y="109" width="108" height="47" rx="4" fill="#fff7e6" stroke="#c46b2a" stroke-width="1.6"/>
<text x="283" y="129.25" font-size="12.5" text-anchor="middle" fill="#222233">Passerelle</text>
<text x="283" y="143.75" font-size="12.5" text-anchor="middle" fill="#222233">SFTP</text>
<rect x="520" y="168" width="117" height="47" rx="4" fill="#ffffff" stroke="#55606b" stroke-width="1.3"/>
<text x="578.5" y="188.25" font-size="12.5" text-anchor="middle" fill="#222233">Application</text>
<text x="578.5" y="202.75" font-size="12.5" text-anchor="middle" fill="#222233">de facturation</text>
<rect x="524.5" y="235" width="108" height="47" rx="4" fill="#ffffff" stroke="#55606b" stroke-width="1.3"/>
<text x="578.5" y="255.25" font-size="12.5" text-anchor="middle" fill="#222233">Application</text>
<text x="578.5" y="269.75" font-size="12.5" text-anchor="middle" fill="#222233">CRM</text>
<rect x="791" y="183" width="110" height="47" rx="4" fill="#fff7e6" stroke="#c46b2a" stroke-width="1.6"/>
<text x="846" y="203.25" font-size="12.5" text-anchor="middle" fill="#222233">Pare-feu base</text>
<text x="846" y="217.75" font-size="12.5" text-anchor="middle" fill="#222233">de données</text>
<rect x="1012" y="183" width="117" height="47" rx="4" fill="#ffffff" stroke="#55606b" stroke-width="1.3"/>
<text x="1070.5" y="203.25" font-size="12.5" text-anchor="middle" fill="#222233">Base clients &amp;</text>
<text x="1070.5" y="217.75" font-size="12.5" text-anchor="middle" fill="#222233">facturation</text>
<rect x="10" y="176" width="108" height="47" rx="4" fill="#fdecea" stroke="#d9534f" stroke-width="1.3" stroke-dasharray="5 3"/>
<text x="64" y="196.25" font-size="12.5" text-anchor="middle" fill="#222233">Utilisateurs</text>
<text x="64" y="210.75" font-size="12.5" text-anchor="middle" fill="#222233">finaux</text>
<rect x="671" y="57" width="117" height="47" rx="4" fill="#fdecea" stroke="#d9534f" stroke-width="1.3" stroke-dasharray="5 3"/>
<text x="729.5" y="77.25" font-size="12.5" text-anchor="middle" fill="#222233">Plateforme EDI</text>
<text x="729.5" y="91.75" font-size="12.5" text-anchor="middle" fill="#222233">partenaire</text>
<path d="M 118 200 L 214 199.5 L 228 199.5" fill="none" stroke="#444444" stroke-width="1.3" marker-end="url(#arr)"/>
<text x="166" y="215.5" font-size="11.5" text-anchor="middle" fill="#333" font-style="italic" stroke="white" stroke-width="2.5" paint-order="stroke" stroke-linejoin="round">Accès web</text>
<text x="166" y="230" font-size="9" text-anchor="middle" fill="#777" stroke="white" stroke-width="2.5" paint-order="stroke" stroke-linejoin="round">(TLS1.3)</text>
<path d="M 338 191.66666666666669 L 352 192 L 506 191.5 L 520 191.5" fill="none" stroke="#444444" stroke-width="1.3" marker-end="url(#arr)"/>
<text x="429" y="156.5" font-size="11.5" text-anchor="middle" fill="#333" font-style="italic" stroke="white" stroke-width="2.5" paint-order="stroke" stroke-linejoin="round">Trafic facturation</text>
<text x="429" y="171" font-size="11.5" text-anchor="middle" fill="#333" font-style="italic" stroke="white" stroke-width="2.5" paint-order="stroke" stroke-linejoin="round">filtré</text>
<text x="429" y="185.5" font-size="9" text-anchor="middle" fill="#777" stroke="white" stroke-width="2.5" paint-order="stroke" stroke-linejoin="round">(mTLS)</text>
<path d="M 338 207.33333333333334 L 352 207 L 496 207 L 496 259 L 506 258.5 L 524.5 258.5" fill="none" stroke="#444444" stroke-width="1.3" marker-end="url(#arr)"/>
<text x="450.5" y="222.5" font-size="11.5" text-anchor="middle" fill="#333" font-style="italic" stroke="white" stroke-width="2.5" paint-order="stroke" stroke-linejoin="round">Trafic CRM</text>
<text x="450.5" y="237" font-size="11.5" text-anchor="middle" fill="#333" font-style="italic" stroke="white" stroke-width="2.5" paint-order="stroke" stroke-linejoin="round">filtré</text>
<text x="450.5" y="251.5" font-size="9" text-anchor="middle" fill="#777" stroke="white" stroke-width="2.5" paint-order="stroke" stroke-linejoin="round">(mTLS)</text>
<path d="M 637 199.33333333333334 L 651 199 L 777 198.66666666666666 L 791 198.66666666666666" fill="none" stroke="#444444" stroke-width="1.3" marker-end="url(#arr)"/>
<text x="716" y="163.5" font-size="11.5" text-anchor="middle" fill="#333" font-style="italic" stroke="white" stroke-width="2.5" paint-order="stroke" stroke-linejoin="round">Accès données</text>
<text x="716" y="178" font-size="11.5" text-anchor="middle" fill="#333" font-style="italic" stroke="white" stroke-width="2.5" paint-order="stroke" stroke-linejoin="round">facturation</text>
<text x="716" y="192.5" font-size="9" text-anchor="middle" fill="#777" stroke="white" stroke-width="2.5" paint-order="stroke" stroke-linejoin="round">(TLS1.3)</text>
<path d="M 632.5 258.5 L 651 259 L 661 259 L 661 214 L 777 214.33333333333334 L 791 214.33333333333334" fill="none" stroke="#444444" stroke-width="1.3" marker-end="url(#arr)"/>
<text x="716" y="229.5" font-size="11.5" text-anchor="middle" fill="#333" font-style="italic" stroke="white" stroke-width="2.5" paint-order="stroke" stroke-linejoin="round">Accès données</text>
<text x="716" y="244" font-size="11.5" text-anchor="middle" fill="#333" font-style="italic" stroke="white" stroke-width="2.5" paint-order="stroke" stroke-linejoin="round">clients</text>
<text x="716" y="258.5" font-size="9" text-anchor="middle" fill="#777" stroke="white" stroke-width="2.5" paint-order="stroke" stroke-linejoin="round">(TLS1.3)</text>
<path d="M 901 206.5 L 1012 206.5" fill="none" stroke="#444444" stroke-width="1.3" marker-end="url(#arr)"/>
<text x="956.5" y="222" font-size="11.5" text-anchor="middle" fill="#333" font-style="italic" stroke="white" stroke-width="2.5" paint-order="stroke" stroke-linejoin="round">Requêtes</text>
<text x="956.5" y="236.5" font-size="11.5" text-anchor="middle" fill="#333" font-style="italic" stroke="white" stroke-width="2.5" paint-order="stroke" stroke-linejoin="round">contrôlées</text>
<text x="956.5" y="251" font-size="9" text-anchor="middle" fill="#777" stroke="white" stroke-width="2.5" paint-order="stroke" stroke-linejoin="round">(TLS1.3)</text>
<path d="M 637 183.66666666666666 L 651 184 L 661 184 L 661 22 L 204 22 L 204 133 L 214 132.5 L 229 132.5" fill="none" stroke="#444444" stroke-width="1.3" marker-end="url(#arr)"/>
<text x="538" y="37.5" font-size="11.5" text-anchor="middle" fill="#333" font-style="italic" stroke="white" stroke-width="2.5" paint-order="stroke" stroke-linejoin="round">Dépôt des</text>
<text x="538" y="52" font-size="11.5" text-anchor="middle" fill="#333" font-style="italic" stroke="white" stroke-width="2.5" paint-order="stroke" stroke-linejoin="round">factures</text>
<text x="538" y="66.5" font-size="9" text-anchor="middle" fill="#777" stroke="white" stroke-width="2.5" paint-order="stroke" stroke-linejoin="round">(TLS1.3)</text>
<path d="M 337 132.5 L 352 133 L 362 133 L 362 81 L 656 81 A 5 5 0 0 1 666 81 L 671 81" fill="none" stroke="#444444" stroke-width="1.3" marker-end="url(#arr)"/>
<text x="407.5" y="96.5" font-size="11.5" text-anchor="middle" fill="#333" font-style="italic" stroke="white" stroke-width="2.5" paint-order="stroke" stroke-linejoin="round">Transfert</text>
<text x="407.5" y="111" font-size="11.5" text-anchor="middle" fill="#333" font-style="italic" stroke="white" stroke-width="2.5" paint-order="stroke" stroke-linejoin="round">partenaire</text>
<text x="407.5" y="125.5" font-size="9" text-anchor="middle" fill="#777" stroke="white" stroke-width="2.5" paint-order="stroke" stroke-linejoin="round">(AS4)</text>
<line x1="20" y1="311" x2="1128" y2="311" stroke="#ddd" stroke-width="1"/>
<text x="20" y="333" font-size="11" font-weight="bold" fill="#555">LÉGENDE</text>
<rect x="150" y="323" width="26" height="14" rx="3" fill="#f5f5f4" stroke="#8a8a85"/>
<text x="182" y="334" font-size="10" fill="#444">Zone de confiance (sensibilité)</text>
<rect x="376" y="323" width="26" height="14" rx="3" fill="#fff7e6" stroke="#c46b2a"/>
<text x="408" y="334" font-size="10" fill="#444">Nœud de filtrage / sécurité</text>
<rect x="581" y="323" width="26" height="14" rx="3" fill="#ffffff" stroke="#55606b"/>
<text x="613" y="334" font-size="10" fill="#444">Actif sensible</text>
<rect x="718" y="323" width="26" height="14" rx="3" fill="#fdecea" stroke="#d9534f" stroke-dasharray="5 3"/>
<text x="750" y="334" font-size="10" fill="#444">Externe non maîtrisé</text>
<line x1="150" y1="353" x2="176" y2="353" stroke="#444444" stroke-width="1.3" marker-end="url(#arr)"/>
<text x="182" y="357" font-size="10" fill="#444">Flux de sécurité — les flux inter-zones doivent être filtrés et chiffrés</text>
<text x="150" y="381" font-size="10" fill="#444" font-style="italic">W0560 signale tout flux entrant dans une zone plus sûre sans passer par un nœud de sécurité</text>
</svg>
