<svg xmlns="http://www.w3.org/2000/svg" viewBox="0 0 1351 432" font-family="Helvetica,Arial,sans-serif">
<defs><marker id="arr" viewBox="0 0 10 10" refX="9" refY="5" markerWidth="7" markerHeight="7" orient="auto-start-reverse">
<path d="M0,0 L10,5 L0,10 z" fill="#444444"/></marker></defs>
<rect width="1351" height="432" fill="white"/>
<rect x="27" y="42" width="164" height="164" rx="6" fill="#fdecea" stroke="#d9534f" stroke-width="1.4"/>
<text x="37" y="60" font-size="12" font-weight="bold" fill="#333">DMZ</text>
<text x="182" y="200" font-size="9.5" text-anchor="end" font-weight="bold" fill="#d9534f" letter-spacing="0.5">PUBLIC</text>
<rect x="401" y="103" width="164" height="164" rx="6" fill="#fff4e5" stroke="#e0a458" stroke-width="1.4"/>
<text x="411" y="121" font-size="12" font-weight="bold" fill="#333">Zone applicative</text>
<text x="556" y="261" font-size="9.5" text-anchor="end" font-weight="bold" fill="#e0a458" letter-spacing="0.5">INTERNE</text>
<rect x="746" y="156" width="409" height="114.5" rx="6" fill="#e8f1f8" stroke="#5b8db8" stroke-width="1.4"/>
<text x="756" y="174" font-size="12" font-weight="bold" fill="#333">Zone de données</text>
<text x="1146" y="264.5" font-size="9.5" text-anchor="end" font-weight="bold" fill="#5b8db8" letter-spacing="0.5">RESTREINT</text>
<rect x="39" y="143" width="140" height="51" rx="4" fill="#fff7e6" stroke="#c46b2a" stroke-width="1.6"/>
<text x="109" y="165.75" font-size="11.5" text-anchor="middle" fill="#222233">WAF /</text>
<text x="109" y="179.25" font-size="11.5" text-anchor="middle" fill="#222233">proxy inverse</text>
<rect x="39" y="72" width="140" height="51" rx="4" fill="#fff7e6" stroke="#c46b2a" stroke-width="1.6"/>
<text x="109" y="94.75" font-size="11.5" text-anchor="middle" fill="#222233">Passerelle</text>
<text x="109" y="108.25" font-size="11.5" text-anchor="middle" fill="#222233">SFTP</text>
<rect x="413" y="133" width="140" height="51" rx="4" fill="#ffffff" stroke="#55606b" stroke-width="1.3"/>
<text x="483" y="155.75" font-size="11.5" text-anchor="middle" fill="#222233">Application</text>
<text x="483" y="169.25" font-size="11.5" text-anchor="middle" fill="#222233">de facturation</text>
<rect x="413" y="204" width="140" height="51" rx="4" fill="#ffffff" stroke="#55606b" stroke-width="1.3"/>
<text x="483" y="226.75" font-size="11.5" text-anchor="middle" fill="#222233">Application</text>
<text x="483" y="240.25" font-size="11.5" text-anchor="middle" fill="#222233">CRM</text>
<rect x="758" y="186" width="140" height="51" rx="4" fill="#fff7e6" stroke="#c46b2a" stroke-width="1.6"/>
<text x="828" y="208.75" font-size="11.5" text-anchor="middle" fill="#222233">Pare-feu base</text>
<text x="828" y="222.25" font-size="11.5" text-anchor="middle" fill="#222233">de données</text>
<rect x="1003" y="186" width="140" height="51" rx="4" fill="#ffffff" stroke="#55606b" stroke-width="1.3"/>
<text x="1073" y="208.75" font-size="11.5" text-anchor="middle" fill="#222233">Base clients &amp;</text>
<text x="1073" y="222.25" font-size="11.5" text-anchor="middle" fill="#222233">facturation</text>
<rect x="1199" y="257" width="140" height="51" rx="4" fill="#fdecea" stroke="#d9534f" stroke-width="1.3" stroke-dasharray="5 3"/>
<text x="1269" y="279.75" font-size="11.5" text-anchor="middle" fill="#222233">Utilisateurs</text>
<text x="1269" y="293.25" font-size="11.5" text-anchor="middle" fill="#222233">finaux</text>
<rect x="723" y="64" width="140" height="51" rx="4" fill="#fdecea" stroke="#d9534f" stroke-width="1.3" stroke-dasharray="5 3"/>
<text x="793" y="86.75" font-size="11.5" text-anchor="middle" fill="#222233">Plateforme EDI</text>
<text x="793" y="100.25" font-size="11.5" text-anchor="middle" fill="#222233">partenaire</text>
<path d="M 1199 283 L 12 283 L 12 169 L 22 168.5 L 39 168.5" fill="none" stroke="#444444" stroke-width="1.3" marker-end="url(#arr)"/>
<text x="51.5" y="298.5" font-size="10.5" text-anchor="middle" fill="#333" font-style="italic" stroke="white" stroke-width="2.5" paint-order="stroke" stroke-linejoin="round">Accès web</text>
<text x="51.5" y="312" font-size="9" text-anchor="middle" fill="#777" stroke="white" stroke-width="2.5" paint-order="stroke" stroke-linejoin="round">(TLS1.3)</text>
<path d="M 179 160 L 206 160 L 206 159 L 396 158.5 L 413 158.5" fill="none" stroke="#444444" stroke-width="1.3" marker-end="url(#arr)"/>
<text x="296" y="123.5" font-size="10.5" text-anchor="middle" fill="#333" font-style="italic" stroke="white" stroke-width="2.5" paint-order="stroke" stroke-linejoin="round">Trafic facturation</text>
<text x="296" y="137" font-size="10.5" text-anchor="middle" fill="#333" font-style="italic" stroke="white" stroke-width="2.5" paint-order="stroke" stroke-linejoin="round">filtré</text>
<text x="296" y="150.5" font-size="9" text-anchor="middle" fill="#777" stroke="white" stroke-width="2.5" paint-order="stroke" stroke-linejoin="round">(mTLS)</text>
<path d="M 179 177 L 386 177 L 386 230 L 396 229.5 L 413 229.5" fill="none" stroke="#444444" stroke-width="1.3" marker-end="url(#arr)"/>
<text x="319.5" y="192.5" font-size="10.5" text-anchor="middle" fill="#333" font-style="italic" stroke="white" stroke-width="2.5" paint-order="stroke" stroke-linejoin="round">Trafic CRM</text>
<text x="319.5" y="206" font-size="10.5" text-anchor="middle" fill="#333" font-style="italic" stroke="white" stroke-width="2.5" paint-order="stroke" stroke-linejoin="round">filtré</text>
<text x="319.5" y="219.5" font-size="9" text-anchor="middle" fill="#777" stroke="white" stroke-width="2.5" paint-order="stroke" stroke-linejoin="round">(mTLS)</text>
<path d="M 553 167 L 580 167 L 580 203 L 758 203" fill="none" stroke="#444444" stroke-width="1.3" marker-end="url(#arr)"/>
<text x="655.5" y="167.5" font-size="10.5" text-anchor="middle" fill="#333" font-style="italic" stroke="white" stroke-width="2.5" paint-order="stroke" stroke-linejoin="round">Accès données</text>
<text x="655.5" y="181" font-size="10.5" text-anchor="middle" fill="#333" font-style="italic" stroke="white" stroke-width="2.5" paint-order="stroke" stroke-linejoin="round">facturation</text>
<text x="655.5" y="194.5" font-size="9" text-anchor="middle" fill="#777" stroke="white" stroke-width="2.5" paint-order="stroke" stroke-linejoin="round">(TLS1.3)</text>
<path d="M 553 229.5 L 570 230 L 580 230 L 580 220 L 758 220" fill="none" stroke="#444444" stroke-width="1.3" marker-end="url(#arr)"/>
<text x="655.5" y="235.5" font-size="10.5" text-anchor="middle" fill="#333" font-style="italic" stroke="white" stroke-width="2.5" paint-order="stroke" stroke-linejoin="round">Accès données</text>
<text x="655.5" y="249" font-size="10.5" text-anchor="middle" fill="#333" font-style="italic" stroke="white" stroke-width="2.5" paint-order="stroke" stroke-linejoin="round">clients</text>
<text x="655.5" y="262.5" font-size="9" text-anchor="middle" fill="#777" stroke="white" stroke-width="2.5" paint-order="stroke" stroke-linejoin="round">(TLS1.3)</text>
<path d="M 898 211.5 L 1003 211.5" fill="none" stroke="#444444" stroke-width="1.3" marker-end="url(#arr)"/>
<text x="950.5" y="226" font-size="10.5" text-anchor="middle" fill="#333" font-style="italic" stroke="white" stroke-width="2.5" paint-order="stroke" stroke-linejoin="round">Requêtes</text>
<text x="950.5" y="239.5" font-size="10.5" text-anchor="middle" fill="#333" font-style="italic" stroke="white" stroke-width="2.5" paint-order="stroke" stroke-linejoin="round">contrôlées</text>
<text x="950.5" y="253" font-size="9" text-anchor="middle" fill="#777" stroke="white" stroke-width="2.5" paint-order="stroke" stroke-linejoin="round">(TLS1.3)</text>
<path d="M 553 150 L 580 150 L 580 30 L 12 30 L 12 98 L 22 97.5 L 39 97.5" fill="none" stroke="#444444" stroke-width="1.3" marker-end="url(#arr)"/>
<text x="425.5" y="45.5" font-size="10.5" text-anchor="middle" fill="#333" font-style="italic" stroke="white" stroke-width="2.5" paint-order="stroke" stroke-linejoin="round">Dépôt des</text>
<text x="425.5" y="59" font-size="10.5" text-anchor="middle" fill="#333" font-style="italic" stroke="white" stroke-width="2.5" paint-order="stroke" stroke-linejoin="round">factures</text>
<text x="425.5" y="72.5" font-size="9" text-anchor="middle" fill="#777" stroke="white" stroke-width="2.5" paint-order="stroke" stroke-linejoin="round">(TLS1.3)</text>
<path d="M 179 97.5 L 196 98 L 206 98 L 206 90 L 575 90 A 5 5 0 0 1 585 90 L 723 90" fill="none" stroke="#444444" stroke-width="1.3" marker-end="url(#arr)"/>
<text x="646.5" y="105.5" font-size="10.5" text-anchor="middle" fill="#333" font-style="italic" stroke="white" stroke-width="2.5" paint-order="stroke" stroke-linejoin="round">Transfert</text>
<text x="646.5" y="119" font-size="10.5" text-anchor="middle" fill="#333" font-style="italic" stroke="white" stroke-width="2.5" paint-order="stroke" stroke-linejoin="round">partenaire</text>
<text x="646.5" y="132.5" font-size="9" text-anchor="middle" fill="#777" stroke="white" stroke-width="2.5" paint-order="stroke" stroke-linejoin="round">(AS4)</text>
<line x1="20" y1="340" x2="1331" y2="340" stroke="#ddd" stroke-width="1"/>
<text x="20" y="362" font-size="11" font-weight="bold" fill="#555">LÉGENDE</text>
<rect x="150" y="352" width="26" height="14" rx="3" fill="#f5f5f4" stroke="#8a8a85"/>
<text x="182" y="363" font-size="10" fill="#444">Zone de confiance (sensibilité)</text>
<rect x="376" y="352" width="26" height="14" rx="3" fill="#fff7e6" stroke="#c46b2a"/>
<text x="408" y="363" font-size="10" fill="#444">Nœud de filtrage / sécurité</text>
<rect x="581" y="352" width="26" height="14" rx="3" fill="#ffffff" stroke="#55606b"/>
<text x="613" y="363" font-size="10" fill="#444">Actif sensible</text>
<rect x="718" y="352" width="26" height="14" rx="3" fill="#fdecea" stroke="#d9534f" stroke-dasharray="5 3"/>
<text x="750" y="363" font-size="10" fill="#444">Externe non maîtrisé</text>
<line x1="150" y1="382" x2="176" y2="382" stroke="#444444" stroke-width="1.3" marker-end="url(#arr)"/>
<text x="182" y="386" font-size="10" fill="#444">Flux de sécurité — les flux inter-zones doivent être filtrés et chiffrés</text>
<text x="150" y="410" font-size="10" fill="#444" font-style="italic">W0560 signale tout flux entrant dans une zone plus sûre sans passer par un nœud de sécurité</text>
</svg>
