<svg xmlns="http://www.w3.org/2000/svg" viewBox="0 0 1120 403" font-family="Helvetica,Arial,sans-serif">
<defs><marker id="arr" viewBox="0 0 10 10" refX="9" refY="5" markerWidth="7" markerHeight="7" orient="auto-start-reverse">
<path d="M0,0 L10,5 L0,10 z" fill="#444444"/></marker></defs>
<rect width="1120" height="403" fill="white"/>
<rect x="224" y="77" width="132" height="154" rx="6" fill="#fdecea" stroke="#d9534f" stroke-width="1.4"/>
<text x="234" y="95" font-size="12" font-weight="bold" fill="#333">DMZ</text>
<text x="347" y="225" font-size="9.5" text-anchor="end" font-weight="bold" fill="#d9534f" letter-spacing="0.5">PUBLIC</text>
<rect x="499" y="137" width="132" height="154" rx="6" fill="#fff4e5" stroke="#e0a458" stroke-width="1.4"/>
<text x="509" y="155" font-size="12" font-weight="bold" fill="#333">Application zone</text>
<text x="622" y="285" font-size="9.5" text-anchor="end" font-weight="bold" fill="#e0a458" letter-spacing="0.5">INTERNAL</text>
<rect x="760" y="153" width="350" height="109" rx="6" fill="#e8f1f8" stroke="#5b8db8" stroke-width="1.4"/>
<text x="770" y="171" font-size="12" font-weight="bold" fill="#333">Data zone</text>
<text x="1101" y="256" font-size="9.5" text-anchor="end" font-weight="bold" fill="#5b8db8" letter-spacing="0.5">RESTRICTED</text>
<rect x="234" y="173" width="112" height="48" rx="4" fill="#fff7e6" stroke="#c46b2a" stroke-width="1.6"/>
<text x="290" y="194.25" font-size="11.5" text-anchor="middle" fill="#222233">WAF /</text>
<text x="290" y="207.75" font-size="11.5" text-anchor="middle" fill="#222233">reverse proxy</text>
<rect x="234" y="105" width="112" height="48" rx="4" fill="#fff7e6" stroke="#c46b2a" stroke-width="1.6"/>
<text x="290" y="126.25" font-size="11.5" text-anchor="middle" fill="#222233">SFTP</text>
<text x="290" y="139.75" font-size="11.5" text-anchor="middle" fill="#222233">gateway</text>
<rect x="509" y="165" width="112" height="48" rx="4" fill="#ffffff" stroke="#55606b" stroke-width="1.3"/>
<text x="565" y="186.25" font-size="11.5" text-anchor="middle" fill="#222233">Billing</text>
<text x="565" y="199.75" font-size="11.5" text-anchor="middle" fill="#222233">application</text>
<rect x="509" y="233" width="112" height="48" rx="4" fill="#ffffff" stroke="#55606b" stroke-width="1.3"/>
<text x="565" y="254.25" font-size="11.5" text-anchor="middle" fill="#222233">CRM</text>
<text x="565" y="267.75" font-size="11.5" text-anchor="middle" fill="#222233">application</text>
<rect x="770" y="181" width="112" height="48" rx="4" fill="#fff7e6" stroke="#c46b2a" stroke-width="1.6"/>
<text x="826" y="202.25" font-size="11.5" text-anchor="middle" fill="#222233">Database</text>
<text x="826" y="215.75" font-size="11.5" text-anchor="middle" fill="#222233">firewall</text>
<rect x="976" y="181" width="124" height="48" rx="4" fill="#ffffff" stroke="#55606b" stroke-width="1.3"/>
<text x="1038" y="202.25" font-size="11.5" text-anchor="middle" fill="#222233">Customer &amp;</text>
<text x="1038" y="215.75" font-size="11.5" text-anchor="middle" fill="#222233">billing database</text>
<rect x="10" y="177" width="112" height="40" rx="4" fill="#fdecea" stroke="#d9534f" stroke-width="1.3" stroke-dasharray="5 3"/>
<text x="66" y="201" font-size="11.5" text-anchor="middle" fill="#222233">End users</text>
<rect x="656" y="55" width="112" height="48" rx="4" fill="#fdecea" stroke="#d9534f" stroke-width="1.3" stroke-dasharray="5 3"/>
<text x="712" y="76.25" font-size="11.5" text-anchor="middle" fill="#222233">Partner EDI</text>
<text x="712" y="89.75" font-size="11.5" text-anchor="middle" fill="#222233">platform</text>
<path d="M 122 197 L 234 197" fill="none" stroke="#444444" stroke-width="1.3" marker-end="url(#arr)"/>
<text x="170.5" y="211.5" font-size="10.5" text-anchor="middle" fill="#333" font-style="italic" stroke="white" stroke-width="2.5" paint-order="stroke" stroke-linejoin="round">Web access</text>
<text x="170.5" y="225" font-size="9" text-anchor="middle" fill="#777" stroke="white" stroke-width="2.5" paint-order="stroke" stroke-linejoin="round">(TLS1.3)</text>
<path d="M 346 189 L 509 189" fill="none" stroke="#444444" stroke-width="1.3" marker-end="url(#arr)"/>
<text x="427.5" y="154.5" font-size="10.5" text-anchor="middle" fill="#333" font-style="italic" stroke="white" stroke-width="2.5" paint-order="stroke" stroke-linejoin="round">Filtered billing</text>
<text x="427.5" y="168" font-size="10.5" text-anchor="middle" fill="#333" font-style="italic" stroke="white" stroke-width="2.5" paint-order="stroke" stroke-linejoin="round">traffic</text>
<text x="427.5" y="181.5" font-size="9" text-anchor="middle" fill="#777" stroke="white" stroke-width="2.5" paint-order="stroke" stroke-linejoin="round">(mTLS)</text>
<path d="M 346 205 L 484 205 L 484 257 L 509 257" fill="none" stroke="#444444" stroke-width="1.3" marker-end="url(#arr)"/>
<text x="435.5" y="219.5" font-size="10.5" text-anchor="middle" fill="#333" font-style="italic" stroke="white" stroke-width="2.5" paint-order="stroke" stroke-linejoin="round">Filtered CRM</text>
<text x="435.5" y="233" font-size="10.5" text-anchor="middle" fill="#333" font-style="italic" stroke="white" stroke-width="2.5" paint-order="stroke" stroke-linejoin="round">traffic</text>
<text x="435.5" y="246.5" font-size="9" text-anchor="middle" fill="#777" stroke="white" stroke-width="2.5" paint-order="stroke" stroke-linejoin="round">(mTLS)</text>
<path d="M 621 197 L 770 197" fill="none" stroke="#444444" stroke-width="1.3" marker-end="url(#arr)"/>
<text x="694.5" y="162.5" font-size="10.5" text-anchor="middle" fill="#333" font-style="italic" stroke="white" stroke-width="2.5" paint-order="stroke" stroke-linejoin="round">Billing data</text>
<text x="694.5" y="176" font-size="10.5" text-anchor="middle" fill="#333" font-style="italic" stroke="white" stroke-width="2.5" paint-order="stroke" stroke-linejoin="round">access</text>
<text x="694.5" y="189.5" font-size="9" text-anchor="middle" fill="#777" stroke="white" stroke-width="2.5" paint-order="stroke" stroke-linejoin="round">(TLS1.3)</text>
<path d="M 621 257 L 646 257 L 646 213 L 770 213" fill="none" stroke="#444444" stroke-width="1.3" marker-end="url(#arr)"/>
<text x="697.5" y="227.5" font-size="10.5" text-anchor="middle" fill="#333" font-style="italic" stroke="white" stroke-width="2.5" paint-order="stroke" stroke-linejoin="round">Customer data</text>
<text x="697.5" y="241" font-size="10.5" text-anchor="middle" fill="#333" font-style="italic" stroke="white" stroke-width="2.5" paint-order="stroke" stroke-linejoin="round">access</text>
<text x="697.5" y="254.5" font-size="9" text-anchor="middle" fill="#777" stroke="white" stroke-width="2.5" paint-order="stroke" stroke-linejoin="round">(TLS1.3)</text>
<path d="M 882 205 L 976 205" fill="none" stroke="#444444" stroke-width="1.3" marker-end="url(#arr)"/>
<text x="929" y="219.5" font-size="10.5" text-anchor="middle" fill="#333" font-style="italic" stroke="white" stroke-width="2.5" paint-order="stroke" stroke-linejoin="round">Screened</text>
<text x="929" y="233" font-size="10.5" text-anchor="middle" fill="#333" font-style="italic" stroke="white" stroke-width="2.5" paint-order="stroke" stroke-linejoin="round">queries</text>
<text x="929" y="246.5" font-size="9" text-anchor="middle" fill="#777" stroke="white" stroke-width="2.5" paint-order="stroke" stroke-linejoin="round">(TLS1.3)</text>
<path d="M 621 181 L 646 181 L 646 22 L 209 22 L 209 129 L 234 129" fill="none" stroke="#444444" stroke-width="1.3" marker-end="url(#arr)"/>
<text x="535.5" y="36.5" font-size="10.5" text-anchor="middle" fill="#333" font-style="italic" stroke="white" stroke-width="2.5" paint-order="stroke" stroke-linejoin="round">Drop invoices</text>
<text x="535.5" y="50" font-size="10.5" text-anchor="middle" fill="#333" font-style="italic" stroke="white" stroke-width="2.5" paint-order="stroke" stroke-linejoin="round">to transmit</text>
<text x="535.5" y="63.5" font-size="9" text-anchor="middle" fill="#777" stroke="white" stroke-width="2.5" paint-order="stroke" stroke-linejoin="round">(TLS1.3)</text>
<path d="M 346 129 L 371 129 L 371 79 L 641 79 A 5 5 0 0 1 651 79 L 656 79" fill="none" stroke="#444444" stroke-width="1.3" marker-end="url(#arr)"/>
<text x="408" y="93.5" font-size="10.5" text-anchor="middle" fill="#333" font-style="italic" stroke="white" stroke-width="2.5" paint-order="stroke" stroke-linejoin="round">Partner</text>
<text x="408" y="107" font-size="10.5" text-anchor="middle" fill="#333" font-style="italic" stroke="white" stroke-width="2.5" paint-order="stroke" stroke-linejoin="round">transfer</text>
<text x="408" y="120.5" font-size="9" text-anchor="middle" fill="#777" stroke="white" stroke-width="2.5" paint-order="stroke" stroke-linejoin="round">(AS4)</text>
<line x1="20" y1="311" x2="1100" y2="311" stroke="#ddd" stroke-width="1"/>
<text x="20" y="333" font-size="11" font-weight="bold" fill="#555">LEGEND</text>
<rect x="150" y="323" width="26" height="14" rx="3" fill="#f5f5f4" stroke="#8a8a85"/>
<text x="182" y="334" font-size="10" fill="#444">Trust zone (sensitivity)</text>
<rect x="339" y="323" width="26" height="14" rx="3" fill="#fff7e6" stroke="#c46b2a"/>
<text x="371" y="334" font-size="10" fill="#444">Filtering / security node</text>
<rect x="533" y="323" width="26" height="14" rx="3" fill="#ffffff" stroke="#55606b"/>
<text x="565" y="334" font-size="10" fill="#444">Sensitive asset</text>
<rect x="675" y="323" width="26" height="14" rx="3" fill="#fdecea" stroke="#d9534f" stroke-dasharray="5 3"/>
<text x="707" y="334" font-size="10" fill="#444">Untrusted external</text>
<line x1="150" y1="353" x2="176" y2="353" stroke="#444444" stroke-width="1.3" marker-end="url(#arr)"/>
<text x="182" y="357" font-size="10" fill="#444">Security flow — cross-zone flows should be filtered and encrypted</text>
<text x="150" y="381" font-size="10" fill="#444" font-style="italic">W0560 flags any flow entering a more-trusted zone without a security-node</text>
</svg>
