<svg xmlns="http://www.w3.org/2000/svg" viewBox="0 0 1309 464" font-family="Helvetica,Arial,sans-serif">
<defs><marker id="arr" viewBox="0 0 10 10" refX="9" refY="5" markerWidth="7" markerHeight="7" orient="auto-start-reverse">
<path d="M0,0 L10,5 L0,10 z" fill="#444444"/></marker></defs>
<rect width="1309" height="464" fill="white"/>
<rect x="65" y="87" width="82" height="90" rx="6" fill="#eef4fb" stroke="#7a9cc4" stroke-width="1.2" stroke-dasharray="5 3"/>
<text x="75" y="105" font-size="13" font-weight="bold" fill="#333">Users</text>
<rect x="10" y="188" width="137" height="90" rx="6" fill="#eef4fb" stroke="#7a9cc4" stroke-width="1.2" stroke-dasharray="5 3"/>
<text x="20" y="206" font-size="13" font-weight="bold" fill="#333">Staff</text>
<rect x="283" y="87" width="732" height="152.66666666666669" rx="6" fill="#f6f2ea" stroke="#b09a6d" stroke-width="1.2"/>
<text x="293" y="105" font-size="13" font-weight="bold" fill="#333">Appointment booking system</text>
<rect x="297" y="114" width="126" height="83" rx="6" fill="#fdfbf6" stroke="#c4b258" stroke-width="1"/>
<text x="307" y="132" font-size="13" font-weight="bold" fill="#333">Presentation layer</text>
<rect x="583" y="121.83333333333333" width="418" height="108.83333333333334" rx="6" fill="#fdfbf6" stroke="#c4b258" stroke-width="1"/>
<text x="593" y="139.83333333333331" font-size="13" font-weight="bold" fill="#333">Business layer</text>
<rect x="1173" y="134" width="126" height="74" rx="6" fill="#f0eef5" stroke="#9187b3" stroke-width="1.2" stroke-dasharray="5 3"/>
<text x="1183" y="152" font-size="13" font-weight="bold" fill="#333">External systems</text>
<circle cx="106" cy="124" r="7" fill="none" stroke="#445566" stroke-width="1.5"/>
<path d="M 95 146 q 11 -19 22 0" fill="none" stroke="#445566" stroke-width="1.5"/>
<text x="106" y="158" font-size="11" text-anchor="middle" fill="#223344">Patient</text>
<circle cx="78.5" cy="225" r="7" fill="none" stroke="#445566" stroke-width="1.5"/>
<path d="M 67.5 247 q 11 -19 22 0" fill="none" stroke="#445566" stroke-width="1.5"/>
<text x="78.5" y="259" font-size="11" text-anchor="middle" fill="#223344">Medical secretary</text>
<rect x="306" y="141" width="108" height="47" rx="4" fill="#ffffff" stroke="#666677" stroke-width="1.3"/>
<text x="360" y="161.25" font-size="12.5" text-anchor="middle" fill="#222233">Booking</text>
<text x="360" y="175.75" font-size="12.5" text-anchor="middle" fill="#222233">portal</text>
<rect x="592" y="148.83333333333331" width="108" height="47" rx="4" fill="#ffffff" stroke="#666677" stroke-width="1.3"/>
<text x="646" y="169.08333333333331" font-size="12.5" text-anchor="middle" fill="#222233">Slot</text>
<text x="646" y="183.58333333333331" font-size="12.5" text-anchor="middle" fill="#222233">management</text>
<rect x="882" y="161.16666666666666" width="110" height="38" rx="4" fill="#ffffff" stroke="#666677" stroke-width="1.3"/>
<text x="937" y="184.16666666666666" font-size="12.5" text-anchor="middle" fill="#222233">Notifications</text>
<rect x="1182" y="161" width="108" height="38" rx="4" fill="#ffffff" stroke="#666677" stroke-width="1.3"/>
<text x="1236" y="184" font-size="12.5" text-anchor="middle" fill="#222233">SMS gateway</text>
<path d="M 138 141 L 268 141 L 268 165 L 278 164.5 L 306 164.5" fill="none" stroke="#444444" stroke-width="1.3" marker-end="url(#arr)"/>
<text x="213" y="156.5" font-size="11.5" text-anchor="middle" fill="#333" font-style="italic" stroke="white" stroke-width="2.5" paint-order="stroke" stroke-linejoin="round">Search a slot</text>
<text x="213" y="171" font-size="11.5" text-anchor="middle" fill="#333" font-style="italic" stroke="white" stroke-width="2.5" paint-order="stroke" stroke-linejoin="round">and book</text>
<rect x="194" y="179" width="38" height="15" rx="7.5" fill="#fdf3d8" stroke="#c9a227" stroke-width="1"/>
<text x="213" y="190" font-size="9.5" text-anchor="middle" fill="#7a6216" font-weight="bold">Slot</text>
<path d="M 414 164.5 L 592 164.5" fill="none" stroke="#444444" stroke-width="1.3" marker-end="url(#arr)"/>
<text x="506.5" y="136.5" font-size="11.5" text-anchor="middle" fill="#333" font-style="italic" stroke="white" stroke-width="2.5" paint-order="stroke" stroke-linejoin="round">Booking request</text>
<rect x="469" y="144.5" width="75" height="15" rx="7.5" fill="#fdf3d8" stroke="#c9a227" stroke-width="1"/>
<text x="506.5" y="155.5" font-size="9.5" text-anchor="middle" fill="#7a6216" font-weight="bold">Appointment</text>
<path d="M 700 180.16666666666666 L 882 180.16666666666666" fill="none" stroke="#444444" stroke-width="1.3" marker-end="url(#arr)"/>
<text x="791" y="195.66666666666666" font-size="11.5" text-anchor="middle" fill="#333" font-style="italic" stroke="white" stroke-width="2.5" paint-order="stroke" stroke-linejoin="round">Appointment confirmed</text>
<rect x="753.5" y="203.66666666666666" width="75" height="15" rx="7.5" fill="#fdf3d8" stroke="#c9a227" stroke-width="1"/>
<text x="791" y="214.66666666666666" font-size="9.5" text-anchor="middle" fill="#7a6216" font-weight="bold">Appointment</text>
<path d="M 992 180.16666666666666 L 1020 180 L 1182 180" fill="none" stroke="#444444" stroke-width="1.3" marker-end="url(#arr)"/>
<text x="1094" y="195.5" font-size="11.5" text-anchor="middle" fill="#333" font-style="italic" stroke="white" stroke-width="2.5" paint-order="stroke" stroke-linejoin="round">Send SMS reminder</text>
<path d="M 138 242 L 162 242 L 162 207 L 568 207 L 568 180.16666666666666 L 592 180.16666666666666" fill="none" stroke="#444444" stroke-width="1.3" marker-end="url(#arr)"/>
<text x="214" y="222.5" font-size="11.5" text-anchor="middle" fill="#333" font-style="italic" stroke="white" stroke-width="2.5" paint-order="stroke" stroke-linejoin="round">Open / block</text>
<text x="214" y="237" font-size="11.5" text-anchor="middle" fill="#333" font-style="italic" stroke="white" stroke-width="2.5" paint-order="stroke" stroke-linejoin="round">slots</text>
<rect x="195" y="245" width="38" height="15" rx="7.5" fill="#fdf3d8" stroke="#c9a227" stroke-width="1"/>
<text x="214" y="256" font-size="9.5" text-anchor="middle" fill="#7a6216" font-weight="bold">Slot</text>
<path d="M 700 164.49999999999997 L 710 164.49999999999997 L 710 150.16666666666666 L 1020 150 L 1030 150 L 1030 76.99999999999999 L 50 76.99999999999999 L 50 141 L 74 141" fill="none" stroke="#444444" stroke-width="1.3" marker-end="url(#arr)"/>
<text x="320" y="34.499999999999986" font-size="11.5" text-anchor="middle" fill="#333" font-style="italic" stroke="white" stroke-width="2.5" paint-order="stroke" stroke-linejoin="round">Appointment</text>
<text x="320" y="48.999999999999986" font-size="11.5" text-anchor="middle" fill="#333" font-style="italic" stroke="white" stroke-width="2.5" paint-order="stroke" stroke-linejoin="round">confirmation</text>
<rect x="282.5" y="56.999999999999986" width="75" height="15" rx="7.5" fill="#fdf3d8" stroke="#c9a227" stroke-width="1"/>
<text x="320" y="67.99999999999999" font-size="9.5" text-anchor="middle" fill="#7a6216" font-weight="bold">Appointment</text>
<line x1="20" y1="298" x2="1289" y2="298" stroke="#ddd" stroke-width="1"/>
<text x="20" y="320" font-size="11" font-weight="bold" fill="#555">BUSINESS OBJECTS</text>
<rect x="150" y="310" width="75" height="15" rx="7.5" fill="#fdf3d8" stroke="#c9a227"/>
<text x="187.5" y="321" font-size="9.5" text-anchor="middle" fill="#7a6216" font-weight="bold">Appointment</text>
<text x="235" y="321" font-size="10" fill="#666">— slot booked by a patient with a practitioner</text>
<rect x="150" y="334" width="38" height="15" rx="7.5" fill="#fdf3d8" stroke="#c9a227"/>
<text x="169" y="345" font-size="9.5" text-anchor="middle" fill="#7a6216" font-weight="bold">Slot</text>
<text x="198" y="345" font-size="10" fill="#666">— time window open for booking</text>
<line x1="20" y1="372" x2="1289" y2="372" stroke="#ddd" stroke-width="1"/>
<text x="20" y="394" font-size="11" font-weight="bold" fill="#555">LEGEND</text>
<rect x="150" y="384" width="26" height="14" rx="3" fill="#eef4fb" stroke="#7a9cc4" stroke-dasharray="5 3"/>
<text x="182" y="395" font-size="10" fill="#444">Actor group</text>
<rect x="272" y="384" width="26" height="14" rx="3" fill="#f6f2ea" stroke="#b09a6d"/>
<text x="304" y="395" font-size="10" fill="#444">System</text>
<rect x="368" y="384" width="26" height="14" rx="3" fill="#fdfbf6" stroke="#c4b258"/>
<text x="400" y="395" font-size="10" fill="#444">Layer</text>
<rect x="458" y="384" width="26" height="14" rx="3" fill="#ffffff" stroke="#666677"/>
<text x="490" y="395" font-size="10" fill="#444">Functional block</text>
<rect x="606" y="384" width="26" height="14" rx="3" fill="#f0eef5" stroke="#9187b3" stroke-dasharray="5 3"/>
<text x="638" y="395" font-size="10" fill="#444">External system</text>
<line x1="150" y1="414" x2="176" y2="414" stroke="#444444" stroke-width="1.3" marker-end="url(#arr)"/>
<text x="182" y="418" font-size="10" fill="#444">Functional flow (label = exchanged data)</text>
<rect x="480" y="407" width="96" height="15" rx="7.5" fill="#fdf3d8" stroke="#c9a227"/>
<text x="528" y="418" font-size="9.5" text-anchor="middle" fill="#7a6216" font-weight="bold">Business object</text>
<text x="584" y="418" font-size="10" fill="#444">carried by the flow</text>
<text x="150" y="442" font-size="10" fill="#444" font-style="italic">Health data is stored on certified health-data-hosting infrastructure</text>
</svg>
