<svg xmlns="http://www.w3.org/2000/svg" viewBox="0 0 1242 305" font-family="Helvetica,Arial,sans-serif">
<defs><marker id="arr" viewBox="0 0 10 10" refX="9" refY="5" markerWidth="7" markerHeight="7" orient="auto-start-reverse">
<path d="M0,0 L10,5 L0,10 z" fill="#444444"/></marker></defs>
<rect width="1242" height="305" fill="white"/>
<rect x="10" y="46" width="84" height="94" rx="6" fill="#eef4fb" stroke="#7a9cc4" stroke-width="1.2" stroke-dasharray="5 3"/>
<text x="20" y="64" font-size="12" font-weight="bold" fill="#333">Users</text>
<rect x="231" y="22" width="721" height="140.5" rx="6" fill="#f6f2ea" stroke="#b09a6d" stroke-width="1.2"/>
<text x="241" y="40" font-size="12" font-weight="bold" fill="#333">Appointment booking system</text>
<rect x="246" y="50" width="132" height="86" rx="6" fill="#fdfbf6" stroke="#c4b258" stroke-width="1"/>
<text x="256" y="68" font-size="12" font-weight="bold" fill="#333">Presentation layer</text>
<rect x="523" y="50" width="414" height="102.5" rx="6" fill="#fdfbf6" stroke="#c4b258" stroke-width="1"/>
<text x="533" y="68" font-size="12" font-weight="bold" fill="#333">Business layer</text>
<rect x="1100" y="54" width="132" height="78" rx="6" fill="#f0eef5" stroke="#9187b3" stroke-width="1.2" stroke-dasharray="5 3"/>
<text x="1110" y="72" font-size="12" font-weight="bold" fill="#333">External systems</text>
<circle cx="52" cy="84" r="7" fill="none" stroke="#445566" stroke-width="1.5"/>
<path d="M 41 106 q 11 -19 22 0" fill="none" stroke="#445566" stroke-width="1.5"/>
<text x="52" y="118" font-size="10" text-anchor="middle" fill="#223344">Patient</text>
<rect x="256" y="78" width="112" height="48" rx="4" fill="#ffffff" stroke="#666677" stroke-width="1.3"/>
<text x="312" y="99.25" font-size="11.5" text-anchor="middle" fill="#222233">Booking</text>
<text x="312" y="112.75" font-size="11.5" text-anchor="middle" fill="#222233">portal</text>
<rect x="533" y="78" width="112" height="48" rx="4" fill="#ffffff" stroke="#666677" stroke-width="1.3"/>
<text x="589" y="99.25" font-size="11.5" text-anchor="middle" fill="#222233">Slot</text>
<text x="589" y="112.75" font-size="11.5" text-anchor="middle" fill="#222233">management</text>
<rect x="815" y="82" width="112" height="40" rx="4" fill="#ffffff" stroke="#666677" stroke-width="1.3"/>
<text x="871" y="106" font-size="11.5" text-anchor="middle" fill="#222233">Notifications</text>
<rect x="1110" y="82" width="112" height="40" rx="4" fill="#ffffff" stroke="#666677" stroke-width="1.3"/>
<text x="1166" y="106" font-size="11.5" text-anchor="middle" fill="#222233">SMS gateway</text>
<path d="M 84 102 L 256 102" fill="none" stroke="#444444" stroke-width="1.3" marker-end="url(#arr)"/>
<text x="162.5" y="116.5" font-size="10.5" text-anchor="middle" fill="#333" font-style="italic" stroke="white" stroke-width="2.5" paint-order="stroke" stroke-linejoin="round">Search and book</text>
<rect x="125" y="124.5" width="75" height="15" rx="7.5" fill="#fdf3d8" stroke="#c9a227" stroke-width="1"/>
<text x="162.5" y="135.5" font-size="9.5" text-anchor="middle" fill="#7a6216" font-weight="bold">Appointment</text>
<path d="M 368 102 L 533 102" fill="none" stroke="#444444" stroke-width="1.3" marker-end="url(#arr)"/>
<text x="450.5" y="116.5" font-size="10.5" text-anchor="middle" fill="#333" font-style="italic" stroke="white" stroke-width="2.5" paint-order="stroke" stroke-linejoin="round">Booking request</text>
<rect x="413" y="124.5" width="75" height="15" rx="7.5" fill="#fdf3d8" stroke="#c9a227" stroke-width="1"/>
<text x="450.5" y="135.5" font-size="9.5" text-anchor="middle" fill="#7a6216" font-weight="bold">Appointment</text>
<path d="M 645 102 L 815 102" fill="none" stroke="#444444" stroke-width="1.3" marker-end="url(#arr)"/>
<text x="730" y="116.5" font-size="10.5" text-anchor="middle" fill="#333" font-style="italic" stroke="white" stroke-width="2.5" paint-order="stroke" stroke-linejoin="round">Appointment confirmed</text>
<rect x="692.5" y="124.5" width="75" height="15" rx="7.5" fill="#fdf3d8" stroke="#c9a227" stroke-width="1"/>
<text x="730" y="135.5" font-size="9.5" text-anchor="middle" fill="#7a6216" font-weight="bold">Appointment</text>
<path d="M 927 102 L 1110 102" fill="none" stroke="#444444" stroke-width="1.3" marker-end="url(#arr)"/>
<text x="1026" y="116.5" font-size="10.5" text-anchor="middle" fill="#333" font-style="italic" stroke="white" stroke-width="2.5" paint-order="stroke" stroke-linejoin="round">Send SMS reminder</text>
<line x1="20" y1="183" x2="1222" y2="183" stroke="#ddd" stroke-width="1"/>
<text x="20" y="205" font-size="11" font-weight="bold" fill="#555">BUSINESS OBJECTS</text>
<rect x="150" y="195" width="75" height="15" rx="7.5" fill="#fdf3d8" stroke="#c9a227"/>
<text x="187.5" y="206" font-size="9.5" text-anchor="middle" fill="#7a6216" font-weight="bold">Appointment</text>
<text x="235" y="206" font-size="10" fill="#666">— slot booked by a patient</text>
<line x1="20" y1="233" x2="1222" y2="233" stroke="#ddd" stroke-width="1"/>
<text x="20" y="255" font-size="11" font-weight="bold" fill="#555">LEGEND</text>
<rect x="150" y="245" width="26" height="14" rx="3" fill="#eef4fb" stroke="#7a9cc4" stroke-dasharray="5 3"/>
<text x="182" y="256" font-size="10" fill="#444">Actor group</text>
<rect x="272" y="245" width="26" height="14" rx="3" fill="#f6f2ea" stroke="#b09a6d"/>
<text x="304" y="256" font-size="10" fill="#444">System</text>
<rect x="368" y="245" width="26" height="14" rx="3" fill="#fdfbf6" stroke="#c4b258"/>
<text x="400" y="256" font-size="10" fill="#444">Layer</text>
<rect x="458" y="245" width="26" height="14" rx="3" fill="#ffffff" stroke="#666677"/>
<text x="490" y="256" font-size="10" fill="#444">Functional block</text>
<rect x="606" y="245" width="26" height="14" rx="3" fill="#f0eef5" stroke="#9187b3" stroke-dasharray="5 3"/>
<text x="638" y="256" font-size="10" fill="#444">External system</text>
<line x1="150" y1="275" x2="176" y2="275" stroke="#444444" stroke-width="1.3" marker-end="url(#arr)"/>
<text x="182" y="279" font-size="10" fill="#444">Functional flow (label = exchanged data)</text>
<rect x="480" y="268" width="96" height="15" rx="7.5" fill="#fdf3d8" stroke="#c9a227"/>
<text x="528" y="279" font-size="9.5" text-anchor="middle" fill="#7a6216" font-weight="bold">Business object</text>
<text x="584" y="279" font-size="10" fill="#444">carried by the flow</text>
</svg>
