<svg xmlns="http://www.w3.org/2000/svg" viewBox="0 0 1242 305" font-family="Helvetica,Arial,sans-serif">
<defs><marker id="arr" viewBox="0 0 10 10" refX="9" refY="5" markerWidth="7" markerHeight="7" orient="auto-start-reverse">
<path d="M0,0 L10,5 L0,10 z" fill="#9aa7b4"/></marker></defs>
<rect width="1242" height="305" fill="#1e2227"/>
<rect x="10" y="46" width="84" height="94" rx="6" fill="#232a33" stroke="#5c7fa8" stroke-width="1.2" stroke-dasharray="5 3"/>
<text x="20" y="64" font-size="12" font-weight="bold" fill="#e6edf3">Users</text>
<rect x="231" y="22" width="721" height="140.5" rx="6" fill="#2b2822" stroke="#9c8558" stroke-width="1.2"/>
<text x="241" y="40" font-size="12" font-weight="bold" fill="#e6edf3">Appointment booking system</text>
<rect x="246" y="50" width="132" height="86" rx="6" fill="#26241d" stroke="#a89446" stroke-width="1"/>
<text x="256" y="68" font-size="12" font-weight="bold" fill="#e6edf3">Presentation layer</text>
<rect x="523" y="50" width="414" height="102.5" rx="6" fill="#26241d" stroke="#a89446" stroke-width="1"/>
<text x="533" y="68" font-size="12" font-weight="bold" fill="#e6edf3">Business layer</text>
<rect x="1100" y="54" width="132" height="78" rx="6" fill="#2a2833" stroke="#7d72a0" stroke-width="1.2" stroke-dasharray="5 3"/>
<text x="1110" y="72" font-size="12" font-weight="bold" fill="#e6edf3">External systems</text>
<circle cx="52" cy="84" r="7" fill="none" stroke="#8aa0b8" stroke-width="1.5"/>
<path d="M 41 106 q 11 -19 22 0" fill="none" stroke="#8aa0b8" stroke-width="1.5"/>
<text x="52" y="118" font-size="10" text-anchor="middle" fill="#c9d5e1">Patient</text>
<rect x="256" y="78" width="112" height="48" rx="4" fill="#252a31" stroke="#7c8894" stroke-width="1.3"/>
<text x="312" y="99.25" font-size="11.5" text-anchor="middle" fill="#e6edf3">Booking</text>
<text x="312" y="112.75" font-size="11.5" text-anchor="middle" fill="#e6edf3">portal</text>
<rect x="533" y="78" width="112" height="48" rx="4" fill="#252a31" stroke="#7c8894" stroke-width="1.3"/>
<text x="589" y="99.25" font-size="11.5" text-anchor="middle" fill="#e6edf3">Slot</text>
<text x="589" y="112.75" font-size="11.5" text-anchor="middle" fill="#e6edf3">management</text>
<rect x="815" y="82" width="112" height="40" rx="4" fill="#252a31" stroke="#7c8894" stroke-width="1.3"/>
<text x="871" y="106" font-size="11.5" text-anchor="middle" fill="#e6edf3">Notifications</text>
<rect x="1110" y="82" width="112" height="40" rx="4" fill="#252a31" stroke="#7c8894" stroke-width="1.3"/>
<text x="1166" y="106" font-size="11.5" text-anchor="middle" fill="#e6edf3">SMS gateway</text>
<path d="M 84 102 L 256 102" fill="none" stroke="#9aa7b4" stroke-width="1.3" marker-end="url(#arr)"/>
<text x="162.5" y="116.5" font-size="10.5" text-anchor="middle" fill="#d6dde4" font-style="italic" stroke="#1e2227" stroke-width="2.5" paint-order="stroke" stroke-linejoin="round">Search and book</text>
<rect x="125" y="124.5" width="75" height="15" rx="7.5" fill="#3a3320" stroke="#b08d2a" stroke-width="1"/>
<text x="162.5" y="135.5" font-size="9.5" text-anchor="middle" fill="#e0c068" font-weight="bold">Appointment</text>
<path d="M 368 102 L 533 102" fill="none" stroke="#9aa7b4" stroke-width="1.3" marker-end="url(#arr)"/>
<text x="450.5" y="116.5" font-size="10.5" text-anchor="middle" fill="#d6dde4" font-style="italic" stroke="#1e2227" stroke-width="2.5" paint-order="stroke" stroke-linejoin="round">Booking request</text>
<rect x="413" y="124.5" width="75" height="15" rx="7.5" fill="#3a3320" stroke="#b08d2a" stroke-width="1"/>
<text x="450.5" y="135.5" font-size="9.5" text-anchor="middle" fill="#e0c068" font-weight="bold">Appointment</text>
<path d="M 645 102 L 815 102" fill="none" stroke="#9aa7b4" stroke-width="1.3" marker-end="url(#arr)"/>
<text x="730" y="116.5" font-size="10.5" text-anchor="middle" fill="#d6dde4" font-style="italic" stroke="#1e2227" stroke-width="2.5" paint-order="stroke" stroke-linejoin="round">Appointment confirmed</text>
<rect x="692.5" y="124.5" width="75" height="15" rx="7.5" fill="#3a3320" stroke="#b08d2a" stroke-width="1"/>
<text x="730" y="135.5" font-size="9.5" text-anchor="middle" fill="#e0c068" font-weight="bold">Appointment</text>
<path d="M 927 102 L 1110 102" fill="none" stroke="#9aa7b4" stroke-width="1.3" marker-end="url(#arr)"/>
<text x="1026" y="116.5" font-size="10.5" text-anchor="middle" fill="#d6dde4" font-style="italic" stroke="#1e2227" stroke-width="2.5" paint-order="stroke" stroke-linejoin="round">Send SMS reminder</text>
<line x1="20" y1="183" x2="1222" y2="183" stroke="#3a4149" stroke-width="1"/>
<text x="20" y="205" font-size="11" font-weight="bold" fill="#b7c2cd">BUSINESS OBJECTS</text>
<rect x="150" y="195" width="75" height="15" rx="7.5" fill="#3a3320" stroke="#b08d2a"/>
<text x="187.5" y="206" font-size="9.5" text-anchor="middle" fill="#e0c068" font-weight="bold">Appointment</text>
<text x="235" y="206" font-size="10" fill="#93a0ab">— slot booked by a patient</text>
<line x1="20" y1="233" x2="1222" y2="233" stroke="#3a4149" stroke-width="1"/>
<text x="20" y="255" font-size="11" font-weight="bold" fill="#b7c2cd">LEGEND</text>
<rect x="150" y="245" width="26" height="14" rx="3" fill="#232a33" stroke="#5c7fa8" stroke-dasharray="5 3"/>
<text x="182" y="256" font-size="10" fill="#c2ccd6">Actor group</text>
<rect x="272" y="245" width="26" height="14" rx="3" fill="#2b2822" stroke="#9c8558"/>
<text x="304" y="256" font-size="10" fill="#c2ccd6">System</text>
<rect x="368" y="245" width="26" height="14" rx="3" fill="#26241d" stroke="#a89446"/>
<text x="400" y="256" font-size="10" fill="#c2ccd6">Layer</text>
<rect x="458" y="245" width="26" height="14" rx="3" fill="#252a31" stroke="#7c8894"/>
<text x="490" y="256" font-size="10" fill="#c2ccd6">Functional block</text>
<rect x="606" y="245" width="26" height="14" rx="3" fill="#2a2833" stroke="#7d72a0" stroke-dasharray="5 3"/>
<text x="638" y="256" font-size="10" fill="#c2ccd6">External system</text>
<line x1="150" y1="275" x2="176" y2="275" stroke="#9aa7b4" stroke-width="1.3" marker-end="url(#arr)"/>
<text x="182" y="279" font-size="10" fill="#c2ccd6">Functional flow (label = exchanged data)</text>
<rect x="480" y="268" width="96" height="15" rx="7.5" fill="#3a3320" stroke="#b08d2a"/>
<text x="528" y="279" font-size="9.5" text-anchor="middle" fill="#e0c068" font-weight="bold">Business object</text>
<text x="584" y="279" font-size="10" fill="#c2ccd6">carried by the flow</text>
</svg>
