<svg xmlns="http://www.w3.org/2000/svg" viewBox="0 0 1490 324" font-family="Helvetica,Arial,sans-serif">
<defs><marker id="arr" viewBox="0 0 10 10" refX="9" refY="5" markerWidth="7" markerHeight="7" orient="auto-start-reverse">
<path d="M0,0 L10,5 L0,10 z" fill="#9aa7b4"/></marker></defs>
<rect width="1490" height="324" fill="#1e2227"/>
<rect x="12" y="58" width="88" height="98" rx="6" fill="#232a33" stroke="#5c7fa8" stroke-width="1.2" stroke-dasharray="5 3"/>
<text x="22" y="76" font-size="12" font-weight="bold" fill="#e6edf3">Users</text>
<rect x="293" y="30" width="817" height="150" rx="6" fill="#2b2822" stroke="#9c8558" stroke-width="1.2"/>
<text x="303" y="48" font-size="12" font-weight="bold" fill="#e6edf3">Appointment booking system</text>
<rect x="310" y="60" width="164" height="93" rx="6" fill="#26241d" stroke="#a89446" stroke-width="1"/>
<text x="320" y="78" font-size="12" font-weight="bold" fill="#e6edf3">Presentation layer</text>
<rect x="619" y="60" width="474" height="108" rx="6" fill="#26241d" stroke="#a89446" stroke-width="1"/>
<text x="629" y="78" font-size="12" font-weight="bold" fill="#e6edf3">Business layer</text>
<rect x="1314" y="63" width="164" height="88" rx="6" fill="#2a2833" stroke="#7d72a0" stroke-width="1.2" stroke-dasharray="5 3"/>
<text x="1324" y="81" font-size="12" font-weight="bold" fill="#e6edf3">External systems</text>
<circle cx="56" cy="98" r="7" fill="none" stroke="#8aa0b8" stroke-width="1.5"/>
<path d="M 45 120 q 11 -19 22 0" fill="none" stroke="#8aa0b8" stroke-width="1.5"/>
<text x="56" y="132" font-size="10" text-anchor="middle" fill="#c9d5e1">Patient</text>
<rect x="322" y="90" width="140" height="51" rx="4" fill="#252a31" stroke="#7c8894" stroke-width="1.3"/>
<text x="392" y="112.75" font-size="11.5" text-anchor="middle" fill="#e6edf3">Booking</text>
<text x="392" y="126.25" font-size="11.5" text-anchor="middle" fill="#e6edf3">portal</text>
<rect x="631" y="90" width="140" height="51" rx="4" fill="#252a31" stroke="#7c8894" stroke-width="1.3"/>
<text x="701" y="112.75" font-size="11.5" text-anchor="middle" fill="#e6edf3">Slot</text>
<text x="701" y="126.25" font-size="11.5" text-anchor="middle" fill="#e6edf3">management</text>
<rect x="941" y="92.5" width="140" height="46" rx="4" fill="#252a31" stroke="#7c8894" stroke-width="1.3"/>
<text x="1011" y="119.5" font-size="11.5" text-anchor="middle" fill="#e6edf3">Notifications</text>
<rect x="1326" y="93" width="140" height="46" rx="4" fill="#252a31" stroke="#7c8894" stroke-width="1.3"/>
<text x="1396" y="120" font-size="11.5" text-anchor="middle" fill="#e6edf3">SMS gateway</text>
<path d="M 88 116 L 288 115.5 L 322 115.5" fill="none" stroke="#9aa7b4" stroke-width="1.3" marker-end="url(#arr)"/>
<text x="196.5" y="131.5" font-size="10.5" text-anchor="middle" fill="#d6dde4" font-style="italic" stroke="#1e2227" stroke-width="2.5" paint-order="stroke" stroke-linejoin="round">Search and book</text>
<rect x="159" y="139.5" width="75" height="15" rx="7.5" fill="#3a3320" stroke="#b08d2a" stroke-width="1"/>
<text x="196.5" y="150.5" font-size="9.5" text-anchor="middle" fill="#e0c068" font-weight="bold">Appointment</text>
<path d="M 462 115.5 L 631 115.5" fill="none" stroke="#9aa7b4" stroke-width="1.3" marker-end="url(#arr)"/>
<text x="546.5" y="130" font-size="10.5" text-anchor="middle" fill="#d6dde4" font-style="italic" stroke="#1e2227" stroke-width="2.5" paint-order="stroke" stroke-linejoin="round">Booking request</text>
<rect x="509" y="138" width="75" height="15" rx="7.5" fill="#3a3320" stroke="#b08d2a" stroke-width="1"/>
<text x="546.5" y="149" font-size="9.5" text-anchor="middle" fill="#e0c068" font-weight="bold">Appointment</text>
<path d="M 771 115.5 L 941 115.5" fill="none" stroke="#9aa7b4" stroke-width="1.3" marker-end="url(#arr)"/>
<text x="856" y="130" font-size="10.5" text-anchor="middle" fill="#d6dde4" font-style="italic" stroke="#1e2227" stroke-width="2.5" paint-order="stroke" stroke-linejoin="round">Appointment confirmed</text>
<rect x="818.5" y="138" width="75" height="15" rx="7.5" fill="#3a3320" stroke="#b08d2a" stroke-width="1"/>
<text x="856" y="149" font-size="9.5" text-anchor="middle" fill="#e0c068" font-weight="bold">Appointment</text>
<path d="M 1081 115.5 L 1115 116 L 1326 116" fill="none" stroke="#9aa7b4" stroke-width="1.3" marker-end="url(#arr)"/>
<text x="1212" y="131.5" font-size="10.5" text-anchor="middle" fill="#d6dde4" font-style="italic" stroke="#1e2227" stroke-width="2.5" paint-order="stroke" stroke-linejoin="round">Send SMS reminder</text>
<line x1="20" y1="202" x2="1470" y2="202" stroke="#3a4149" stroke-width="1"/>
<text x="20" y="224" font-size="11" font-weight="bold" fill="#b7c2cd">BUSINESS OBJECTS</text>
<rect x="150" y="214" width="75" height="15" rx="7.5" fill="#3a3320" stroke="#b08d2a"/>
<text x="187.5" y="225" font-size="9.5" text-anchor="middle" fill="#e0c068" font-weight="bold">Appointment</text>
<text x="235" y="225" font-size="10" fill="#93a0ab">— slot booked by a patient</text>
<line x1="20" y1="252" x2="1470" y2="252" stroke="#3a4149" stroke-width="1"/>
<text x="20" y="274" font-size="11" font-weight="bold" fill="#b7c2cd">LEGEND</text>
<rect x="150" y="264" width="26" height="14" rx="3" fill="#232a33" stroke="#5c7fa8" stroke-dasharray="5 3"/>
<text x="182" y="275" font-size="10" fill="#c2ccd6">Actor group</text>
<rect x="272" y="264" width="26" height="14" rx="3" fill="#2b2822" stroke="#9c8558"/>
<text x="304" y="275" font-size="10" fill="#c2ccd6">System</text>
<rect x="368" y="264" width="26" height="14" rx="3" fill="#26241d" stroke="#a89446"/>
<text x="400" y="275" font-size="10" fill="#c2ccd6">Layer</text>
<rect x="458" y="264" width="26" height="14" rx="3" fill="#252a31" stroke="#7c8894"/>
<text x="490" y="275" font-size="10" fill="#c2ccd6">Functional block</text>
<rect x="606" y="264" width="26" height="14" rx="3" fill="#2a2833" stroke="#7d72a0" stroke-dasharray="5 3"/>
<text x="638" y="275" font-size="10" fill="#c2ccd6">External system</text>
<line x1="150" y1="294" x2="176" y2="294" stroke="#9aa7b4" stroke-width="1.3" marker-end="url(#arr)"/>
<text x="182" y="298" font-size="10" fill="#c2ccd6">Functional flow (label = exchanged data)</text>
<rect x="480" y="287" width="96" height="15" rx="7.5" fill="#3a3320" stroke="#b08d2a"/>
<text x="528" y="298" font-size="9.5" text-anchor="middle" fill="#e0c068" font-weight="bold">Business object</text>
<text x="584" y="298" font-size="10" fill="#c2ccd6">carried by the flow</text>
</svg>
