<svg xmlns="http://www.w3.org/2000/svg" viewBox="0 0 1263 301" font-family="Helvetica,Arial,sans-serif">
<defs><marker id="arr" viewBox="0 0 10 10" refX="9" refY="5" markerWidth="7" markerHeight="7" orient="auto-start-reverse">
<path d="M0,0 L10,5 L0,10 z" fill="#9aa7b4"/></marker></defs>
<rect width="1263" height="301" fill="#1e2530"/>
<rect x="10" y="46" width="82" height="90" rx="6" fill="#233242" stroke="#5aa9e6" stroke-width="1.2" stroke-dasharray="5 3"/>
<text x="20" y="64" font-size="13" font-weight="bold" fill="#e6edf3">Users</text>
<rect x="237" y="22" width="732" height="137" rx="6" fill="#332a1b" stroke="#e0a955" stroke-width="1.2"/>
<text x="247" y="40" font-size="13" font-weight="bold" fill="#e6edf3">Appointment booking system</text>
<rect x="251" y="49" width="126" height="83" rx="6" fill="#2e2a1a" stroke="#d8c15f" stroke-width="1"/>
<text x="261" y="67" font-size="13" font-weight="bold" fill="#e6edf3">Presentation layer</text>
<rect x="537" y="49" width="418" height="101" rx="6" fill="#2e2a1a" stroke="#d8c15f" stroke-width="1"/>
<text x="547" y="67" font-size="13" font-weight="bold" fill="#e6edf3">Business layer</text>
<rect x="1127" y="54" width="126" height="74" rx="6" fill="#2a2436" stroke="#b48ad6" stroke-width="1.2" stroke-dasharray="5 3"/>
<text x="1137" y="72" font-size="13" font-weight="bold" fill="#e6edf3">External systems</text>
<circle cx="51" cy="83" r="7" fill="none" stroke="#8aa0b8" stroke-width="1.5"/>
<path d="M 40 105 q 11 -19 22 0" fill="none" stroke="#8aa0b8" stroke-width="1.5"/>
<text x="51" y="117" font-size="11" text-anchor="middle" fill="#c9d5e1">Patient</text>
<rect x="260" y="76" width="108" height="47" rx="4" fill="#252c37" stroke="#6b7885" stroke-width="1.3"/>
<text x="314" y="96.25" font-size="12.5" text-anchor="middle" fill="#e6edf3">Booking</text>
<text x="314" y="110.75" font-size="12.5" text-anchor="middle" fill="#e6edf3">portal</text>
<rect x="546" y="76" width="108" height="47" rx="4" fill="#252c37" stroke="#6b7885" stroke-width="1.3"/>
<text x="600" y="96.25" font-size="12.5" text-anchor="middle" fill="#e6edf3">Slot</text>
<text x="600" y="110.75" font-size="12.5" text-anchor="middle" fill="#e6edf3">management</text>
<rect x="836" y="80.5" width="110" height="38" rx="4" fill="#252c37" stroke="#6b7885" stroke-width="1.3"/>
<text x="891" y="103.5" font-size="12.5" text-anchor="middle" fill="#e6edf3">Notifications</text>
<rect x="1136" y="81" width="108" height="38" rx="4" fill="#252c37" stroke="#6b7885" stroke-width="1.3"/>
<text x="1190" y="104" font-size="12.5" text-anchor="middle" fill="#e6edf3">SMS gateway</text>
<path d="M 83 100 L 232 99.5 L 260 99.5" fill="none" stroke="#9aa7b4" stroke-width="1.3" marker-end="url(#arr)"/>
<text x="164.5" y="115.5" font-size="11.5" text-anchor="middle" fill="#c2ccd6" font-style="italic" stroke="#1e2530" stroke-width="2.5" paint-order="stroke" stroke-linejoin="round">Search and book</text>
<rect x="127" y="123.5" width="75" height="15" rx="7.5" fill="#3a3320" stroke="#b08d2a" stroke-width="1"/>
<text x="164.5" y="134.5" font-size="9.5" text-anchor="middle" fill="#e0c068" font-weight="bold">Appointment</text>
<path d="M 368 99.5 L 546 99.5" fill="none" stroke="#9aa7b4" stroke-width="1.3" marker-end="url(#arr)"/>
<text x="460.5" y="115" font-size="11.5" text-anchor="middle" fill="#c2ccd6" font-style="italic" stroke="#1e2530" stroke-width="2.5" paint-order="stroke" stroke-linejoin="round">Booking request</text>
<rect x="423" y="123" width="75" height="15" rx="7.5" fill="#3a3320" stroke="#b08d2a" stroke-width="1"/>
<text x="460.5" y="134" font-size="9.5" text-anchor="middle" fill="#e0c068" font-weight="bold">Appointment</text>
<path d="M 654 99.5 L 836 99.5" fill="none" stroke="#9aa7b4" stroke-width="1.3" marker-end="url(#arr)"/>
<text x="745" y="115" font-size="11.5" text-anchor="middle" fill="#c2ccd6" font-style="italic" stroke="#1e2530" stroke-width="2.5" paint-order="stroke" stroke-linejoin="round">Appointment confirmed</text>
<rect x="707.5" y="123" width="75" height="15" rx="7.5" fill="#3a3320" stroke="#b08d2a" stroke-width="1"/>
<text x="745" y="134" font-size="9.5" text-anchor="middle" fill="#e0c068" font-weight="bold">Appointment</text>
<path d="M 946 99.5 L 974 100 L 1136 100" fill="none" stroke="#9aa7b4" stroke-width="1.3" marker-end="url(#arr)"/>
<text x="1048" y="115.5" font-size="11.5" text-anchor="middle" fill="#c2ccd6" font-style="italic" stroke="#1e2530" stroke-width="2.5" paint-order="stroke" stroke-linejoin="round">Send SMS reminder</text>
<line x1="20" y1="179" x2="1243" y2="179" stroke="#3a4149" stroke-width="1"/>
<text x="20" y="201" font-size="11" font-weight="bold" fill="#c2ccd6">BUSINESS OBJECTS</text>
<rect x="150" y="191" width="75" height="15" rx="7.5" fill="#3a3320" stroke="#b08d2a"/>
<text x="187.5" y="202" font-size="9.5" text-anchor="middle" fill="#e0c068" font-weight="bold">Appointment</text>
<text x="235" y="202" font-size="10" fill="#93a0ab">— slot booked by a patient</text>
<line x1="20" y1="229" x2="1243" y2="229" stroke="#3a4149" stroke-width="1"/>
<text x="20" y="251" font-size="11" font-weight="bold" fill="#c2ccd6">LEGEND</text>
<rect x="150" y="241" width="26" height="14" rx="3" fill="#233242" stroke="#5aa9e6" stroke-dasharray="5 3"/>
<text x="182" y="252" font-size="10" fill="#e6edf3">Actor group</text>
<rect x="272" y="241" width="26" height="14" rx="3" fill="#332a1b" stroke="#e0a955"/>
<text x="304" y="252" font-size="10" fill="#e6edf3">System</text>
<rect x="368" y="241" width="26" height="14" rx="3" fill="#2e2a1a" stroke="#d8c15f"/>
<text x="400" y="252" font-size="10" fill="#e6edf3">Layer</text>
<rect x="458" y="241" width="26" height="14" rx="3" fill="#252c37" stroke="#6b7885"/>
<text x="490" y="252" font-size="10" fill="#e6edf3">Functional block</text>
<rect x="606" y="241" width="26" height="14" rx="3" fill="#2a2436" stroke="#b48ad6" stroke-dasharray="5 3"/>
<text x="638" y="252" font-size="10" fill="#e6edf3">External system</text>
<line x1="150" y1="271" x2="176" y2="271" stroke="#9aa7b4" stroke-width="1.3" marker-end="url(#arr)"/>
<text x="182" y="275" font-size="10" fill="#e6edf3">Functional flow (label = exchanged data)</text>
<rect x="480" y="264" width="96" height="15" rx="7.5" fill="#3a3320" stroke="#b08d2a"/>
<text x="528" y="275" font-size="9.5" text-anchor="middle" fill="#e0c068" font-weight="bold">Business object</text>
<text x="584" y="275" font-size="10" fill="#e6edf3">carried by the flow</text>
</svg>
