<svg xmlns="http://www.w3.org/2000/svg" viewBox="0 0 1263 301" font-family="Helvetica,Arial,sans-serif">
<defs><marker id="arr" viewBox="0 0 10 10" refX="9" refY="5" markerWidth="7" markerHeight="7" orient="auto-start-reverse">
<path d="M0,0 L10,5 L0,10 z" fill="#444444"/></marker></defs>
<rect width="1263" height="301" fill="white"/>
<rect x="10" y="46" width="82" height="90" rx="6" fill="#eef4fb" stroke="#7a9cc4" stroke-width="1.2" stroke-dasharray="5 3"/>
<text x="20" y="64" font-size="13" font-weight="bold" fill="#333">Users</text>
<rect x="237" y="22" width="732" height="137" rx="6" fill="#f6f2ea" stroke="#b09a6d" stroke-width="1.2"/>
<text x="247" y="40" font-size="13" font-weight="bold" fill="#333">Appointment booking system</text>
<rect x="251" y="49" width="126" height="83" rx="6" fill="#fdfbf6" stroke="#c4b258" stroke-width="1"/>
<text x="261" y="67" font-size="13" font-weight="bold" fill="#333">Presentation layer</text>
<rect x="537" y="49" width="418" height="101" rx="6" fill="#fdfbf6" stroke="#c4b258" stroke-width="1"/>
<text x="547" y="67" font-size="13" font-weight="bold" fill="#333">Business layer</text>
<rect x="1127" y="54" width="126" height="74" rx="6" fill="#f0eef5" stroke="#9187b3" stroke-width="1.2" stroke-dasharray="5 3"/>
<text x="1137" y="72" font-size="13" font-weight="bold" fill="#333">External systems</text>
<circle cx="51" cy="83" r="7" fill="none" stroke="#445566" stroke-width="1.5"/>
<path d="M 40 105 q 11 -19 22 0" fill="none" stroke="#445566" stroke-width="1.5"/>
<text x="51" y="117" font-size="11" text-anchor="middle" fill="#223344">Patient</text>
<rect x="260" y="76" width="108" height="47" rx="4" fill="#ffffff" stroke="#666677" stroke-width="1.3"/>
<text x="314" y="96.25" font-size="12.5" text-anchor="middle" fill="#222233">Booking</text>
<text x="314" y="110.75" font-size="12.5" text-anchor="middle" fill="#222233">portal</text>
<rect x="546" y="76" width="108" height="47" rx="4" fill="#ffffff" stroke="#666677" stroke-width="1.3"/>
<text x="600" y="96.25" font-size="12.5" text-anchor="middle" fill="#222233">Slot</text>
<text x="600" y="110.75" font-size="12.5" text-anchor="middle" fill="#222233">management</text>
<rect x="836" y="80.5" width="110" height="38" rx="4" fill="#ffffff" stroke="#666677" stroke-width="1.3"/>
<text x="891" y="103.5" font-size="12.5" text-anchor="middle" fill="#222233">Notifications</text>
<rect x="1136" y="81" width="108" height="38" rx="4" fill="#ffffff" stroke="#666677" stroke-width="1.3"/>
<text x="1190" y="104" font-size="12.5" text-anchor="middle" fill="#222233">SMS gateway</text>
<path d="M 83 100 L 232 99.5 L 260 99.5" fill="none" stroke="#444444" stroke-width="1.3" marker-end="url(#arr)"/>
<text x="164.5" y="115.5" font-size="11.5" text-anchor="middle" fill="#333" font-style="italic" stroke="white" stroke-width="2.5" paint-order="stroke" stroke-linejoin="round">Search and book</text>
<rect x="127" y="123.5" width="75" height="15" rx="7.5" fill="#fdf3d8" stroke="#c9a227" stroke-width="1"/>
<text x="164.5" y="134.5" font-size="9.5" text-anchor="middle" fill="#7a6216" font-weight="bold">Appointment</text>
<path d="M 368 99.5 L 546 99.5" fill="none" stroke="#444444" stroke-width="1.3" marker-end="url(#arr)"/>
<text x="460.5" y="115" font-size="11.5" text-anchor="middle" fill="#333" font-style="italic" stroke="white" stroke-width="2.5" paint-order="stroke" stroke-linejoin="round">Booking request</text>
<rect x="423" y="123" width="75" height="15" rx="7.5" fill="#fdf3d8" stroke="#c9a227" stroke-width="1"/>
<text x="460.5" y="134" font-size="9.5" text-anchor="middle" fill="#7a6216" font-weight="bold">Appointment</text>
<path d="M 654 99.5 L 836 99.5" fill="none" stroke="#444444" stroke-width="1.3" marker-end="url(#arr)"/>
<text x="745" y="115" font-size="11.5" text-anchor="middle" fill="#333" font-style="italic" stroke="white" stroke-width="2.5" paint-order="stroke" stroke-linejoin="round">Appointment confirmed</text>
<rect x="707.5" y="123" width="75" height="15" rx="7.5" fill="#fdf3d8" stroke="#c9a227" stroke-width="1"/>
<text x="745" y="134" font-size="9.5" text-anchor="middle" fill="#7a6216" font-weight="bold">Appointment</text>
<path d="M 946 99.5 L 974 100 L 1136 100" fill="none" stroke="#444444" stroke-width="1.3" marker-end="url(#arr)"/>
<text x="1048" y="115.5" font-size="11.5" text-anchor="middle" fill="#333" font-style="italic" stroke="white" stroke-width="2.5" paint-order="stroke" stroke-linejoin="round">Send SMS reminder</text>
<line x1="20" y1="179" x2="1243" y2="179" stroke="#ddd" stroke-width="1"/>
<text x="20" y="201" font-size="11" font-weight="bold" fill="#555">BUSINESS OBJECTS</text>
<rect x="150" y="191" width="75" height="15" rx="7.5" fill="#fdf3d8" stroke="#c9a227"/>
<text x="187.5" y="202" font-size="9.5" text-anchor="middle" fill="#7a6216" font-weight="bold">Appointment</text>
<text x="235" y="202" font-size="10" fill="#666">— slot booked by a patient</text>
<line x1="20" y1="229" x2="1243" y2="229" stroke="#ddd" stroke-width="1"/>
<text x="20" y="251" font-size="11" font-weight="bold" fill="#555">LEGEND</text>
<rect x="150" y="241" width="26" height="14" rx="3" fill="#eef4fb" stroke="#7a9cc4" stroke-dasharray="5 3"/>
<text x="182" y="252" font-size="10" fill="#444">Actor group</text>
<rect x="272" y="241" width="26" height="14" rx="3" fill="#f6f2ea" stroke="#b09a6d"/>
<text x="304" y="252" font-size="10" fill="#444">System</text>
<rect x="368" y="241" width="26" height="14" rx="3" fill="#fdfbf6" stroke="#c4b258"/>
<text x="400" y="252" font-size="10" fill="#444">Layer</text>
<rect x="458" y="241" width="26" height="14" rx="3" fill="#ffffff" stroke="#666677"/>
<text x="490" y="252" font-size="10" fill="#444">Functional block</text>
<rect x="606" y="241" width="26" height="14" rx="3" fill="#f0eef5" stroke="#9187b3" stroke-dasharray="5 3"/>
<text x="638" y="252" font-size="10" fill="#444">External system</text>
<line x1="150" y1="271" x2="176" y2="271" stroke="#444444" stroke-width="1.3" marker-end="url(#arr)"/>
<text x="182" y="275" font-size="10" fill="#444">Functional flow (label = exchanged data)</text>
<rect x="480" y="264" width="96" height="15" rx="7.5" fill="#fdf3d8" stroke="#c9a227"/>
<text x="528" y="275" font-size="9.5" text-anchor="middle" fill="#7a6216" font-weight="bold">Business object</text>
<text x="584" y="275" font-size="10" fill="#444">carried by the flow</text>
</svg>
