<svg xmlns="http://www.w3.org/2000/svg" viewBox="0 0 1999 937" font-family="Helvetica,Arial,sans-serif">
<defs><marker id="arr" viewBox="0 0 10 10" refX="9" refY="5" markerWidth="7" markerHeight="7" orient="auto-start-reverse">
<path d="M0,0 L10,5 L0,10 z" fill="#444444"/></marker></defs>
<rect width="1999" height="937" fill="white"/>
<rect x="27" y="526" width="184" height="283" rx="6" fill="#eef4fb" stroke="#7a9cc4" stroke-width="1.2" stroke-dasharray="5 3"/>
<text x="37" y="544" font-size="12" font-weight="bold" fill="#333">Groupement de rôles - Zone centrale</text>
<rect x="60" y="124" width="134" height="109" rx="6" fill="#eef4fb" stroke="#7a9cc4" stroke-width="1.2" stroke-dasharray="5 3"/>
<text x="70" y="142" font-size="12" font-weight="bold" fill="#333">Groupement de rôles - Site distant</text>
<rect x="205" y="249" width="184" height="261" rx="6" fill="#eef4fb" stroke="#7a9cc4" stroke-width="1.2" stroke-dasharray="5 3"/>
<text x="215" y="267" font-size="12" font-weight="bold" fill="#333">Cibles extérieures</text>
<rect x="541" y="191" width="867" height="476" rx="6" fill="#f6f2ea" stroke="#b09a6d" stroke-width="1.2"/>
<text x="551" y="209" font-size="12" font-weight="bold" fill="#333">Infrastructure principale</text>
<rect x="1121" y="301" width="250" height="306" rx="6" fill="#fdfbf6" stroke="#c4b258" stroke-width="1"/>
<text x="1131" y="319" font-size="12" font-weight="bold" fill="#333">Couche de Contrôle Central</text>
<rect x="578" y="274" width="195" height="306" rx="6" fill="#fdfbf6" stroke="#c4b258" stroke-width="1"/>
<text x="588" y="292" font-size="12" font-weight="bold" fill="#333">Couche Site déporté</text>
<rect x="1718" y="309" width="214" height="306" rx="6" fill="#f0eef5" stroke="#9187b3" stroke-width="1.2" stroke-dasharray="5 3"/>
<text x="1728" y="327" font-size="12" font-weight="bold" fill="#333">Ressources externes</text>
<circle cx="119" cy="566" r="7" fill="none" stroke="#445566" stroke-width="1.5"/>
<path d="M 108 588 q 11 -19 22 0" fill="none" stroke="#445566" stroke-width="1.5"/>
<text x="119" y="600" font-size="10" text-anchor="middle" fill="#223344">Agent de contrôle </text>
<text x="119" y="611" font-size="10" text-anchor="middle" fill="#223344">Zone principale</text>
<circle cx="124.5" cy="740" r="7" fill="none" stroke="#445566" stroke-width="1.5"/>
<path d="M 113.5 762 q 11 -19 22 0" fill="none" stroke="#445566" stroke-width="1.5"/>
<text x="124.5" y="774" font-size="10" text-anchor="middle" fill="#223344">Gestionnaire </text>
<text x="124.5" y="785" font-size="10" text-anchor="middle" fill="#223344">fonctionnel et technique</text>
<circle cx="119" cy="653" r="7" fill="none" stroke="#445566" stroke-width="1.5"/>
<path d="M 108 675 q 11 -19 22 0" fill="none" stroke="#445566" stroke-width="1.5"/>
<text x="119" y="687" font-size="10" text-anchor="middle" fill="#223344">Techniciens des</text>
<text x="119" y="698" font-size="10" text-anchor="middle" fill="#223344">ressources Zone principale</text>
<circle cx="127" cy="164" r="7" fill="none" stroke="#445566" stroke-width="1.5"/>
<path d="M 116 186 q 11 -19 22 0" fill="none" stroke="#445566" stroke-width="1.5"/>
<text x="127" y="198" font-size="10" text-anchor="middle" fill="#223344">Opérateur terrain</text>
<text x="127" y="209" font-size="10" text-anchor="middle" fill="#223344">Site distant</text>
<circle cx="297" cy="376" r="7" fill="none" stroke="#445566" stroke-width="1.5"/>
<path d="M 286 398 q 11 -19 22 0" fill="none" stroke="#445566" stroke-width="1.5"/>
<text x="297" y="410" font-size="10" text-anchor="middle" fill="#223344">Personne concernée</text>
<circle cx="297" cy="452" r="7" fill="none" stroke="#445566" stroke-width="1.5"/>
<path d="M 286 474 q 11 -19 22 0" fill="none" stroke="#445566" stroke-width="1.5"/>
<text x="297" y="486" font-size="10" text-anchor="middle" fill="#223344">Agent de service passagers</text>
<circle cx="297" cy="289" r="7" fill="none" stroke="#445566" stroke-width="1.5"/>
<path d="M 286 311 q 11 -19 22 0" fill="none" stroke="#445566" stroke-width="1.5"/>
<text x="297" y="323" font-size="10" text-anchor="middle" fill="#223344">Responsable</text>
<text x="297" y="334" font-size="10" text-anchor="middle" fill="#223344">de site distant</text>
<rect x="1179" y="331" width="164" height="51" rx="4" fill="#ffffff" stroke="#666677" stroke-width="1.3"/>
<text x="1261" y="353.75" font-size="11.5" text-anchor="middle" fill="#222233">Module de</text>
<text x="1261" y="367.25" font-size="11.5" text-anchor="middle" fill="#222233">communication centrale</text>
<rect x="1195" y="473" width="164" height="51" rx="4" fill="#ffffff" stroke="#666677" stroke-width="1.3"/>
<text x="1277" y="495.75" font-size="11.5" text-anchor="middle" fill="#222233">Module de</text>
<text x="1277" y="509.25" font-size="11.5" text-anchor="middle" fill="#222233">traitement des données</text>
<rect x="1163" y="402" width="158" height="51" rx="4" fill="#ffffff" stroke="#666677" stroke-width="1.3"/>
<text x="1242" y="424.75" font-size="11.5" text-anchor="middle" fill="#222233">Module de</text>
<text x="1242" y="438.25" font-size="11.5" text-anchor="middle" fill="#222233">configuration système</text>
<rect x="1163" y="544" width="196" height="51" rx="4" fill="#ffffff" stroke="#666677" stroke-width="1.3"/>
<text x="1261" y="566.75" font-size="11.5" text-anchor="middle" fill="#222233">Bloc de suivi de l'activité</text>
<text x="1261" y="580.25" font-size="11.5" text-anchor="middle" fill="#222233">temps réel</text>
<rect x="593.5" y="304" width="164" height="51" rx="4" fill="#ffffff" stroke="#666677" stroke-width="1.3"/>
<text x="675.5" y="326.75" font-size="11.5" text-anchor="middle" fill="#222233">Module de</text>
<text x="675.5" y="340.25" font-size="11.5" text-anchor="middle" fill="#222233">coordination satellite</text>
<rect x="590" y="375" width="151" height="51" rx="4" fill="#ffffff" stroke="#666677" stroke-width="1.3"/>
<text x="665.5" y="397.75" font-size="11.5" text-anchor="middle" fill="#222233">Module de</text>
<text x="665.5" y="411.25" font-size="11.5" text-anchor="middle" fill="#222233">communication locale</text>
<rect x="590" y="517" width="171" height="51" rx="4" fill="#ffffff" stroke="#666677" stroke-width="1.3"/>
<text x="675.5" y="539.75" font-size="11.5" text-anchor="middle" fill="#222233">Module de</text>
<text x="675.5" y="553.25" font-size="11.5" text-anchor="middle" fill="#222233">communication satellite</text>
<rect x="590" y="446" width="151" height="51" rx="4" fill="#ffffff" stroke="#666677" stroke-width="1.3"/>
<text x="665.5" y="468.75" font-size="11.5" text-anchor="middle" fill="#222233">Vecteurs d'affichage</text>
<text x="665.5" y="482.25" font-size="11.5" text-anchor="middle" fill="#222233">déportés</text>
<rect x="1730" y="410" width="190" height="51" rx="4" fill="#ffffff" stroke="#666677" stroke-width="1.3"/>
<text x="1825" y="432.75" font-size="11.5" text-anchor="middle" fill="#222233">Infrastructure d'affichage</text>
<text x="1825" y="446.25" font-size="11.5" text-anchor="middle" fill="#222233">externe</text>
<rect x="1755" y="339" width="140" height="51" rx="4" fill="#ffffff" stroke="#666677" stroke-width="1.3"/>
<text x="1825" y="361.75" font-size="11.5" text-anchor="middle" fill="#222233">Réseau tiers</text>
<text x="1825" y="375.25" font-size="11.5" text-anchor="middle" fill="#222233">de diffusion</text>
<rect x="1755" y="552" width="140" height="51" rx="4" fill="#ffffff" stroke="#666677" stroke-width="1.3"/>
<text x="1825" y="574.75" font-size="11.5" text-anchor="middle" fill="#222233">Service d'export</text>
<text x="1825" y="588.25" font-size="11.5" text-anchor="middle" fill="#222233">de données</text>
<rect x="1756" y="481" width="164" height="51" rx="4" fill="#ffffff" stroke="#666677" stroke-width="1.3"/>
<text x="1838" y="503.75" font-size="11.5" text-anchor="middle" fill="#222233">Infrastructure externe</text>
<text x="1838" y="517.25" font-size="11.5" text-anchor="middle" fill="#222233">de collecte de données</text>
<path d="M 176.5 589.5 L 216 590 L 558 590 A 5 5 0 0 1 568 590 L 1056 590 L 1056 358 L 1121 358" fill="none" stroke="#444444" stroke-width="1.3" marker-end="url(#arr)"/>
<text x="415.5" y="605.5" font-size="10.5" text-anchor="middle" fill="#333" font-style="italic" stroke="white" stroke-width="2.5" paint-order="stroke" stroke-linejoin="round">Contrôle globale</text>
<path d="M 199 763.5 L 216 764 L 486 764 L 486 612 L 558 612 A 5 5 0 0 1 568 612 L 1076 612 L 1076 436 L 1138 436 A 5 5 0 0 1 1148 436 L 1148 436 A 5 5 0 0 1 1158 436 L 1163 436" fill="none" stroke="#444444" stroke-width="1.3" marker-end="url(#arr)"/>
<text x="411" y="779.5" font-size="10.5" text-anchor="middle" fill="#333" font-style="italic" stroke="white" stroke-width="2.5" paint-order="stroke" stroke-linejoin="round">Configurer le système</text>
<path d="M 1343 348 L 1381 348 A 5 5 0 0 1 1391 348 L 1433 348 L 1433 30 L 12 30 L 12 590 L 22 589.5 L 61.5 589.5" fill="none" stroke="#444444" stroke-width="1.3" marker-end="url(#arr)"/>
<text x="621.5" y="45.5" font-size="10.5" text-anchor="middle" fill="#333" font-style="italic" stroke="white" stroke-width="2.5" paint-order="stroke" stroke-linejoin="round">Alertes, notifications et</text>
<text x="621.5" y="59" font-size="10.5" text-anchor="middle" fill="#333" font-style="italic" stroke="white" stroke-width="2.5" paint-order="stroke" stroke-linejoin="round">flux de diverses provenances</text>
<path d="M 199 676.5 L 216 677 L 303 677 L 303 624 L 476 624 L 476 601 L 558 601 A 5 5 0 0 1 568 601 L 1066 601 L 1066 419 L 1138 419 A 5 5 0 0 1 1148 419 L 1148 419 A 5 5 0 0 1 1158 419 L 1163 419" fill="none" stroke="#444444" stroke-width="1.3" marker-end="url(#arr)"/>
<text x="389.5" y="639.5" font-size="10.5" text-anchor="middle" fill="#333" font-style="italic" stroke="white" stroke-width="2.5" paint-order="stroke" stroke-linejoin="round">Activation/désactivation</text>
<text x="389.5" y="653" font-size="10.5" text-anchor="middle" fill="#333" font-style="italic" stroke="white" stroke-width="2.5" paint-order="stroke" stroke-linejoin="round">d'un terminal d'affichage</text>
<path d="M 757.5 321 L 788 321 L 788 279.5 L 1413 280 L 1423 280 L 1423 112 L 45 112 L 45 188 L 55 187.5 L 72 187.5" fill="none" stroke="#444444" stroke-width="1.3" marker-end="url(#arr)"/>
<text x="618.5" y="88.5" font-size="10.5" text-anchor="middle" fill="#333" font-style="italic" stroke="white" stroke-width="2.5" paint-order="stroke" stroke-linejoin="round">Signalement</text>
<text x="618.5" y="102" font-size="10.5" text-anchor="middle" fill="#333" font-style="italic" stroke="white" stroke-width="2.5" paint-order="stroke" stroke-linejoin="round">d'anomalies et incohérences</text>
<path d="M 182 187.5 L 199 188 L 512 188 L 512 401 L 536 400.5 L 590 400.5" fill="none" stroke="#444444" stroke-width="1.3" marker-end="url(#arr)"/>
<text x="415.5" y="203.5" font-size="10.5" text-anchor="middle" fill="#333" font-style="italic" stroke="white" stroke-width="2.5" paint-order="stroke" stroke-linejoin="round">Rédaction et diffusion de</text>
<text x="415.5" y="217" font-size="10.5" text-anchor="middle" fill="#333" font-style="italic" stroke="white" stroke-width="2.5" paint-order="stroke" stroke-linejoin="round">messages vers le contrôle</text>
<text x="415.5" y="230.5" font-size="10.5" text-anchor="middle" fill="#333" font-style="italic" stroke="white" stroke-width="2.5" paint-order="stroke" stroke-linejoin="round">central</text>
<path d="M 389 380 L 502 380 L 502 472 L 536 471.5 L 590 471.5" fill="none" stroke="#444444" stroke-width="1.3" marker-end="url(#arr)"/>
<text x="462.5" y="395.5" font-size="10.5" text-anchor="middle" fill="#333" font-style="italic" stroke="white" stroke-width="2.5" paint-order="stroke" stroke-linejoin="round">Consulter</text>
<path d="M 1343 365 L 1713 364.5 L 1755 364.5" fill="none" stroke="#444444" stroke-width="1.3" marker-end="url(#arr)"/>
<text x="1563" y="380.5" font-size="10.5" text-anchor="middle" fill="#333" font-style="italic" stroke="white" stroke-width="2.5" paint-order="stroke" stroke-linejoin="round">Diffusion temps réel d'informations</text>
<text x="1563" y="394" font-size="10.5" text-anchor="middle" fill="#333" font-style="italic" stroke="white" stroke-width="2.5" paint-order="stroke" stroke-linejoin="round">de perturbation</text>
<text x="1563" y="407.5" font-size="10.5" text-anchor="middle" fill="#333" font-style="italic" stroke="white" stroke-width="2.5" paint-order="stroke" stroke-linejoin="round">vers les lignes concernées</text>
<path d="M 1359 498.5 L 1413 499 L 1679 499 L 1679 578 L 1713 577.5 L 1755 577.5" fill="none" stroke="#444444" stroke-width="1.3" marker-end="url(#arr)"/>
<text x="1577.5" y="514.5" font-size="10.5" text-anchor="middle" fill="#333" font-style="italic" stroke="white" stroke-width="2.5" paint-order="stroke" stroke-linejoin="round">Export des données</text>
<text x="1577.5" y="528" font-size="10.5" text-anchor="middle" fill="#333" font-style="italic" stroke="white" stroke-width="2.5" paint-order="stroke" stroke-linejoin="round">temps réel et de configuration</text>
<path d="M 1359 569.5 L 1386 569.5 L 1386 221 L 563 221 L 563 321 L 593.5 321" fill="none" stroke="#444444" stroke-width="1.3" marker-end="url(#arr)"/>
<text x="922" y="235.5" font-size="10.5" text-anchor="middle" fill="#333" font-style="italic" stroke="white" stroke-width="2.5" paint-order="stroke" stroke-linejoin="round">Diffusion d'informations</text>
<text x="922" y="249" font-size="10.5" text-anchor="middle" fill="#333" font-style="italic" stroke="white" stroke-width="2.5" paint-order="stroke" stroke-linejoin="round">et messages concernant les prochains flux</text>
<text x="922" y="262.5" font-size="10.5" text-anchor="middle" fill="#333" font-style="italic" stroke="white" stroke-width="2.5" paint-order="stroke" stroke-linejoin="round">saisies par l'équipe centrale</text>
<path d="M 757.5 338 L 1153 338 L 1153 556.75 L 1163 556.75" fill="none" stroke="#444444" stroke-width="1.3" marker-end="url(#arr)"/>
<text x="922" y="302" font-size="10.5" text-anchor="middle" fill="#333" font-style="italic" stroke="white" stroke-width="2.5" paint-order="stroke" stroke-linejoin="round">Transmission des</text>
<text x="922" y="315.5" font-size="10.5" text-anchor="middle" fill="#333" font-style="italic" stroke="white" stroke-width="2.5" paint-order="stroke" stroke-linejoin="round">messages saisis par le personnel</text>
<text x="922" y="329" font-size="10.5" text-anchor="middle" fill="#333" font-style="italic" stroke="white" stroke-width="2.5" paint-order="stroke" stroke-linejoin="round">présent sur site</text>
<path d="M 761 542.5 L 788 542.5 L 788 349 L 1056 349 L 1056 348 L 1148 348 A 5 5 0 0 1 1158 348 L 1179 348" fill="none" stroke="#444444" stroke-width="1.3" marker-end="url(#arr)"/>
<text x="922" y="363.5" font-size="10.5" text-anchor="middle" fill="#333" font-style="italic" stroke="white" stroke-width="2.5" paint-order="stroke" stroke-linejoin="round">Archivage de</text>
<text x="922" y="377" font-size="10.5" text-anchor="middle" fill="#333" font-style="italic" stroke="white" stroke-width="2.5" paint-order="stroke" stroke-linejoin="round">la messagerie diffusée</text>
<text x="922" y="390.5" font-size="10.5" text-anchor="middle" fill="#333" font-style="italic" stroke="white" stroke-width="2.5" paint-order="stroke" stroke-linejoin="round">localement en site distant</text>
<path d="M 1920 515 L 1947 515 L 1947 679 L 526 679 L 526 654 L 1106 654 L 1106 582.25 L 1163 582.25" fill="none" stroke="#444444" stroke-width="1.3" marker-end="url(#arr)"/>
<text x="1813.5" y="694.5" font-size="10.5" text-anchor="middle" fill="#333" font-style="italic" stroke="white" stroke-width="2.5" paint-order="stroke" stroke-linejoin="round">Transmission des données</text>
<text x="1813.5" y="708" font-size="10.5" text-anchor="middle" fill="#333" font-style="italic" stroke="white" stroke-width="2.5" paint-order="stroke" stroke-linejoin="round">de collecte externe et événements</text>
<path d="M 1895 364.5 L 1937 365 L 1977 365 L 1977 807 L 496 807 L 496 623 L 558 623 A 5 5 0 0 1 568 623 L 1086 623 L 1086 446 L 1143 446 L 1143 365 L 1148 365 A 5 5 0 0 1 1158 365 L 1179 365" fill="none" stroke="#444444" stroke-width="1.3" marker-end="url(#arr)"/>
<text x="1825.5" y="822.5" font-size="10.5" text-anchor="middle" fill="#333" font-style="italic" stroke="white" stroke-width="2.5" paint-order="stroke" stroke-linejoin="round">Transmission messages de</text>
<text x="1825.5" y="836" font-size="10.5" text-anchor="middle" fill="#333" font-style="italic" stroke="white" stroke-width="2.5" paint-order="stroke" stroke-linejoin="round">perturbation des réseaux de transport souhaités</text>
<path d="M 1920 435.5 L 1937 436 L 1972 436 A 5 5 0 0 1 1982 436 L 1987 436 L 1987 179 L 1438 179 A 5 5 0 0 0 1428 179 L 1428 179 A 5 5 0 0 0 1418 179 L 526 179 L 526 338 L 593.5 338" fill="none" stroke="#444444" stroke-width="1.3" marker-end="url(#arr)"/>
<text x="1828" y="194.5" font-size="10.5" text-anchor="middle" fill="#333" font-style="italic" stroke="white" stroke-width="2.5" paint-order="stroke" stroke-linejoin="round">Transmission de la liste des prochains</text>
<text x="1828" y="208" font-size="10.5" text-anchor="middle" fill="#333" font-style="italic" stroke="white" stroke-width="2.5" paint-order="stroke" stroke-linejoin="round">flux et identité du véhicule de tête</text>
<text x="1828" y="221.5" font-size="10.5" text-anchor="middle" fill="#333" font-style="italic" stroke="white" stroke-width="2.5" paint-order="stroke" stroke-linejoin="round">pour contrôle périodique</text>
<path d="M 1895 577.5 L 1937 578 L 1942 578 A 5 5 0 0 1 1952 578 L 1957 578 L 1957 726 L 516 726 L 516 644 L 563 644 L 563 542.5 L 590 542.5" fill="none" stroke="#444444" stroke-width="1.3" marker-end="url(#arr)"/>
<text x="1778" y="741.5" font-size="10.5" text-anchor="middle" fill="#333" font-style="italic" stroke="white" stroke-width="2.5" paint-order="stroke" stroke-linejoin="round">Notifications trafic</text>
<text x="1778" y="755" font-size="10.5" text-anchor="middle" fill="#333" font-style="italic" stroke="white" stroke-width="2.5" paint-order="stroke" stroke-linejoin="round">et messagerie usagers</text>
<path d="M 1920 498 L 1967 498 L 1967 773 L 506 773 L 506 634 L 558 634 A 5 5 0 0 1 568 634 L 1096 634 L 1096 569.5 L 1163 569.5" fill="none" stroke="#444444" stroke-width="1.3" marker-end="url(#arr)"/>
<text x="1815.5" y="788.5" font-size="10.5" text-anchor="middle" fill="#333" font-style="italic" stroke="white" stroke-width="2.5" paint-order="stroke" stroke-linejoin="round">Transmission des missions et dessertes associés</text>
<line x1="20" y1="865" x2="1979" y2="865" stroke="#ddd" stroke-width="1"/>
<text x="20" y="887" font-size="11" font-weight="bold" fill="#555">LEGEND</text>
<rect x="150" y="877" width="26" height="14" rx="3" fill="#eef4fb" stroke="#7a9cc4" stroke-dasharray="5 3"/>
<text x="182" y="888" font-size="10" fill="#444">Actor group</text>
<rect x="272" y="877" width="26" height="14" rx="3" fill="#f6f2ea" stroke="#b09a6d"/>
<text x="304" y="888" font-size="10" fill="#444">System</text>
<rect x="368" y="877" width="26" height="14" rx="3" fill="#fdfbf6" stroke="#c4b258"/>
<text x="400" y="888" font-size="10" fill="#444">Layer</text>
<rect x="458" y="877" width="26" height="14" rx="3" fill="#ffffff" stroke="#666677"/>
<text x="490" y="888" font-size="10" fill="#444">Functional block</text>
<rect x="606" y="877" width="26" height="14" rx="3" fill="#f0eef5" stroke="#9187b3" stroke-dasharray="5 3"/>
<text x="638" y="888" font-size="10" fill="#444">External system</text>
<line x1="150" y1="907" x2="176" y2="907" stroke="#444444" stroke-width="1.3" marker-end="url(#arr)"/>
<text x="182" y="911" font-size="10" fill="#444">Functional flow (label = exchanged data)</text>
</svg>
